<?xml version="1.0" standalone="no"?>
<!DOCTYPE svg PUBLIC "-//W3C//DTD SVG 1.1//EN" "http://www.w3.org/Graphics/SVG/1.1/DTD/svg11.dtd"><svg t="1724831991352"
    class="icon" viewBox="0 0 1365 1024" version="1.1" xmlns="http://www.w3.org/2000/svg" p-id="8886"
    xmlns:xlink="http://www.w3.org/1999/xlink" width="266.6015625" height="200">
    <path d="M51.2 871.424a637.61 30.379 0 1 0 1275.221 0 637.61 30.379 0 1 0-1275.221 0z" fill="#777777" opacity=".1"
        p-id="8887"></path>
    <path d="M109.568 916.139a189.44 51.883 0 1 0 378.88 0 189.44 51.883 0 1 0-378.88 0z" fill="#777777" opacity=".1"
        p-id="8888"></path>
    <path d="M481.28 921.259a97.621 27.307 0 1 0 195.243 0 97.621 27.307 0 1 0-195.243 0z" fill="#777777" opacity=".1"
        p-id="8889"></path>
    <path
        d="M793.6 88.747l-190.123 42.666c-10.581 2.39-17.408 12.971-15.018 23.552l52.224 231.766 223.573-50.176c1.707-0.342 3.413-1.366 4.779-2.731l-51.883-230.4c-2.39-10.581-12.97-17.067-23.552-14.677z"
        fill="#E6E6E6" p-id="8890"></path>
    <path
        d="M724.65 120.49l-104.106 23.553c-9.557 2.048-15.701 11.946-13.653 21.504l49.152 218.112 198.656-44.715-35.84-158.72c-9.899-42.325-51.883-68.95-94.208-59.733z"
        fill="#FFFFFF" p-id="8891"></path>
    <path
        d="M816.128 326.997l-130.73 29.355c-2.39 0.683-3.755 2.73-3.414 5.12 0.341 2.39 2.73 3.755 5.12 3.413l130.73-29.354c2.39-0.683 3.755-2.731 3.414-5.12-0.341-2.39-2.73-3.755-5.12-3.414z m-3.755-16.725l-130.73 29.355c-2.39 0.682-3.755 2.73-3.414 5.12 0.683 2.389 2.731 3.754 5.12 3.413l130.731-29.355c2.39-0.682 3.755-2.73 3.413-5.12s-2.73-4.096-5.12-3.413z m-78.165-0.341l-56.661 12.629c-2.39 0.683-3.755 2.73-3.414 5.12 0.683 2.39 2.731 3.755 5.12 3.413l56.662-12.629c2.389-0.683 3.754-2.73 3.413-5.12-0.341-2.39-2.39-3.755-5.12-3.413 0.341 0 0 0 0 0z m66.219-51.883l-130.731 29.355c-2.39 0.682-3.755 2.73-3.413 5.12 0.682 2.389 2.73 3.754 5.12 3.413l130.73-29.355c2.39-0.682 3.755-2.73 3.414-5.12s-2.731-4.096-5.12-3.413z m-3.755-16.725l-130.73 29.354c-2.39 0.683-3.755 2.731-3.414 5.12 0.341 2.39 2.73 3.755 5.12 3.414l130.73-29.355c2.39-0.683 3.755-2.73 3.414-5.12s-2.73-4.096-5.12-3.413z m-77.824-0.342l-56.661 12.63c-2.39 0.682-3.755 2.73-3.414 5.12 0.683 2.389 2.731 3.754 5.12 3.413l56.662-12.63c2.389-0.682 3.754-2.73 3.413-5.12-0.341-2.389-2.73-3.754-5.12-3.413z"
        fill="#E4E4E4" p-id="8892"></path>
    <path
        d="M785.067 189.099l-131.072 29.354c-2.39 0.683-3.755 2.731-3.414 5.12 0.683 2.39 2.731 3.755 5.12 3.414l130.731-29.355c2.39-0.683 3.755-2.73 3.413-5.12 0-2.39-2.389-4.096-4.778-3.413z m-3.755-17.067l-130.73 29.355c-2.39 0.682-3.755 2.73-3.414 5.12 0.683 2.389 2.73 3.754 5.12 3.413l130.73-29.355c2.39-0.682 3.755-2.73 3.414-5.12-0.341-2.389-2.73-3.754-5.12-3.413z m-77.824 0l-56.661 12.63c-2.39 0.682-3.755 2.73-3.414 5.12 0.683 2.389 2.731 3.754 5.12 3.413l56.662-12.63c2.389-0.682 3.754-2.73 3.413-5.12-0.683-2.389-3.072-4.096-5.12-3.413z"
        fill="#E6E6E6" p-id="8893"></path>
    <path
        d="M414.037 357.717c-2.73 0-4.778 2.048-4.778 4.779v483.67c0 2.73 2.048 4.778 4.778 4.778h606.55c2.73 0 4.778-2.048 4.778-4.779V439.98c0-2.731-2.048-4.779-4.778-4.779h-348.16c-3.414 0-6.827-1.365-9.558-3.755l-78.165-70.997c-2.048-1.707-4.779-2.73-7.51-2.73H414.038z"
        fill="#3F3D56" p-id="8894"></path>
    <path
        d="M1137.664 231.424L813.056 91.819c-18.09-7.851-39.253 0.682-47.104 18.773L595.968 506.197l381.61 164.182c3.073 1.365 6.486 1.706 9.9 1.365l168.96-393.216c7.85-18.432-0.683-39.595-18.774-47.104z"
        fill="#E6E6E6" p-id="8895"></path>
    <path
        d="M1002.496 204.459L824.661 128c-16.384-7.168-35.498 0.683-42.666 17.067L621.909 517.12l338.944 145.75 116.395-271.02c30.72-72.362-2.39-155.989-74.752-187.391z"
        fill="#FFFFFF" p-id="8896"></path>
    <path
        d="M917.163 604.843L693.93 508.928c-4.096-1.707-8.534 0-10.582 4.096-1.706 4.096 0 8.533 4.096 10.581l223.232 95.915c4.096 1.707 8.534 0 10.24-4.096 2.048-4.096 0.342-8.533-3.754-10.581z m12.288-28.672l-223.232-95.915c-4.096-1.707-8.875 0-10.582 4.096s0 8.533 4.096 10.581l223.232 95.915c4.096 1.707 8.534 0 10.582-4.096 1.706-4.096 0-8.875-4.096-10.581z m-114.006-83.286l-96.938-41.642c-4.096-1.707-8.534 0-10.582 4.096-1.706 4.096 0 8.533 4.096 10.581l96.939 41.643c4.096 1.706 8.533 0 10.581-4.096 1.707-4.096 0-8.875-4.096-10.582z m152.235-5.802l-223.232-95.915c-4.096-1.707-8.875 0-10.581 4.096s0 8.875 4.096 10.581l223.232 95.915c4.096 1.707 8.533 0 10.24-4.096 2.389-4.096 0.341-8.875-3.755-10.581z m12.288-28.672l-223.232-95.915c-4.096-1.707-8.533 0-10.581 4.096-1.707 4.096 0 8.533 4.096 10.581l223.232 95.915c4.096 1.707 8.533 0 10.24-4.096 2.389-4.096 0.341-8.875-3.755-10.581 0.341 0 0.341 0 0 0z m-114.005-83.286l-96.939-41.642c-4.096-1.707-8.875 0-10.581 4.096s0 8.533 4.096 10.581l96.938 41.643c4.096 1.706 8.875 0 10.582-4.096s0-8.875-4.096-10.582z"
        fill="#E4E4E4" p-id="8897"></path>
    <path
        d="M1018.539 369.323l-223.232-95.915c-4.096-1.707-8.875 0-10.582 4.096s0 8.533 4.096 10.581L1012.053 384c4.096 1.707 8.534 0 10.24-4.096 2.048-4.096 0.342-8.875-3.754-10.581z m12.288-28.672l-223.232-95.915c-4.096-1.707-8.875 0-10.582 4.096s0 8.533 4.096 10.581l223.232 95.915c4.096 1.707 8.534 0 10.582-4.096s0-8.875-4.096-10.581zM916.48 257.365l-96.939-41.642c-4.096-1.707-8.874 0-10.581 4.096s0 8.533 4.096 10.581l96.939 41.643c4.096 1.706 8.533 0 10.24-4.096 2.389-4.438 0.341-8.875-3.755-10.582 0.341 0 0 0 0 0z"
        fill="#4B73F5" p-id="8898"></path>
    <path
        d="M675.499 375.125l-190.123 42.667c-10.581 2.39-17.408 12.97-15.019 23.552l52.224 231.765 223.574-50.176c1.706-0.341 3.413-1.365 4.778-2.73l-51.882-230.4c-2.39-10.582-12.971-17.067-23.552-14.678z"
        fill="#E6E6E6" p-id="8899"></path>
    <path
        d="M606.55 406.87L502.442 430.42c-9.558 2.048-15.702 11.606-13.654 21.504l49.152 218.112 198.656-44.714-35.84-158.72c-9.898-42.667-51.882-69.291-94.208-59.734z"
        fill="#FFFFFF" p-id="8900"></path>
    <path
        d="M698.027 613.376l-130.731 29.355c-2.39 0.341-3.755 2.73-3.413 5.12 0.341 2.389 2.73 3.754 5.12 3.413l130.73-29.355c2.39-0.341 3.755-2.73 3.414-5.12-0.342-2.389-2.731-3.754-5.12-3.413z m-3.755-16.725l-130.73 29.354c-2.39 0.683-3.755 2.731-3.414 5.12 0.683 2.39 2.73 3.755 5.12 3.414l130.73-29.355c2.39-0.341 3.755-2.73 3.414-5.12-0.341-2.73-2.73-4.096-5.12-3.413z m-77.824-0.342l-56.661 12.63c-2.39 0.682-3.755 2.73-3.414 5.12 0.683 2.389 2.731 3.754 5.12 3.413l56.662-12.63c2.389-0.34 3.754-2.73 3.413-5.12-0.683-2.389-2.73-3.754-5.12-3.413z m65.877-51.882l-130.73 29.354c-2.39 0.683-3.755 2.731-3.414 5.12 0.683 2.39 2.731 3.755 5.12 3.414l130.731-29.355c2.39-0.341 3.755-2.73 3.413-5.12-0.341-2.39-2.73-4.096-5.12-3.413 0.342 0 0.342 0 0 0z m-3.754-17.067L547.84 556.715c-2.39 0.341-3.755 2.73-3.413 5.12 0.341 2.389 2.73 3.754 5.12 3.413l130.73-29.355c2.39-0.341 3.755-2.73 3.414-5.12s-2.731-3.754-5.12-3.413c0.341 0 0 0 0 0z m-77.824 0l-56.662 12.63c-2.389 0.682-3.754 2.73-3.413 5.12 0.683 2.389 2.73 3.754 5.12 3.413l56.661-12.63c2.39-0.341 3.755-2.73 3.414-5.12-0.342-2.389-2.731-4.096-5.12-3.413z"
        fill="#E4E4E4" p-id="8901"></path>
    <path
        d="M666.965 475.136l-130.73 29.355c-2.39 0.682-3.755 2.73-3.414 5.12 0.683 2.389 2.731 3.754 5.12 3.413l130.731-29.355c2.39-0.682 3.755-2.73 3.413-5.12s-2.73-3.754-5.12-3.413z m-3.754-16.725L532.48 487.765c-2.39 0.683-3.755 2.731-3.413 5.12 0.682 2.39 2.73 3.755 5.12 3.414l130.73-29.355c2.39-0.683 3.755-2.73 3.414-5.12s-2.731-4.096-5.12-3.413z m-77.824-0.342l-56.662 12.63c-2.389 0.682-3.754 2.73-3.413 5.12 0.683 2.389 2.73 3.754 5.12 3.413l56.661-12.63c2.39-0.682 3.755-2.73 3.414-5.12-0.683-2.389-3.072-3.754-5.12-3.413z"
        fill="#E6E6E6" p-id="8902"></path>
    <path
        d="M410.283 484.693c-2.731 0-4.779 2.048-4.779 4.779V849.92c0.341 2.39 2.39 4.096 4.779 4.096h651.264c2.389 0 4.437-1.707 4.778-4.096l40.619-359.765c0-1.366-0.341-2.731-1.024-3.755-1.024-1.024-2.048-1.707-3.413-1.707H410.283z"
        fill="#3F3D56" p-id="8903"></path>
    <path
        d="M636.587 713.728H476.5c-3.413 0-6.144-2.73-6.144-6.144s2.731-6.144 6.144-6.144h160.086c8.192-0.341 8.192 12.63 0 12.288z m216.064 32.768H476.5c-3.413 0-6.144-2.73-6.144-6.144s2.731-6.144 6.144-6.144h376.15c7.85-0.341 7.85 12.288 0 12.288zM634.88 636.586H474.453c-3.413 0-6.144-2.73-6.144-6.143s2.731-6.144 6.144-6.144H634.88c7.85-0.342 8.192 12.288 0 12.288z m215.723 32.427h-376.15c-3.413 0-6.144-2.73-6.144-6.144s2.731-6.144 6.144-6.144h376.15c7.85-0.341 8.192 12.63 0 12.288z"
        fill="#F4F4F4" p-id="8904"></path>
    <path
        d="M520.533 918.87l12.288 0.682v0.341l28.331 1.707h1.365l12.288 0.683v0.341l25.942 1.707h1.365l12.288 0.682v0.342l22.528 1.365h0.683c4.437-1.365 8.192-4.779 9.898-9.216l0.342-0.683c1.024-4.437 0.341-9.216-2.048-12.97l-0.342-0.342-96.938-63.829 4.096-11.264-15.019-5.461-35.84 102.058 15.019 5.12 3.754-11.264z m75.094-43.35l16.042 10.581-11.946 33.792-19.456-1.365 15.36-43.008z m-57.344 40.619l22.528-63.488 18.09 11.946-18.773 52.907-21.845-1.365z m105.813 0c-1.365 3.072-4.096 5.461-7.168 6.485L619.52 921.6l8.533-24.235 14.336 9.558c2.048 2.389 2.39 5.802 1.707 9.216z"
        fill="#DDDDDD" p-id="8905"></path>
    <path
        d="M346.112 490.155v-53.248c0-39.595-31.744-71.68-71.339-71.68-39.594 0-71.68 31.744-71.68 71.338v0.342c-12.629 26.282-4.778 38.912 0 53.248 0 5.461 4.438 9.557 9.558 9.557h123.904c5.12 0.341 9.557-4.096 9.557-9.557z"
        fill="#2F2E41" p-id="8906"></path>
    <path d="M254.293 548.523s16.043-9.558 12.288-58.368l32.768-6.827s-3.754 43.69 12.971 57.685l-58.027 7.51z"
        fill="#EDA59F" p-id="8907"></path>
    <path d="M305.835 531.797l-27.307-23.552 21.504-0.341c0.341 8.192 2.39 16.384 5.803 23.893z" opacity=".15"
        p-id="8908"></path>
    <path d="M240.298 458.07a53.59 53.59 0 1 0 107.18 0 53.59 53.59 0 1 0-107.18 0z" fill="#F5A9A0" p-id="8909"></path>
    <path
        d="M242.005 457.045c0.342 0 1.024-0.341 1.366-0.341 8.192-1.365 16.725-3.072 24.917-4.437l0.683-18.774 10.24 16.726c22.869 7.509 44.714 3.413 64.853-6.144 6.827-3.072 13.312-6.827 19.456-10.582-3.413-21.162-16.384-39.594-34.816-50.176-0.683-0.341-1.365-0.682-2.39-1.024-1.365-0.682-2.73-1.024-4.095-1.706-21.163-8.192-45.398-3.755-61.782 11.946-16.384 15.36-23.552 40.96-18.432 64.512z"
        fill="#2F2E41" p-id="8910"></path>
    <path
        d="M383.317 907.264c4.096-0.683 48.128-9.216 48.128-9.216l-7.168-48.128s-44.032 8.533-47.786 9.216l6.826 48.128z"
        fill="#F5A9A0" p-id="8911"></path>
    <path
        d="M468.992 948.907c0.683 5.12-2.39 10.24-7.168 10.922h-0.683 0.683c-3.413 0.342-7.168-1.365-8.533-4.778l-37.206-48.128c-1.024-2.048-1.024-4.438-0.341-6.827 3.755-8.533 4.779-18.09 3.072-27.648-1.365-7.168-4.779-13.653-9.557-19.115-1.366-1.365-1.366-3.754-0.342-5.12 0.342-0.682 1.024-1.024 2.048-1.365l36.523-9.216c3.072-0.683 5.803 1.707 6.485 5.12l15.019 106.155z"
        fill="#142233" p-id="8912"></path>
    <path
        d="M246.784 777.557c-18.432 0.683-36.864 1.366-55.637 2.048l-27.99 0.683-27.989 0.683h-2.73c-25.26 0.682-45.398 23.893-44.715 52.565 0.341 25.6 17.408 47.104 40.277 50.176L404.48 921.6l11.264-92.16-275.456-47.787-7.51 102.742 28.331 2.048 28.331 2.048c18.773 1.365 37.888 2.389 57.344 3.413V777.557z"
        fill="#102747" p-id="8913"></path>
    <path
        d="M177.152 887.125c38.23-6.144 41.984-7.509 43.35-7.85l-11.265-47.104h0.342c-3.072 0.682-22.528 4.096-38.571 6.826l6.144 48.128z"
        fill="#F5A9A0" p-id="8914"></path>
    <path
        d="M118.784 924.33c-1.707 5.12 0.683 10.24 5.12 12.289 0.341 0 0.341 0 0.683 0.341 3.072 1.024 6.485 0 8.533-3.072l44.032-41.984c1.365-1.707 1.707-4.096 1.365-6.485-2.048-9.216-1.365-18.774 1.707-27.648 2.73-6.827 7.168-12.63 12.63-16.726 1.706-1.024 2.047-3.072 1.023-4.778-0.341-0.683-1.024-1.366-1.706-1.707l-33.792-14.336c-2.731-1.365-6.144 0.341-7.168 3.755L118.784 924.33z"
        fill="#142233" p-id="8915"></path>
    <path
        d="M377.856 878.25l17.408-0.682 17.408-0.683c11.605-0.341 23.21-0.682 34.816-0.682l-4.096-93.867c-21.504 3.413-242.347 19.115-264.192 21.163l10.923 138.24c21.504-3.414 241.322-63.83 262.826-66.219 22.87-2.39 39.595-25.259 37.547-51.2-2.048-23.21-18.432-41.301-38.912-42.325l-2.73-0.342c-11.606-0.682-23.211-1.365-34.817-2.389l-17.408-1.365-31.744-0.683c-11.264-0.683 1.366 101.376 12.971 101.035z"
        fill="#102747" p-id="8916"></path>
    <path
        d="M138.581 643.072c2.731-11.947 26.966-62.123 53.248-92.16 17.067-19.456 50.518-16.725 58.368-16.725 1.366 12.97 71.68 12.97 72.022 0.341 2.73 0 4.778 0 6.144 0.341 28.33 1.366 43.69-3.072 59.733 26.624 21.504 38.912 59.392 121.174 49.493 177.152-2.389 12.971-7.509 17.408-18.432 22.528-3.754 1.707-7.509 2.048-11.264 1.707l-32.426-5.12c1.706 9.216 1.706 16.384-1.366 24.235-8.533 22.528-178.176 31.744-180.224-7.51v-1.024l-27.989-3.072c-47.787-13.653-32.427-106.154-27.307-127.317z m234.496 56.32l-7.509-20.139c0 10.582 0 12.288 0.683 20.139h6.826z m-167.253 23.893c4.096-14.677 6.144-29.696 6.144-45.056v-5.461l-6.144 50.517z"
        fill="#4B73F5" p-id="8917"></path>
    <path d="M321.877 534.528c-0.682 12.63-6.826 31.403-25.6 33.11-25.258 2.047-45.056-20.14-46.421-33.11h72.021z"
        fill="#F5A9A0" p-id="8918"></path>
    <path
        d="M343.04 751.957l-55.637 20.139-93.867 2.048 86.357 5.461 39.595-1.706 19.115-17.75z m-5.461-12.288l-93.526-7.509 84.992 14.336z m28.672-50.858l-115.371-9.899 115.37 20.48z m-163.158 7.509l47.104 23.21 0.683 9.9-34.475-7.851-10.581-16.384z"
        fill="#426EE5" p-id="8919"></path>
    <path
        d="M330.07 759.125c-9.217 6.486-23.553 9.558-36.182 10.582l-0.683-25.6c5.803-0.342 15.019-1.024 23.552-0.342 4.096-3.754 6.144-4.778 10.24-9.557 4.438-4.779 15.702-7.85 18.091 0 2.39 7.85-6.827 19.115-15.019 24.917z m-115.713-46.762c9.216 7.85 23.552 11.605 35.84 12.97l0.683-31.402c-5.803-0.342-15.019-1.024-23.552-0.683-4.096-4.437-6.144-5.803-10.24-11.605-4.437-6.144-15.701-9.558-18.09 0-2.39 9.898 7.167 23.893 15.36 30.72z"
        fill="#F5A9A0" p-id="8920"></path>
    <path
        d="M1108.992 752.981c1.024 1.024 2.39 2.048 3.413 3.072 1.024 1.024 2.048 2.048 2.731 3.414 1.707 2.389 3.413 4.778 4.779 7.509 2.73 5.12 5.12 10.923 6.826 16.384 1.024 3.072 2.048 6.485 3.072 9.557 0 0.683-0.682 0.683-1.024 0.342-1.706-5.462-3.413-11.264-5.802-16.726a66.482 66.482 0 0 0-8.192-15.36c-1.024-1.365-2.048-2.73-3.072-3.754-0.342-2.048-1.366-3.414-2.731-4.438 0 0 0-0.341 0 0z"
        fill="#ABE3DE" p-id="8921"></path>
    <path
        d="M1116.501 724.31c1.366 2.047 2.731 4.095 3.755 6.485 1.024 2.048 2.048 4.096 2.73 6.485a99.213 99.213 0 0 1 4.097 13.312c1.024 5.12 1.706 10.24 2.389 15.36 0.683 5.461 1.365 10.923 1.707 16.384 0.682 6.144 1.024 12.288 1.365 18.432 0 0.683-0.683 1.024-1.024 1.024-0.683 0-1.024-0.341-1.024-1.024-0.683-10.923-1.707-21.845-2.73-32.768-0.683-5.12-1.025-10.24-2.049-15.019-0.682-4.437-2.048-8.874-3.413-13.312-1.707-5.12-3.755-9.898-6.144-14.677-0.683-0.683 0-1.024 0.341-0.683z"
        fill="#4CC89E" p-id="8922"></path>
    <path
        d="M1118.208 730.453s14.336-5.461 9.216-22.528c0 0-9.557-20.138-19.797-24.917l-1.366 6.144s0.683-6.144-1.706-7.168c-2.731-1.024-8.192-3.072-9.216-1.365-1.024 1.706-1.024 3.072-1.024 3.072l-1.707-1.024s-1.707 3.072-1.707 4.778l2.39 3.755-3.414-2.048s-5.12 16.725 15.702 41.984c0.341-0.341 3.754 4.096 12.629-0.683z"
        fill="#ABE3DE" p-id="8923"></path>
    <path
        d="M1168.043 803.157c0.341 1.366 0.341 2.39 0.341 3.755v50.176c0 10.581-7.85 19.456-17.75 19.456h-35.157c-9.557 0-17.749-8.875-17.749-19.456v-50.176c0-1.365 0-2.73 0.341-3.755h69.974z"
        fill="#CFD7E5" p-id="8924"></path>
    <path
        d="M1168.725 804.181c0 3.414-15.701 6.144-35.498 6.144-19.456 0-35.499-2.73-35.499-6.144s15.701-6.144 35.499-6.144c19.797 0 35.498 2.731 35.498 6.144z"
        fill="#DAE2F4" p-id="8925"></path>
    <path
        d="M1162.24 804.181c0 2.731-12.97 4.779-28.672 4.779-15.701 0-28.672-2.048-28.672-4.779 0-2.73 12.97-4.778 28.672-4.778 16.043-0.342 28.672 2.048 28.672 4.778z"
        fill="#DAE2F4" p-id="8926"></path>
    <path
        d="M1223.68 634.197v-2.73s-2.73-0.342-4.096 1.365l-3.413 3.413c0 0.342 1.706-4.437 1.706-4.437s-22.528 7.51-37.546 21.504-3.414 31.744-2.731 31.744c1.024 0 39.936-20.48 46.08-50.859z m-63.83 54.955s12.971 2.39 10.923 12.63c0 0-5.461 12.629-19.797 8.533 0 0-10.581-3.755-10.581-11.606 0 0 2.73-16.384 19.456-9.557z m36.182 46.763c0.341-1.707-2.048-3.072-3.413-3.414h-2.731l5.12-1.365s-6.144-10.923-20.48-16.043c0 0-13.312-8.874-26.624 7.851 0 0-9.216 4.779-1.024 8.875 0.341 0.341 0.683 0.341 1.365 0.682 6.486 2.731 13.654 4.779 20.822 5.803 5.12 0.683 10.24 0.341 15.36 1.024 3.413 0.341 8.533 0.683 11.264-2.048 0-0.683 0.341-1.024 0.341-1.365z"
        fill="#4CC89E" p-id="8927"></path>
    <path
        d="M1119.915 766.635s-47.446-25.259-48.128-26.624c-0.683-1.366 2.73-0.342 2.73-0.342s4.779-2.389 8.875-0.341l2.39 3.413-0.683-3.413s25.6 5.12 33.45 16.725c0 0.342 7.851 6.827 1.366 10.582z m-1.366-129.366c3.755 9.899 6.144 20.48 7.851 30.72 1.707 10.582 2.73 21.163 3.755 31.403 1.024 11.264 2.048 22.528 3.072 34.133a560.77 560.77 0 0 1 2.048 33.792c0.341 11.264 0.682 22.87 0.341 34.134v4.096c0 1.706 2.73 1.706 2.73 0 0.342-11.264 0.342-22.87 0-34.134-0.34-11.605-1.023-22.869-2.047-34.474-0.683-11.264-2.048-22.528-3.072-34.134-1.024-10.581-2.048-21.504-3.414-32.085-1.706-10.581-3.754-21.163-7.168-31.061-0.341-1.366-1.024-2.39-1.365-3.755-0.341-0.683-1.024-1.024-1.707-1.024-0.682 1.024-1.365 1.707-1.024 2.39z"
        fill="#ABE3DE" p-id="8928"></path>
    <path
        d="M1061.888 719.53c1.024-0.34 2.048-0.34 3.072-0.34s2.048 0 3.072 0.34c2.048 0.342 3.755 0.683 5.803 1.366 3.754 1.024 7.509 2.73 10.922 4.437s6.827 3.755 9.899 6.144c3.413 2.048 6.485 4.438 9.216 6.827 5.803 5.12 10.581 10.923 14.677 17.408 4.438 6.827 7.51 14.336 9.899 22.187 1.365 4.096 2.048 8.192 2.73 12.288 0.342 2.048 0.683 4.437 1.025 6.485 0 1.024 0.341 2.048 0.341 3.072v6.144c0 0.683-0.341 1.024-1.024 1.024-0.341 0-1.024-0.341-1.365-0.683 0-1.024-0.342-2.048-0.342-3.072s-0.341-2.389-0.341-3.413-0.341-2.048-0.341-3.072v-1.365c0-0.342 0 0.341 0 0v-1.024c-0.683-4.096-1.366-8.192-2.39-12.288s-2.389-7.851-4.096-11.947c0-0.341-0.341-0.341-0.341-0.683v-0.341c0 0.341 0 0 0 0-0.341-0.341-0.341-1.024-0.683-1.365-0.341-1.024-0.682-1.707-1.365-2.731-0.683-1.707-1.707-3.413-2.73-4.779-1.707-3.072-3.755-6.144-6.145-9.216 0 0-0.341-0.341 0 0v-0.341c0-0.341-0.341-0.341-0.341-0.683l-1.024-1.024c-1.707-2.048-3.755-4.096-5.803-6.144-1.365-1.365-2.73-2.389-4.096-3.754-0.682-0.683-1.365-1.366-2.048-1.707 0.342 0.341 0 0 0 0l-0.341-0.341-0.341-0.342c-0.342-0.341-0.683-0.682-1.366-0.682-3.072-2.048-6.485-4.438-9.557-6.144-1.707-1.024-3.413-2.048-5.12-2.731-1.707-0.683-3.413-1.365-4.779-2.048-3.413-1.365-7.168-2.39-10.922-3.072-1.024-0.341-1.707-0.341-2.731-0.683-1.365-0.682-1.365-1.706-1.024-1.706z"
        fill="#4CC89E" p-id="8929"></path>
    <path
        d="M1183.403 677.888c-1.366 4.096-3.755 7.85-6.827 11.264-2.73 3.413-5.803 7.168-8.533 10.581-5.462 7.51-10.923 15.36-15.36 23.552-2.048 3.755-4.096 7.851-5.803 11.947-1.707 4.096-3.072 8.192-4.096 12.63-2.048 8.533-3.755 17.407-5.461 25.94-1.707 9.558-3.755 18.774-3.755 28.331v3.755c0 0.683-0.683 1.365-1.365 1.365s-1.366-0.682-1.366-1.365c-0.682-9.899 1.024-19.797 3.072-29.355 1.707-8.533 3.072-17.408 5.12-25.941 1.024-4.096 2.048-8.533 3.755-12.63 1.365-4.095 3.413-8.191 5.461-12.287 4.438-8.192 9.558-16.384 15.019-23.894 2.73-3.754 5.803-7.509 8.533-11.264 2.731-3.413 5.462-6.485 7.51-10.581l1.024-3.072c0.682-1.365 3.413-0.683 3.072 1.024z"
        fill="#4CC89E" p-id="8930"></path>
    <path
        d="M1207.296 702.123c-6.827 5.802-13.653 11.946-20.48 18.09-3.413 3.072-6.827 6.144-9.899 9.216-3.072 2.731-5.802 5.462-8.533 8.875-4.779 5.803-8.875 12.63-12.63 19.456-3.754 7.168-7.85 14.336-10.922 21.845-3.413 7.51-6.144 15.36-7.85 23.211-0.342 1.024-0.342 2.048-0.683 3.072 0 0.683-1.024 1.024-1.707 1.024-0.683-0.341-1.024-1.024-1.024-1.707 1.707-8.192 4.096-16.042 7.51-23.893s6.826-15.019 10.922-22.528c3.755-6.827 7.51-13.653 12.288-19.797 2.39-3.072 5.12-6.144 8.192-9.216 3.072-3.072 6.485-6.144 9.899-9.216 6.826-6.144 13.653-12.288 20.48-18.091 1.024-0.683 1.706-1.365 2.73-2.39 0.683-0.34 1.366-0.682 2.048 0 0 0.683 0 1.707-0.341 2.049z"
        fill="#ABE3DE" p-id="8931"></path>
    <path
        d="M1134.25 803.499c2.049-4.096 4.438-8.192 7.169-12.288 2.73-3.755 5.461-7.51 8.874-10.923 2.048-1.707 4.096-3.413 6.486-5.12 0.682-0.341 1.706 0 1.706 0.341 0.342 0.683 0 1.366-0.341 1.707-2.048 1.365-3.413 2.39-5.12 4.096a31.628 31.628 0 0 0-4.779 4.779c-0.682 1.024-1.365 1.706-2.048 2.73-0.682 1.024-1.365 2.048-2.048 2.731-1.365 2.048-2.389 3.755-3.754 5.803-1.366 2.389-2.731 4.437-3.755 6.826-0.341 0.683-1.365 1.024-1.707 0.342-0.682 0.682-1.024-0.342-0.682-1.024z m-69.631-77.824s11.264-4.096 6.485-14.336c0 0-5.12-15.36-37.547-34.134l-0.341 3.755s-2.39-4.437-6.827-7.51c0 0-3.072 1.025 10.582 18.091-0.342 0.342 23.21 34.816 27.648 34.134z"
        fill="#4CC89E" p-id="8932"></path>
    <path
        d="M1150.635 697.344c-1.024 3.072-2.048 6.485-2.731 9.899-1.024 3.413-1.707 6.485-2.73 9.898-1.707 6.486-3.073 13.312-4.097 19.798-1.024 6.826-2.048 13.653-2.389 20.48 0 3.413 0 6.826-0.341 10.581 0 3.413-0.683 6.827-1.024 10.581-0.683 7.168-1.366 13.995-1.707 21.163 0 0.683 0 1.707-0.341 2.73 0 1.025-1.366 1.025-1.366 0 0-7.167 0.683-13.994 1.366-21.162 0.341-3.413 0.682-7.168 1.024-10.581 0.341-3.414 0.341-6.827 0.341-10.582 0-3.413 0.341-7.168 0.683-10.581s1.024-6.827 1.365-10.24c1.024-6.827 2.39-13.312 4.096-20.139a213.268 213.268 0 0 1 6.144-19.456c0.341-0.682 0.683-1.706 0.683-2.389 0.682-0.683 1.024-0.341 1.024 0z"
        fill="#4CC89E" p-id="8933"></path>
    <path
        d="M1096.363 567.979s-5.462 7.509-4.438 11.264l4.438 5.802-5.12-3.754s-4.096 27.648 5.802 45.738c10.24 18.091 20.139 16.726 20.139 16.726s6.827-0.683 7.51 2.73c0.682 3.072 16.725-4.778 16.383-14.336-0.341-9.557-14.677-48.469-33.792-58.368l-1.024 3.414-0.341-4.779c0-1.024-8.192-5.461-9.557-4.437z m144.042 98.986s4.096-3.072 3.414 3.072c-0.342 5.803-0.683 8.534-0.683 8.534l-3.755 1.706h3.414s-9.558 25.6-27.99 32.768c0 0-12.288 6.827-22.528-1.706 0 0-8.874-11.606-2.048-20.139 0 0 17.75-21.163 40.278-25.941l0.341 2.048 3.072-2.048c-0.341 0 7.168-3.414 6.485 1.706z"
        fill="#ABE3DE" p-id="8934"></path>
    <path
        d="M1198.421 757.76c0-0.341-5.12-4.779-26.965-1.365-1.707 0.341-3.072 0.682-4.437 1.706-3.414 2.39-10.24 7.168-11.264 14.678 0 0-2.048 6.485 8.533 6.144s33.792-18.091 34.133-21.163z"
        fill="#4CC89E" p-id="8935"></path>
    <path
        d="M1239.381 672.427c-0.341 0-0.682 0.341-1.024 0.341 0 0 0.342 0 0.342-0.341-0.683 0.341-1.024 0.682-1.707 1.024l0.341-0.342c-0.341 0.342-1.024 0.683-1.365 1.366l0.341-0.342c-0.341 0.342-0.341 0.683-0.682 1.024l-1.024 1.024c-0.342 0-1.024 0-1.366-0.341-1.024-0.683-1.365-1.707-0.682-2.73 1.365-2.049 3.413-3.755 5.802-4.438 0.342 0 1.024 0 1.366 0.341l1.024 1.024c0 0.342 0 1.024-0.342 1.366l-1.024 1.024z"
        fill="#ABE3DE" p-id="8936"></path>
    <path d="M380.586 139.947a79.19 79.19 0 1 0 158.38 0 79.19 79.19 0 1 0-158.38 0z" fill="#4CC89E" p-id="8937"></path>
    <path
        d="M468.31 120.15c0-5.12-3.755-7.851-8.193-7.851-2.73 0-5.12 0.682-7.168 2.389-3.072 2.048-6.826 1.365-9.557-1.024-3.755-3.413-3.413-9.557 1.024-12.288 5.12-3.413 11.605-5.803 18.432-5.803 14.336 0 25.6 6.827 25.6 22.87 0 13.994-14.677 19.456-17.75 30.378-1.023 3.414-3.754 5.803-7.509 5.803h-2.73c-5.462 0-9.216-5.12-7.51-10.24 3.755-10.581 15.36-16.725 15.36-24.235z m-19.798 53.247c0.683-5.461 4.096-9.898 9.557-10.922 9.216-2.048 16.043 4.778 14.678 14.336-0.683 5.461-4.438 9.557-9.558 10.581-8.874 2.048-15.701-4.779-14.677-13.995z"
        fill="#FFFFFF" p-id="8938"></path>
    <path d="M279.893 262.827a41.301 41.301 0 1 0 82.603 0 41.301 41.301 0 1 0-82.603 0z" fill="#4CC89E" p-id="8939">
    </path>
    <path
        d="M325.632 252.587c0-2.731-2.048-4.096-4.437-4.096-1.366 0-2.731 0.341-3.755 1.024-1.707 1.024-3.755 1.024-5.12-0.342-2.048-1.706-1.707-4.778 0.341-6.144 2.731-2.048 6.144-3.072 9.558-3.072 7.509 0 13.312 3.755 13.312 11.947 0 7.168-7.51 9.899-9.216 15.701-0.683 1.707-2.048 3.072-4.096 3.072h-1.366c-2.73 0-4.778-2.73-4.096-5.12 2.731-5.802 8.875-9.216 8.875-12.97z m-10.24 29.354c-0.341-4.096 2.39-7.509 6.144-7.509 3.413 0 6.144 2.73 6.485 6.144 0.342 4.096-2.389 7.51-6.485 7.51-3.072-0.342-5.803-2.731-6.144-6.145z"
        fill="#FFFFFF" p-id="8940"></path>
</svg>