<svg xmlns="http://www.w3.org/2000/svg" xmlns:xlink="http://www.w3.org/1999/xlink" fill="none" version="1.1" width="24" height="24" viewBox="0 0 24 24"><defs><clipPath id="master_svg0_1935_5589"><rect x="0" y="0" width="24" height="24" rx="4"/></clipPath><clipPath id="master_svg1_1935_5591"><rect x="5" y="5" width="14" height="14" rx="0"/></clipPath></defs><g clip-path="url(#master_svg0_1935_5589)"><g clip-path="url(#master_svg1_1935_5591)"><g><path d="M5.5,12Q5.5,9.30761,7.40381,7.40381Q9.30761,5.5,12,5.5Q14.69238,5.5,16.5962,7.4038Q18.5,9.30762,18.5,12Q18.5,14.69237,16.5962,16.5962Q14.69237,18.5,12,18.5Q9.30762,18.5,7.4038,16.5962Q5.5,14.69238,5.5,12ZM6.52632,12Q6.52632,14.26726,8.12952,15.8705Q9.73273,17.4737,12,17.4737Q14.26725,17.4737,15.8705,15.8705Q17.4737,14.26725,17.4737,12Q17.4737,9.73273,15.8705,8.12952Q14.26726,6.52632,12,6.52632Q9.73273,6.52632,8.12952,8.12952Q6.52632,9.73272,6.52632,12Z" fill-rule="evenodd" fill="#595959" fill-opacity="1"/></g><g><path d="M9.757947741851806,11.775842302398681L11.000257741851806,13.018152302398683L14.242547741851807,9.775855302398682C14.355177741851808,9.663226402398681,14.507787741851807,9.600012302398682,14.666917741851806,9.600012302398682C14.826047741851806,9.600012302398682,14.978667741851806,9.663226402398681,15.091187741851806,9.775748302398682C15.203707741851806,9.888270302398682,15.266917741851806,10.040882302398682,15.266917741851806,10.200012302398681C15.266917741851806,10.359142302398682,15.203707741851806,10.511754302398682,15.091187741851806,10.624272302398682L11.424517741851806,14.290942302398681C11.190207741851808,14.52525230239868,10.810307741851807,14.52525230239868,10.575987741851806,14.290942302398681L8.909419741851806,12.624372302398681C8.796801841851806,12.511752302398682,8.733587741851807,12.35914230239868,8.733587741851807,12.200012302398681C8.733587741851807,12.040882302398682,8.796801841851806,11.888272302398683,8.909323741851807,11.775752302398681C9.021845741851807,11.663222302398681,9.174457741851807,11.600012302398682,9.333587741851806,11.600012302398682C9.492717741851807,11.600012302398682,9.645329741851807,11.663222302398681,9.757947741851806,11.775842302398681Z" fill-rule="evenodd" fill="#595959" fill-opacity="1"/></g></g></g></svg>