<svg xmlns="http://www.w3.org/2000/svg" xmlns:xlink="http://www.w3.org/1999/xlink" fill="none" version="1.1" width="14" height="14" viewBox="0 0 14 14"><defs><clipPath id="master_svg0_31_546"><rect x="0" y="0" width="14" height="14" rx="0"/></clipPath></defs><g clip-path="url(#master_svg0_31_546)"><g><path d="M1.327884,2.176401L4.24455,5.06376Q4.32881,5.14717,4.43846,5.19226Q4.548109999999999,5.23735,4.66667,5.23735L4.669700000000001,5.23735Q4.78904,5.23674,4.89907,5.190519999999999Q5.0091,5.14429,5.09307,5.05947Q5.17648,4.975210000000001,5.22157,4.86556Q5.2666699999999995,4.75592,5.2666699999999995,4.63736L5.26666,4.634320000000001Q5.2660599999999995,4.5149799999999995,5.21983,4.4049499999999995Q5.1736,4.294919999999999,5.08878,4.21095L2.172116,1.323599Q2.087859,1.240189,1.97821,1.195094Q1.86856,1.15,1.750000263568,1.15L1.74696981,1.1500080000000001Q1.627624,1.15061,1.517593,1.196839Q1.4075630000000001,1.243068,1.323599,1.327884Q1.2401879999999998,1.412141,1.195094,1.52179Q1.15,1.63144,1.15,1.75L1.1500080000000001,1.75303019Q1.15061,1.872376,1.196839,1.982407Q1.243068,2.092437,1.327884,2.176401Z" fill-rule="evenodd" fill="#808080" fill-opacity="1"/></g><g><path d="M2.172116,12.6471340234375L5.08878,9.7597750234375Q5.1736,9.6758110234375,5.21983,9.5657810234375Q5.2660599999999995,9.4557500234375,5.26666,9.3364042034375Q5.26673,9.3219851234375,5.266109999999999,9.3075792234375Q5.2613,9.1958110234375,5.21654,9.0932860234375Q5.17177,8.9907620234375,5.09307,8.9112580234375Q5.00855,8.8258820234375,4.897679999999999,8.7796280234375Q4.7867999999999995,8.7333740234375,4.66667,8.7333740234375Q4.6526499999999995,8.7333740234375,4.63865,8.7340290234375Q4.52747,8.7392260234375,4.42556,8.7839500234375Q4.323650000000001,8.8286730234375,4.24455,8.9069730234375L1.327884,11.7943240234375Q1.242508,11.8788440234375,1.1962540000000002,11.9897240234375Q1.15,12.1005940234375,1.15,12.2207240234375Q1.15,12.2347440234375,1.150655,12.2487440234375Q1.1558519999999999,12.3599240234375,1.2005759999999999,12.4618340234375Q1.2452990000000002,12.5637540234375,1.323599,12.642844023437501Q1.4075630000000001,12.7276640234375,1.517593,12.7738940234375Q1.627624,12.820114023437501,1.74696999,12.8207240234375L1.75,12.8207240234375Q1.7629034,12.8207240234375,1.7757949,12.8201740234375Q1.887563,12.8153640234375,1.990088,12.7706040234375Q2.092613,12.7258340234375,2.172116,12.6471340234375Z" fill-rule="evenodd" fill="#808080" fill-opacity="1"/></g><g><path d="M12.67480125,11.7963640234375L9.78754525,8.9091100234375Q9.70315425,8.8247190234375,9.59289125,8.7790460234375Q9.48262825,8.7333740234375,9.3632813023734,8.7333740234375Q9.24393425,8.7333740234375,9.13367125,8.7790460234375Q9.02340825,8.8247190234375,8.93901725,8.9091100234375Q8.85462625,8.9935010234375,8.80895325,9.1037640234375Q8.76328125,9.2140270234375,8.76328125,9.3333740234375Q8.76328125,9.4527210234375,8.80895325,9.5629840234375Q8.85462525,9.6732470234375,8.93901725,9.7576380234375L11.82627125,12.6448940234375L11.82637125,12.6449940234375Q11.91076125,12.7293840234375,12.02102125,12.7750540234375Q12.13129125,12.8207240234375,12.25063125,12.8207240234375Q12.26617125,12.8207240234375,12.28168125,12.8199240234375Q12.39283125,12.814164023437499,12.49451125,12.7689240234375Q12.59620125,12.7236940234375,12.67490125,12.6449940234375Q12.75929125,12.5606040234375,12.80496125,12.4503340234375Q12.85063125,12.3400740234375,12.85063125,12.2207240234375Q12.85063125,12.2051940234375,12.84983125,12.1896840234375Q12.844071249999999,12.0785340234375,12.79883125,11.9768540234375Q12.75360125,11.8751640234375,12.67490125,11.7964640234375L12.67480125,11.7963640234375Z" fill-rule="evenodd" fill="#808080" fill-opacity="1"/></g><g><path d="M8.9088278125,4.213010000000001L8.9087438125,4.213089999999999Q8.8243528125,4.29748,8.7786798125,4.40774Q8.7330078125,4.51801,8.7330078125,4.63735Q8.7330078125,4.65289,8.7338118125,4.6684Q8.7395698125,4.77955,8.7848078125,4.88123Q8.8300458125,4.98292,8.9087438125,5.06162Q8.9931348125,5.14601,9.1033978125,5.19168Q9.2136608125,5.23735,9.3330078125,5.23735Q9.4523548125,5.23735,9.5626178125,5.19168Q9.6728808125,5.14601,9.7572718125,5.06162L9.7573558125,5.061529999999999L12.6443378125,2.174552L12.6446278125,2.174264Q12.7290178125,2.089873,12.7746878125,1.97961Q12.8203578125,1.869347,12.8203578125,1.7500000174578Q12.8203578125,1.630653,12.7746878125,1.52039Q12.7290178125,1.4101270000000001,12.6446278125,1.325736Q12.5602378125,1.241345,12.4499678125,1.195672Q12.3397078125,1.15,12.2203578125,1.15Q12.2048278125,1.15,12.1893178125,1.150804Q12.0781678125,1.156562,11.9764878125,1.2018Q11.8747978125,1.2470379999999999,11.7960978125,1.325736L11.7958078125,1.3260239999999999L8.9088278125,4.213010000000001Z" fill-rule="evenodd" fill="#808080" fill-opacity="1"/></g><g><path d="M9.3330078125,5.2666259765625L11.9580078125,5.2666259765625Q12.0170978125,5.2666259765625,12.075057812499999,5.2550959765625Q12.1330178125,5.2435659765625005,12.187617812500001,5.2209559765625Q12.2422178125,5.1983359765625,12.2913478125,5.1655059765625Q12.340487812500001,5.1326759765625,12.3822678125,5.0908859765625Q12.4240578125,5.0491059765625,12.4568878125,4.9999659765625Q12.4897178125,4.9508359765625,12.5123378125,4.8962359765625Q12.5349478125,4.8416359765625,12.546477812500001,4.7836759765625Q12.5580078125,4.725715976562499,12.5580078125,4.6666259765625Q12.5580078125,4.607535976562501,12.546477812500001,4.5495759765625Q12.5349478125,4.4916159765625,12.5123378125,4.4370159765625Q12.4897178125,4.3824159765625,12.4568878125,4.3332859765625Q12.4240578125,4.2841459765625,12.3822678125,4.2423659765625Q12.340487812500001,4.2005759765625,12.2913478125,4.1677459765625Q12.2422178125,4.1349159765625,12.187617812500001,4.1122959765625Q12.1330178125,4.0896859765624995,12.075057812499999,4.0781559765625Q12.0170978125,4.0666259765625,11.9580078125,4.0666259765625L9.9330078125,4.0666259765625L9.9330078125,2.0416259765625Q9.9330078125,1.9825311765625,9.9214788125,1.9245719765625Q9.9099498125,1.8666119765625,9.8873358125,1.8120159765625Q9.8647208125,1.7574189765625001,9.8318898125,1.7082839765625Q9.7990578125,1.6591479765625001,9.7572718125,1.6173619765625Q9.7154858125,1.5755759765625,9.6663498125,1.5427439765625Q9.6172148125,1.5099129765625001,9.5626178125,1.4872979765625Q9.508021812500001,1.4646839765625002,9.4500618125,1.4531549765625Q9.3921026125,1.4416259765625,9.3330078125,1.4416259765625Q9.2739130125,1.4416259765625,9.2159538125,1.4531549765625Q9.157993812499999,1.4646839765625002,9.1033978125,1.4872979765625Q9.0488008125,1.5099129765625001,8.9996658125,1.5427439765625Q8.9505298125,1.5755759765625,8.9087438125,1.6173619765625Q8.8669578125,1.6591479765625001,8.8341258125,1.7082839765625Q8.8012948125,1.7574189765625001,8.7786798125,1.8120159765625Q8.7560658125,1.8666119765625,8.7445368125,1.9245719765625Q8.7330078125,1.9825311765625,8.7330078125,2.0416259765625L8.7330078125,4.6666259765625Q8.7330078125,4.725715976562499,8.7445368125,4.7836759765625Q8.7560658125,4.8416359765625,8.7786798125,4.8962359765625Q8.8012948125,4.9508359765625,8.8341258125,4.9999659765625Q8.8669578125,5.0491059765625,8.9087438125,5.0908859765625Q8.9505298125,5.1326759765625,8.9996658125,5.1655059765625Q9.0488008125,5.1983359765625,9.1033978125,5.2209559765625Q9.157993812499999,5.2435659765625005,9.2159538125,5.2550959765625Q9.2739130125,5.2666259765625,9.3330078125,5.2666259765625Z" fill-rule="evenodd" fill="#808080" fill-opacity="1"/></g><g><path d="M4.0669921875,4.0666259765625L2.0419921875,4.0666259765625Q1.9828973875,4.0666259765625,1.9249381875,4.0781559765625Q1.8669781875,4.0896859765624995,1.8123821875,4.1122959765625Q1.7577851875000001,4.1349159765625,1.7086501875,4.1677459765625Q1.6595141875000001,4.2005759765625,1.6177281875,4.2423659765625Q1.5759421875,4.2841459765625,1.5431101875,4.3332859765625Q1.5102791875000001,4.3824159765625,1.4876641875,4.4370159765625Q1.4650501875000002,4.4916159765625,1.4535211875,4.5495759765625Q1.4419921875,4.607535976562501,1.4419921875,4.6666259765625Q1.4419921875,4.725715976562499,1.4535211875,4.7836759765625Q1.4650501875000002,4.8416359765625,1.4876641875,4.8962359765625Q1.5102791875000001,4.9508359765625,1.5431101875,4.9999659765625Q1.5759421875,5.0491059765625,1.6177281875,5.0908859765625Q1.6595141875000001,5.1326759765625,1.7086501875,5.1655059765625Q1.7577851875000001,5.1983359765625,1.8123821875,5.2209559765625Q1.8669781875,5.2435659765625005,1.9249381875,5.2550959765625Q1.9828973875,5.2666259765625,2.0419921875,5.2666259765625L4.6669921875,5.2666259765625Q4.726082187499999,5.2666259765625,4.7840421875,5.2550959765625Q4.8420021875,5.2435659765625005,4.8966021875,5.2209559765625Q4.9512021875,5.1983359765625,5.0003321875,5.1655059765625Q5.0494721875,5.1326759765625,5.0912521875,5.0908859765625Q5.1330421875,5.0491059765625,5.1658721875,4.9999659765625Q5.1987021875,4.9508359765625,5.2213221875,4.8962359765625Q5.2439321875000005,4.8416359765625,5.2554621875,4.7836759765625Q5.2669921875,4.725715976562499,5.2669921875,4.6666259765625L5.2669921875,2.0416259765625Q5.2669921875,1.9825311765625,5.2554621875,1.9245719765625Q5.2439321875000005,1.8666119765625,5.2213221875,1.8120159765625Q5.1987021875,1.7574189765625001,5.1658721875,1.7082839765625Q5.1330421875,1.6591479765625001,5.0912521875,1.6173619765625Q5.0494721875,1.5755759765625,5.0003321875,1.5427439765625Q4.9512021875,1.5099129765625001,4.8966021875,1.4872979765625Q4.8420021875,1.4646839765625002,4.7840421875,1.4531549765625Q4.726082187499999,1.4416259765625,4.6669921875,1.4416259765625Q4.607902187500001,1.4416259765625,4.5499421875,1.4531549765625Q4.4919821875,1.4646839765625002,4.4373821875,1.4872979765625Q4.3827821875,1.5099129765625001,4.3336521875,1.5427439765625Q4.2845121875,1.5755759765625,4.2427321875,1.6173619765625Q4.2009421875,1.6591479765625001,4.1681121875,1.7082839765625Q4.1352821875,1.7574189765625001,4.1126621875,1.8120159765625Q4.0900521874999995,1.8666119765625,4.0785221875,1.9245719765625Q4.0669921875,1.9825311765625,4.0669921875,2.0416259765625L4.0669921875,4.0666259765625Z" fill-rule="evenodd" fill="#808080" fill-opacity="1"/></g><g><path d="M4.6669921875,8.7333740234375L2.0419921875,8.7333740234375Q1.9828973875,8.7333740234375,1.9249381875,8.7449030234375Q1.8669781875,8.7564320234375,1.8123821875,8.7790460234375Q1.7577851875000001,8.8016610234375,1.7086501875,8.8344920234375Q1.6595141875000001,8.8673240234375,1.6177281875,8.9091100234375Q1.5759421875,8.9508960234375,1.5431101875,9.0000320234375Q1.5102791875000001,9.0491670234375,1.4876641875,9.1037640234375Q1.4650501875000002,9.158360023437499,1.4535211875,9.2163200234375Q1.4419921875,9.2742792234375,1.4419921875,9.3333740234375Q1.4419921875,9.3924688234375,1.4535211875,9.4504280234375Q1.4650501875000002,9.508388023437501,1.4876641875,9.5629840234375Q1.5102791875000001,9.6175810234375,1.5431101875,9.6667160234375Q1.5759421875,9.7158520234375,1.6177281875,9.7576380234375Q1.6595141875000001,9.7994240234375,1.7086501875,9.8322560234375Q1.7577851875000001,9.8650870234375,1.8123821875,9.8877020234375Q1.8669781875,9.9103160234375,1.9249381875,9.9218450234375Q1.9828973875,9.9333740234375,2.0419921875,9.9333740234375L4.0669921875,9.9333740234375L4.0669921875,11.9583740234375Q4.0669921875,12.0174640234375,4.0785221875,12.075424023437499Q4.0900521874999995,12.1333840234375,4.1126621875,12.187984023437501Q4.1352821875,12.2425840234375,4.1681121875,12.2917140234375Q4.2009421875,12.340854023437501,4.2427321875,12.3826340234375Q4.2845121875,12.4244240234375,4.3336521875,12.4572540234375Q4.3827821875,12.4900840234375,4.4373821875,12.5127040234375Q4.4919821875,12.5353140234375,4.5499421875,12.546844023437501Q4.607902187500001,12.5583740234375,4.6669921875,12.5583740234375Q4.726082187499999,12.5583740234375,4.7840421875,12.546844023437501Q4.8420021875,12.5353140234375,4.8966021875,12.5127040234375Q4.9512021875,12.4900840234375,5.0003321875,12.4572540234375Q5.0494721875,12.4244240234375,5.0912521875,12.3826340234375Q5.1330421875,12.340854023437501,5.1658721875,12.2917140234375Q5.1987021875,12.2425840234375,5.2213221875,12.187984023437501Q5.2439321875000005,12.1333840234375,5.2554621875,12.075424023437499Q5.2669921875,12.0174640234375,5.2669921875,11.9583740234375L5.2669921875,9.3333740234375Q5.2669921875,9.2742792234375,5.2554621875,9.2163200234375Q5.2439321875000005,9.158360023437499,5.2213221875,9.1037640234375Q5.1987021875,9.0491670234375,5.1658721875,9.0000320234375Q5.1330421875,8.9508960234375,5.0912521875,8.9091100234375Q5.0494721875,8.8673240234375,5.0003321875,8.8344920234375Q4.9512021875,8.8016610234375,4.8966021875,8.7790460234375Q4.8420021875,8.7564320234375,4.7840421875,8.7449030234375Q4.726082187499999,8.7333740234375,4.6669921875,8.7333740234375Z" fill-rule="evenodd" fill="#808080" fill-opacity="1"/></g><g><path d="M9.9330078125,9.9333740234375L11.9286978125,9.9333740234375Q11.9877878125,9.9333740234375,12.0457478125,9.9218450234375Q12.1037078125,9.9103160234375,12.1583078125,9.8877020234375Q12.2128978125,9.8650870234375,12.262037812500001,9.8322560234375Q12.3111778125,9.7994240234375,12.3529578125,9.7576380234375Q12.3947478125,9.7158520234375,12.427577812500001,9.6667160234375Q12.4604078125,9.6175810234375,12.4830278125,9.5629840234375Q12.5056378125,9.508388023437501,12.5171678125,9.4504280234375Q12.528697812499999,9.3924688234375,12.528697812499999,9.3333740234375Q12.528697812499999,9.2742792234375,12.5171678125,9.2163200234375Q12.5056378125,9.158360023437499,12.4830278125,9.1037640234375Q12.4604078125,9.0491670234375,12.427577812500001,9.0000320234375Q12.3947478125,8.9508960234375,12.3529578125,8.9091100234375Q12.3111778125,8.8673240234375,12.262037812500001,8.8344920234375Q12.2128978125,8.8016610234375,12.1583078125,8.7790460234375Q12.1037078125,8.7564320234375,12.0457478125,8.7449030234375Q11.9877878125,8.7333740234375,11.9286978125,8.7333740234375L9.3330078125,8.7333740234375Q9.2739130125,8.7333740234375,9.2159538125,8.7449030234375Q9.157993812499999,8.7564320234375,9.1033978125,8.7790460234375Q9.0488008125,8.8016610234375,8.9996658125,8.8344920234375Q8.9505298125,8.8673240234375,8.9087438125,8.9091100234375Q8.8669578125,8.9508960234375,8.8341258125,9.0000320234375Q8.8012948125,9.0491670234375,8.7786798125,9.1037640234375Q8.7560658125,9.158360023437499,8.7445368125,9.2163200234375Q8.7330078125,9.2742792234375,8.7330078125,9.3333740234375L8.7330078125,11.9583740234375Q8.7330078125,12.0174640234375,8.7445368125,12.075424023437499Q8.7560658125,12.1333840234375,8.7786798125,12.187984023437501Q8.8012948125,12.2425840234375,8.8341258125,12.2917140234375Q8.8669578125,12.340854023437501,8.9087438125,12.3826340234375Q8.9505298125,12.4244240234375,8.9996658125,12.4572540234375Q9.0488008125,12.4900840234375,9.1033978125,12.5127040234375Q9.157993812499999,12.5353140234375,9.2159538125,12.546844023437501Q9.2739130125,12.5583740234375,9.3330078125,12.5583740234375Q9.3921026125,12.5583740234375,9.4500618125,12.546844023437501Q9.508021812500001,12.5353140234375,9.5626178125,12.5127040234375Q9.6172148125,12.4900840234375,9.6663498125,12.4572540234375Q9.7154858125,12.4244240234375,9.7572718125,12.3826340234375Q9.7990578125,12.340854023437501,9.8318898125,12.2917140234375Q9.8647208125,12.2425840234375,9.8873358125,12.187984023437501Q9.9099498125,12.1333840234375,9.9214788125,12.075424023437499Q9.9330078125,12.0174640234375,9.9330078125,11.9583740234375L9.9330078125,9.9333740234375Z" fill-rule="evenodd" fill="#808080" fill-opacity="1"/></g></g></svg>