<svg xmlns="http://www.w3.org/2000/svg" xmlns:xlink="http://www.w3.org/1999/xlink" fill="none" version="1.1" width="10.149999976158142" height="10.149999976158142" viewBox="0 0 10.149999976158142 10.149999976158142"><g><path d="M5.774999988079071,4.374999988079071L5.774999988079071,0.699999988079071Q5.774999988079071,0.631055988079071,5.7615499880790715,0.563436988079071Q5.748099988079071,0.49581798807907107,5.721709988079071,0.43212198807907104Q5.695329988079071,0.36842598807907107,5.657029988079071,0.31110098807907105Q5.618729988079071,0.25377598807907104,5.569969988079071,0.20502498807907105Q5.521219988079071,0.15627498807907103,5.463899988079071,0.11797098807907103Q5.406569988079071,0.07966798807907105,5.342879988079071,0.05328398807907109Q5.279179988079071,0.026900988079071042,5.211559988079071,0.013449988079071051Q5.143939988079071,-1.1920928910669204e-8,5.074999988079071,-1.1920928910669204e-8Q5.0060599880790715,-1.1920928910669204e-8,4.938439988079071,0.013449988079071051Q4.870819988079071,0.026900988079071042,4.807119988079071,0.05328398807907109Q4.743429988079071,0.07966798807907105,4.6860999880790715,0.11797098807907103Q4.628779988079071,0.15627498807907103,4.580029988079071,0.20502498807907105Q4.531269988079071,0.25377598807907104,4.492969988079071,0.31110098807907105Q4.454669988079071,0.36842598807907107,4.428279988079071,0.43212198807907104Q4.401899988079071,0.49581798807907107,4.388449988079071,0.563436988079071Q4.374999988079071,0.631055988079071,4.374999988079071,0.699999988079071L4.374999988079071,4.374999988079071L0.699999988079071,4.374999988079071Q0.631055988079071,4.374999988079071,0.563436988079071,4.388449988079071Q0.49581798807907107,4.401899988079071,0.43212198807907104,4.428279988079071Q0.36842598807907107,4.454669988079071,0.31110098807907105,4.492969988079071Q0.25377598807907104,4.531269988079071,0.20502498807907105,4.580019988079071Q0.15627498807907103,4.628779988079071,0.11797098807907103,4.6860999880790715Q0.07966798807907105,4.743429988079071,0.05328398807907109,4.807119988079071Q0.026900988079071042,4.870819988079071,0.013449988079071051,4.938439988079071Q-1.1920928910669204e-8,5.0060599880790715,-1.1920928910669204e-8,5.074999988079071Q-1.1920928910669204e-8,5.143939988079071,0.013449988079071051,5.211559988079071Q0.026900988079071042,5.279179988079071,0.05328398807907109,5.342879988079071Q0.07966798807907105,5.406569988079071,0.11797098807907103,5.463899988079071Q0.15627498807907103,5.521219988079071,0.20502498807907105,5.569969988079071Q0.25377598807907104,5.618729988079071,0.31110098807907105,5.657029988079071Q0.36842598807907107,5.695329988079071,0.43212198807907104,5.721709988079071Q0.49581798807907107,5.748099988079071,0.563436988079071,5.7615499880790715Q0.631055988079071,5.774999988079071,0.699999988079071,5.774999988079071L4.374999988079071,5.774999988079071L4.374999988079071,9.449999988079071Q4.374999988079071,9.51893998807907,4.388449988079071,9.58655998807907Q4.401899988079071,9.65417998807907,4.428279988079071,9.717879988079071Q4.454669988079071,9.78156998807907,4.492969988079071,9.83889998807907Q4.531269988079071,9.896219988079071,4.580019988079071,9.944969988079071Q4.628779988079071,9.993729988079071,4.6860999880790715,10.03202998807907Q4.743429988079071,10.07032998807907,4.807119988079071,10.096709988079072Q4.870819988079071,10.12309998807907,4.938439988079071,10.136549988079071Q5.0060599880790715,10.14999998807907,5.074999988079071,10.14999998807907Q5.143939988079071,10.14999998807907,5.211559988079071,10.136549988079071Q5.279179988079071,10.12309998807907,5.342879988079071,10.096709988079072Q5.406569988079071,10.07032998807907,5.463899988079071,10.03202998807907Q5.521219988079071,9.993729988079071,5.569969988079071,9.944969988079071Q5.618729988079071,9.896219988079071,5.657029988079071,9.83889998807907Q5.695329988079071,9.78156998807907,5.721709988079071,9.717879988079071Q5.748099988079071,9.65417998807907,5.7615499880790715,9.58655998807907Q5.774999988079071,9.51893998807907,5.774999988079071,9.449999988079071L5.774999988079071,5.774999988079071L9.449999988079071,5.774999988079071Q9.51893998807907,5.774999988079071,9.58655998807907,5.7615499880790715Q9.65417998807907,5.748099988079071,9.717879988079071,5.721709988079071Q9.78156998807907,5.695329988079071,9.83889998807907,5.657029988079071Q9.896219988079071,5.618729988079071,9.944969988079071,5.569969988079071Q9.993729988079071,5.521219988079071,10.03202998807907,5.463899988079071Q10.07032998807907,5.406569988079071,10.096709988079072,5.342879988079071Q10.12309998807907,5.279179988079071,10.136549988079071,5.211559988079071Q10.14999998807907,5.143939988079071,10.14999998807907,5.074999988079071Q10.14999998807907,5.0060599880790715,10.136549988079071,4.938439988079071Q10.12309998807907,4.870819988079071,10.096709988079072,4.807119988079071Q10.07032998807907,4.743429988079071,10.03202998807907,4.6860999880790715Q9.993729988079071,4.628779988079071,9.944969988079071,4.580029988079071Q9.896219988079071,4.531269988079071,9.83889998807907,4.492969988079071Q9.78156998807907,4.454669988079071,9.717879988079071,4.428279988079071Q9.65417998807907,4.401899988079071,9.58655998807907,4.388449988079071Q9.51893998807907,4.374999988079071,9.449999988079071,4.374999988079071L5.774999988079071,4.374999988079071Z" fill-rule="evenodd" fill="#333333" fill-opacity="1"/></g></svg>