<svg xmlns="http://www.w3.org/2000/svg" xmlns:xlink="http://www.w3.org/1999/xlink" fill="none" version="1.1" width="16" height="16" viewBox="0 0 16 16"><defs><clipPath id="master_svg0_318_1782"><rect x="0" y="0" width="16" height="16" rx="0"/></clipPath></defs><g clip-path="url(#master_svg0_318_1782)"><g><path d="M8.6,7.4L8.6,3.25Q8.6,3.1909052,8.588470000000001,3.132946Q8.57694,3.074986,8.55433,3.02039Q8.53171,2.965793,8.49888,2.916658Q8.46605,2.867522,8.42426,2.825736Q8.382480000000001,2.78395,8.33334,2.751118Q8.28421,2.718287,8.229610000000001,2.695672Q8.17501,2.673058,8.117049999999999,2.661529Q8.059090000000001,2.65,8,2.65Q7.94091,2.65,7.88295,2.661529Q7.82499,2.673058,7.77039,2.695672Q7.71579,2.718287,7.66666,2.751118Q7.61752,2.78395,7.57574,2.825736Q7.53395,2.867522,7.50112,2.916658Q7.46829,2.965793,7.44567,3.02039Q7.42306,3.074986,7.41153,3.132946Q7.4,3.1909052,7.4,3.25L7.4,7.4L3.25,7.4Q3.1909052,7.4,3.132946,7.41153Q3.074986,7.42306,3.02039,7.44567Q2.965793,7.46829,2.916658,7.50112Q2.867522,7.53395,2.825736,7.57574Q2.78395,7.61752,2.751118,7.66666Q2.718287,7.71579,2.695672,7.77039Q2.673058,7.82499,2.661529,7.88295Q2.65,7.94091,2.65,8Q2.65,8.059090000000001,2.661529,8.117049999999999Q2.673058,8.17501,2.695672,8.229610000000001Q2.718287,8.28421,2.751118,8.33334Q2.78395,8.382480000000001,2.825736,8.42426Q2.867522,8.46605,2.916658,8.49888Q2.965793,8.53171,3.02039,8.55433Q3.074986,8.57694,3.132946,8.588470000000001Q3.1909052,8.6,3.25,8.6L7.4,8.6L7.4,12.75Q7.4,12.8091,7.41153,12.86705Q7.42306,12.92501,7.44567,12.97961Q7.46829,13.03421,7.50112,13.08334Q7.53395,13.13248,7.57574,13.17426Q7.61752,13.21605,7.66666,13.24888Q7.71579,13.2817,7.77039,13.3043Q7.82499,13.3269,7.88295,13.3385Q7.94091,13.35,8,13.35Q8.059090000000001,13.35,8.117049999999999,13.3385Q8.17501,13.3269,8.229610000000001,13.3043Q8.28421,13.2817,8.33334,13.24888Q8.382480000000001,13.21605,8.42426,13.17426Q8.46605,13.13248,8.49888,13.08334Q8.53171,13.03421,8.55433,12.97961Q8.57694,12.92501,8.588470000000001,12.86705Q8.6,12.8091,8.6,12.75L8.6,8.6L12.75,8.6Q12.8091,8.6,12.86705,8.588470000000001Q12.92501,8.57694,12.97961,8.55433Q13.03421,8.53171,13.08334,8.49888Q13.13248,8.46605,13.17426,8.42426Q13.21605,8.382480000000001,13.24888,8.33334Q13.2817,8.28421,13.3043,8.229610000000001Q13.3269,8.17501,13.3385,8.117049999999999Q13.35,8.059090000000001,13.35,8Q13.35,7.94091,13.3385,7.88295Q13.3269,7.82499,13.3043,7.77039Q13.2817,7.71579,13.24888,7.66666Q13.21605,7.61752,13.17426,7.57574Q13.13248,7.53395,13.08334,7.50112Q13.03421,7.46829,12.97961,7.44567Q12.92501,7.42306,12.86705,7.41153Q12.8091,7.4,12.75,7.4L8.6,7.4Z" fill-rule="evenodd" fill="currentColor" fill-opacity="1"/></g></g></svg>