<svg xmlns="http://www.w3.org/2000/svg" xmlns:xlink="http://www.w3.org/1999/xlink" fill="none" version="1.1" width="16" height="16" viewBox="0 0 16 16"><defs><clipPath id="master_svg0_57_899"><rect x="0" y="0" width="16" height="16" rx="0"/></clipPath></defs><g clip-path="url(#master_svg0_57_899)"><g><path d="M8.6,7.4L8.6,3.625Q8.6,3.5659052,8.588470000000001,3.507946Q8.57694,3.449986,8.55433,3.39539Q8.53171,3.340793,8.49888,3.291658Q8.46605,3.242522,8.42426,3.200736Q8.382480000000001,3.15895,8.33334,3.126118Q8.28421,3.093287,8.229610000000001,3.070672Q8.17501,3.048058,8.117049999999999,3.036529Q8.059090000000001,3.025,8,3.025Q7.94091,3.025,7.88295,3.036529Q7.82499,3.048058,7.77039,3.070672Q7.71579,3.093287,7.66666,3.126118Q7.61752,3.15895,7.57574,3.200736Q7.53395,3.242522,7.50112,3.291658Q7.46829,3.340793,7.44567,3.39539Q7.4230599999999995,3.449986,7.41153,3.507946Q7.4,3.5659052,7.4,3.625L7.4,7.4L3.625,7.4Q3.5659052,7.4,3.507946,7.41153Q3.449986,7.4230599999999995,3.39539,7.44567Q3.340793,7.46829,3.291658,7.50112Q3.242522,7.53395,3.200736,7.57574Q3.15895,7.61752,3.126118,7.66666Q3.093287,7.71579,3.070672,7.77039Q3.048058,7.82499,3.036529,7.88295Q3.025,7.94091,3.025,8Q3.025,8.059090000000001,3.036529,8.117049999999999Q3.048058,8.17501,3.070672,8.229610000000001Q3.093287,8.28421,3.126118,8.33334Q3.15895,8.382480000000001,3.200736,8.42426Q3.242522,8.46605,3.291658,8.49888Q3.340793,8.53171,3.39539,8.55433Q3.449986,8.57694,3.507946,8.588470000000001Q3.5659052,8.6,3.625,8.6L7.4,8.6L7.4,12.375Q7.4,12.43409,7.41153,12.49205Q7.4230599999999995,12.55001,7.44567,12.60461Q7.46829,12.65921,7.50112,12.70834Q7.53395,12.75748,7.57574,12.79926Q7.61752,12.84105,7.66666,12.87388Q7.71579,12.90671,7.77039,12.92933Q7.82499,12.95194,7.88295,12.96347Q7.94091,12.975,8,12.975Q8.059090000000001,12.975,8.117049999999999,12.96347Q8.17501,12.95194,8.229610000000001,12.92933Q8.28421,12.90671,8.33334,12.87388Q8.382480000000001,12.84105,8.42426,12.79926Q8.46605,12.75748,8.49888,12.70834Q8.53171,12.65921,8.55433,12.60461Q8.57694,12.55001,8.588470000000001,12.49205Q8.6,12.43409,8.6,12.375L8.6,8.6L12.375,8.6Q12.43409,8.6,12.49205,8.588470000000001Q12.55001,8.57694,12.60461,8.55433Q12.65921,8.53171,12.70834,8.49888Q12.75748,8.46605,12.79926,8.42426Q12.84105,8.382480000000001,12.87388,8.33334Q12.90671,8.28421,12.92933,8.229610000000001Q12.95194,8.17501,12.96347,8.117049999999999Q12.975,8.059090000000001,12.975,8Q12.975,7.94091,12.96347,7.88295Q12.95194,7.82499,12.92933,7.77039Q12.90671,7.71579,12.87388,7.66666Q12.84105,7.61752,12.79926,7.57574Q12.75748,7.53395,12.70834,7.50112Q12.65921,7.46829,12.60461,7.44567Q12.55001,7.4230599999999995,12.49205,7.41153Q12.43409,7.4,12.375,7.4L8.6,7.4Z" fill-rule="evenodd" fill="#333333" fill-opacity="1"/></g></g></svg>