<svg xmlns="http://www.w3.org/2000/svg" xmlns:xlink="http://www.w3.org/1999/xlink" fill="none" version="1.1" width="18" height="18" viewBox="0 0 18 18"><defs><clipPath id="master_svg0_59_1867"><rect x="0" y="0" width="18" height="18" rx="0"/></clipPath></defs><g clip-path="url(#master_svg0_59_1867)"><g><path d="M4.455106171875,2.8801550000000002Q3.224951171875,4.11031,3.224951171875,5.85001Q3.224951171875,7.58969,4.455105171875,8.81986Q5.685271171875,10.05003,7.424961171875,10.05003Q9.164641171875001,10.05003,10.394811171875,8.81986Q11.624981171875,7.58969,11.624981171875,5.85001Q11.624981171875,4.11032,10.394811171875,2.880153Q9.164641171875001,1.65,7.424961171875,1.65Q5.685261171875,1.65,4.455106171875,2.8801550000000002ZM5.303631171875,7.97133Q4.424951171875,7.09264,4.424951171875,5.85001Q4.424951171875,4.6073699999999995,5.303631171875,3.7286799999999998Q6.1823211718749995,2.85,7.424961171875,2.85Q8.667591171875,2.85,9.546281171875,3.7286799999999998Q10.424981171875,4.6073699999999995,10.424981171875,5.85001Q10.424981171875,7.09263,9.546281171875,7.97133Q8.667581171875,8.85003,7.424961171875,8.85003Q6.1823211718749995,8.85003,5.303631171875,7.97133Z" fill-rule="evenodd" fill="#333333" fill-opacity="1"/></g><g><path d="M9.86639,10.59733703125L9.86761,10.59791703125Q9.98978,10.65594703125,10.12503,10.65594703125Q10.13218,10.65594703125,10.13933,10.65577703125Q10.23555,10.65348703125,10.32624,10.62120703125Q10.43867,10.58118703125,10.52724,10.50118703125Q10.6158,10.42118003125,10.667,10.31337503125Q10.72503,10.19120503125,10.72503,10.05595503125Q10.72503,10.04581803125,10.72469,10.03569203125Q10.7219,9.95320503125,10.69695,9.87453403125Q10.67199,9.79586203125,10.62672,9.72685103125Q10.58146,9.65783903125,10.51923,9.60361403125Q10.45701,9.54938933125,10.38246,9.51397863125L10.38194,9.51373233125Q8.98365,8.84970703125,7.42502,8.84970703125Q4.566940000000001,8.84970703125,2.54597,10.87067703125Q0.525,12.89164703125,0.525,15.74972703125L0.525,16.649737031249998Q0.525,16.70882703125,0.536529,16.76678703125Q0.548058,16.82474703125,0.570672,16.87934703125Q0.593287,16.93393703125,0.626118,16.983077031249998Q0.6589499999999999,17.03220703125,0.700736,17.073997031250002Q0.742522,17.11578703125,0.791658,17.148617031249998Q0.840793,17.181447031250002,0.89539,17.20405703125Q0.949986,17.22667703125,1.007946,17.23820703125Q1.0659052,17.24973703125,1.125,17.24973703125Q1.1840948,17.24973703125,1.242054,17.23820703125Q1.300014,17.22667703125,1.35461,17.20405703125Q1.4092069999999999,17.181447031250002,1.458342,17.148617031249998Q1.5074779999999999,17.11578703125,1.549264,17.073997031250002Q1.59105,17.03220703125,1.623882,16.983077031249998Q1.6567129999999999,16.93393703125,1.679328,16.87934703125Q1.7019419999999998,16.82474703125,1.713471,16.76678703125Q1.725,16.70882703125,1.725,16.649737031249998L1.725,15.74972703125Q1.725,13.38869703125,3.3945,11.71920703125Q5.064,10.04970703125,7.42502,10.04970703125Q8.71275,10.04970703125,9.86639,10.59733703125Z" fill-rule="evenodd" fill="#333333" fill-opacity="1"/></g><g><path d="M14.7749855859375,12.900058828125001L14.7749855859375,10.800048828125Q14.7749855859375,10.740954028125,14.7634555859375,10.682994828125Q14.7519255859375,10.625034828124999,14.7293155859375,10.570438828125Q14.7066955859375,10.515841828125,14.6738655859375,10.466706828125Q14.6410355859375,10.417570828125,14.5992455859375,10.375784828125Q14.5574655859375,10.333998828125,14.5083255859375,10.301166828125Q14.4591955859375,10.268335828125,14.4045955859375,10.245720828125Q14.3499955859375,10.223106828125,14.2920355859375,10.211577828125Q14.2340755859375,10.200048828125,14.174985585937499,10.200048828125Q14.1158955859375,10.200048828125,14.0579355859375,10.211577828125Q13.9999755859375,10.223106828125,13.9453755859375,10.245720828125Q13.8907755859375,10.268335828125,13.8416455859375,10.301166828125Q13.7925055859375,10.333998828125,13.7507255859375,10.375784828125Q13.7089355859375,10.417570828125,13.6761055859375,10.466706828125Q13.6432755859375,10.515841828125,13.6206555859375,10.570438828125Q13.5980455859375,10.625034828124999,13.5865155859375,10.682994828125Q13.574985585937501,10.740954028125,13.574985585937501,10.800048828125L13.574985585937501,12.900058828125001L11.4749755859375,12.900058828125001Q11.4158807859375,12.900058828125001,11.3579215859375,12.911588828125Q11.299961585937499,12.923118828125,11.2453655859375,12.945728828125Q11.1907685859375,12.968348828125,11.1416335859375,13.001178828125Q11.0924975859375,13.034008828125,11.0507115859375,13.075798828125Q11.0089255859375,13.117578828125,10.9760935859375,13.166718828125Q10.9432625859375,13.215848828125,10.9206475859375,13.270448828125Q10.8980335859375,13.325048828125,10.8865045859375,13.383008828125Q10.8749755859375,13.440968828125,10.8749755859375,13.500058828124999Q10.8749755859375,13.559148828125,10.8865045859375,13.617108828125Q10.8980335859375,13.675068828125,10.9206475859375,13.729668828125Q10.9432625859375,13.784268828125,10.9760935859375,13.833398828125Q11.0089255859375,13.882538828125,11.0507115859375,13.924318828125Q11.0924975859375,13.966108828125,11.1416335859375,13.998938828125Q11.1907685859375,14.031768828125,11.2453655859375,14.054388828125Q11.299961585937499,14.076998828125,11.3579215859375,14.088528828125Q11.4158807859375,14.100058828125,11.4749755859375,14.100058828125L13.574985585937501,14.100058828125L13.574985585937501,16.200068828124998Q13.574985585937501,16.259158828125,13.5865155859375,16.317118828125Q13.5980455859375,16.375078828124998,13.6206555859375,16.429678828125Q13.6432755859375,16.484278828125,13.6761055859375,16.533408828125Q13.7089355859375,16.582548828125,13.7507255859375,16.624328828125Q13.7925055859375,16.666118828125,13.8416455859375,16.698948828125Q13.8907755859375,16.731778828125,13.9453755859375,16.754398828124998Q13.9999755859375,16.777008828125,14.0579355859375,16.788538828125Q14.1158955859375,16.800068828125,14.174985585937499,16.800068828125Q14.2340755859375,16.800068828125,14.2920355859375,16.788538828125Q14.3499955859375,16.777008828125,14.4045955859375,16.754398828124998Q14.4591955859375,16.731778828125,14.5083255859375,16.698948828125Q14.5574655859375,16.666118828125,14.5992455859375,16.624328828125Q14.6410355859375,16.582548828125,14.6738655859375,16.533408828125Q14.7066955859375,16.484278828125,14.7293155859375,16.429678828125Q14.7519255859375,16.375078828124998,14.7634555859375,16.317118828125Q14.7749855859375,16.259158828125,14.7749855859375,16.200068828124998L14.7749855859375,14.100058828125L16.874995585937498,14.100058828125Q16.9340855859375,14.100058828125,16.9920455859375,14.088528828125Q17.050005585937498,14.076998828125,17.1046055859375,14.054388828125Q17.1592055859375,14.031768828125,17.2083355859375,13.998938828125Q17.2574755859375,13.966108828125,17.2992555859375,13.924318828125Q17.3410455859375,13.882538828125,17.3738755859375,13.833398828125Q17.4067055859375,13.784268828125,17.429325585937498,13.729668828125Q17.4519355859375,13.675068828125,17.4634655859375,13.617108828125Q17.4749955859375,13.559148828125,17.4749955859375,13.500058828124999Q17.4749955859375,13.440968828125,17.4634655859375,13.383008828125Q17.4519355859375,13.325048828125,17.429325585937498,13.270448828125Q17.4067055859375,13.215848828125,17.3738755859375,13.166718828125Q17.3410455859375,13.117578828125,17.2992555859375,13.075798828125Q17.2574755859375,13.034008828125,17.2083355859375,13.001178828125Q17.1592055859375,12.968348828125,17.1046055859375,12.945728828125Q17.050005585937498,12.923118828125,16.9920455859375,12.911588828125Q16.9340855859375,12.900058828125001,16.874995585937498,12.900058828125001L14.7749855859375,12.900058828125001Z" fill-rule="evenodd" fill="#333333" fill-opacity="1"/></g></g></svg>