<svg xmlns="http://www.w3.org/2000/svg" xmlns:xlink="http://www.w3.org/1999/xlink" fill="none" version="1.1" width="16" height="16" viewBox="0 0 16 16"><defs><clipPath id="master_svg0_57_895"><rect x="0" y="0" width="16" height="16" rx="0"/></clipPath></defs><g clip-path="url(#master_svg0_57_895)"><g transform="matrix(1,0,0,-1,0,26)"><path d="M3,12.35L13,12.35Q13.064,12.35,13.1268,12.36249Q13.1896,12.374979,13.2487,12.399478Q13.3079,12.423978,13.3611,12.459545Q13.4143,12.495112,13.4596,12.540381Q13.5049,12.585649,13.5405,12.638879Q13.576,12.69211,13.6005,12.751256Q13.625,12.810402,13.6375,12.873191Q13.65,12.9359806,13.65,13Q13.65,13.0640194,13.6375,13.126809Q13.625,13.189598,13.6005,13.248744Q13.576,13.30789,13.5405,13.361121Q13.5049,13.414351,13.4596,13.459619Q13.4143,13.504888,13.3611,13.540455Q13.3079,13.576022,13.2487,13.600522Q13.1896,13.625021,13.1268,13.63751Q13.064,13.65,13,13.65L3,13.65Q2.9359806,13.65,2.873191,13.63751Q2.810402,13.625021,2.751256,13.600522Q2.69211,13.576022,2.638879,13.540455Q2.585649,13.504888,2.540381,13.459619Q2.4951119999999998,13.414351,2.459545,13.361121Q2.423978,13.30789,2.399478,13.248744Q2.3749789999999997,13.189598,2.36249,13.126809Q2.35,13.0640194,2.35,13Q2.35,12.9359806,2.36249,12.873191Q2.3749789999999997,12.810402,2.399478,12.751256Q2.423978,12.69211,2.459545,12.638879Q2.4951119999999998,12.585649,2.540381,12.540381Q2.585649,12.495112,2.638879,12.459545Q2.69211,12.423978,2.751256,12.399478Q2.810402,12.374979,2.873191,12.36249Q2.9359806,12.35,3,12.35Z" fill-rule="evenodd" fill="#000000" fill-opacity="1"/></g><g transform="matrix(1,0,0,-1,0,20)"><path d="M8.45993,9.540689L10.459620000000001,11.54038Q10.55104,11.6318,10.60052,11.75126Q10.65,11.87071,10.65,12Q10.65,12.129290000000001,10.60052,12.24874Q10.55104,12.3682,10.459620000000001,12.459620000000001Q10.3682,12.55104,10.24874,12.60052Q10.129290000000001,12.65,10,12.65Q9.870709999999999,12.65,9.75126,12.60052Q9.6318,12.55104,9.540379999999999,12.459620000000001L9.53996,12.4592L8.65,11.56924L8.65,16.66667Q8.65,16.73069,8.637509999999999,16.79348Q8.62502,16.85626,8.60052,16.91541Q8.57602,16.97456,8.54046,17.02779Q8.50489,17.08102,8.459620000000001,17.12629Q8.41435,17.17155,8.36112,17.20712Q8.30789,17.24269,8.24874,17.26719Q8.1896,17.29169,8.126809999999999,17.30418Q8.06402,17.316670000000002,8,17.316670000000002Q7.93598,17.316670000000002,7.87319,17.30418Q7.8104,17.29169,7.75126,17.26719Q7.69211,17.24269,7.63888,17.20712Q7.58565,17.17156,7.54038,17.12629Q7.49511,17.08102,7.4595400000000005,17.02779Q7.42398,16.97456,7.3994800000000005,16.91541Q7.37498,16.85626,7.36249,16.79347Q7.35,16.73069,7.35,16.66667L7.35,11.56924L6.459927,12.45931L6.459619,12.459620000000001Q6.368195,12.55104,6.248744,12.60052Q6.129293,12.65,6,12.65Q5.870707,12.65,5.751256,12.60052Q5.631804,12.55104,5.540381,12.459620000000001Q5.454683,12.37392,5.405628,12.2631Q5.356572,12.152280000000001,5.35075,12.03122Q5.35,12.01562,5.35,12Q5.35,11.87071,5.399478,11.75126Q5.448957,11.6318,5.540381,11.54038L5.540419,11.54034L7.5403400000000005,9.540419L7.54038,9.540381Q7.63114,9.449617,7.7496,9.400168Q7.86805,9.35072,7.99641,9.35001L8,9.35Q8.12711,9.35,8.24485,9.397881Q8.3626,9.445762,8.45363,9.53447L8.45401,9.534837Q8.45664,9.537408,8.45925,9.540009L8.459620000000001,9.540381L8.45993,9.540689Z" fill-rule="evenodd" fill="#000000" fill-opacity="1"/></g></g></svg>