<svg xmlns="http://www.w3.org/2000/svg" xmlns:xlink="http://www.w3.org/1999/xlink"
    version="1.1" width="16" height="16" viewBox="0 0 16 16">
    <defs>
        <clipPath id="master_svg0_57_889">
            <rect x="0" y="0" width="16" height="16" rx="0" />
        </clipPath>
    </defs>
    <g clip-path="url(#master_svg0_57_889)">
        <g>
            <path
                d="M3,7.35L13.3571,7.35Q13.4212,7.35,13.484,7.36249Q13.5467,7.374979,13.6059,7.399478Q13.665,7.423978,13.7183,7.459545Q13.7715,7.495112,13.8168,7.540381Q13.862,7.585649,13.8976,7.638879Q13.9332,7.69211,13.9577,7.751256Q13.9822,7.810402,13.9947,7.873191Q14.0071,7.9359806,14.0071,8Q14.0071,8.0640194,13.9947,8.126809Q13.9822,8.189598,13.9577,8.248744Q13.9332,8.30789,13.8976,8.361121Q13.862,8.414351,13.8168,8.459619Q13.7715,8.504888,13.7183,8.540455Q13.665,8.576022,13.6059,8.600522Q13.5467,8.625021,13.484,8.63751Q13.4212,8.65,13.3571,8.65L3,8.65Q2.9359806,8.65,2.873191,8.63751Q2.810402,8.625021,2.751256,8.600522Q2.69211,8.576022,2.638879,8.540455Q2.585649,8.504888,2.540381,8.459619Q2.4951119999999998,8.414351,2.459545,8.361121Q2.423978,8.30789,2.399478,8.248744Q2.3749789999999997,8.189598,2.36249,8.126809Q2.35,8.0640194,2.35,8Q2.35,7.9359806,2.36249,7.873191Q2.3749789999999997,7.810402,2.399478,7.751256Q2.423978,7.69211,2.459545,7.638879Q2.4951119999999998,7.585649,2.540381,7.540381Q2.585649,7.495112,2.638879,7.459545Q2.69211,7.423978,2.751256,7.399478Q2.810402,7.374979,2.873191,7.36249Q2.9359806,7.35,3,7.35Z"
                fill-rule="evenodd" fill="inherit" fill-opacity="1" />
        </g>
        <g>
            <path
                d="M7.60286,10.049502L5.531504,12.20328Q5.444162,12.2941,5.397081,12.41097Q5.35,12.52784,5.35,12.65385L5.350124,12.66652Q5.352645,12.79579,5.404444,12.91425Q5.456242,13.03272,5.549432,13.12234Q5.640249,13.20968,5.757124,13.25677Q5.873998,13.30385,6,13.30385L6.0000216201,13.30385L6.0126764,13.30372Q6.141945,13.3012,6.260408,13.2494Q6.378872,13.1976,6.468496,13.10441L6.4685880000000004,13.10432L7.42143,12.11357L7.42143,15.34615Q7.42143,15.41017,7.4339200000000005,15.47296Q7.44641,15.53575,7.47091,15.594899999999999Q7.49541,15.65404,7.53097,15.707270000000001Q7.56654,15.7605,7.61181,15.805769999999999Q7.6570800000000006,15.851040000000001,7.71031,15.886610000000001Q7.76354,15.92218,7.82268,15.94668Q7.88183,15.97117,7.9446200000000005,15.98366Q8.00741,15.99615,8.07143,15.99615Q8.13545,15.99615,8.19824,15.98366Q8.26103,15.97117,8.320170000000001,15.94668Q8.37932,15.92218,8.432549999999999,15.886610000000001Q8.48578,15.851040000000001,8.53105,15.805769999999999Q8.576319999999999,15.7605,8.61188,15.707270000000001Q8.64745,15.65404,8.671949999999999,15.594899999999999Q8.69645,15.53575,8.70894,15.47296Q8.72143,15.41017,8.72143,15.34615L8.72143,12.11357L9.67418,13.10422L9.67436,13.10441Q9.76399,13.1976,9.88245,13.2494Q10.000910000000001,13.3012,10.13018,13.30372Q10.13652,13.30385,10.142859999999999,13.30385Q10.15214,13.30385,10.16141,13.30358Q10.28256,13.30012,10.39432,13.25324Q10.506070000000001,13.20635,10.59343,13.12234Q10.68899,13.030429999999999,10.74092,12.90843Q10.792860000000001,12.786439999999999,10.792860000000001,12.65385Q10.792860000000001,12.64336,10.79252,12.63288Q10.788630000000001,12.51237,10.74178,12.40128Q10.69493,12.29018,10.61135,12.20328L10.61103,12.20294L8.53992,10.049432Q8.53925,10.048728,8.53857,10.048024999999999Q8.530429999999999,10.039616,8.522,10.031504Q8.43118,9.944163,8.314309999999999,9.897081Q8.19743,9.85,8.07143,9.85L8.05875,9.850124L8.050460000000001,9.850338Q7.92995,9.854227,7.81886,9.901077Q7.70776,9.947927,7.62086,10.031504L7.62085,10.031518Q7.61171,10.0403,7.60293,10.049432L7.60286,10.049502Z"
                fill-rule="evenodd" fill="inherit" fill-opacity="1" />
        </g>
        <g transform="matrix(1,0,0,-1,0,11)">
            <path
                d="M7.60286,5.049502L5.531504,7.2032799999999995Q5.444162,7.2941,5.397081,7.41097Q5.35,7.527839999999999,5.35,7.65385L5.350124,7.66652Q5.352645,7.79579,5.404444,7.91425Q5.456242,8.03272,5.549432,8.12234Q5.640249,8.20968,5.757124,8.25677Q5.873998,8.30385,6,8.30385L6.0000216201,8.30385L6.0126764,8.30372Q6.141945,8.3012,6.260408,8.2494Q6.378872,8.1976,6.468496,8.10441L6.4685880000000004,8.10432L7.42143,7.11357L7.42143,10.34615Q7.42143,10.41017,7.4339200000000005,10.47296Q7.44641,10.53575,7.47091,10.594899999999999Q7.49541,10.65404,7.53097,10.707270000000001Q7.56654,10.7605,7.61181,10.805769999999999Q7.6570800000000006,10.851040000000001,7.71031,10.886610000000001Q7.76354,10.92218,7.82268,10.94668Q7.88183,10.97117,7.9446200000000005,10.98366Q8.00741,10.99615,8.07143,10.99615Q8.13545,10.99615,8.19824,10.98366Q8.26103,10.97117,8.320170000000001,10.94668Q8.37932,10.92218,8.432549999999999,10.886610000000001Q8.48578,10.851040000000001,8.53105,10.805769999999999Q8.576319999999999,10.7605,8.61188,10.707270000000001Q8.64745,10.65404,8.671949999999999,10.594899999999999Q8.69645,10.53575,8.70894,10.47296Q8.72143,10.41017,8.72143,10.34615L8.72143,7.11357L9.67418,8.10422L9.67436,8.10441Q9.76399,8.1976,9.88245,8.2494Q10.000910000000001,8.3012,10.13018,8.30372Q10.13652,8.30385,10.142859999999999,8.30385Q10.15214,8.30385,10.16141,8.30358Q10.28256,8.30012,10.39432,8.25324Q10.506070000000001,8.20635,10.59343,8.12234Q10.68899,8.030429999999999,10.74092,7.90843Q10.792860000000001,7.78644,10.792860000000001,7.65385Q10.792860000000001,7.6433599999999995,10.79252,7.63288Q10.788630000000001,7.512370000000001,10.74178,7.40128Q10.69493,7.29018,10.61135,7.2032799999999995L10.61103,7.20294L8.53992,5.049432Q8.53925,5.048728,8.53857,5.048025Q8.530429999999999,5.039616,8.522,5.031504Q8.43118,4.944163,8.314309999999999,4.897081Q8.19743,4.85,8.07143,4.85L8.05875,4.850124L8.050460000000001,4.850338Q7.92995,4.854227,7.81886,4.901077Q7.70776,4.947927,7.62086,5.031504L7.62085,5.031518Q7.61171,5.0403,7.60293,5.049432L7.60286,5.049502Z"
                fill-rule="evenodd" fill="inherit" fill-opacity="1" />
        </g>
    </g>
</svg>