<svg xmlns="http://www.w3.org/2000/svg" xmlns:xlink="http://www.w3.org/1999/xlink" fill="none" version="1.1" width="16" height="16" viewBox="0 0 16 16"><defs><clipPath id="master_svg0_57_903"><rect x="0" y="0" width="16" height="16" rx="0"/></clipPath></defs><g clip-path="url(#master_svg0_57_903)"><g><path d="M3,2.35L13,2.35Q13.064,2.35,13.1268,2.36249Q13.1896,2.3749789999999997,13.2487,2.399478Q13.3079,2.423978,13.3611,2.459545Q13.4143,2.4951119999999998,13.4596,2.540381Q13.5049,2.585649,13.5405,2.638879Q13.576,2.69211,13.6005,2.751256Q13.625,2.810402,13.6375,2.873191Q13.65,2.9359806,13.65,3Q13.65,3.0640194,13.6375,3.126809Q13.625,3.189598,13.6005,3.248744Q13.576,3.30789,13.5405,3.361121Q13.5049,3.414351,13.4596,3.459619Q13.4143,3.5048880000000002,13.3611,3.540455Q13.3079,3.576022,13.2487,3.600522Q13.1896,3.6250210000000003,13.1268,3.63751Q13.064,3.65,13,3.65L3,3.65Q2.9359806,3.65,2.873191,3.63751Q2.810402,3.6250210000000003,2.751256,3.600522Q2.69211,3.576022,2.638879,3.540455Q2.585649,3.5048880000000002,2.540381,3.459619Q2.4951119999999998,3.414351,2.459545,3.361121Q2.423978,3.30789,2.399478,3.248744Q2.3749789999999997,3.189598,2.36249,3.126809Q2.35,3.0640194,2.35,3Q2.35,2.9359806,2.36249,2.873191Q2.3749789999999997,2.810402,2.399478,2.751256Q2.423978,2.69211,2.459545,2.638879Q2.4951119999999998,2.585649,2.540381,2.540381Q2.585649,2.4951119999999998,2.638879,2.459545Q2.69211,2.423978,2.751256,2.399478Q2.810402,2.3749789999999997,2.873191,2.36249Q2.9359806,2.35,3,2.35Z" fill-rule="evenodd" fill="#000000" fill-opacity="1"/></g><g><path d="M8.45993,5.540689L10.459620000000001,7.54038Q10.55104,7.6318,10.60052,7.75126Q10.65,7.87071,10.65,8Q10.65,8.129290000000001,10.60052,8.24874Q10.55104,8.3682,10.459620000000001,8.459620000000001Q10.3682,8.55104,10.24874,8.60052Q10.129290000000001,8.65,10,8.65Q9.870709999999999,8.65,9.75126,8.60052Q9.6318,8.55104,9.540379999999999,8.459620000000001L9.53996,8.4592L8.65,7.56924L8.65,12.66667Q8.65,12.73069,8.637509999999999,12.793479999999999Q8.62502,12.856259999999999,8.60052,12.91541Q8.57602,12.97456,8.54046,13.02779Q8.50489,13.081019999999999,8.459620000000001,13.126290000000001Q8.41435,13.17155,8.36112,13.20712Q8.30789,13.24269,8.24874,13.26719Q8.1896,13.29169,8.126809999999999,13.304179999999999Q8.06402,13.31667,8,13.31667Q7.93598,13.31667,7.87319,13.304179999999999Q7.8104,13.29169,7.75126,13.26719Q7.69211,13.24269,7.63888,13.20712Q7.58565,13.17156,7.54038,13.126290000000001Q7.49511,13.081019999999999,7.4595400000000005,13.02779Q7.42398,12.97456,7.3994800000000005,12.91541Q7.37498,12.856259999999999,7.36249,12.79347Q7.35,12.73069,7.35,12.66667L7.35,7.56924L6.459927,8.45931L6.459619,8.459620000000001Q6.368195,8.55104,6.248744,8.60052Q6.129293,8.65,6,8.65Q5.870707,8.65,5.751256,8.60052Q5.631804,8.55104,5.540381,8.459620000000001Q5.454683,8.37392,5.405628,8.2631Q5.356572,8.152280000000001,5.35075,8.03122Q5.35,8.01562,5.35,8Q5.35,7.87071,5.399478,7.75126Q5.448957,7.6318,5.540381,7.54038L5.540419,7.5403400000000005L7.5403400000000005,5.540419L7.54038,5.540381Q7.63114,5.449617,7.7496,5.400168Q7.86805,5.35072,7.99641,5.35001L8,5.35Q8.12711,5.35,8.24485,5.397881Q8.3626,5.445762,8.45363,5.53447L8.45401,5.534837Q8.45664,5.537408,8.45925,5.540009L8.459620000000001,5.540381L8.45993,5.540689Z" fill-rule="evenodd" fill="#000000" fill-opacity="1"/></g></g></svg>