<svg xmlns="http://www.w3.org/2000/svg" xmlns:xlink="http://www.w3.org/1999/xlink" fill="none"
    version="1.1" width="12" height="12" viewBox="0 0 12 12">
    <defs>
        <clipPath id="master_svg0_2191_14619">
            <rect x="0" y="0" width="12" height="12" rx="0" />
        </clipPath>
    </defs>
    <g clip-path="url(#master_svg0_2191_14619)">
        <g transform="matrix(1,0,0,-1,0,19.72265625)">
            <path
                d="M6.5512,18.205828125L11.5512,10.205827125Q11.6197,10.096187125,11.6411,9.968669125Q11.6624,9.841151425,11.6334,9.715169125Q11.6043,9.589187125,11.5292,9.483921125Q11.4541,9.378654125,11.3445,9.310129125Q11.2902,9.276199125,11.2303,9.253512125Q11.1705,9.230825124999999,11.1073,9.220253125Q11.0442,9.209680125,10.98021,9.211629125Q10.91622,9.213579125,10.85384,9.227974125Q10.79146,9.242369125,10.73309,9.268658125Q10.67471,9.294946125,10.62259,9.332118125000001Q10.57047,9.369289125,10.5266,9.415915125Q10.48273,9.462540125,10.4488,9.516829125L6,16.634908125L1.551199,9.516829125Q1.517269,9.462540125,1.4733990000000001,9.415915125Q1.42953,9.369289125,1.377407,9.332118125000001Q1.325284,9.294946125,1.266912,9.268658125Q1.208539,9.242369125,1.146159,9.227974125Q1.0837787,9.213579125,1.019789,9.211629125Q0.9557992,9.209680125,0.892659,9.220253125Q0.829518,9.230825124999999,0.7696540000000001,9.253512125Q0.709789,9.276199125,0.655501,9.310129125Q0.6012120000000001,9.344059125,0.5545869999999999,9.387929125Q0.507961,9.431798125,0.47079000000000004,9.483921125Q0.43361799999999995,9.536044125,0.40732999999999997,9.594416125Q0.38104099999999996,9.652789125,0.366646,9.715169125Q0.352251,9.777549425,0.350301,9.841539125Q0.348352,9.905528925,0.35892500000000005,9.968669125Q0.36949699999999996,10.031810125,0.392184,10.091674125Q0.414871,10.151539125,0.448801,10.205827125L5.4488,18.205828125Q5.5283,18.333028125,5.6555,18.412528125Q5.76514,18.481048125,5.89266,18.502408125000002Q6.02018,18.523758125,6.14616,18.494688125Q6.27214,18.465608125,6.37741,18.390538125Q6.48267,18.315468125000002,6.5512,18.205828125Z"
                fill-rule="evenodd" fill="#808080" fill-opacity="1" />
        </g>
    </g>
</svg>