<svg xmlns="http://www.w3.org/2000/svg" xmlns:xlink="http://www.w3.org/1999/xlink" fill="none" version="1.1" width="12" height="12" viewBox="0 0 12 12"><defs><clipPath id="master_svg0_53_0363"><rect x="0" y="0" width="12" height="12" rx="0"/></clipPath></defs><g clip-path="url(#master_svg0_53_0363)"><g><path d="M2,10.6L11,10.6Q11.0591,10.6,11.11705,10.58847Q11.17501,10.57694,11.22961,10.55433Q11.28421,10.53171,11.33334,10.49888Q11.38248,10.46605,11.42426,10.42426Q11.46605,10.38248,11.49888,10.33334Q11.53171,10.28421,11.55433,10.22961Q11.57694,10.17501,11.58847,10.11705Q11.6,10.0591,11.6,10Q11.6,9.9409,11.58847,9.88295Q11.57694,9.82498,11.55433,9.77039Q11.53171,9.71579,11.49888,9.66666Q11.46605,9.61752,11.42426,9.57574Q11.38248,9.53395,11.33334,9.50112Q11.28421,9.46829,11.22961,9.44567Q11.17501,9.42306,11.11705,9.41153Q11.0591,9.4,11,9.4L2.6,9.4L2.6,1Q2.6,0.9409052,2.588471,0.882946Q2.576942,0.824986,2.554328,0.77039Q2.531713,0.715793,2.498882,0.666658Q2.46605,0.617522,2.424264,0.575736Q2.382478,0.5339499999999999,2.333342,0.501118Q2.284207,0.468287,2.22961,0.44567199999999996Q2.175014,0.42305800000000005,2.117054,0.41152900000000003Q2.0590948,0.4,2,0.4Q1.9409052,0.4,1.882946,0.41152900000000003Q1.824986,0.42305800000000005,1.77039,0.44567199999999996Q1.7157930000000001,0.468287,1.666658,0.501118Q1.6175220000000001,0.5339499999999999,1.575736,0.575736Q1.53395,0.617522,1.501118,0.666658Q1.4682870000000001,0.715793,1.445672,0.77039Q1.4230580000000002,0.824986,1.411529,0.882946Q1.4,0.9409052,1.4,1L1.4,10Q1.4,10.0591,1.411529,10.11705Q1.4230580000000002,10.17501,1.445672,10.22961Q1.4682870000000001,10.28421,1.501118,10.33334Q1.53395,10.38248,1.575736,10.42426Q1.6175220000000001,10.46605,1.666658,10.49888Q1.7157930000000001,10.53171,1.77039,10.55433Q1.824986,10.57694,1.882946,10.58847Q1.9409052,10.6,2,10.6Z" fill-rule="evenodd" fill="#808080" fill-opacity="1"/></g><g><path d="M1.4,10Q1.4,10.059090000000001,1.411529,10.117049999999999Q1.4230580000000002,10.17501,1.445672,10.229610000000001Q1.4682870000000001,10.28421,1.501118,10.33334Q1.53395,10.382480000000001,1.575736,10.42426Q1.6175220000000001,10.46605,1.666658,10.49888Q1.7157930000000001,10.53171,1.77039,10.55433Q1.824986,10.57694,1.882946,10.588470000000001Q1.9409052,10.6,2,10.6L7,10.6Q7.05909,10.6,7.11705,10.588470000000001Q7.17501,10.57694,7.22961,10.55433Q7.28421,10.53171,7.33334,10.49888Q7.38248,10.46605,7.42426,10.42426Q7.46605,10.382480000000001,7.49888,10.33334Q7.53171,10.28421,7.55433,10.229610000000001Q7.57694,10.17501,7.58847,10.117049999999999Q7.6,10.059090000000001,7.6,10Q7.6,7.680400000000001,5.9597999999999995,6.0402000000000005Q4.319599999999999,4.4,2,4.4Q1.9409052,4.4,1.882946,4.411529Q1.824986,4.423058,1.77039,4.445672Q1.7157930000000001,4.468287,1.666658,4.501118Q1.6175220000000001,4.53395,1.575736,4.575736Q1.53395,4.617522,1.501118,4.666658Q1.4682870000000001,4.715793,1.445672,4.77039Q1.4230580000000002,4.824986,1.411529,4.882946Q1.4,4.9409051999999996,1.4,5L1.4,10ZM2.6,9.4L6.36329,9.4Q6.18249,7.95995,5.11127,6.88873Q4.04005,5.817508,2.6,5.63671L2.6,9.4Z" fill-rule="evenodd" fill="#808080" fill-opacity="1"/></g></g></svg>