<svg xmlns="http://www.w3.org/2000/svg" xmlns:xlink="http://www.w3.org/1999/xlink" fill="none" version="1.1" width="21.02099609375" height="21.021240234375" viewBox="0 0 21.02099609375 21.021240234375"><g style="mix-blend-mode:passthrough"><g style="mix-blend-mode:passthrough" transform="matrix(-1.5083938365023641e-7,1,-1,-1.489771648266469e-7,20.999999352929215,-20.999996185302734)"><path d="M41.579396185302734,-0.0210157L42.021196185302735,21L30.999996185302734,21L20.999996185302734,21L20.999996185302734,19L30.999996185302734,19L40.999996185302734,19L40.999996185302734,20L40.000196185302734,20.021L39.57979618530273,0.0210157L41.579396185302734,-0.0210157Z" fill="#181717" fill-opacity="1"/></g><g style="mix-blend-mode:passthrough"><path d="" fill="#D8D8D8" fill-opacity="1"/><path d="M1.2079971581697464,8.999998092651367Q3.2859571581697464,8.999998092651367,5.182307158169746,9.878479092651368Q7.003357158169746,10.722072092651366,8.402677158169746,12.254658092651367Q9.793047158169747,13.777448092651367,10.553767158169746,15.747288092651367Q11.338397158169746,17.779118092651366,11.338397158169746,19.999998092651367L9.338427158169747,19.999998092651367Q9.338427158169747,16.245708092651366,6.925707158169747,13.603198092651368Q4.548867158169746,10.999998092651367,1.2079971581697464,10.999998092651367L1.2079971581697464,8.999998092651367Z" fill="#000000" fill-opacity="1"/></g></g></svg>