<svg xmlns="http://www.w3.org/2000/svg" xmlns:xlink="http://www.w3.org/1999/xlink" fill="none" version="1.1" width="14" height="14" viewBox="0 0 14 14"><defs><clipPath id="master_svg0_1_649"><rect x="0" y="0" width="14" height="14" rx="0"/></clipPath></defs><g clip-path="url(#master_svg0_1_649)"><g><path d="M5.7037253125,9.948993125000001L10.0347453125,5.617953125Q10.1050753125,5.547623124999999,10.1431253125,5.455733125Q10.1811953125,5.363853125,10.1811953125,5.264393125Q10.1811953125,5.164943125000001,10.1431253125,5.0730531249999995Q10.105065312499999,4.981173125,10.0347453125,4.9108431249999995Q9.9644153125,4.840513125,9.8725353125,4.8024531249999995Q9.780645312499999,4.764393125,9.6811853125,4.764393125Q9.581735312500001,4.764393125,9.4898453125,4.8024531249999995Q9.3979653125,4.840513125,9.3276353125,4.9108431249999995L4.9966153124999995,9.241893125Q4.7314453125,9.507063125,4.4662753125000005,9.241893125Q4.2011253125,8.976713125,4.4662853125,8.711523125L9.6222653125,3.555576125Q9.9883753125,3.189453125,10.5061453125,3.189453125Q11.0239153125,3.189453125,11.3900453125,3.555577125Q11.7561453125,3.921683125,11.7561453125,4.439453125Q11.7561453125,4.9572231250000005,11.3900353125,5.323353125000001L6.2340453125,10.479313125000001Q5.6116453125,11.101713125,4.7314453125,11.101713125Q3.8512353125,11.101713125,3.2288453125,10.479313125000001Q2.6064453125,9.856923125,2.6064453125,8.976713125Q2.6064453125,8.096513125000001,3.2288453125,7.474113125L7.5598653125,3.1430881250000002Q7.6301853125,3.072761125,7.6682453125,2.980876125Q7.7063053125,2.888991125,7.7063053125,2.789535125Q7.7063053125,2.690078331,7.6682453125,2.598192625Q7.6301853125,2.506307125,7.5598653125,2.435981125Q7.4895353125,2.365655125,7.3976453125,2.327595125Q7.3057653125,2.289534125,7.2063053125,2.289535125Q7.1068553125,2.289535125,7.0149653125,2.327595125Q6.9230853125,2.365655125,6.8527553125,2.4359821249999998L2.5217383125,6.767013125Q1.6064453125,7.682293125,1.6064453125,8.976713125Q1.6064453125,10.271133125,2.5217373125,11.186423125Q3.4370253125000003,12.101713125,4.7314453125,12.101713125Q6.025865312500001,12.101713125,6.9411453125,11.186423125L12.0971553125,6.030443125Q12.7561453125,5.371423125,12.7561453125,4.439453125Q12.7561453125,3.507467125,12.0971453125,2.848466125Q11.4381253125,2.189453125,10.5061453125,2.189453125Q9.5741553125,2.189453125,8.915165312500001,2.848467125L3.7591453125000003,8.004453125000001Q3.3564553125,8.407183125,3.3564553125,8.976713125Q3.3564553125,9.546253125,3.7591653125,9.948993125000001Q4.1618953125,10.351733124999999,4.7314453125,10.351733124999999Q5.3009953125,10.351733124999999,5.7037253125,9.948993125000001Z" fill-rule="evenodd" fill="#333333" fill-opacity="1"/></g></g></svg>