<svg xmlns="http://www.w3.org/2000/svg" xmlns:xlink="http://www.w3.org/1999/xlink" fill="none" version="1.1" width="10" height="10" viewBox="0 0 10 10"><defs><clipPath id="master_svg0_2809_16495/2809_16450/2809_14119"><rect x="0" y="10" width="10" height="10" rx="0"/></clipPath></defs><g transform="matrix(1,0,0,-1,0,20)" style="opacity:0.4000000059604645;" clip-path="url(#master_svg0_2809_16495/2809_16450/2809_14119)"><g transform="matrix(0,-1,-1,0,28.4287109375,28.4287109375)"><path d="M11.4530309375,26.68959L8.5960789375,23.83263C8.4889148375,23.72547,8.4287109375,23.58012,8.4287109375,23.42857C8.4287109375,23.27702,8.4889148375,23.13167,8.5960789375,23.02451L11.4530709375,20.167515C11.5603809375,20.0602039,11.7057309375,20,11.8572809375,20C12.0088309375,20,12.1541809375,20.0602039,12.2613409375,20.167368C12.3685109375,20.274531,12.4287109375,20.419876,12.4287109375,20.571429C12.4287109375,20.722981,12.3685109375,20.868326,12.2613409375,20.97549L9.8082609375,23.42857L12.2611509375,25.88146C12.3685109375,25.98882,12.4287109375,26.13416,12.4287109375,26.28571C12.4287109375,26.437269999999998,12.3685109375,26.58261,12.2613409375,26.68978C12.1541809375,26.79694,12.0088309375,26.85714,11.8572809375,26.85714C11.7057309375,26.85714,11.5603809375,26.79694,11.4530309375,26.68959Z" fill-rule="evenodd" fill="#262626" fill-opacity="1"/></g><g transform="matrix(0,1,-1,0,18.4287109375,1.5712890625)"><path d="M11.4530309375,16.68959L8.5960789375,13.83263C8.4889148375,13.72547,8.4287109375,13.58012,8.4287109375,13.42857C8.4287109375,13.27702,8.4889148375,13.13167,8.5960789375,13.02451L11.4530709375,10.167515C11.5603809375,10.0602039,11.7057309375,10,11.8572809375,10C12.0088309375,10,12.1541809375,10.0602039,12.2613409375,10.167368C12.3685109375,10.274531,12.4287109375,10.419876,12.4287109375,10.571429C12.4287109375,10.722981,12.3685109375,10.868326,12.2613409375,10.97549L9.8082609375,13.42857L12.2611509375,15.88146C12.3685109375,15.98882,12.4287109375,16.13416,12.4287109375,16.28571C12.4287109375,16.437269999999998,12.3685109375,16.58261,12.2613409375,16.68978C12.1541809375,16.79694,12.0088309375,16.85714,11.8572809375,16.85714C11.7057309375,16.85714,11.5603809375,16.79694,11.4530309375,16.68959Z" fill-rule="evenodd" fill="#262626" fill-opacity="1"/></g></g></svg>