<svg xmlns="http://www.w3.org/2000/svg" xmlns:xlink="http://www.w3.org/1999/xlink"
    version="1.1" width="10" height="10" viewBox="0 0 10 10">
    <defs>
        <clipPath id="master_svg0_74_352">
            <rect x="0" y="10" width="10" height="10" rx="0" />
        </clipPath>
    </defs>
    <g transform="matrix(1,0,0,-1,0,20)" clip-path="url(#master_svg0_74_352)">
        <g transform="matrix(1,0,0,-1,0,37.20000076293945)">
            <path
                d="M6.0755400953674314,25.62407038146973L3.0757360953674318,22.624260381469725C2.963214195367432,22.51174038146973,2.9000000953674316,22.359130381469726,2.9000000953674316,22.200000381469728C2.9000000953674316,22.040870381469727,2.963214195367432,21.888260381469728,3.0757360953674318,21.775740381469728L6.075580095367432,18.775891381469727C6.188260095367432,18.663214481469726,6.340870095367432,18.600000381469727,6.500000095367431,18.600000381469727C6.6591300953674315,18.600000381469727,6.811740095367432,18.663214481469726,6.924260095367432,18.775736381469727C7.036790095367432,18.888258381469726,7.100000095367432,19.040870381469727,7.100000095367432,19.200000381469728C7.100000095367432,19.359130381469726,7.036790095367432,19.511742381469727,6.924260095367432,19.624260381469725L4.3485300953674315,22.200000381469728L6.924070095367432,24.775540381469725C7.036790095367432,24.888260381469728,7.100000095367432,25.040870381469727,7.100000095367432,25.200000381469728C7.100000095367432,25.359130381469726,7.036790095367432,25.51174038146973,6.924260095367432,25.624260381469725C6.811740095367432,25.736790381469728,6.6591300953674315,25.800000381469726,6.500000095367431,25.800000381469726C6.340870095367432,25.800000381469726,6.188260095367432,25.736790381469728,6.0755400953674314,25.62407038146973Z"
                fill-rule="evenodd" fill="#inherit" fill-opacity="1" />
        </g>
    </g>
</svg>