<svg xmlns="http://www.w3.org/2000/svg" xmlns:xlink="http://www.w3.org/1999/xlink" fill="none" version="1.1" width="18"
    height="18" viewBox="0 0 18 18">
    <defs>
        <clipPath id="master_svg0_671_4542">
            <rect x="0" y="18" width="18" height="18" rx="0" />
        </clipPath>
    </defs>
    <g transform="matrix(1,0,0,-1,0,36)" clip-path="url(#master_svg0_671_4542)">
        <g transform="matrix(0,1,1,0,-20.2496337890625,20.2496337890625)">
            <path
                d="M9.42426,25.1738977890625Q9.50865,25.0895067890625,9.55433,24.9792437890625Q9.6,24.8689807890625,9.6,24.7496337890625Q9.6,24.6905389890625,9.588470000000001,24.6325797890625Q9.57694,24.5746197890625,9.55433,24.5200237890625Q9.53171,24.4654267890625,9.49888,24.416291789062498Q9.46605,24.3671557890625,9.42426,24.3253697890625Q9.382480000000001,24.2835837890625,9.33334,24.2507517890625Q9.28421,24.2179207890625,9.229610000000001,24.1953057890625Q9.17501,24.1726917890625,9.117049999999999,24.1611627890625Q9.059090000000001,24.1496337890625,9,24.1496337890625Q8.88065,24.1496337890625,8.770389999999999,24.1953057890625Q8.660129999999999,24.2409787890625,8.57574,24.3253697890625L8.57558,24.3255247890625L4.075736,28.8253737890625Q4.03395,28.8671537890625,4.001118,28.9162937890625Q3.968287,28.9654237890625,3.945672,29.0200237890625Q3.923058,29.0746237890625,3.911529,29.1325837890625Q3.9,29.1905437890625,3.9,29.2496337890625Q3.9,29.3087237890625,3.911529,29.3666837890625Q3.923058,29.4246437890625,3.945672,29.4792437890625Q3.968287,29.5338437890625,4.001118,29.5829737890625Q4.03395,29.6321137890625,4.075736,29.6738937890625L8.57531,34.1734737890625L8.57574,34.173893789062504Q8.660129999999999,34.2582937890625,8.770389999999999,34.3039637890625Q8.88065,34.3496337890625,9,34.3496337890625Q9.059090000000001,34.3496337890625,9.117049999999999,34.3381037890625Q9.17501,34.3265737890625,9.229610000000001,34.3039637890625Q9.28421,34.281343789062504,9.33334,34.2485137890625Q9.382480000000001,34.215683789062496,9.42426,34.173893789062504Q9.46605,34.1321137890625,9.49888,34.0829737890625Q9.53171,34.0338437890625,9.55433,33.9792437890625Q9.57694,33.9246437890625,9.588470000000001,33.8666837890625Q9.6,33.8087337890625,9.6,33.7496337890625Q9.6,33.6302837890625,9.55433,33.5200237890625Q9.508659999999999,33.4097637890625,9.42426,33.325373789062496L5.348528,29.2496337890625L9.42426,25.1738977890625L9.42426,25.1738977890625Z"
                fill-rule="evenodd" fill="#FFFFFF" fill-opacity="1" />
        </g>
    </g>
</svg>