<svg xmlns="http://www.w3.org/2000/svg" xmlns:xlink="http://www.w3.org/1999/xlink" fill="none" version="1.1" width="10"
    height="10" viewBox="0 0 10 10">
    <defs>
        <clipPath id="master_svg0_1_0305">
            <rect x="0" y="10" width="10" height="10" rx="0" />
        </clipPath>
    </defs>
    <g transform="matrix(1,0,0,-1,0,20)" clip-path="url(#master_svg0_1_0305)">
        <g transform="matrix(-1,0,0,-1,14.199999809265137,37.20000076293945)">
            <path
                d="M10.275539904632568,25.62407038146973L7.275735904632568,22.624260381469725C7.163214004632568,22.51174038146973,7.099999904632568,22.359130381469726,7.099999904632568,22.200000381469728C7.099999904632568,22.040870381469727,7.163214004632568,21.888260381469728,7.275735904632568,21.775740381469728L10.275579904632568,18.775891381469727C10.38825990463257,18.663214481469726,10.540869904632569,18.600000381469727,10.699999904632568,18.600000381469727C10.859129904632567,18.600000381469727,11.011739904632568,18.663214481469726,11.124259904632568,18.775736381469727C11.23678990463257,18.888258381469726,11.299999904632568,19.040870381469727,11.299999904632568,19.200000381469728C11.299999904632568,19.359130381469726,11.23678990463257,19.511742381469727,11.124259904632568,19.624260381469725L8.548529904632568,22.200000381469728L11.124069904632568,24.775540381469725C11.23678990463257,24.888260381469728,11.299999904632568,25.040870381469727,11.299999904632568,25.200000381469728C11.299999904632568,25.359130381469726,11.23678990463257,25.51174038146973,11.124259904632568,25.624260381469725C11.011739904632568,25.736790381469728,10.859129904632567,25.800000381469726,10.699999904632568,25.800000381469726C10.540869904632569,25.800000381469726,10.38825990463257,25.736790381469728,10.275539904632568,25.62407038146973Z"
                fill-rule="evenodd" fill="#BFBFBF" fill-opacity="1" />
        </g>
    </g>
</svg>