<svg xmlns="http://www.w3.org/2000/svg" xmlns:xlink="http://www.w3.org/1999/xlink" fill="none"
    version="1.1" width="16" height="16" viewBox="0 0 16 16">
    <defs>
        <clipPath id="master_svg0_737_8688">
            <rect x="0" y="0" width="16" height="16" rx="0" />
        </clipPath>
    </defs>
    <g clip-path="url(#master_svg0_737_8688)">
        <g>
            <path
                d="M2.5183414868927003,12.531573986968993Q2.8184134868927,8.716663986968994,5.0476714868927,7.529974986968994Q5.1354714868927,7.483240986968994,5.1986914868927006,7.406467986968994Q5.2619214868927,7.329693986968994,5.2909514868927,7.234569986968994Q5.3127314868927,7.163216686968994,5.3127314868927,7.088613978388144Q5.3127314868927,7.076922886968994,5.3121814868927,7.065244586968994Q5.3069214868927,6.952922986968995,5.2540914868927,6.853665986968994Q5.2221314868927,6.793626986968994,5.1752914868927,6.744305986968994Q5.1284514868927005,6.6949859869689945,5.0701414868927,6.6599679869689945Q5.0118314868927,6.624950986968994,4.946291486892701,6.6067829869689945Q4.880741486892701,6.588613986968994,4.8127314868927,6.588613986968994L4.8067414868927,6.588649986968994Q4.6851314868927005,6.590105986968994,4.5777814868927,6.6472529869689945Q1.8644904868927001,8.091603986968995,1.5214214868927,12.453163986968995Q1.5198814868927002,12.472733986968993,1.5198814868927002,12.492363986968993Q1.5198814868927002,12.518513986968994,1.5226084868927001,12.544513986968994Q1.5271434868927,12.587753986968995,1.5390734868927,12.629563986968993Q1.5510034868927,12.671373986968995,1.5699714868927002,12.710493986968995Q1.5889394868927003,12.749623986968995,1.6143754868927003,12.784883986968994Q1.6398114868927003,12.820143986968993,1.6709524868927002,12.850483986968994Q1.7020934868927002,12.880823986968995,1.7380034868927001,12.905333986968994Q1.7739144868927001,12.929853986968993,1.8135164868927003,12.947793986968994Q1.8531184868927002,12.965733986968994,1.8952244868927002,12.976573986968994Q1.9373293868927002,12.987413986968994,1.9806737868927002,12.990823986968994Q2.0002473868927,12.992363986968993,2.0198814868927,12.992363986968993L2.0288904568927,12.992283986968994Q2.2082324868927,12.989053986968994,2.3446224868927,12.872553986968995Q2.4202464868927,12.807963986968995,2.4653944868927002,12.719343986968994Q2.5105424868927004,12.630723986968995,2.5183414868927003,12.531573986968993ZM12.0168914868927,8.661953986968994Q10.3515614868927,6.950301986968994,8.9048314868927,6.602467986968994Q8.8472114868927,6.588613986968994,8.7879514868927,6.588613986968994Q8.7772414868927,6.588613986968994,8.7665514868927,6.589071986968994Q8.6851614868927,6.592557986968994,8.6090914868927,6.621697986968994Q8.5330214868927,6.650837986968994,8.4701314868927,6.702617986968994Q8.407241486892701,6.754396986968994,8.364041486892699,6.8234619869689945Q8.3208414868927,6.8925259869689945,8.3018014868927,6.9717309869689945Q8.2879514868927,7.029351386968994,8.2879514868927,7.088613986968994L8.287961486892701,7.0925345069689945Q8.2890514868927,7.231341986968994,8.361541486892701,7.349722986968994Q8.4134814868927,7.4345399869689945,8.493921486892699,7.493024986968994Q8.5743614868927,7.551510986968994,8.6710614868927,7.574759986968994Q9.836541486892699,7.854973986968994,11.3001514868927,9.359293986968995Q12.8279814868927,10.929613986968995,13.514981486892701,12.677833986968995Q13.5424814868927,12.747953986968994,13.5894814868927,12.806843986968994Q13.6364814868927,12.865723986968995,13.6987814868927,12.908153986968994Q13.7609814868927,12.950573986968994,13.8329814868927,12.972773986968994Q13.9049814868927,12.994973986968994,13.9802814868927,12.994973986968994L13.9914814868927,12.994843986968995Q14.0803814868927,12.992863986968995,14.1631814868927,12.960323986968994Q14.2332814868927,12.932773986968993,14.2921814868927,12.885783986968995Q14.351081486892701,12.838793986968994,14.3934814868927,12.776543986968994Q14.4358814868927,12.714293986968993,14.4580814868927,12.642303986968994Q14.4802814868927,12.570313986968994,14.4802814868927,12.494973986968994L14.4801814868927,12.483853986968995Q14.4781814868927,12.394903986968995,14.4456814868927,12.312103986968994L14.4456814868927,12.312003986968994L14.4451814868927,12.310923986968994Q13.6845814868927,10.376023986968994,12.0168914868927,8.661953986968994Z"
                fill-rule="evenodd" fill="#BFBFBF" fill-opacity="1" />
        </g>
        <g>
            <ellipse cx="6.5" cy="6" rx="2" ry="2" fill-opacity="0" stroke-opacity="1"
                stroke="#141414" fill="none" stroke-width="1" stroke-linecap="ROUND"
                stroke-linejoin="round" />
        </g>
        <g>
            <path
                d="M4.4999981640625,5.484375L1.7086181640625,5.484375Q1.6593724640625,5.484375,1.6110730640625,5.493982Q1.5627731640625,5.50359,1.5172761640624999,5.522435Q1.4717791640625,5.541281,1.4308331640625,5.56864Q1.3898871640625,5.596,1.3550651640625,5.630822Q1.3202431640625,5.665644,1.2928831640625,5.70659Q1.2655241640625001,5.747536,1.2466781640625,5.793033Q1.2278331640625,5.83853,1.2182251640625,5.8868299Q1.2086181640625,5.9351293,1.2086181640625,5.984375Q1.2086181640625,6.0336207,1.2182251640625,6.0819201Q1.2278331640625,6.13022,1.2466781640625,6.175717Q1.2655241640625001,6.221214,1.2928831640625,6.26216Q1.3202431640625,6.303106,1.3550651640625,6.337928Q1.3898871640625,6.37275,1.4308331640625,6.40011Q1.4717791640625,6.427469,1.5172761640624999,6.446315Q1.5627731640625,6.46516,1.6110730640625,6.474768Q1.6593724640625,6.484375,1.7086181640625,6.484375L4.4999981640625,6.484375Q4.5492481640625,6.484375,4.5975481640625,6.474768Q4.6458481640625,6.46516,4.6913381640625005,6.446315Q4.7368381640625,6.427469,4.7777881640625,6.40011Q4.818728164062501,6.37275,4.8535481640625004,6.337928Q4.8883781640625,6.303106,4.9157381640625,6.26216Q4.9430981640625,6.221214,4.9619381640625,6.175717Q4.9807881640625,6.13022,4.9903881640625,6.0819201Q4.9999981640625,6.0336207,4.9999981640625,5.984375Q4.9999981640625,5.9351293,4.9903881640625,5.8868299Q4.9807881640625,5.83853,4.9619381640625,5.793033Q4.9430981640625,5.747536,4.9157381640625,5.70659Q4.8883781640625,5.665644,4.8535481640625004,5.630822Q4.818728164062501,5.596,4.7777881640625,5.56864Q4.7368381640625,5.541281,4.6913381640625005,5.522435Q4.6458481640625,5.50359,4.5975481640625,5.493982Q4.5492481640625,5.484375,4.4999981640625,5.484375Z"
                fill-rule="evenodd" fill="#141414" fill-opacity="1" />
        </g>
        <g transform="matrix(-1,0,0,1,28.583740234375,0)">
            <path
                d="M19.5837401171875,5.484375L14.2918701171875,5.484375Q14.2426244171875,5.484375,14.1943250171875,5.493982Q14.1460251171875,5.50359,14.1005281171875,5.522435Q14.0550311171875,5.541281,14.0140851171875,5.56864Q13.9731391171875,5.596,13.9383171171875,5.630822Q13.9034951171875,5.665644,13.8761351171875,5.70659Q13.8487761171875,5.747536,13.8299301171875,5.793033Q13.811085117187499,5.83853,13.8014771171875,5.8868299Q13.7918701171875,5.9351293,13.7918701171875,5.984375Q13.7918701171875,6.0336207,13.8014771171875,6.0819201Q13.811085117187499,6.13022,13.8299301171875,6.175717Q13.8487761171875,6.221214,13.8761351171875,6.26216Q13.9034951171875,6.303106,13.9383171171875,6.337928Q13.9731391171875,6.37275,14.0140851171875,6.40011Q14.0550311171875,6.427469,14.1005281171875,6.446315Q14.1460251171875,6.46516,14.1943250171875,6.474768Q14.2426244171875,6.484375,14.2918701171875,6.484375L19.5837401171875,6.484375Q19.6329901171875,6.484375,19.681280117187498,6.474768Q19.7295801171875,6.46516,19.7750801171875,6.446315Q19.8205801171875,6.427469,19.8615201171875,6.40011Q19.902470117187498,6.37275,19.9372901171875,6.337928Q19.9721101171875,6.303106,19.9994701171875,6.26216Q20.0268301171875,6.221214,20.0456801171875,6.175717Q20.0645201171875,6.13022,20.0741301171875,6.0819201Q20.0837401171875,6.0336207,20.0837401171875,5.984375Q20.0837401171875,5.9351293,20.0741301171875,5.8868299Q20.064530117187502,5.83853,20.0456801171875,5.793033Q20.0268301171875,5.747536,19.9994701171875,5.70659Q19.9721101171875,5.665644,19.9372901171875,5.630822Q19.902470117187498,5.596,19.8615201171875,5.56864Q19.8205801171875,5.541281,19.7750801171875,5.522435Q19.7295801171875,5.50359,19.681280117187498,5.493982Q19.6329901171875,5.484375,19.5837401171875,5.484375Z"
                fill-rule="evenodd" fill="#141414" fill-opacity="1" />
        </g>
        <g>
            <rect x="1" y="5" width="2" height="2" rx="0.5" fill="#141414" fill-opacity="1" />
        </g>
        <g transform="matrix(-1,0,0,1,30.0009765625,0)">
            <rect x="15.00048828125" y="5" width="2" height="2" rx="0.5" fill="#141414"
                fill-opacity="1" />
        </g>
    </g>
</svg>