<svg xmlns="http://www.w3.org/2000/svg" xmlns:xlink="http://www.w3.org/1999/xlink" fill="none" version="1.1" width="20" height="20" viewBox="0 0 20 20"><defs><clipPath id="master_svg0_59_1889"><rect x="0" y="0" width="20" height="20" rx="0"/></clipPath></defs><g clip-path="url(#master_svg0_59_1889)"><g><path d="M13.340781752929686,5.424419L13.340931752929688,5.424264Q13.425331752929687,5.339873,13.471001752929688,5.22961Q13.516671752929687,5.119347,13.516671752929687,5Q13.516671752929687,4.880653,13.471001752929688,4.77039Q13.425331752929687,4.660127,13.340931752929688,4.575736Q13.256541752929689,4.491345,13.146281752929688,4.445672Q13.036021752929688,4.4,12.916671752929688,4.4Q12.797321752929687,4.4,12.687061752929687,4.445672Q12.576801752929686,4.491345,12.492411752929687,4.575736L12.492251752929688,4.575891L7.4924077529296875,9.57574Q7.408016752929687,9.660129999999999,7.362343752929688,9.770389999999999Q7.316671752929688,9.88065,7.316671752929688,10Q7.316671752929688,10.11935,7.362343752929688,10.229610000000001Q7.408016752929687,10.339870000000001,7.4924077529296875,10.42426L12.492411752929687,15.4243Q12.576801752929686,15.5087,12.687061752929687,15.5543Q12.797321752929687,15.6,12.916671752929688,15.6Q13.036021752929688,15.6,13.146281752929688,15.5543Q13.256541752929689,15.5087,13.340931752929688,15.4243Q13.425331752929687,15.3399,13.471001752929688,15.2296Q13.516671752929687,15.1193,13.516671752929687,15Q13.516671752929687,14.88065,13.471001752929688,14.77039Q13.425331752929687,14.66013,13.340931752929688,14.57574L13.340511752929688,14.57531L8.765199752929687,10L13.340781752929686,5.424419Z" fill-rule="evenodd" fill="#555555" fill-opacity="1"/></g></g></svg>