<svg xmlns="http://www.w3.org/2000/svg" xmlns:xlink="http://www.w3.org/1999/xlink" fill="none" version="1.1" width="16.5" height="16.5" viewBox="0 0 16.5 16.5"><defs><clipPath id="master_svg0_67_045"><rect x="0" y="0" width="16.5" height="16.5" rx="8.25"/></clipPath></defs><g><g clip-path="url(#master_svg0_67_045)"><g transform="matrix(0.7071067690849304,-0.7071067690849304,0.7071067690849304,0.7071067690849304,-12.396521281378966,-5.427700713408228)"><g transform="matrix(1,-1.1102230246251565e-16,1.1102230246251565e-16,1,-1.7763568394002505e-15,-1.7763568394002505e-15)"><g transform="matrix(1,-5.619580178972683e-8,0,1,0,-5.479082627601883e-7)"><path d="M-6.749985694885254,12.55031876564026L-9.749985694885254,12.55031876564026L-9.749985694885254,11.950318765640258L-6.749985694885254,11.950318765640258L-6.749985694885254,12.55031876564026Z" fill-rule="evenodd" fill="#000000" fill-opacity="1" style="mix-blend-mode:passthrough"/></g></g><g transform="matrix(1,-1.1102230246251565e-16,1.1102230246251565e-16,1,-1.7763568394002505e-15,0)"><g transform="matrix(1,-5.619580178972683e-8,0,1,0,-5.479091207405418e-7)"><path d="M-6.750000953674316,16.55056278705597L-9.750000953674316,16.55056278705597L-9.750000953674316,15.950562787055969L-6.750000953674316,15.950562787055969L-6.750000953674316,16.55056278705597Z" fill-rule="evenodd" fill="#000000" fill-opacity="1" style="mix-blend-mode:passthrough"/></g></g><g transform="matrix(1,-1.1102230246251565e-16,1.1102230246251565e-16,1,-1.7763568394002505e-15,0)"><g transform="matrix(1,-5.619580178972683e-8,0,1,0,-5.479035465327797e-7)"><path d="M-6.74990177154541,20.55056278705597L-9.74990177154541,20.55056278705597L-9.74990177154541,19.95056278705597L-6.74990177154541,19.95056278705597L-6.74990177154541,20.55056278705597Z" fill-rule="evenodd" fill="#000000" fill-opacity="1" style="mix-blend-mode:passthrough"/></g></g><g transform="matrix(1,-1.1102230246251565e-16,1.1102230246251565e-16,1,-3.552713678800501e-15,0)"><g transform="matrix(1,-5.619580178972683e-8,0,1,0,-5.479129789875969e-7)"><path d="M-6.750069618225098,24.55007462501526L-9.750069618225098,24.55007462501526L-9.750069618225098,23.950074625015258L-6.750069618225098,23.950074625015258L-6.750069618225098,24.55007462501526Z" fill-rule="evenodd" fill="#000000" fill-opacity="1" style="mix-blend-mode:passthrough"/></g></g><g transform="matrix(1,-1.1102230246251565e-16,1.1102230246251565e-16,1,-3.552713678800501e-15,0)"><g transform="matrix(1,-5.619580178972683e-8,0,1,0,-5.479086908621866e-7)"><path d="M-6.749993324279785,28.55031876564026L-9.749993324279785,28.55031876564026L-9.749993324279785,27.950318765640258L-6.749993324279785,27.950318765640258L-6.749993324279785,28.55031876564026Z" fill-rule="evenodd" fill="#000000" fill-opacity="1" style="mix-blend-mode:passthrough"/></g></g><g transform="matrix(1,-1.1102230246251565e-16,1.1102230246251565e-16,1,-3.552713678800501e-15,0)"><g transform="matrix(1,-5.619580178972683e-8,0,1,0,-5.479176934386487e-7)"><path d="M-6.750153541564941,32.550562906265256L-9.750153541564941,32.550562906265256L-9.750153541564941,31.950562906265258L-6.750153541564941,31.950562906265258L-6.750153541564941,32.550562906265256Z" fill-rule="evenodd" fill="#000000" fill-opacity="1" style="mix-blend-mode:passthrough"/></g></g><g transform="matrix(1,-1.1102230246251565e-16,1.1102230246251565e-16,1,-1.7763568394002505e-15,0)"><g transform="matrix(1,-5.619580178972683e-8,0,1,0,-3.793260034967716e-7)"><path d="M-3.750077247619629,14.550806987285615L-6.750077247619629,14.550806987285615L-6.750077247619629,13.950806987285613L-3.750077247619629,13.950806987285613L-3.750077247619629,14.550806987285615Z" fill-rule="evenodd" fill="#000000" fill-opacity="1" style="mix-blend-mode:passthrough"/></g></g><g transform="matrix(1,-1.1102230246251565e-16,1.1102230246251565e-16,1,-1.7763568394002505e-15,0)"><g transform="matrix(1,-5.619580178972683e-8,0,1,0,-3.7932579033395086e-7)"><path d="M-3.7500734329223633,18.55031864643097L-6.750073432922363,18.55031864643097L-6.750073432922363,17.95031864643097L-3.7500734329223633,17.95031864643097L-3.7500734329223633,18.55031864643097Z" fill-rule="evenodd" fill="#000000" fill-opacity="1" style="mix-blend-mode:passthrough"/></g></g><g transform="matrix(1,-1.1102230246251565e-16,1.1102230246251565e-16,1,-2.6645352591003757e-15,0)"><g transform="matrix(1,-5.619580178972683e-8,0,1,0,-3.793167842047751e-7)"><path d="M-3.749913215637207,22.55031864643097L-6.749913215637207,22.55031864643097L-6.749913215637207,21.95031864643097L-3.749913215637207,21.95031864643097L-3.749913215637207,22.55031864643097Z" fill-rule="evenodd" fill="#000000" fill-opacity="1" style="mix-blend-mode:passthrough"/></g></g><g transform="matrix(1,-1.1102230246251565e-16,1.1102230246251565e-16,1,-2.6645352591003757e-15,0)"><g transform="matrix(1,-5.619580178972683e-8,0,1,0,-3.793217153713613e-7)"><path d="M-3.7500009536743164,26.55056290626526L-6.750000953674316,26.55056290626526L-6.750000953674316,25.950562906265258L-3.7500009536743164,25.950562906265258L-3.7500009536743164,26.55056290626526Z" fill-rule="evenodd" fill="#000000" fill-opacity="1" style="mix-blend-mode:passthrough"/></g></g><g transform="matrix(1,-1.1102230246251565e-16,1.1102230246251565e-16,1,-3.552713678800501e-15,0)"><g transform="matrix(1,-5.619580178972683e-8,0,1,0,-3.7931185303818893e-7)"><path d="M-3.7498254776000977,30.55056290626526L-6.749825477600098,30.55056290626526L-6.749825477600098,29.950562906265258L-3.7498254776000977,29.950562906265258L-3.7498254776000977,30.55056290626526Z" fill-rule="evenodd" fill="#000000" fill-opacity="1" style="mix-blend-mode:passthrough"/></g></g><g transform="matrix(1,-1.1102230246251565e-16,1.1102230246251565e-16,1,-3.552713678800501e-15,0)"><g transform="matrix(1,-5.619580178972683e-8,0,1,0,-3.7932642982241305e-7)"><path d="M-3.75008487701416,34.550562906265256L-6.75008487701416,34.550562906265256L-6.75008487701416,33.95056290626526L-3.75008487701416,33.95056290626526L-3.75008487701416,34.550562906265256Z" fill-rule="evenodd" fill="#000000" fill-opacity="1" style="mix-blend-mode:passthrough"/></g></g><g transform="matrix(1,-1.1102230246251565e-16,1.1102230246251565e-16,1,-1.7763568394002505e-15,-1.7763568394002505e-15)"><g transform="matrix(1,-5.619580178972683e-8,0,1,0,-7.164959896499568e-7)"><path d="M-9.749991416931152,14.550563025474549L-12.749991416931152,14.550563025474549L-12.749991416931152,13.950563025474548L-9.749991416931152,13.950563025474548L-9.749991416931152,14.550563025474549Z" fill-rule="evenodd" fill="#000000" fill-opacity="1" style="mix-blend-mode:passthrough"/></g></g><g transform="matrix(1,-1.1102230246251565e-16,1.1102230246251565e-16,1,-1.7763568394002505e-15,0)"><g transform="matrix(1,-5.619580178972683e-8,0,1,0,-7.16495776487136e-7)"><path d="M-9.749987602233887,18.55031864643097L-12.749987602233887,18.55031864643097L-12.749987602233887,17.95031864643097L-9.749987602233887,17.95031864643097L-9.749987602233887,18.55031864643097Z" fill-rule="evenodd" fill="#000000" fill-opacity="1" style="mix-blend-mode:passthrough"/></g></g><g transform="matrix(1,-1.1102230246251565e-16,1.1102230246251565e-16,1,-1.7763568394002505e-15,0)"><g transform="matrix(1,-5.619580178972683e-8,0,1,0,-7.164963129469015e-7)"><path d="M-9.74999713897705,22.55056290626526L-12.74999713897705,22.55056290626526L-12.74999713897705,21.950562906265258L-9.74999713897705,21.950562906265258L-9.74999713897705,22.55056290626526Z" fill-rule="evenodd" fill="#000000" fill-opacity="1" style="mix-blend-mode:passthrough"/></g></g><g transform="matrix(1,-1.1102230246251565e-16,1.1102230246251565e-16,1,-3.552713678800501e-15,0)"><g transform="matrix(1,-5.619580178972683e-8,0,1,0,-7.164959896499568e-7)"><path d="M-9.749991416931152,26.55007462501526L-12.749991416931152,26.55007462501526L-12.749991416931152,25.950074625015258L-9.749991416931152,25.950074625015258L-9.749991416931152,26.55007462501526Z" fill-rule="evenodd" fill="#000000" fill-opacity="1" style="mix-blend-mode:passthrough"/></g></g><g transform="matrix(1,-1.1102230246251565e-16,1.1102230246251565e-16,1,-3.552713678800501e-15,0)"><g transform="matrix(1,-5.619580178972683e-8,0,1,0,-7.165007076537222e-7)"><path d="M-9.750075340270996,30.55056290626526L-12.750075340270996,30.55056290626526L-12.750075340270996,29.950562906265258L-9.750075340270996,29.950562906265258L-9.750075340270996,30.55056290626526Z" fill-rule="evenodd" fill="#000000" fill-opacity="1" style="mix-blend-mode:passthrough"/></g></g><g transform="matrix(1,-1.1102230246251565e-16,1.1102230246251565e-16,1,-3.552713678800501e-15,0)"><g transform="matrix(1,-5.619580178972683e-8,0,1,0,-7.164959896499568e-7)"><path d="M-9.749991416931152,34.550562906265256L-12.749991416931152,34.550562906265256L-12.749991416931152,33.95056290626526L-9.749991416931152,33.95056290626526L-9.749991416931152,34.550562906265256Z" fill-rule="evenodd" fill="#000000" fill-opacity="1" style="mix-blend-mode:passthrough"/></g></g><g transform="matrix(1,-1.1102230246251565e-16,1.1102230246251565e-16,1,-1.3322676295501878e-15,0)"><g transform="matrix(1,-5.619580178972683e-8,0,1,0,-2.1072830769242046e-7)"><path d="M-0.7498941421508789,12.550074565410615L-3.749894142150879,12.550074565410615L-3.749894142150879,11.950074565410613L-0.7498941421508789,11.950074565410613L-0.7498941421508789,12.550074565410615Z" fill-rule="evenodd" fill="#000000" fill-opacity="1" style="mix-blend-mode:passthrough"/></g></g><g transform="matrix(1,-1.1102230246251565e-16,1.1102230246251565e-16,1,-1.7763568394002505e-15,0)"><g transform="matrix(1,-5.619580178972683e-8,0,1,0,-2.1073366696100493e-7)"><path d="M-0.7499895095825195,16.550318706035615L-3.7499895095825195,16.550318706035615L-3.7499895095825195,15.950318706035613L-0.7499895095825195,15.950318706035613L-0.7499895095825195,16.550318706035615Z" fill-rule="evenodd" fill="#000000" fill-opacity="1" style="mix-blend-mode:passthrough"/></g></g><g transform="matrix(1,-1.1102230246251565e-16,1.1102230246251565e-16,1,-2.220446049250313e-15,0)"><g transform="matrix(1,-5.619580178972683e-8,0,1,0,-2.107334537981842e-7)"><path d="M-0.7499856948852539,20.55007450580597L-3.749985694885254,20.55007450580597L-3.749985694885254,19.95007450580597L-0.7499856948852539,19.95007450580597L-0.7499856948852539,20.55007450580597Z" fill-rule="evenodd" fill="#000000" fill-opacity="1" style="mix-blend-mode:passthrough"/></g></g><g transform="matrix(1,-1.1102230246251565e-16,1.1102230246251565e-16,1,-2.6645352591003757e-15,0)"><g transform="matrix(1,-5.619580178972683e-8,0,1,0,-2.1073366696100493e-7)"><path d="M-0.7499895095825195,24.55056278705597L-3.7499895095825195,24.55056278705597L-3.7499895095825195,23.95056278705597L-0.7499895095825195,23.95056278705597L-0.7499895095825195,24.55056278705597Z" fill-rule="evenodd" fill="#000000" fill-opacity="1" style="mix-blend-mode:passthrough"/></g></g><g transform="matrix(1,-1.1102230246251565e-16,1.1102230246251565e-16,1,-3.1086244689504383e-15,0)"><g transform="matrix(1,-5.619580178972683e-8,0,1,0,-2.107334537981842e-7)"><path d="M-0.7499856948852539,28.55056278705597L-3.749985694885254,28.55056278705597L-3.749985694885254,27.95056278705597L-0.7499856948852539,27.95056278705597L-0.7499856948852539,28.55056278705597Z" fill-rule="evenodd" fill="#000000" fill-opacity="1" style="mix-blend-mode:passthrough"/></g></g><g transform="matrix(1,-1.1102230246251565e-16,1.1102230246251565e-16,1,-3.552713678800501e-15,0)"><g transform="matrix(1,-5.619580178972683e-8,0,1,0,-2.1073324063536347e-7)"><path d="M-0.7499818801879883,32.550318765640256L-3.7499818801879883,32.550318765640256L-3.7499818801879883,31.950318765640258L-0.7499818801879883,31.950318765640258L-0.7499818801879883,32.550318765640256Z" fill-rule="evenodd" fill="#000000" fill-opacity="1" style="mix-blend-mode:passthrough"/></g></g><g transform="matrix(1,-1.1102230246251565e-16,1.1102230246251565e-16,1,-1.5543122344752192e-15,0)"><g transform="matrix(1,-5.619580178972683e-8,0,1,0,-4.2145833489826146e-8)"><path d="M2.2500181198120117,14.550562846660615L-0.7499818801879883,14.550562846660615L-0.7499818801879883,13.950562846660613L2.2500181198120117,13.950562846660613L2.2500181198120117,14.550562846660615Z" fill-rule="evenodd" fill="#000000" fill-opacity="1" style="mix-blend-mode:passthrough"/></g></g><g transform="matrix(1,-1.1102230246251565e-16,1.1102230246251565e-16,1,-1.9984014443252818e-15,0)"><g transform="matrix(1,-5.619580178972683e-8,0,1,0,-4.2145831713469306e-8)"><path d="M2.2500181198120117,18.550318706035615L-0.7499818801879883,18.550318706035615L-0.7499818801879883,17.950318706035613L2.2500181198120117,17.950318706035613L2.2500181198120117,18.550318706035615Z" fill-rule="evenodd" fill="#000000" fill-opacity="1" style="mix-blend-mode:passthrough"/></g></g><g transform="matrix(1,-1.1102230246251565e-16,1.1102230246251565e-16,1,-2.4424906541753444e-15,0)"><g transform="matrix(1,-5.619580178972683e-8,0,1,0,-4.214647475464517e-8)"><path d="M2.250006675720215,22.55056278705597L-0.7499933242797852,22.55056278705597L-0.7499933242797852,21.95056278705597L2.250006675720215,21.95056278705597L2.250006675720215,22.55056278705597Z" fill-rule="evenodd" fill="#000000" fill-opacity="1" style="mix-blend-mode:passthrough"/></g></g><g transform="matrix(1,-1.1102230246251565e-16,1.1102230246251565e-16,1,-2.886579864025407e-15,0)"><g transform="matrix(1,-5.619580178972683e-8,0,1,0,-4.214604842900371e-8)"><path d="M2.250014305114746,26.55056278705597L-0.7499856948852539,26.55056278705597L-0.7499856948852539,25.95056278705597L2.250014305114746,25.95056278705597L2.250014305114746,26.55056278705597Z" fill-rule="evenodd" fill="#000000" fill-opacity="1" style="mix-blend-mode:passthrough"/></g></g><g transform="matrix(1,-1.1102230246251565e-16,1.1102230246251565e-16,1,-3.3306690738754696e-15,0)"><g transform="matrix(1,-5.619580178972683e-8,0,1,0,-4.214647475464517e-8)"><path d="M2.250006675720215,30.55056278705597L-0.7499933242797852,30.55056278705597L-0.7499933242797852,29.95056278705597L2.250006675720215,29.95056278705597L2.250006675720215,30.55056278705597Z" fill-rule="evenodd" fill="#000000" fill-opacity="1" style="mix-blend-mode:passthrough"/></g></g><g transform="matrix(1,-1.1102230246251565e-16,1.1102230246251565e-16,1,-3.774758283725532e-15,0)"><g transform="matrix(1,-5.619580178972683e-8,0,1,0,-4.214604842900371e-8)"><path d="M2.250014305114746,34.550562906265256L-0.7499856948852539,34.550562906265256L-0.7499856948852539,33.95056290626526L2.250014305114746,33.95056290626526L2.250014305114746,34.550562906265256Z" fill-rule="evenodd" fill="#000000" fill-opacity="1" style="mix-blend-mode:passthrough"/></g></g><g transform="matrix(1,-1.1102230246251565e-16,1.1102230246251565e-16,1,-1.3322676295501878e-15,0)"><g transform="matrix(1,-5.619580178972683e-8,0,1,0,1.2644114377735605e-7)"><path d="M5.2500104904174805,12.550318817794324L2.2500104904174805,12.550318817794324L2.2500104904174805,11.950318817794322L5.2500104904174805,11.950318817794322L5.2500104904174805,12.550318817794324Z" fill-rule="evenodd" fill="#000000" fill-opacity="1" style="mix-blend-mode:passthrough"/></g></g><g transform="matrix(1,-1.1102230246251565e-16,1.1102230246251565e-16,1,-1.7763568394002505e-15,0)"><g transform="matrix(1,-5.619580178972683e-8,0,1,0,1.2644093061453532e-7)"><path d="M5.250006675720215,16.550318706035615L2.250006675720215,16.550318706035615L2.250006675720215,15.950318706035613L5.250006675720215,15.950318706035613L5.250006675720215,16.550318706035615Z" fill-rule="evenodd" fill="#000000" fill-opacity="1" style="mix-blend-mode:passthrough"/></g></g><g transform="matrix(1,-1.1102230246251565e-16,1.1102230246251565e-16,1,-2.220446049250313e-15,0)"><g transform="matrix(1,-5.619580178972683e-8,0,1,0,1.264364257735906e-7)"><path d="M5.249926567077637,20.550318706035615L2.2499265670776367,20.550318706035615L2.2499265670776367,19.950318706035613L5.249926567077637,19.950318706035613L5.249926567077637,20.550318706035615Z" fill-rule="evenodd" fill="#000000" fill-opacity="1" style="mix-blend-mode:passthrough"/></g></g><g transform="matrix(1,-1.1102230246251565e-16,1.1102230246251565e-16,1,-2.6645352591003757e-15,0)"><g transform="matrix(1,-5.619580178972683e-8,0,1,0,1.2644093061453532e-7)"><path d="M5.250006675720215,24.55031864643097L2.250006675720215,24.55031864643097L2.250006675720215,23.95031864643097L5.250006675720215,23.95031864643097L5.250006675720215,24.55031864643097Z" fill-rule="evenodd" fill="#000000" fill-opacity="1" style="mix-blend-mode:passthrough"/></g></g><g transform="matrix(1,-1.1102230246251565e-16,1.1102230246251565e-16,1,-3.1086244689504383e-15,0)"><g transform="matrix(1,-5.619580178972683e-8,0,1,0,1.2643621261076987e-7)"><path d="M5.249922752380371,28.55056278705597L2.249922752380371,28.55056278705597L2.249922752380371,27.95056278705597L5.249922752380371,27.95056278705597L5.249922752380371,28.55056278705597Z" fill-rule="evenodd" fill="#000000" fill-opacity="1" style="mix-blend-mode:passthrough"/></g></g><g transform="matrix(1,-1.1102230246251565e-16,1.1102230246251565e-16,1,-3.552713678800501e-15,0)"><g transform="matrix(1,-5.619580178972683e-8,0,1,0,1.2644114377735605e-7)"><path d="M5.2500104904174805,32.550318646430966L2.2500104904174805,32.550318646430966L2.2500104904174805,31.95031864643097L5.2500104904174805,31.95031864643097L5.2500104904174805,32.550318646430966Z" fill-rule="evenodd" fill="#000000" fill-opacity="1" style="mix-blend-mode:passthrough"/></g></g><g transform="matrix(1,-1.1102230246251565e-16,1.1102230246251565e-16,1,-1.7763568394002505e-15,0)"><g transform="matrix(1,-5.619580178972683e-8,0,1,0,2.950287640857141e-7)"><path d="M8.250014305114746,14.550562831759454L5.250014305114746,14.550562831759454L5.250014305114746,13.950562831759452L8.250014305114746,13.950562831759452L8.250014305114746,14.550562831759454Z" fill-rule="evenodd" fill="#000000" fill-opacity="1" style="mix-blend-mode:passthrough"/></g></g><g transform="matrix(1,-1.1102230246251565e-16,1.1102230246251565e-16,1,-1.7763568394002505e-15,0)"><g transform="matrix(1,-5.619580178972683e-8,0,1,0,2.950281192681814e-7)"><path d="M8.25000286102295,18.550318691134454L5.250002861022949,18.550318691134454L5.250002861022949,17.950318691134452L8.25000286102295,17.950318691134452L8.25000286102295,18.550318691134454Z" fill-rule="evenodd" fill="#000000" fill-opacity="1" style="mix-blend-mode:passthrough"/></g></g><g transform="matrix(1,-1.1102230246251565e-16,1.1102230246251565e-16,1,-2.6645352591003757e-15,0)"><g transform="matrix(1,-5.619580178972683e-8,0,1,0,2.9502790610536067e-7)"><path d="M8.249999046325684,22.550562846660615L5.249999046325684,22.550562846660615L5.249999046325684,21.950562846660613L8.249999046325684,21.950562846660613L8.249999046325684,22.550562846660615Z" fill-rule="evenodd" fill="#000000" fill-opacity="1" style="mix-blend-mode:passthrough"/></g></g><g transform="matrix(1,-1.1102230246251565e-16,1.1102230246251565e-16,1,-2.6645352591003757e-15,0)"><g transform="matrix(1,-5.619580178972683e-8,0,1,0,2.9502854914653653e-7)"><path d="M8.25001049041748,26.550562846660615L5.2500104904174805,26.550562846660615L5.2500104904174805,25.950562846660613L8.25001049041748,25.950562846660613L8.25001049041748,26.550562846660615Z" fill-rule="evenodd" fill="#000000" fill-opacity="1" style="mix-blend-mode:passthrough"/></g></g><g transform="matrix(1,-1.1102230246251565e-16,1.1102230246251565e-16,1,-3.552713678800501e-15,0)"><g transform="matrix(1,-5.619580178972683e-8,0,1,0,2.9502747622700554e-7)"><path d="M8.249991416931152,30.55056278705597L5.249991416931152,30.55056278705597L5.249991416931152,29.95056278705597L8.249991416931152,29.95056278705597L8.249991416931152,30.55056278705597Z" fill-rule="evenodd" fill="#000000" fill-opacity="1" style="mix-blend-mode:passthrough"/></g></g><g transform="matrix(1,-1.1102230246251565e-16,1.1102230246251565e-16,1,-3.552713678800501e-15,0)"><g transform="matrix(1,-5.619580178972683e-8,0,1,0,2.95033267150302e-7)"><path d="M8.250094413757324,34.550318646430966L5.250094413757324,34.550318646430966L5.250094413757324,33.95031864643097L8.250094413757324,33.95031864643097L8.250094413757324,34.550318646430966Z" fill-rule="evenodd" fill="#000000" fill-opacity="1" style="mix-blend-mode:passthrough"/></g></g><g transform="matrix(1,-1.1102230246251565e-16,1.1102230246251565e-16,1,-1.7763568394002505e-15,1.7763568394002505e-15)"><g transform="matrix(1,-5.619580178972683e-8,0,1,0,4.6361531147454116e-7)"><path d="M11.249999046325684,12.550318706035615L8.249999046325684,12.550318706035615L8.249999046325684,11.950318706035613L11.249999046325684,11.950318706035613L11.249999046325684,12.550318706035615Z" fill-rule="evenodd" fill="#000000" fill-opacity="1" style="mix-blend-mode:passthrough"/></g></g><g transform="matrix(1,-1.1102230246251565e-16,1.1102230246251565e-16,1,-1.7763568394002505e-15,0)"><g transform="matrix(1,-5.619580178972683e-8,0,1,0,4.63615954515717e-7)"><path d="M11.25001049041748,16.550562846660615L8.25001049041748,16.550562846660615L8.25001049041748,15.950562846660613L11.25001049041748,15.950562846660613L11.25001049041748,16.550562846660615Z" fill-rule="evenodd" fill="#000000" fill-opacity="1" style="mix-blend-mode:passthrough"/></g></g><g transform="matrix(1,-1.1102230246251565e-16,1.1102230246251565e-16,1,-1.7763568394002505e-15,0)"><g transform="matrix(1,-5.619580178972683e-8,0,1,0,4.636206689667688e-7)"><path d="M11.250094413757324,20.550562839210034L8.250094413757324,20.550562839210034L8.250094413757324,19.950562839210033L11.250094413757324,19.950562839210033L11.250094413757324,20.550562839210034Z" fill-rule="evenodd" fill="#000000" fill-opacity="1" style="mix-blend-mode:passthrough"/></g></g><g transform="matrix(1,-1.1102230246251565e-16,1.1102230246251565e-16,1,-3.552713678800501e-15,0)"><g transform="matrix(1,-5.619580178972683e-8,0,1,0,4.63615954515717e-7)"><path d="M11.25001049041748,24.550562846660615L8.25001049041748,24.550562846660615L8.25001049041748,23.950562846660613L11.25001049041748,23.950562846660613L11.25001049041748,24.550562846660615Z" fill-rule="evenodd" fill="#000000" fill-opacity="1" style="mix-blend-mode:passthrough"/></g></g><g transform="matrix(1,-1.1102230246251565e-16,1.1102230246251565e-16,1,-3.552713678800501e-15,0)"><g transform="matrix(1,-5.619580178972683e-8,0,1,0,4.636208856823032e-7)"><path d="M11.25009822845459,28.550562846660615L8.25009822845459,28.550562846660615L8.25009822845459,27.950562846660613L11.25009822845459,27.950562846660613L11.25009822845459,28.550562846660615Z" fill-rule="evenodd" fill="#000000" fill-opacity="1" style="mix-blend-mode:passthrough"/></g></g><g transform="matrix(1,-1.1102230246251565e-16,1.1102230246251565e-16,1,-3.552713678800501e-15,0)"><g transform="matrix(1,-5.619580178972683e-8,0,1,0,4.636163808413585e-7)"><path d="M11.250018119812012,32.550562787055966L8.250018119812012,32.550562787055966L8.250018119812012,31.95056278705597L11.250018119812012,31.95056278705597L11.250018119812012,32.550562787055966Z" fill-rule="evenodd" fill="#000000" fill-opacity="1" style="mix-blend-mode:passthrough"/></g></g><g transform="matrix(1,-1.1102230246251565e-16,1.1102230246251565e-16,1,-1.7763568394002505e-15,1.7763568394002505e-15)"><g transform="matrix(1,-5.619580178972683e-8,0,1,0,6.322130055025355e-7)"><path d="M14.250182151794434,14.550562846660615L11.250182151794434,14.550562846660615L11.250182151794434,13.950562846660613L14.250182151794434,13.950562846660613L14.250182151794434,14.550562846660615Z" fill-rule="evenodd" fill="#000000" fill-opacity="1" style="mix-blend-mode:passthrough"/></g></g><g transform="matrix(1,-1.1102230246251565e-16,1.1102230246251565e-16,1,-1.7763568394002505e-15,0)"><g transform="matrix(1,-5.619580178972683e-8,0,1,0,6.322076480103078e-7)"><path d="M14.250086784362793,18.550562846660615L11.250086784362793,18.550562846660615L11.250086784362793,17.950562846660613L14.250086784362793,17.950562846660613L14.250086784362793,18.550562846660615Z" fill-rule="evenodd" fill="#000000" fill-opacity="1" style="mix-blend-mode:passthrough"/></g></g><g transform="matrix(1,-1.1102230246251565e-16,1.1102230246251565e-16,1,-1.7763568394002505e-15,0)"><g transform="matrix(1,-5.619580178972683e-8,0,1,0,6.322074312947734e-7)"><path d="M14.250082969665527,22.550562836416066L11.250082969665527,22.550562836416066L11.250082969665527,21.950562836416065L14.250082969665527,21.950562836416065L14.250082969665527,22.550562836416066Z" fill-rule="evenodd" fill="#000000" fill-opacity="1" style="mix-blend-mode:passthrough"/></g></g><g transform="matrix(1,-1.1102230246251565e-16,1.1102230246251565e-16,1,-3.552713678800501e-15,0)"><g transform="matrix(1,-5.619580178972683e-8,0,1,0,6.322078611731285e-7)"><path d="M14.250090599060059,26.550806987285615L11.250090599060059,26.550806987285615L11.250090599060059,25.950806987285613L14.250090599060059,25.950806987285613L14.250090599060059,26.550806987285615Z" fill-rule="evenodd" fill="#000000" fill-opacity="1" style="mix-blend-mode:passthrough"/></g></g><g transform="matrix(1,-1.1102230246251565e-16,1.1102230246251565e-16,1,-3.552713678800501e-15,0)"><g transform="matrix(1,-5.619580178972683e-8,0,1,0,6.322076480103078e-7)"><path d="M14.250086784362793,30.550318706035615L11.250086784362793,30.550318706035615L11.250086784362793,29.950318706035613L14.250086784362793,29.950318706035613L14.250086784362793,30.550318706035615Z" fill-rule="evenodd" fill="#000000" fill-opacity="1" style="mix-blend-mode:passthrough"/></g></g><g transform="matrix(1,-1.1102230246251565e-16,1.1102230246251565e-16,1,-3.552713678800501e-15,0)"><g transform="matrix(1,-5.619580178972683e-8,0,1,0,6.321982155554906e-7)"><path d="M14.249918937683105,34.550562787055966L11.249918937683105,34.550562787055966L11.249918937683105,33.95056278705597L14.249918937683105,33.95056278705597L14.249918937683105,34.550562787055966Z" fill-rule="evenodd" fill="#000000" fill-opacity="1" style="mix-blend-mode:passthrough"/></g></g><g transform="matrix(1,-1.1102230246251565e-16,1.1102230246251565e-16,1,-1.7763568394002505e-15,1.7763568394002505e-15)"><g transform="matrix(1,-5.619580178972683e-8,0,1,0,8.007954814814866e-7)"><path d="M17.250094413757324,12.55056290626526L14.250094413757324,12.55056290626526L14.250094413757324,11.950562906265258L17.250094413757324,11.950562906265258L17.250094413757324,12.55056290626526Z" fill-rule="evenodd" fill="#000000" fill-opacity="1" style="mix-blend-mode:passthrough"/></g></g><g transform="matrix(1,-1.1102230246251565e-16,1.1102230246251565e-16,1,-1.7763568394002505e-15,0)"><g transform="matrix(1,-5.619580178972683e-8,0,1,0,8.007909784168987e-7)"><path d="M17.250014305114746,16.550562846660615L14.250014305114746,16.550562846660615L14.250014305114746,15.950562846660613L17.250014305114746,15.950562846660613L17.250014305114746,16.550562846660615Z" fill-rule="evenodd" fill="#000000" fill-opacity="1" style="mix-blend-mode:passthrough"/></g></g><g transform="matrix(1,-1.1102230246251565e-16,1.1102230246251565e-16,1,-1.7763568394002505e-15,0)"><g transform="matrix(1,-5.619580178972683e-8,0,1,0,8.007950533794883e-7)"><path d="M17.250086784362793,20.550318706035615L14.250086784362793,20.550318706035615L14.250086784362793,19.950318706035613L17.250086784362793,19.950318706035613L17.250086784362793,20.550318706035615Z" fill-rule="evenodd" fill="#000000" fill-opacity="1" style="mix-blend-mode:passthrough"/></g></g><g transform="matrix(1,-1.1102230246251565e-16,1.1102230246251565e-16,1,-3.552713678800501e-15,0)"><g transform="matrix(1,-5.619580178972683e-8,0,1,0,8.007903353757229e-7)"><path d="M17.25000286102295,24.550074557960034L14.25000286102295,24.550074557960034L14.25000286102295,23.950074557960033L17.25000286102295,23.950074557960033L17.25000286102295,24.550074557960034Z" fill-rule="evenodd" fill="#000000" fill-opacity="1" style="mix-blend-mode:passthrough"/></g></g><g transform="matrix(1,-1.1102230246251565e-16,1.1102230246251565e-16,1,-3.552713678800501e-15,0)"><g transform="matrix(1,-5.619580178972683e-8,0,1,0,8.007954797051298e-7)"><path d="M17.250094413757324,28.550318706035615L14.250094413757324,28.550318706035615L14.250094413757324,27.950318706035613L17.250094413757324,27.950318706035613L17.250094413757324,28.550318706035615Z" fill-rule="evenodd" fill="#000000" fill-opacity="1" style="mix-blend-mode:passthrough"/></g></g><g transform="matrix(1,-1.1102230246251565e-16,1.1102230246251565e-16,1,-3.552713678800501e-15,0)"><g transform="matrix(1,-5.619580178972683e-8,0,1,0,8.007903389284365e-7)"><path d="M17.25000286102295,32.55056284666061L14.25000286102295,32.55056284666061L14.25000286102295,31.950562846660613L17.25000286102295,31.950562846660613L17.25000286102295,32.55056284666061Z" fill-rule="evenodd" fill="#000000" fill-opacity="1" style="mix-blend-mode:passthrough"/></g></g><g transform="matrix(1,-1.1102230246251565e-16,1.1102230246251565e-16,1,0,1.7763568394002505e-15)"><g transform="matrix(1,-5.619580178972683e-8,0,1,0,9.693769911223171e-7)"><path d="M20.24998950958252,14.550318884849549L17.24998950958252,14.550318884849549L17.24998950958252,13.950318884849548L20.24998950958252,13.950318884849548L20.24998950958252,14.550318884849549Z" fill-rule="evenodd" fill="#000000" fill-opacity="1" style="mix-blend-mode:passthrough"/></g></g><g transform="matrix(1,-1.1102230246251565e-16,1.1102230246251565e-16,1,-3.552713678800501e-15,3.552713678800501e-15)"><g transform="matrix(1,-5.619580178972683e-8,0,1,0,9.693778473263137e-7)"><path d="M20.250004768371582,18.550562846660615L17.250004768371582,18.550562846660615L17.250004768371582,17.950562846660613L20.250004768371582,17.950562846660613L20.250004768371582,18.550562846660615Z" fill-rule="evenodd" fill="#000000" fill-opacity="1" style="mix-blend-mode:passthrough"/></g></g><g transform="matrix(1,-1.1102230246251565e-16,1.1102230246251565e-16,1,-3.552713678800501e-15,3.552713678800501e-15)"><g transform="matrix(1,-5.619580178972683e-8,0,1,0,9.693778473263137e-7)"><path d="M20.250004768371582,22.550318706035615L17.250004768371582,22.550318706035615L17.250004768371582,21.950318706035613L20.250004768371582,21.950318706035613L20.250004768371582,22.550318706035615Z" fill-rule="evenodd" fill="#000000" fill-opacity="1" style="mix-blend-mode:passthrough"/></g></g><g transform="matrix(1,-1.1102230246251565e-16,1.1102230246251565e-16,1,-3.552713678800501e-15,3.552713678800501e-15)"><g transform="matrix(1,-5.619580178972683e-8,0,1,0,9.693727029969068e-7)"><path d="M20.249913215637207,26.550562831759454L17.249913215637207,26.550562831759454L17.249913215637207,25.950562831759452L20.249913215637207,25.950562831759452L20.249913215637207,26.550562831759454Z" fill-rule="evenodd" fill="#000000" fill-opacity="1" style="mix-blend-mode:passthrough"/></g></g><g transform="matrix(1,-1.1102230246251565e-16,1.1102230246251565e-16,1,-3.552713678800501e-15,3.552713678800501e-15)"><g transform="matrix(1,-5.619580178972683e-8,0,1,0,9.693763480811413e-7)"><path d="M20.249978065490723,30.550562831759454L17.249978065490723,30.550562831759454L17.249978065490723,29.950562831759452L20.249978065490723,29.950562831759452L20.249978065490723,30.550562831759454Z" fill-rule="evenodd" fill="#000000" fill-opacity="1" style="mix-blend-mode:passthrough"/></g></g><g transform="matrix(1,-1.1102230246251565e-16,1.1102230246251565e-16,1,-3.552713678800501e-15,0)"><g transform="matrix(1,-5.619580178972683e-8,0,1,0,9.693780640418481e-7)"><path d="M20.250008583068848,34.55056284666061L17.250008583068848,34.55056284666061L17.250008583068848,33.95056284666062L20.250008583068848,33.95056284666062L20.250008583068848,34.55056284666061Z" fill-rule="evenodd" fill="#000000" fill-opacity="1" style="mix-blend-mode:passthrough"/></g></g><g transform="matrix(1,-1.1102230246251565e-16,1.1102230246251565e-16,1,0,1.7763568394002505e-15)"><g transform="matrix(1,-5.619580178972683e-8,0,1,0,0.0000011379654694110286)"><path d="M23.250008583068848,12.550318884849549L20.250008583068848,12.550318884849549L20.250008583068848,11.950318884849548L23.250008583068848,11.950318884849548L23.250008583068848,12.550318884849549Z" fill-rule="evenodd" fill="#000000" fill-opacity="1" style="mix-blend-mode:passthrough"/></g></g><g transform="matrix(1,-1.1102230246251565e-16,1.1102230246251565e-16,1,-3.552713678800501e-15,3.552713678800501e-15)"><g transform="matrix(1,-5.619580178972683e-8,0,1,0,0.0000011379701838620804)"><path d="M23.25009250640869,16.55056278705597L20.25009250640869,16.55056278705597L20.25009250640869,15.950562787055969L23.25009250640869,15.950562787055969L23.25009250640869,16.55056278705597Z" fill-rule="evenodd" fill="#000000" fill-opacity="1" style="mix-blend-mode:passthrough"/></g></g><g transform="matrix(1,-1.1102230246251565e-16,1.1102230246251565e-16,1,-3.552713678800501e-15,3.552713678800501e-15)"><g transform="matrix(1,-5.619580178972683e-8,0,1,0,0.0000011379598952032666)"><path d="M23.24990940093994,20.55056278705597L20.24990940093994,20.55056278705597L20.24990940093994,19.95056278705597L23.24990940093994,19.95056278705597L23.24990940093994,20.55056278705597Z" fill-rule="evenodd" fill="#000000" fill-opacity="1" style="mix-blend-mode:passthrough"/></g></g><g transform="matrix(1,-1.1102230246251565e-16,1.1102230246251565e-16,1,-3.552713678800501e-15,3.552713678800501e-15)"><g transform="matrix(1,-5.619580178972683e-8,0,1,0,0.0000011379650395326735)"><path d="M23.250000953674316,24.550318706035615L20.250000953674316,24.550318706035615L20.250000953674316,23.950318706035613L23.250000953674316,23.950318706035613L23.250000953674316,24.550318706035615Z" fill-rule="evenodd" fill="#000000" fill-opacity="1" style="mix-blend-mode:passthrough"/></g></g><g transform="matrix(1,-1.1102230246251565e-16,1.1102230246251565e-16,1,-3.552713678800501e-15,3.552713678800501e-15)"><g transform="matrix(1,-5.619580178972683e-8,0,1,0,0.0000011379650395326735)"><path d="M23.250000953674316,28.550562846660615L20.250000953674316,28.550562846660615L20.250000953674316,27.950562846660613L23.250000953674316,27.950562846660613L23.250000953674316,28.550562846660615Z" fill-rule="evenodd" fill="#000000" fill-opacity="1" style="mix-blend-mode:passthrough"/></g></g><g transform="matrix(1,-1.1102230246251565e-16,1.1102230246251565e-16,1,-3.552713678800501e-15,0)"><g transform="matrix(1,-5.619580178972683e-8,0,1,0,0.0000011379646096543183)"><path d="M23.249993324279785,32.55007455796003L20.249993324279785,32.55007455796003L20.249993324279785,31.950074557960033L23.249993324279785,31.950074557960033L23.249993324279785,32.55007455796003Z" fill-rule="evenodd" fill="#000000" fill-opacity="1" style="mix-blend-mode:passthrough"/></g></g><g transform="matrix(1,-1.1102230246251565e-16,1.1102230246251565e-16,1,0,1.7763568394002505e-15)"><g transform="matrix(1,-5.619580178972683e-8,0,1,0,0.000001306552874780209)"><path d="M26.250008583068848,14.550318884849549L23.250008583068848,14.550318884849549L23.250008583068848,13.950318884849548L26.250008583068848,13.950318884849548L26.250008583068848,14.550318884849549Z" fill-rule="evenodd" fill="#000000" fill-opacity="1" style="mix-blend-mode:passthrough"/></g></g><g transform="matrix(1,-1.1102230246251565e-16,1.1102230246251565e-16,1,-3.552713678800501e-15,3.552713678800501e-15)"><g transform="matrix(1,-5.619580178972683e-8,0,1,0,0.0000013065571629056194)"><path d="M26.25008487701416,18.55056278705597L23.25008487701416,18.55056278705597L23.25008487701416,17.95056278705597L26.25008487701416,17.95056278705597L26.25008487701416,18.55056278705597Z" fill-rule="evenodd" fill="#000000" fill-opacity="1" style="mix-blend-mode:passthrough"/></g></g><g transform="matrix(1,-1.1102230246251565e-16,1.1102230246251565e-16,1,-3.552713678800501e-15,3.552713678800501e-15)"><g transform="matrix(1,-5.619580178972683e-8,0,1,0,0.000001306546870694092)"><path d="M26.24990177154541,22.55056278705597L23.24990177154541,22.55056278705597L23.24990177154541,21.95056278705597L26.24990177154541,21.95056278705597L26.24990177154541,22.55056278705597Z" fill-rule="evenodd" fill="#000000" fill-opacity="1" style="mix-blend-mode:passthrough"/></g></g><g transform="matrix(1,-1.1102230246251565e-16,1.1102230246251565e-16,1,-3.552713678800501e-15,3.552713678800501e-15)"><g transform="matrix(1,-5.619580178972683e-8,0,1,0,0.0000013065623072350263)"><path d="M26.250176429748535,26.550562846660615L23.250176429748535,26.550562846660615L23.250176429748535,25.950562846660613L26.250176429748535,25.950562846660613L26.250176429748535,26.550562846660615Z" fill-rule="evenodd" fill="#000000" fill-opacity="1" style="mix-blend-mode:passthrough"/></g></g><g transform="matrix(1,-1.1102230246251565e-16,1.1102230246251565e-16,1,-3.552713678800501e-15,3.552713678800501e-15)"><g transform="matrix(1,-5.619580178972683e-8,0,1,0,0.0000013065511588195022)"><path d="M26.249978065490723,30.550562846660615L23.249978065490723,30.550562846660615L23.249978065490723,29.950562846660613L26.249978065490723,29.950562846660613L26.249978065490723,30.550562846660615Z" fill-rule="evenodd" fill="#000000" fill-opacity="1" style="mix-blend-mode:passthrough"/></g></g><g transform="matrix(1,-1.1102230246251565e-16,1.1102230246251565e-16,1,-3.552713678800501e-15,0)"><g transform="matrix(1,-5.619580178972683e-8,0,1,0,0.0000013065614510310297)"><path d="M26.250161170959473,34.55056283641606L23.250161170959473,34.55056283641606L23.250161170959473,33.95056283641607L26.250161170959473,33.95056283641607L26.250161170959473,34.55056283641606Z" fill-rule="evenodd" fill="#000000" fill-opacity="1" style="mix-blend-mode:passthrough"/></g></g></g><rect x="0.25" y="0.25" width="16" height="16" rx="8" fill-opacity="0" stroke-opacity="1" stroke="#000000" fill="none" stroke-width="0.5"/></g></g></svg>