<svg xmlns="http://www.w3.org/2000/svg" xmlns:xlink="http://www.w3.org/1999/xlink" fill="none" version="1.1" width="18" height="18" viewBox="0 0 18 18"><defs><clipPath id="master_svg0_1644_7530"><rect x="0" y="0" width="18" height="18" rx="0"/></clipPath></defs><g clip-path="url(#master_svg0_1644_7530)"><g><path d="M16.35,13.5Q16.35,13.4282,16.3331,13.3584Q16.3161,13.2887,16.2832,13.2249Q16.2503,13.1611,16.2033,13.1069Q16.1562,13.0526,16.0977,13.011Q14.1,11.5905,14.1,6.3Q14.1,4.07442,12.6197,2.495509Q11.1239,0.9,9,0.9Q6.87609,0.9,5.3803,2.495526Q3.9,4.0745000000000005,3.9,6.3Q3.9,11.5905,1.9022890000000001,13.011Q1.805026,13.0802,1.741634,13.1813Q1.6782430000000002,13.2824,1.658373,13.4001Q1.638504,13.5178,1.6651820000000002,13.6341Q1.6918600000000001,13.7504,1.761024,13.8477Q1.802627,13.9062,1.856859,13.9533Q1.91109,14.0003,1.974888,14.0332Q2.038685,14.0661,2.108448,14.0831Q2.1782109,14.1,2.25,14.1L15.75,14.1Q15.8091,14.1,15.8671,14.0885Q15.925,14.0769,15.9796,14.0543Q16.0342,14.0317,16.0833,13.9989Q16.1325,13.966,16.174300000000002,13.9243Q16.216,13.8825,16.2489,13.8333Q16.2817,13.7842,16.304299999999998,13.7296Q16.326900000000002,13.675,16.3385,13.6171Q16.35,13.5591,16.35,13.5ZM14.3474,12.9Q12.9,10.79452,12.9,6.3Q12.9,4.54899,11.74424,3.3162700000000003Q10.60402,2.1,9,2.1Q7.39598,2.1,6.25574,3.31625Q5.1,4.54904,5.1,6.3Q5.1,10.79452,3.6526,12.9L14.3474,12.9Z" fill-rule="evenodd" fill="#1878F5" fill-opacity="1"/></g><g><path d="M8.5507436484375,15.7771509Q8.3422596484375,15.6571153,8.2215316484375,15.448967Q8.1616526484375,15.345728,8.0668236484375,15.273262Q7.9719946484375,15.200796,7.8566526484375,15.170137Q7.7808989484375,15.15,7.7025147534515,15.15Q7.6924591484375,15.15,7.6824091484375,15.150337Q7.5318196484375,15.155386,7.4014816484375,15.230983Q7.2982426484375,15.290862,7.2257766484375,15.385691Q7.1533106484375,15.48052,7.1226516484375,15.595862Q7.1025146484375,15.6716158,7.1025146484375,15.75Q7.1025146484375,15.7600555,7.1028516484375,15.7701055Q7.1079006484375,15.920695,7.1834976484375,16.051033Q7.4652926484375,16.536882,7.9519876484375,16.8171Q8.4385006484375,17.09738,9.0000146484375,17.09738Q9.5615246484375,17.09738,10.0481746484375,16.81702Q10.5342546484375,16.537254,10.8160646484375,16.051844L10.8164246484375,16.051225L10.8165346484375,16.051032Q10.8975146484375,15.911409,10.8975146484375,15.75L10.8974346484375,15.74038759Q10.8962646484375,15.6668954,10.877374648437499,15.595861Q10.8467146484375,15.480519,10.7742546484375,15.38569Q10.7017846484375,15.290861,10.5985446484375,15.230982000000001Q10.458924648437499,15.15,10.2975146484375,15.15Q10.2814746484375,15.15,10.2654646484375,15.150857Q10.1908046484375,15.15485,10.1194146484375,15.177044Q10.0480146484375,15.199237,9.9842446484375,15.238274Q9.920484648437501,15.27731,9.8682446484375,15.330801Q9.8160046484375,15.384293,9.7784946484375,15.448968L9.7784846484375,15.448982L9.7782446484375,15.449394Q9.6575246484375,15.6572979,9.4491546484375,15.7772269Q9.2405946484375,15.897375,9.0000146484375,15.897375Q8.7594346484375,15.897375,8.5507436484375,15.7771509Z" fill-rule="evenodd" fill="#1878F5" fill-opacity="1"/></g></g></svg>