<svg data-v-762203b5="" data-v-a9142392="" width="22" height="22" viewBox="70 5 22 22" version="1.1" xmlns="http://www.w3.org/2000/svg" xmlns:xlink="http://www.w3.org/1999/xlink" xmlns:xhtml="http://www.w3.org/1999/xhtml" preserveAspectRatio="xMinYMin meet" overflow="visible" style="background-color: transparent;"><g style="transform:matrix(1,0,0,1,70,5);"><g clip-path="url(#clippath-artboard-5708)"><svg xmlns="http://www.w3.org/2000/svg" xmlns:xlink="http://www.w3.org/1999/xlink" xmlns:xhtml="http://www.w3.org/1999/xhtml" preserveAspectRatio="xMinYMin meet" overflow="hidden" width="22" height="22" viewBox="0 0 22 22"><clipPath id="clippath-artboard-5708"><path d="M 0 0 l 22 0 l 0 22 l -22 0 z" clip-rule="evenodd"/></clipPath><g style="transform:matrix(1,0,0,1,4,4);"><g clip-path="url(#clippath-artboard-5709)"><svg xmlns="http://www.w3.org/2000/svg" xmlns:xlink="http://www.w3.org/1999/xlink" xmlns:xhtml="http://www.w3.org/1999/xhtml" preserveAspectRatio="xMinYMin meet" overflow="hidden" width="14.000000000000075" height="14" viewBox="0 0 14.000000000000075 14"><clipPath id="clippath-artboard-5709"><path d="M 0 0 l 14.000000000000075 0 l 0 14 l -14.000000000000075 0 z" clip-rule="evenodd"/></clipPath><g style="transform:matrix(1,0,0,1,1,1);"><path d="M 0.9999999999999998 0 L 11 0 C 11.552284749830793 0 12 0.44771525016920655 12 0.9999999999999998 L 12 11 C 12 11.552284749830793 11.552284749830793 12 11 12 L 0.9999999999999998 12 C 0.44771525016920655 12 0 11.552284749830793 0 11 L 0 0.9999999999999998 C 0 0.44771525016920655 0.44771525016920655 0 0.9999999999999998 0 Z" fill="rgb(255,255,255)" fill-opacity="1" stroke="none" stroke-width="0" fill-rule="evenodd"/><g><clipPath id="clippath-border38011268"><path d="M 0.9999999999999998 0 L 11 0 C 11.552284749830793 0 12 0.44771525016920655 12 0.9999999999999998 L 12 11 C 12 11.552284749830793 11.552284749830793 12 11 12 L 0.9999999999999998 12 C 0.44771525016920655 12 0 11.552284749830793 0 11 L 0 0.9999999999999998 C 0 0.44771525016920655 0.44771525016920655 0 0.9999999999999998 0 Z" clip-rule="evenodd"/></clipPath><path d="M 0.9999999999999998 0 L 11 0 C 11.552284749830793 0 12 0.44771525016920655 12 0.9999999999999998 L 12 11 C 12 11.552284749830793 11.552284749830793 12 11 12 L 0.9999999999999998 12 C 0.44771525016920655 12 0 11.552284749830793 0 11 L 0 0.9999999999999998 C 0 0.44771525016920655 0.44771525016920655 0 0.9999999999999998 0 Z" fill="none" stroke="rgba(244,244,244,1)" stroke-width="2" stroke-linejoin="miter" clip-path="url(#clippath-border38011268)"/></g></g><g style="transform:matrix(1,0,0,1,1,11);"><path d="M 1 2 C 1.551784777779014 2 2 1.551784777779014 2 1 C 2 0.448215222220986 1.551784777779014 0 1 0 C 0.448215222220986 0 0 0.448215222220986 0 1 C 0 1.551784777779014 0.448215222220986 2 1 2 Z" fill="rgb(38,38,38)" fill-opacity="1" stroke="none" stroke-width="0" fill-rule="evenodd"/></g><g style="transform:matrix(1,0,0,1,11,1);"><path d="M 1 2 C 1.551784777779014 2 2 1.551784777779014 2 1 C 2 0.448215222220986 1.551784777779014 0 1 0 C 0.448215222220986 0 0 0.448215222220986 0 1 C 0 1.551784777779014 0.448215222220986 2 1 2 Z" fill="rgb(38,38,38)" fill-opacity="1" stroke="none" stroke-width="0" fill-rule="evenodd"/></g><g style="transform:matrix(-1,1.1102230246251565e-16,-1.1102230246251565e-16,-1,12.000844405282805,12.007539739463027);"><path d="M 6.482014688656689e-14 10.00676463259409 C 4.0097679190352995 10.006796882732338 10.003021418171981 6.997311460023844 10.003027681424028 -4.6563265884281664e-14" fill="none" stroke="rgb(38,38,38)" stroke-linejoin="miter" stroke-width="1" opacity="1"/></g></svg></g></g></svg></g></g></svg>