<svg data-v-762203b5="" data-v-a9142392="" width="22" height="22" viewBox="118 5 22 22" version="1.1" xmlns="http://www.w3.org/2000/svg" xmlns:xlink="http://www.w3.org/1999/xlink" xmlns:xhtml="http://www.w3.org/1999/xhtml" preserveAspectRatio="xMinYMin meet" overflow="visible" style="background-color: transparent;"><g style="transform:matrix(1,0,0,1,118,5);"><g clip-path="url(#clippath-artboard-5756)"><svg xmlns="http://www.w3.org/2000/svg" xmlns:xlink="http://www.w3.org/1999/xlink" xmlns:xhtml="http://www.w3.org/1999/xhtml" preserveAspectRatio="xMinYMin meet" overflow="hidden" width="22" height="22" viewBox="0 0 22 22"><clipPath id="clippath-artboard-5756"><path d="M 0 0 l 22 0 l 0 22 l -22 0 z" clip-rule="evenodd"/></clipPath><g style="transform:matrix(1,0,0,1,4,4);"><g clip-path="url(#clippath-artboard-5757)"><svg xmlns="http://www.w3.org/2000/svg" xmlns:xlink="http://www.w3.org/1999/xlink" xmlns:xhtml="http://www.w3.org/1999/xhtml" preserveAspectRatio="xMinYMin meet" overflow="hidden" width="14.000000000000075" height="14" viewBox="0 0 14.000000000000075 14"><clipPath id="clippath-artboard-5757"><path d="M 0 0 l 14.000000000000075 0 l 0 14 l -14.000000000000075 0 z" clip-rule="evenodd"/></clipPath><g style="transform:matrix(1,0,0,1,1,1);"><path d="M 0.9999999999999998 0 L 11 0 C 11.552284749830793 0 12 0.44771525016920655 12 0.9999999999999998 L 12 11 C 12 11.552284749830793 11.552284749830793 12 11 12 L 0.9999999999999998 12 C 0.44771525016920655 12 0 11.552284749830793 0 11 L 0 0.9999999999999998 C 0 0.44771525016920655 0.44771525016920655 0 0.9999999999999998 0 Z" fill="rgb(255,255,255)" fill-opacity="1" stroke="none" stroke-width="0" fill-rule="evenodd"/><g><clipPath id="clippath-border38039636"><path d="M 0.9999999999999998 0 L 11 0 C 11.552284749830793 0 12 0.44771525016920655 12 0.9999999999999998 L 12 11 C 12 11.552284749830793 11.552284749830793 12 11 12 L 0.9999999999999998 12 C 0.44771525016920655 12 0 11.552284749830793 0 11 L 0 0.9999999999999998 C 0 0.44771525016920655 0.44771525016920655 0 0.9999999999999998 0 Z" clip-rule="evenodd"/></clipPath><path d="M 0.9999999999999998 0 L 11 0 C 11.552284749830793 0 12 0.44771525016920655 12 0.9999999999999998 L 12 11 C 12 11.552284749830793 11.552284749830793 12 11 12 L 0.9999999999999998 12 C 0.44771525016920655 12 0 11.552284749830793 0 11 L 0 0.9999999999999998 C 0 0.44771525016920655 0.44771525016920655 0 0.9999999999999998 0 Z" fill="none" stroke="rgba(244,244,244,1)" stroke-width="2" stroke-linejoin="miter" clip-path="url(#clippath-border38039636)"/></g></g><g style="transform:matrix(1,0,0,1,1,11);"><path d="M 1 2 C 1.551784777779014 2 2 1.551784777779014 2 1 C 2 0.448215222220986 1.551784777779014 0 1 0 C 0.448215222220986 0 0 0.448215222220986 0 1 C 0 1.551784777779014 0.448215222220986 2 1 2 Z" fill="rgb(38,38,38)" fill-opacity="1" stroke="none" stroke-width="0" fill-rule="evenodd"/></g><g style="transform:matrix(1,0,0,1,11,1);"><path d="M 1 2 C 1.551784777779014 2 2 1.551784777779014 2 1 C 2 0.448215222220986 1.551784777779014 0 1 0 C 0.448215222220986 0 0 0.448215222220986 0 1 C 0 1.551784777779014 0.448215222220986 2 1 2 Z" fill="rgb(38,38,38)" fill-opacity="1" stroke="none" stroke-width="0" fill-rule="evenodd"/></g><g style="transform:matrix(1,0,0,1,1.9992539729560121,1.9779438443765684);"><path d="M 4.659761703971797e-14 10.026483875825793 C 6.000324482891897 12.270005498724741 9.428545480296675 9.290826326679975 10.000399236526615 -2.7472201459150484e-13" fill="none" stroke="rgb(38,38,38)" stroke-linejoin="miter" stroke-width="1" opacity="1"/></g></svg></g></g></svg></g></g></svg>