<svg xmlns="http://www.w3.org/2000/svg" xmlns:xlink="http://www.w3.org/1999/xlink" fill="none"
    version="1.1" width="16" height="16" viewBox="0 0 16 16">
    <g>
        <g>
            <path
                d="M10.707763671875,4.933591365814209L11.207765671875,4.933591365814209L13.457763671875,4.933591365814209L13.457763671875,3.933593630794209L11.207765671875,3.933593630794209L10.707763671875,3.933591365814209L10.707763671875,4.933591365814209Z"
                fill-rule="evenodd" fill="#434343" fill-opacity="1" />
        </g>
        <g>
            <path
                d="M8.375732421875,2.433591365814209L8.375734686855,2.933593365814209L8.375734686855,6.433591365814209L9.375732421875,6.433591365814209L9.375732421875,2.933593365814209L9.375732421875,2.433591365814209L8.375732421875,2.433591365814209Z"
                fill-rule="evenodd" fill="#434343" fill-opacity="1" />
        </g>
        <g>
            <path
                d="M1.957763671875,4.933591365814209L2.457765671875,4.933591365814209L9.374433671875,4.933591365814209L9.374433671875,3.933593630794209L2.457765671875,3.933593630794209L1.957763671875,3.933591365814209L1.957763671875,4.933591365814209Z"
                fill-rule="evenodd" fill="#434343" fill-opacity="1" />
        </g>
        <g>
            <path
                d="M1.957763671875,12.066404342651367L2.457765671875,12.066404342651367L5.291103671875,12.066404342651367L5.291103671875,11.066406607631368L2.457765671875,11.066406607631368L1.957763671875,11.066404342651367L1.957763671875,12.066404342651367Z"
                fill-rule="evenodd" fill="#434343" fill-opacity="1" />
        </g>
        <g>
            <path
                d="M6.625732421875,9.566404342651367L6.625734686855,10.066406342651367L6.625734686855,13.566404342651367L7.625732421875,13.566404342651367L7.625732421875,10.066406342651367L7.625732421875,9.566404342651367L6.625732421875,9.566404342651367Z"
                fill-rule="evenodd" fill="#434343" fill-opacity="1" />
        </g>
        <g>
            <path
                d="M6.625732421875,12.066404342651367L7.125734421875,12.066404342651367L14.042402421875,12.066404342651367L14.042402421875,11.066406607631368L7.125734421875,11.066406607631368L6.625732421875,11.066404342651367L6.625732421875,12.066404342651367Z"
                fill-rule="evenodd" fill="#434343" fill-opacity="1" />
        </g>
    </g>
</svg>