<svg xmlns="http://www.w3.org/2000/svg" version="1.1" width="1em" height="1em" viewBox="0 0 16 16"
    style="font-size: 13px; transform: rotate(0deg);">
    <g>
        <g>
            <path
                d="M15,8Q15,8.17184,14.9916,8.34347Q14.9831,8.51511,14.9663,8.686119999999999Q14.9494,8.85713,14.9242,9.02711Q14.899,9.19709,14.8655,9.36563Q14.832,9.53417,14.7902,9.70086Q14.7485,9.86755,14.6986,10.03199Q14.6487,10.19643,14.5908,10.35823Q14.5329,10.52002,14.4672,10.67878Q14.4014,10.83754,14.3279,10.99288Q14.2545,11.1482,14.1734,11.2998Q14.0924,11.4513,14.0041,11.5987Q13.9158,11.7461,13.8203,11.889Q13.7248,12.0319,13.6225,12.1699Q13.5201,12.3079,13.4111,12.4408Q13.3021,12.5736,13.1867,12.7009Q13.0713,12.8282,12.9497,12.9497Q12.8282,13.0713,12.7009,13.1867Q12.5736,13.3021,12.4408,13.4111Q12.3079,13.5201,12.1699,13.6225Q12.0319,13.7248,11.889,13.8203Q11.7461,13.9158,11.5987,14.0041Q11.4513,14.0924,11.2998,14.1734Q11.1482,14.2545,10.99288,14.3279Q10.83754,14.4014,10.67878,14.4672Q10.52002,14.5329,10.35823,14.5908Q10.19643,14.6487,10.03199,14.6986Q9.86755,14.7485,9.70086,14.7902Q9.53417,14.832,9.36563,14.8655Q9.19709,14.899,9.02711,14.9242Q8.85713,14.9494,8.686119999999999,14.9663Q8.51511,14.9831,8.34347,14.9916Q8.17184,15,8,15Q7.82816,15,7.65653,14.9916Q7.48489,14.9831,7.31388,14.9663Q7.14287,14.9494,6.97289,14.9242Q6.80291,14.899,6.63437,14.8655Q6.46583,14.832,6.29914,14.7902Q6.13245,14.7485,5.96801,14.6986Q5.80357,14.6487,5.64177,14.5908Q5.47998,14.5329,5.32122,14.4672Q5.16246,14.4014,5.00711,14.3279Q4.85177,14.2545,4.70022,14.1734Q4.5486699999999995,14.0924,4.40128,14.0041Q4.25389,13.9158,4.11101,13.8203Q3.96813,13.7248,3.8301,13.6225Q3.69208,13.5201,3.55925,13.4111Q3.42641,13.3021,3.29909,13.1867Q3.17176,13.0713,3.05025,12.9497Q2.92874,12.8282,2.81334,12.7009Q2.69794,12.5736,2.58893,12.4408Q2.4799100000000003,12.3079,2.3775500000000003,12.1699Q2.2751799999999998,12.0319,2.17971,11.889Q2.0842400000000003,11.7461,1.9959,11.5987Q1.907556,11.4513,1.826551,11.2998Q1.745546,11.1482,1.672075,10.99288Q1.598604,10.83754,1.532843,10.67878Q1.4670830000000001,10.52002,1.409191,10.35823Q1.3513,10.19643,1.301418,10.03199Q1.251535,9.86755,1.209781,9.70086Q1.168027,9.53417,1.134503,9.36563Q1.100979,9.19709,1.0757644,9.02711Q1.0505502,8.85713,1.0337069,8.686119999999999Q1.0168636,8.51511,1.0084318,8.34347Q1,8.17184,1,8Q1,7.82816,1.0084318,7.65653Q1.0168636,7.48489,1.0337069,7.31388Q1.0505502,7.14287,1.0757644,6.97289Q1.100979,6.80291,1.134503,6.63437Q1.168027,6.46583,1.209781,6.29914Q1.251535,6.13245,1.301418,5.96801Q1.3513,5.80357,1.409191,5.64177Q1.4670830000000001,5.47998,1.532843,5.32122Q1.598604,5.16246,1.672075,5.00711Q1.745546,4.85177,1.826551,4.70022Q1.907556,4.5486699999999995,1.995899,4.40128Q2.0842400000000003,4.25389,2.17971,4.11101Q2.2751799999999998,3.96813,2.3775500000000003,3.8301Q2.4799100000000003,3.69208,2.58893,3.55925Q2.69794,3.42641,2.81334,3.29909Q2.92874,3.17176,3.05025,3.05025Q3.17176,2.92874,3.29909,2.81334Q3.42641,2.69794,3.55925,2.58893Q3.69208,2.4799100000000003,3.8301,2.3775500000000003Q3.96813,2.2751799999999998,4.11101,2.17971Q4.25389,2.0842400000000003,4.40128,1.9959Q4.5486699999999995,1.907556,4.70022,1.826551Q4.85177,1.745546,5.00711,1.672075Q5.16246,1.598604,5.32122,1.532843Q5.47998,1.4670830000000001,5.64177,1.409191Q5.80357,1.3513,5.96801,1.301418Q6.13245,1.251535,6.29914,1.209781Q6.46583,1.168027,6.63437,1.134503Q6.80291,1.100979,6.97289,1.0757644Q7.14287,1.0505502,7.31388,1.0337069Q7.48489,1.0168636,7.65653,1.0084318Q7.82816,1,8,1Q8.17184,1,8.34347,1.0084318Q8.51511,1.0168636,8.686119999999999,1.0337069Q8.85713,1.0505502,9.02711,1.0757644Q9.19709,1.100979,9.36563,1.134503Q9.53417,1.168027,9.70086,1.209781Q9.86755,1.251535,10.03199,1.301418Q10.19643,1.3513,10.35823,1.409191Q10.52002,1.4670830000000001,10.67878,1.532843Q10.83754,1.598604,10.99288,1.672075Q11.1482,1.745546,11.2998,1.826551Q11.4513,1.907556,11.5987,1.995899Q11.7461,2.0842400000000003,11.889,2.17971Q12.0319,2.2751799999999998,12.1699,2.3775500000000003Q12.3079,2.4799100000000003,12.4408,2.58893Q12.5736,2.69794,12.7009,2.81334Q12.8282,2.92874,12.9497,3.05025Q13.0713,3.17176,13.1867,3.29909Q13.3021,3.42641,13.4111,3.55925Q13.5201,3.69208,13.6225,3.8301Q13.7248,3.96813,13.8203,4.11101Q13.9158,4.25389,14.0041,4.40128Q14.0924,4.5486699999999995,14.1734,4.70022Q14.2545,4.85177,14.3279,5.00711Q14.4014,5.16246,14.4672,5.32122Q14.5329,5.47998,14.5908,5.64177Q14.6487,5.80357,14.6986,5.96801Q14.7485,6.13245,14.7902,6.29914Q14.832,6.46583,14.8655,6.63437Q14.899,6.80291,14.9242,6.97289Q14.9494,7.14287,14.9663,7.31388Q14.9831,7.48489,14.9916,7.65653Q15,7.82816,15,8ZM14,8Q14,5.51472,12.2426,3.75736Q10.48528,2,8,2Q5.51472,2,3.75736,3.75736Q2,5.51472,2,8Q2,10.48528,3.75736,12.2426Q5.51472,14,8,14Q10.48528,14,12.2426,12.2426Q14,10.48528,14,8ZM8.5,9L8.5,4L7.5,4L7.5,9L8.5,9ZM8.75,12L8.75,10.5L7.25,10.5L7.25,12L8.75,12Z"
                fill-rule="evenodd" fill="currentcolor" fill-opacity="0.8500000238418579"></path>
        </g>
    </g>
</svg>