<svg xmlns="http://www.w3.org/2000/svg" xmlns:xlink="http://www.w3.org/1999/xlink" fill="none" version="1.1" width="18" height="18" viewBox="0 0 18 18"><defs><clipPath id="master_svg0_342_2273"><rect x="0" y="0" width="18" height="18" rx="0"/></clipPath></defs><g clip-path="url(#master_svg0_342_2273)"><g><path d="M6.8998779296875,4.61784447265625L1.8748779296875,4.61784447265625Q1.8157831296875,4.61784447265625,1.7578239296875,4.6293744726562505Q1.6998639296875,4.64090447265625,1.6452679296875,4.66352447265625Q1.5906709296875001,4.68613447265625,1.5415359296875,4.71896447265625Q1.4923999296875001,4.75179447265625,1.4506139296875,4.79358447265625Q1.4088279296875,4.83537447265625,1.3759959296875,4.88450447265625Q1.3431649296875001,4.933644472656249,1.3205499296875,4.98823447265625Q1.2979359296875002,5.04283447265625,1.2864069296875,5.100794472656251Q1.2748779296875,5.15875447265625,1.2748779296875,5.21785447265625L1.2748779296875,8.21785447265625Q1.2748779296875,8.27694447265625,1.2864069296875,8.33490447265625Q1.2979359296875002,8.39286447265625,1.3205499296875,8.44745447265625Q1.3431649296875001,8.502054472656251,1.3759959296875,8.551194472656249Q1.4088279296875,8.60032447265625,1.4506139296875,8.64211447265625Q1.4923999296875001,8.683894472656249,1.5415359296875,8.716734472656249Q1.5906709296875001,8.74956447265625,1.6452679296875,8.77217447265625Q1.6998639296875,8.79479447265625,1.7578239296875,8.80632447265625Q1.8157831296875,8.817844472656251,1.8748779296875,8.81785447265625L16.1248779296875,8.81785447265625Q16.1839779296875,8.817844472656251,16.2419779296875,8.80632447265625Q16.2998779296875,8.79479447265625,16.354477929687498,8.77217447265625Q16.4090779296875,8.74956447265625,16.4581779296875,8.716734472656249Q16.5073779296875,8.683894472656249,16.549177929687502,8.64211447265625Q16.5909779296875,8.60032447265625,16.6237779296875,8.551194472656249Q16.6565779296875,8.502054472656251,16.679177929687498,8.44745447265625Q16.701777929687502,8.39286447265625,16.7133779296875,8.33490447265625Q16.7248779296875,8.27694447265625,16.7248779296875,8.21785447265625L16.7248779296875,5.21785447265625Q16.7248779296875,5.15875447265625,16.7133779296875,5.100794472656251Q16.701777929687502,5.04283447265625,16.679177929687498,4.98823447265625Q16.6565779296875,4.933644472656249,16.6237779296875,4.88450447265625Q16.5909779296875,4.83537447265625,16.549177929687502,4.79358447265625Q16.5073779296875,4.75179447265625,16.4581779296875,4.71896447265625Q16.4090779296875,4.68613447265625,16.354477929687498,4.66352447265625Q16.2998779296875,4.64090447265625,16.2419779296875,4.6293744726562505Q16.1839779296875,4.61784447265625,16.1248779296875,4.61784447265625L11.0998779296875,4.61784447265625L11.0998779296875,2.21783447265625Q11.0998779296875,2.15873967265625,11.0883479296875,2.10078047265625Q11.0768179296875,2.04282047265625,11.0542079296875,1.98822447265625Q11.0315879296875,1.9336274726562501,10.9987579296875,1.88449247265625Q10.9659279296875,1.8353564726562501,10.9241379296875,1.79357047265625Q10.8823579296875,1.75178447265625,10.8332179296875,1.71895247265625Q10.7840879296875,1.6861214726562501,10.7294879296875,1.66350647265625Q10.6748879296875,1.6408924726562502,10.6169279296875,1.62936347265625Q10.5589679296875,1.61783447265625,10.4998779296875,1.61783447265625L7.4998779296875,1.61783447265625Q7.4407879296875,1.61783447265625,7.3828279296875,1.62936347265625Q7.3248679296875,1.6408924726562502,7.2702679296875,1.66350647265625Q7.2156679296875,1.6861214726562501,7.1665379296875,1.71895247265625Q7.1173979296875,1.75178447265625,7.0756179296875,1.79357047265625Q7.0338279296875,1.8353564726562501,7.0009979296875,1.88449247265625Q6.9681679296875,1.9336274726562501,6.9455479296875,1.98822447265625Q6.9229379296875,2.04282047265625,6.9114079296875,2.10078047265625Q6.8998779296875,2.15873967265625,6.8998779296875,2.21783447265625L6.8998779296875,4.61784447265625ZM7.4998779296875,5.817854472656251Q7.5589679296875,5.81784447265625,7.6169279296875,5.80632447265625Q7.6748879296875,5.79479447265625,7.7294879296875,5.77217447265625Q7.7840879296875,5.74956447265625,7.8332179296875,5.71673447265625Q7.8823579296875,5.68390447265625,7.9241379296875,5.6421144726562495Q7.9659279296875,5.600324472656251,7.9987579296875,5.55119447265625Q8.0315879296875,5.5020544726562495,8.0542079296875,5.447454472656251Q8.0768179296875,5.39286447265625,8.088347929687501,5.33490447265625Q8.0998779296875,5.27694447265625,8.0998779296875,5.21785447265625L8.0998779296875,2.81783447265625L9.8998779296875,2.81783447265625L9.8998779296875,5.21785447265625Q9.8998779296875,5.27694447265625,9.9114079296875,5.33490447265625Q9.9229379296875,5.39286447265625,9.9455479296875,5.447454472656251Q9.9681679296875,5.5020544726562495,10.0009979296875,5.55119447265625Q10.0338279296875,5.600324472656251,10.0756179296875,5.6421144726562495Q10.1173979296875,5.68390447265625,10.1665379296875,5.71673447265625Q10.2156679296875,5.74956447265625,10.2702679296875,5.77217447265625Q10.3248679296875,5.79479447265625,10.3828279296875,5.80632447265625Q10.4407879296875,5.81784447265625,10.4998779296875,5.817854472656251L15.5248779296875,5.817854472656251L15.5248779296875,7.61785447265625L2.4748779296875,7.61785447265625L2.4748779296875,5.817854472656251L7.4998779296875,5.817854472656251Z" fill-rule="evenodd" fill="#333333" fill-opacity="1"/></g><g><path d="M2.3998779296875,14.99993896484375L2.3998779296875,8.24993896484375Q2.3998779296875,8.19084416484375,2.4114069296875,8.13288496484375Q2.4229359296875,8.074924964843749,2.4455499296875,8.02032896484375Q2.4681649296875,7.96573196484375,2.5009959296875,7.91659696484375Q2.5338279296875,7.86746096484375,2.5756139296875,7.82567496484375Q2.6173999296875,7.78388896484375,2.6665359296875,7.75105696484375Q2.7156709296875,7.71822596484375,2.7702679296875,7.69561096484375Q2.8248639296875,7.67299696484375,2.8828239296875,7.66146796484375Q2.9407831296875,7.64993896484375,2.9998779296875,7.64993896484375L14.9998779296875,7.64993896484375Q15.0589779296875,7.64993896484375,15.1169779296875,7.66146796484375Q15.1748779296875,7.67299696484375,15.2294779296875,7.69561096484375Q15.2840779296875,7.71822596484375,15.3331779296875,7.75105696484375Q15.3823779296875,7.78388896484375,15.4241779296875,7.82567496484375Q15.4658779296875,7.86746096484375,15.4987779296875,7.91659696484375Q15.5315779296875,7.96573196484375,15.5541779296875,8.02032896484375Q15.5767779296875,8.074924964843749,15.5883779296875,8.13288496484375Q15.5998779296875,8.19084416484375,15.5998779296875,8.24993896484375L15.5998779296875,14.99993896484375Q15.5998779296875,15.059028964843751,15.5883779296875,15.116988964843749Q15.5767779296875,15.17494896484375,15.5541779296875,15.229548964843751Q15.5315779296875,15.28414896484375,15.4987779296875,15.33327896484375Q15.4658779296875,15.382418964843751,15.4241779296875,15.42419896484375Q15.3823779296875,15.46598896484375,15.3331779296875,15.49881896484375Q15.2840779296875,15.53164896484375,15.2294779296875,15.55426896484375Q15.1748779296875,15.57687896484375,15.1169779296875,15.588408964843751Q15.0589779296875,15.59993896484375,14.9998779296875,15.59993896484375L2.9998779296875,15.59993896484375Q2.9407831296875,15.59993896484375,2.8828239296875,15.588408964843751Q2.8248639296875,15.57687896484375,2.7702679296875,15.55426896484375Q2.7156709296875,15.53164896484375,2.6665359296875,15.49881896484375Q2.6173999296875,15.46598896484375,2.5756139296875,15.42419896484375Q2.5338279296875,15.382418964843751,2.5009959296875,15.33327896484375Q2.4681649296875,15.28414896484375,2.4455499296875,15.229548964843751Q2.4229359296875,15.17494896484375,2.4114069296875,15.116988964843749Q2.3998779296875,15.059028964843751,2.3998779296875,14.99993896484375ZM14.3998779296875,8.84993896484375L3.5998779296875,8.84993896484375L3.5998779296875,14.39993896484375L14.3998779296875,14.39993896484375L14.3998779296875,8.84993896484375Z" fill-rule="evenodd" fill="#333333" fill-opacity="1"/></g><g><path d="M6.6001220703125,14.9615834375L6.6001220703125,12.7177734375Q6.6001220703125,12.6586786375,6.5885930703125,12.6007194375Q6.5770640703125,12.542759437499999,6.5544500703125,12.4881634375Q6.5318350703125,12.4335664375,6.4990040703125,12.3844314375Q6.4661720703125,12.3352954375,6.4243860703125,12.2935094375Q6.3826000703125,12.2517234375,6.3334640703125,12.2188914375Q6.2843290703125,12.1860604375,6.2297320703125,12.1634454375Q6.1751360703125,12.1408314375,6.1171760703125,12.1293024375Q6.0592168703125004,12.1177734375,6.0001220703125,12.1177734375Q5.9410272703124996,12.1177734375,5.8830680703125,12.1293024375Q5.8251080703125,12.1408314375,5.7705120703125,12.1634454375Q5.7159150703125,12.1860604375,5.6667800703125,12.2188914375Q5.6176440703125,12.2517234375,5.5758580703125,12.2935094375Q5.5340720703125,12.3352954375,5.5012400703125,12.3844314375Q5.4684090703125,12.4335664375,5.4457940703125,12.4881634375Q5.4231800703125,12.542759437499999,5.4116510703125,12.6007194375Q5.4001220703125,12.6586786375,5.4001220703125,12.7177734375L5.4001220703125,14.9615834375Q5.4001220703125,15.0206834375,5.4116510703125,15.0786434375Q5.4231800703125,15.1365934375,5.4457940703125,15.1911934375Q5.4684090703125,15.2457934375,5.5012400703125,15.2949234375Q5.5340720703125,15.344063437500001,5.5758580703125,15.3858534375Q5.6176440703125,15.427633437499999,5.6667800703125,15.4604634375Q5.7159150703125,15.4932934375,5.7705120703125,15.5159134375Q5.8251080703125,15.5385234375,5.8830680703125,15.5500534375Q5.9410272703124996,15.5615834375,6.0001220703125,15.5615834375Q6.0592168703125004,15.5615834375,6.1171760703125,15.5500534375Q6.1751360703125,15.5385234375,6.2297320703125,15.5159134375Q6.2843290703125,15.4932934375,6.3334640703125,15.4604634375Q6.3826000703125,15.427633437499999,6.4243860703125,15.3858534375Q6.4661720703125,15.344063437500001,6.4990040703125,15.2949234375Q6.5318350703125,15.2457934375,6.5544500703125,15.1911934375Q6.5770640703125,15.1365934375,6.5885930703125,15.0786434375Q6.6001220703125,15.0206834375,6.6001220703125,14.9615834375Z" fill-rule="evenodd" fill="#333333" fill-opacity="1"/></g><g><path d="M9.6,14.961669921875L9.6,12.711669921875Q9.6,12.652575121875,9.588471,12.594615921875Q9.576942,12.536655921874999,9.554328,12.482059921875Q9.531713,12.427462921875,9.498882,12.378327921875Q9.46605,12.329191921875,9.424264,12.287405921875Q9.382478,12.245619921875,9.333342,12.212787921875Q9.284207,12.179956921875,9.22961,12.157341921875Q9.175014000000001,12.134727921875,9.117054,12.123198921875Q9.0590948,12.111669921875,9,12.111669921875Q8.9409052,12.111669921875,8.882946,12.123198921875Q8.824985999999999,12.134727921875,8.77039,12.157341921875Q8.715793,12.179956921875,8.666658,12.212787921875Q8.617522,12.245619921875,8.575736,12.287405921875Q8.53395,12.329191921875,8.501118,12.378327921875Q8.468287,12.427462921875,8.445672,12.482059921875Q8.423058,12.536655921874999,8.411529,12.594615921875Q8.4,12.652575121875,8.4,12.711669921875L8.4,14.961669921875Q8.4,15.020759921875,8.411529,15.078719921874999Q8.423058,15.136679921875,8.445672,15.191279921875001Q8.468287,15.245879921875,8.501118,15.295009921875Q8.53395,15.344149921875001,8.575736,15.385929921875Q8.617522,15.427719921875,8.666658,15.460549921875Q8.715793,15.493379921875,8.77039,15.515999921875Q8.824985999999999,15.538609921875,8.882946,15.550139921875001Q8.9409052,15.561669921875,9,15.561669921875Q9.0590948,15.561669921875,9.117054,15.550139921875001Q9.175014000000001,15.538609921875,9.22961,15.515999921875Q9.284207,15.493379921875,9.333342,15.460549921875Q9.382478,15.427719921875,9.424264,15.385929921875Q9.46605,15.344149921875001,9.498882,15.295009921875Q9.531713,15.245879921875,9.554328,15.191279921875001Q9.576942,15.136679921875,9.588471,15.078719921874999Q9.6,15.020759921875,9.6,14.961669921875Z" fill-rule="evenodd" fill="#333333" fill-opacity="1"/></g><g><path d="M12.5998779296875,14.9615834375L12.5998779296875,12.7177734375Q12.5998779296875,12.6586786375,12.5883489296875,12.6007194375Q12.5768199296875,12.542759437499999,12.5542059296875,12.4881634375Q12.5315909296875,12.4335664375,12.4987599296875,12.3844314375Q12.4659279296875,12.3352954375,12.4241419296875,12.2935094375Q12.3823559296875,12.2517234375,12.3332199296875,12.2188914375Q12.2840849296875,12.1860604375,12.2294879296875,12.1634454375Q12.174891929687501,12.1408314375,12.1169319296875,12.1293024375Q12.0589727296875,12.1177734375,11.9998779296875,12.1177734375Q11.9407831296875,12.1177734375,11.8828239296875,12.1293024375Q11.824863929687499,12.1408314375,11.7702679296875,12.1634454375Q11.7156709296875,12.1860604375,11.6665359296875,12.2188914375Q11.6173999296875,12.2517234375,11.5756139296875,12.2935094375Q11.5338279296875,12.3352954375,11.5009959296875,12.3844314375Q11.4681649296875,12.4335664375,11.4455499296875,12.4881634375Q11.4229359296875,12.542759437499999,11.4114069296875,12.6007194375Q11.3998779296875,12.6586786375,11.3998779296875,12.7177734375L11.3998779296875,14.9615834375Q11.3998779296875,15.0206834375,11.4114069296875,15.0786434375Q11.4229359296875,15.1365934375,11.4455499296875,15.1911934375Q11.4681649296875,15.2457934375,11.5009959296875,15.2949234375Q11.5338279296875,15.344063437500001,11.5756139296875,15.3858534375Q11.6173999296875,15.427633437499999,11.6665359296875,15.4604634375Q11.7156709296875,15.4932934375,11.7702679296875,15.5159134375Q11.824863929687499,15.5385234375,11.8828239296875,15.5500534375Q11.9407831296875,15.5615834375,11.9998779296875,15.5615834375Q12.0589727296875,15.5615834375,12.1169319296875,15.5500534375Q12.174891929687501,15.5385234375,12.2294879296875,15.5159134375Q12.2840849296875,15.4932934375,12.3332199296875,15.4604634375Q12.3823559296875,15.427633437499999,12.4241419296875,15.3858534375Q12.4659279296875,15.344063437500001,12.4987599296875,15.2949234375Q12.5315909296875,15.2457934375,12.5542059296875,15.1911934375Q12.5768199296875,15.1365934375,12.5883489296875,15.0786434375Q12.5998779296875,15.0206834375,12.5998779296875,14.9615834375Z" fill-rule="evenodd" fill="#333333" fill-opacity="1"/></g><g><path d="M4.5,15.59993896484375L13.5,15.59993896484375Q13.5591,15.59993896484375,13.61705,15.58840996484375Q13.67501,15.57688096484375,13.72961,15.55426696484375Q13.78421,15.53165196484375,13.83334,15.49882096484375Q13.88248,15.46598896484375,13.92426,15.42420296484375Q13.96605,15.38241696484375,13.99888,15.33328096484375Q14.03171,15.28414596484375,14.05433,15.22954896484375Q14.07694,15.174952964843751,14.08847,15.11699296484375Q14.1,15.05903376484375,14.1,14.99993896484375Q14.1,14.94084416484375,14.08847,14.88288496484375Q14.07694,14.824924964843749,14.05433,14.77032896484375Q14.03171,14.71573196484375,13.99888,14.66659696484375Q13.96605,14.61746096484375,13.92426,14.57567496484375Q13.88248,14.53388896484375,13.83334,14.50105696484375Q13.78421,14.46822596484375,13.72961,14.44561096484375Q13.67501,14.42299696484375,13.61705,14.41146796484375Q13.5591,14.39993896484375,13.5,14.39993896484375L4.5,14.39993896484375Q4.4409051999999996,14.39993896484375,4.382946,14.41146796484375Q4.324986,14.42299696484375,4.27039,14.44561096484375Q4.215793,14.46822596484375,4.166658,14.50105696484375Q4.117522,14.53388896484375,4.075736,14.57567496484375Q4.03395,14.61746096484375,4.001118,14.66659696484375Q3.968287,14.71573196484375,3.945672,14.77032896484375Q3.923058,14.824924964843749,3.911529,14.88288496484375Q3.9,14.94084416484375,3.9,14.99993896484375Q3.9,15.05903376484375,3.911529,15.11699296484375Q3.923058,15.174952964843751,3.945672,15.22954896484375Q3.968287,15.28414596484375,4.001118,15.33328096484375Q4.03395,15.38241696484375,4.075736,15.42420296484375Q4.117522,15.46598896484375,4.166658,15.49882096484375Q4.215793,15.53165196484375,4.27039,15.55426696484375Q4.324986,15.57688096484375,4.382946,15.58840996484375Q4.4409051999999996,15.59993896484375,4.5,15.59993896484375Z" fill-rule="evenodd" fill="#333333" fill-opacity="1"/></g></g></svg>