<svg xmlns="http://www.w3.org/2000/svg" xmlns:xlink="http://www.w3.org/1999/xlink" fill="none"
    version="1.1" width="20" height="20" viewBox="0 0 20 20">
    <defs>
        <clipPath id="master_svg0_sa851_8363">
            <rect x="0" y="0" width="20" height="20" rx="0" />
        </clipPath>
    </defs>
    <g clip-path="url(#master_svg0_sa851_8363)">
        <g>
            <ellipse cx="4.583333253860474" cy="15.416646242141724" rx="2.0833332538604736"
                ry="2.0833332538604736" fill-opacity="0" stroke-opacity="1" stroke="#FFFFFF"
                fill="none" stroke-width="1.399999976158142" stroke-linecap="ROUND"
                stroke-linejoin="round" />
        </g>
        <g>
            <ellipse cx="15.416707277297974" cy="15.416646242141724" rx="2.0833332538604736"
                ry="2.0833332538604736" fill-opacity="0" stroke-opacity="1" stroke="#FFFFFF"
                fill="none" stroke-width="1.399999976158142" stroke-linecap="ROUND"
                stroke-linejoin="round" />
        </g>
        <g
            transform="matrix(-0.8660253882408142,-0.5,0.5,-0.866025447845459,3.7677162565669278,33.87039712269325)">
            <path
                d="M5.721630859375,18.170559921875L5.721630859375,32.337219921875004Q5.721630859375,32.406119921875,5.735080859375,32.473819921875Q5.748531859375,32.541419921875004,5.774914859375,32.605119921875Q5.801298859375,32.668819921875,5.839601859375,32.726119921875Q5.877905859375,32.783419921875,5.926655859375,32.832219921875Q5.975406859375,32.880919921875005,6.032731859375,32.919219921875Q6.090056859375,32.957519921875004,6.153752859375,32.983919921875Q6.217448859375,33.010319921874995,6.285067859375,33.023819921875Q6.352686859375,33.037219921875,6.421630859375,33.037219921875Q6.490574859375,33.037219921875,6.558193859375,33.023819921875Q6.625812859375,33.010319921874995,6.689508859375,32.983919921875Q6.753204859375,32.957519921875004,6.810529859375,32.919219921875Q6.867854859375,32.880919921875005,6.916605859375,32.832219921875Q6.965355859375,32.783419921875,7.003659859375,32.726119921875Q7.041962859375,32.668819921875,7.068346859375,32.605119921875Q7.094729859375,32.541419921875004,7.108180859375,32.473819921875Q7.121630859375,32.406119921875,7.121630859375,32.337219921875004L7.121630859375,18.170559921875L7.138201859375,16.437283261875L7.138203859375,16.437099271875L7.138235859375,16.430420037148Q7.138235859375,16.369563121875,7.127733859375,16.309619921875Q7.117228859375,16.249662921875,7.0965338593750005,16.192419921875Q7.0758378593749995,16.135176921875,7.045571859375,16.082364921875Q7.015306859375,16.029552921875,6.976379859375,15.982757921875Q6.937451859375,15.935962921875,6.891031859375,15.896588921875Q6.844611859375,15.857214921875,6.792092859375,15.826444921875Q6.739572859375,15.795674921875,6.682530859375,15.774431921875Q6.625487859375,15.753188921875,6.565634859375,15.742110921875Q6.505782059375,15.731032921875,6.444915259375,15.730451921875L6.438236059375,15.730419921875Q6.377379159375,15.730419921875,6.317435859375,15.740921921875Q6.257478859375,15.751426921875,6.200235859375,15.772121921875Q6.142992859375,15.792817921875,6.090180859375,15.823083921875Q6.037368859375,15.853348921875,5.990573859375,15.892275921875001Q5.943778859375,15.931203921875,5.904404859375,15.977623921875Q5.865031859375,16.024043921875,5.834260859375,16.076562921875Q5.803490859375,16.129082921875,5.7822478593749995,16.186124921875Q5.761004859375,16.243167921875,5.749926859375,16.303020921875Q5.738848859375,16.362873721875,5.738267859375,16.423740571875L5.738265859375,16.423924431875L5.721630859375,18.170559921875Z"
                fill-rule="evenodd" fill="#FFFFFF" fill-opacity="1" />
        </g>
        <g
            transform="matrix(0.8660253882408142,-0.5,0.5,0.8660253286361694,-0.5409635803589481,3.148454700531147)">
            <path
                d="M4.9046642578125,18.55457919921875L4.9046632578125,18.55467919921875L4.9046142578125,18.562979199218752Q4.9046142578125,18.57567919921875,4.9050752578125,18.58837919921875Q4.9098092578125,18.71877919921875,4.9612302578125,18.83877919921875Q5.0126512578125,18.95867919921875,5.1038472578125,19.05207919921875Q5.2011382578125,19.15167919921875,5.3291412578125,19.20647919921875Q5.4571452578125,19.26127919921875,5.5963739478125,19.26287919921875L5.6046142578125,19.26297919921875Q5.6646847578125,19.26297919921875,5.7238772578125,19.25267919921875Q5.7838562578125,19.24237919921875,5.8411462578125,19.22177919921875Q5.8984352578125,19.20117919921875,5.9513142578125,19.17107919921875Q6.0041932578125,19.14087919921875,6.0510752578125,19.10207919921875Q6.0979572578125,19.06327919921875,6.1374342578125,19.01697919921875Q6.1769112578125,18.97057919921875,6.2077982578125,18.91817919921875Q6.2386852578125005,18.86567919921875,6.2600552578125,18.80867919921875Q6.2814262578125,18.75167919921875,6.2926372578125,18.69187919921875Q6.3038492578125,18.63207919921875,6.3045652578125,18.57117919921875L6.3045672578125,18.57107919921875L6.3259052578125,16.75857919921875L6.3259532578125,2.58367919921875Q6.3259532578125,2.51473519921875,6.3125032578125,2.4471161992187502Q6.2990532578125,2.37949719921875,6.2726692578125,2.31580119921875Q6.2462852578125,2.25210519921875,6.2079822578125,2.19478019921875Q6.1696792578125,2.13745519921875,6.1209282578125,2.08870419921875Q6.0721772578125,2.0399541992187498,6.0148522578125,2.00165019921875Q5.9575272578125,1.9633471992187501,5.8938322578125,1.93696319921875Q5.8301362578125,1.9105801992187499,5.7625162578125,1.89712919921875Q5.6948974578125,1.88367919921875,5.6259534578125,1.88367919921875Q5.5570095578125,1.88367919921875,5.4893902578125005,1.89712919921875Q5.4217712578125,1.9105801992187499,5.3580752578125,1.93696319921875Q5.2943792578125,1.9633471992187501,5.2370542578125,2.00165019921875Q5.1797292578125,2.0399541992187498,5.1309792578125,2.08870419921875Q5.0822282578125,2.13745519921875,5.0439252578125,2.19478019921875Q5.0056212578125,2.25210519921875,4.9792382578125,2.31580119921875Q4.9528542578125,2.37949719921875,4.9394042578125,2.4471161992187502Q4.9259532578125,2.51473519921875,4.9259532578125,2.58367919921875L4.9260022578125,16.74207919921875L4.9046642578125,18.55457919921875Z"
                fill-rule="evenodd" fill="#FFFFFF" fill-opacity="1" />
        </g>
    </g>
</svg>