<svg data-v-cb91088a="" data-v-3844b174="" width="12" height="12" viewBox="28 10 12 12" version="1.1" xmlns="http://www.w3.org/2000/svg" xmlns:xlink="http://www.w3.org/1999/xlink" xmlns:xhtml="http://www.w3.org/1999/xhtml" preserveAspectRatio="xMinYMin meet" overflow="visible" style="background-color: transparent;"><g transform="translate(28,10)"><svg version="1.1" xmlns="http://www.w3.org/2000/svg" xmlns:xlink="http://www.w3.org/1999/xlink" xmlns:xhtml="http://www.w3.org/1999/xhtml" preserveAspectRatio="xMinYMin meet" overflow="hidden" width="12" height="12" x="0" y="0" viewBox="0 0 12 12"><clipPath id="clippath-artboard-5142"><path d="M 0 0 l 12 0 l 0 12 l -12 0 z" clip-rule="evenodd"/></clipPath><g clip-path="url(#clippath-artboard-5142)"><g transform="translate(1.998018086936554,2)"><path d="M 4.001980132403194 3.1881592984184213 L 7.022411426712163 0.16772800410945107 C 7.102950458263098 0.0871824442240487 7.102950458263098 0.0871824442240487 7.208194081829868 0.043591266058024145 C 7.313426252178273 9.597798857640627e-9 7.313426252178273 9.597798857640627e-9 7.4273399620482365 1.8667869508474104e-15 C 7.5412536719181995 -9.609248342432731e-9 7.5412536719181995 -9.609248342432731e-9 7.646485842266604 0.04359115152584049 C 7.751729465833375 0.0871824442240487 7.751729465833375 0.0871824442240487 7.832268497384309 0.16772800410945107 C 7.872148603735326 0.20761040110414122 7.872148603735326 0.20761040110414122 7.903484609185177 0.25450789434811283 C 7.9348206146350275 0.30140424227024776 7.9348206146350275 0.30140424227024776 7.956409931255266 0.3535129498708284 C 7.977987794657137 0.405621657471409 7.977987794657137 0.405621657471409 7.988994337507029 0.46094070218002814 C 8.000000880356922 0.5162586015668106 8.000000880356922 0.5162586015668106 8.000000880356922 0.5726611207328698 C 8.000000880356922 0.6290624945770923 8.000000880356922 0.6290624945770923 7.988994337507029 0.6843815392857114 C 7.977987794657137 0.7396994386724939 7.977987794657137 0.7396994386724939 7.956409931255266 0.7918081462730745 C 7.9348206146350275 0.8439179991954918 7.9348206146350275 0.8439179991954918 7.903484609185177 0.8908143471176266 C 7.872148603735326 0.9377106950397617 7.872148603735326 0.9377106950397617 7.832268497384309 0.9775930920344519 L 4.811848656293705 3.998016369090566 L 7.836231310939004 7.0224104769542315 C 7.876122870508388 7.062290583305249 7.876122870508388 7.062290583305249 7.907447422739873 7.1091800592963645 C 7.9387834281897245 7.156080988505845 7.9387834281897245 7.156080988505845 7.960372744809961 7.208193132071935 C 7.981950608211833 7.260293822419659 7.981950608211833 7.260293822419659 7.992957151061726 7.315612867128279 C 8.003963693911619 7.370931911836898 8.003963693911619 7.370931911836898 8.003963693911619 7.427339012290304 C 8.003963693911619 7.4837461127437095 8.003963693911619 7.4837461127437095 7.992957151061726 7.539053704233963 C 7.981950608211833 7.594372748942581 7.981950608211833 7.594372748942581 7.960372744809961 7.646484892508672 C 7.9387834281897245 7.698597036074762 7.9387834281897245 7.698597036074762 7.907447422739873 7.745486512065877 C 7.876122870508388 7.792387441275359 7.876122870508388 7.792387441275359 7.836231310939004 7.832267547626376 C 7.796351204587988 7.872159107195759 7.796351204587988 7.872159107195759 7.749450275378507 7.903483659427244 C 7.702560799387391 7.934819664877096 7.702560799387391 7.934819664877096 7.6504486558213 7.956408981497333 C 7.59833651225521 7.977986844899204 7.59833651225521 7.977986844899204 7.5430174675465915 7.988993387749097 C 7.487709876056338 7.999999930598991 7.487709876056338 7.999999930598991 7.4313027756029335 7.999999930598991 C 7.374895675149527 7.999999930598991 7.374895675149527 7.999999930598991 7.319576630440908 7.988993387749097 C 7.264269038950655 7.977986844899204 7.264269038950655 7.977986844899204 7.212156895384564 7.956408981497333 C 7.160044751818473 7.934819664877096 7.160044751818473 7.934819664877096 7.113155275827358 7.903483659427244 C 7.066254346617877 7.872159107195759 7.066254346617877 7.872159107195759 7.02637424026686 7.832267547626376 L 4.001980132403194 4.807884892981076 L 0.9775928964705471 7.832267547626376 C 0.937710499475857 7.872159107195759 0.937710499475857 7.872159107195759 0.8908141515537221 7.903483659427244 C 0.8439166583097504 7.934819664877096 0.8439166583097504 7.934819664877096 0.7918079507091699 7.956408981497333 C 0.7396992431085893 7.977986844899204 0.7396992431085893 7.977986844899204 0.6843813437218067 7.988993387749097 C 0.6290634443350243 7.999999930598991 0.6290634443350243 7.999999930598991 0.572660925168965 7.999999930598991 C 0.516258406002906 7.999999930598991 0.516258406002906 7.999999930598991 0.46094050661612335 7.988993387749097 C 0.40562146190750425 7.977986844899204 0.40562146190750425 7.977986844899204 0.35351275430692364 7.956408981497333 C 0.3014040467063431 7.934819664877096 0.3014040467063431 7.934819664877096 0.2545076987842081 7.903483659427244 C 0.2076113508620731 7.872159107195759 0.2076113508620731 7.872159107195759 0.16772895386738293 7.832267547626376 C 0.12784655687269278 7.792387441275359 0.12784655687269278 7.792387441275359 0.09651078048720878 7.745486512065877 C 0.06517534769827577 7.698597036074762 0.06517534769827577 7.698597036074762 0.043591185026303055 7.646484892508672 C 0.022007022354330347 7.594372748942581 0.022007022354330347 7.594372748942581 0.011003514607304428 7.539053704233963 C -1.9929366113153782e-13 7.4837461127437095 -1.9929366113153782e-13 7.4837461127437095 -1.9929366113153782e-13 7.427339012290304 C -1.9929366113153782e-13 7.370931911836898 -1.9929366113153782e-13 7.370931911836898 0.011003514607304428 7.315612867128279 C 0.022007022354330347 7.260305275638026 0.022007022354330347 7.260305275638026 0.043591185026303055 7.208193132071935 C 0.06517534769827577 7.156080988505845 0.06517534769827577 7.156080988505845 0.09651078048720878 7.1091800592963645 C 0.12784655687269278 7.062290583305249 0.12784655687269278 7.062290583305249 0.16772895386738293 7.0224104769542315 L 3.192123061731049 3.998016369090566 L 0.17169176742207903 0.9775930920344519 C 0.13180937042738888 0.9377106950397617 0.13180937042738888 0.9377106950397617 0.10047439576719051 0.8908143471176266 C 0.06913907751044117 0.8439179991954918 0.06913907751044117 0.8439179991954918 0.04755491483846846 0.7918081462730745 C 0.025970752166495754 0.7396994386724939 0.025970752166495754 0.7396994386724939 0.014967187153378003 0.6843815392857114 C 0.0039636908595704476 0.6290624945770923 0.0039636908595704476 0.6290624945770923 0.0039636908595704476 0.5726611207328698 C 0.0039636908595704476 0.5162586015668106 0.0039636908595704476 0.5162586015668106 0.014967187153378003 0.46094070218002814 C 0.025970752166495754 0.405621657471409 0.025970752166495754 0.405621657471409 0.04755491483846846 0.3535129498708284 C 0.06913907751044117 0.30140424227024776 0.06913907751044117 0.30140424227024776 0.10047439576719051 0.25450789434811283 C 0.13180937042738888 0.20761040110414122 0.13180937042738888 0.20761040110414122 0.17169176742207903 0.16772800410945107 C 0.21157416441676924 0.12784560711476092 0.21157416441676924 0.12784560711476092 0.2584716576607408 0.09651074698674621 C 0.30536800558287575 0.06517542872999685 0.30536800558287575 0.06517542872999685 0.3574767131834564 0.043591266058024145 C 0.40958542078403704 0.022006988853867784 0.40958542078403704 0.022006988853867784 0.4649044654926561 0.011003515466496964 C 0.5202223648794386 1.8667869508474104e-15 0.5202223648794386 1.8667869508474104e-15 0.5766248840454978 1.8667869508474104e-15 C 0.6330262578897204 1.8667869508474104e-15 0.6330262578897204 1.8667869508474104e-15 0.6883453025983395 0.011003515466496964 C 0.7436632019851219 0.022006988853867784 0.7436632019851219 0.022006988853867784 0.7957719095857025 0.043591266058024145 C 0.8478806171862833 0.06517542872999685 0.8478806171862833 0.06517542872999685 0.8947781104302548 0.09651074698674621 C 0.9416744583523897 0.12784560711476092 0.9416744583523897 0.12784560711476092 0.9815568553470799 0.16772800410945107 L 4.001980132403194 3.1881592984184213 Z" fill="currentColor" fill-opacity="1" stroke="none" stroke-width="0" fill-rule="evenodd"/></g></g></svg></g></svg>