<svg xmlns="http://www.w3.org/2000/svg" xmlns:xlink="http://www.w3.org/1999/xlink" fill="none" version="1.1" width="12"
    height="12" viewBox="0 0 12 12">
    <defs>
        <clipPath id="master_svg0_747_12507">
            <rect x="0" y="0" width="12" height="12" rx="0" />
        </clipPath>
    </defs>
    <g clip-path="url(#master_svg0_747_12507)">
        <g>
            <path
                d="M6.00021640625,5.151452265625L2.56733140625,1.718558265625Q2.48293940625,1.634167265625,2.37267640625,1.588494265625Q2.26241440625,1.542822265625,2.143066659388,1.542822265625Q2.12753350625,1.542822265625,2.11202140625,1.543626265625Q2.00087540625,1.549384265625,1.89918740625,1.594622265625Q1.79750040625,1.6398602656249999,1.71880240625,1.7185572656249999Q1.63441140625,1.8029492656250001,1.58873840625,1.913212265625Q1.54306640625,2.023474265625,1.54306640625,2.142822265625Q1.54306640625,2.158355065625,1.54387040625,2.173867265625Q1.54962840625,2.285014265625,1.59486640625,2.386701265625Q1.6401044062499999,2.488388265625,1.7188014062499999,2.567086265625L5.1516864062500005,5.999982265625L1.71880340625,9.432842265625Q1.63441140625,9.517232265625001,1.58873940625,9.627502265625Q1.54306640625,9.737762265625001,1.54306640625,9.857112265625Q1.54306640625,9.872642265625,1.54387040625,9.888152265625Q1.54962840625,9.999302265625001,1.5948654062499998,10.100982265625Q1.64010340625,10.202672265625,1.7188014062499999,10.281372265625Q1.80319240625,10.365762265625,1.91345540625,10.411432265625Q2.02371840625,10.457112265625,2.14306640625,10.457112265625Q2.15859770625,10.457112265625,2.17410990625,10.456302265625Q2.28525640625,10.450542265625,2.38694340625,10.405312265625Q2.48863140625,10.360072265625,2.56732940625,10.281372265625L2.56785840625,10.280842265625L6.00021640625,6.848502265625L9.43265640625,10.280942265625L9.433076406249999,10.281372265625Q9.51746640625,10.365762265625,9.627736406250001,10.411432265625Q9.73799640625,10.457112265625,9.857346406249999,10.457112265625Q9.97669640625,10.457112265625,10.08695640625,10.411432265625Q10.19721640625,10.365762265625,10.28160640625,10.281372265625Q10.36599640625,10.196982265625,10.41167640625,10.086722265625Q10.45734640625,9.976452265625,10.45734640625,9.857112265625Q10.45734640625,9.737762265625001,10.41167640625,9.627502265625Q10.36599640625,9.517232265625001,10.28160640625,9.432842265625L6.84874640625,5.999982265625L10.28125640625,2.567438265625L10.28160640625,2.567084265625Q10.36599640625,2.482693265625,10.41167640625,2.372430265625Q10.45734640625,2.262167265625,10.45734640625,2.142819594585Q10.45734640625,2.023473265625,10.41167640625,1.913210265625Q10.36599640625,1.802948265625,10.28160640625,1.718556265625Q10.19721640625,1.634165265625,10.08695640625,1.588493265625Q9.97668640625,1.542822265625,9.857346406249999,1.542822265625Q9.73799640625,1.542822265625,9.627736406250001,1.588495265625Q9.51746640625,1.634167265625,9.433076406249999,1.718560265625L6.00021640625,5.151452265625Z"
                fill-rule="evenodd" fill="currentColor" fill-opacity="1" />
        </g>
    </g>
</svg>