<svg t="1686186687240" class="icon" viewBox="0 0 1024 1024" version="1.1" xmlns="http://www.w3.org/2000/svg" p-id="1284" width="200" height="200"><path d="M839.49899 753.777778c16.290909 16.290909 16.290909 42.666667 0 58.957576-8.145455 8.145455-18.747475 12.153535-29.478788 12.153535-10.60202 0-21.333333-4.008081-29.478788-12.153535L511.482828 543.676768 242.424242 812.735354c-8.145455 8.145455-18.747475 12.153535-29.478787 12.153535-10.60202 0-21.333333-4.008081-29.478788-12.153535-16.290909-16.290909-16.290909-42.666667 0-58.957576L452.525253 484.719192 183.466667 215.660606c-16.290909-16.290909-16.290909-42.666667 0-58.957576 16.290909-16.290909 42.666667-16.290909 58.957575 0l269.058586 269.058586 269.058586-269.058586c16.290909-16.290909 42.666667-16.290909 58.957576 0 16.290909 16.290909 16.290909 42.666667 0 58.957576L570.440404 484.719192 839.49899 753.777778z m0 0" p-id="1285"></path></svg>