<svg xmlns="http://www.w3.org/2000/svg" xmlns:xlink="http://www.w3.org/1999/xlink" fill="none" version="1.1" width="16" height="16" viewBox="0 0 16 16"><defs><clipPath id="master_svg0_388_9604"><rect x="0" y="0" width="16" height="16" rx="0"/></clipPath></defs><g clip-path="url(#master_svg0_388_9604)"><g><path d="M8.848323593749999,8.000301875L13.56663359375,3.281940875L13.56693359375,3.281683875Q13.65133359375,3.197293875,13.69693359375,3.0870328750000002Q13.74263359375,2.976772875,13.74263359375,2.85742707818Q13.74263359375,2.738076875,13.69693359375,2.627811875Q13.65133359375,2.517546875,13.56693359375,2.433155875Q13.48253359375,2.348764875,13.37223359375,2.303092875Q13.26193359375,2.257420875,13.14263359375,2.257421875Q13.02333359375,2.257421875,12.91303359375,2.303094875Q12.80276359375,2.348766875,12.71837359375,2.433159875L12.71811359375,2.433416875L7.99980359375,7.151771875L3.28119859375,2.433157875Q3.19680659375,2.348766875,3.08654359375,2.303093875Q2.97628159375,2.257421875,2.856933846888,2.257421875Q2.84140069375,2.257421875,2.82588859375,2.258225875Q2.71474259375,2.263983875,2.61305459375,2.309221875Q2.51136759375,2.354459875,2.43266959375,2.433156875Q2.34827859375,2.517548875,2.30260559375,2.627811875Q2.25693359375,2.738073875,2.25693359375,2.857421875Q2.25693359375,2.872954675,2.25773759375,2.888466875Q2.26349559375,2.999613875,2.30873359375,3.101300875Q2.35397159375,3.202987875,2.43266859375,3.281685875L7.15127359375,8.000301875L2.43320159375,12.718341875L2.43267059375,12.718871875Q2.34827859375,12.803261875,2.30260659375,12.913521875Q2.25693359375,13.023821875,2.25693359375,13.143121875Q2.25693359375,13.157521875,2.25762659375,13.171921875Q2.26299959375,13.283721875,2.30828159375,13.386021875Q2.35356359375,13.488321875,2.43266859375,13.567421875Q2.51705959375,13.651821875,2.6273225937499998,13.697421875Q2.73758559375,13.743121875,2.85693359375,13.743121875Q2.87246489375,13.743121875,2.88797709375,13.742321875Q2.99912359375,13.736621875,3.10081059375,13.691321875Q3.20249859375,13.646121875,3.28119659375,13.567421875L3.28172559375,13.566921875L7.99980359375,8.848821874999999L12.71780359375,13.566821875L12.71837359375,13.567421875Q12.80276359375,13.651821875,12.91303359375,13.697421875Q13.02333359375,13.743121875,13.14263359375,13.743121875Q13.26203359375,13.743121875,13.37223359375,13.697421875Q13.48253359375,13.651821875,13.56693359375,13.567421875Q13.65133359375,13.483021875,13.69693359375,13.372721875Q13.74263359375,13.262521875,13.74263359375,13.143121875Q13.74263359375,13.023821875,13.69693359375,12.913521875Q13.65133359375,12.803261875,13.56693359375,12.718871875L13.56633359375,12.718301875L8.848323593749999,8.000301875Z" fill-rule="evenodd" fill="#262626" fill-opacity="1"/></g></g></svg>