<svg xmlns="http://www.w3.org/2000/svg" xmlns:xlink="http://www.w3.org/1999/xlink" fill="none" version="1.1" width="20" height="20" viewBox="0 0 20 20"><defs><clipPath id="master_svg0_39_787/39_642"><rect x="0" y="20" width="20" height="20" rx="0"/></clipPath></defs><g transform="matrix(1,0,0,-1,0,40)" clip-path="url(#master_svg0_39_787/39_642)"><g><g><path d="M3.333343505859375,25.066059494018553L16.666643505859376,25.066059494018553Q16.725743505859377,25.066059494018553,16.783743505859377,25.077588494018556Q16.841643505859373,25.089117494018556,16.896243505859374,25.111731494018553Q16.950843505859375,25.134346494018555,17.000043505859374,25.167177494018556Q17.049143505859377,25.200009494018556,17.090943505859375,25.241795494018554Q17.132743505859374,25.283581494018556,17.165543505859375,25.332717494018553Q17.198343505859377,25.381852494018556,17.221043505859377,25.436449494018554Q17.243643505859374,25.491045494018554,17.255143505859373,25.549005494018555Q17.266643505859374,25.606964694018554,17.266643505859374,25.666059494018555Q17.266643505859374,25.725154294018555,17.255143505859373,25.783113494018554Q17.243643505859374,25.841073494018556,17.221043505859377,25.895669494018556Q17.198343505859377,25.950266494018553,17.165543505859375,25.999401494018556Q17.132743505859374,26.048537494018554,17.090943505859375,26.090323494018556Q17.049143505859377,26.132109494018554,17.000043505859374,26.164941494018553Q16.950843505859375,26.197772494018555,16.896243505859374,26.220387494018556Q16.841643505859373,26.243001494018554,16.783743505859377,26.254530494018553Q16.725743505859377,26.266059494018556,16.666643505859376,26.266059494018556L3.333343505859375,26.266059494018556Q3.274248705859375,26.266059494018556,3.216289505859375,26.254530494018553Q3.158329505859375,26.243001494018554,3.103733505859375,26.220387494018556Q3.049136505859375,26.197772494018555,3.000001505859375,26.164941494018553Q2.950865505859375,26.132109494018554,2.909079505859375,26.090323494018556Q2.867293505859375,26.048537494018554,2.834461505859375,25.999401494018556Q2.801630505859375,25.950266494018553,2.779015505859375,25.895669494018556Q2.756401505859375,25.841073494018556,2.744872505859375,25.783113494018554Q2.733343505859375,25.725154294018555,2.733343505859375,25.666059494018555Q2.733343505859375,25.606964694018554,2.744872505859375,25.549005494018555Q2.756401505859375,25.491045494018554,2.779015505859375,25.436449494018554Q2.801630505859375,25.381852494018556,2.834461505859375,25.332717494018553Q2.867293505859375,25.283581494018556,2.909079505859375,25.241795494018554Q2.950865505859375,25.200009494018556,3.000001505859375,25.167177494018556Q3.049136505859375,25.134346494018555,3.103733505859375,25.111731494018553Q3.158329505859375,25.089117494018556,3.216289505859375,25.077588494018556Q3.274248705859375,25.066059494018553,3.333343505859375,25.066059494018553Z" fill-rule="evenodd" fill="#FFFFFF" fill-opacity="1"/></g><g><path d="M6.6663818359375,21.730121994018553L13.3330518359375,21.730121994018553Q13.392141835937501,21.730121994018553,13.450101835937499,21.741650994018556Q13.5080618359375,21.753179994018556,13.5626618359375,21.775793994018553Q13.6172518359375,21.798408994018555,13.6663918359375,21.831239994018556Q13.715521835937501,21.864071994018556,13.7573118359375,21.905857994018554Q13.799101835937499,21.947643994018556,13.8319318359375,21.996779994018553Q13.8647618359375,22.045914994018556,13.8873718359375,22.100511994018554Q13.9099918359375,22.155107994018554,13.9215218359375,22.213067994018555Q13.933051835937501,22.271027194018554,13.933051835937501,22.330121994018555Q13.933051835937501,22.389216794018555,13.9215218359375,22.447175994018554Q13.9099918359375,22.505135994018556,13.8873718359375,22.559731994018556Q13.8647618359375,22.614328994018553,13.8319318359375,22.663463994018556Q13.799101835937499,22.712599994018554,13.7573118359375,22.754385994018556Q13.715521835937501,22.796171994018554,13.6663918359375,22.829003994018553Q13.6172518359375,22.861834994018555,13.5626618359375,22.884449994018556Q13.5080618359375,22.907063994018554,13.450101835937499,22.918592994018553Q13.392141835937501,22.930121994018556,13.3330518359375,22.930121994018556L6.6663818359375,22.930121994018556Q6.6072870359374996,22.930121994018556,6.5493278359375,22.918592994018553Q6.4913678359375,22.907063994018554,6.4367718359375,22.884449994018556Q6.3821748359375,22.861834994018555,6.3330398359375,22.829003994018553Q6.2839038359375,22.796171994018554,6.2421178359375,22.754385994018556Q6.2003318359375,22.712599994018554,6.1674998359375,22.663463994018556Q6.1346688359375,22.614328994018553,6.1120538359375,22.559731994018556Q6.0894398359375,22.505135994018556,6.0779108359375,22.447175994018554Q6.0663818359375,22.389216794018555,6.0663818359375,22.330121994018555Q6.0663818359375,22.271027194018554,6.0779108359375,22.213067994018555Q6.0894398359375,22.155107994018554,6.1120538359375,22.100511994018554Q6.1346688359375,22.045914994018556,6.1674998359375,21.996779994018553Q6.2003318359375,21.947643994018556,6.2421178359375,21.905857994018554Q6.2839038359375,21.864071994018556,6.3330398359375,21.831239994018556Q6.3821748359375,21.798408994018555,6.4367718359375,21.775793994018553Q6.4913678359375,21.753179994018556,6.5493278359375,21.741650994018556Q6.6072870359374996,21.730121994018553,6.6663818359375,21.730121994018553Z" fill-rule="evenodd" fill="#FFFFFF" fill-opacity="1"/></g><g><path d="M9.1587818359375,27.930272056518554L6.2421178359375,30.846936056518555Q6.1577268359375,30.931326056518554,6.1120538359375,31.041596056518554Q6.0663818359375,31.151856056518554,6.0663818359375,31.271206056518555Q6.0663818359375,31.390546056518556,6.1120538359375,31.500816056518556Q6.1577268359375,31.611076056518556,6.2421178359375,31.695466056518555Q6.3265088359375,31.779856056518554,6.4367718359375,31.825526056518555Q6.5470348359375,31.871206056518556,6.6663818359375,31.871206056518556Q6.7857288359375,31.871206056518556,6.8959918359375,31.825526056518555Q7.0062548359375,31.779856056518554,7.0906458359375,31.695466056518555L8.9830418359375,29.803066056518556L8.9830418359375,37.666056056518556Q8.9830418359375,37.72110605651855,8.9930518359375,37.77523605651855Q9.0025518359375,37.826536056518556,9.0207518359375,37.87543605651855Q9.0389618359375,37.92432605651855,9.0653318359375,37.96934605651855Q9.0917118359375,38.014366056518554,9.1254518359375,38.05415605651855Q9.1592018359375,38.093946056518554,9.1993118359375,38.127306056518556Q9.2394218359375,38.160676056518554,9.2846818359375,38.186626056518556Q9.3299518359375,38.212566056518554,9.3790218359375,38.23030605651856Q9.4280818359375,38.248046056518554,9.479471835937499,38.25705605651856Q9.5308618359375,38.26605605651855,9.5830418359375,38.26605605651855Q9.5974618359375,38.26605605651855,9.6118618359375,38.26536605651856Q9.723601835937501,38.25999605651855,9.8259018359375,38.214716056518554Q9.9281918359375,38.16942605651855,10.0073018359375,38.090326056518556Q10.0916918359375,38.00593605651856,10.1373618359375,37.89566605651856Q10.1830418359375,37.78540605651855,10.1830418359375,37.666056056518556L10.1830518359375,29.803066056518556L12.0753518359375,31.695366056518555L12.0754518359375,31.695466056518555Q12.159841835937499,31.779856056518554,12.2701018359375,31.825526056518555Q12.380371835937499,31.871206056518556,12.4997118359375,31.871206056518556Q12.6190618359375,31.871206056518556,12.729321835937501,31.825526056518555Q12.839591835937501,31.779856056518554,12.9239818359375,31.695466056518555Q13.0083718359375,31.611076056518556,13.0540418359375,31.500816056518556Q13.0997118359375,31.390546056518556,13.0997118359375,31.271206056518555Q13.0997118359375,31.151856056518554,13.0540418359375,31.041596056518554Q13.0083718359375,30.931326056518554,12.9239818359375,30.846936056518555L12.9238818359375,30.846846056518554L10.0075418359375,27.930500056518554L10.0073118359375,27.930272056518554Q10.0059418359375,27.928899056518556,10.0045618359375,27.927535056518554Q9.9203418359375,27.844401056518556,9.8108618359375,27.799468056518556Q9.7013918359375,27.754536056518553,9.5830518359375,27.754536056518553Q9.5280018359375,27.754536056518553,9.4738718359375,27.764553056518555Q9.2905818359375,27.798470056518553,9.1587818359375,27.930272056518554Z" fill-rule="evenodd" fill="#FFFFFF" fill-opacity="1"/></g></g></g></svg>