<svg width="18" height="17" viewBox="0 0 18 17" fill="none" xmlns="http://www.w3.org/2000/svg">
<path d="M8.64645 11.6869C8.84171 11.8821 9.15829 11.8821 9.35355 11.6869L12.5355 8.50491C12.7308 8.30964 12.7308 7.99306 12.5355 7.7978C12.3403 7.60254 12.0237 7.60254 11.8284 7.7978L9 10.6262L6.17157 7.7978C5.97631 7.60254 5.65973 7.60254 5.46447 7.7978C5.2692 7.99306 5.2692 8.30964 5.46447 8.50491L8.64645 11.6869ZM8.5 3.35069e-09L8.5 11.3333L9.5 11.3333L9.5 -3.35069e-09L8.5 3.35069e-09Z" fill="white"/>
<line y1="13.1016" x2="18" y2="13.1016" stroke="white"/>
<line x1="5.625" y1="16.5" x2="12.375" y2="16.5" stroke="white"/>
</svg>
