<svg data-v-f3632042="" xmlns="http://www.w3.org/2000/svg" xmlns:xlink="http://www.w3.org/1999/xlink" fill="none" version="1.1" width="16" height="16" viewBox="0 0 16 16" opacity="0.8" class="mas-tool-button-icon" style="font-size: 16px; transform: rotate(0deg);"><clipPath id="master_svg0_1638_11188"><rect x="0" y="0" width="16" height="16" rx="0"></rect></clipPath><g><g><g><path d="M15.5,8Q15.5,8.18411,15.491,8.36801Q15.4819,8.5519,15.4639,8.73513Q15.4458,8.91836,15.4188,9.10048Q15.3918,9.2826,15.3559,9.46318Q15.32,9.64375,15.2752,9.82235Q15.2305,10.00095,15.1771,10.17714Q15.1236,10.35332,15.0616,10.5267Q14.9996,10.7,14.9291,10.8701Q14.8586,11.0402,14.7799,11.2067Q14.7012,11.3731,14.6144,11.5355Q14.5276,11.6978,14.433,11.8558Q14.3383,12.0137,14.236,12.1668Q14.1337,12.3199,14.0241,12.4677Q13.9144,12.6156,13.7976,12.7579Q13.6808,12.9003,13.5571,13.0367Q13.4335,13.1731,13.3033,13.3033Q13.1731,13.4335,13.0367,13.5571Q12.9003,13.6808,12.7579,13.7976Q12.6156,13.9144,12.4677,14.0241Q12.3199,14.1337,12.1668,14.236Q12.0137,14.3383,11.8558,14.433Q11.6978,14.5276,11.5355,14.6144Q11.3731,14.7012,11.2067,14.7799Q11.0402,14.8586,10.8701,14.9291Q10.7,14.9996,10.5267,15.0616Q10.35332,15.1236,10.17714,15.1771Q10.00095,15.2305,9.82235,15.2752Q9.64375,15.32,9.46318,15.3559Q9.2826,15.3918,9.10048,15.4188Q8.91836,15.4458,8.73513,15.4639Q8.5519,15.4819,8.36801,15.491Q8.18411,15.5,8,15.5L2,15.5C1.171573,15.5,0.5,14.8284,0.5,14L0.5,8Q0.5,7.81589,0.5090340799999999,7.63199Q0.5180682,7.4481,0.5361145,7.26487Q0.5541609,7.08164,0.5811762,6.89952Q0.608191,6.7174,0.64411,6.53682Q0.680029,6.35625,0.724766,6.17765Q0.769502,5.99905,0.822947,5.82287Q0.876393,5.64668,0.938419,5.47333Q1.000446,5.29997,1.070903,5.12987Q1.1413609999999998,4.95977,1.22008,4.79334Q1.298799,4.6269,1.38559,4.46452Q1.472382,4.30215,1.56704,4.14423Q1.66169,3.98631,1.76398,3.83322Q1.86627,3.68014,1.97594,3.53225Q2.08562,3.38437,2.20242,3.24205Q2.31922,3.09973,2.44287,2.96331Q2.56651,2.82689,2.6967,2.6967Q2.82689,2.56651,2.96331,2.44287Q3.09973,2.31922,3.24205,2.20242Q3.38437,2.08562,3.53226,1.97594Q3.68014,1.86627,3.83322,1.76398Q3.98631,1.66169,4.14423,1.56704Q4.30215,1.472382,4.46452,1.38559Q4.6269,1.298799,4.79334,1.22008Q4.95977,1.1413609999999998,5.12987,1.070903Q5.29997,1.000446,5.47333,0.938419Q5.64668,0.876393,5.82287,0.822947Q5.99905,0.769502,6.17765,0.724766Q6.35625,0.680029,6.53682,0.64411Q6.7174,0.608191,6.89952,0.5811762Q7.08164,0.5541609,7.26487,0.5361145Q7.4481,0.5180682,7.63199,0.5090340799999999Q7.81589,0.5,8,0.5Q8.18411,0.5,8.36801,0.5090340799999999Q8.5519,0.5180682,8.73513,0.5361145Q8.91836,0.5541609,9.10048,0.5811762Q9.2826,0.608191,9.46318,0.64411Q9.64375,0.680029,9.82235,0.724766Q10.00095,0.769502,10.17714,0.822947Q10.35332,0.876393,10.5267,0.938419Q10.7,1.000446,10.8701,1.070903Q11.0402,1.1413609999999998,11.2067,1.22008Q11.3731,1.298799,11.5355,1.38559Q11.6978,1.472382,11.8558,1.56704Q12.0137,1.66169,12.1668,1.76398Q12.3199,1.86627,12.4677,1.97594Q12.6156,2.08562,12.7579,2.20242Q12.9003,2.31922,13.0367,2.44287Q13.1731,2.56651,13.3033,2.6967Q13.4335,2.82689,13.5571,2.96331Q13.6808,3.09973,13.7976,3.24205Q13.9144,3.38437,14.0241,3.53226Q14.1337,3.68014,14.236,3.83322Q14.3383,3.98631,14.433,4.14423Q14.5276,4.30215,14.6144,4.46452Q14.7012,4.6269,14.7799,4.79334Q14.8586,4.95977,14.9291,5.12987Q14.9996,5.29997,15.0616,5.47333Q15.1236,5.64668,15.1771,5.82287Q15.2305,5.99905,15.2752,6.17765Q15.32,6.35625,15.3559,6.53682Q15.3918,6.7174,15.4188,6.89952Q15.4458,7.08164,15.4639,7.26487Q15.4819,7.4481,15.491,7.63199Q15.5,7.81589,15.5,8ZM12.2426,12.2426Q10.48528,14,8,14L2,14L2,8Q2,5.51472,3.75736,3.75736Q5.51472,2,8,2Q10.48528,2,12.2426,3.75736Q14,5.51472,14,8Q14,10.48528,12.2426,12.2426Z" fill-rule="evenodd" fill="currentcolor" fill-opacity="1"></path></g></g></g></svg>