<svg xmlns="http://www.w3.org/2000/svg" xmlns:xlink="http://www.w3.org/1999/xlink" fill="none" version="1.1" width="14" height="14" viewBox="0 0 14 14"><defs><clipPath id="master_svg0_97_1208"><rect x="0" y="0" width="14" height="14" rx="0"/></clipPath></defs><g clip-path="url(#master_svg0_97_1208)"><g><path d="M3.99688390625,12.577648046875L1.54968690625,13.033348046875Q1.45816990625,13.050348046875,1.36665190625,13.033348046875Q1.26887590625,13.015048046875,1.18550940625,12.960848046875Q1.10214270625,12.906648046875,1.04587690625,12.824648046875Q0.98961090625,12.742648046875,0.96901190625,12.645348046875Q0.94841290625,12.548048046875,0.96661790625,12.450248046875L1.42224190625,10.003028046875Q0.66650390625,8.606998046874999,0.66650390625,7.000078046875Q0.66650390625,4.376728046875,2.52149390625,2.521738046875Q4.37648390625,0.666748046875,6.99983390625,0.666748046875Q9.62317390625,0.666748046875,11.47820390625,2.521738046875Q13.33320390625,4.3767380468749995,13.33320390625,7.000078046875Q13.33320390625,9.623418046875,11.47820390625,11.478448046875Q9.62317390625,13.333448046875,6.99983390625,13.333448046875Q5.39295390625,13.333448046875,3.99688390625,12.577648046875ZM6.99983390625,12.333448046875Q5.56649390625,12.333448046875,4.33352390625,11.620248046875Q4.25605390625,11.575448046875,4.16784390625,11.560248046875Q4.07964390625,11.545048046875,3.99165390625,11.561448046875L2.0831159062499998,11.916848046875L2.43845390625,10.008268046875Q2.45483390625,9.920278046875,2.43967390625,9.832068046875Q2.42451390625,9.743868046875,2.37970390625,9.666388046875Q1.66650390625,8.433448046875,1.66650390625,7.000078046875Q1.66650390625,4.7909380468750005,3.22860390625,3.228848046875Q4.79070390625,1.666748046875,6.99983390625,1.666748046875Q9.20896390625,1.666748046875,10.77106390625,3.228848046875Q12.33320390625,4.790948046875,12.33320390625,7.000078046875Q12.33320390625,9.209198046875,10.77106390625,10.771308046875Q9.20895390625,12.333448046875,6.99983390625,12.333448046875Z" fill-rule="evenodd" fill="#555555" fill-opacity="1"/></g><g><g><ellipse cx="4.000000059604645" cy="6.9999998807907104" rx="0.800000011920929" ry="0.8000000715255737" fill="#555555" fill-opacity="1"/></g><g><ellipse cx="7.000000059604645" cy="6.9999998807907104" rx="0.800000011920929" ry="0.8000000715255737" fill="#555555" fill-opacity="1"/></g><g><ellipse cx="10.000000059604645" cy="6.9999998807907104" rx="0.800000011920929" ry="0.8000000715255737" fill="#555555" fill-opacity="1"/></g></g></g></svg>