<svg xmlns="http://www.w3.org/2000/svg" xmlns:xlink="http://www.w3.org/1999/xlink" fill="none" version="1.1" width="14" height="14" viewBox="0 0 14 14"><defs><clipPath id="master_svg0_97_1283"><rect x="0" y="0" width="14" height="14" rx="0"/></clipPath></defs><g clip-path="url(#master_svg0_97_1283)"><g><path d="M3.8896153125,11.921121171875L2.6926413125,5.113366971875Q2.6850633125,5.070268171875,2.6701143125,5.029141171875Q2.6551653125,4.988014171875,2.6332993125,4.950109171875Q2.6114333125,4.9122041718750005,2.5833153125,4.878674171875Q2.5551973125,4.845144171875,2.5216823125,4.817007171875Q2.4881673125,4.788871171875,2.4502743125,4.766984171875Q2.4123813125,4.745097171875,2.3712623125,4.730126171875Q2.3301443125,4.715154171875,2.2870495125,4.707552171875Q2.2439552125,4.699951171875,2.200195512003,4.699951171875L2.1987720925,4.699953171875Q2.1558676125,4.700075171875,2.1136111125,4.707505171875Q2.0705123125,4.715083171875,2.0293853125,4.730032171875Q1.9882583125,4.744981171875,1.9503533124999999,4.766847171875Q1.9124483125,4.788713171875,1.8789183125,4.816831171875Q1.8453873125,4.844949171875,1.8172513125,4.878464171875Q1.7891153124999999,4.911979171875,1.7672283125,4.949872171875Q1.7453413125,4.987765171875,1.7303703125,5.028884171875Q1.7153983125,5.070003171875,1.7077963125,5.113097071875Q1.7001953125,5.156191471875,1.7001953125,5.199951171875L1.7001973125,5.201374391875Q1.7003193125,5.244278871875,1.7077493125,5.286535371875L2.9047213125,12.094291171875Q3.0119093125000003,12.703921171874999,3.4859753125,13.101921171875Q3.9600453125,13.499921171875,4.5790353125,13.499921171875L9.4213453125,13.499921171875Q10.040315312499999,13.499921171875,10.5143853125,13.101921171875Q10.9884553125,12.703911171875,11.0956153125,12.094271171875L12.2925953125,5.286537071875Q12.3001953125,5.243574171875,12.3001953125,5.199952250675L12.3000953125,5.189757171875Q12.2969953125,5.037594171875,12.2095953125,4.912965171875Q12.1525153125,4.831523171875,12.0686053125,4.778125171875Q11.9846953125,4.724728171875,11.8867453125,4.707505171875Q11.8437853125,4.699951171875,11.8001653125,4.699951171875L11.7956953125,4.699971171875Q11.7522153125,4.700359171875,11.7094653125,4.708246171875Q11.6667053125,4.716133171875,11.6259553125,4.731282171875Q11.5851953125,4.746431171875,11.5476753125,4.768387171875Q11.5101453125,4.790342171875,11.4769653125,4.818446171875Q11.4437953125,4.846550171875,11.4159653125,4.879958171875Q11.3881453125,4.913366171875,11.3665053125,4.951076171875Q11.3448553125,4.988786171875,11.3300553125,5.029665171875Q11.3152453125,5.070544171875,11.3077153125,5.113365271875L10.1107153125,11.921141171875Q10.066595312499999,12.172161171875,9.8713853125,12.336051171874999Q9.676195312499999,12.499921171875,9.4213453125,12.499921171875L4.5790353125,12.499921171875Q4.3241653125,12.499921171875,4.1289553125000005,12.336041171875Q3.9337553124999998,12.172161171875,3.8896153125,11.921121171875Z" fill-rule="evenodd" fill="#555555" fill-opacity="1"/></g><g><path d="M4.97508765625,3.89999L1.60009765625,3.89999Q1.55085195625,3.89999,1.50255255625,3.89038Q1.45425265625,3.88078,1.4087556562499999,3.86193Q1.36325865625,3.84309,1.32231265625,3.81573Q1.28136665625,3.78837,1.24654465625,3.75355Q1.21172265625,3.71872,1.18436265625,3.67778Q1.1570036562500001,3.63683,1.13815765625,3.59133Q1.11931265625,3.54584,1.10970465625,3.49754Q1.10009765625,3.44924,1.10009765625,3.39999Q1.10009765625,3.35075,1.10970465625,3.30245Q1.11931265625,3.25415,1.13815765625,3.20865Q1.1570036562500001,3.16315,1.18436265625,3.12221Q1.21172265625,3.08126,1.24654465625,3.04644Q1.28136665625,3.01162,1.32231265625,2.98426Q1.36325865625,2.9569,1.4087556562499999,2.93805Q1.45425265625,2.91921,1.50255255625,2.9096Q1.55085195625,2.89999,1.60009765625,2.89999L4.47508765625,2.89999L4.47508765625,2.2Q4.47508765625,1.4958339999999999,4.97300765625,0.99791721Q5.47091765625,0.5,6.17507765625,0.5L7.82507765625,0.5Q8.52924765625,0.5,9.02715765625,0.9979192Q9.52506765625,1.495833,9.52506765625,2.2L9.52506765625,2.89999L12.40009765625,2.89999Q12.44929765625,2.89999,12.49759765625,2.9096Q12.54589765625,2.91921,12.59139765625,2.93805Q12.63689765625,2.9569,12.67779765625,2.98426Q12.71879765625,3.01162,12.75359765625,3.04644Q12.78839765625,3.08126,12.81579765625,3.12221Q12.84319765625,3.16315,12.86199765625,3.20865Q12.88079765625,3.25415,12.89049765625,3.30245Q12.90009765625,3.35075,12.90009765625,3.39999Q12.90009765625,3.44924,12.89049765625,3.49754Q12.88079765625,3.54584,12.86199765625,3.59133Q12.84319765625,3.63683,12.81579765625,3.67778Q12.78839765625,3.71872,12.75359765625,3.75355Q12.71879765625,3.78837,12.67779765625,3.81573Q12.63689765625,3.84309,12.59139765625,3.86193Q12.54589765625,3.88078,12.49759765625,3.89038Q12.44929765625,3.89999,12.40009765625,3.89999L4.97508765625,3.89999ZM8.52506765625,2.89999L8.52506765625,2.2Q8.52506765625,1.910043,8.32004765625,1.705022Q8.11502765625,1.5,7.82507765625,1.5L6.17507765625,1.5Q5.88513765625,1.5,5.68010765625,1.7050239999999999Q5.47508765625,1.910048,5.47508765625,2.2L5.47508765625,2.89999L8.52506765625,2.89999Z" fill-rule="evenodd" fill="#555555" fill-opacity="1"/></g><g><path d="M5,6Q5,5.9507543,5.009607,5.9024549Q5.019215,5.854155,5.03806,5.808658Q5.056906,5.763161,5.084265,5.722215Q5.111625,5.681269,5.146447,5.646447Q5.181269,5.611625,5.222215,5.584265Q5.263161,5.556906,5.308658,5.53806Q5.354155,5.519215,5.4024549,5.509607Q5.4507543,5.5,5.5,5.5Q5.5492457,5.5,5.5975451,5.509607Q5.645845,5.519215,5.691342,5.53806Q5.736839,5.556906,5.777785,5.584265Q5.818731,5.611625,5.853553,5.646447Q5.888375,5.681269,5.915735,5.722215Q5.943094,5.763161,5.96194,5.808658Q5.980785,5.854155,5.990393,5.9024549Q6,5.9507543,6,6L6,10Q6,10.04925,5.990393,10.09755Q5.980785,10.14584,5.96194,10.19134Q5.943094,10.23684,5.915735,10.27778Q5.888375,10.31873,5.853553,10.35355Q5.818731,10.38837,5.777785,10.41573Q5.736839,10.44309,5.691342,10.46194Q5.645845,10.48078,5.5975451,10.49039Q5.5492457,10.5,5.5,10.5Q5.4507543,10.5,5.4024549,10.49039Q5.354155,10.48078,5.308658,10.46194Q5.263161,10.44309,5.222215,10.41573Q5.181269,10.38837,5.146447,10.35355Q5.111625,10.31873,5.084265,10.27778Q5.056906,10.23684,5.03806,10.19134Q5.019215,10.14584,5.009607,10.09755Q5,10.04925,5,10L5,6Z" fill-rule="evenodd" fill="#555555" fill-opacity="1"/></g><g><path d="M8,6Q8,5.9507543,8.009607,5.9024549Q8.019214999999999,5.854155,8.03806,5.808658Q8.056906,5.763161,8.084265,5.722215Q8.111625,5.681269,8.146447,5.646447Q8.181269,5.611625,8.222215,5.584265Q8.263161,5.556906,8.308658,5.53806Q8.354155,5.519215,8.4024549,5.509607Q8.4507543,5.5,8.5,5.5Q8.5492457,5.5,8.5975451,5.509607Q8.645845,5.519215,8.691342,5.53806Q8.736839,5.556906,8.777785,5.584265Q8.818731,5.611625,8.853553,5.646447Q8.888375,5.681269,8.915735,5.722215Q8.943094,5.763161,8.96194,5.808658Q8.980785000000001,5.854155,8.990393,5.9024549Q9,5.9507543,9,6L9,10Q9,10.04925,8.990393,10.09755Q8.980785000000001,10.14584,8.96194,10.19134Q8.943094,10.23684,8.915735,10.27778Q8.888375,10.31873,8.853553,10.35355Q8.818731,10.38837,8.777785,10.41573Q8.736839,10.44309,8.691342,10.46194Q8.645845,10.48078,8.5975451,10.49039Q8.5492457,10.5,8.5,10.5Q8.4507543,10.5,8.4024549,10.49039Q8.354155,10.48078,8.308658,10.46194Q8.263161,10.44309,8.222215,10.41573Q8.181269,10.38837,8.146447,10.35355Q8.111625,10.31873,8.084265,10.27778Q8.056906,10.23684,8.03806,10.19134Q8.019214999999999,10.14584,8.009607,10.09755Q8,10.04925,8,10L8,6Z" fill-rule="evenodd" fill="#555555" fill-opacity="1"/></g></g></svg>