<svg xmlns="http://www.w3.org/2000/svg" xmlns:xlink="http://www.w3.org/1999/xlink" fill="none" version="1.1" width="12.541666984558105" height="12.541666984558105" viewBox="0 0 12.541666984558105 12.541666984558105"><g><path d="M6.27083,0C2.80755,0,0,2.80755,0,6.27083C0,9.73414,2.80755,12.5417,6.27083,12.5417C9.73414,12.5417,12.5417,9.73414,12.5417,6.27083C12.5417,2.80755,9.73414,0,6.27083,0ZM3.66359,6.25316C3.49274,6.0823,3.21573,6.0823,3.04487,6.25316C2.87402,6.42402,2.87402,6.70098,3.04487,6.87184L4.79487,8.62184C4.96573,8.7927,5.24277,8.7927,5.41357,8.62184L9.4969,4.53853C9.66776,4.36767,9.66776,4.09066,9.4969,3.91981C9.32604,3.74896,9.04908,3.74896,8.87822,3.91981L5.10423,7.69376L3.66359,6.25316Z" fill-rule="evenodd" fill="#169248" fill-opacity="1"/></g></svg>