<svg xmlns="http://www.w3.org/2000/svg" xmlns:xlink="http://www.w3.org/1999/xlink" fill="none" version="1.1" width="24" height="24" viewBox="0 0 24 24"><defs><clipPath id="master_svg0_97_1226/97_1166"><rect x="0" y="0" width="24" height="24" rx="0"/></clipPath></defs><g clip-path="url(#master_svg0_97_1226/97_1166)"><g><path d="M7,10L17,10Q17.0985,10,17.1951,9.980785000000001Q17.2917,9.96157,17.3827,9.923879Q17.4737,9.886188,17.5556,9.83147Q17.6375,9.776751,17.7071,9.707107Q17.776699999999998,9.637463,17.8315,9.55557Q17.886200000000002,9.473678,17.9239,9.382683Q17.9616,9.291689,17.980800000000002,9.19509Q18,9.0984914,18,9Q18,8.9015086,17.980800000000002,8.80491Q17.9616,8.708311,17.9239,8.617317Q17.886200000000002,8.526322,17.8315,8.44443Q17.776699999999998,8.362537,17.7071,8.292893Q17.6375,8.223249,17.5556,8.16853Q17.4737,8.113812,17.3827,8.076121Q17.2917,8.03843,17.1951,8.019214999999999Q17.0985,8,17,8L7,8Q6.9015086,8,6.80491,8.019214999999999Q6.708311,8.03843,6.617317,8.076121Q6.526322,8.113812,6.44443,8.16853Q6.362537,8.223249,6.292893,8.292893Q6.223249,8.362537,6.16853,8.44443Q6.113812,8.526322,6.076121,8.617317Q6.03843,8.708311,6.019215,8.80491Q6,8.9015086,6,9Q6,9.0984914,6.019215,9.19509Q6.03843,9.291689,6.076121,9.382683Q6.113812,9.473678,6.16853,9.55557Q6.223249,9.637463,6.292893,9.707107Q6.362537,9.776751,6.44443,9.83147Q6.526322,9.886188,6.617317,9.923879Q6.708311,9.96157,6.80491,9.980785000000001Q6.9015086,10,7,10Z" fill-rule="evenodd" fill="#FFFFFF" fill-opacity="1"/></g><g><path d="M7,16L13,16Q13.09849,16,13.19509,15.980785000000001Q13.29169,15.96157,13.38268,15.923879Q13.47368,15.886188,13.55557,15.83147Q13.63746,15.776751,13.70711,15.707107Q13.77675,15.637463,13.83147,15.55557Q13.88619,15.473678,13.92388,15.382683Q13.96157,15.291689,13.98078,15.19509Q14,15.0984914,14,15Q14,14.9015086,13.98078,14.80491Q13.96157,14.708311,13.92388,14.617317Q13.88619,14.526322,13.83147,14.44443Q13.77675,14.362537,13.70711,14.292893Q13.63746,14.223249,13.55557,14.16853Q13.47368,14.113812,13.38268,14.076121Q13.29169,14.03843,13.19509,14.019214999999999Q13.09849,14,13,14L7,14Q6.9015086,14,6.80491,14.019214999999999Q6.708311,14.03843,6.617317,14.076121Q6.526322,14.113812,6.44443,14.16853Q6.362537,14.223249,6.292893,14.292893Q6.223249,14.362537,6.16853,14.44443Q6.113812,14.526322,6.076121,14.617317Q6.03843,14.708311,6.019215,14.80491Q6,14.9015086,6,15Q6,15.0984914,6.019215,15.19509Q6.03843,15.291689,6.076121,15.382683Q6.113812,15.473678,6.16853,15.55557Q6.223249,15.637463,6.292893,15.707107Q6.362537,15.776751,6.44443,15.83147Q6.526322,15.886188,6.617317,15.923879Q6.708311,15.96157,6.80491,15.980785000000001Q6.9015086,16,7,16Z" fill-rule="evenodd" fill="#FFFFFF" fill-opacity="1"/></g></g></svg>