<svg xmlns="http://www.w3.org/2000/svg" xmlns:xlink="http://www.w3.org/1999/xlink" fill="none" version="1.1" width="12.205240249633789" height="13" viewBox="0 0 12.205240249633789 13"><g><path d="M5.76201,13C6.88319,13,7.87664,12.7445,8.82751,12.191L8.41594,11.2544C7.73472,11.6517,6.81223,11.9356,5.88974,11.9356C3.23581,11.9356,1.14956,10.2467,1.14956,7.12445C1.14956,3.44869,3.90284,1.05022,6.69869,1.05022C9.67904,1.05022,11.1124,2.98035,11.1124,5.47817C11.1124,7.43668,10.0196,8.62882,9.0262,8.62882C8.20306,8.62882,7.91921,8.07533,8.20306,6.91157L8.87009,3.619L7.81987,3.619L7.62118,4.27183L7.59279,4.27183C7.30895,3.74672,6.869,3.49127,6.32969,3.49127C4.48472,3.49127,3.20742,5.49236,3.20742,7.26638C3.20742,8.71397,4.05895,9.57969,5.19432,9.57969C5.88974,9.57969,6.64192,9.09716,7.13865,8.4869L7.16703,8.4869C7.29476,9.29585,7.99017,9.69323,8.87009,9.69323C10.3886,9.69323,12.2052,8.24563,12.2052,5.40721C12.2052,2.19978,10.119,0,6.84061,0C3.16485,0,0,2.83843,0,7.18122C0,11.0131,2.61135,13,5.76201,13ZM5.53493,8.4869C4.92467,8.4869,4.48472,8.10371,4.48472,7.16703C4.48472,6.04585,5.20852,4.59825,6.37227,4.59825C6.76965,4.59825,7.0393,4.76856,7.30895,5.20851L6.869,7.60699C6.35808,8.23144,5.93231,8.4869,5.53493,8.4869Z" fill="#555555" fill-opacity="1"/></g></svg>