<svg xmlns="http://www.w3.org/2000/svg" xmlns:xlink="http://www.w3.org/1999/xlink" fill="none" version="1.1" width="32" height="32" viewBox="0 0 32 32"><defs><clipPath id="master_svg0_39_717"><rect x="0" y="0" width="32" height="32" rx="4"/></clipPath><clipPath id="master_svg1_39_745"><rect x="6" y="6" width="20" height="20" rx="0"/></clipPath></defs><g clip-path="url(#master_svg0_39_717)"><g clip-path="url(#master_svg1_39_745)"><g><path d="M7.85,16Q7.85,12.62416,10.23708,10.23708Q12.62416,7.85,16,7.85Q19.375799999999998,7.85,21.762900000000002,10.23708Q24.15,12.62416,24.15,16Q24.15,19.375799999999998,21.762900000000002,21.762900000000002Q19.375799999999998,24.15,16,24.15L8.5,24.15Q8.4359806,24.15,8.373191,24.1375Q8.310402,24.125,8.251256,24.1005Q8.19211,24.076,8.138879,24.0405Q8.085649,24.0049,8.040381,23.959600000000002Q7.995112,23.9143,7.959545,23.8611Q7.923978,23.8079,7.899478,23.7487Q7.874979,23.6896,7.86249,23.6268Q7.85,23.564,7.85,23.5L7.85,16ZM9.15,16L9.15,23.5L8.5,23.5L8.5,22.85L16,22.85Q18.837400000000002,22.85,20.8437,20.8437Q22.85,18.837400000000002,22.85,16Q22.85,13.16264,20.8437,11.156320000000001Q18.837400000000002,9.15,16,9.15Q13.16264,9.15,11.156320000000001,11.156320000000001Q9.15,13.16264,9.15,16Z" fill="#FFFFFF" fill-opacity="1"/></g></g></g></svg>