<svg xmlns="http://www.w3.org/2000/svg" xmlns:xlink="http://www.w3.org/1999/xlink" fill="none" version="1.1" width="16" height="16" viewBox="0 0 16 16"><defs><clipPath id="master_svg0_1942_10858"><rect x="0" y="0" width="16" height="16" rx="0"/></clipPath></defs><g clip-path="url(#master_svg0_1942_10858)"><g><path d="M2.074115890625,4.1333432031249995L13.925937890625,4.1333432031249995C14.245037890625,4.1333432031249995,14.503737890625,3.874659203125,14.503737890625,3.555561203125C14.503737890625,3.236463203125,14.245037890625,2.977783203125,13.925937890625,2.977783203125L2.074115890625,2.977783203125C1.755017890625,2.977783203125,1.496337890625,3.236463203125,1.496337890625,3.555561203125C1.496337890625,3.874659203125,1.755017890625,4.1333432031249995,2.074115890625,4.1333432031249995Z" fill-rule="evenodd" fill="#262626" fill-opacity="1"/></g><g><path d="M2.074115890625,8.5778012109375L13.925937890625,8.5778012109375C14.245037890625,8.5778012109375,14.503737890625,8.3191172109375,14.503737890625,8.0000192109375C14.503737890625,7.6809212109375,14.245037890625,7.4222412109375,13.925937890625,7.4222412109375L2.074115890625,7.4222412109375C1.755017890625,7.4222412109375,1.496337890625,7.6809212109375,1.496337890625,8.0000192109375C1.496337890625,8.3191172109375,1.755017890625,8.5778012109375,2.074115890625,8.5778012109375Z" fill-rule="evenodd" fill="#262626" fill-opacity="1"/></g><g><path d="M2.074115890625,13.02225921875L13.925937890625,13.02225921875C14.245037890625,13.02225921875,14.503737890625,12.76357521875,14.503737890625,12.44447721875C14.503737890625,12.12537921875,14.245037890625,11.86669921875,13.925937890625,11.86669921875L2.074115890625,11.86669921875C1.755017890625,11.86669921875,1.496337890625,12.12537921875,1.496337890625,12.44447721875C1.496337890625,12.76357521875,1.755017890625,13.02225921875,2.074115890625,13.02225921875Z" fill-rule="evenodd" fill="#262626" fill-opacity="1"/></g></g></svg>