<svg xmlns="http://www.w3.org/2000/svg" xmlns:xlink="http://www.w3.org/1999/xlink" fill="none" version="1.1" width="20" height="20" viewBox="0 0 20 20"><defs><clipPath id="master_svg0_39_745"><rect x="0" y="0" width="20" height="20" rx="0"/></clipPath></defs><g clip-path="url(#master_svg0_39_745)"><g><path d="M1.85,10Q1.85,6.62416,4.23708,4.23708Q6.62416,1.85,10,1.85Q13.3758,1.85,15.7629,4.23708Q18.15,6.62416,18.15,10Q18.15,13.3758,15.7629,15.7629Q13.3758,18.15,10,18.15L2.5,18.15Q2.4359806,18.15,2.373191,18.1375Q2.310402,18.125,2.251256,18.1005Q2.19211,18.076,2.138879,18.0405Q2.085649,18.0049,2.040381,17.959600000000002Q1.995112,17.9143,1.9595449999999999,17.8611Q1.923978,17.8079,1.899478,17.7487Q1.874979,17.6896,1.86249,17.6268Q1.85,17.564,1.85,17.5L1.85,10ZM3.15,10L3.15,17.5L2.5,17.5L2.5,16.85L10,16.85Q12.8374,16.85,14.8437,14.8437Q16.85,12.8374,16.85,10Q16.85,7.16264,14.8437,5.15632Q12.8374,3.15,10,3.15Q7.16264,3.15,5.15632,5.15632Q3.15,7.16264,3.15,10Z" fill="#FFFFFF" fill-opacity="1"/></g></g></svg>