<svg xmlns="http://www.w3.org/2000/svg" xmlns:xlink="http://www.w3.org/1999/xlink" fill="none" version="1.1" width="14" height="14" viewBox="0 0 14 14"><defs><clipPath id="master_svg0_97_1216"><rect x="0" y="0" width="14" height="14" rx="0"/></clipPath></defs><g clip-path="url(#master_svg0_97_1216)"><g><path d="M10.27038609375,5.3115608125Q10.34070609375,5.2412348125,10.37876609375,5.1493498125Q10.41682609375,5.0574640125,10.41682609375,4.9580078125Q10.41682609375,4.9087621125,10.407226093750001,4.8604627125Q10.397616093749999,4.8121628125,10.37876609375,4.7666658125Q10.359926093750001,4.7211688125,10.33256609375,4.6802228125Q10.30520609375,4.6392768125,10.27038609375,4.6044548125Q10.235556093749999,4.5696328125,10.19461609375,4.5422728125Q10.153666093750001,4.5149138125,10.10816609375,4.4960678125Q10.06267609375,4.4772228125,10.01437609375,4.4676148125Q9.96607609375,4.4580078125,9.91682609375,4.4580078125Q9.81737609375,4.4580078125,9.72548609375,4.4960678125Q9.63360609375,4.5341278125,9.56327609375,4.6044548125L9.56308609375,4.6046418125L5.83349609375,8.3342378125L4.43704909375,6.9377878125Q4.36672309375,6.8674578125,4.27483809375,6.8293978125Q4.18295229375,6.7913378125,4.08349609375,6.7913378125Q4.03425039375,6.7913378125,3.98595099375,6.8009478125000005Q3.93765109375,6.8105578125,3.89215409375,6.8293978125Q3.84665709375,6.8482478125,3.80571109375,6.8756078125Q3.76476509375,6.9029678125,3.72994309375,6.9377878125Q3.69512109375,6.9726078125,3.66776109375,7.0135578125Q3.64040209375,7.0544978125,3.6215560937499998,7.0999978125Q3.60271109375,7.1454978125,3.59310309375,7.1937978125Q3.58349609375,7.2420978125,3.58349609375,7.2913378125Q3.58349609375,7.3907978125,3.6215560937499998,7.4826878125Q3.65961609375,7.5745678125,3.72994309375,7.6448978125L3.73013009375,7.6450778125L5.47994609375,9.3948978125Q5.51476609375,9.4297178125,5.5557060937500005,9.4570778125Q5.59665609375,9.484437812500001,5.64215609375,9.5032778125Q5.68765609375,9.522127812499999,5.73594609375,9.531737812500001Q5.78424609375,9.5413378125,5.83349609375,9.5413378125Q5.88274609375,9.5413378125,5.93103609375,9.531737812500001Q5.97933609375,9.522127812499999,6.02483609375,9.5032778125Q6.07033609375,9.484437812500001,6.11127609375,9.4570778125Q6.15222609375,9.4297178125,6.18704609375,9.3948978125L10.27019609375,5.3117488125L10.27038609375,5.3115608125L10.27038609375,5.3115608125Z" fill-rule="evenodd" fill="#555555" fill-opacity="1"/></g><g><path d="M2.52149390625,2.5219821875Q0.66650390625,4.3769721875,0.66650390625,7.0003221875Q0.66650390625,9.6236621875,2.52149390625,11.4786921875Q4.37648390625,13.3336921875,6.99983390625,13.3336921875Q9.62317390625,13.3336921875,11.47820390625,11.4786921875Q13.33320390625,9.6236621875,13.33320390625,7.0003221875Q13.33320390625,4.3769821874999995,11.47820390625,2.5219821875Q9.62317390625,0.6669921875,6.99983390625,0.6669921875Q4.37648390625,0.6669921875,2.52149390625,2.5219821875ZM3.22860390625,10.7715521875Q1.66650390625,9.2094521875,1.66650390625,7.0003221875Q1.66650390625,4.7911821875000005,3.22860390625,3.2290921875Q4.79070390625,1.6669921875,6.99983390625,1.6669921875Q9.20896390625,1.6669921875,10.77106390625,3.2290921875Q12.33320390625,4.7911921875,12.33320390625,7.0003221875Q12.33320390625,9.2094421875,10.77106390625,10.7715521875Q9.20895390625,12.3336921875,6.99983390625,12.3336921875Q4.79070390625,12.3336921875,3.22860390625,10.7715521875Z" fill-rule="evenodd" fill="#555555" fill-opacity="1"/></g></g></svg>