<svg xmlns="http://www.w3.org/2000/svg" xmlns:xlink="http://www.w3.org/1999/xlink" fill="none" version="1.1" width="16" height="16" viewBox="0 0 16 16"><defs><clipPath id="master_svg0_97_0312"><rect x="0" y="0" width="16" height="16" rx="0"/></clipPath></defs><g clip-path="url(#master_svg0_97_0312)"><g><path d="M2,2.733251953125L9.5,2.733251953125Q9.559090000000001,2.733251953125,9.617049999999999,2.744780953125Q9.67501,2.756309953125,9.729610000000001,2.778923953125Q9.7842,2.801538953125,9.83334,2.834369953125Q9.882480000000001,2.867201953125,9.92426,2.908987953125Q9.96605,2.950773953125,9.99888,2.999909953125Q10.03171,3.049044953125,10.05433,3.103641953125Q10.07694,3.158237953125,10.08847,3.216197953125Q10.1,3.274157153125,10.1,3.333251953125Q10.1,3.392346753125,10.08847,3.450305953125Q10.07694,3.508265953125,10.05433,3.562861953125Q10.03171,3.617458953125,9.99888,3.666593953125Q9.96605,3.715729953125,9.92426,3.757515953125Q9.882480000000001,3.799301953125,9.83334,3.832133953125Q9.7842,3.864964953125,9.729610000000001,3.887579953125Q9.67501,3.910193953125,9.617049999999999,3.921722953125Q9.559090000000001,3.933251953125,9.5,3.933251953125L2,3.933251953125Q1.9409052,3.933251953125,1.882946,3.921722953125Q1.824986,3.910193953125,1.77039,3.887579953125Q1.7157930000000001,3.864964953125,1.666658,3.832133953125Q1.6175220000000001,3.799301953125,1.575736,3.757515953125Q1.53395,3.715729953125,1.501118,3.666593953125Q1.4682870000000001,3.617458953125,1.445672,3.562861953125Q1.4230580000000002,3.508265953125,1.411529,3.450305953125Q1.4,3.392346753125,1.4,3.333251953125Q1.4,3.274157153125,1.411529,3.216197953125Q1.4230580000000002,3.158237953125,1.445672,3.103641953125Q1.4682870000000001,3.049044953125,1.501118,2.999909953125Q1.53395,2.950773953125,1.575736,2.908987953125Q1.6175220000000001,2.867201953125,1.666658,2.834369953125Q1.7157930000000001,2.801538953125,1.77039,2.778923953125Q1.824986,2.756309953125,1.882946,2.744780953125Q1.9409052,2.733251953125,2,2.733251953125Z" fill-rule="evenodd" fill="#333333" fill-opacity="1"/></g><g><path d="M2,7.4L9.5,7.4Q9.559090000000001,7.4,9.617049999999999,7.411529Q9.67501,7.423058,9.729610000000001,7.445672Q9.7842,7.468287,9.83334,7.501118Q9.882480000000001,7.53395,9.92426,7.575736Q9.96605,7.617522,9.99888,7.666658Q10.03171,7.715793,10.05433,7.77039Q10.07694,7.824986,10.08847,7.882946Q10.1,7.9409051999999996,10.1,8Q10.1,8.0590948,10.08847,8.117054Q10.07694,8.175014000000001,10.05433,8.22961Q10.03171,8.284207,9.99888,8.333342Q9.96605,8.382478,9.92426,8.424264Q9.882480000000001,8.46605,9.83334,8.498882Q9.7842,8.531713,9.729610000000001,8.554328Q9.67501,8.576942,9.617049999999999,8.588471Q9.559090000000001,8.6,9.5,8.6L2,8.6Q1.9409052,8.6,1.882946,8.588471Q1.824986,8.576942,1.77039,8.554328Q1.7157930000000001,8.531713,1.666658,8.498882Q1.6175220000000001,8.46605,1.575736,8.424264Q1.53395,8.382478,1.501118,8.333342Q1.4682870000000001,8.284207,1.445672,8.22961Q1.4230580000000002,8.175014000000001,1.411529,8.117054Q1.4,8.0590948,1.4,8Q1.4,7.9409051999999996,1.411529,7.882946Q1.4230580000000002,7.824986,1.445672,7.77039Q1.4682870000000001,7.715793,1.501118,7.666658Q1.53395,7.617522,1.575736,7.575736Q1.6175220000000001,7.53395,1.666658,7.501118Q1.7157930000000001,7.468287,1.77039,7.445672Q1.824986,7.423058,1.882946,7.411529Q1.9409052,7.4,2,7.4Z" fill-rule="evenodd" fill="#333333" fill-opacity="1"/></g><g><path d="M2,12.066748046875L9.5,12.066748046875Q9.559090000000001,12.066748046875,9.617049999999999,12.078277046875Q9.67501,12.089806046875,9.729610000000001,12.112420046875Q9.7842,12.135035046875,9.83334,12.167866046875Q9.882480000000001,12.200698046875,9.92426,12.242484046875Q9.96605,12.284270046875,9.99888,12.333406046875Q10.03171,12.382541046875,10.05433,12.437138046875Q10.07694,12.491734046874999,10.08847,12.549694046875Q10.1,12.607653246875,10.1,12.666748046875Q10.1,12.725842846875,10.08847,12.783802046875Q10.07694,12.841762046875001,10.05433,12.896358046875Q10.03171,12.950955046875,9.99888,13.000090046875Q9.96605,13.049226046875,9.92426,13.091012046875Q9.882480000000001,13.132798046875,9.83334,13.165630046875Q9.7842,13.198461046875,9.729610000000001,13.221076046875Q9.67501,13.243690046875,9.617049999999999,13.255219046875Q9.559090000000001,13.266748046875,9.5,13.266748046875L2,13.266748046875Q1.9409052,13.266748046875,1.882946,13.255219046875Q1.824986,13.243690046875,1.77039,13.221076046875Q1.7157930000000001,13.198461046875,1.666658,13.165630046875Q1.6175220000000001,13.132798046875,1.575736,13.091012046875Q1.53395,13.049226046875,1.501118,13.000090046875Q1.4682870000000001,12.950955046875,1.445672,12.896358046875Q1.4230580000000002,12.841762046875001,1.411529,12.783802046875Q1.4,12.725842846875,1.4,12.666748046875Q1.4,12.607653246875,1.411529,12.549694046875Q1.4230580000000002,12.491734046874999,1.445672,12.437138046875Q1.4682870000000001,12.382541046875,1.501118,12.333406046875Q1.53395,12.284270046875,1.575736,12.242484046875Q1.6175220000000001,12.200698046875,1.666658,12.167866046875Q1.7157930000000001,12.135035046875,1.77039,12.112420046875Q1.824986,12.089806046875,1.882946,12.078277046875Q1.9409052,12.066748046875,2,12.066748046875Z" fill-rule="evenodd" fill="#333333" fill-opacity="1"/></g><g transform="matrix(0,1,-1,0,17.82990264892578,-11.169902801513672)"><path d="M22.594492725219727,2.9061449237060546L24.594102725219727,4.905739923706054Q24.635902725219726,4.9475199237060545,24.668702725219724,4.996659923706055Q24.701502725219726,5.045789923706055,24.724102725219726,5.100389923706055Q24.746802725219727,5.154989923706054,24.75830272521973,5.212949923706055Q24.769802725219726,5.270899923706055,24.769802725219726,5.329999923706055Q24.769802725219726,5.389089923706054,24.75830272521973,5.447049923706055Q24.746802725219727,5.505009923706055,24.724102725219726,5.559609923706055Q24.701502725219726,5.6142099237060545,24.668702725219724,5.663339923706054Q24.635902725219726,5.712479923706055,24.594102725219727,5.754259923706055Q24.509702725219725,5.838659923706055,24.399432725219725,5.884329923706055Q24.28917272521973,5.929999923706054,24.169822725219724,5.929999923706054L14.499902725219727,5.929999923706054Q14.440807925219726,5.929999923706054,14.382848725219727,5.918469923706055Q14.324888725219726,5.906939923706055,14.270292725219727,5.884329923706055Q14.215695725219726,5.861709923706055,14.166560725219727,5.8288799237060545Q14.117424725219726,5.796049923706055,14.075638725219726,5.754259923706055Q14.033852725219727,5.712479923706055,14.001020725219727,5.663339923706054Q13.968189725219727,5.6142099237060545,13.945574725219727,5.559609923706055Q13.922960725219726,5.505009923706055,13.911431725219726,5.447049923706055Q13.899902725219727,5.389089923706054,13.899902725219727,5.329999923706055Q13.899902725219727,5.270909923706054,13.911431725219726,5.212949923706055Q13.922960725219726,5.154989923706054,13.945574725219727,5.100389923706055Q13.968189725219727,5.045789923706055,14.001020725219727,4.996659923706055Q14.033852725219727,4.9475199237060545,14.075638725219726,4.905739923706054Q14.117424725219726,4.863949923706055,14.166560725219727,4.831119923706055Q14.215695725219726,4.798289923706054,14.270292725219727,4.7756699237060545Q14.324888725219726,4.753059923706054,14.382848725219727,4.741529923706055Q14.440807925219726,4.729999923706055,14.499902725219727,4.729999923706055L22.721292725219726,4.729999923706055L21.745712725219725,3.7544189237060546L21.745562725219727,3.7542639237060547Q21.66117272521973,3.6698729237060546,21.615492725219728,3.559609923706055Q21.569822725219726,3.4493469237060546,21.569822725219726,3.3299999237060547Q21.569822725219726,3.2709051237060547,21.581352725219727,3.2129459237060547Q21.592882725219727,3.1549859237060547,21.615492725219728,3.1003899237060546Q21.638112725219727,3.045792923706055,21.670942725219724,2.9966579237060547Q21.70377272521973,2.947521923706055,21.745562725219727,2.9057359237060547Q21.787342725219727,2.8639499237060546,21.836482725219724,2.8311179237060546Q21.885612725219726,2.798286923706055,21.940212725219727,2.7756719237060548Q21.994812725219727,2.753057923706055,22.052772725219725,2.7415289237060545Q22.110732725219727,2.7299999237060546,22.169822725219728,2.7299999237060546Q22.28917272521973,2.7299999237060546,22.399432725219725,2.7756719237060548Q22.50969272521973,2.8213439237060545,22.594092725219724,2.9057359237060547L22.594492725219727,2.9061449237060546Z" fill-rule="evenodd" fill="#333333" fill-opacity="1"/></g></g></svg>