<svg xmlns="http://www.w3.org/2000/svg" xmlns:xlink="http://www.w3.org/1999/xlink" fill="none" version="1.1" width="14" height="14" viewBox="0 0 14 14"><defs><clipPath id="master_svg0_97_1308"><rect x="0" y="0" width="14" height="14" rx="0"/></clipPath></defs><g clip-path="url(#master_svg0_97_1308)"><g><path d="M7.00001,6.15149L2.924265,2.075736Q2.839873,1.991345,2.72961,1.945672Q2.619348,1.9,2.500000253138,1.9Q2.4844671,1.9,2.468955,1.900804Q2.357809,1.906562,2.256121,1.9518Q2.154434,1.9970379999999999,2.075736,2.075735Q1.991345,2.160127,1.945672,2.27039Q1.9,2.380652,1.9,2.5Q1.9,2.5155328,1.900804,2.531045Q1.906562,2.642192,1.9518,2.743879Q1.9970379999999999,2.845566,2.075735,2.924264L6.151479999999999,7.00002L2.076268,11.0752L2.075737,11.07574Q1.991345,11.16013,1.945673,11.27039Q1.9,11.38065,1.9,11.5Q1.9,11.51442,1.900693,11.52882Q1.906066,11.64056,1.9513479999999999,11.74286Q1.9966300000000001,11.84516,2.075735,11.92426Q2.160126,12.00866,2.2703889999999998,12.05433Q2.380652,12.1,2.5,12.1Q2.5155313,12.1,2.5310435,12.0992Q2.64219,12.09344,2.743877,12.0482Q2.845565,12.00296,2.924263,11.92426L2.924792,11.92374L7.00001,7.84854L11.07516,11.92369L11.07573,11.92426Q11.16012,12.00866,11.27038,12.05433Q11.38064,12.1,11.49999,12.1Q11.61934,12.1,11.7296,12.05433Q11.83986,12.00866,11.92425,11.92426Q12.00865,11.83987,12.05432,11.72961Q12.09999,11.61935,12.09999,11.5Q12.09999,11.38065,12.05432,11.27039Q12.00865,11.16013,11.92425,11.07574L11.92368,11.07517L7.84854,7.00002L11.924,2.924519L11.92426,2.924262Q12.00865,2.839872,12.05432,2.7296110000000002Q12.09999,2.619351,12.09999,2.50000520318Q12.09999,2.380655,12.05432,2.27039Q12.00865,2.160125,11.92425,2.075734Q11.83986,1.991343,11.7296,1.945671Q11.61934,1.899999,11.49999,1.9Q11.38064,1.9,11.27038,1.945673Q11.16012,1.991345,11.07572,2.075738L11.07547,2.075995L7.00001,6.15149Z" fill-rule="evenodd" fill="#555555" fill-opacity="1"/></g></g></svg>