<svg xmlns="http://www.w3.org/2000/svg" xmlns:xlink="http://www.w3.org/1999/xlink" fill="none" version="1.1" width="12" height="12" viewBox="0 0 12 12"><defs><clipPath id="master_svg0_97_1232"><rect x="0" y="12" width="12" height="12" rx="0"/></clipPath></defs><g transform="matrix(1,0,0,-1,0,24)" clip-path="url(#master_svg0_97_1232)"><g transform="matrix(0,-1,1,0,-16.5,22.5)"><path d="M5.57554,25.92407L5.57574,25.92426Q5.6601300000000005,26.00866,5.77039,26.05433Q5.88065,26.1,6,26.1Q6.11935,26.1,6.22961,26.05433Q6.3398699999999995,26.00866,6.42426,25.92426Q6.50866,25.83987,6.55433,25.72961Q6.6,25.61935,6.6,25.5Q6.6,25.38065,6.55433,25.27039Q6.50866,25.16013,6.42426,25.07574L6.42407,25.07554L3.848528,22.5L6.424110000000001,19.924419L6.42426,19.924264Q6.50866,19.839873,6.55433,19.72961Q6.6,19.619347,6.6,19.5Q6.6,19.380653,6.55433,19.27039Q6.50866,19.160127,6.42426,19.075736Q6.3398699999999995,18.991345,6.22961,18.945672Q6.11935,18.9,6,18.9Q5.88065,18.9,5.77039,18.945672Q5.6601300000000005,18.991345,5.57574,19.075736L5.57558,19.075891L2.575736,22.07574Q2.491345,22.16013,2.445672,22.27039Q2.4,22.38065,2.4,22.5Q2.4,22.61935,2.445672,22.72961Q2.491345,22.83987,2.575736,22.92426L5.57554,25.92407Z" fill-rule="evenodd" fill="#000000" fill-opacity="1"/></g></g></svg>