<svg xmlns="http://www.w3.org/2000/svg" xmlns:xlink="http://www.w3.org/1999/xlink" fill="none" version="1.1" width="14" height="14" viewBox="0 0 14 14"><defs><clipPath id="master_svg0_97_0719"><rect x="0" y="0" width="14" height="14" rx="0"/></clipPath></defs><g clip-path="url(#master_svg0_97_0719)"><g><path d="M9.063839999999999,2.85677L11.14324,4.93619L11.7617,4.3177Q12,4.07942,12,3.74242Q12,3.40542,11.7617,3.1671300000000002L10.8329,2.23829Q10.59459,2,10.25759,2Q9.92059,2,9.68227,2.238304L9.063839999999999,2.85677ZM11.4972,5.99644L12.4688,5.02481Q13,4.49362,13,3.74242Q13,2.99122,12.4688,2.460039L11.54,1.5311877Q11.00879,1,10.25759,1Q9.50639,1,8.97518,1.5311737L8.00338,2.50303L8.00318,2.50324L8.00286,2.5035600000000002L8.002839999999999,2.50358L8.00278,2.50364L1.687698,8.818670000000001Q1.221549,9.28487,1.163552,9.94147L1.00455,11.7414Q0.957032,12.2793,1.338877,12.6612Q1.720737,13.043,2.2586690000000003,12.9955L4.05852,12.8365Q4.71505,12.7785,5.181290000000001,12.3124L11.49638,5.99726L11.49679,5.99685L11.4972,5.99644ZM10.43613,5.6433L8.35674,3.56389L2.394802,9.52578Q2.18569,9.73491,2.1596729999999997,10.02946L2.000671,11.8294Q1.994231,11.9023,2.0459870000000002,11.9541Q2.097735,12.0058,2.170629,11.9994L3.97052,11.8404Q4.26506,11.8144,4.47425,11.6052L10.43613,5.6433Z" fill-rule="evenodd" fill="#555555" fill-opacity="1"/></g></g></svg>