<svg xmlns="http://www.w3.org/2000/svg" xmlns:xlink="http://www.w3.org/1999/xlink" fill="none" version="1.1" width="12" height="12" viewBox="0 0 12 12"><defs><clipPath id="master_svg0_97_1245"><rect x="0" y="12" width="12" height="12" rx="0"/></clipPath></defs><g transform="matrix(1,0,0,-1,0,24)" clip-path="url(#master_svg0_97_1245)"><g transform="matrix(0,1,1,0,-13.5,13.5)"><path d="M5.57554,22.92407L5.57574,22.92426Q5.6601300000000005,23.00866,5.77039,23.05433Q5.88065,23.1,6,23.1Q6.11935,23.1,6.22961,23.05433Q6.3398699999999995,23.00866,6.42426,22.92426Q6.50866,22.83987,6.55433,22.72961Q6.6,22.61935,6.6,22.5Q6.6,22.38065,6.55433,22.27039Q6.50866,22.16013,6.42426,22.07574L6.42407,22.07554L3.848528,19.5L6.424110000000001,16.924419L6.42426,16.924264Q6.50866,16.839873,6.55433,16.72961Q6.6,16.619347,6.6,16.5Q6.6,16.380653,6.55433,16.27039Q6.50866,16.160127,6.42426,16.075736Q6.3398699999999995,15.991345,6.22961,15.945672Q6.11935,15.9,6,15.9Q5.88065,15.9,5.77039,15.945672Q5.6601300000000005,15.991345,5.57574,16.075736L5.57558,16.075891L2.575736,19.07574Q2.491345,19.16013,2.445672,19.27039Q2.4,19.38065,2.4,19.5Q2.4,19.61935,2.445672,19.72961Q2.491345,19.83987,2.575736,19.92426L5.57554,22.92407Z" fill-rule="evenodd" fill="#000000" fill-opacity="1"/></g></g></svg>