<svg data-v-cb91088a="" data-v-3844b174="" width="12" height="12" viewBox="28 10 12 12" version="1.1" xmlns="http://www.w3.org/2000/svg" xmlns:xlink="http://www.w3.org/1999/xlink" xmlns:xhtml="http://www.w3.org/1999/xhtml" preserveAspectRatio="xMinYMin meet" overflow="visible" style="background-color: transparent;"><g transform="translate(28,10)"><svg version="1.1" xmlns="http://www.w3.org/2000/svg" xmlns:xlink="http://www.w3.org/1999/xlink" xmlns:xhtml="http://www.w3.org/1999/xhtml" preserveAspectRatio="xMinYMin meet" overflow="hidden" width="12" height="12" x="0" y="0" viewBox="0 0 12 12"><clipPath id="clippath-artboard-5102"><path d="M 0 0 l 12 0 l 0 12 l -12 0 z" clip-rule="evenodd"/></clipPath><g clip-path="url(#clippath-artboard-5102)"><g style="transform:translate(7.2699549423336975px,6px) rotate(45deg) translate(-3px,-3px);"><path d="M 0 0 L 5 0 C 5.552284749830793 0 6 0.44771525016920655 6 0.9999999999999998 L 6 6" fill="none" stroke="currentColor" stroke-linejoin="miter" stroke-width="1"/></g><g style="transform:translate(4.7300450576663025px,6px) rotate(45deg) translate(-3px,-3px);"><path d="M 0.9999999999999998 0 L 5 0 C 5.552284749830793 0 6 0.44771525016920655 6 0.9999999999999998 L 6 5 C 6 5.552284749830793 5.552284749830793 6 5 6 L 0.9999999999999998 6 C 0.44771525016920655 6 0 5.552284749830793 0 5 L 0 0.9999999999999998 C 0 0.44771525016920655 0.44771525016920655 0 0.9999999999999998 0 Z" fill="none" stroke="currentColor" stroke-linejoin="miter" stroke-width="1"/></g></g></svg></g></svg>