<svg xmlns="http://www.w3.org/2000/svg" xmlns:xlink="http://www.w3.org/1999/xlink" fill="none"
    version="1.1" width="20" height="20" viewBox="0 0 20 20">
    <defs>
        <clipPath id="master_svg0_sa851_8361">
            <rect x="0" y="0" width="20" height="20" rx="0" />
        </clipPath>
    </defs>
    <g clip-path="url(#master_svg0_sa851_8361)">
        <g>
            <ellipse cx="5.333333253860474" cy="14.666676759719849" rx="2.3333332538604736"
                ry="2.3333332538604736" fill-opacity="0" stroke-opacity="1" stroke="#FFFFFF"
                fill="none" stroke-width="1.399999976158142" stroke-linecap="ROUND"
                stroke-linejoin="round" />
        </g>
        <g>
            <ellipse cx="14.666707277297974" cy="5.333333253860474" rx="2.3333332538604736"
                ry="2.3333332538604736" fill-opacity="0" stroke-opacity="1" stroke="#FFFFFF"
                fill="none" stroke-width="1.399999976158142" stroke-linecap="ROUND"
                stroke-linejoin="round" />
        </g>
        <g>
            <path
                d="M7.77662484375,8.09981091796875Q9.68381484375,5.93944091796875,12.35080484375,5.93944091796875Q12.41974484375,5.93944091796875,12.48736484375,5.92599091796875Q12.554984843749999,5.91253991796875,12.61868484375,5.88615691796875Q12.68237484375,5.85977291796875,12.739704843750001,5.82146991796875Q12.79702484375,5.78316591796875,12.84577484375,5.73441591796875Q12.89452484375,5.68566491796875,12.932834843750001,5.62833991796875Q12.97113484375,5.57101491796875,12.99751484375,5.50731891796875Q13.02390484375,5.44362291796875,13.03735484375,5.37600391796875Q13.05080484375,5.30838491796875,13.05080484375,5.23944091796875Q13.05080484375,5.17049691796875,13.03735484375,5.10287791796875Q13.02390484375,5.03525891796875,12.99751484375,4.97156291796875Q12.97113484375,4.90786691796875,12.932834843750001,4.85054191796875Q12.89452484375,4.79321691796875,12.84577484375,4.74446591796875Q12.79702484375,4.69571591796875,12.739704843750001,4.65741191796875Q12.68237484375,4.61910891796875,12.61868484375,4.59272491796875Q12.554984843749999,4.56634191796875,12.48736484375,4.55289091796875Q12.41974484375,4.53944091796875,12.35080484375,4.53944091796875Q9.05225484375,4.53944091796875,6.72708484375,7.17327091796875Q5.73084984375,8.30176091796875,5.17154784375,9.68909091796875Q4.61422184375,11.071520917968751,4.61396584375,12.40142091796875L4.61396584375,12.40265091796875Q4.61396584375,12.47159091796875,4.62741584375,12.539210917968749Q4.64086584375,12.60683091796875,4.66724984375,12.670530917968751Q4.69363384375,12.73422091796875,4.73193684375,12.791550917968749Q4.77023984375,12.84887091796875,4.81899084375,12.89762091796875Q4.86774084375,12.94637091796875,4.92506584375,12.98467091796875Q4.98239084375,13.02298091796875,5.04608684375,13.04936091796875Q5.10978284375,13.075750917968751,5.17740184375,13.08920091796875Q5.24502084375,13.102650917968749,5.31396484375,13.102650917968749Q5.38290884375,13.102650917968749,5.45052784375,13.08920091796875Q5.51814684375,13.075750917968751,5.58184284375,13.04936091796875Q5.64553884375,13.02298091796875,5.70286384375,12.984680917968749Q5.76018884375,12.94637091796875,5.80893984375,12.89762091796875Q5.85768984375,12.84887091796875,5.89599384375,12.791550917968749Q5.93429684375,12.73422091796875,5.96068084375,12.670530917968751Q5.98706384375,12.60683091796875,6.00051484375,12.539210917968749Q6.01396484375,12.47159091796875,6.01396484375,12.40265091796875Q6.01396584375,11.34374091796875,6.47000484375,10.21256091796875Q6.93944484375,9.04813091796875,7.77662484375,8.09981091796875Z"
                fill-rule="evenodd" fill="#FFFFFF" fill-opacity="1" />
        </g>
    </g>
</svg>