<svg xmlns="http://www.w3.org/2000/svg" xmlns:xlink="http://www.w3.org/1999/xlink" fill="none" version="1.1" width="18" height="18" viewBox="0 0 18 18"><defs><clipPath id="master_svg0_922_00842"><rect x="0" y="0" width="18" height="18" rx="0"/></clipPath></defs><g clip-path="url(#master_svg0_922_00842)"><g><g><path d="M15.5124416015625,9.669396904296875L11.1456816015625,5.302601904296875Q11.0472216015625,5.204145904296875,10.9185816015625,5.150860904296875Q10.7899416015625,5.097576904296875,10.6507116015625,5.097576904296875Q10.5114716015625,5.097576904296875,10.3828316015625,5.150860904296875Q10.2541916015625,5.204145904296875,10.1557316015625,5.302602904296875Q10.0572716015625,5.401058904296875,10.0039916015625,5.529698904296875Q9.9507016015625,5.658337904296875,9.9507016015625,5.797576904296875Q9.9507016015625,5.936815904296875,10.0039916015625,6.065454904296875Q10.0572716015625,6.194094904296875,10.1557316015625,6.292551904296875L14.0235416015625,10.160386904296875Q6.4506816015625,17.490176904296874,1.9185886015625,14.352606904296875Q1.7388056015625,14.228136904296875,1.5201428672225,14.228136904296875L1.5131390515625,14.228176904296875Q1.4535514015625,14.228776904296875,1.3949216015625,14.239426904296876Q1.2579296015625,14.264336904296876,1.1408966015625,14.339776904296874Q1.0238636015625,14.415216904296875,0.9446076015625,14.529696904296875Q0.8201416015625,14.709476904296874,0.8201416015625,14.928136904296874Q0.8201416015625,14.954886904296876,0.8221836015625,14.981566904296875Q0.8342536015625,15.139266904296875,0.9129546015625,15.276456904296875Q0.9916546015625,15.413646904296876,1.1216946015625,15.503676904296874Q6.7627716015625,19.409076904296874,15.5124416015625,10.659346904296875Q15.5612416015625,10.610586904296875,15.5995416015625,10.553266904296876Q15.6378416015625,10.495936904296876,15.6642416015625,10.432246904296875Q15.6906416015625,10.368546904296874,15.7040416015625,10.300926904296876Q15.7175416015625,10.233306904296875,15.7175416015625,10.164366904296875Q15.7175416015625,10.095426904296875,15.7040416015625,10.027806904296874Q15.6906416015625,9.960186904296876,15.6642416015625,9.896486904296875Q15.6378416015625,9.832796904296874,15.5995416015625,9.775466904296875Q15.5612416015625,9.718146904296875,15.5124416015625,9.669396904296875Z" fill-rule="evenodd" fill="#FFFFFF" fill-opacity="1"/></g><g><path d="M10.6647516015625,6.74265L12.2320416015625,8.30993Q12.2807416015625,8.35868,12.3381416015625,8.396989999999999Q12.3954416015625,8.43529,12.4591416015625,8.46167Q12.5228416015625,8.48806,12.5904416015625,8.50151Q12.6580416015625,8.51496,12.7270416015625,8.51496Q12.7959416015625,8.51496,12.8635416015625,8.50151Q12.9311416015625,8.48806,12.9948416015625,8.46167Q13.0585416015625,8.43529,13.1159416015625,8.396989999999999Q13.1732416015625,8.35868,13.2219416015625,8.30993L16.9747416015625,4.55722Q17.0234416015625,4.50847,17.061741601562503,4.45115Q17.100041601562502,4.39382,17.126441601562497,4.3301300000000005Q17.1528416015625,4.26643,17.1662416015625,4.19881Q17.179741601562498,4.13119,17.179741601562498,4.062250000000001Q17.179741601562498,3.9933,17.1662416015625,3.92568Q17.1528416015625,3.85806,17.126441601562497,3.79437Q17.100041601562502,3.73067,17.061741601562503,3.67335Q17.0234416015625,3.61602,16.9747416015625,3.5672699999999997L14.9124416015625,1.505025Q14.8637416015625,1.456275,14.8063416015625,1.417971Q14.7490416015625,1.3796680000000001,14.6853416015625,1.353284Q14.6216416015625,1.3269009999999999,14.5540416015625,1.31345Q14.4864416015625,1.3,14.4174416015625,1.3Q14.3485416015625,1.3,14.2809416015625,1.31345Q14.2132416015625,1.3269,14.1496416015625,1.353284Q14.0859416015625,1.3796680000000001,14.0285416015625,1.417971Q13.9712416015625,1.456274,13.9225416015625,1.505024L10.1697816015625,5.2577300000000005L1.0251676015625,14.4023Q0.9267106015625,14.5008,0.8734266015625,14.6294Q0.8201416015625,14.758,0.8201416015625,14.8973Q0.8201416015625,14.9662,0.8335916015625,15.0338Q0.8470426015625,15.1015,0.8734256015625,15.1652Q0.8998096015625,15.2289,0.9381126015625,15.2862Q0.9764166015625,15.3435,1.0251666015625,15.3923Q1.0739176015625,15.441,1.1312426015625001,15.4793Q1.1885676015625,15.5176,1.2522636015625,15.544Q1.3159596015625,15.5704,1.3835786015625,15.5838Q1.4511976015624999,15.5973,1.5201416015625,15.5973Q1.6593796015625,15.5973,1.7880196015625,15.544Q1.9166586015625,15.4907,2.0151156015625,15.3923L10.6647516015625,6.74265ZM11.6547416015625,5.75271L12.7270416015625,6.82501L15.4897416015625,4.062250000000001L14.4174416015625,2.989949L11.6547416015625,5.75271Z" fill-rule="evenodd" fill="#FFFFFF" fill-opacity="1"/></g></g></g></svg>