<svg data-v-06e5fa7c="" xmlns="http://www.w3.org/2000/svg" xmlns:xlink="http://www.w3.org/1999/xlink" fill="none" version="1.1" width="16" height="16" viewBox="0 0 16 16" style="font-size: 16px; transform: rotate(0deg);"><clipPath id="master_svg0_1638_11318"><rect x="0" y="0" width="16" height="16" rx="0"></rect></clipPath><g><g><g><g transform="matrix(0.9999998807907104,0,0,0.9999998807907104,2.213340621892712e-12,2.391575293358983e-8)"><g><path d="M5.97857125330925,25.064114274578095L5.14413105330925,30.988034274578094C5.02968425330925,31.800534274578094,5.66027325330925,32.45043427457809,6.48078625330925,32.45043427457809L8.38654625330925,32.45043427457809L8.38654625330925,36.63163427457809C8.38654625330925,37.18393427457809,8.834256253309249,37.63163427457809,9.38654625330925,37.63163427457809L11.38654625330925,37.63163427457809C11.93882625330925,37.63163427457809,12.38654625330925,37.18393427457809,12.38654625330925,36.63163427457809L12.38654625330925,31.037134274578094L12.38642625330925,19.331320274578093C12.38642625330925,18.924485274578096,12.00145625330925,18.627740374578096,11.60801625330925,18.731306974578093C8.627426253309249,19.515916274578096,6.408476253309249,22.012104274578093,5.97857125330925,25.064114274578095ZM10.88642625330925,20.583604274578093L10.88642625330925,31.026434274578094L6.65353625330925,31.026434274578094L7.46390625330925,25.273334274578094Q7.723136253309249,23.433024274578095,8.95787625330925,22.044014274578096Q9.79337625330925,21.104124274578094,10.88642625330925,20.583604274578093ZM9.88654625330925,32.45043427457809L10.88654625330925,32.45043427457809L10.88654625330925,36.13163427457809L9.88654625330925,36.13163427457809L9.88654625330925,32.45043427457809Z" fill-rule="evenodd" transform="matrix(-0.7071067690849304,-0.7071067690849304,0.7071067690849304,-0.7071067690849304,-4.471716205674548,35.568822693093836)" fill="currentcolor" fill-opacity="1"></path></g></g></g></g></g></svg>