<svg xmlns="http://www.w3.org/2000/svg" xmlns:xlink="http://www.w3.org/1999/xlink" fill="none" version="1.1" width="16" height="16" viewBox="0 0 16 16"><defs><clipPath id="master_svg0_342_5148"><rect x="0" y="0" width="16" height="16" rx="0"/></clipPath></defs><g clip-path="url(#master_svg0_342_5148)"><g><path d="M3.10511715625,5.8392161640625L3.10509515625,5.8390921640625Q3.09600215625,5.7873741640625,3.07806315625,5.7380211640625Q3.06012415625,5.6886691640625,3.03388515625,5.6431831640625Q3.00764615625,5.5976971640625,2.97390415625,5.5574611640625005Q2.94016315625,5.5172241640625,2.89994515625,5.4834601640625Q2.85972715625,5.4496971640625,2.81425515625,5.4234331640625Q2.76878315625,5.3971691640625,2.71944115625,5.3792021640625Q2.67009815625,5.3612371640625,2.61838515625,5.3521151640625Q2.56667195625,5.3429931640625,2.514160405582,5.3429931640625L2.51245229625,5.3429951640625Q2.46096685625,5.3431421640625,2.41025915625,5.3520581640625Q2.35854115625,5.3611511640625,2.30918815625,5.3790901640625Q2.25983615625,5.3970291640625,2.21435015625,5.4232681640625Q2.16886415625,5.4495071640625,2.12862715625,5.4832491640625Q2.08839115625,5.5169911640625,2.05462715625,5.5572081640625Q2.02086415625,5.5974261640625,1.99460015625,5.6428981640625Q1.96833615625,5.6883701640625,1.9503691562499998,5.7377121640625Q1.93240315625,5.7870551640625,1.92328215625,5.8387681640625Q1.91416015625,5.8904815640625,1.91416015625,5.9429931640625L1.91416215625,5.9447010240625Q1.9143091562499999,5.9961864640625,1.92322515625,6.0468941640625L1.9232461562499998,6.0470181640625L3.29119215625,13.8271831640625Q3.41549415625,14.5341531640625,3.9652501562499998,14.9957031640625Q4.515020156249999,15.4572531640625,5.2328301562499995,15.4572531640625L10.76691015625,15.4572531640625Q11.48470015625,15.4572531640625,12.03446015625,14.9956931640625Q12.58426015625,14.5341431640625,12.70846015625,13.827163164062501L14.07636015625,6.0477281640625L14.07646015625,6.0468961640625Q14.08556015625,5.9953401640625,14.08556015625,5.9429932543613L14.08556015625,5.9376332640625Q14.08506015625,5.8854613640625,14.07556015625,5.8341531640625Q14.06616015625,5.7828451640625,14.04796015625,5.7339401640625Q14.02976015625,5.6850351640625,14.00346015625,5.6400021640624995Q13.97706015625,5.5949701640625,13.94336015625,5.5551601640625Q13.90966015625,5.5153511640625,13.86956015625,5.4819611640625Q13.82946015625,5.4485701640625,13.78416015625,5.4226011640625Q13.73896015625,5.3966311640625,13.68986015625,5.3788621640625Q13.64086015625,5.3610931640625,13.58946015625,5.3520581640625Q13.53786015625,5.3429931640625,13.48556015625,5.3429931640625L13.47336015625,5.3431181640625Q13.29076015625,5.3468411640625,13.14116015625,5.4516681640625Q13.04346015625,5.5201701640625,12.97936015625,5.6208581640625Q12.91526015625,5.7215451640625,12.89466015625,5.8390901640625L12.89446015625,5.8399221640625L11.52662015625,13.6194131640625Q11.47799015625,13.896043164062501,11.26287015625,14.0766531640625Q11.04776015625,14.2572431640625,10.76691015625,14.2572431640625L5.2328301562499995,14.2572431640625Q4.95195015625,14.2572431640625,4.73683015625,14.0766431640625Q4.5217001562500005,13.8960331640625,4.47306015625,13.6193831640625L3.10511715625,5.8392161640625Z" fill-rule="evenodd" fill="#333333" fill-opacity="1"/></g><g><path d="M5.68574328125,4.485672265625L1.82861328125,4.485672265625Q1.76951848125,4.485672265625,1.71155928125,4.474142265625Q1.65359928125,4.462612265624999,1.59900328125,4.4399922656249995Q1.5444062812500001,4.417382265625,1.49527128125,4.3845522656250004Q1.4461352812500001,4.351722265625,1.40434928125,4.309932265625Q1.36256328125,4.268152265625,1.32973128125,4.219012265625Q1.2969002812500001,4.169872265625,1.27428528125,4.115282265625Q1.2516712812500002,4.060682265625,1.24014228125,4.002722265625Q1.22861328125,3.944762265625,1.22861328125,3.885672265625Q1.22861328125,3.826572265625,1.24014228125,3.768612265625Q1.2516712812500002,3.710652265625,1.27428528125,3.656062265625Q1.2969002812500001,3.601462265625,1.32973128125,3.552332265625Q1.36256328125,3.503192265625,1.40434928125,3.461402265625Q1.4461352812500001,3.419622265625,1.49527128125,3.386792265625Q1.5444062812500001,3.353952265625,1.59900328125,3.331342265625Q1.65359928125,3.308722265625,1.71155928125,3.297202265625Q1.76951848125,3.285672265625,1.82861328125,3.285672265625L5.08574328125,3.285672265625L5.08574328125,2.514242265625Q5.08574328125,1.697655265625,5.66316328125,1.120238765625Q6.24057328125,0.542822265625,7.05716328125,0.542822265625L8.94287328125,0.542822265625Q9.759483281249999,0.542822265625,10.33689328125,1.120241265625Q10.91429328125,1.697653265625,10.91429328125,2.514242265625L10.91429328125,3.285672265625L14.17141328125,3.285672265625Q14.23051328125,3.285672265625,14.28851328125,3.297202265625Q14.34641328125,3.308722265625,14.40101328125,3.331342265625Q14.45561328125,3.353952265625,14.50481328125,3.386792265625Q14.55391328125,3.419622265625,14.59571328125,3.461402265625Q14.63751328125,3.503192265625,14.67031328125,3.552332265625Q14.70311328125,3.601462265625,14.72571328125,3.656062265625Q14.74841328125,3.710652265625,14.75991328125,3.768612265625Q14.77141328125,3.826572265625,14.77141328125,3.885672265625Q14.77141328125,3.944762265625,14.75991328125,4.002722265625Q14.74841328125,4.060682265625,14.72571328125,4.115282265625Q14.70311328125,4.169872265625,14.67031328125,4.219012265625Q14.63751328125,4.268152265625,14.59571328125,4.309932265625Q14.55391328125,4.351722265625,14.50481328125,4.3845522656250004Q14.45561328125,4.417382265625,14.40101328125,4.440002265625Q14.34641328125,4.462612265624999,14.28851328125,4.474142265625Q14.23051328125,4.485672265625,14.17141328125,4.485672265625L5.68574328125,4.485672265625ZM9.71429328125,3.285672265625L9.71429328125,2.514242265625Q9.71429328125,2.1947022656249997,9.48835328125,1.968764265625Q9.262423281250001,1.742822265625,8.94287328125,1.742822265625L7.05716328125,1.742822265625Q6.73763328125,1.742822265625,6.51168328125,1.968767265625Q6.28574328125,2.194712265625,6.28574328125,2.514242265625L6.28574328125,3.285672265625L9.71429328125,3.285672265625Z" fill-rule="evenodd" fill="#333333" fill-opacity="1"/></g><g><path d="M5.68564453125,6.857177734375Q5.68564453125,6.7980829343749996,5.69717353125,6.740123734375Q5.70870253125,6.682163734375,5.73131653125,6.627567734375Q5.75393153125,6.572970734375,5.78676253125,6.523835734375Q5.81959453125,6.474699734375,5.86138053125,6.432913734375Q5.90316653125,6.391127734375,5.95230253125,6.358295734375Q6.00143753125,6.325464734375,6.05603453125,6.302849734375Q6.11063053125,6.280235734375,6.16859053125,6.268706734375Q6.2265497312499996,6.257177734375,6.28564453125,6.257177734375Q6.3447393312500004,6.257177734375,6.40269853125,6.268706734375Q6.46065853125,6.280235734375,6.51525453125,6.302849734375Q6.56985153125,6.325464734375,6.61898653125,6.358295734375Q6.66812253125,6.391127734375,6.70990853125,6.432913734375Q6.75169453125,6.474699734375,6.78452653125,6.523835734375Q6.81735753125,6.572970734375,6.83997253125,6.627567734375Q6.86258653125,6.682163734375,6.87411553125,6.740123734375Q6.88564453125,6.7980829343749996,6.88564453125,6.857177734375L6.88564453125,11.428607734375Q6.88564453125,11.487697734375,6.87411553125,11.545657734375Q6.86258653125,11.603617734375,6.83997253125,11.658217734375Q6.81735753125,11.712807734375,6.78452653125,11.761947734375Q6.75169453125,11.811087734375,6.70990853125,11.852867734375Q6.66812253125,11.894657734375,6.61898653125,11.927487734375Q6.56985153125,11.960317734375,6.51525453125,11.982937734375Q6.46065853125,12.005547734375,6.40269853125,12.017077734375Q6.3447393312500004,12.028607734375,6.28564453125,12.028607734375Q6.2265497312499996,12.028607734375,6.16859053125,12.017077734375Q6.11063053125,12.005547734375,6.05603453125,11.982937734375Q6.00143753125,11.960317734375,5.95230253125,11.927487734375Q5.90316653125,11.894657734375,5.86138053125,11.852867734375Q5.81959453125,11.811087734375,5.78676253125,11.761947734375Q5.75393153125,11.712807734375,5.73131653125,11.658217734375Q5.70870253125,11.603617734375,5.69717353125,11.545657734375Q5.68564453125,11.487697734375,5.68564453125,11.428607734375L5.68564453125,6.857177734375Z" fill-rule="evenodd" fill="#333333" fill-opacity="1"/></g><g><path d="M9.11435546875,6.857177734375Q9.11435546875,6.7980829343749996,9.12588446875,6.740123734375Q9.13741346875,6.682163734375,9.16002746875,6.627567734375Q9.18264246875,6.572970734375,9.21547346875,6.523835734375Q9.24830546875,6.474699734375,9.29009146875,6.432913734375Q9.33187746875,6.391127734375,9.38101346875,6.358295734375Q9.43014846875,6.325464734375,9.48474546875,6.302849734375Q9.539341468749999,6.280235734375,9.59730146875,6.268706734375Q9.65526066875,6.257177734375,9.71435546875,6.257177734375Q9.77345026875,6.257177734375,9.83140946875,6.268706734375Q9.889369468750001,6.280235734375,9.94396546875,6.302849734375Q9.99856246875,6.325464734375,10.04769746875,6.358295734375Q10.09683346875,6.391127734375,10.13861946875,6.432913734375Q10.18040546875,6.474699734375,10.21323746875,6.523835734375Q10.24606846875,6.572970734375,10.26868346875,6.627567734375Q10.29129746875,6.682163734375,10.30282646875,6.740123734375Q10.31435546875,6.7980829343749996,10.31435546875,6.857177734375L10.31435546875,11.428607734375Q10.31435546875,11.487697734375,10.30282646875,11.545657734375Q10.29129746875,11.603617734375,10.26868346875,11.658217734375Q10.24606846875,11.712807734375,10.21323746875,11.761947734375Q10.18040546875,11.811087734375,10.13861946875,11.852867734375Q10.09683346875,11.894657734375,10.04769746875,11.927487734375Q9.99856246875,11.960317734375,9.94396546875,11.982937734375Q9.889369468750001,12.005547734375,9.83140946875,12.017077734375Q9.77345026875,12.028607734375,9.71435546875,12.028607734375Q9.65526066875,12.028607734375,9.59730146875,12.017077734375Q9.539341468749999,12.005547734375,9.48474546875,11.982937734375Q9.43014846875,11.960317734375,9.38101346875,11.927487734375Q9.33187746875,11.894657734375,9.29009146875,11.852867734375Q9.24830546875,11.811087734375,9.21547346875,11.761947734375Q9.18264246875,11.712807734375,9.16002746875,11.658217734375Q9.13741346875,11.603617734375,9.12588446875,11.545657734375Q9.11435546875,11.487697734375,9.11435546875,11.428607734375L9.11435546875,6.857177734375Z" fill-rule="evenodd" fill="#333333" fill-opacity="1"/></g></g></svg>