<svg xmlns="http://www.w3.org/2000/svg" xmlns:xlink="http://www.w3.org/1999/xlink" fill="none" version="1.1" width="16" height="16" viewBox="0 0 16 16"><defs><clipPath id="master_svg0_53_0349"><rect x="0" y="0" width="16" height="16" rx="0"/></clipPath></defs><g clip-path="url(#master_svg0_53_0349)"><g><path d="M8.375,8.65L12.75,8.65Q12.81402,8.65,12.87681,8.63751Q12.9396,8.625021,12.99874,8.600522Q13.05789,8.576022,13.11112,8.540455Q13.16435,8.504888,13.20962,8.459619Q13.25489,8.414351,13.29045,8.361121Q13.32602,8.30789,13.35052,8.248744Q13.37502,8.189598,13.38751,8.126809Q13.4,8.0640194,13.4,8Q13.4,7.9359806,13.38751,7.873191Q13.37502,7.810402,13.35052,7.751256Q13.32602,7.69211,13.29045,7.638879Q13.25489,7.585649,13.20962,7.540381Q13.16435,7.495112,13.11112,7.459545Q13.05789,7.423978,12.99874,7.399478Q12.9396,7.374979,12.87681,7.36249Q12.81402,7.35,12.75,7.35L4,7.35Q3.9359806,7.35,3.873191,7.36249Q3.810402,7.374979,3.751256,7.399478Q3.69211,7.423978,3.638879,7.459545Q3.585649,7.495112,3.540381,7.540381Q3.4951119999999998,7.585649,3.459545,7.638879Q3.423978,7.69211,3.399478,7.751256Q3.3749789999999997,7.810402,3.36249,7.873191Q3.35,7.9359806,3.35,8Q3.35,8.0640194,3.36249,8.126809Q3.3749789999999997,8.189598,3.399478,8.248744Q3.423978,8.30789,3.459545,8.361121Q3.4951119999999998,8.414351,3.540381,8.459619Q3.585649,8.504888,3.638879,8.540455Q3.69211,8.576022,3.751256,8.600522Q3.810402,8.625021,3.873191,8.63751Q3.9359806,8.65,4,8.65L8.375,8.65Z" fill-rule="evenodd" fill="#333333" fill-opacity="1"/></g></g></svg>