<svg xmlns="http://www.w3.org/2000/svg" xmlns:xlink="http://www.w3.org/1999/xlink" fill="none" version="1.1" width="14" height="14" viewBox="0 0 14 14"><defs><clipPath id="master_svg0_820_8914"><rect x="0" y="0" width="14" height="14" rx="0"/></clipPath></defs><g clip-path="url(#master_svg0_820_8914)"><g><path d="M13.43466875,3.208332061767578Q13.43466875,3.149237261767578,13.42306875,3.091278061767578Q13.41156875,3.033318061767578,13.38896875,2.978722061767578Q13.36636875,2.9241250617675782,13.33346875,2.874990061767578Q13.30066875,2.8258540617675783,13.25886875,2.784068061767578Q13.21706875,2.742282061767578,13.16796875,2.709450061767578Q13.11886875,2.6766190617675782,13.06426875,2.654004061767578Q13.00966875,2.6313900617675783,12.95166875,2.619861061767578Q12.89376875,2.608332061767578,12.83466875,2.608332061767578L4.08463875,2.608332061767578Q3.94492875,2.608332061767578,3.81958875,2.670050061767578Q3.69424875,2.731767061767578,3.60905875,2.842506061767578L0.6923947500000001,6.634172061767578Q0.66234275,6.673242061767578,0.63906975,6.716682061767578Q0.61579675,6.760132061767578,0.59992575,6.806792061767578Q0.58405575,6.8534520617675785,0.57601175,6.902082061767578Q0.56796875,6.950712061767578,0.56796875,7.000002061767578Q0.56796875,7.0492820617675775,0.57601175,7.097912061767579Q0.58405575,7.146542061767578,0.59992575,7.193202061767578Q0.61579675,7.239862061767578,0.63906975,7.283312061767578Q0.66234275,7.326762061767578,0.6923947500000001,7.365822061767578L3.60905875,11.157492061767577Q3.69424875,11.268232061767579,3.81958875,11.329952061767578Q3.94492875,11.391662061767578,4.08463875,11.391662061767578L12.83466875,11.391662061767578Q12.89376875,11.391662061767578,12.95166875,11.380132061767577Q13.00966875,11.368612061767578,13.06426875,11.345992061767578Q13.11886875,11.323372061767579,13.16796875,11.290542061767578Q13.21706875,11.257712061767577,13.25886875,11.215932061767578Q13.30066875,11.17414206176758,13.33346875,11.125002061767578Q13.36636875,11.075872061767578,13.38896875,11.02127206176758Q13.41156875,10.966682061767578,13.42306875,10.908722061767577Q13.43466875,10.850762061767579,13.43466875,10.791662061767578L13.43466875,3.208332061767578ZM12.23466875,3.808332061767578L4.38007875,3.808332061767578L1.9249477499999998,7.000002061767578L4.38007875,10.191662061767577L12.23466875,10.191662061767577L12.23466875,3.808332061767578Z" fill-rule="evenodd" fill="#FFFFFF" fill-opacity="1"/></g><g><path d="M8.61721,8.882397938232423L8.6174,8.882597938232422Q8.701789999999999,8.966987938232421,8.812059999999999,9.012657938232422Q8.92232,9.058337938232421,9.04167,9.058337938232421Q9.161010000000001,9.058337938232421,9.27128,9.012657938232422Q9.381540000000001,8.966987938232421,9.46593,8.882597938232422Q9.55032,8.798207938232423,9.59599,8.687947938232423Q9.64167,8.577677938232423,9.64167,8.458337938232422Q9.64167,8.338987938232421,9.59599,8.22872793823242Q9.55032,8.118457938232421,9.46593,8.034067938232422L9.46573,8.033877938232422L6.54936,5.117499938232422L6.549264,5.117403938232422Q6.464873,5.033012938232422,6.35461,4.987339938232422Q6.244347,4.941667938232422,6.125,4.941667938232422Q6.005653,4.941667938232422,5.89539,4.987339938232422Q5.785127,5.033012938232422,5.700736,5.117403938232422Q5.616345,5.201794938232422,5.570672,5.312057938232422Q5.525,5.422320938232422,5.525,5.541667938232422Q5.525,5.661014938232422,5.570672,5.771277938232422Q5.616345,5.881540938232422,5.700736,5.965931938232422L5.700832,5.966027938232422L8.61721,8.882397938232423Z" fill-rule="evenodd" fill="#FFFFFF" fill-opacity="1"/></g><g><path d="M5.700891,8.033917938232422L5.700736,8.034067938232422Q5.616345,8.118457938232421,5.570672,8.22872793823242Q5.525,8.338987938232421,5.525,8.458337938232422Q5.525,8.577677938232423,5.570672,8.687947938232423Q5.616345,8.798207938232423,5.700736,8.882597938232422Q5.785127,8.966987938232421,5.89539,9.012657938232422Q6.005653,9.058337938232421,6.125,9.058337938232421Q6.244347,9.058337938232421,6.35461,9.012657938232422Q6.464873,8.966987938232421,6.549264,8.882597938232422L6.549419,8.882447938232422L9.46578,5.966086938232422L9.46593,5.965931938232422Q9.55032,5.881540938232422,9.59599,5.771277938232422Q9.64167,5.661014938232422,9.64167,5.541667938232422Q9.64167,5.422320938232422,9.59599,5.312057938232422Q9.55032,5.201794938232422,9.46593,5.117403938232422Q9.381540000000001,5.033012938232422,9.27128,4.987339938232422Q9.161010000000001,4.941667938232422,9.04167,4.941667938232422Q8.92232,4.941667938232422,8.812059999999999,4.987339938232422Q8.701789999999999,5.033012938232422,8.6174,5.117403938232422L8.61725,5.117558938232422L5.700891,8.033917938232422Z" fill-rule="evenodd" fill="#FFFFFF" fill-opacity="1"/></g></g></svg>