<?xml version="1.0" standalone="no"?><!DOCTYPE svg PUBLIC "-//W3C//DTD SVG 1.1//EN" "http://www.w3.org/Graphics/SVG/1.1/DTD/svg11.dtd"><svg t="1689090480355" class="icon" viewBox="0 0 1024 1024" version="1.1" xmlns="http://www.w3.org/2000/svg" p-id="3977" xmlns:xlink="http://www.w3.org/1999/xlink" width="200" height="200"><path d="M761.32352 282.5728a86.74304 86.74304 0 0 1 60.65152 24.75008 83.61984 83.61984 0 0 1 26.09152 59.76064v296.13056a84.0704 84.0704 0 0 1-24.97536 59.97568 86.74304 86.74304 0 0 1-60.65152 24.576h-289.8944a141.81376 141.81376 0 0 1-72.02816-16.2816l-2.4576-2.4576-217.40544-209.41824v-1.55648a14.24384 14.24384 0 0 1 2.23232-2.89792l214.95808-213.62688a94.1056 94.1056 0 0 1 63.54944-18.28864h301.056m0-46.60224H460.50304a138.7008 138.7008 0 0 0-96.55296 32.768L148.992 482.1504a47.27808 47.27808 0 0 0-3.7888 66.89792l3.7888 3.7888 216.29952 209.38752c28.53888 31.88736 105.69728 31.88736 105.69728 31.88736h289.88416A133.79584 133.79584 0 0 0 894.6688 663.43936V367.08352a131.33824 131.33824 0 0 0-38.79936-92.98944A133.79584 133.79584 0 0 0 762.2144 235.52z m-70.46144 163.67616l-82.29888 82.23744-82.2784-82.2784a23.33696 23.33696 0 0 0-33.00352 33.00352l82.2784 81.38752-82.06336 82.2784a23.25504 23.25504 0 0 0 32.768 33.00352l82.2784-82.28864 82.2784 82.72896a23.25504 23.25504 0 0 0 32.768-33.00352l-81.54112-82.67776 81.6128-82.2784a23.10144 23.10144 0 1 0-32.768-32.55296z" p-id="3978" fill="#ffffff"></path></svg>