<svg xmlns="http://www.w3.org/2000/svg" xmlns:xlink="http://www.w3.org/1999/xlink" fill="none" version="1.1" width="20" height="22" viewBox="0 0 20 22"><g style="mix-blend-mode:passthrough"><path d="M8,2C7.73478,2,7.48043,2.10536,7.29289,2.29289C7.10536,2.48043,7,2.73478,7,3C7,3,7,4,7,4C7,4,13,4,13,4C13,4,13,3,13,3C13,2.73478,12.8946,2.48043,12.7071,2.29289C12.5196,2.10536,12.2652,2,12,2C12,2,8,2,8,2C8,2,8,2,8,2ZM15,4C15,4,15,3,15,3C15,2.20435,14.6839,1.44129,14.1213,0.87868C13.5587,0.31607,12.7956,0,12,0C12,0,8,0,8,0C7.20435,0,6.44129,0.31607,5.87868,0.87868C5.31607,1.44129,5,2.20435,5,3C5,3,5,4,5,4C5,4,1,4,1,4C0.447715,4,0,4.44772,0,5C0,5.55228,0.447715,6,1,6C1,6,2,6,2,6C2,6,2,19,2,19C2,19.7957,2.31607,20.5587,2.87868,21.1213C3.44129,21.6839,4.20435,22,5,22C5,22,15,22,15,22C15.7957,22,16.5587,21.6839,17.1213,21.1213C17.6839,20.5587,18,19.7957,18,19C18,19,18,6,18,6C18,6,19,6,19,6C19.5523,6,20,5.55228,20,5C20,4.44772,19.5523,4,19,4C19,4,15,4,15,4C15,4,15,4,15,4ZM4,6C4,6,4,19,4,19C4,19.2652,4.10536,19.5196,4.29289,19.7071C4.48043,19.8946,4.73478,20,5,20C5,20,15,20,15,20C15.2652,20,15.5196,19.8946,15.7071,19.7071C15.8946,19.5196,16,19.2652,16,19C16,19,16,6,16,6C16,6,4,6,4,6C4,6,4,6,4,6ZM8,9C8.55228,9,9,9.44771,9,10C9,10,9,16,9,16C9,16.5523,8.55228,17,8,17C7.44772,17,7,16.5523,7,16C7,16,7,10,7,10C7,9.44771,7.44772,9,8,9C8,9,8,9,8,9ZM11,10C11,9.44771,11.4477,9,12,9C12.5523,9,13,9.44771,13,10C13,10,13,16,13,16C13,16.5523,12.5523,17,12,17C11.4477,17,11,16.5523,11,16C11,16,11,10,11,10C11,10,11,10,11,10Z" fill-rule="evenodd" fill="#000000" fill-opacity="1"/></g></svg>