<svg xmlns="http://www.w3.org/2000/svg" xmlns:xlink="http://www.w3.org/1999/xlink" fill="none" version="1.1" width="18" height="18" viewBox="0 0 18 18"><defs><clipPath id="master_svg0_2245_14279/2245_13444"><rect x="0" y="0" width="18" height="18" rx="0"/></clipPath></defs><g clip-path="url(#master_svg0_2245_14279/2245_13444)"><g><g transform="matrix(0,-1,1,0,-1.272857666015625,20.545318603515625)"><line x1="9.63623046875" y1="10.309088110923767" x2="18.545321464538574" y2="10.309088110923767" fill-opacity="0" stroke-opacity="1" stroke="#FFFFFF" fill="none" stroke-width="1.2000000476837158" stroke-linecap="ROUND" stroke-linejoin="round"/></g><g><path d="M2.6,14.499998134765626L2.6,10.909088134765625Q2.6,10.849993334765625,2.588471,10.792034134765625Q2.576942,10.734074134765624,2.554328,10.679478134765626Q2.531713,10.624881134765625,2.498882,10.575746134765625Q2.46605,10.526610134765624,2.424264,10.484824134765624Q2.382478,10.443038134765626,2.333342,10.410206134765625Q2.284207,10.377375134765625,2.22961,10.354760134765625Q2.175014,10.332146134765624,2.117054,10.320617134765625Q2.0590948,10.309088134765625,2,10.309088134765625Q1.9409052,10.309088134765625,1.882946,10.320617134765625Q1.824986,10.332146134765624,1.77039,10.354760134765625Q1.7157930000000001,10.377375134765625,1.666658,10.410206134765625Q1.6175220000000001,10.443038134765626,1.575736,10.484824134765624Q1.53395,10.526610134765624,1.501118,10.575746134765625Q1.4682870000000001,10.624881134765625,1.445672,10.679478134765626Q1.4230580000000002,10.734074134765624,1.411529,10.792034134765625Q1.4,10.849993334765625,1.4,10.909088134765625L1.4,14.499998134765626Q1.4,15.369848134765626,2.0150758,15.984918134765625Q2.630152,16.599998134765624,3.5,16.599998134765624L14.5,16.599998134765624Q15.3698,16.599998134765624,15.9849,15.984918134765625Q16.6,15.369848134765626,16.6,14.499998134765626L16.6,10.909088134765625Q16.6,10.849993334765625,16.5885,10.792034134765625Q16.576900000000002,10.734074134765624,16.554299999999998,10.679478134765626Q16.5317,10.624881134765625,16.4989,10.575746134765625Q16.466,10.526610134765624,16.424300000000002,10.484824134765624Q16.3825,10.443038134765626,16.3333,10.410206134765625Q16.2842,10.377375134765625,16.229599999999998,10.354760134765625Q16.175,10.332146134765624,16.1171,10.320617134765625Q16.0591,10.309088134765625,16,10.309088134765625Q15.9409,10.309088134765625,15.8829,10.320617134765625Q15.825,10.332146134765624,15.7704,10.354760134765625Q15.7158,10.377375134765625,15.6667,10.410206134765625Q15.6175,10.443038134765626,15.5757,10.484824134765624Q15.5339,10.526610134765624,15.5011,10.575746134765625Q15.4683,10.624881134765625,15.4457,10.679478134765626Q15.4231,10.734074134765624,15.4115,10.792034134765625Q15.4,10.849993334765625,15.4,10.909088134765625L15.4,14.499998134765626Q15.4,14.872788134765624,15.1364,15.136398134765624Q14.8728,15.399998134765625,14.5,15.399998134765625L3.5,15.399998134765625Q3.12721,15.399998134765625,2.863604,15.136398134765624Q2.6,14.872788134765624,2.6,14.499998134765626Z" fill-rule="evenodd" fill="#FFFFFF" fill-opacity="1"/></g><g><path d="M6.242719375,7.303111663085938L6.242623375,7.3030156630859375Q6.158232375,7.218624663085937,6.047969375,7.172951663085938Q5.937706375,7.127279663085938,5.818359375,7.127279663085938Q5.699012375,7.127279663085938,5.588749375,7.172951663085938Q5.478486375,7.218624663085937,5.394095375,7.3030156630859375Q5.309704375,7.387406663085938,5.264031375,7.497669663085937Q5.218359375,7.607932663085937,5.218359375,7.7272796630859375Q5.218359375,7.846626663085938,5.264031375,7.956889663085938Q5.309704375,8.067152663085938,5.394095375,8.151543663085938L5.394191375,8.151639663085938L8.575909375,11.333359663085938Q8.617699375,11.375149663085939,8.666839375,11.407979663085937Q8.715969375,11.440809663085938,8.770569375000001,11.463429663085938Q8.825159375,11.486039663085938,8.883119375,11.497569663085937Q8.941079375000001,11.509099663085937,9.000179375,11.509099663085937Q9.059269375,11.509099663085937,9.117229375,11.497569663085937Q9.175189375,11.486039663085938,9.229789375,11.463429663085938Q9.284379375,11.440809663085938,9.333519375,11.407979663085937Q9.382659375,11.375149663085939,9.424439375,11.333359663085938L12.606099375,8.151698663085938L12.606259375,8.151543663085938Q12.690649375,8.067152663085938,12.736319375,7.956889663085938Q12.781999375,7.846626663085938,12.781999375,7.7272796630859375Q12.781999375,7.607932663085937,12.736319375,7.497669663085937Q12.690649375,7.387406663085938,12.606259375,7.3030156630859375Q12.521869375,7.218624663085937,12.411609375000001,7.172951663085938Q12.301339375000001,7.127279663085938,12.181999375,7.127279663085938Q12.062649375,7.127279663085938,11.952389375,7.172951663085938Q11.842119375,7.218624663085937,11.757729375,7.3030156630859375L11.757579374999999,7.303170663085938L9.000179375,10.060569663085937L6.242719375,7.303111663085938Z" fill-rule="evenodd" fill="#FFFFFF" fill-opacity="1"/></g></g></g></svg>