<svg xmlns="http://www.w3.org/2000/svg" xmlns:xlink="http://www.w3.org/1999/xlink" fill="none" version="1.1" width="20" height="20" viewBox="0 0 20 20"><defs><clipPath id="master_svg0_39_785"><rect x="0" y="0" width="20" height="20" rx="0"/></clipPath></defs><g clip-path="url(#master_svg0_39_785)"><g><path d="M12.5,2.5L2.5,2.5L2.5,12.5L7.5,12.5L7.5,17.5L17.5,17.5L17.5,7.5L12.5,7.5L12.5,2.5ZM12.5,7.5L7.5,7.5L7.5,12.5L12.5,12.5L12.5,7.5Z" fill-rule="evenodd" fill="#D8D8D8" fill-opacity="1"/></g><g><path d="M11.9,8L11.9,8.75Q11.9,8.80909,11.911529999999999,8.86705Q11.92306,8.92501,11.94567,8.979610000000001Q11.96829,9.03421,12.00112,9.08334Q12.03395,9.13248,12.07574,9.17426Q12.117519999999999,9.21605,12.16666,9.24888Q12.21579,9.28171,12.270389999999999,9.30433Q12.32499,9.32694,12.382950000000001,9.338470000000001Q12.440909999999999,9.35,12.5,9.35Q12.559090000000001,9.35,12.617049999999999,9.338470000000001Q12.67501,9.32694,12.729610000000001,9.30433Q12.78421,9.28171,12.83334,9.24888Q12.882480000000001,9.21605,12.92426,9.17426Q12.96605,9.13248,12.99888,9.08334Q13.03171,9.03421,13.05433,8.979610000000001Q13.07694,8.92501,13.088470000000001,8.86705Q13.1,8.80909,13.1,8.75L13.1,8.1L16.9,8.1L16.9,16.9L8.1,16.9L8.1,13.1L8.75,13.1Q8.80909,13.1,8.86705,13.088470000000001Q8.92501,13.07694,8.979610000000001,13.05433Q9.03421,13.03171,9.08334,12.99888Q9.13248,12.96605,9.17426,12.92426Q9.21605,12.882480000000001,9.24888,12.83334Q9.28171,12.78421,9.30433,12.729610000000001Q9.32694,12.67501,9.338470000000001,12.617049999999999Q9.35,12.559090000000001,9.35,12.5Q9.35,12.440909999999999,9.338470000000001,12.382950000000001Q9.32694,12.32499,9.30433,12.270389999999999Q9.28171,12.21579,9.24888,12.16666Q9.21605,12.117519999999999,9.17426,12.07574Q9.13248,12.03395,9.08334,12.00112Q9.03421,11.96829,8.979610000000001,11.94567Q8.92501,11.92306,8.86705,11.911529999999999Q8.80909,11.9,8.75,11.9L8,11.9Q7.5443674,11.9,7.22219,12.22217Q6.9,12.54435,6.9,13L6.9,17Q6.9,17.45566,7.22219,17.7778Q7.5443682,18.1,8,18.1L17,18.1Q17.45565,18.1,17.7778,17.7778Q18.1,17.45565,18.1,17L18.1,8Q18.1,7.5443683,17.7778,7.22219Q17.45566,6.9,17,6.9L13,6.9Q12.54435,6.9,12.22217,7.22219Q11.9,7.5443675,11.9,8Z" fill-rule="evenodd" fill="#FFFFFF" fill-opacity="1"/></g><g><path d="M11.9,11.25Q11.9,11.1909052,11.911529,11.132946Q11.923058,11.074985999999999,11.945672,11.02039Q11.968287,10.965793,12.001118,10.916658Q12.033949,10.867522,12.075736,10.825736Q12.117522,10.78395,12.166658,10.751118Q12.215793,10.718287,12.270389999999999,10.695672Q12.32499,10.673058,12.38295,10.661529Q12.44091,10.65,12.5,10.65Q12.55909,10.65,12.61705,10.661529Q12.67501,10.673058,12.729610000000001,10.695672Q12.78421,10.718287,12.83334,10.751118Q12.88248,10.78395,12.92426,10.825736Q12.96605,10.867522,12.99888,10.916658Q13.03171,10.965793,13.05433,11.02039Q13.07694,11.074985999999999,13.088470000000001,11.132946Q13.1,11.1909052,13.1,11.25L13.1,12Q13.1,12.45565,12.77783,12.77783Q12.45565,13.1,12,13.1L11.25,13.1Q11.1909052,13.1,11.132946,13.088470000000001Q11.074985999999999,13.07694,11.02039,13.05433Q10.965793,13.03171,10.916658,12.99888Q10.867522,12.96605,10.825736,12.92426Q10.78395,12.88248,10.751118,12.83334Q10.718287,12.78421,10.695672,12.729610000000001Q10.673058,12.67501,10.661529,12.61705Q10.65,12.55909,10.65,12.5Q10.65,12.44091,10.661529,12.38295Q10.673058,12.32499,10.695672,12.270389999999999Q10.718287,12.215793,10.751118,12.166658Q10.78395,12.117522,10.825736,12.075736Q10.867522,12.033949,10.916658,12.001118Q10.965793,11.968287,11.02039,11.945672Q11.074985999999999,11.923058,11.132946,11.911529Q11.1909052,11.9,11.25,11.9L11.9,11.9L11.9,11.25Z" fill-rule="evenodd" fill="#FFFFFF" fill-opacity="1"/></g><g><path d="M11.9,6.9L11.25,6.9Q11.1909,6.9,11.13295,6.91153Q11.07499,6.92306,11.02039,6.94567Q10.96579,6.96829,10.91666,7.00112Q10.86752,7.03395,10.82574,7.07574Q10.78395,7.11752,10.75112,7.16666Q10.71829,7.21579,10.69567,7.27039Q10.67306,7.32499,10.66153,7.38295Q10.65,7.44091,10.65,7.5Q10.65,7.55909,10.66153,7.61705Q10.67306,7.67501,10.69567,7.72961Q10.71829,7.78421,10.75112,7.83334Q10.78395,7.88248,10.82574,7.92426Q10.86752,7.96605,10.91666,7.99888Q10.96579,8.03171,11.02039,8.05433Q11.07499,8.07694,11.13295,8.088470000000001Q11.1909,8.1,11.25,8.1L12,8.1Q12.45566,8.1,12.7778,7.77781Q13.1,7.45563,13.1,7L13.1,3Q13.1,2.5443681,12.7778,2.22219Q12.45566,1.9,12,1.9L3,1.9Q2.5443655,1.9,2.2221830000000002,2.2221830000000002Q1.9,2.5443656,1.9,3L1.9,12Q1.9,12.45566,2.22219,12.7778Q2.5443681,13.1,3,13.1L7,13.1Q7.45563,13.1,7.77781,12.7778Q8.1,12.45566,8.1,12L8.1,11.25Q8.1,11.1909,8.088470000000001,11.13295Q8.07694,11.07499,8.05433,11.02039Q8.03171,10.96579,7.99888,10.91666Q7.96605,10.86752,7.92426,10.82574Q7.88248,10.78395,7.83334,10.75112Q7.78421,10.71829,7.72961,10.69567Q7.67501,10.67306,7.61705,10.66153Q7.55909,10.65,7.5,10.65Q7.44091,10.65,7.38295,10.66153Q7.32499,10.67306,7.27039,10.69567Q7.21579,10.71829,7.16666,10.75112Q7.11752,10.78395,7.07574,10.82574Q7.03395,10.86752,7.00112,10.91666Q6.96829,10.96579,6.94567,11.02039Q6.92306,11.07499,6.91153,11.13295Q6.9,11.1909,6.9,11.25L6.9,11.9L3.1,11.9L3.1,3.1L11.9,3.1L11.9,6.9Z" fill-rule="evenodd" fill="#FFFFFF" fill-opacity="1"/></g><g><path d="M8.1,8.1L8.75,8.1Q8.80909,8.1,8.86705,8.088471Q8.92501,8.076942,8.979610000000001,8.054328Q9.03421,8.031713,9.08334,7.998882Q9.13248,7.96605,9.17426,7.924264Q9.21605,7.882478,9.24888,7.833342Q9.28171,7.784207,9.30433,7.72961Q9.32694,7.675014,9.338470000000001,7.617054Q9.35,7.5590948000000004,9.35,7.5Q9.35,7.4409051999999996,9.338470000000001,7.382946Q9.32694,7.324986,9.30433,7.27039Q9.28171,7.215793,9.24888,7.166658Q9.21605,7.117522,9.17426,7.075736Q9.13248,7.03395,9.08334,7.001118Q9.03421,6.968287,8.979610000000001,6.945672Q8.92501,6.923058,8.86705,6.911529Q8.80909,6.9,8.75,6.9L8,6.9Q7.5443655,6.9,7.222183,7.222183Q6.9,7.5443656,6.9,8L6.9,8.75Q6.9,8.80909,6.911529,8.86705Q6.923058,8.92501,6.945672,8.979610000000001Q6.968287,9.03421,7.001118,9.08334Q7.03395,9.13248,7.075736,9.17426Q7.117522,9.21605,7.166658,9.24888Q7.215793,9.28171,7.27039,9.30433Q7.324986,9.32694,7.382946,9.338470000000001Q7.4409051999999996,9.35,7.5,9.35Q7.5590948000000004,9.35,7.617054,9.338470000000001Q7.675014,9.32694,7.72961,9.30433Q7.784207,9.28171,7.833342,9.24888Q7.882478,9.21605,7.924264,9.17426Q7.96605,9.13248,7.998882,9.08334Q8.031713,9.03421,8.054328,8.979610000000001Q8.076942,8.92501,8.088471,8.86705Q8.1,8.80909,8.1,8.75L8.1,8.1Z" fill-rule="evenodd" fill="#FFFFFF" fill-opacity="1"/></g></g></svg>