<svg xmlns="http://www.w3.org/2000/svg" xmlns:xlink="http://www.w3.org/1999/xlink" fill="none" version="1.1" width="16" height="16" viewBox="0 0 16 16"><defs><clipPath id="master_svg0_737_8665"><rect x="0" y="0" width="16" height="16" rx="0"/></clipPath></defs><g clip-path="url(#master_svg0_737_8665)"><g transform="matrix(-1,0,0,1,29.1455078125,0)"><path d="M19.52999390625,7.319499Q19.64538390625,7.180589,19.64538390625,7Q19.64538390625,6.9507543,19.63577390625,6.9024549Q19.62617390625,6.854155,19.607323906250002,6.808658Q19.588483906249998,6.763161,19.56112390625,6.722215Q19.53376390625,6.681269,19.49893390625,6.646447Q19.46411390625,6.611625,19.42317390625,6.584265Q19.38222390625,6.556906,19.33672390625,6.53806Q19.29123390625,6.519215,19.242933906250002,6.509607Q19.19463390625,6.5,19.14538390625,6.5Q19.03389390625,6.5,18.93295390625,6.547369Q18.83202390625,6.5947379999999995,18.76078390625,6.680501L14.18822590625,12.1848L14.18814990625,12.184899999999999Q14.07275390625,12.32381,14.07275390625,12.50439Q14.07275390625,12.55364,14.08236090625,12.601939999999999Q14.091968906249999,12.65024,14.11081390625,12.69574Q14.12965990625,12.74123,14.15701890625,12.78218Q14.18437890625,12.823129999999999,14.21920090625,12.857949999999999Q14.25402290625,12.892769999999999,14.29496890625,12.92013Q14.33591490625,12.94749,14.38141190625,12.96633Q14.42690890625,12.98518,14.47520880625,12.99479Q14.52350820625,13.00439,14.57275390625,13.00439Q14.68424890625,13.00439,14.78518090625,12.95703Q14.88611290625,12.909659999999999,14.95735790625,12.823889999999999L14.95743290625,12.8238L19.52999390625,7.3195L19.52999390625,7.319499Z" fill-rule="evenodd" fill="#BFBFBF" fill-opacity="1"/></g><g transform="matrix(-1,0,0,1,25.32760238647461,0)"><path d="M15.712081193237305,7.3195Q15.827481193237304,7.180589,15.827481193237304,7Q15.827481193237304,6.9507543,15.817871193237306,6.9024549Q15.808261193237305,6.854155,15.789421193237304,6.808658Q15.770571193237306,6.763161,15.743211193237304,6.722215Q15.715851193237304,6.681269,15.681031193237304,6.646447Q15.646211193237304,6.611625,15.605261193237304,6.584265Q15.564321193237305,6.556906,15.518821193237304,6.53806Q15.473321193237304,6.519215,15.425021193237304,6.509607Q15.376721193237305,6.5,15.327481193237304,6.5Q15.215981193237305,6.5,15.115051193237305,6.547369Q15.014121193237305,6.5947379999999995,14.942881193237305,6.6805L14.942791193237305,6.680603L12.279273193237305,9.88687L12.279197193237305,9.88696Q12.163801193237305,10.02587,12.163801193237305,10.20646Q12.163801193237305,10.255700000000001,12.173408193237305,10.304Q12.183016193237304,10.3523,12.201861193237304,10.3978Q12.220707193237304,10.443290000000001,12.248066193237305,10.48424Q12.275426193237305,10.52519,12.310248193237305,10.56001Q12.345070193237305,10.59483,12.386016193237305,10.62219Q12.426962193237305,10.64955,12.472459193237304,10.6684Q12.517956193237305,10.68724,12.566256093237305,10.69685Q12.614555493237305,10.70646,12.663801193237305,10.70646Q12.775296193237304,10.70646,12.876228193237305,10.659089999999999Q12.977160193237305,10.61172,13.048405193237304,10.52596L13.048480193237305,10.52586L15.712001193237304,7.319602L15.712081193237305,7.3195Z" fill-rule="evenodd" fill="#141414" fill-opacity="1"/></g><g><path d="M6.3651014868927005,7.564755986968994L6.3655614868927,7.564607986968994Q6.4602514868927,7.5341609869689945,6.5360714868927,7.469797986968994Q6.6118914868927,7.405435986968994,6.6573114868927,7.316956986968994Q6.7125014868927,7.209454986968995,6.7125014868927,7.0886155475889945L6.7124214868927,7.079710956968994Q6.711101486892701,7.005861186968994,6.6884914868927,6.935545986968994Q6.6641914868927,6.859970986968994,6.6176714868927,6.795640986968994Q6.5711614868927,6.731309986968994,6.5070014868927,6.684550986968994Q6.4428514868927005,6.6377919869689945,6.3673714868927,6.613202986968994Q6.2918814868927,6.588613986968994,6.2125014868927,6.588613986968994L6.2084814868927,6.588629986968995Q6.1321214868927,6.589243986968994,6.0594314868927,6.612619986968994L6.0593214868927,6.612652986968994Q4.181091486892701,7.216681986968994,2.9390474868927003,8.801053986968995Q1.6826204868927002,10.403783986968994,1.5214214868927,12.453163986968995Q1.5198814868927002,12.472733986968993,1.5198814868927002,12.492363986968993Q1.5198814868927002,12.518513986968994,1.5226084868927001,12.544513986968994Q1.5271434868927,12.587753986968995,1.5390734868927,12.629563986968993Q1.5510034868927,12.671373986968995,1.5699714868927002,12.710493986968995Q1.5889394868927003,12.749623986968995,1.6143754868927003,12.784883986968994Q1.6398114868927003,12.820143986968993,1.6709524868927002,12.850483986968994Q1.7020934868927002,12.880823986968995,1.7380034868927001,12.905333986968994Q1.7739144868927001,12.929853986968993,1.8135164868927003,12.947793986968994Q1.8531184868927002,12.965733986968994,1.8952244868927002,12.976573986968994Q1.9373293868927002,12.987413986968994,1.9806737868927002,12.990823986968994Q2.0002473868927,12.992363986968993,2.0198814868927,12.992363986968993L2.0288904068927,12.992283986968994Q2.2082324868927,12.989053986968994,2.3446214868927,12.872553986968995Q2.4202464868927,12.807963986968995,2.4653944868927002,12.719343986968994Q2.5105424868927004,12.630723986968995,2.5183414868927003,12.531573986968993Q2.6558684868927003,10.783153986968994,3.7260514868927004,9.418003986968994Q4.7788814868927005,8.074992986968994,6.3651014868927005,7.564755986968994Z" fill-rule="evenodd" fill="#BFBFBF" fill-opacity="1"/></g><g><ellipse cx="8" cy="6" rx="2" ry="2" fill-opacity="0" stroke-opacity="1" stroke="#141414" fill="none" stroke-width="1" stroke-linecap="ROUND" stroke-linejoin="round"/></g><g><path d="M6.0003681640625,5.484375L1.7086181640625,5.484375Q1.6593724640625,5.484375,1.6110730640625,5.493982Q1.5627731640625,5.50359,1.5172761640624999,5.522435Q1.4717791640625,5.541281,1.4308331640625,5.56864Q1.3898871640625,5.596,1.3550651640625,5.630822Q1.3202431640625,5.665644,1.2928831640625,5.70659Q1.2655241640625001,5.747536,1.2466781640625,5.793033Q1.2278331640625,5.83853,1.2182251640625,5.8868299Q1.2086181640625,5.9351293,1.2086181640625,5.984375Q1.2086181640625,6.0336207,1.2182251640625,6.0819201Q1.2278331640625,6.13022,1.2466781640625,6.175717Q1.2655241640625001,6.221214,1.2928831640625,6.26216Q1.3202431640625,6.303106,1.3550651640625,6.337928Q1.3898871640625,6.37275,1.4308331640625,6.40011Q1.4717791640625,6.427469,1.5172761640624999,6.446315Q1.5627731640625,6.46516,1.6110730640625,6.474768Q1.6593724640625,6.484375,1.7086181640625,6.484375L6.0003681640625,6.484375Q6.0496081640625,6.484375,6.0979081640625,6.474768Q6.1462081640625,6.46516,6.1917081640625,6.446315Q6.2372081640625,6.427469,6.2781481640625,6.40011Q6.3190981640625,6.37275,6.3539181640625,6.337928Q6.3887381640625,6.303106,6.4160981640625,6.26216Q6.4434581640625,6.221214,6.4623081640625,6.175717Q6.4811481640625,6.13022,6.4907581640625,6.0819201Q6.5003681640625,6.0336207,6.5003681640625,5.984375Q6.5003681640625,5.9351293,6.4907581640625,5.8868299Q6.4811481640625,5.83853,6.4623081640625,5.793033Q6.4434581640625,5.747536,6.4160981640625,5.70659Q6.3887381640625,5.665644,6.3539181640625,5.630822Q6.3190981640625,5.596,6.2781481640625,5.56864Q6.2372081640625,5.541281,6.1917081640625,5.522435Q6.1462081640625,5.50359,6.0979081640625,5.493982Q6.0496081640625,5.484375,6.0003681640625,5.484375Z" fill-rule="evenodd" fill="#141414" fill-opacity="1"/></g><g><rect x="1" y="5" width="2" height="2" rx="0.5" fill="#141414" fill-opacity="1"/></g><g transform="matrix(-1,0,0,1,27.32763671875,0)"><rect x="13.663818359375" y="9.20654296875" width="2" height="2" rx="0.5" fill="#141414" fill-opacity="1"/></g></g></svg>