<svg xmlns="http://www.w3.org/2000/svg" xmlns:xlink="http://www.w3.org/1999/xlink" fill="none" version="1.1" width="16" height="16" viewBox="0 0 16 16"><defs><clipPath id="master_svg0_517_01279"><rect x="0" y="16" width="16" height="16" rx="0"/></clipPath></defs><g transform="matrix(1,0,0,-1,0,32)" clip-path="url(#master_svg0_517_01279)"><g transform="matrix(0,1,1,0,-17.9996337890625,17.9996337890625)"><path d="M3.575736,26.4238937890625L7.57574,30.4238937890625Q7.6601300000000005,30.5082937890625,7.77039,30.5539637890625Q7.88065,30.5996337890625,8,30.5996337890625Q8.11935,30.5996337890625,8.229610000000001,30.5539637890625Q8.339870000000001,30.5082937890625,8.42426,30.4238937890625Q8.508659999999999,30.339503789062498,8.55433,30.2292437890625Q8.6,30.1189837890625,8.6,29.9996337890625Q8.6,29.8802837890625,8.55433,29.7700237890625Q8.508659999999999,29.6597637890625,8.42426,29.5753737890625L4.848528,25.9996337890625L8.424109999999999,22.4240527890625L8.42426,22.4238977890625Q8.508659999999999,22.3395067890625,8.55433,22.2292437890625Q8.6,22.1189807890625,8.6,21.9996337890625Q8.6,21.8802867890625,8.55433,21.7700237890625Q8.508659999999999,21.6597607890625,8.42426,21.5753697890625Q8.339870000000001,21.4909787890625,8.229610000000001,21.4453057890625Q8.11935,21.3996337890625,8,21.3996337890625Q7.88065,21.3996337890625,7.77039,21.4453057890625Q7.6601300000000005,21.4909787890625,7.57574,21.5753697890625L7.57558,21.5755247890625L3.575736,25.5753737890625Q3.491345,25.6597637890625,3.445672,25.7700237890625Q3.4,25.8802837890625,3.4,25.9996337890625Q3.4,26.1189837890625,3.445672,26.2292437890625Q3.491345,26.3395037890625,3.575736,26.4238937890625Z" fill-rule="evenodd" fill="#333333" fill-opacity="1"/></g></g></svg>