<svg xmlns="http://www.w3.org/2000/svg" xmlns:xlink="http://www.w3.org/1999/xlink" version="1.1" width="12"
     height="12" viewBox="0 0 12 12">
    <defs>
        <clipPath id="master_svg0_922_00946">
            <rect x="0" y="12" width="12" height="12" rx="0"/>
        </clipPath>
    </defs>
    <g transform="matrix(1,0,0,-1,0,24)" clip-path="url(#master_svg0_922_00946)">
        <g transform="matrix(0,1,1,0,-13.499755859375,13.499755859375)">
            <path d="M5.57554,22.923825859375L5.57574,22.924015859375Q5.6601300000000005,23.008415859375,5.77039,23.054085859375Q5.88065,23.099755859375,6,23.099755859375Q6.11935,23.099755859375,6.22961,23.054085859375Q6.3398699999999995,23.008415859375,6.42426,22.924015859375Q6.50866,22.839625859375,6.55433,22.729365859375Q6.6,22.619105859375,6.6,22.499755859375Q6.6,22.380405859375,6.55433,22.270145859375Q6.50866,22.159885859375,6.42426,22.075495859375L6.42407,22.075295859375L3.848528,19.499755859375L6.424110000000001,16.924174859375L6.42426,16.924019859375Q6.50866,16.839628859375,6.55433,16.729365859375Q6.6,16.619102859375,6.6,16.499755859375Q6.6,16.380408859375,6.55433,16.270145859375Q6.50866,16.159882859375,6.42426,16.075491859375Q6.3398699999999995,15.991100859375,6.22961,15.945427859375Q6.11935,15.899755859375,6,15.899755859375Q5.88065,15.899755859375,5.77039,15.945427859375Q5.6601300000000005,15.991100859375,5.57574,16.075491859375L5.57558,16.075646859375L2.575736,19.075495859375Q2.491345,19.159885859375,2.445672,19.270145859375Q2.4,19.380405859375,2.4,19.499755859375Q2.4,19.619105859375,2.445672,19.729365859375Q2.491345,19.839625859375,2.575736,19.924015859375L5.57554,22.923825859375Z"
                  fill-rule="evenodd" fill="inherit" fill-opacity="1"/>
        </g>
    </g>
</svg>