<svg xmlns="http://www.w3.org/2000/svg" xmlns:xlink="http://www.w3.org/1999/xlink" fill="none" version="1.1" width="32" height="32" viewBox="0 0 32 32"><defs><clipPath id="master_svg0_39_447"><rect x="0" y="0" width="32" height="32" rx="0"/></clipPath><clipPath id="master_svg1_39_671"><rect x="6" y="6" width="20" height="20" rx="0"/></clipPath><clipPath id="master_svg2_39_671/39_541"><rect x="6" y="6" width="20" height="20" rx="0"/></clipPath></defs><g clip-path="url(#master_svg0_39_447)"><g clip-path="url(#master_svg1_39_671)"><g clip-path="url(#master_svg2_39_671/39_541)"><g><path d="M23.1022,12.769120000000001L10.12973,7.500796Q9.00356,7.043448,8.0724491,7.824744Q7.141332,8.606041,7.396178,9.79451L10.33181,23.4849Q10.47581,24.1564,10.97881,24.5903Q11.44188,24.9898,12.060870000000001,25.0654Q12.67985,25.1411,13.22549,24.8649Q13.818190000000001,24.5648,14.11969,23.947699999999998L16.872680000000003,18.3125L22.9003,16.57977Q23.5604,16.39002,23.9589,15.858450000000001Q24.3256,15.36907,24.3586,14.74635Q24.3916,14.12364,24.0786,13.59824Q23.738599999999998,13.027560000000001,23.1022,12.769120000000001ZM8.908071,8.820603Q9.2396,8.542418,9.64058,8.705259999999999L22.6131,13.97358Q23.0875,14.16627,23.0604,14.677579999999999Q23.0334,15.18889,22.5412,15.33037L15.95824,17.22268L12.95163,23.3771Q12.72684,23.8372,12.21854,23.775Q11.71027,23.712899999999998,11.60291,23.2123L8.667283,9.52195Q8.576544,9.09879,8.908071,8.820603Z" fill-rule="evenodd" fill="#FFFFFF" fill-opacity="1"/></g></g></g></g></svg>