<svg xmlns="http://www.w3.org/2000/svg" xmlns:xlink="http://www.w3.org/1999/xlink" fill="none" version="1.1" width="20" height="20" viewBox="0 0 20 20"><defs><clipPath id="master_svg0_39_747/39_541"><rect x="0" y="0" width="20" height="20" rx="0"/></clipPath></defs><g clip-path="url(#master_svg0_39_747/39_541)"><g><path d="M17.1022,6.76912L4.12973,1.500796Q3.0035600000000002,1.0434480000000002,2.0724491,1.824744Q1.141332,2.6060410000000003,1.396178,3.79451L4.33181,17.4849Q4.47581,18.1564,4.97881,18.5903Q5.441879999999999,18.9898,6.06087,19.0654Q6.67985,19.1411,7.22549,18.8649Q7.81819,18.5648,8.11969,17.947699999999998L10.87268,12.3125L16.9003,10.57977Q17.5604,10.39002,17.9589,9.858450000000001Q18.3256,9.36907,18.3586,8.74635Q18.3916,8.12364,18.0786,7.59824Q17.738599999999998,7.02756,17.1022,6.76912ZM2.908071,2.820603Q3.2396000000000003,2.542418,3.64058,2.70526L16.6131,7.97358Q17.0875,8.16627,17.0604,8.677579999999999Q17.0334,9.18889,16.5412,9.33037L9.95824,11.22268L6.95163,17.3771Q6.72684,17.8372,6.21854,17.775Q5.7102699999999995,17.712899999999998,5.60291,17.2123L2.667283,3.52195Q2.576544,3.09879,2.908071,2.820603Z" fill-rule="evenodd" fill="#FFFFFF" fill-opacity="1"/></g></g></svg>