<svg xmlns="http://www.w3.org/2000/svg" xmlns:xlink="http://www.w3.org/1999/xlink" fill="none" version="1.1" width="12.200000047683716" height="12.20003342628479" viewBox="0 0 12.200000047683716 12.20003342628479"><g><path d="M8.305260023841857,1.956770023841858L10.243240023841858,3.894770023841858L10.791000023841859,3.3469900238418577Q11.000000023841858,3.1380000238418577,11.000000023841858,2.842420023841858Q11.000000023841858,2.546840023841858,10.791000023841859,2.337840023841858L9.862190023841858,1.409000023841858Q9.653170023841858,1.200000023841858,9.357590023841858,1.200000023841858Q9.062010023841857,1.200000023841858,8.852980023841859,1.4090170238418578L8.305260023841857,1.956770023841858ZM9.394710023841858,4.743300023841858L7.456740023841858,2.805310023841858L1.565513023841858,8.696490023841857Q1.3821040238418578,8.879920023841859,1.3592860238418578,9.138260023841857L1.200283023841858,10.938200023841858Q1.197950023841858,10.964600023841857,1.216697023841858,10.983300023841858Q1.235434023841858,11.002100023841859,1.2618250238418578,10.999800023841859L3.061720023841858,10.840700023841858Q3.320060023841858,10.817900023841858,3.503550023841858,10.634500023841857L9.394710023841858,4.743300023841858ZM7.032160023841858,1.532833023841858L0.7169870238418579,7.847960023841858Q0.2251350238418579,8.339860023841858,0.1639400238418579,9.032670023841858L0.00493802384185793,10.832600023841858Q-0.04668797615814213,11.417000023841858,0.3681660238418579,11.831900023841857Q0.7830380238418579,12.246700023841857,1.3674730238418578,12.195100023841858L3.167320023841858,12.036100023841858Q3.860050023841858,11.974900023841858,4.351990023841858,11.483100023841859L10.667500023841859,5.167560023841858L11.639500023841858,4.195520023841858Q12.200000023841858,3.635040023841858,12.200000023841858,2.842420023841858Q12.200000023841858,2.0498000238418577,11.639600023841858,1.4893300238418579L10.710700023841857,0.560477423841858Q10.150210023841858,2.384185793236071e-8,9.357590023841858,2.384185793236071e-8Q8.564970023841859,2.384185793236071e-8,8.004480023841857,0.560460723841858L7.032470023841858,1.532529023841858L7.032160023841858,1.532833023841858Z" fill-rule="evenodd" fill="#777777" fill-opacity="1"/></g></svg>