<svg xmlns="http://www.w3.org/2000/svg" xmlns:xlink="http://www.w3.org/1999/xlink" fill="none" version="1.1" width="28" height="28" viewBox="0 0 28 28"><defs><clipPath id="master_svg0_747_12303"><rect x="0" y="0" width="28" height="28" rx="6"/></clipPath><clipPath id="master_svg1_747_12582"><rect x="6" y="6" width="16" height="16" rx="0"/></clipPath></defs><g clip-path="url(#master_svg0_747_12303)"><g clip-path="url(#master_svg1_747_12582)"><g><path d="M21.1858,14Q21.1858,13.33726,20.7172,12.86863L15.13137,7.282843Q14.66274,6.814214,14,6.814214Q13.33726,6.814214,12.86863,7.282843L7.282843,12.86863Q6.814214,13.33726,6.814214,14Q6.814214,14.66274,7.282843,15.13137L12.86863,20.7172Q13.33726,21.1858,14,21.1858Q14.66274,21.1858,15.13137,20.7172L20.7172,15.13137Q21.1858,14.66274,21.1858,14ZM14.28284,8.13137L19.8686,13.71716Q20.1515,14,19.8686,14.28284L14.28284,19.8686Q14,20.1515,13.71716,19.8686L8.13137,14.28284Q8.01421,14.16569,8.01421,14Q8.01421,13.83431,8.13137,13.71716L13.71716,8.13137Q13.83431,8.01421,14,8.01421Q14.16569,8.01421,14.28284,8.13137Z" fill-rule="evenodd" fill="#595959" fill-opacity="1"/></g><g transform="matrix(0.7071067690849304,0.7071067690849304,-0.7071067690849304,0.7071067690849304,10.540676217060536,-7.235528994526248)"><rect x="14.00439453125" y="9.10595703125" width="6.921310901641846" height="6.935225963592529" rx="0.5" fill="#8C8C8C" fill-opacity="1"/></g></g></g></svg>