<svg xmlns="http://www.w3.org/2000/svg" xmlns:xlink="http://www.w3.org/1999/xlink" fill="none" version="1.1" width="16" height="16" viewBox="0 0 16 16"><defs><clipPath id="master_svg0_345_3803"><rect x="0" y="0" width="16" height="16" rx="0"/></clipPath></defs><g clip-path="url(#master_svg0_345_3803)"><g><path d="M1.4,2.4L1.4,10.66667Q1.4,10.72576,1.411529,10.78372Q1.4230580000000002,10.84168,1.445672,10.89628Q1.4682870000000001,10.95087,1.501118,11.00001Q1.53395,11.04914,1.575736,11.09093Q1.6175220000000001,11.13272,1.666658,11.16555Q1.7157930000000001,11.19838,1.77039,11.22099Q1.824986,11.24361,1.882946,11.25514Q1.9409052,11.26667,2,11.26667Q2.0590948,11.26667,2.117054,11.25514Q2.175014,11.24361,2.22961,11.22099Q2.284207,11.19838,2.333342,11.16555Q2.382478,11.13272,2.424264,11.09093Q2.46605,11.04914,2.498882,11.00001Q2.531713,10.95087,2.554328,10.89628Q2.576942,10.84168,2.588471,10.78372Q2.6,10.72576,2.6,10.66667L2.6,2.6L13.4,2.6L13.4,13.4L5.33333,13.4Q5.27424,13.4,5.216279999999999,13.4115Q5.15832,13.4231,5.10372,13.4457Q5.04913,13.4683,4.99999,13.5011Q4.9508600000000005,13.5339,4.90907,13.5757Q4.86728,13.6175,4.83445,13.6667Q4.80162,13.7158,4.7790099999999995,13.7704Q4.75639,13.825,4.74486,13.8829Q4.7333300000000005,13.9409,4.7333300000000005,14Q4.7333300000000005,14.0591,4.74486,14.1171Q4.75639,14.175,4.7790099999999995,14.2296Q4.80162,14.2842,4.83445,14.3333Q4.86728,14.3825,4.90907,14.4243Q4.9508600000000005,14.4661,4.99999,14.4989Q5.04913,14.5317,5.10372,14.5543Q5.15832,14.5769,5.216279999999999,14.5885Q5.27424,14.6,5.33333,14.6L13.6,14.6Q14.0142,14.6,14.3071,14.3071Q14.6,14.0142,14.6,13.6L14.6,2.4Q14.6,1.9857895,14.3071,1.6929Q14.0142,1.4,13.6,1.4L2.4,1.4Q1.9857868,1.4,1.692893,1.692893Q1.4,1.9857868,1.4,2.4Z" fill-rule="evenodd" fill="#333333" fill-opacity="1"/></g><g><path d="M8.599921953125001,8Q8.599921953125001,7.880653,8.554241953125,7.77039Q8.508571953125,7.660127,8.424181953125,7.575736Q8.339791953125001,7.491345,8.229531953125,7.445672Q8.119261953125001,7.4,7.999921953125,7.4L5.333251953125,7.4Q5.274161953125001,7.4,5.216201953125,7.411529Q5.158241953125,7.423058,5.103641953125,7.445672Q5.049041953125,7.468287,4.999911953125,7.501118Q4.950771953125,7.53395,4.908991953125,7.575736Q4.867201953125,7.617522,4.834371953125,7.666658Q4.801541953125,7.715793,4.778921953125,7.77039Q4.7563119531249995,7.824986,4.744781953125,7.882946Q4.733251953125,7.9409051999999996,4.733251953125,8Q4.733251953125,8.0590948,4.744781953125,8.117054Q4.7563119531249995,8.175014000000001,4.778921953125,8.22961Q4.801541953125,8.284207,4.834371953125,8.333342Q4.867201953125,8.382478,4.908991953125,8.424264Q4.950771953125,8.46605,4.999911953125,8.498882Q5.049041953125,8.531713,5.103641953125,8.554328Q5.158241953125,8.576942,5.216201953125,8.588471Q5.274161953125001,8.6,5.333251953125,8.6L6.551391953125,8.6L1.909142953125,13.24225L1.908987953125,13.2424Q1.824596953125,13.326789999999999,1.778923953125,13.437059999999999Q1.733251953125,13.54732,1.733251953125,13.66667Q1.733251953125,13.786010000000001,1.778923953125,13.89628Q1.824596953125,14.006540000000001,1.908987953125,14.09093Q1.9933789531250001,14.17532,2.103641953125,14.22099Q2.213904953125,14.266670000000001,2.333251953125,14.266670000000001Q2.452598953125,14.266670000000001,2.562861953125,14.22099Q2.673124953125,14.17532,2.757515953125,14.09093L2.757670953125,14.090779999999999L7.399921953125,9.44853L7.399921953125,10.66667Q7.399921953125,10.725760000000001,7.411451953125,10.78372Q7.422971953125,10.84168,7.445591953125,10.89628Q7.468201953125,10.95087,7.501031953125,11.00001Q7.533871953125,11.04914,7.575651953125,11.09093Q7.617441953125,11.132719999999999,7.666571953125,11.16555Q7.715711953125,11.19838,7.770311953125,11.22099Q7.824901953125,11.24361,7.882861953125,11.25514Q7.940821953125,11.26667,7.999921953125,11.26667Q8.059011953125001,11.26667,8.116971953124999,11.25514Q8.174931953125,11.24361,8.229531953125,11.22099Q8.284121953125,11.19838,8.333261953125,11.16555Q8.382391953125001,11.132719999999999,8.424181953125,11.09093Q8.465971953124999,11.04914,8.498801953125,11.00001Q8.531631953125,10.95087,8.554241953125,10.89628Q8.576861953125,10.84168,8.588391953125,10.78372Q8.599921953125001,10.725760000000001,8.599921953125001,10.66667L8.599921953125001,8Z" fill-rule="evenodd" fill="#333333" fill-opacity="1"/></g></g></svg>