<svg xmlns="http://www.w3.org/2000/svg" xmlns:xlink="http://www.w3.org/1999/xlink" fill="none" version="1.1" width="14" height="14.000000953674316" viewBox="0 0 14 14.000000953674316"><defs><clipPath id="master_svg0_1661_09294/1564_08859"><rect x="0" y="0" width="14" height="14.000000953674316" rx="0"/></clipPath></defs><g clip-path="url(#master_svg0_1661_09294/1564_08859)"><g><g><path d="M4.347421444091797,3.650472796875C4.347421444091797,3.812347796875,4.2799314440917975,3.966894796875,4.161201444091796,4.076921796875L3.5641814440917967,4.630131796875L11.918611444091797,4.630131796875C12.239711444091796,4.630131796875,12.500011444091797,4.890421796875,12.500011444091797,5.2115117968749995C12.500011444091797,5.532601796874999,12.239711444091796,5.792891796875001,11.918611444091797,5.792891796875001L2.081392444091797,5.792891796875001C1.7603044440917968,5.792891796875001,1.5000114440917969,5.532601796874999,1.5000114440917969,5.2115117968749995C1.5000114440917969,5.049641796875,1.5675004440917968,4.8950917968750005,1.686236444091797,4.785061796875L3.370881444091797,3.224026796875C3.4783714440917968,3.124427996875,3.6195014440917967,3.069091796875,3.766041444091797,3.069091796875C4.087131444091797,3.069091796875,4.347421444091797,3.329384796875,4.347421444091797,3.650472796875Z" fill-rule="evenodd" fill="#262626" fill-opacity="1"/></g><g transform="matrix(-1,0,0,-1,24.99993896484375,21.861572265625)"><path d="M15.347379482421875,11.5121671328125C15.347379482421875,11.6740421328125,15.279889482421876,11.8285891328125,15.161159482421875,11.9386161328125L14.564139482421876,12.4918261328125L22.918569482421873,12.4918261328125C23.239669482421874,12.4918261328125,23.499969482421875,12.7521161328125,23.499969482421875,13.0732061328125C23.499969482421875,13.3942961328125,23.239669482421874,13.6545861328125,22.918569482421873,13.6545861328125L13.081350482421875,13.6545861328125C12.760262482421876,13.6545861328125,12.499969482421875,13.3942961328125,12.499969482421875,13.0732061328125C12.499969482421875,12.911336132812501,12.567458482421875,12.7567861328125,12.686194482421875,12.6467561328125L14.370839482421875,11.0857211328125C14.478329482421875,10.9861223328125,14.619459482421874,10.9307861328125,14.765999482421876,10.9307861328125C15.087089482421876,10.9307861328125,15.347379482421875,11.1910791328125,15.347379482421875,11.5121671328125Z" fill-rule="evenodd" fill="#262626" fill-opacity="1"/></g></g></g></svg>