<svg xmlns="http://www.w3.org/2000/svg" xmlns:xlink="http://www.w3.org/1999/xlink" fill="none" version="1.1" width="16" height="16" viewBox="0 0 16 16"><defs><clipPath id="master_svg0_351_0268"><rect x="16" y="0" width="16" height="16" rx="0"/></clipPath></defs><g transform="matrix(0,1,-1,0,16,-16)" clip-path="url(#master_svg0_351_0268)"><g transform="matrix(0,-1,1,0,7.510009765625,34.506591796875)"><path d="M23.33358078125,13.975069015625Q23.43314078125,13.882811015625,23.48746078125,13.758419015625Q23.54178078125,13.634027015625,23.54178078125,13.498291015625Q23.54178078125,13.434271615625,23.52929078125,13.371482015625Q23.51680078125,13.308693015625,23.49231078125,13.249547015625Q23.46781078125,13.190401015625,23.43224078125,13.137170015625Q23.396670781250002,13.083940015625,23.35140078125,13.038672015625Q23.30613078125,12.993403015625,23.25290078125,12.957836015625Q23.19967078125,12.922269015625,23.14053078125,12.897769015625Q23.08138078125,12.873270015625,23.01859078125,12.860781015625Q22.95580078125,12.848291015625,22.89178078125,12.848291015625Q22.76891078125,12.848291015625,22.65451078125,12.893144015625Q22.54012078125,12.937997015625,22.44999078125,13.021513015625L20.56650578125,14.766801015625Q20.46694278125,14.859051015624999,20.41262178125,14.983451015625Q20.35830078125,15.107841015625,20.35830078125,15.243581015625Q20.35830078125,15.307591015625,20.37079078125,15.370381015625Q20.38327978125,15.433171015625,20.40777878125,15.492321015625Q20.432278781249998,15.551471015625,20.46784578125,15.604701015625Q20.50341278125,15.657931015625,20.54868178125,15.703191015625Q20.59394978125,15.748461015625,20.64717978125,15.784031015625Q20.70041078125,15.819601015625,20.75955678125,15.844101015625Q20.81870278125,15.868601015625,20.88149178125,15.881091015625Q20.94428138125,15.893581015625,21.00830078125,15.893581015625L32.00660078125,15.893581015625Q32.07060078125,15.893581015625,32.13340078125,15.881091015625Q32.19620078125,15.868601015625,32.25530078125,15.844101015625Q32.314500781250004,15.819601015625,32.36770078125,15.784031015625Q32.42090078125,15.748461015625,32.46620078125,15.703191015625Q32.51150078125,15.657931015625,32.54700078125,15.604701015625Q32.58260078125,15.551471015625,32.60710078125,15.492321015625Q32.63160078125,15.433171015625,32.64410078125,15.370381015625Q32.65660078125,15.307591015625,32.65660078125,15.243581015625Q32.65660078125,15.179561015625,32.64410078125,15.116771015625Q32.63160078125,15.053981015625,32.60710078125,14.994831015625Q32.58260078125,14.935681015625,32.54700078125,14.882451015625Q32.51150078125,14.829221015625,32.46620078125,14.783961015625Q32.42090078125,14.738691015625,32.36770078125,14.703121015625Q32.314500781250004,14.667551015625,32.25530078125,14.643051015625Q32.19620078125,14.618551015625,32.13340078125,14.606061015625Q32.07060078125,14.593581015625,32.00660078125,14.593581015625L22.66610078125,14.593581015625L23.33339078125,13.975245015625L23.33358078125,13.975069015625L23.33358078125,13.975069015625Z" fill-rule="evenodd" fill="#262626" fill-opacity="1"/></g><g transform="matrix(0,1,-1,0,29.99755859375,-24.99755859375)"><path d="M29.82283859375,2.976778Q29.92239859375,2.88452,29.97671859375,2.760128Q30.03103859375,2.635736,30.03103859375,2.5Q30.03103859375,2.4359806,30.01854859375,2.373191Q30.00605859375,2.310402,29.98156859375,2.251256Q29.95706859375,2.19211,29.92149859375,2.138879Q29.885928593750002,2.085649,29.84065859375,2.040381Q29.79538859375,1.995112,29.74215859375,1.9595449999999999Q29.68892859375,1.923978,29.62978859375,1.899478Q29.57063859375,1.874979,29.50784859375,1.86249Q29.44505859375,1.85,29.38103859375,1.85Q29.25816859375,1.85,29.14376859375,1.894853Q29.02937859375,1.9397060000000002,28.93924859375,2.023222L27.05576359375,3.76851Q26.95620059375,3.86076,26.90187959375,3.98516Q26.84755859375,4.1095500000000005,26.84755859375,4.24529Q26.84755859375,4.3093,26.86004859375,4.37209Q26.87253759375,4.43488,26.89703659375,4.49403Q26.921536593749998,4.553179999999999,26.95710359375,4.60641Q26.99267059375,4.65964,27.03793959375,4.7049Q27.08320759375,4.75017,27.13643759375,4.7857400000000005Q27.18966859375,4.82131,27.24881459375,4.84581Q27.30796059375,4.87031,27.37074959375,4.8828Q27.43353919375,4.89529,27.49755859375,4.89529L38.49585859375,4.89529Q38.55985859375,4.89529,38.62265859375,4.8828Q38.68545859375,4.87031,38.74455859375,4.84581Q38.803758593750004,4.82131,38.85695859375,4.7857400000000005Q38.91015859375,4.75017,38.95545859375,4.7049Q39.00075859375,4.65964,39.03625859375,4.60641Q39.07185859375,4.553179999999999,39.09635859375,4.49403Q39.12085859375,4.43488,39.13335859375,4.37209Q39.14585859375,4.3093,39.14585859375,4.24529Q39.14585859375,4.18127,39.13335859375,4.11848Q39.12085859375,4.05569,39.09635859375,3.99654Q39.07185859375,3.9373899999999997,39.03625859375,3.88416Q39.00075859375,3.83093,38.95545859375,3.78567Q38.91015859375,3.7404,38.85695859375,3.7048300000000003Q38.803758593750004,3.66926,38.74455859375,3.6447599999999998Q38.68545859375,3.62026,38.62265859375,3.60777Q38.55985859375,3.5952900000000003,38.49585859375,3.5952900000000003L29.15535859375,3.5952900000000003L29.82264859375,2.976954L29.82283859375,2.976778L29.82283859375,2.976778Z" fill-rule="evenodd" fill="#262626" fill-opacity="1"/></g></g></svg>