<svg xmlns="http://www.w3.org/2000/svg" xmlns:xlink="http://www.w3.org/1999/xlink" fill="none"
    version="1.1" width="14.000000953674316" height="14" viewBox="0 0 14.000000953674316 14">
    <defs>
        <clipPath id="master_svg0_1402_03286/1402_02598/1394_04910">
            <rect x="0" y="14" width="14" height="14.000000953674316" rx="0" />
        </clipPath>
    </defs>
    <g transform="matrix(0,-1,1,0,-14,14)"
        clip-path="url(#master_svg0_1402_03286/1402_02598/1394_04910)">
        <g>
            <g transform="matrix(0,-1,1,0,-23.2427978515625,29.7532958984375)">
                <path
                    d="M5.580529023437499,26.974824875Q5.6800890234375,26.882566875,5.7344090234375,26.758174875Q5.7887290234375,26.633782875,5.7887290234375,26.498046875Q5.7887290234375,26.434027475,5.776239023437499,26.371237875Q5.7637490234375,26.308448875,5.7392590234375,26.249302875Q5.7147590234375,26.190156875,5.6791890234375,26.136925875Q5.6436190234375,26.083695875,5.5983490234375,26.038427875Q5.553079023437499,25.993158875,5.4998490234375,25.957591875Q5.4466190234375,25.922024874999998,5.3874790234375,25.897524875Q5.3283290234375,25.873025875,5.2655390234374995,25.860536875Q5.2027490234375,25.848046875,5.1387290234375005,25.848046875Q5.0158590234375,25.848046875,4.9014590234375,25.892899875Q4.7870690234375,25.937752875,4.6969390234374995,26.021268875L2.8134540234375,27.766556875Q2.7138910234375,27.858806875,2.6595700234375,27.983206875Q2.6052490234375,28.107596875,2.6052490234375,28.243336875Q2.6052490234375,28.307346875,2.6177390234375,28.370136875Q2.6302280234374997,28.432926875,2.6547270234375,28.492076875Q2.6792270234375,28.551226875,2.7147940234375,28.604456875Q2.7503610234374998,28.657686875,2.7956300234375,28.702946875Q2.8408980234375,28.748216875,2.8941280234375,28.783786875Q2.9473590234375,28.819356875,3.0065050234375,28.843856875Q3.0656510234375,28.868356875,3.1284400234375,28.880846875Q3.1912296234375,28.893336875,3.2552490234375,28.893336875L14.2535490234375,28.893336875Q14.3175490234375,28.893336875,14.3803490234375,28.880846875Q14.4431490234375,28.868356875,14.5022490234375,28.843856875Q14.5614490234375,28.819356875,14.6146490234375,28.783786875Q14.6678490234375,28.748216875,14.7131490234375,28.702946875Q14.7584490234375,28.657686875,14.7939490234375,28.604456875Q14.8295490234375,28.551226875,14.8540490234375,28.492076875Q14.8785490234375,28.432926875,14.8910490234375,28.370136875Q14.9035490234375,28.307346875,14.9035490234375,28.243336875Q14.9035490234375,28.179316875,14.8910490234375,28.116526874999998Q14.8785490234375,28.053736875,14.8540490234375,27.994586875Q14.8295490234375,27.935436875,14.7939490234375,27.882206875Q14.7584490234375,27.828976875,14.7131490234375,27.783716875Q14.6678490234375,27.738446875,14.6146490234375,27.702876875Q14.5614490234375,27.667306875,14.5022490234375,27.642806875Q14.4431490234375,27.618306875000002,14.3803490234375,27.605816875Q14.3175490234375,27.593336875,14.2535490234375,27.593336875L4.9130490234375,27.593336875L5.580339023437499,26.975000875L5.580529023437499,26.974824875L5.580529023437499,26.974824875Z"
                    fill-rule="evenodd" fill="#262626" fill-opacity="1" />
            </g>
            <g transform="matrix(0,1,-1,0,26.2447509765625,4.7552490234375)">
                <path
                    d="M13.0700309765625,15.976778Q13.1695909765625,15.88452,13.2239109765625,15.760128Q13.2782309765625,15.635736,13.2782309765625,15.5Q13.2782309765625,15.4359806,13.2657409765625,15.373191Q13.2532509765625,15.310402,13.2287609765625,15.251256Q13.2042609765625,15.19211,13.1686909765625,15.138879Q13.1331209765625,15.085649,13.0878509765625,15.040381Q13.0425809765625,14.995112,12.9893509765625,14.959545Q12.9361209765625,14.923978,12.8769809765625,14.899478Q12.817830976562501,14.874979,12.7550409765625,14.86249Q12.6922509765625,14.85,12.6282309765625,14.85Q12.5053609765625,14.85,12.3909609765625,14.894853Q12.2765709765625,14.939706,12.1864409765625,15.023222L10.3029559765625,16.76851Q10.2033929765625,16.86076,10.1490719765625,16.98516Q10.0947509765625,17.10955,10.0947509765625,17.24529Q10.0947509765625,17.3093,10.1072409765625,17.37209Q10.1197299765625,17.43488,10.1442289765625,17.49403Q10.1687289765625,17.55318,10.2042959765625,17.60641Q10.2398629765625,17.65964,10.2851319765625,17.7049Q10.3303999765625,17.75017,10.3836299765625,17.78574Q10.4368609765625,17.82131,10.4960069765625,17.84581Q10.5551529765625,17.87031,10.6179419765625,17.8828Q10.6807315765625,17.89529,10.7447509765625,17.89529L21.7430509765625,17.89529Q21.8070509765625,17.89529,21.8698509765625,17.8828Q21.9326509765625,17.87031,21.9917509765625,17.84581Q22.0509509765625,17.82131,22.1041509765625,17.78574Q22.157350976562498,17.75017,22.202650976562502,17.7049Q22.2479509765625,17.65964,22.2834509765625,17.60641Q22.3190509765625,17.55318,22.3435509765625,17.49403Q22.3680509765625,17.43488,22.3805509765625,17.37209Q22.3930509765625,17.3093,22.3930509765625,17.24529Q22.3930509765625,17.18127,22.3805509765625,17.118479999999998Q22.3680509765625,17.05569,22.3435509765625,16.99654Q22.3190509765625,16.93739,22.2834509765625,16.88416Q22.2479509765625,16.83093,22.202650976562502,16.78567Q22.157350976562498,16.7404,22.1041509765625,16.70483Q22.0509509765625,16.66926,21.9917509765625,16.64476Q21.9326509765625,16.620260000000002,21.8698509765625,16.60777Q21.8070509765625,16.59529,21.7430509765625,16.59529L12.4025509765625,16.59529L13.0698409765625,15.976954L13.0700309765625,15.976778L13.0700309765625,15.976778Z"
                    fill-rule="evenodd" fill="#262626" fill-opacity="1" />
            </g>
        </g>
    </g>
</svg>