<svg xmlns="http://www.w3.org/2000/svg" xmlns:xlink="http://www.w3.org/1999/xlink"
    xmlns:xhtml="http://www.w3.org/1999/xhtml" data-v-46cf0610="" data-v-a9142392="" width="122"
    height="40" viewBox="52 30 122 40" version="1.1" preserveAspectRatio="xMinYMin meet"
    overflow="visible" style="background-color: transparent;">
    <g style="transform:matrix(1,0,0,1,52,30);">
        <g clip-path="url(#clippath-artboard-3767)">
            <svg xmlns="http://www.w3.org/2000/svg" xmlns:xlink="http://www.w3.org/1999/xlink"
                xmlns:xhtml="http://www.w3.org/1999/xhtml" preserveAspectRatio="xMinYMin meet"
                overflow="hidden" width="122" height="40" viewBox="0 0 122 40">
                <clipPath id="clippath-artboard-3767">
                    <path d="M 0 0 l 122 0 l 0 40 l -122 0 z" clip-rule="evenodd" />
                </clipPath>
                <g style="transform:matrix(1,0,0,1,3,3);">
                    <g style="transform:matrix(1,0,0,1,0,0);">
                        <g clip-path="url(#clippath-artboard-3769)">
                            <svg xmlns="http://www.w3.org/2000/svg"
                                xmlns:xlink="http://www.w3.org/1999/xlink"
                                xmlns:xhtml="http://www.w3.org/1999/xhtml"
                                preserveAspectRatio="xMinYMin meet" overflow="hidden" width="34"
                                height="34" viewBox="0 0 34 34">
                                <clipPath id="clippath-artboard-3769">
                                    <path
                                        d="M 2.9999999999999996 0 L 31 0 C 32.65685424949238 0 34 1.3431457505076199 34 2.9999999999999996 L 34 31 C 34 32.65685424949238 32.65685424949238 34 31 34 L 2.9999999999999996 34 C 1.3431457505076199 34 0 32.65685424949238 0 31 L 0 2.9999999999999996 C 0 1.3431457505076199 1.3431457505076199 0 2.9999999999999996 0 Z"
                                        clip-rule="evenodd" />
                                </clipPath>
                            </svg>
                        </g>
                        <g>
                            <mask id="mask-border3295485" x="-3" y="-3" width="40" height="40">
                                <rect x="-3" y="-3" width="40" height="40" fill="white" />
                                <path
                                    d="M 2.9999999999999996 0 L 31 0 C 32.65685424949238 0 34 1.3431457505076199 34 2.9999999999999996 L 34 31 C 34 32.65685424949238 32.65685424949238 34 31 34 L 2.9999999999999996 34 C 1.3431457505076199 34 0 32.65685424949238 0 31 L 0 2.9999999999999996 C 0 1.3431457505076199 1.3431457505076199 0 2.9999999999999996 0 Z"
                                    fill="black" />
                            </mask>
                            <path
                                d="M 2.9999999999999996 0 L 31 0 C 32.65685424949238 0 34 1.3431457505076199 34 2.9999999999999996 L 34 31 C 34 32.65685424949238 32.65685424949238 34 31 34 L 2.9999999999999996 34 C 1.3431457505076199 34 0 32.65685424949238 0 31 L 0 2.9999999999999996 C 0 1.3431457505076199 1.3431457505076199 0 2.9999999999999996 0 Z"
                                fill="none" stroke="rgba(226,226,226,1)" stroke-linejoin="miter"
                                stroke-width="6" mask="url(#mask-border3295485)" />
                        </g>
                    </g>
                    <g style="transform:matrix(1,0,0,1,48,0);">
                        <g clip-path="url(#clippath-artboard-3770)">
                            <svg xmlns="http://www.w3.org/2000/svg"
                                xmlns:xlink="http://www.w3.org/1999/xlink"
                                xmlns:xhtml="http://www.w3.org/1999/xhtml"
                                preserveAspectRatio="xMinYMin meet" overflow="hidden" width="68"
                                height="34" viewBox="0 0 68 34">
                                <clipPath id="clippath-artboard-3770">
                                    <path
                                        d="M 3.000000000000001 0 L 65 0 C 66.65685424949238 0 68 1.3431457505076205 68 3.000000000000001 L 68 31 C 68 32.65685424949238 66.65685424949238 34 65 34 L 3.000000000000001 34 C 1.3431457505076205 34 0 32.65685424949238 0 31 L 0 3.000000000000001 C 0 1.3431457505076205 1.3431457505076205 0 3.000000000000001 0 Z"
                                        clip-rule="evenodd" />
                                </clipPath>
                            </svg>
                        </g>
                        <g>
                            <mask id="mask-border32964239" x="-3" y="-3" width="74" height="40">
                                <rect x="-3" y="-3" width="74" height="40" fill="white" />
                                <path
                                    d="M 3.000000000000001 0 L 65 0 C 66.65685424949238 0 68 1.3431457505076205 68 3.000000000000001 L 68 31 C 68 32.65685424949238 66.65685424949238 34 65 34 L 3.000000000000001 34 C 1.3431457505076205 34 0 32.65685424949238 0 31 L 0 3.000000000000001 C 0 1.3431457505076205 1.3431457505076205 0 3.000000000000001 0 Z"
                                    fill="black" />
                            </mask>
                            <path
                                d="M 3.000000000000001 0 L 65 0 C 66.65685424949238 0 68 1.3431457505076205 68 3.000000000000001 L 68 31 C 68 32.65685424949238 66.65685424949238 34 65 34 L 3.000000000000001 34 C 1.3431457505076205 34 0 32.65685424949238 0 31 L 0 3.000000000000001 C 0 1.3431457505076205 1.3431457505076205 0 3.000000000000001 0 Z"
                                fill="none" stroke="rgba(226,226,226,1)" stroke-linejoin="miter"
                                stroke-width="6" mask="url(#mask-border32964239)" />
                        </g>
                    </g>
                    <g style="transform:matrix(1,0,0,1,0,0);">
                        <g clip-path="url(#clippath-artboard-3771)">
                            <svg xmlns="http://www.w3.org/2000/svg"
                                xmlns:xlink="http://www.w3.org/1999/xlink"
                                xmlns:xhtml="http://www.w3.org/1999/xhtml"
                                preserveAspectRatio="xMinYMin meet" overflow="hidden" width="116"
                                height="34" viewBox="0 0 116 34">
                                <clipPath id="clippath-artboard-3771">
                                    <path
                                        d="M 3.000000000000001 0 L 113 0 C 114.65685424949238 0 116 1.3431457505076205 116 3.000000000000001 L 116 31 C 116 32.65685424949238 114.65685424949238 34 113 34 L 3.000000000000001 34 C 1.3431457505076205 34 0 32.65685424949238 0 31 L 0 3.000000000000001 C 0 1.3431457505076205 1.3431457505076205 0 3.000000000000001 0 Z"
                                        clip-rule="evenodd" />
                                </clipPath>
                            </svg>
                        </g>
                        <g>
                            <clipPath id="clippath-border32975624">
                                <path
                                    d="M 3.000000000000001 0 L 113 0 C 114.65685424949238 0 116 1.3431457505076205 116 3.000000000000001 L 116 31 C 116 32.65685424949238 114.65685424949238 34 113 34 L 3.000000000000001 34 C 1.3431457505076205 34 0 32.65685424949238 0 31 L 0 3.000000000000001 C 0 1.3431457505076205 1.3431457505076205 0 3.000000000000001 0 Z"
                                    clip-rule="evenodd" />
                            </clipPath>
                            <path
                                d="M 3.000000000000001 0 L 113 0 C 114.65685424949238 0 116 1.3431457505076205 116 3.000000000000001 L 116 31 C 116 32.65685424949238 114.65685424949238 34 113 34 L 3.000000000000001 34 C 1.3431457505076205 34 0 32.65685424949238 0 31 L 0 3.000000000000001 C 0 1.3431457505076205 1.3431457505076205 0 3.000000000000001 0 Z"
                                fill="none" stroke="rgba(140,140,140,1)" stroke-width="2"
                                stroke-linejoin="miter" clip-path="url(#clippath-border32975624)"
                                stroke-dasharray="10, 10" />
                        </g>
                    </g>
                </g>
            </svg>
        </g>
    </g>
</svg>