<svg xmlns="http://www.w3.org/2000/svg" xmlns:xlink="http://www.w3.org/1999/xlink" fill="none" version="1.1" width="16" height="16" viewBox="0 0 16 16"><defs><clipPath id="master_svg0_27_521"><rect x="0" y="0" width="16" height="16" rx="0"/></clipPath></defs><g clip-path="url(#master_svg0_27_521)"><g><g><path d="M11.97994,5.2424689765625L11.97983,5.2423619765625Q11.89544,5.1579709765625,11.78518,5.1122979765625Q11.67492,5.0666259765625,11.55557,5.0666259765625Q11.436219999999999,5.0666259765625,11.32596,5.1122979765625Q11.2157,5.1579709765625,11.13131,5.2423619765625Q11.04691,5.3267529765625,11.00124,5.4370159765625Q10.95557,5.5472789765625,10.95557,5.6666259765625Q10.95557,5.7859729765625,11.00124,5.8962359765625Q11.04691,6.0064989765625,11.13131,6.0908899765625L11.131409999999999,6.0909969765625L12.440380000000001,7.3999659765625L7,7.3999959765625L6.99999644911,7.3999959765625Q6.9409018,7.3999959765625,6.882943,7.4115259765624995Q6.824984,7.4230559765625,6.770387,7.4456759765625Q6.715791,7.4682859765625,6.666656,7.5011159765625Q6.617521,7.5339559765625,6.575735,7.5757359765625Q6.533949,7.6175259765625,6.501117,7.666655976562501Q6.468286,7.7157959765625,6.445672,7.770385976562499Q6.423057,7.8249859765625,6.411529,7.8829459765625Q6.4,7.9409059765625,6.4,7.9999959765625Q6.400001,8.1193459765625,6.445674,8.2296159765625Q6.491347,8.3398759765625,6.5757390000000004,8.4242659765625Q6.66013,8.5086559765625,6.770392,8.5543259765625Q6.880654,8.5999959765625,7,8.5999959765625L12.44037,8.5999659765625L11.13131,9.9090259765625Q11.04691,9.993415976562499,11.00124,10.103685976562499Q10.95557,10.2139459765625,10.95557,10.3332959765625Q10.95557,10.452635976562501,11.00124,10.5629059765625Q11.04691,10.673165976562501,11.13131,10.7575559765625Q11.2157,10.8419459765625,11.32596,10.8876159765625Q11.436219999999999,10.933295976562501,11.55557,10.933295976562501Q11.67492,10.933295976562501,11.78518,10.8876159765625Q11.89544,10.8419459765625,11.97983,10.7575559765625L11.98003,10.7573559765625L14.31307,8.4243159765625L14.31317,8.4242259765625Q14.39756,8.339835976562501,14.44323,8.229565976562501Q14.488900000000001,8.1193059765625,14.488900000000001,7.9999559765625Q14.488900000000001,7.9855459765625,14.488209999999999,7.9711359765625005Q14.48284,7.859395976562499,14.43755,7.7570959765625Q14.39227,7.6547959765625,14.31317,7.5756959765625L14.31301,7.5755359765625006L11.97994,5.2424689765625Z" fill-rule="evenodd" fill="currentColor" fill-opacity="1"/></g><g><path d="M14.4889,13.4444L14.4889,12.6667Q14.4889,12.6076,14.4774,12.5496Q14.4658,12.4917,14.4432,12.4371Q14.4206,12.3825,14.3878,12.3333Q14.3549,12.2842,14.3132,12.2424Q14.2714,12.2006,14.2222,12.1678Q14.1731,12.135,14.1185,12.1123Q14.0639,12.0897,14.0059,12.0782Q13.948,12.0667,13.8889,12.0667Q13.8298,12.0667,13.7718,12.0782Q13.7139,12.0897,13.6593,12.1123Q13.6047,12.135,13.5555,12.1678Q13.5064,12.2006,13.4646,12.2424Q13.4228,12.2842,13.39,12.3333Q13.3572,12.3825,13.3346,12.4371Q13.3119,12.4917,13.3004,12.5496Q13.2889,12.6076,13.2889,12.6667L13.2889,13.4444Q13.2889,13.8403,13.009,14.1201Q12.72916,14.4,12.33333,14.4L4.55556,14.4Q4.15974,14.4,3.879874,14.1201Q3.6,13.8403,3.6,13.4444L3.6,2.55556Q3.6,2.15975,3.879876,1.8798759999999999Q4.15975,1.6,4.55556,1.6L12.33333,1.6Q12.72915,1.6,13.009,1.879874Q13.2889,2.15974,13.2889,2.55556L13.2889,3.33333Q13.2889,3.39243,13.3004,3.45039Q13.3119,3.50835,13.3346,3.56294Q13.3572,3.61754,13.39,3.66668Q13.4228,3.71581,13.4646,3.7576Q13.5064,3.79938,13.5555,3.83221Q13.6047,3.86505,13.6593,3.88766Q13.7139,3.91028,13.7718,3.9218Q13.8298,3.93333,13.8889,3.93333Q13.948,3.93333,14.0059,3.9218Q14.0639,3.91028,14.1185,3.88766Q14.1731,3.86505,14.2222,3.83221Q14.2714,3.79938,14.3132,3.7576Q14.3549,3.71581,14.3878,3.66668Q14.4206,3.61754,14.4432,3.56294Q14.4658,3.50835,14.4774,3.45039Q14.4889,3.39243,14.4889,3.33333L14.4889,2.55556Q14.4889,1.662693,13.8576,1.0313495Q13.2262,0.4,12.33333,0.4L4.55556,0.4Q3.6626950000000003,0.4,3.0313475,1.0313475Q2.4,1.662695,2.4,2.55556L2.4,13.4444Q2.4,14.3373,3.0313496,14.9687Q3.662693,15.6,4.55556,15.6L12.33333,15.6Q13.2262,15.6,13.8576,14.9687Q14.4889,14.3373,14.4889,13.4444Z" fill-rule="evenodd" fill="currentColor" fill-opacity="1"/></g></g></g></svg>