<svg xmlns="http://www.w3.org/2000/svg" xmlns:xlink="http://www.w3.org/1999/xlink" fill="none" version="1.1" width="16"
    height="16" viewBox="0 0 16 16">
    <defs>
        <clipPath id="master_svg0_345_2283">
            <rect x="0" y="0" width="16" height="16" rx="0" />
        </clipPath>
    </defs>
    <g clip-path="url(#master_svg0_345_2283)">
        <g>
            <path
                d="M10.57574,6.174264Q10.491340000000001,6.089873,10.44567,5.97961Q10.4,5.869347,10.4,5.75Q10.4,5.6909051999999996,10.411529999999999,5.632946Q10.42306,5.574986,10.44567,5.52039Q10.46829,5.465793,10.50112,5.416658Q10.53395,5.367522,10.57574,5.325736Q10.617519999999999,5.28395,10.66666,5.251118Q10.71579,5.218287,10.770389999999999,5.195672Q10.82499,5.173058,10.882950000000001,5.161529Q10.9409,5.15,11,5.15Q11.11935,5.15,11.229610000000001,5.195672Q11.33987,5.241345,11.42426,5.325736L13.67426,7.57574Q13.758659999999999,7.6601300000000005,13.80433,7.77039Q13.85,7.88065,13.85,8Q13.85,8.11935,13.80433,8.229610000000001Q13.758659999999999,8.33987,13.67426,8.42426L11.42426,10.67426Q11.33987,10.758659999999999,11.229610000000001,10.80433Q11.11935,10.85,11,10.85Q10.9409,10.85,10.882950000000001,10.838470000000001Q10.82499,10.82694,10.770389999999999,10.80433Q10.71579,10.78171,10.66666,10.74888Q10.617519999999999,10.71605,10.57574,10.67426Q10.53395,10.632480000000001,10.50112,10.58334Q10.46829,10.53421,10.44567,10.479610000000001Q10.42306,10.42501,10.411529999999999,10.367049999999999Q10.4,10.309090000000001,10.4,10.25Q10.4,10.13065,10.44567,10.020389999999999Q10.491340000000001,9.910129999999999,10.57574,9.82574L10.57593,9.82554L11.80147,8.6L8,8.6Q7.9409051999999996,8.6,7.882946,8.588470000000001Q7.824986,8.57694,7.77039,8.55433Q7.715793,8.53171,7.666658,8.49888Q7.617522,8.46605,7.575736,8.42426Q7.53395,8.382480000000001,7.501118,8.33334Q7.468287,8.28421,7.445672,8.229610000000001Q7.423058,8.17501,7.411529,8.117049999999999Q7.4,8.05909,7.4,8Q7.4,7.9409,7.411529,7.88295Q7.423058,7.82499,7.445672,7.77039Q7.468287,7.71579,7.501118,7.66666Q7.53395,7.61752,7.575736,7.57574Q7.617522,7.53395,7.666658,7.50112Q7.715793,7.46829,7.77039,7.44567Q7.824986,7.4230599999999995,7.882946,7.41153Q7.9409051999999996,7.4,8,7.4L8.000378221,7.4L11.80147,7.4L10.57584,6.174371L10.57574,6.174264Z"
                fill-rule="evenodd" fill="#333333" fill-opacity="1" />
        </g>
        <g>
            <path
                d="M13.85,13.25L13.85,12.5Q13.85,12.4409,13.8385,12.3829Q13.8269,12.325,13.8043,12.2704Q13.7817,12.2158,13.7489,12.1667Q13.7161,12.1175,13.6743,12.0757Q13.6325,12.0339,13.5833,12.0011Q13.5342,11.9683,13.4796,11.9457Q13.425,11.9231,13.3671,11.9115Q13.3091,11.9,13.25,11.9Q13.1909,11.9,13.1329,11.9115Q13.075,11.9231,13.0204,11.9457Q12.9658,11.9683,12.9167,12.0011Q12.8675,12.0339,12.8257,12.0757Q12.7839,12.1175,12.7511,12.1667Q12.71829,12.2158,12.69567,12.2704Q12.67306,12.325,12.66153,12.3829Q12.65,12.4409,12.65,12.5L12.65,13.25Q12.65,13.6228,12.38641,13.8864Q12.12281,14.15,11.75,14.15L4.25,14.15Q3.8772,14.15,3.613602,13.8864Q3.35,13.6228,3.35,13.25L3.35,2.75Q3.35,2.37721,3.613604,2.113604Q3.87721,1.85,4.25,1.85L11.75,1.85Q12.12281,1.85,12.3864,2.113602Q12.65,2.3772,12.65,2.75L12.65,3.5Q12.65,3.55909,12.66153,3.61705Q12.67306,3.67501,12.69567,3.72961Q12.71829,3.78421,12.7511,3.83334Q12.7839,3.88248,12.8257,3.92426Q12.8675,3.96605,12.9167,3.99888Q12.9658,4.03171,13.0204,4.05433Q13.075,4.0769400000000005,13.1329,4.08847Q13.1909,4.1,13.25,4.1Q13.3091,4.1,13.3671,4.08847Q13.425,4.0769400000000005,13.4796,4.05433Q13.5342,4.03171,13.5833,3.99888Q13.6325,3.96605,13.6743,3.92426Q13.7161,3.88248,13.7489,3.83334Q13.7817,3.78421,13.8043,3.72961Q13.8269,3.67501,13.8385,3.61705Q13.85,3.55909,13.85,3.5L13.85,2.75Q13.85,1.8801480000000002,13.2349,1.2650778Q12.61986,0.65,11.75,0.65L4.25,0.65Q3.380151,0.65,2.7650756,1.2650756Q2.15,1.8801510000000001,2.15,2.75L2.15,13.25Q2.15,14.1199,2.7650778,14.7349Q3.380149,15.35,4.25,15.35L11.75,15.35Q12.61987,15.35,13.2349,14.7349Q13.85,14.1199,13.85,13.25Z"
                fill-rule="evenodd" fill="#333333" fill-opacity="1" />
        </g>
    </g>
</svg>