<svg xmlns="http://www.w3.org/2000/svg" xmlns:xlink="http://www.w3.org/1999/xlink" fill="none" version="1.1" width="18" height="18" viewBox="0 0 18 18"><defs><clipPath id="master_svg0_52_4"><rect x="0" y="0" width="18" height="18" rx="0"/></clipPath></defs><g clip-path="url(#master_svg0_52_4)"><g><path d="M13.5,5.25L16.5,5.25L16.5,6.75L12,6.75L12,2.25L13.5,2.25L13.5,5.25ZM6,6.75L1.5,6.75L1.5,5.25L4.5,5.25L4.5,2.25L6,2.25L6,6.75ZM13.5,12.75L13.5,15.75L12,15.75L12,11.25L16.5,11.25L16.5,12.75L13.5,12.75ZM6,11.25L6,15.75L4.5,15.75L4.5,12.75L1.5,12.75L1.5,11.25L6,11.25Z" fill="#FFFFFF" fill-opacity="1"/></g></g></svg>