<svg xmlns="http://www.w3.org/2000/svg" xmlns:xlink="http://www.w3.org/1999/xlink" fill="none" version="1.1" width="16" height="16" viewBox="0 0 16 16"><g><g><path d="M11.20703125,3.316748046875L12.95703125,3.316748046875Q13.01612125,3.316748046875,13.07408125,3.328277046875Q13.13204125,3.339806046875,13.186641250000001,3.362420046875Q13.24124125,3.385035046875,13.29037125,3.417866046875Q13.339511250000001,3.450698046875,13.38129125,3.492484046875Q13.42308125,3.534270046875,13.45591125,3.583406046875Q13.48874125,3.632541046875,13.51136125,3.687138046875Q13.53397125,3.741734046875,13.545501250000001,3.799694046875Q13.55703125,3.857653246875,13.55703125,3.916748046875Q13.55703125,3.975842846875,13.545501250000001,4.033802046875Q13.53397125,4.091762046875,13.51136125,4.146358046875Q13.48874125,4.200955046875,13.45591125,4.250090046875Q13.42308125,4.299226046875,13.38129125,4.341012046875Q13.339511250000001,4.382798046875,13.29037125,4.415630046875Q13.24124125,4.448461046875,13.186641250000001,4.471076046875Q13.13204125,4.493690046875,13.07408125,4.505219046875Q13.01612125,4.516748046875,12.95703125,4.516748046875L11.20703125,4.516748046875Q11.14793645,4.516748046875,11.08997725,4.505219046875Q11.032017249999999,4.493690046875,10.97742125,4.471076046875Q10.92282425,4.448461046875,10.87368925,4.415630046875Q10.82455325,4.382798046875,10.78276725,4.341012046875Q10.74098125,4.299226046875,10.70814925,4.250090046875Q10.67531825,4.200955046875,10.65270325,4.146358046875Q10.63008925,4.091762046875,10.61856025,4.033802046875Q10.60703125,3.975842846875,10.60703125,3.916748046875Q10.60703125,3.857653246875,10.61856025,3.799694046875Q10.63008925,3.741734046875,10.65270325,3.687138046875Q10.67531825,3.632541046875,10.70814925,3.583406046875Q10.74098125,3.534270046875,10.78276725,3.492484046875Q10.82455325,3.450698046875,10.87368925,3.417866046875Q10.92282425,3.385035046875,10.97742125,3.362420046875Q11.032017249999999,3.339806046875,11.08997725,3.328277046875Q11.14793645,3.316748046875,11.20703125,3.316748046875Z" fill-rule="evenodd" fill="#262626" fill-opacity="1"/></g><g><path d="M8.275,2.75Q8.275,2.6909052,8.286529,2.632946Q8.298058,2.574986,8.320672,2.52039Q8.343287,2.465793,8.376118,2.416658Q8.40895,2.367522,8.450736,2.325736Q8.492522,2.28395,8.541658,2.251118Q8.590793,2.218287,8.64539,2.195672Q8.699985999999999,2.173058,8.757946,2.161529Q8.8159052,2.15,8.875,2.15Q8.9340948,2.15,8.992054,2.161529Q9.050014000000001,2.173058,9.10461,2.195672Q9.159207,2.218287,9.208342,2.251118Q9.257478,2.28395,9.299264,2.325736Q9.34105,2.367522,9.373882,2.416658Q9.406713,2.465793,9.429328,2.52039Q9.451942,2.574986,9.463471,2.632946Q9.475,2.6909052,9.475,2.75L9.475,5.08333Q9.475,5.14243,9.463471,5.2003900000000005Q9.451942,5.25835,9.429328,5.31294Q9.406713,5.36754,9.373882,5.4166799999999995Q9.34105,5.465809999999999,9.299264,5.5076Q9.257478,5.54938,9.208342,5.58221Q9.159207,5.61505,9.10461,5.63766Q9.050014000000001,5.66028,8.992054,5.6718Q8.9340948,5.68333,8.875,5.68333Q8.8159052,5.68333,8.757946,5.6718Q8.699985999999999,5.66028,8.64539,5.63766Q8.590793,5.61505,8.541658,5.58221Q8.492522,5.54938,8.450736,5.5076Q8.40895,5.465809999999999,8.376118,5.4166799999999995Q8.343287,5.36754,8.320672,5.31294Q8.298058,5.25835,8.286529,5.2003900000000005Q8.275,5.14243,8.275,5.08333L8.275,2.75Z" fill-rule="evenodd" fill="#262626" fill-opacity="1"/></g><g><path d="M2.45703125,3.316748046875L8.87370125,3.316748046875Q8.932791250000001,3.316748046875,8.990751249999999,3.328277046875Q9.04871125,3.339806046875,9.10331125,3.362420046875Q9.15790125,3.385035046875,9.20704125,3.417866046875Q9.256171250000001,3.450698046875,9.29796125,3.492484046875Q9.339751249999999,3.534270046875,9.37258125,3.583406046875Q9.40541125,3.632541046875,9.42802125,3.687138046875Q9.45064125,3.741734046875,9.46217125,3.799694046875Q9.473701250000001,3.857653246875,9.473701250000001,3.916748046875Q9.473701250000001,3.975842846875,9.46217125,4.033802046875Q9.45064125,4.091762046875,9.42802125,4.146358046875Q9.40541125,4.200955046875,9.37258125,4.250090046875Q9.339751249999999,4.299226046875,9.29796125,4.341012046875Q9.256171250000001,4.382798046875,9.20704125,4.415630046875Q9.15790125,4.448461046875,9.10331125,4.471076046875Q9.04871125,4.493690046875,8.990751249999999,4.505219046875Q8.932791250000001,4.516748046875,8.87370125,4.516748046875L2.45703125,4.516748046875Q2.39793645,4.516748046875,2.33997725,4.505219046875Q2.28201725,4.493690046875,2.22742125,4.471076046875Q2.17282425,4.448461046875,2.12368925,4.415630046875Q2.07455325,4.382798046875,2.03276725,4.341012046875Q1.99098125,4.299226046875,1.95814925,4.250090046875Q1.9253182500000001,4.200955046875,1.90270325,4.146358046875Q1.8800892500000002,4.091762046875,1.86856025,4.033802046875Q1.85703125,3.975842846875,1.85703125,3.916748046875Q1.85703125,3.857653246875,1.86856025,3.799694046875Q1.8800892500000002,3.741734046875,1.90270325,3.687138046875Q1.9253182500000001,3.632541046875,1.95814925,3.583406046875Q1.99098125,3.534270046875,2.03276725,3.492484046875Q2.07455325,3.450698046875,2.12368925,3.417866046875Q2.17282425,3.385035046875,2.22742125,3.362420046875Q2.28201725,3.339806046875,2.33997725,3.328277046875Q2.39793645,3.316748046875,2.45703125,3.316748046875Z" fill-rule="evenodd" fill="#262626" fill-opacity="1"/></g><g><path d="M2.45703125,7.4L4.79036125,7.4Q4.84946125,7.4,4.9074212500000005,7.411529Q4.96538125,7.423058,5.01997125,7.445672Q5.07457125,7.468287,5.1237112499999995,7.501118Q5.172841249999999,7.53395,5.21463125,7.575736Q5.25641125,7.617522,5.28924125,7.666658Q5.32208125,7.715793,5.34469125,7.77039Q5.36731125,7.824986,5.37883125,7.882946Q5.39036125,7.9409051999999996,5.39036125,8Q5.39036125,8.0590948,5.37883125,8.117054Q5.36731125,8.175014000000001,5.34469125,8.22961Q5.32208125,8.284207,5.28924125,8.333342Q5.25641125,8.382478,5.21463125,8.424264Q5.172841249999999,8.46605,5.1237112499999995,8.498882Q5.07457125,8.531713,5.01997125,8.554328Q4.96538125,8.576942,4.9074212500000005,8.588471Q4.84946125,8.6,4.79036125,8.6L2.45703125,8.6Q2.39793645,8.6,2.33997725,8.588471Q2.28201725,8.576942,2.22742125,8.554328Q2.17282425,8.531713,2.12368925,8.498882Q2.07455325,8.46605,2.03276725,8.424264Q1.99098125,8.382478,1.95814925,8.333342Q1.9253182500000001,8.284207,1.90270325,8.22961Q1.8800892500000002,8.175014000000001,1.86856025,8.117054Q1.85703125,8.0590948,1.85703125,8Q1.85703125,7.9409051999999996,1.86856025,7.882946Q1.8800892500000002,7.824986,1.90270325,7.77039Q1.9253182500000001,7.715793,1.95814925,7.666658Q1.99098125,7.617522,2.03276725,7.575736Q2.07455325,7.53395,2.12368925,7.501118Q2.17282425,7.468287,2.22742125,7.445672Q2.28201725,7.423058,2.33997725,7.411529Q2.39793645,7.4,2.45703125,7.4Z" fill-rule="evenodd" fill="#262626" fill-opacity="1"/></g><g><path d="M6.525,6.8333740234375Q6.525,6.7742792234374996,6.536529,6.7163200234375Q6.548058,6.6583600234375,6.570672,6.6037640234375Q6.593287,6.5491670234375,6.626118,6.5000320234375Q6.65895,6.4508960234375,6.700736,6.4091100234375Q6.742522,6.3673240234375,6.791658,6.3344920234375Q6.840793,6.3016610234375,6.89539,6.2790460234375Q6.949986,6.2564320234375,7.007946,6.2449030234375Q7.0659051999999996,6.2333740234375,7.125,6.2333740234375Q7.1840948000000004,6.2333740234375,7.242054,6.2449030234375Q7.300014,6.2564320234375,7.35461,6.2790460234375Q7.409207,6.3016610234375,7.458342,6.3344920234375Q7.507478,6.3673240234375,7.549264,6.4091100234375Q7.59105,6.4508960234375,7.623882,6.5000320234375Q7.656713,6.5491670234375,7.679328,6.6037640234375Q7.701942,6.6583600234375,7.713471,6.7163200234375Q7.725,6.7742792234374996,7.725,6.8333740234375L7.725,9.1667040234375Q7.725,9.225804023437501,7.713471,9.2837640234375Q7.701942,9.3417240234375,7.679328,9.396314023437501Q7.656713,9.4509140234375,7.623882,9.5000540234375Q7.59105,9.5491840234375,7.549264,9.5909740234375Q7.507478,9.6327540234375,7.458342,9.6655840234375Q7.409207,9.6984240234375,7.35461,9.7210340234375Q7.300014,9.7436540234375,7.242054,9.755174023437501Q7.1840948000000004,9.7667040234375,7.125,9.7667040234375Q7.0659051999999996,9.7667040234375,7.007946,9.755174023437501Q6.949986,9.7436540234375,6.89539,9.7210340234375Q6.840793,9.6984240234375,6.791658,9.6655840234375Q6.742522,9.6327540234375,6.700736,9.5909740234375Q6.65895,9.5491840234375,6.626118,9.5000540234375Q6.593287,9.4509140234375,6.570672,9.396314023437501Q6.548058,9.3417240234375,6.536529,9.2837640234375Q6.525,9.225804023437501,6.525,9.1667040234375L6.525,6.8333740234375Z" fill-rule="evenodd" fill="#262626" fill-opacity="1"/></g><g><path d="M7.125,7.4L13.54167,7.4Q13.600760000000001,7.4,13.658719999999999,7.411529Q13.71668,7.423058,13.77128,7.445672Q13.82587,7.468287,13.87501,7.501118Q13.924140000000001,7.53395,13.96593,7.575736Q14.007719999999999,7.617522,14.04055,7.666658Q14.07338,7.715793,14.09599,7.77039Q14.11861,7.824986,14.13014,7.882946Q14.141670000000001,7.9409051999999996,14.141670000000001,8Q14.141670000000001,8.0590948,14.13014,8.117054Q14.11861,8.175014000000001,14.09599,8.22961Q14.07338,8.284207,14.04055,8.333342Q14.007719999999999,8.382478,13.96593,8.424264Q13.924140000000001,8.46605,13.87501,8.498882Q13.82587,8.531713,13.77128,8.554328Q13.71668,8.576942,13.658719999999999,8.588471Q13.600760000000001,8.6,13.54167,8.6L7.125,8.6Q7.0659051999999996,8.6,7.007946,8.588471Q6.949986,8.576942,6.89539,8.554328Q6.840793,8.531713,6.791658,8.498882Q6.742522,8.46605,6.700736,8.424264Q6.65895,8.382478,6.626118,8.333342Q6.593287,8.284207,6.570672,8.22961Q6.548058,8.175014000000001,6.536529,8.117054Q6.525,8.0590948,6.525,8Q6.525,7.9409051999999996,6.536529,7.882946Q6.548058,7.824986,6.570672,7.77039Q6.593287,7.715793,6.626118,7.666658Q6.65895,7.617522,6.700736,7.575736Q6.742522,7.53395,6.791658,7.501118Q6.840793,7.468287,6.89539,7.445672Q6.949986,7.423058,7.007946,7.411529Q7.0659051999999996,7.4,7.125,7.4Z" fill-rule="evenodd" fill="#262626" fill-opacity="1"/></g><g><path d="M11.20703125,11.4833740234375L12.95703125,11.4833740234375Q13.01612125,11.4833740234375,13.07408125,11.4949030234375Q13.13204125,11.5064320234375,13.186641250000001,11.5290460234375Q13.24124125,11.5516610234375,13.29037125,11.5844920234375Q13.339511250000001,11.6173240234375,13.38129125,11.6591100234375Q13.42308125,11.7008960234375,13.45591125,11.7500320234375Q13.48874125,11.7991670234375,13.51136125,11.8537640234375Q13.53397125,11.908360023437499,13.545501250000001,11.9663200234375Q13.55703125,12.0242792234375,13.55703125,12.0833740234375Q13.55703125,12.1424688234375,13.545501250000001,12.2004280234375Q13.53397125,12.258388023437501,13.51136125,12.3129840234375Q13.48874125,12.3675810234375,13.45591125,12.4167160234375Q13.42308125,12.4658520234375,13.38129125,12.5076380234375Q13.339511250000001,12.5494240234375,13.29037125,12.5822560234375Q13.24124125,12.6150870234375,13.186641250000001,12.6377020234375Q13.13204125,12.6603160234375,13.07408125,12.6718450234375Q13.01612125,12.6833740234375,12.95703125,12.6833740234375L11.20703125,12.6833740234375Q11.14793645,12.6833740234375,11.08997725,12.6718450234375Q11.032017249999999,12.6603160234375,10.97742125,12.6377020234375Q10.92282425,12.6150870234375,10.87368925,12.5822560234375Q10.82455325,12.5494240234375,10.78276725,12.5076380234375Q10.74098125,12.4658520234375,10.70814925,12.4167160234375Q10.67531825,12.3675810234375,10.65270325,12.3129840234375Q10.63008925,12.258388023437501,10.61856025,12.2004280234375Q10.60703125,12.1424688234375,10.60703125,12.0833740234375Q10.60703125,12.0242792234375,10.61856025,11.9663200234375Q10.63008925,11.908360023437499,10.65270325,11.8537640234375Q10.67531825,11.7991670234375,10.70814925,11.7500320234375Q10.74098125,11.7008960234375,10.78276725,11.6591100234375Q10.82455325,11.6173240234375,10.87368925,11.5844920234375Q10.92282425,11.5516610234375,10.97742125,11.5290460234375Q11.032017249999999,11.5064320234375,11.08997725,11.4949030234375Q11.14793645,11.4833740234375,11.20703125,11.4833740234375Z" fill-rule="evenodd" fill="#262626" fill-opacity="1"/></g><g><path d="M8.275,10.9166259765625Q8.275,10.8575311765625,8.286529,10.7995719765625Q8.298058,10.741611976562499,8.320672,10.6870159765625Q8.343287,10.6324189765625,8.376118,10.5832839765625Q8.40895,10.5341479765625,8.450736,10.4923619765625Q8.492522,10.4505759765625,8.541658,10.4177439765625Q8.590793,10.3849129765625,8.64539,10.3622979765625Q8.699985999999999,10.3396839765625,8.757946,10.3281549765625Q8.8159052,10.3166259765625,8.875,10.3166259765625Q8.9340948,10.3166259765625,8.992054,10.3281549765625Q9.050014000000001,10.3396839765625,9.10461,10.3622979765625Q9.159207,10.3849129765625,9.208342,10.4177439765625Q9.257478,10.4505759765625,9.299264,10.4923619765625Q9.34105,10.5341479765625,9.373882,10.5832839765625Q9.406713,10.6324189765625,9.429328,10.6870159765625Q9.451942,10.741611976562499,9.463471,10.7995719765625Q9.475,10.8575311765625,9.475,10.9166259765625L9.475,13.2499559765625Q9.475,13.309055976562501,9.463471,13.3670159765625Q9.451942,13.4249759765625,9.429328,13.479565976562501Q9.406713,13.5341659765625,9.373882,13.5833059765625Q9.34105,13.6324359765625,9.299264,13.6742259765625Q9.257478,13.7160059765625,9.208342,13.7488359765625Q9.159207,13.7816759765625,9.10461,13.8042859765625Q9.050014000000001,13.8269059765625,8.992054,13.838425976562501Q8.9340948,13.8499559765625,8.875,13.8499559765625Q8.8159052,13.8499559765625,8.757946,13.838425976562501Q8.699985999999999,13.8269059765625,8.64539,13.8042859765625Q8.590793,13.7816759765625,8.541658,13.7488359765625Q8.492522,13.7160059765625,8.450736,13.6742259765625Q8.40895,13.6324359765625,8.376118,13.5833059765625Q8.343287,13.5341659765625,8.320672,13.479565976562501Q8.298058,13.4249759765625,8.286529,13.3670159765625Q8.275,13.309055976562501,8.275,13.2499559765625L8.275,10.9166259765625Z" fill-rule="evenodd" fill="#262626" fill-opacity="1"/></g><g><path d="M2.45703125,11.4833740234375L8.87370125,11.4833740234375Q8.932791250000001,11.4833740234375,8.990751249999999,11.4949030234375Q9.04871125,11.5064320234375,9.10331125,11.5290460234375Q9.15790125,11.5516610234375,9.20704125,11.5844920234375Q9.256171250000001,11.6173240234375,9.29796125,11.6591100234375Q9.339751249999999,11.7008960234375,9.37258125,11.7500320234375Q9.40541125,11.7991670234375,9.42802125,11.8537640234375Q9.45064125,11.908360023437499,9.46217125,11.9663200234375Q9.473701250000001,12.0242792234375,9.473701250000001,12.0833740234375Q9.473701250000001,12.1424688234375,9.46217125,12.2004280234375Q9.45064125,12.258388023437501,9.42802125,12.3129840234375Q9.40541125,12.3675810234375,9.37258125,12.4167160234375Q9.339751249999999,12.4658520234375,9.29796125,12.5076380234375Q9.256171250000001,12.5494240234375,9.20704125,12.5822560234375Q9.15790125,12.6150870234375,9.10331125,12.6377020234375Q9.04871125,12.6603160234375,8.990751249999999,12.6718450234375Q8.932791250000001,12.6833740234375,8.87370125,12.6833740234375L2.45703125,12.6833740234375Q2.39793645,12.6833740234375,2.33997725,12.6718450234375Q2.28201725,12.6603160234375,2.22742125,12.6377020234375Q2.17282425,12.6150870234375,2.12368925,12.5822560234375Q2.07455325,12.5494240234375,2.03276725,12.5076380234375Q1.99098125,12.4658520234375,1.95814925,12.4167160234375Q1.9253182500000001,12.3675810234375,1.90270325,12.3129840234375Q1.8800892500000002,12.258388023437501,1.86856025,12.2004280234375Q1.85703125,12.1424688234375,1.85703125,12.0833740234375Q1.85703125,12.0242792234375,1.86856025,11.9663200234375Q1.8800892500000002,11.908360023437499,1.90270325,11.8537640234375Q1.9253182500000001,11.7991670234375,1.95814925,11.7500320234375Q1.99098125,11.7008960234375,2.03276725,11.6591100234375Q2.07455325,11.6173240234375,2.12368925,11.5844920234375Q2.17282425,11.5516610234375,2.22742125,11.5290460234375Q2.28201725,11.5064320234375,2.33997725,11.4949030234375Q2.39793645,11.4833740234375,2.45703125,11.4833740234375Z" fill-rule="evenodd" fill="#262626" fill-opacity="1"/></g></g></svg>