<svg xmlns="http://www.w3.org/2000/svg" xmlns:xlink="http://www.w3.org/1999/xlink" fill="none" version="1.1" width="14" height="14" viewBox="0 0 14 14"><defs><clipPath id="master_svg0_922_9942"><rect x="0" y="0" width="14" height="14" rx="0"/></clipPath></defs><g clip-path="url(#master_svg0_922_9942)"><g><path d="M10.3541259765625,2.31668701171875L12.1041259765625,2.31668701171875Q12.1632159765625,2.31668701171875,12.2211759765625,2.32821601171875Q12.2791359765625,2.33974501171875,12.333735976562501,2.36235901171875Q12.3883359765625,2.38497401171875,12.4374659765625,2.41780501171875Q12.486605976562501,2.45063701171875,12.5283859765625,2.49242301171875Q12.5701759765625,2.53420901171875,12.6030059765625,2.58334501171875Q12.6358359765625,2.63248001171875,12.6584559765625,2.68707701171875Q12.6810659765625,2.74167301171875,12.692595976562501,2.79963301171875Q12.7041259765625,2.85759221171875,12.7041259765625,2.91668701171875Q12.7041259765625,2.97578181171875,12.692595976562501,3.03374101171875Q12.6810659765625,3.09170101171875,12.6584559765625,3.14629701171875Q12.6358359765625,3.20089401171875,12.6030059765625,3.25002901171875Q12.5701759765625,3.29916501171875,12.5283859765625,3.34095101171875Q12.486605976562501,3.38273701171875,12.4374659765625,3.41556901171875Q12.3883359765625,3.44840001171875,12.333735976562501,3.47101501171875Q12.2791359765625,3.49362901171875,12.2211759765625,3.50515801171875Q12.1632159765625,3.51668701171875,12.1041259765625,3.51668701171875L10.3541259765625,3.51668701171875Q10.2950311765625,3.51668701171875,10.2370719765625,3.50515801171875Q10.179111976562499,3.49362901171875,10.1245159765625,3.47101501171875Q10.0699189765625,3.44840001171875,10.0207839765625,3.41556901171875Q9.9716479765625,3.38273701171875,9.9298619765625,3.34095101171875Q9.8880759765625,3.29916501171875,9.8552439765625,3.25002901171875Q9.8224129765625,3.20089401171875,9.7997979765625,3.14629701171875Q9.7771839765625,3.09170101171875,9.7656549765625,3.03374101171875Q9.7541259765625,2.97578181171875,9.7541259765625,2.91668701171875Q9.7541259765625,2.85759221171875,9.7656549765625,2.79963301171875Q9.7771839765625,2.74167301171875,9.7997979765625,2.68707701171875Q9.8224129765625,2.63248001171875,9.8552439765625,2.58334501171875Q9.8880759765625,2.53420901171875,9.9298619765625,2.49242301171875Q9.9716479765625,2.45063701171875,10.0207839765625,2.41780501171875Q10.0699189765625,2.38497401171875,10.1245159765625,2.36235901171875Q10.179111976562499,2.33974501171875,10.2370719765625,2.32821601171875Q10.2950311765625,2.31668701171875,10.3541259765625,2.31668701171875Z" fill-rule="evenodd" fill="#262626" fill-opacity="1"/></g><g><path d="M7.4208740234375,1.75Q7.4208740234375,1.6909052,7.4324030234375,1.632946Q7.4439320234375,1.574986,7.4665460234375,1.52039Q7.4891610234375,1.4657930000000001,7.5219920234375,1.416658Q7.5548240234375,1.3675220000000001,7.5966100234375,1.325736Q7.6383960234375,1.28395,7.6875320234375,1.251118Q7.7366670234375,1.2182870000000001,7.7912640234375,1.195672Q7.8458600234375,1.1730580000000002,7.9038200234375,1.161529Q7.9617792234374996,1.15,8.0208740234375,1.15Q8.0799688234375,1.15,8.1379280234375,1.161529Q8.195888023437501,1.1730580000000002,8.2504840234375,1.195672Q8.3050810234375,1.2182870000000001,8.3542160234375,1.251118Q8.4033520234375,1.28395,8.4451380234375,1.325736Q8.4869240234375,1.3675220000000001,8.5197560234375,1.416658Q8.5525870234375,1.4657930000000001,8.5752020234375,1.52039Q8.5978160234375,1.574986,8.6093450234375,1.632946Q8.6208740234375,1.6909052,8.6208740234375,1.75L8.6208740234375,4.08333Q8.6208740234375,4.14243,8.6093450234375,4.2003900000000005Q8.5978160234375,4.25835,8.5752020234375,4.31294Q8.5525870234375,4.36754,8.5197560234375,4.4166799999999995Q8.4869240234375,4.465809999999999,8.4451380234375,4.5076Q8.4033520234375,4.54938,8.3542160234375,4.58221Q8.3050810234375,4.61505,8.2504840234375,4.63766Q8.195888023437501,4.66028,8.1379280234375,4.6718Q8.0799688234375,4.68333,8.0208740234375,4.68333Q7.9617792234374996,4.68333,7.9038200234375,4.6718Q7.8458600234375,4.66028,7.7912640234375,4.63766Q7.7366670234375,4.61505,7.6875320234375,4.58221Q7.6383960234375,4.54938,7.5966100234375,4.5076Q7.5548240234375,4.465809999999999,7.5219920234375,4.4166799999999995Q7.4891610234375,4.36754,7.4665460234375,4.31294Q7.4439320234375,4.25835,7.4324030234375,4.2003900000000005Q7.4208740234375,4.14243,7.4208740234375,4.08333L7.4208740234375,1.75Z" fill-rule="evenodd" fill="#262626" fill-opacity="1"/></g><g><path d="M1.6041259765625,2.31668701171875L8.0207959765625,2.31668701171875Q8.079885976562501,2.31668701171875,8.137845976562499,2.32821601171875Q8.1958059765625,2.33974501171875,8.2504059765625,2.36235901171875Q8.3049959765625,2.38497401171875,8.3541359765625,2.41780501171875Q8.403265976562501,2.45063701171875,8.4450559765625,2.49242301171875Q8.486845976562499,2.53420901171875,8.5196759765625,2.58334501171875Q8.5525059765625,2.63248001171875,8.5751159765625,2.68707701171875Q8.5977359765625,2.74167301171875,8.6092659765625,2.79963301171875Q8.620795976562501,2.85759221171875,8.620795976562501,2.91668701171875Q8.620795976562501,2.97578181171875,8.6092659765625,3.03374101171875Q8.5977359765625,3.09170101171875,8.5751159765625,3.14629701171875Q8.5525059765625,3.20089401171875,8.5196759765625,3.25002901171875Q8.486845976562499,3.29916501171875,8.4450559765625,3.34095101171875Q8.403265976562501,3.38273701171875,8.3541359765625,3.41556901171875Q8.3049959765625,3.44840001171875,8.2504059765625,3.47101501171875Q8.1958059765625,3.49362901171875,8.137845976562499,3.50515801171875Q8.079885976562501,3.51668701171875,8.0207959765625,3.51668701171875L1.6041259765625,3.51668701171875Q1.5450311765625,3.51668701171875,1.4870719765625,3.50515801171875Q1.4291119765625,3.49362901171875,1.3745159765625,3.47101501171875Q1.3199189765625001,3.44840001171875,1.2707839765625,3.41556901171875Q1.2216479765625001,3.38273701171875,1.1798619765625,3.34095101171875Q1.1380759765625,3.29916501171875,1.1052439765625,3.25002901171875Q1.0724129765625001,3.20089401171875,1.0497979765625,3.14629701171875Q1.0271839765625002,3.09170101171875,1.0156549765625,3.03374101171875Q1.0041259765625,2.97578181171875,1.0041259765625,2.91668701171875Q1.0041259765625,2.85759221171875,1.0156549765625,2.79963301171875Q1.0271839765625002,2.74167301171875,1.0497979765625,2.68707701171875Q1.0724129765625001,2.63248001171875,1.1052439765625,2.58334501171875Q1.1380759765625,2.53420901171875,1.1798619765625,2.49242301171875Q1.2216479765625001,2.45063701171875,1.2707839765625,2.41780501171875Q1.3199189765625001,2.38497401171875,1.3745159765625,2.36235901171875Q1.4291119765625,2.33974501171875,1.4870719765625,2.32821601171875Q1.5450311765625,2.31668701171875,1.6041259765625,2.31668701171875Z" fill-rule="evenodd" fill="#262626" fill-opacity="1"/></g><g><path d="M1.6041259765625,6.4L3.9374559765625,6.4Q3.9965559765625,6.4,4.0545159765625005,6.411529Q4.1124759765625,6.423058,4.1670659765625,6.445672Q4.2216659765625,6.468287,4.2708059765624995,6.501118Q4.319935976562499,6.53395,4.3617259765625,6.575736Q4.4035059765625,6.617522,4.4363359765625,6.666658Q4.4691759765625,6.715793,4.4917859765625,6.77039Q4.5144059765625,6.824986,4.5259259765625,6.882946Q4.5374559765625,6.9409051999999996,4.5374559765625,7Q4.5374559765625,7.0590948000000004,4.5259259765625,7.117054Q4.5144059765625,7.175014,4.4917859765625,7.22961Q4.4691759765625,7.284207,4.4363359765625,7.333342Q4.4035059765625,7.382478,4.3617259765625,7.424264Q4.319935976562499,7.46605,4.2708059765624995,7.498882Q4.2216659765625,7.531713,4.1670659765625,7.554328Q4.1124759765625,7.576942,4.0545159765625005,7.588471Q3.9965559765625,7.6,3.9374559765625,7.6L1.6041259765625,7.6Q1.5450311765625,7.6,1.4870719765625,7.588471Q1.4291119765625,7.576942,1.3745159765625,7.554328Q1.3199189765625001,7.531713,1.2707839765625,7.498882Q1.2216479765625001,7.46605,1.1798619765625,7.424264Q1.1380759765625,7.382478,1.1052439765625,7.333342Q1.0724129765625001,7.284207,1.0497979765625,7.22961Q1.0271839765625002,7.175014,1.0156549765625,7.117054Q1.0041259765625,7.0590948000000004,1.0041259765625,7Q1.0041259765625,6.9409051999999996,1.0156549765625,6.882946Q1.0271839765625002,6.824986,1.0497979765625,6.77039Q1.0724129765625001,6.715793,1.1052439765625,6.666658Q1.1380759765625,6.617522,1.1798619765625,6.575736Q1.2216479765625001,6.53395,1.2707839765625,6.501118Q1.3199189765625001,6.468287,1.3745159765625,6.445672Q1.4291119765625,6.423058,1.4870719765625,6.411529Q1.5450311765625,6.4,1.6041259765625,6.4Z" fill-rule="evenodd" fill="#262626" fill-opacity="1"/></g><g><path d="M5.6708740234375,5.833343505859375Q5.6708740234375,5.7742487058593746,5.6824030234375,5.716289505859375Q5.6939320234375,5.658329505859375,5.7165460234375,5.603733505859375Q5.7391610234375,5.549136505859375,5.7719920234375,5.500001505859375Q5.8048240234375,5.450865505859375,5.8466100234375,5.409079505859375Q5.8883960234375,5.367293505859375,5.9375320234375,5.334461505859375Q5.9866670234375,5.301630505859375,6.0412640234375,5.279015505859375Q6.0958600234375,5.256401505859375,6.1538200234375,5.244872505859375Q6.2117792234374996,5.233343505859375,6.2708740234375,5.233343505859375Q6.3299688234375004,5.233343505859375,6.3879280234375,5.244872505859375Q6.4458880234375,5.256401505859375,6.5004840234375,5.279015505859375Q6.5550810234375,5.301630505859375,6.6042160234375,5.334461505859375Q6.6533520234375,5.367293505859375,6.6951380234375,5.409079505859375Q6.7369240234375,5.450865505859375,6.7697560234375,5.500001505859375Q6.8025870234375,5.549136505859375,6.8252020234375,5.603733505859375Q6.8478160234375,5.658329505859375,6.8593450234375,5.716289505859375Q6.8708740234375,5.7742487058593746,6.8708740234375,5.833343505859375L6.8708740234375,8.166673505859375Q6.8708740234375,8.225773505859376,6.8593450234375,8.283733505859376Q6.8478160234375,8.341693505859375,6.8252020234375,8.396283505859376Q6.8025870234375,8.450883505859375,6.7697560234375,8.500023505859374Q6.7369240234375,8.549153505859374,6.6951380234375,8.590943505859375Q6.6533520234375,8.632723505859374,6.6042160234375,8.665553505859375Q6.5550810234375,8.698393505859375,6.5004840234375,8.721003505859375Q6.4458880234375,8.743623505859375,6.3879280234375,8.755143505859376Q6.3299688234375004,8.766673505859375,6.2708740234375,8.766673505859375Q6.2117792234374996,8.766673505859375,6.1538200234375,8.755143505859376Q6.0958600234375,8.743623505859375,6.0412640234375,8.721003505859375Q5.9866670234375,8.698393505859375,5.9375320234375,8.665553505859375Q5.8883960234375,8.632723505859374,5.8466100234375,8.590943505859375Q5.8048240234375,8.549153505859374,5.7719920234375,8.500023505859374Q5.7391610234375,8.450883505859375,5.7165460234375,8.396283505859376Q5.6939320234375,8.341693505859375,5.6824030234375,8.283733505859376Q5.6708740234375,8.225773505859376,5.6708740234375,8.166673505859375L5.6708740234375,5.833343505859375Z" fill-rule="evenodd" fill="#262626" fill-opacity="1"/></g><g><path d="M6.2708740234375,6.4L12.6875440234375,6.4Q12.746634023437501,6.4,12.804594023437499,6.411529Q12.8625540234375,6.423058,12.9171540234375,6.445672Q12.9717440234375,6.468287,13.0208840234375,6.501118Q13.070014023437501,6.53395,13.1118040234375,6.575736Q13.153594023437499,6.617522,13.1864240234375,6.666658Q13.2192540234375,6.715793,13.2418640234375,6.77039Q13.2644840234375,6.824986,13.2760140234375,6.882946Q13.287544023437501,6.9409051999999996,13.287544023437501,7Q13.287544023437501,7.0590948000000004,13.2760140234375,7.117054Q13.2644840234375,7.175014,13.2418640234375,7.22961Q13.2192540234375,7.284207,13.1864240234375,7.333342Q13.153594023437499,7.382478,13.1118040234375,7.424264Q13.070014023437501,7.46605,13.0208840234375,7.498882Q12.9717440234375,7.531713,12.9171540234375,7.554328Q12.8625540234375,7.576942,12.804594023437499,7.588471Q12.746634023437501,7.6,12.6875440234375,7.6L6.2708740234375,7.6Q6.2117792234374996,7.6,6.1538200234375,7.588471Q6.0958600234375,7.576942,6.0412640234375,7.554328Q5.9866670234375,7.531713,5.9375320234375,7.498882Q5.8883960234375,7.46605,5.8466100234375,7.424264Q5.8048240234375,7.382478,5.7719920234375,7.333342Q5.7391610234375,7.284207,5.7165460234375,7.22961Q5.6939320234375,7.175014,5.6824030234375,7.117054Q5.6708740234375,7.0590948000000004,5.6708740234375,7Q5.6708740234375,6.9409051999999996,5.6824030234375,6.882946Q5.6939320234375,6.824986,5.7165460234375,6.77039Q5.7391610234375,6.715793,5.7719920234375,6.666658Q5.8048240234375,6.617522,5.8466100234375,6.575736Q5.8883960234375,6.53395,5.9375320234375,6.501118Q5.9866670234375,6.468287,6.0412640234375,6.445672Q6.0958600234375,6.423058,6.1538200234375,6.411529Q6.2117792234374996,6.4,6.2708740234375,6.4Z" fill-rule="evenodd" fill="#262626" fill-opacity="1"/></g><g><path d="M10.3541259765625,10.483343505859375L12.1041259765625,10.483343505859375Q12.1632159765625,10.483343505859375,12.2211759765625,10.494872505859375Q12.2791359765625,10.506401505859374,12.333735976562501,10.529015505859375Q12.3883359765625,10.551630505859375,12.4374659765625,10.584461505859375Q12.486605976562501,10.617293505859376,12.5283859765625,10.659079505859374Q12.5701759765625,10.700865505859374,12.6030059765625,10.750001505859375Q12.6358359765625,10.799136505859375,12.6584559765625,10.853733505859376Q12.6810659765625,10.908329505859374,12.692595976562501,10.966289505859375Q12.7041259765625,11.024248705859375,12.7041259765625,11.083343505859375Q12.7041259765625,11.142438305859375,12.692595976562501,11.200397505859375Q12.6810659765625,11.258357505859376,12.6584559765625,11.312953505859374Q12.6358359765625,11.367550505859375,12.6030059765625,11.416685505859375Q12.5701759765625,11.465821505859376,12.5283859765625,11.507607505859376Q12.486605976562501,11.549393505859374,12.4374659765625,11.582225505859375Q12.3883359765625,11.615056505859375,12.333735976562501,11.637671505859375Q12.2791359765625,11.660285505859376,12.2211759765625,11.671814505859375Q12.1632159765625,11.683343505859375,12.1041259765625,11.683343505859375L10.3541259765625,11.683343505859375Q10.2950311765625,11.683343505859375,10.2370719765625,11.671814505859375Q10.179111976562499,11.660285505859376,10.1245159765625,11.637671505859375Q10.0699189765625,11.615056505859375,10.0207839765625,11.582225505859375Q9.9716479765625,11.549393505859374,9.9298619765625,11.507607505859376Q9.8880759765625,11.465821505859376,9.8552439765625,11.416685505859375Q9.8224129765625,11.367550505859375,9.7997979765625,11.312953505859374Q9.7771839765625,11.258357505859376,9.7656549765625,11.200397505859375Q9.7541259765625,11.142438305859375,9.7541259765625,11.083343505859375Q9.7541259765625,11.024248705859375,9.7656549765625,10.966289505859375Q9.7771839765625,10.908329505859374,9.7997979765625,10.853733505859376Q9.8224129765625,10.799136505859375,9.8552439765625,10.750001505859375Q9.8880759765625,10.700865505859374,9.9298619765625,10.659079505859374Q9.9716479765625,10.617293505859376,10.0207839765625,10.584461505859375Q10.0699189765625,10.551630505859375,10.1245159765625,10.529015505859375Q10.179111976562499,10.506401505859374,10.2370719765625,10.494872505859375Q10.2950311765625,10.483343505859375,10.3541259765625,10.483343505859375Z" fill-rule="evenodd" fill="#262626" fill-opacity="1"/></g><g><path d="M7.4208740234375,9.916656494140625Q7.4208740234375,9.857561694140625,7.4324030234375,9.799602494140625Q7.4439320234375,9.741642494140624,7.4665460234375,9.687046494140626Q7.4891610234375,9.632449494140625,7.5219920234375,9.583314494140625Q7.5548240234375,9.534178494140624,7.5966100234375,9.492392494140624Q7.6383960234375,9.450606494140626,7.6875320234375,9.417774494140625Q7.7366670234375,9.384943494140625,7.7912640234375,9.362328494140625Q7.8458600234375,9.339714494140624,7.9038200234375,9.328185494140625Q7.9617792234374996,9.316656494140625,8.0208740234375,9.316656494140625Q8.0799688234375,9.316656494140625,8.1379280234375,9.328185494140625Q8.195888023437501,9.339714494140624,8.2504840234375,9.362328494140625Q8.3050810234375,9.384943494140625,8.3542160234375,9.417774494140625Q8.4033520234375,9.450606494140626,8.4451380234375,9.492392494140624Q8.4869240234375,9.534178494140624,8.5197560234375,9.583314494140625Q8.5525870234375,9.632449494140625,8.5752020234375,9.687046494140626Q8.5978160234375,9.741642494140624,8.6093450234375,9.799602494140625Q8.6208740234375,9.857561694140625,8.6208740234375,9.916656494140625L8.6208740234375,12.249986494140625Q8.6208740234375,12.309086494140626,8.6093450234375,12.367046494140626Q8.5978160234375,12.425006494140625,8.5752020234375,12.479596494140626Q8.5525870234375,12.534196494140625,8.5197560234375,12.583336494140624Q8.4869240234375,12.632466494140624,8.4451380234375,12.674256494140625Q8.4033520234375,12.716036494140624,8.3542160234375,12.748866494140625Q8.3050810234375,12.781706494140625,8.2504840234375,12.804316494140625Q8.195888023437501,12.826936494140625,8.1379280234375,12.838456494140626Q8.0799688234375,12.849986494140625,8.0208740234375,12.849986494140625Q7.9617792234374996,12.849986494140625,7.9038200234375,12.838456494140626Q7.8458600234375,12.826936494140625,7.7912640234375,12.804316494140625Q7.7366670234375,12.781706494140625,7.6875320234375,12.748866494140625Q7.6383960234375,12.716036494140624,7.5966100234375,12.674256494140625Q7.5548240234375,12.632466494140624,7.5219920234375,12.583336494140624Q7.4891610234375,12.534196494140625,7.4665460234375,12.479596494140626Q7.4439320234375,12.425006494140625,7.4324030234375,12.367046494140626Q7.4208740234375,12.309086494140626,7.4208740234375,12.249986494140625L7.4208740234375,9.916656494140625Z" fill-rule="evenodd" fill="#262626" fill-opacity="1"/></g><g><path d="M1.6041259765625,10.483343505859375L8.0207959765625,10.483343505859375Q8.079885976562501,10.483343505859375,8.137845976562499,10.494872505859375Q8.1958059765625,10.506401505859374,8.2504059765625,10.529015505859375Q8.3049959765625,10.551630505859375,8.3541359765625,10.584461505859375Q8.403265976562501,10.617293505859376,8.4450559765625,10.659079505859374Q8.486845976562499,10.700865505859374,8.5196759765625,10.750001505859375Q8.5525059765625,10.799136505859375,8.5751159765625,10.853733505859376Q8.5977359765625,10.908329505859374,8.6092659765625,10.966289505859375Q8.620795976562501,11.024248705859375,8.620795976562501,11.083343505859375Q8.620795976562501,11.142438305859375,8.6092659765625,11.200397505859375Q8.5977359765625,11.258357505859376,8.5751159765625,11.312953505859374Q8.5525059765625,11.367550505859375,8.5196759765625,11.416685505859375Q8.486845976562499,11.465821505859376,8.4450559765625,11.507607505859376Q8.403265976562501,11.549393505859374,8.3541359765625,11.582225505859375Q8.3049959765625,11.615056505859375,8.2504059765625,11.637671505859375Q8.1958059765625,11.660285505859376,8.137845976562499,11.671814505859375Q8.079885976562501,11.683343505859375,8.0207959765625,11.683343505859375L1.6041259765625,11.683343505859375Q1.5450311765625,11.683343505859375,1.4870719765625,11.671814505859375Q1.4291119765625,11.660285505859376,1.3745159765625,11.637671505859375Q1.3199189765625001,11.615056505859375,1.2707839765625,11.582225505859375Q1.2216479765625001,11.549393505859374,1.1798619765625,11.507607505859376Q1.1380759765625,11.465821505859376,1.1052439765625,11.416685505859375Q1.0724129765625001,11.367550505859375,1.0497979765625,11.312953505859374Q1.0271839765625002,11.258357505859376,1.0156549765625,11.200397505859375Q1.0041259765625,11.142438305859375,1.0041259765625,11.083343505859375Q1.0041259765625,11.024248705859375,1.0156549765625,10.966289505859375Q1.0271839765625002,10.908329505859374,1.0497979765625,10.853733505859376Q1.0724129765625001,10.799136505859375,1.1052439765625,10.750001505859375Q1.1380759765625,10.700865505859374,1.1798619765625,10.659079505859374Q1.2216479765625001,10.617293505859376,1.2707839765625,10.584461505859375Q1.3199189765625001,10.551630505859375,1.3745159765625,10.529015505859375Q1.4291119765625,10.506401505859374,1.4870719765625,10.494872505859375Q1.5450311765625,10.483343505859375,1.6041259765625,10.483343505859375Z" fill-rule="evenodd" fill="#262626" fill-opacity="1"/></g></g></svg>