<svg xmlns="http://www.w3.org/2000/svg" xmlns:xlink="http://www.w3.org/1999/xlink" fill="none" version="1.1" width="14" height="14" viewBox="0 0 14 14"><defs><clipPath id="master_svg0_517_01239"><rect x="0" y="0" width="14" height="14" rx="0"/></clipPath></defs><g clip-path="url(#master_svg0_517_01239)"><g><path d="M1.217792,4.943795046875Q1.15,4.813566046875,1.15,4.666748046875Q1.15,4.6076532468749996,1.161529,4.549694046875Q1.1730580000000002,4.491734046875,1.195672,4.437138046875Q1.2182870000000001,4.382541046875,1.251118,4.333406046875Q1.28395,4.284270046875,1.325736,4.242484046875Q1.3675220000000001,4.200698046875,1.416658,4.167866046875Q1.4657930000000001,4.135035046875,1.52039,4.112420046875Q1.574986,4.089806046875,1.632946,4.078277046875Q1.6909052,4.066748046875,1.75,4.066748046875Q1.8323235,4.066748046875,1.911605,4.088921046875Q1.990886,4.111094046875,2.061265,4.153802046875Q2.131644,4.196509046875,2.18792,4.256594046875Q2.244195,4.316679046875,2.282208,4.389701046875Q2.501359,4.810692046875,2.95364,5.181349046875Q4.440659999999999,6.4000780468750005,7,6.4000780468750005Q9.559339999999999,6.4000780468750005,11.04636,5.181341046875Q11.49866,4.810665046875,11.71779,4.389707046875Q11.7558,4.316684046875,11.8121,4.256598046875Q11.8684,4.196512046875,11.9387,4.153803046875Q12.0091,4.1110950468750005,12.0884,4.088922046875Q12.1677,4.066748046875,12.25,4.066748046875Q12.3091,4.066748046875,12.3671,4.078277046875Q12.425,4.089806046875,12.4796,4.112420046875Q12.5342,4.135035046875,12.5833,4.167866046875Q12.6325,4.200698046875,12.6743,4.242484046875Q12.716,4.284270046875,12.7489,4.333406046875Q12.7817,4.382541046875,12.8043,4.437138046875Q12.8269,4.491734046875,12.8385,4.549694046875Q12.85,4.6076532468749996,12.85,4.666748046875Q12.85,4.813562046875,12.7822,4.943789046875Q12.4495,5.5829010468749996,11.807,6.109468046875Q9.98827,7.600078046875,7,7.600078046875Q4.01174,7.600078046875,2.192975,6.109468046875Q1.550503,5.582934046875,1.217792,4.943795046875Z" fill-rule="evenodd" fill="#8C8C8C" fill-opacity="1"/></g><g><path d="M9.03124415625,6.844816L9.63511015625,9.09854Q9.65556015625,9.17484,9.65556015625,9.253820000000001Q9.65556015625,9.31292,9.64403015625,9.37088Q9.63250015625,9.428840000000001,9.60988015625,9.48343Q9.58727015625,9.53803,9.55444015625,9.58717Q9.52161015625,9.6363,9.47982015625,9.678090000000001Q9.43803315625,9.71988,9.38889815625,9.75271Q9.33976215625,9.785540000000001,9.28516615625,9.80815Q9.23056915625,9.83077,9.17261015625,9.8423Q9.11465015625,9.85383,9.05555615625,9.85383Q9.00635815625,9.85383,8.95781815625,9.84581Q8.90927815625,9.8378,8.86269115625,9.82198Q8.81610515625,9.80617,8.77271615625,9.78298Q8.72932815625,9.75979,8.69029715625,9.72984Q8.65126715625,9.69989,8.61763615625,9.66398Q8.58400515625,9.628070000000001,8.55667215625,9.58717Q8.52934005625,9.54626,8.50903615625,9.50145Q8.48873235625,9.45663,8.47599935625,9.40911L7.87213115625,7.155392L7.87210415625,7.155288Q7.85166015625,7.0789896,7.85166015625,7Q7.85166015625,6.9409051999999996,7.86318915625,6.882946Q7.87471815625,6.824986,7.89733215625,6.77039Q7.91994715625,6.715793,7.95277815625,6.666658Q7.98561015625,6.617522,8.02739615625,6.575736Q8.06918215625,6.53395,8.11831815625,6.501118Q8.16745315625,6.468287,8.22205015625,6.445672Q8.276646156249999,6.423058,8.33460615625,6.411529Q8.39256535625,6.4,8.45166015625,6.4Q8.50085755625,6.4,8.54939795625,6.408014Q8.59793815625,6.416028,8.64452515625,6.431842Q8.69111115625,6.447656,8.73449915625,6.470848Q8.77788715625,6.494039,8.81691815625,6.523989Q8.85594915625,6.553939,8.88958015625,6.589846Q8.92321115625,6.625754,8.95054315625,6.66666Q8.97787615625,6.707566,8.99818015625,6.752379Q9.01848415625,6.797191,9.03121615625,6.844712L9.03124415625,6.844816Z" fill-rule="evenodd" fill="#8C8C8C" fill-opacity="1"/></g><g><path d="M10.470511390625,6.65229134375Q10.386120390625,6.56790034375,10.340447390625,6.45763734375Q10.294775390625,6.34737434375,10.294775390625,6.22802734375Q10.294775390625,6.1689325437499996,10.306304390625,6.11097334375Q10.317833390625,6.05301334375,10.340447390625,5.99841734375Q10.363062390625,5.94382034375,10.395893390625,5.89468534375Q10.428725390625,5.84554934375,10.470511390625,5.80376334375Q10.512297390625,5.76197734375,10.561433390625,5.72914534375Q10.610568390625,5.69631434375,10.665165390625,5.67369934375Q10.719761390624999,5.65108534375,10.777721390625,5.63955634375Q10.835680590625,5.62802734375,10.894775390625,5.62802734375Q11.014122390625,5.62802734375,11.124385390625,5.67369934375Q11.234648390625,5.71937234375,11.319039390625,5.80376334375L12.968935390625,7.45366734375Q13.053335390625,7.53805734375,13.099005390624999,7.64831734375Q13.144675390625,7.75857734375,13.144675390625,7.87792734375Q13.144675390625,7.93702734375,13.133145390625,7.99497734375Q13.121615390625,8.05293734375,13.099005390624999,8.10753734375Q13.076385390625,8.16213734375,13.043555390625,8.21126734375Q13.010725390625,8.26040734375,12.968935390625,8.30218734375Q12.927155390625,8.34397734375,12.878015390625,8.37680734375Q12.828885390625,8.40963734375,12.774285390625,8.432257343749999Q12.719685390625,8.45486734375,12.661725390625,8.46639734375Q12.603765390625,8.47792734375,12.544675390625,8.47792734375Q12.425325390625,8.47792734375,12.315065390625,8.432257343749999Q12.204805390625,8.38658734375,12.120415390625,8.30218734375L10.470511390625,6.65229134375Z" fill-rule="evenodd" fill="#8C8C8C" fill-opacity="1"/></g><g><path d="M3.53267609375,6.65229034375Q3.61706609375,6.56789834375,3.66274609375,6.45763634375Q3.70841609375,6.34737434375,3.70841609375,6.22802734375Q3.70841609375,6.1689325437499996,3.69688609375,6.11097334375Q3.68535609375,6.05301334375,3.66274609375,5.99841734375Q3.64012609375,5.94382034375,3.60729609375,5.89468534375Q3.57446609375,5.84554934375,3.53267609375,5.80376334375Q3.49089609375,5.76197734375,3.44175609375,5.72914534375Q3.39261609375,5.69631434375,3.33802609375,5.67369934375Q3.28342609375,5.65108534375,3.2254660937499997,5.63955634375Q3.16750609375,5.62802734375,3.10841609375,5.62802734375Q2.98906609375,5.62802734375,2.8788060937499997,5.67370034375Q2.76853609375,5.71937234375,2.68414609375,5.80376434375L1.03437909375,7.4535473437499995L1.03423009375,7.45369734375Q0.94984009375,7.53808734375,0.90416809375,7.64834734375Q0.85849609375,7.7586073437500005,0.85849609375,7.8779573437499995Q0.85849609375,7.93704734375,0.87002509375,7.99500734375Q0.88155409375,8.05296734375,0.90416809375,8.10756734375Q0.92678309375,8.16216734375,0.95961409375,8.211297343750001Q0.9924460937499999,8.26043734375,1.03423209375,8.30221734375Q1.0760180937500001,8.34400734375,1.12515409375,8.376837343750001Q1.1742890937500001,8.40966734375,1.22888609375,8.43228734375Q1.28348209375,8.45489734375,1.34144209375,8.46642734375Q1.39940129375,8.477957343749999,1.45849609375,8.477957343749999Q1.57784409375,8.477957343749999,1.68810709375,8.43228734375Q1.79837009375,8.38660734375,1.88276209375,8.30221734375L1.88300209375,8.30197734375L3.53267609375,6.65229034375L3.53267609375,6.65229034375Z" fill-rule="evenodd" fill="#8C8C8C" fill-opacity="1"/></g><g><path d="M6.120705859375,7.155286Q6.141155859375,7.0789887,6.141155859375,7Q6.141155859375,6.9409051999999996,6.129625859375,6.882946Q6.118095859375,6.824986,6.095475859375,6.77039Q6.072865859375,6.715793,6.040035859375,6.666658Q6.007205859375,6.617522,5.965415859375,6.575736Q5.923629859375,6.53395,5.874493859375,6.501118Q5.825358859375,6.468287,5.770761859375,6.445672Q5.716165859375,6.423058,5.658205859375,6.411529Q5.600246859375,6.4,5.541151859375,6.4Q5.491954859375,6.4,5.443413859375,6.408014Q5.394873859375,6.416028,5.348286859375,6.431842Q5.301700859375,6.447656,5.2583118593750005,6.470848Q5.214923859375,6.49404,5.175892859375,6.52399Q5.136861859375,6.553939,5.103230859375,6.589847Q5.069600859375,6.625755,5.042267859375,6.666661Q5.014935559375,6.707568,4.994631759375,6.75238Q4.974327959375,6.797193,4.961595159375,6.844714L4.961572959375,6.844797L4.3577298593750005,9.09845L4.357698859375,9.09857Q4.337255859375,9.17487,4.337255859375,9.25385Q4.337255859375,9.31295,4.348784859375,9.37091Q4.360313859375,9.42887,4.382927859375,9.483460000000001Q4.405542859375,9.53806,4.438373859375,9.5872Q4.471205859375,9.636330000000001,4.512991859375,9.67812Q4.554777859375,9.719899999999999,4.603913859375,9.75274Q4.653048859375,9.78557,4.707645859375,9.80818Q4.762241859375,9.8308,4.820201859375,9.84233Q4.8781610593749996,9.85385,4.937255859375,9.85385Q4.986453459375,9.85385,5.034993859375,9.845839999999999Q5.083533859375,9.83783,5.130120859375,9.82201Q5.176707859375,9.8062,5.220095859375,9.78301Q5.263483859375,9.75981,5.302514859375,9.72986Q5.341545859375,9.69992,5.375176859375,9.664010000000001Q5.408807859375,9.6281,5.436139859375,9.58719Q5.463472859375,9.546289999999999,5.483775859375,9.50147Q5.504079859375,9.45666,5.516812859375,9.40914L5.516830859375,9.40907L6.120605859375,7.155657L6.120705859375,7.155286L6.120705859375,7.155286Z" fill-rule="evenodd" fill="#8C8C8C" fill-opacity="1"/></g></g></svg>