<svg xmlns="http://www.w3.org/2000/svg" xmlns:xlink="http://www.w3.org/1999/xlink" fill="none" version="1.1" width="14" height="14" viewBox="0 0 14 14"><defs><clipPath id="master_svg0_517_01274"><rect x="0" y="0" width="14" height="14" rx="0"/></clipPath></defs><g clip-path="url(#master_svg0_517_01274)"><g><path d="M0.52403,6.63469Q0.49407100000000004,6.673719999999999,0.47087199999999996,6.7171199999999995Q0.447673,6.76051,0.43185300000000004,6.8071Q0.416034,6.8537,0.40801699999999996,6.90225Q0.4,6.95079,0.4,7Q0.4,7.04921,0.40801699999999996,7.09775Q0.416034,7.1463,0.43185300000000004,7.1929Q0.44767199999999996,7.23949,0.47087199999999996,7.2828800000000005Q0.49407100000000004,7.326280000000001,0.52403,7.36531Q3.39044,11.1,7,11.1Q10.60955,11.1,13.476,7.36531Q13.5059,7.326280000000001,13.5291,7.2828800000000005Q13.5523,7.23949,13.5681,7.1929Q13.584,7.1463,13.592,7.09775Q13.6,7.04921,13.6,7Q13.6,6.95079,13.592,6.90225Q13.584,6.8537,13.5681,6.8071Q13.5523,6.76051,13.5291,6.7171199999999995Q13.5059,6.673719999999999,13.476,6.63469Q10.60955,2.9000019999999997,7,2.9Q3.39045,2.9,0.52403,6.63469ZM1.766362,7Q4.15595,9.9,7,9.9Q9.84404,9.9,12.2336,7Q9.84404,4.099999,7,4.1Q4.15595,4.1,1.766362,7Z" fill-rule="evenodd" fill="#8C8C8C" fill-opacity="1"/></g><g><path d="M8.5,7.000078046875Q8.5,7.071728046875,8.49278,7.1430180468749995Q8.48555,7.214318046875,8.47118,7.284588046875Q8.4568,7.354858046875,8.435410000000001,7.423408046875Q8.41402,7.491968046875,8.385819999999999,7.5581580468750005Q8.35762,7.624348046874999,8.32288,7.687538046875Q8.28814,7.750718046875,8.2472,7.810288046875Q8.20626,7.869858046875001,8.15952,7.925238046875Q8.11277,7.980618046875,8.06066,8.031278046875Q8.00855,8.081938046874999,7.9515899999999995,8.127388046875Q7.894629999999999,8.172838046875,7.833349999999999,8.212638046875Q7.77208,8.252448046875,7.7071000000000005,8.286218046875Q7.642110000000001,8.319988046875,7.57402,8.347408046875Q7.50594,8.374818046875,7.43543,8.395618046875Q7.36491,8.416418046875,7.2926400000000005,8.430388046875Q7.2203599999999994,8.444368046875,7.14703,8.451388046875Q7.07369,8.458418046875,7,8.458418046875Q6.92631,8.458418046875,6.85297,8.451388046875Q6.7796400000000006,8.444368046875,6.7073599999999995,8.430388046875Q6.63509,8.416418046875,6.56457,8.395618046875Q6.4940560000000005,8.374818046875,6.425975,8.347408046875Q6.357894,8.319988046875,6.292905,8.286218046875Q6.2279160000000005,8.252448046875,6.166645,8.212638046875Q6.105373,8.172838046875,6.04841,8.127388046875Q5.991447,8.081938046874999,5.93934,8.031278046875Q5.887233,7.980618046875,5.840484,7.925238046875Q5.793736,7.869858046875001,5.752796,7.810288046875Q5.711855,7.750718046875,5.677118,7.687538046875Q5.642381,7.624348046874999,5.614181,7.5581580468750005Q5.5859806,7.491968046875,5.5645895,7.423408046875Q5.5431983,7.354858046875,5.5288221,7.284588046875Q5.5144458,7.214318046875,5.50722291,7.1430180468749995Q5.5,7.071728046875,5.5,7.000078046875Q5.5,6.928438046875,5.50722291,6.857138046875Q5.5144458,6.785838046875,5.5288221,6.715578046875Q5.5431983,6.645308046875,5.5645895,6.576748046875Q5.5859806,6.508191046875,5.614181,6.442001046875Q5.642381,6.375812046875,5.677118,6.312628046875Q5.711855,6.249444046875,5.752796,6.189875046875Q5.793736,6.130305046875,5.840484,6.074924046875Q5.887233,6.019543046875,5.93934,5.968884046875Q5.991447,5.918224046875,6.04841,5.872774046875Q6.105373,5.827324046875,6.166645,5.787521046875Q6.2279160000000005,5.747719046875,6.292905,5.713946046875Q6.357894,5.680174046875,6.425975,5.652757046875Q6.4940560000000005,5.625340346875,6.56457,5.604543346875Q6.63509,5.583746446875,6.7073599999999995,5.569769546875Q6.7796400000000006,5.555792546875,6.85297,5.548770316875Q6.92631,5.541748046875,7,5.541748046875Q7.07369,5.541748046875,7.14703,5.548770316875Q7.2203599999999994,5.555792546875,7.2926400000000005,5.569769546875Q7.36491,5.583746446875,7.43543,5.604543346875Q7.50594,5.625340346875,7.57402,5.652757046875Q7.642110000000001,5.680174046875,7.7071000000000005,5.713946046875Q7.77208,5.747719046875,7.83336,5.787521046875Q7.894629999999999,5.827324046875,7.9515899999999995,5.872774046875Q8.00855,5.918224046875,8.06066,5.968884046875Q8.11277,6.019543046875,8.15952,6.074924046875Q8.20626,6.130305046875,8.2472,6.189875046875Q8.28814,6.249444046875,8.32288,6.312628046875Q8.35762,6.375811046875,8.385819999999999,6.442001046875Q8.41402,6.508191046875,8.435410000000001,6.576748046875Q8.4568,6.645308046875,8.47118,6.715578046875Q8.48555,6.785838046875,8.49278,6.857138046875Q8.5,6.928438046875,8.5,7.000078046875Z" fill="#8C8C8C" fill-opacity="1"/><path d="M5.5908033,5.610389046875Q5,6.184781046875,5,7.000078046875Q5,7.815378046875,5.5908033,8.389778046875Q6.1756910000000005,8.958418046875,7,8.958418046875Q7.8243100000000005,8.958418046875,8.4092,8.389778046875Q9,7.815378046875,9,7.000078046875Q9,6.184781046875,8.4092,5.610389146875Q7.8243100000000005,5.041748046875,7,5.041748046875Q6.1756910000000005,5.041748046875,5.5908033,5.610389046875ZM6.287882,7.672778046875Q6,7.3928980468750005,6,7.000078046875Q6,6.607268046875,6.287882,6.327384046875Q6.58168,6.041748046875,7,6.041748046875Q7.41832,6.041748046875,7.7121200000000005,6.327384046875Q8,6.607268046875,8,7.000078046875Q8,7.3928980468750005,7.7121200000000005,7.672778046875Q7.41832,7.958418046875,7,7.958418046875Q6.58168,7.958418046875,6.287882,7.672778046875Z" fill-rule="evenodd" fill="#8C8C8C" fill-opacity="1"/></g></g></svg>