<svg xmlns="http://www.w3.org/2000/svg" xmlns:xlink="http://www.w3.org/1999/xlink" fill="none" version="1.1" width="13" height="13" viewBox="0 0 13 13"><defs><clipPath id="master_svg0_912_00786"><rect x="0" y="0" width="13" height="13" rx="0"/></clipPath></defs><g clip-path="url(#master_svg0_912_00786)"><g><path d="M8.988373591461182,8.437450095367431L8.427663591461181,6.344816095367432C8.357353591461182,6.082400095367432,8.119648591461182,5.900000095367432,7.848083591461181,5.900000095367432C7.516712591461181,5.900000095367432,7.248083591461182,6.168629095367431,7.248083591461182,6.500000095367431C7.248083591461182,6.552434095367431,7.254956661461182,6.604641095367431,7.268527191461182,6.655288095367432L7.829236591461182,8.747930095367431C7.899571591461181,9.010440095367432,8.137278591461182,9.192840095367432,8.408843591461181,9.192840095367432C8.740213591461181,9.192840095367432,9.008843591461181,8.924210095367432,9.008843591461181,8.592840095367432C9.008843591461181,8.540400095367431,9.001973591461182,8.488200095367432,8.988373591461182,8.437450095367431Z" fill-rule="evenodd" fill="#595959" fill-opacity="1"/></g><g><path d="M9.691361,6.207402185211182C9.5788391,6.094884185211182,9.515625,5.9422721852111815,9.515625,5.783142185211181C9.515625,5.451771185211181,9.784254,5.183142185211182,10.115625,5.183142185211182C10.274755,5.183142185211182,10.427367,5.246356285211181,10.539885,5.358878185211181L12.071935,6.890932185211182C12.184465,7.003452185211182,12.247675000000001,7.156062185211182,12.247675000000001,7.315192185211181C12.247675000000001,7.646562185211182,11.979045,7.915192185211182,11.647675,7.915192185211182C11.488545,7.915192185211182,11.335935,7.851982185211181,11.223415,7.7394521852111815L9.691361,6.207402185211182Z" fill-rule="evenodd" fill="#595959" fill-opacity="1"/></g><g><path d="M3.48597625,5.783142185211181C3.48597625,5.942271185211181,3.42275625,6.094883185211182,3.31023625,6.207402185211182L1.77817625,7.739482185211182C1.66565025,7.852002185211182,1.51303725,7.9152221852111815,1.35390625,7.9152221852111815C1.02253525,7.9152221852111815,0.75390625,7.646592185211182,0.75390625,7.315222185211182C0.75390625,7.156092185211182,0.81711975,7.0034821852111815,0.9296402500000001,6.890952185211182L2.4617062499999998,5.3588791852111815C2.5742262499999997,5.246356885211181,2.72684625,5.183142185211182,2.88597625,5.183142185211182C3.21734625,5.183142185211182,3.48597625,5.451771185211181,3.48597625,5.783142185211181Z" fill-rule="evenodd" fill="#595959" fill-opacity="1"/></g><g><path d="M5.745135,6.500000095367431C5.745135,6.552433095367432,5.738265,6.604640095367432,5.7246950000000005,6.6552860953674315L5.163945,8.748080095367431C5.093645,9.010460095367431,4.85594,9.192860095367433,4.584375,9.192860095367433C4.253004,9.192860095367433,3.984375,8.92424009536743,3.984375,8.592860095367431C3.984375,8.540430095367432,3.99124789,8.488220095367431,4.0048181,8.437580095367432L4.56556,6.344783095367432C4.635863,6.082401095367431,4.87357,5.900000095367432,5.145135,5.900000095367432C5.4765049999999995,5.900000095367432,5.745135,6.168629095367431,5.745135,6.500000095367431Z" fill-rule="evenodd" fill="#595959" fill-opacity="1"/></g><g><path d="M1.092792,4.61048205859375Q1.025,4.48025305859375,1.025,4.33343505859375Q1.025,4.2743402585937496,1.036529,4.21638105859375Q1.0480580000000002,4.15842105859375,1.070672,4.10382505859375Q1.0932870000000001,4.04922805859375,1.126118,4.00009305859375Q1.15895,3.95095705859375,1.200736,3.90917105859375Q1.2425220000000001,3.86738505859375,1.291658,3.83455305859375Q1.3407930000000001,3.80172205859375,1.39539,3.77910705859375Q1.449986,3.75649305859375,1.507946,3.74496405859375Q1.5659052,3.73343505859375,1.625,3.73343505859375Q1.7073235,3.73343505859375,1.786605,3.75560805859375Q1.865886,3.77778105859375,1.9362650000000001,3.82048905859375Q2.006644,3.86319605859375,2.06292,3.92328105859375Q2.119195,3.98336605859375,2.157208,4.05638805859375Q2.35665,4.43951705859375,2.76983,4.77813205859375Q4.13879,5.90010505859375,6.5,5.90010505859375Q8.86121,5.90010505859375,10.23017,4.77812405859375Q10.64301,4.43978605859375,10.84244,4.05705805859375L10.84279,4.05639405859375Q10.8808,3.98337105859375,10.93708,3.92328505859375Q10.99335,3.86319805859375,11.06373,3.82049005859375Q11.13411,3.77778205859375,11.21339,3.75560905859375Q11.29268,3.73343505859375,11.375,3.73343505859375Q11.43409,3.73343505859375,11.49205,3.74496405859375Q11.55001,3.75649305859375,11.60461,3.77910705859375Q11.6592,3.80172205859375,11.7083,3.83455305859375Q11.7575,3.86738505859375,11.7993,3.90917105859375Q11.8411,3.95095705859375,11.8739,4.00009305859375Q11.9067,4.04922805859375,11.9293,4.10382505859375Q11.9519,4.15842105859375,11.9635,4.21638105859375Q11.975,4.2743402585937496,11.975,4.33343505859375Q11.975,4.48050605859375,11.907,4.61090505859375L11.9062,4.61237705859375Q11.59327,5.21251405859375,10.99081,5.70625505859375Q9.290140000000001,7.1001050585937495,6.5,7.1001050585937495Q3.70987,7.1001050585937495,2.009167,5.70624505859375Q1.405974,5.21190705859375,1.0929799999999998,4.61084205859375Q1.131018,4.68379205859375,1.1872880000000001,4.74381105859375Q1.243559,4.80383005859375,1.313908,4.84648705859375Q1.384258,4.88914305859375,1.463493,4.91128905859375Q1.5427282,4.93343505859375,1.625,4.93343505859375Q1.6840948,4.93343505859375,1.742054,4.92190605859375Q1.800014,4.91037705859375,1.85461,4.88776305859375Q1.9092069999999999,4.86514805859375,1.958342,4.83231705859375Q2.007478,4.79948505859375,2.049264,4.75769905859375Q2.09105,4.71591305859375,2.123882,4.66677705859375Q2.156713,4.61764205859375,2.179328,4.56304505859375Q2.201942,4.50844905859375,2.213471,4.45048905859375Q2.225,4.3925298585937504,2.225,4.33343505859375Q2.225,4.18661705859375,2.157208,4.05638805859375L1.092792,4.61048205859375Z" fill-rule="evenodd" fill="#595959" fill-opacity="1"/></g></g></svg>