<svg xmlns="http://www.w3.org/2000/svg" xmlns:xlink="http://www.w3.org/1999/xlink" fill="none" version="1.1" width="13" height="13" viewBox="0 0 13 13"><defs><clipPath id="master_svg0_912_00860"><rect x="0" y="0" width="13" height="13" rx="0"/></clipPath></defs><g clip-path="url(#master_svg0_912_00860)"><g><path d="M0.452155,6.865310095367431C0.2867815,6.6498400953674315,0.2867815,6.350160095367432,0.452155,6.134690095367432Q3.126695,2.6499999761584316,6.499555,2.6500000953674316Q9.872415,2.6499997377394315,12.546925,6.134690095367432C12.712325,6.350160095367432,12.712325,6.6498400953674315,12.546925,6.865310095367431Q9.872415,10.350000095367431,6.499555,10.350000095367431Q3.126695,10.350000095367431,0.452155,6.865310095367431ZM6.499555,9.150000095367432Q3.892295,9.150000095367432,1.695355,6.500000095367431Q3.892295,3.850000095367432,6.499555,3.850000095367432Q9.106825,3.850000095367432,11.303725,6.500000095367431Q9.106825,9.150000095367432,6.499555,9.150000095367432Z" fill-rule="evenodd" fill="#595959" fill-opacity="1"/></g><g><path d="M5.166843875,5.18406605859375Q4.607421875,5.72794505859375,4.607421875,6.50010505859375Q4.607421875,7.27225505859375,5.166843875,7.8161350585937495Q5.720351875,8.35426505859375,6.500281875,8.35426505859375Q7.280211875,8.35426505859375,7.8337118750000005,7.8161350585937495Q8.393131875,7.27225505859375,8.393131875,6.50010505859375Q8.393131875,5.72794505859375,7.8337118750000005,5.18406605859375Q7.280211875,4.64593505859375,6.500281875,4.64593505859375Q5.720351875,4.64593505859375,5.166843875,5.18406605859375Z" fill-rule="evenodd" fill="#595959" fill-opacity="1"/></g></g></svg>