<svg xmlns="http://www.w3.org/2000/svg" xmlns:xlink="http://www.w3.org/1999/xlink" fill="none" version="1.1" width="16" height="16" viewBox="0 0 16 16"><defs><clipPath id="master_svg0_1_1131"><rect x="0" y="0" width="16" height="16" rx="0"/></clipPath></defs><g clip-path="url(#master_svg0_1_1131)"><g><path d="M4.5630378125,14.4040078125L1.7761608125000001,14.9229078125Q1.6663398125,14.9433078125,1.5565188125,14.9229078125Q1.4984228125,14.9120078125,1.4435528125000001,14.8901078125Q1.3886825125,14.8682078125,1.3391477025,14.8359078125Q1.2896128125,14.8037078125,1.2473167125,14.7624078125Q1.2050208125,14.7212078125,1.1715888125,14.6724078125Q1.1381568125000001,14.6237078125,1.1148738125,14.5694078125Q1.0915908125,14.5151078125,1.0793508125,14.4573078125Q1.0671118124999999,14.3995078125,1.0663868125,14.3404078125Q1.0656608125,14.2813078125,1.0764778125,14.2232078125L1.5953428125,11.4363078125Q0.7330078125,9.8382878125,0.7330068125,7.9996778125Q0.7330078125,4.9897178125,2.8613678125,2.8613678125Q4.9897178125,0.7330078125,7.9996778125,0.7330068125Q11.0096078125,0.7330078125,13.1380078125,2.8613678125Q15.2663078125,4.9897278125,15.2663078125,7.9996778125Q15.2663078125,11.0095978125,13.1380078125,13.1380078125Q11.0096078125,15.2663078125,7.9996778125,15.2663078125Q6.1610978125,15.2663078125,4.5630378125,14.4040078125ZM7.9996778125,14.0663078125Q6.3692278125,14.0663078125,4.9667678125000005,13.2551078125Q4.873797812499999,13.2013078125,4.7679478125,13.1831078125Q4.6621078125,13.1649078125,4.5565178125,13.1846078125L2.4162778124999997,13.5831078125L2.8147478125000003,11.4428078125Q2.8344078125000003,11.3372078125,2.8162178124999997,11.2313978125Q2.7980278125,11.1255478125,2.7442578125,11.0325778125Q1.9330078125,9.6301478125,1.9330078125,7.9996778125Q1.9330078125,5.4867778125,3.7098878125,3.7098878125Q5.4867778125,1.9330078125,7.9996778125,1.9330078125Q10.5125578125,1.9330078125,12.2894078125,3.7098978125Q14.0663078125,5.4867778125,14.0663078125,7.9996778125Q14.0663078125,10.5125478125,12.2894078125,12.2894078125Q10.5125478125,14.0663078125,7.9996778125,14.0663078125Z" fill-rule="evenodd" fill="#262626" fill-opacity="1"/></g><g><ellipse cx="4.571512341499329" cy="8.000223338603973" rx="0.9142857789993286" ry="0.9142858386039734" fill="#262626" fill-opacity="1"/></g><g><ellipse cx="8.000223278999329" cy="8.000223338603973" rx="0.9142857789993286" ry="0.9142858386039734" fill="#262626" fill-opacity="1"/></g><g><ellipse cx="11.428445935249329" cy="8.000223338603973" rx="0.9142857789993286" ry="0.9142858386039734" fill="#262626" fill-opacity="1"/></g></g></svg>