<svg xmlns="http://www.w3.org/2000/svg" xmlns:xlink="http://www.w3.org/1999/xlink" fill="none" version="1.1" width="20" height="20" viewBox="0 0 20 20"><defs><clipPath id="master_svg0_1_0764"><rect x="0" y="0" width="20" height="20" rx="0"/></clipPath></defs><g clip-path="url(#master_svg0_1_0764)"><g><path d="M4.3595727529296875,16.9738740234375Q4.652461152929687,17.2666740234375,5.066671752929688,17.2666740234375L14.933371752929688,17.2666740234375Q15.347571752929687,17.2666740234375,15.640471752929688,16.9737740234375Q15.933371752929688,16.6809740234375,15.933371752929688,16.2666740234375L15.933371752929688,5.8323940234375Q15.933371752929688,5.4182340234375,15.640471752929688,5.1252740234375L13.541461752929688,3.0263270234375Q13.248581752929688,2.7333740234375,12.834341752929687,2.7333740234375L5.066671752929688,2.7333740234375Q4.652458652929687,2.7333740234375,4.359564752929687,3.0262670234374998Q4.066671752929688,3.3191609234375,4.066671752929688,3.7333740234375L4.066671752929688,16.2666740234375Q4.066671752929688,16.6809740234375,4.3595727529296875,16.9738740234375ZM5.266671752929687,16.0666740234375L14.733371752929688,16.0666740234375L14.733371752929688,5.9152140234375L12.751451752929688,3.9333740234375L5.266671752929687,3.9333740234375L5.266671752929687,16.0666740234375Z" fill-rule="evenodd" fill="#333333" fill-opacity="1"/></g><g><path d="M7.3333282470703125,9.2666259765625L12.666658247070313,9.2666259765625Q12.725758247070313,9.2666259765625,12.783718247070311,9.2550969765625Q12.841678247070313,9.2435679765625,12.896268247070314,9.2209539765625Q12.950868247070312,9.1983389765625,12.999998247070312,9.1655079765625Q13.049138247070314,9.1326759765625,13.090928247070313,9.0908899765625Q13.132708247070312,9.0491039765625,13.165538247070312,8.9999679765625Q13.198378247070313,8.9508329765625,13.220988247070313,8.8962359765625Q13.243598247070313,8.841639976562501,13.255128247070314,8.7836799765625Q13.266658247070312,8.7257207765625,13.266658247070312,8.6666259765625Q13.266658247070312,8.6075311765625,13.255128247070314,8.5495719765625Q13.243598247070313,8.491611976562499,13.220988247070313,8.4370159765625Q13.198378247070313,8.3824189765625,13.165538247070312,8.3332839765625Q13.132708247070312,8.2841479765625,13.090928247070313,8.2423619765625Q13.049138247070314,8.2005759765625,12.999998247070312,8.1677439765625Q12.950868247070312,8.1349129765625,12.896268247070314,8.1122979765625Q12.841678247070313,8.0896839765625,12.783718247070311,8.0781549765625Q12.725758247070313,8.0666259765625,12.666658247070313,8.0666259765625L7.3333282470703125,8.0666259765625Q7.274233447070312,8.0666259765625,7.216274247070312,8.0781549765625Q7.1583142470703125,8.0896839765625,7.103718247070312,8.1122979765625Q7.049121247070312,8.1349129765625,6.9999862470703125,8.1677439765625Q6.950850247070313,8.2005759765625,6.9090642470703125,8.2423619765625Q6.867278247070312,8.2841479765625,6.8344462470703125,8.3332839765625Q6.801615247070313,8.3824189765625,6.779000247070313,8.4370159765625Q6.756386247070313,8.491611976562499,6.744857247070312,8.5495719765625Q6.733328247070313,8.6075311765625,6.733328247070313,8.6666259765625Q6.733328247070313,8.7257207765625,6.744857247070312,8.7836799765625Q6.756386247070313,8.841639976562501,6.779000247070313,8.8962359765625Q6.801615247070313,8.9508329765625,6.8344462470703125,8.9999679765625Q6.867278247070312,9.0491039765625,6.9090642470703125,9.0908899765625Q6.950850247070313,9.1326759765625,6.9999862470703125,9.1655079765625Q7.049121247070312,9.1983389765625,7.103718247070312,9.2209539765625Q7.1583142470703125,9.2435679765625,7.216274247070312,9.2550969765625Q7.274233447070312,9.2666259765625,7.3333282470703125,9.2666259765625Z" fill-rule="evenodd" fill="#333333" fill-opacity="1"/></g><g><path d="M7.3333282470703125,14.6L12.666658247070313,14.6Q12.725758247070313,14.6,12.783718247070311,14.588471Q12.841678247070313,14.576942,12.896268247070314,14.554328Q12.950868247070312,14.531713,12.999998247070312,14.498882Q13.049138247070314,14.46605,13.090928247070313,14.424264Q13.132708247070312,14.382478,13.165538247070312,14.333342Q13.198378247070313,14.284207,13.220988247070313,14.22961Q13.243598247070313,14.175014000000001,13.255128247070314,14.117054Q13.266658247070312,14.0590948,13.266658247070312,14Q13.266658247070312,13.9409052,13.255128247070314,13.882946Q13.243598247070313,13.824985999999999,13.220988247070313,13.77039Q13.198378247070313,13.715793,13.165538247070312,13.666658Q13.132708247070312,13.617522,13.090928247070313,13.575736Q13.049138247070314,13.53395,12.999998247070312,13.501118Q12.950868247070312,13.468287,12.896268247070314,13.445672Q12.841678247070313,13.423058,12.783718247070311,13.411529Q12.725758247070313,13.4,12.666658247070313,13.4L7.3333282470703125,13.4Q7.274233447070312,13.4,7.216274247070312,13.411529Q7.1583142470703125,13.423058,7.103718247070312,13.445672Q7.049121247070312,13.468287,6.9999862470703125,13.501118Q6.950850247070313,13.53395,6.9090642470703125,13.575736Q6.867278247070312,13.617522,6.8344462470703125,13.666658Q6.801615247070313,13.715793,6.779000247070313,13.77039Q6.756386247070313,13.824985999999999,6.744857247070312,13.882946Q6.733328247070313,13.9409052,6.733328247070313,14Q6.733328247070313,14.0590948,6.744857247070312,14.117054Q6.756386247070313,14.175014000000001,6.779000247070313,14.22961Q6.801615247070313,14.284207,6.8344462470703125,14.333342Q6.867278247070312,14.382478,6.9090642470703125,14.424264Q6.950850247070313,14.46605,6.9999862470703125,14.498882Q7.049121247070312,14.531713,7.103718247070312,14.554328Q7.1583142470703125,14.576942,7.216274247070312,14.588471Q7.274233447070312,14.6,7.3333282470703125,14.6Z" fill-rule="evenodd" fill="#333333" fill-opacity="1"/></g><g><path d="M7.3333282470703125,11.9333740234375L9.999998247070312,11.9333740234375Q10.059088247070314,11.9333740234375,10.117048247070313,11.9218450234375Q10.175008247070313,11.9103160234375,10.229608247070313,11.8877020234375Q10.284198247070313,11.8650870234375,10.333338247070312,11.8322560234375Q10.382468247070312,11.7994240234375,10.424258247070313,11.7576380234375Q10.466048247070312,11.7158520234375,10.498878247070312,11.6667160234375Q10.531708247070313,11.6175810234375,10.554318247070313,11.5629840234375Q10.576938247070313,11.508388023437501,10.588468247070313,11.4504280234375Q10.599998247070312,11.3924688234375,10.599998247070312,11.3333740234375Q10.599998247070312,11.2742792234375,10.588468247070313,11.2163200234375Q10.576938247070313,11.158360023437499,10.554318247070313,11.1037640234375Q10.531708247070313,11.0491670234375,10.498878247070312,11.0000320234375Q10.466048247070312,10.9508960234375,10.424258247070313,10.9091100234375Q10.382468247070312,10.8673240234375,10.333338247070312,10.8344920234375Q10.284198247070313,10.8016610234375,10.229608247070313,10.7790460234375Q10.175008247070313,10.7564320234375,10.117048247070313,10.7449030234375Q10.059088247070314,10.7333740234375,9.999998247070312,10.7333740234375L7.3333282470703125,10.7333740234375Q7.274233447070312,10.7333740234375,7.216274247070312,10.7449030234375Q7.1583142470703125,10.7564320234375,7.103718247070312,10.7790460234375Q7.049121247070312,10.8016610234375,6.9999862470703125,10.8344920234375Q6.950850247070313,10.8673240234375,6.9090642470703125,10.9091100234375Q6.867278247070312,10.9508960234375,6.8344462470703125,11.0000320234375Q6.801615247070313,11.0491670234375,6.779000247070313,11.1037640234375Q6.756386247070313,11.158360023437499,6.744857247070312,11.2163200234375Q6.733328247070313,11.2742792234375,6.733328247070313,11.3333740234375Q6.733328247070313,11.3924688234375,6.744857247070312,11.4504280234375Q6.756386247070313,11.508388023437501,6.779000247070313,11.5629840234375Q6.801615247070313,11.6175810234375,6.8344462470703125,11.6667160234375Q6.867278247070312,11.7158520234375,6.9090642470703125,11.7576380234375Q6.950850247070313,11.7994240234375,6.9999862470703125,11.8322560234375Q7.049121247070312,11.8650870234375,7.103718247070312,11.8877020234375Q7.1583142470703125,11.9103160234375,7.216274247070312,11.9218450234375Q7.274233447070312,11.9333740234375,7.3333282470703125,11.9333740234375Z" fill-rule="evenodd" fill="#333333" fill-opacity="1"/></g><g><path d="M13.066671752929688,6.6000440234374995L15.333341752929687,6.6000440234374995Q15.392431752929689,6.6000440234374995,15.450391752929688,6.5885140234375Q15.508351752929688,6.5769840234375,15.562951752929688,6.5543640234375005Q15.617541752929688,6.5317540234375,15.666681752929687,6.4989240234375Q15.715811752929687,6.4660940234375,15.757601752929688,6.4243040234375Q15.799391752929687,6.3825140234374995,15.832221752929687,6.3333840234375Q15.865051752929688,6.2842440234375,15.887661752929688,6.2296540234375Q15.910281752929688,6.1750540234375,15.921811752929688,6.117094023437501Q15.933341752929687,6.0591340234375,15.933341752929687,6.0000440234375Q15.933341752929687,5.9409440234375,15.921811752929688,5.8829840234374995Q15.910281752929688,5.8250240234375,15.887661752929688,5.7704340234375Q15.865051752929688,5.7158340234375,15.832221752929687,5.6666940234375005Q15.799391752929687,5.617564023437501,15.757601752929688,5.5757740234375Q15.715811752929687,5.5339940234375,15.666681752929687,5.5011540234375005Q15.617541752929688,5.4683240234375,15.562951752929688,5.4457140234375Q15.508351752929688,5.4230940234375,15.450391752929688,5.4115740234375Q15.392431752929689,5.4000440234375,15.333341752929687,5.4000440234375L13.266671752929687,5.4000440234375L13.266671752929687,3.3333740234375Q13.266671752929687,3.2742792234375,13.255142752929688,3.2163200234375Q13.243613752929688,3.1583600234375,13.220999752929687,3.1037640234375Q13.198384752929687,3.0491670234375,13.165553752929688,3.0000320234375Q13.132721752929687,2.9508960234375,13.090935752929688,2.9091100234375Q13.049149752929688,2.8673240234375,13.000013752929688,2.8344920234375Q12.950878752929688,2.8016610234375,12.896281752929687,2.7790460234375Q12.841685752929688,2.7564320234375,12.783725752929687,2.7449030234375Q12.725766552929688,2.7333740234375,12.666671752929688,2.7333740234375Q12.607576952929687,2.7333740234375,12.549617752929688,2.7449030234375Q12.491657752929687,2.7564320234375,12.437061752929688,2.7790460234375Q12.382464752929687,2.8016610234375,12.333329752929687,2.8344920234375Q12.284193752929687,2.8673240234375,12.242407752929687,2.9091100234375Q12.200621752929688,2.9508960234375,12.167789752929687,3.0000320234375Q12.134958752929688,3.0491670234375,12.112343752929688,3.1037640234375Q12.089729752929687,3.1583600234375,12.078200752929687,3.2163200234375Q12.066671752929688,3.2742792234375,12.066671752929688,3.3333740234375L12.066671752929688,5.6000440234374995Q12.066671752929688,6.0142540234375,12.359550752929687,6.3071440234375Q12.652441152929688,6.6000440234374995,13.066671752929688,6.6000440234374995Z" fill-rule="evenodd" fill="#333333" fill-opacity="1"/></g></g></svg>