<svg width="93" height="122" viewBox="0 0 93 122" fill="none" xmlns="http://www.w3.org/2000/svg">
<path d="M54.7348 1.32172L90.7348 40.3217M50 53L56.5327 48.3758C57.3505 47.797 58.4042 47.667 59.3381 48.0298L59.573 48.1211C60.313 48.4085 60.8714 49.0318 61.0762 49.7988C61.4028 51.0223 60.9222 52.3187 59.877 53.0337L49.8346 59.9031C48.4809 60.8291 46.6598 60.6597 45.5001 59.5M47.7159 62.0674L41.4069 66.9924C40.6171 67.609 39.5707 67.7881 38.6208 67.4695L38.3819 67.3893C37.6292 67.1368 37.0422 66.5404 36.8018 65.7838C36.4182 64.577 36.8376 63.2594 37.8481 62.4963L47.5578 55.1641C48.8666 54.1758 50.6937 54.2596 51.9065 55.3637M51.875 1C55.1887 1 57.875 3.68629 57.875 7V32.5C57.875 35.8137 60.5613 38.5 63.875 38.5H86C89.3137 38.5 92 41.1863 92 44.5V115C92 118.314 89.3137 121 86 121H7C3.68629 121 1 118.314 1 115V7C1 3.68629 3.68629 1 7 1H51.875Z" stroke="#F1F1F1" stroke-width="2"/>
</svg>