<svg width="93" height="122" viewBox="0 0 93 122" fill="none" xmlns="http://www.w3.org/2000/svg">
<path d="M54.363 1.65613L90.363 39.6561M42 61C42 64.866 38.866 68 35 68C31.134 68 28 64.866 28 61C28 57.134 31.134 54 35 54C38.866 54 42 57.134 42 61ZM42 61H62M49 54V60M48 55H55M56 54V62M52.6111 1C54.8203 1 56.6111 2.79086 56.6111 5V34.5C56.6111 36.7091 58.402 38.5 60.6111 38.5H88C90.2091 38.5 92 40.2909 92 42.5V117C92 119.209 90.2091 121 88 121H5C2.79086 121 1 119.209 1 117V5C1 2.79086 2.79086 1 5 1H52.6111Z" stroke="#F1F1F1" stroke-width="2"/>
</svg>