<svg xmlns="http://www.w3.org/2000/svg" xmlns:xlink="http://www.w3.org/1999/xlink" fill="none" version="1.1" width="22" height="20" viewBox="0 0 22 20"><g style="mix-blend-mode:passthrough"><path d="M3,2C2.73478,2,2.48043,2.10536,2.29289,2.29289C2.10536,2.48043,2,2.73478,2,3C2,3,2,17,2,17C2,17.2652,2.10536,17.5196,2.29289,17.7071C2.48043,17.8946,2.73478,18,3,18C3,18,19,18,19,18C19.2652,18,19.5196,17.8946,19.7071,17.7071C19.8946,17.5196,20,17.2652,20,17C20,17,20,6,20,6C20,5.73478,19.8946,5.48043,19.7071,5.29289C19.5196,5.10536,19.2652,5,19,5C19,5,10,5,10,5C9.66565,5,9.35342,4.8329,9.16795,4.5547C9.16795,4.5547,7.46482,2,7.46482,2C7.46482,2,3,2,3,2C3,2,3,2,3,2ZM0.87868,0.87868C1.44129,0.31607,2.20435,0,3,0C3,0,8,0,8,0C8.33435,0,8.64658,0.167101,8.83205,0.4453C8.83205,0.4453,10.5352,3,10.5352,3C10.5352,3,19,3,19,3C19.7957,3,20.5587,3.31607,21.1213,3.87868C21.6839,4.44129,22,5.20435,22,6C22,6,22,17,22,17C22,17.7957,21.6839,18.5587,21.1213,19.1213C20.5587,19.6839,19.7957,20,19,20C19,20,3,20,3,20C2.20435,20,1.44129,19.6839,0.87868,19.1213C0.31607,18.5587,0,17.7957,0,17C0,17,0,3,0,3C0,2.20435,0.31607,1.44129,0.87868,0.87868C0.87868,0.87868,0.87868,0.87868,0.87868,0.87868Z" fill-rule="evenodd" fill="#767676" fill-opacity="1"/></g></svg>