<svg xmlns="http://www.w3.org/2000/svg" xmlns:xlink="http://www.w3.org/1999/xlink" fill="none" version="1.1" width="106" height="106" viewBox="0 0 106 106"><defs><clipPath id="master_svg0_772_0451"><rect x="0" y="0" width="106" height="106" rx="0"/></clipPath></defs><g clip-path="url(#master_svg0_772_0451)"><g><path d="M91.75,40.6111L91.75,49.4444Q91.75,49.5429,91.7692,49.6395Q91.7884,49.7361,91.8261,49.8271Q91.8638,49.918099999999995,91.9185,50Q91.9732,50.081900000000005,92.0429,50.1515Q92.1125,50.221199999999996,92.1944,50.2759Q92.2763,50.330600000000004,92.3673,50.368300000000005Q92.4583,50.406,92.5549,50.425200000000004Q92.6515,50.4444,92.75,50.4444Q92.8485,50.4444,92.9451,50.425200000000004Q93.0417,50.406,93.1327,50.368300000000005Q93.2237,50.330600000000004,93.3056,50.2759Q93.3875,50.221199999999996,93.4571,50.1515Q93.5267,50.081900000000005,93.5815,50Q93.6362,49.918099999999995,93.6739,49.8271Q93.7116,49.7361,93.7308,49.6395Q93.75,49.5429,93.75,49.4444L93.75,40.6111Q93.75,35.3165,90.0084,31.5749Q86.2669,27.83334,80.9722,27.83333L49.7346,27.83333L46.4838,23.77931Q42.6442,19,36.516999999999996,19L25.0278,19Q19.733150000000002,19,15.99157,22.74157Q12.25,26.483150000000002,12.25,31.7778L12.25,49.4444Q12.25,49.5429,12.269214999999999,49.6395Q12.28843,49.7361,12.326121,49.8271Q12.363812,49.918099999999995,12.41853,50Q12.473249,50.081900000000005,12.542893,50.1515Q12.612537,50.221199999999996,12.69443,50.2759Q12.776322,50.330600000000004,12.867317,50.368300000000005Q12.958311,50.406,13.05491,50.425200000000004Q13.1515086,50.4444,13.25,50.4444Q13.3484914,50.4444,13.44509,50.425200000000004Q13.541689,50.406,13.632683,50.368300000000005Q13.723678,50.330600000000004,13.80557,50.2759Q13.887463,50.221199999999996,13.957107,50.1515Q14.026751,50.081900000000005,14.08147,50Q14.136188,49.918099999999995,14.173879,49.8271Q14.21157,49.7361,14.230785000000001,49.6395Q14.25,49.5429,14.25,49.4444L14.249999,31.7778Q14.249999,27.31157,17.40579,24.15579Q20.56157,21,25.0278,21L36.516999999999996,21Q41.685500000000005,21,44.923500000000004,25.03047L48.4745,29.45891Q48.5448,29.54655,48.6328,29.616419999999998Q48.7207,29.68628,48.822,29.73488Q48.9233,29.78349,49.0328,29.808410000000002Q49.1423,29.83333,49.2547,29.83333L80.9722,29.83333Q85.4384,29.83333,88.5942,32.9891Q91.75,36.1449,91.75,40.6111Z" fill-rule="evenodd" fill="#434343" fill-opacity="1"/></g><g><path d="M15.92099953125,48.444094796875L90.08921953125,48.444094796875Q94.93631953125,48.444094796875,97.88711953125,52.285841796875Q100.83741953125,56.126991796875004,99.58841953125,60.808291796875L93.10481953125,85.123391796875Q91.98871953125,89.319791796875,88.54541953125,91.965691796875Q85.10321953125,94.61079179687499,80.76121953125,94.61079179687499L25.24661953125,94.61079179687499Q20.90461953125,94.61079179687499,17.462519531250003,91.965691796875Q14.01924953125,89.319791796875,12.902929531249999,85.12279179687499L6.41942353125,60.808191796875Q5.17065953125,56.127801796875,8.12310953125,52.285661796875Q11.07318953125,48.446616796875,15.91229953125,48.444093796875L15.91276953125,48.444094796875L15.91818953125,48.444091796875L15.91865953125,48.444091796875L15.92099953125,48.444094796875ZM15.91324953125,50.444091796875L15.91276953125,50.444091796875L15.91181953125,50.444091796875Q12.05845953125,50.446801796875,9.70895953125,53.504301796875Q7.35720453125,56.564731796875,8.35189953125,60.292891796875L14.83572953125,84.60869179687501Q15.77720953125,88.148391796875,18.681119531249998,90.379791796875Q21.58431953125,92.61079179687499,25.24661953125,92.61079179687499L80.76121953125,92.61079179687499Q84.42351953125,92.61079179687499,87.32681953125,90.379791796875Q90.23071953125,88.148391796875,91.17231953125,84.608091796875L97.65601953125,60.292791796875Q98.65101953125,56.563661796875,96.30101953125,53.504121796875Q93.95061953125,50.444091796875,90.08921953125,50.444091796875L15.91324953125,50.444091796875Z" fill-rule="evenodd" fill="#434343" fill-opacity="1"/></g><g transform="matrix(0.9815671443939209,-0.19111745059490204,0.19111745059490204,0.9815671443939209,-0.8315569053513627,15.99406067360178)"><path d="M83.146423,12.338675839648438C82.819403,12.323141039648437,82.565935,12.620859139648438,82.633442,12.941212139648437L85.15678,24.915568139648435C85.2656,25.43196813964844,85.99645,25.449468139648438,86.12981,24.938868139648438L89.18798,13.229607139648438C89.26826,12.922228139648437,89.04527,12.618895139648437,88.72793,12.603820139648438L83.146423,12.338675839648438Z" fill="#1878F5" fill-opacity="1"/></g><g transform="matrix(0.4748525321483612,0.880065381526947,-0.880065381526947,0.4748525321483612,71.78436663869434,-79.41914075260092)"><path d="M103.09386450195312,20.440139770507812C102.76417850195313,20.440139770507812,102.52473650195313,20.753628770507813,102.61148250195312,21.071698770507812L105.05172950195312,30.019259770507812C105.17741950195312,30.48013977050781,105.81600950195312,30.519139770507813,105.99687950195313,30.07701977050781L109.65724950195312,21.129455770507814C109.79180950195313,20.800514770507814,109.54987950195313,20.440139770507812,109.19446950195312,20.440139770507812L103.09386450195312,20.440139770507812Z" fill="#1878F5" fill-opacity="1"/></g></g></svg>