<svg xmlns="http://www.w3.org/2000/svg" xmlns:xlink="http://www.w3.org/1999/xlink" fill="none" version="1.1" width="140" height="139.99998474121094" viewBox="0 0 140 139.99998474121094"><defs><clipPath id="master_svg0_1_395"><rect x="0" y="0" width="140" height="139.99998474121094" rx="0"/></clipPath><clipPath id="master_svg1_1_396"><rect x="51" y="89" width="37.33333206176758" height="37.33333206176758" rx="0"/></clipPath></defs><g clip-path="url(#master_svg0_1_395)"><g><g><path d="M23.722727375,127.944748046875Q25.011424375,129.233748046875,26.833984375,129.233748046875L113.167284375,129.233748046875Q114.989984375,129.233748046875,116.278684375,127.944748046875Q117.567284375,126.655748046875,117.567284375,124.833748046875L117.567284375,33.533148046875Q117.567284375,31.710748046875,116.278784375,30.421848046875L97.912084375,12.055587046875Q96.623584375,10.766748046875,94.801084375,10.766748046875L26.833984375,10.766748046875Q25.011444375,10.766748046875,23.722716375,12.055480046875Q22.433984375,13.344208046875,22.433984375,15.166748046875L22.433984375,124.833748046875Q22.433984375,126.655748046875,23.722727375,127.944748046875ZM113.167284375,127.433748046875L26.833984375,127.433748046875Q25.756984375000002,127.433748046875,24.995494375,126.671748046875Q24.233984375,125.910748046875,24.233984375,124.833748046875L24.233984375,15.166748046875Q24.233984375,14.089798046875,24.995504375,13.328268046875Q25.757034375,12.566748046875,26.833984375,12.566748046875L94.801084375,12.566748046875Q95.877784375,12.566748046875,96.639084375,13.328208046875L115.005984375,31.694648046875Q115.767284375,32.456148046875,115.767284375,33.533148046875L115.767284375,124.833748046875Q115.767284375,125.910748046875,115.005884375,126.671748046875Q114.244384375,127.433748046875,113.167284375,127.433748046875Z" fill-rule="evenodd" fill="#434343" fill-opacity="1"/></g><g><path d="M96.833984375,35.900048046875L116.66728437500001,35.900048046875Q116.755984375,35.900048046875,116.842884375,35.882748046875Q116.929784375,35.865448046875,117.011684375,35.831548046875Q117.093584375,35.797648046875,117.16728437500001,35.748448046875Q117.240984375,35.699148046874996,117.303684375,35.636448046875Q117.366384375,35.573748046875,117.415684375,35.500048046875Q117.464884375,35.426348046875,117.498784375,35.344448046875Q117.532684375,35.262548046875,117.54998437500001,35.175648046875Q117.567284375,35.088748046875,117.567284375,35.000048046875Q117.567284375,34.911448046875,117.54998437500001,34.824448046875Q117.532684375,34.737548046875,117.498784375,34.655648046875Q117.464884375,34.573748046875,117.415684375,34.500048046875Q117.366384375,34.426348046875,117.303684375,34.363648046875Q117.240984375,34.301048046874996,117.16728437500001,34.251748046875Q117.093584375,34.202548046874995,117.011684375,34.168548046875Q116.929784375,34.134648046875,116.842884375,34.117348046875Q116.755984375,34.100048046875,116.66728437500001,34.100048046875L96.833984375,34.100048046875Q95.756944375,34.100048046875,94.995454375,33.338548046875005Q94.233984375,32.577048046875,94.233984375,31.500048046875L94.233984375,11.666748046875Q94.233984375,11.578105846875,94.216691375,11.491167046875Q94.199397375,11.404228046875,94.165475375,11.322333046875Q94.131554375,11.240438046875,94.082306375,11.166735046875Q94.033060375,11.093032046875,93.970380375,11.030352046875Q93.907700375,10.967672046875,93.833997375,10.918425046875Q93.760294375,10.869178046875,93.678399375,10.835257046875Q93.596504375,10.801335046875,93.509565375,10.784041046875Q93.422626575,10.766748046875,93.333984375,10.766748046875Q93.245342175,10.766748046875,93.158403375,10.784041046875Q93.071464375,10.801335046875,92.989569375,10.835257046875Q92.907674375,10.869178046875,92.833971375,10.918426046875Q92.760268375,10.967672046875,92.697588375,11.030352046875Q92.634908375,11.093032046875,92.585661375,11.166735046875Q92.536414375,11.240438046875,92.502493375,11.322333046875Q92.468571375,11.404228046875,92.451277375,11.491167046875Q92.433984375,11.578105846875,92.433984375,11.666748046875L92.433984375,31.500048046875Q92.433984375,33.322648046875,93.722641375,34.611348046875Q95.011334375,35.900048046875,96.833984375,35.900048046875Z" fill-rule="evenodd" fill="#434343" fill-opacity="1"/></g></g><g transform="matrix(1,0,0,-1,0,178)" clip-path="url(#master_svg1_1_396)"><g><path d="M65.5808515625,102.4181318671875Q63.4069615625,100.2442138671875,60.3325715625,100.2442138671875Q57.2581915625,100.2442138671875,55.0842695625,102.4181318671875Q52.9103515625,104.5920438671875,52.9103515625,107.6664338671875Q52.9103515625,110.7407838671875,55.0842665625,112.9147138671875Q57.2581915625,115.0886138671875,60.3325715625,115.0886138671875Q63.4069515625,115.0886138671875,65.5808515625,112.9147138671875Q67.3176515625,111.1779238671875,67.6668515625,108.8664338671875L84.0214515625,108.8664338671875L84.0214515625,112.3331138671875Q84.0214515625,112.3920138671875,84.0272515625,112.4507138671875Q84.03305156249999,112.5094138671875,84.0445515625,112.5672138671875Q84.0560515625,112.6250138671875,84.0731515625,112.6814138671875Q84.0902515625,112.7378138671875,84.1127515625,112.7923138671875Q84.1353515625,112.8468138671875,84.1631515625,112.8988138671875Q84.1909515625,112.9508138671875,84.2236515625,112.9998138671875Q84.2564515625,113.0488138671875,84.2938515625,113.0944138671875Q84.3312515625,113.1399138671875,84.37295156249999,113.1816138671875Q84.4146515625,113.2233138671875,84.4601515625,113.2607138671875Q84.5057515625,113.2981138671875,84.5547515625,113.3309138671875Q84.60375156250001,113.3636138671875,84.6557515625,113.3914138671875Q84.7077515625,113.4192138671875,84.7622515625,113.4417138671875Q84.8166515625,113.4643138671875,84.8731515625,113.4814138671875Q84.9295515625,113.4985138671875,84.9873515625,113.5100138671875Q85.0451515625,113.5215138671875,85.1038515625,113.5273138671875Q85.1625515625,113.5331138671875,85.2214515625,113.5331138671875Q85.2804515625,113.5331138671875,85.3390515625,113.5273138671875Q85.3977515625,113.5215138671875,85.4555515625,113.5100138671875Q85.51335156249999,113.4985138671875,85.5697515625,113.4814138671875Q85.6262515625,113.4643138671875,85.6806515625,113.4417138671875Q85.7351515625,113.4192138671875,85.7871515625,113.3914138671875Q85.8391515625,113.3636138671875,85.8881515625,113.3309138671875Q85.93715156249999,113.2981138671875,85.9827515625,113.2607138671875Q86.0282515625,113.2233138671875,86.0699515625,113.1816138671875Q86.1116515625,113.1399138671875,86.1490515625,113.0944138671875Q86.1864515625,113.0488138671875,86.2192515625,112.9998138671875Q86.2519515625,112.9508138671875,86.2797515625,112.8988138671875Q86.30755156250001,112.8468138671875,86.33015156249999,112.7923138671875Q86.3526515625,112.7378138671875,86.3697515625,112.6814138671875Q86.3869515625,112.6250138671875,86.3983515625,112.5672138671875Q86.4099515625,112.5094138671875,86.4156515625,112.4507138671875Q86.42145156250001,112.3920138671875,86.42145156250001,112.3331138671875L86.42145156250001,107.6664338671875Q86.42145156250001,107.6074838671875,86.4156515625,107.5488138671875Q86.4099515625,107.4901438671875,86.3983515625,107.4323238671875Q86.3869515625,107.3745038671875,86.3697515625,107.3180938671875Q86.3526515625,107.2616838671875,86.33015156249999,107.2072138671875Q86.30755156250001,107.1527538671875,86.2797515625,107.1007638671875Q86.2519515625,107.0487638671875,86.2192515625,106.9997538671875Q86.1864515625,106.9507338671875,86.1490515625,106.9051638671875Q86.1116515625,106.8595938671875,86.0699515625,106.8179038671875Q86.0282515625,106.7762238671875,85.9827515625,106.7388238671875Q85.93715156249999,106.7014238671875,85.8881515625,106.6686738671875Q85.8391515625,106.6359238671875,85.7871515625,106.6081338671875Q85.7351515625,106.5803438671875,85.6806515625,106.5577838671875Q85.6262515625,106.5352238671875,85.5697515625,106.5181038671875Q85.51335156249999,106.5009938671875,85.4555515625,106.4894938671875Q85.3977515625,106.47799386718751,85.3390515625,106.4722138671875Q85.2804515625,106.4664338671875,85.2214515625,106.4664338671875L67.6668515625,106.4664338671875Q67.3176515625,104.1549138671875,65.5808515625,102.4181318671875ZM65.3547515625,107.6664338671875Q65.3547515625,105.5861638671875,63.8838215625,104.1151838671875Q62.4128515625,102.6442138671875,60.3325715625,102.6442138671875Q58.2523015625,102.6442138671875,56.7813215625,104.1151838671875Q55.3103515625,105.5861638671875,55.3103515625,107.6664338671875Q55.3103515625,109.7466738671875,56.7813315625,111.2176638671875Q58.2523115625,112.6886138671875,60.3325715625,112.6886138671875Q62.4128315625,112.6886138671875,63.8838215625,111.2176638671875Q65.3547515625,109.7466738671875,65.3547515625,107.6664338671875Z" fill-rule="evenodd" fill="#1878F5" fill-opacity="1"/></g><g><path d="M77.8,107.666748046875L77.8,112.333418046875Q77.8,112.392368046875,77.80578,112.451038046875Q77.81156,112.509708046875,77.82306,112.567518046875Q77.83456,112.625338046875,77.85167,112.681758046875Q77.86878,112.738168046875,77.89134,112.792638046875Q77.9139,112.847098046875,77.94169,112.899088046875Q77.96948,112.951078046875,78.002236,113.000098046875Q78.034989,113.049118046875,78.072387,113.094688046875Q78.109786,113.140258046875,78.151472,113.181938046875Q78.193157,113.223628046875,78.238728,113.261028046875Q78.284299,113.298428046875,78.333316,113.331178046875Q78.382333,113.363928046875,78.434324,113.391718046875Q78.486315,113.419508046875,78.54078,113.442068046875Q78.595245,113.464628046875,78.651658,113.481748046875Q78.708072,113.498858046875,78.765892,113.510358046875Q78.823711,113.521858046875,78.882379,113.527638046875Q78.9410478,113.533418046875,79,113.533418046875Q79.0589522,113.533418046875,79.117621,113.527638046875Q79.176289,113.521858046875,79.234108,113.510358046875Q79.291928,113.498858046875,79.348342,113.481738046875Q79.404755,113.464628046875,79.45922,113.442068046875Q79.513685,113.419508046875,79.565676,113.391718046875Q79.617667,113.363928046875,79.666684,113.331178046875Q79.715701,113.298428046875,79.761272,113.261028046875Q79.806843,113.223628046875,79.848528,113.181938046875Q79.890214,113.140258046875,79.927613,113.094688046875Q79.965011,113.049118046875,79.997764,113.000098046875Q80.03052,112.951078046875,80.05831,112.899088046875Q80.0861,112.847098046875,80.10866,112.792638046875Q80.13122,112.738168046875,80.14833,112.681758046875Q80.16544,112.625338046875,80.17694,112.567518046875Q80.18844,112.509708046875,80.19422,112.451038046875Q80.2,112.392368046875,80.2,112.333418046875L80.2,107.666748046875Q80.2,107.607795846875,80.19422,107.549127046875Q80.18844,107.490459046875,80.17694,107.432640046875Q80.16544,107.374820046875,80.14833,107.318406046875Q80.13122,107.261993046875,80.10866,107.207528046875Q80.0861,107.153063046875,80.05831,107.101072046875Q80.03052,107.049081046875,79.997764,107.000064046875Q79.965011,106.951047046875,79.927613,106.905476046875Q79.890214,106.859905046875,79.848528,106.818220046875Q79.806843,106.776534046875,79.761272,106.739135046875Q79.715701,106.701737046875,79.666684,106.668984046875Q79.617667,106.636228046875,79.565676,106.608438046875Q79.513685,106.580648046875,79.45922,106.558088046875Q79.404755,106.535528046875,79.348342,106.518418046875Q79.291928,106.501308046875,79.234108,106.489808046875Q79.176289,106.478308046875,79.117621,106.472528046875Q79.0589522,106.466748046875,79,106.466748046875Q78.9410478,106.466748046875,78.882379,106.472528046875Q78.823711,106.478308046875,78.765892,106.489808046875Q78.708072,106.501308046875,78.651658,106.518418046875Q78.595245,106.535528046875,78.54078,106.558088046875Q78.486315,106.580648046875,78.434324,106.608438046875Q78.382333,106.636228046875,78.333316,106.668984046875Q78.284299,106.701737046875,78.238728,106.739135046875Q78.193157,106.776534046875,78.151472,106.818220046875Q78.109786,106.859905046875,78.072387,106.905476046875Q78.034989,106.951047046875,78.002236,107.000064046875Q77.96948,107.049081046875,77.94169,107.101072046875Q77.9139,107.153063046875,77.89134,107.207528046875Q77.86878,107.261993046875,77.85167,107.318406046875Q77.83456,107.374820046875,77.82306,107.432640046875Q77.81156,107.490459046875,77.80578,107.549127046875Q77.8,107.607795846875,77.8,107.666748046875Z" fill-rule="evenodd" fill="#1878F5" fill-opacity="1"/></g></g></g></svg>