<svg xmlns="http://www.w3.org/2000/svg" xmlns:xlink="http://www.w3.org/1999/xlink" fill="none" version="1.1" width="20" height="20" viewBox="0 0 20 20"><defs><clipPath id="master_svg0_1_0321"><rect x="0" y="0" width="20" height="20" rx="0"/></clipPath></defs><g clip-path="url(#master_svg0_1_0321)"><g><path d="M15.838365649414062,5.4000784374999995Q15.766565649414062,5.2514584375,15.640465649414063,5.1252984375L13.541455649414063,3.0263514375Q13.415315649414062,2.9001794375,13.266665649414062,2.8283488375L13.266665649414062,5.4000684375L15.838365649414062,5.4000784374999995ZM12.066665649414062,2.7333984375L5.0666656494140625,2.7333984375Q4.652452649414062,2.7333984375,4.359558649414063,3.0262914375Q4.0666656494140625,3.3191854375,4.0666656494140625,3.7333984375L4.0666656494140625,16.2666984375Q4.0666656494140625,16.6809984375,4.359566649414062,16.9738984375Q4.652454649414063,17.2666984375,5.0666656494140625,17.2666984375L14.933365649414062,17.2666984375Q15.347565649414063,17.2666984375,15.640465649414063,16.9737984375Q15.933365649414062,16.6809984375,15.933365649414062,16.2666984375L15.933365649414062,6.600078437500001L13.066665649414062,6.6000684375Q12.652435649414063,6.6000684375,12.359545649414063,6.3071684375Q12.066665649414062,6.0142784375,12.066665649414062,5.6000684375L12.066665649414062,2.7333984375ZM7.3334156494140625,9.266648437499999L12.666745649414063,9.266648437499999C12.998115649414062,9.266648437499999,13.266745649414062,8.9980184375,13.266745649414062,8.666648437500001C13.266745649414062,8.335278437500001,12.998115649414062,8.0666484375,12.666745649414063,8.0666484375L7.3334156494140625,8.0666484375C7.002045649414063,8.0666484375,6.733415649414063,8.335278437500001,6.733415649414063,8.666648437500001C6.733415649414063,8.9980184375,7.002045649414063,9.266648437499999,7.3334156494140625,9.266648437499999ZM7.3334156494140625,11.9333984375L10.000075649414063,11.9333984375C10.331455649414062,11.9333984375,10.600075649414062,11.6647684375,10.600075649414062,11.3333984375C10.600075649414062,11.0020284375,10.331455649414062,10.7333984375,10.000075649414063,10.7333984375L7.3334156494140625,10.7333984375C7.002045649414063,10.7333984375,6.733415649414063,11.0020284375,6.733415649414063,11.3333984375C6.733415649414063,11.6647684375,7.002045649414063,11.9333984375,7.3334156494140625,11.9333984375ZM7.3334156494140625,14.5999984375L12.666745649414063,14.5999984375C12.998115649414062,14.5999984375,13.266745649414062,14.3313984375,13.266745649414062,13.9999984375C13.266745649414062,13.6686984375,12.998115649414062,13.3999984375,12.666745649414063,13.3999984375L7.3334156494140625,13.3999984375C7.002045649414063,13.3999984375,6.733415649414063,13.6686984375,6.733415649414063,13.9999984375C6.733415649414063,14.3313984375,7.002045649414063,14.5999984375,7.3334156494140625,14.5999984375Z" fill-rule="evenodd" fill="#1878F5" fill-opacity="1"/></g></g></svg>