<svg xmlns="http://www.w3.org/2000/svg" xmlns:xlink="http://www.w3.org/1999/xlink" fill="none" version="1.1" width="16" height="16" viewBox="0 0 16 16"><defs><clipPath id="master_svg0_1527_24558/1507_07983"><rect x="0" y="0" width="16" height="16" rx="0"/></clipPath></defs><g clip-path="url(#master_svg0_1527_24558/1507_07983)"><g><g><rect x="1.5" y="1.5" width="13" height="13" rx="1" fill="#FAFAFA" fill-opacity="1"/></g><g><path d="M1.5,14.499999406738281L14.5,14.499999406738281L14.5,9.09043940673828L11.47285,6.848579406738281L8.80819,9.90531940673828L5.91729,7.424289406738281L1.5,11.45697940673828L1.5,14.499999406738281Z" fill="#BFBFBF" fill-opacity="1"/></g><g><path d="M10.460601875,11.97792859375L6.054331875,8.20112859375Q5.922121875,8.08780159375,5.793791875,8.205448593749999L2.070283875,11.61865859375C1.978068875,11.70318859375,1.857517875,11.75008859375,1.732421875,11.75008859375C1.456279875,11.75008859375,1.232421875,11.52622859375,1.232421875,11.25008859375C1.232421875,11.10992859375,1.291245075,10.97620859375,1.3945598750000001,10.88150859375L5.118031875,7.46832359375Q5.452661875,7.16156247375,5.906561875,7.15399745075Q6.360461875,7.14643234375,6.705121875,7.44186859375L11.111131875,11.21844859375L11.111131875,11.21844859375C11.222211875,11.313658593749999,11.286021875,11.45233859375,11.286021875,11.59829859375C11.286021875,11.87443859375,11.062131875,12.09829859375,10.785991875,12.09829859375C10.666641875,12.09829859375,10.551221875,12.05559859375,10.460601875,11.97792859375Z" fill-rule="evenodd" fill="#434343" fill-opacity="1"/></g><g><path d="M13.967321875,9.328623789062501L11.664821875,7.6017637890625Q11.531391875,7.5016937890625,11.413161875,7.6149837890625L9.130112875,10.0721637890625C9.035364874999999,10.1741437890625,8.902653875,10.2319937890625,8.763671875,10.2319937890625C8.487529875,10.2319937890625,8.263671875,10.0081337890625,8.263671875,9.7319937890625C8.263671875,9.6057337890625,8.311437775,9.4841537890625,8.397377875,9.3916537890625L10.694471875,6.9193607890625L10.700961875,6.9128697890625Q11.016711875,6.5971244890625,11.462141875,6.5654769490625Q11.907561874999999,6.5338299890625,12.264821874999999,6.8017587890625L14.567311875,8.5286237890625C14.693221874999999,8.6230537890625,14.767311875,8.771243789062499,14.767311875,8.9286237890625C14.767311875,9.2047637890625,14.543461875,9.4286237890625,14.267311875,9.4286237890625C14.159131875,9.4286237890625,14.053861874999999,9.3935337890625,13.967321875,9.328623789062501Z" fill-rule="evenodd" fill="#434343" fill-opacity="1"/></g><g><path d="M1,2.5L1,13.5Q1,14.1213,1.43934,14.5607Q1.8786800000000001,15,2.5,15L13.5,15Q14.1213,15,14.5607,14.5607Q15,14.1213,15,13.5L15,2.5Q15,1.8786800000000001,14.5607,1.43934Q14.1213,1,13.5,1L2.5,1Q1.8786800000000001,1,1.43934,1.43934Q1,1.8786800000000001,1,2.5ZM2.1464499999999997,13.8536Q2,13.7071,2,13.5L2,2.5Q2,2.29289,2.1464499999999997,2.1464499999999997Q2.29289,2,2.5,2L13.5,2Q13.7071,2,13.8536,2.1464499999999997Q14,2.29289,14,2.5L14,13.5Q14,13.7071,13.8536,13.8536Q13.7071,14,13.5,14L2.5,14Q2.29289,14,2.1464499999999997,13.8536Z" fill-rule="evenodd" fill="#434343" fill-opacity="1"/></g><g><path d="M6.877180624999999,4.447643311157226Q6.877180624999999,4.506953311157226,6.8713606249999994,4.565963311157226Q6.865550625,4.6249833111572265,6.853980625,4.6831433111572265Q6.842410624999999,4.741313311157226,6.825200625,4.798063311157227Q6.807980625,4.854813311157226,6.785290625,4.909603311157227Q6.762590625,4.9643933111572265,6.734640625,5.016693311157226Q6.706680625000001,5.068993311157227,6.673740625000001,5.118303311157226Q6.640790625,5.167603311157227,6.603170625000001,5.2134533111572265Q6.565550625,5.259293311157227,6.523610625,5.3012233111572264Q6.481680625,5.343163311157227,6.435840625,5.380783311157227Q6.389990625,5.418403311157227,6.340690625,5.451353311157227Q6.291380625,5.484293311157227,6.239080625,5.5122533111572265Q6.186780625,5.540203311157226,6.131990625,5.562903311157227Q6.077200625,5.5855933111572265,6.0204506250000005,5.6028133111572265Q5.9637006249999995,5.620023311157226,5.905530625,5.631593311157227Q5.847370625,5.643163311157227,5.788350625,5.648973311157226Q5.729340625,5.654793311157226,5.670030625,5.654793311157226Q5.610730625,5.654793311157226,5.551710625,5.648973311157226Q5.492690625,5.643163311157227,5.434531625,5.631593311157227Q5.376367625,5.620023311157226,5.319618625,5.6028133111572265Q5.262868625,5.5855933111572265,5.208079625,5.562903311157227Q5.153290625,5.540203311157226,5.100990625,5.5122533111572265Q5.048689625,5.484293311157227,4.999380625,5.451353311157227Q4.950072625,5.418403311157227,4.904230625,5.380783311157227Q4.858388625,5.343163311157227,4.816454625,5.3012233111572264Q4.774520625,5.259293311157227,4.736899625,5.2134533111572265Q4.699277625,5.167603311157227,4.666330625,5.118303311157226Q4.6333836250000004,5.068993311157227,4.605428625,5.016693311157226Q4.577473625,4.9643933111572265,4.554778925,4.909603311157227Q4.532084625,4.854813311157226,4.514869825,4.798063311157227Q4.497655025,4.741313311157226,4.486085525,4.6831433111572265Q4.474516025,4.6249833111572265,4.468703345,4.565963311157226Q4.462890625,4.506953311157226,4.462890625,4.447643311157226Q4.462890625,4.388343311157227,4.468703345,4.329323311157227Q4.474516025,4.270303311157226,4.486085525,4.2121443111572265Q4.497655025,4.153980311157227,4.514869825,4.097231311157227Q4.532084625,4.040481311157227,4.554778925,3.9856923111572264Q4.577473625,3.9309033111572265,4.605428625,3.8786033111572267Q4.6333836250000004,3.8263023111572263,4.666330625,3.7769933111572267Q4.699277625,3.7276853111572263,4.736899625,3.6818433111572264Q4.774520625,3.6360013111572265,4.816454625,3.5940673111572266Q4.858388625,3.5521333111572266,4.904230625,3.5145123111572265Q4.950072625,3.4768903111572267,4.999380625,3.4439433111572266Q5.048689625,3.4109963111572266,5.100990625,3.3830413111572266Q5.153290625,3.3550863111572267,5.208079625,3.3323916111572265Q5.262868625,3.3096973111572265,5.319618625,3.2924825111572265Q5.376367625,3.2752677111572264,5.434531625,3.2636982111572266Q5.492690625,3.2521287111572263,5.551710625,3.246316031157227Q5.610730625,3.2405033111572266,5.670030625,3.2405033111572266Q5.729340625,3.2405033111572266,5.788350625,3.246316031157227Q5.847370625,3.2521287111572263,5.905530625,3.2636982111572266Q5.9637006249999995,3.2752677111572264,6.0204506250000005,3.2924825111572265Q6.077200625,3.3096973111572265,6.131990625,3.3323916111572265Q6.186780625,3.3550863111572267,6.239080625,3.3830413111572266Q6.291380625,3.4109963111572266,6.340690625,3.4439433111572266Q6.389990625,3.4768903111572267,6.435840625,3.5145123111572265Q6.481680625,3.5521333111572266,6.523610625,3.5940673111572266Q6.565550625,3.6360013111572265,6.603170625000001,3.6818433111572264Q6.640790625,3.7276853111572263,6.673740625000001,3.7769933111572267Q6.706680625000001,3.8263023111572263,6.734640625,3.8786033111572267Q6.762590625,3.9309033111572265,6.785290625,3.9856923111572264Q6.807980625,4.040481311157227,6.825200625,4.097231311157227Q6.842410624999999,4.153980311157227,6.853980625,4.2121443111572265Q6.865550625,4.270303311157226,6.8713606249999994,4.329323311157227Q6.877180624999999,4.388343311157227,6.877180624999999,4.447643311157226Z" fill="#8C8C8C" fill-opacity="1"/></g><g><path d="M6.7359359375,5.5132796875Q7.1773759375,5.0718496875,7.1773759375,4.4475696875Q7.1773759375,3.8232936875,6.7359359375,3.3818616875Q6.2945059375,2.9404296875,5.6702259375,2.9404296875Q5.0459499375,2.9404296875,4.6045179375,3.3818616875Q4.1630859673023,3.8232936875,4.1630859375,4.4475696875Q4.1630858778954,5.0718496875,4.6045179375,5.5132796875Q5.0459499375,5.9547196875,5.6702259375,5.9547196875Q6.2945059375,5.9547196875,6.7359359375,5.5132796875ZM6.3116759375,3.8061256875Q6.577375937499999,4.0718196875,6.577375937499999,4.4475696875Q6.577375937499999,4.8233196875,6.3116759375,5.0890196875Q6.0459759375,5.354719687499999,5.6702259375,5.354719687499999Q5.2944759375,5.354719687499999,5.0287819375,5.0890196875Q4.7630859375,4.8233196875,4.7630859375,4.4475696875Q4.7630859375,4.0718196875,5.0287819375,3.8061256875Q5.2944759375,3.5404296875,5.6702259375,3.5404296875Q6.0459759375,3.5404296875,6.3116759375,3.8061256875Z" fill-rule="evenodd" fill="#434343" fill-opacity="1"/></g></g></g></svg>