<svg xmlns="http://www.w3.org/2000/svg" xmlns:xlink="http://www.w3.org/1999/xlink" fill="none" version="1.1" width="16" height="16" viewBox="0 0 16 16"><defs><clipPath id="master_svg0_57_1269"><rect x="0" y="0" width="16" height="16" rx="0"/></clipPath></defs><g clip-path="url(#master_svg0_57_1269)"><g><path d="M1.575891,13.5755359765625L1.575736,13.5756959765625Q1.491345,13.660085976562499,1.445672,13.7703459765625Q1.4,13.880615976562499,1.4,13.9999559765625Q1.4,14.1193059765625,1.445672,14.229565976562501Q1.491345,14.339835976562501,1.575736,14.4242259765625Q1.6601270000000001,14.5086159765625,1.77039,14.5542859765625Q1.880653,14.5999559765625,2,14.5999559765625Q2.119347,14.5999559765625,2.22961,14.5542859765625Q2.339873,14.5086159765625,2.424264,14.4242259765625L2.424419,14.424065976562499L6.75744,10.0910449765625L6.7576,10.0908899765625Q6.84199,10.0064989765625,6.88766,9.8962359765625Q6.93333,9.7859729765625,6.93333,9.6666259765625Q6.93333,9.5472789765625,6.88766,9.4370159765625Q6.84199,9.3267529765625,6.7576,9.2423619765625Q6.67321,9.1579709765625,6.56294,9.1122979765625Q6.45268,9.0666259765625,6.33333,9.0666259765625Q6.21399,9.0666259765625,6.10372,9.1122979765625Q5.99346,9.1579709765625,5.90907,9.2423619765625L5.9089100000000006,9.2425169765625L1.575891,13.5755359765625Z" fill-rule="evenodd" fill="#1878F5" fill-opacity="1"/></g><g><path d="M3.3333740234375,6.3234637890625L9.4616640234375,12.4517837890625L10.5929940234375,11.3203437890625L10.3315940234375,8.796213789062499L14.0043740234375,5.680673789062499L10.104524023437499,1.7808837890625L6.9889240234375,5.4535037890625L4.4647440234375,5.1920937890625005L3.3333740234375,6.3234637890625Z" fill="#1878F5" fill-opacity="1"/><path d="M4.5265540234375,4.5952937890625005Q4.3917440234375,4.5813337890625,4.2640320234375,4.6266637890624995Q4.1363150234375,4.6720037890625,4.0404840234375,4.7678337890625L2.9091110234375,5.8992037890625Q2.8673250234375,5.9409837890625,2.8344930234375,5.9901237890625Q2.8016620234375003,6.0392537890625,2.7790470234375,6.0938537890625Q2.7564320234375,6.1484537890625,2.7449030234375,6.2064037890625Q2.7333740234375,6.2643637890625,2.7333740234375,6.3234637890625Q2.7333740234375,6.3825537890625,2.7449030234375,6.4405137890625Q2.7564310234375,6.4984737890625,2.7790460234375,6.5530737890625Q2.8016600234375,6.6076737890625,2.8344910234375,6.6568037890625Q2.8673230234375,6.7059437890625,2.9091090234375,6.7477237890625L9.0373940234375,12.8759837890625Q9.079184023437499,12.9177837890625,9.1283140234375,12.9505837890625Q9.1774540234375,12.9834837890625,9.232054023437499,13.0060837890625Q9.2866440234375,13.0286837890625,9.344604023437501,13.0401837890625Q9.402564023437499,13.0517837890625,9.4616640234375,13.0517837890625Q9.520754023437501,13.0517837890625,9.578714023437499,13.0401837890625Q9.6366740234375,13.0286837890625,9.6912740234375,13.0060837890625Q9.7458640234375,12.9834837890625,9.7950040234375,12.9505837890625Q9.844134023437501,12.9177837890625,9.8859240234375,12.8759837890625L11.017274023437501,11.7445937890625Q11.113094023437501,11.6487637890625,11.158424023437501,11.5210537890625Q11.2037640234375,11.3933437890625,11.1898040234375,11.2585437890625L10.9609940234375,9.0491037890625L14.3924740234375,6.1382237890625Q14.4834740234375,6.0610237890625,14.5379740234375,5.9548637890625Q14.5925740234375,5.8487137890625,14.6022740234375,5.7297637890625Q14.6120740234375,5.6108137890625,14.5755740234375,5.4971837890625Q14.5390740234375,5.3835537890625,14.4618740234375,5.2925437890625Q14.4459740234375,5.2737937890625,14.4285740234375,5.2564137890625L10.5287940234375,1.3566197890625Q10.4444040234375,1.2722277890625,10.3341340234375,1.2265557890625Q10.2238740234375,1.1808837890625,10.104524023437499,1.1808837890625Q9.9851740234375,1.1808837890625,9.874914023437501,1.2265567890625Q9.764654023437501,1.2722287890625,9.6802640234375,1.3566197890625Q9.662884023437499,1.3739977890625,9.6469840234375,1.3927377890625001L6.7360440234375005,4.8241037890625L4.5265540234375,4.5952937890625005ZM4.6870440234375,5.8183237890625L4.1819040234375,6.3234637890625L9.4616440234375,11.6032037890625L9.9667640234375,11.0980537890625L9.7347840234375,8.8580137890625Q9.7272540234375,8.785263789062501,9.7374140234375,8.7128237890625Q9.7475840234375,8.6403837890625,9.7748540234375,8.5725137890625Q9.8021240234375,8.5046437890625,9.8449040234375,8.4453137890625Q9.887684023437501,8.3859837890625,9.9434640234375,8.338663789062501L13.1195440234375,5.6444237890625L10.1407640234375,2.6656507890625L7.4464640234375,5.8416537890625Q7.3991540234375,5.8974237890625,7.3398140234375,5.9402037890625Q7.2804840234375,5.9829837890625,7.212614023437499,6.0102437890625Q7.1447440234375,6.0375137890625,7.0723140234374995,6.0476837890625Q6.9998740234375,6.0578437890625,6.9271240234375,6.0503137890625L4.6870440234375,5.8183237890625Z" fill-rule="evenodd" fill="#1878F5" fill-opacity="1"/></g></g></svg>