<svg xmlns="http://www.w3.org/2000/svg" xmlns:xlink="http://www.w3.org/1999/xlink" fill="none" version="1.1" width="16" height="16" viewBox="0 0 16 16"><defs><clipPath id="master_svg0_33_3904"><rect x="0" y="0" width="16" height="16" rx="0"/></clipPath></defs><g clip-path="url(#master_svg0_33_3904)"><g><path d="M1.575891,13.5755359765625L1.575736,13.5756959765625Q1.491345,13.660085976562499,1.445672,13.7703459765625Q1.4,13.880615976562499,1.4,13.9999559765625Q1.4,14.1193059765625,1.445672,14.229565976562501Q1.491345,14.339835976562501,1.575736,14.4242259765625Q1.6601270000000001,14.5086159765625,1.77039,14.5542859765625Q1.880653,14.5999559765625,2,14.5999559765625Q2.119347,14.5999559765625,2.22961,14.5542859765625Q2.339873,14.5086159765625,2.424264,14.4242259765625L2.424419,14.424065976562499L6.75744,10.0910449765625L6.7576,10.0908899765625Q6.84199,10.0064989765625,6.88766,9.8962359765625Q6.93333,9.7859729765625,6.93333,9.6666259765625Q6.93333,9.5472789765625,6.88766,9.4370159765625Q6.84199,9.3267529765625,6.7576,9.2423619765625Q6.67321,9.1579709765625,6.56294,9.1122979765625Q6.45268,9.0666259765625,6.33333,9.0666259765625Q6.21399,9.0666259765625,6.10372,9.1122979765625Q5.99346,9.1579709765625,5.90907,9.2423619765625L5.9089100000000006,9.2425169765625L1.575891,13.5755359765625Z" fill-rule="evenodd" fill="#333333" fill-opacity="1"/></g><g><path d="M4.52667609375,4.5954158593750005Q4.39186609375,4.581455859375,4.26415409375,4.6267858593749995Q4.13643709375,4.672125859375,4.04060609375,4.767955859375L2.90923309375,5.899325859375Q2.86744709375,5.941105859375,2.83461509375,5.990245859375Q2.8017840937500003,6.039375859375,2.77916909375,6.093975859375Q2.75655409375,6.148575859375,2.74502509375,6.206525859375Q2.73349609375,6.264485859375,2.73349609375,6.323585859375Q2.73349609375,6.382675859375,2.74502509375,6.440635859375Q2.75655309375,6.498595859375,2.77916809375,6.553195859375Q2.80178209375,6.607795859375,2.83461309375,6.656925859375Q2.86744509375,6.706065859375,2.90923109375,6.747845859375L9.03751609375,12.876105859375Q9.079306093749999,12.917905859375,9.12843609375,12.950705859375Q9.17757609375,12.983605859375,9.232176093749999,13.006205859375Q9.28676609375,13.028805859375,9.344726093750001,13.040305859375Q9.402686093749999,13.051905859375,9.46178609375,13.051905859375Q9.520876093750001,13.051905859375,9.578836093749999,13.040305859375Q9.63679609375,13.028805859375,9.69139609375,13.006205859375Q9.74598609375,12.983605859375,9.79512609375,12.950705859375Q9.844256093750001,12.917905859375,9.88604609375,12.876105859375L11.017396093750001,11.744715859375Q11.113216093750001,11.648885859375,11.158546093750001,11.521175859375Q11.20388609375,11.393465859375,11.18992609375,11.258665859375L10.96111609375,9.049225859375L14.39259609375,6.138345859375Q14.48359609375,6.061145859375,14.53809609375,5.954985859375Q14.59269609375,5.848835859375,14.60239609375,5.729885859375Q14.61219609375,5.610935859375,14.57569609375,5.497305859375Q14.53919609375,5.383675859375,14.46199609375,5.292665859375Q14.44609609375,5.273915859375,14.42869609375,5.256535859375L10.52891609375,1.356741859375Q10.44452609375,1.272349859375,10.33425609375,1.226677859375Q10.22399609375,1.181005859375,10.104646093749999,1.181005859375Q9.98529609375,1.181005859375,9.875036093750001,1.226678859375Q9.764776093750001,1.272350859375,9.68038609375,1.356741859375Q9.663006093749999,1.374119859375,9.64710609375,1.3928598593750001L6.7361660937500005,4.824225859375L4.52667609375,4.5954158593750005ZM4.68716609375,5.818445859375L4.18202609375,6.323585859375L9.46176609375,11.603325859375L9.96688609375,11.098175859375L9.73490609375,8.858135859375Q9.72737609375,8.785385859375001,9.73753609375,8.712945859375Q9.74770609375,8.640505859375,9.77497609375,8.572635859375Q9.80224609375,8.504765859375,9.84502609375,8.445435859375Q9.887806093750001,8.386105859375,9.94358609375,8.338785859375001L13.11966609375,5.644545859375L10.14088609375,2.665772859375L7.44658609375,5.841775859375Q7.39927609375,5.897545859375,7.33993609375,5.940325859375Q7.28060609375,5.983105859375,7.212736093749999,6.010365859375Q7.14486609375,6.037635859375,7.0724360937499995,6.047805859375Q6.99999609375,6.057965859375,6.92724609375,6.050435859375L4.68716609375,5.818445859375Z" fill-rule="evenodd" fill="#333333" fill-opacity="1"/></g></g></svg>