<svg width="16" height="16" viewBox="0 0 16 16" fill="none" stroke-width="1.5">
<g id="group-0" stroke="currentColor" fill="currentColor"><path d="M11.9861 7.49764C12.6051 6.42541 13.3032 6.57884 13.7716 6.80569C13.9207 6.87791 14.1021 6.8326 14.1849 6.68912L14.4101 6.29912C14.8243 5.58169 14.5785 4.66425 13.8611 4.25004L9.09794 1.50004C8.3805 1.08583 7.46311 1.33164 7.0489 2.04908L6.8239 2.43879C6.74106 2.58228 6.7923 2.7623 6.9294 2.85533C7.36006 3.14755 7.84199 3.67541 7.22294 4.74764C6.47294 6.04667 6.03992 5.79667 5.35691 5.97969C4.7085 6.15343 2.82896 6.65705 1.7846 8.18956C1.6913 8.32647 1.73835 8.50931 1.88184 8.59215L8.16645 12.2206M6.6039 11.3184L4.60451 14.7829" stroke-linecap="round" stroke-linejoin="miter" fill="none" vector-effect="non-scaling-stroke"></path></g>
<g id="group-1" stroke="currentColor" fill="currentColor">
<path d="M11.25 10.75L14.75 14.25M14.75 10.75L11.25 14.25" stroke-linecap="round" stroke-linejoin="miter" fill="none" vector-effect="non-scaling-stroke"></path></g>
</svg>