<svg xmlns="http://www.w3.org/2000/svg" xmlns:xlink="http://www.w3.org/1999/xlink" fill="none" version="1.1" width="28" height="28" viewBox="0 0 28 28"><defs><clipPath id="master_svg0_57_787"><rect x="0" y="0" width="28" height="28" rx="0"/></clipPath><clipPath id="master_svg1_57_906"><rect x="5" y="5" width="18" height="18" rx="0"/></clipPath></defs><g clip-path="url(#master_svg0_57_787)"><g clip-path="url(#master_svg1_57_906)"><g transform="matrix(0,-1,1,0,-12,28)"><path d="M8.6,32L8.6,20Q8.6,19.9409052,8.588471,19.882946Q8.576942,19.824986,8.554328,19.77039Q8.531713,19.715793,8.498882,19.666657999999998Q8.46605,19.617522,8.424264,19.575736Q8.382478,19.53395,8.333342,19.501118Q8.284207,19.468287,8.22961,19.445672Q8.175014000000001,19.423058,8.117054,19.411529Q8.0590948,19.4,8,19.4Q7.9409051999999996,19.4,7.882946,19.411529Q7.824986,19.423058,7.77039,19.445672Q7.715793,19.468287,7.666658,19.501118Q7.617522,19.53395,7.575736,19.575736Q7.53395,19.617522,7.501118,19.666657999999998Q7.468287,19.715793,7.445672,19.77039Q7.423058,19.824986,7.411529,19.882946Q7.4,19.9409052,7.4,20L7.4,32Q7.4,32.0591,7.411529,32.1171Q7.423058,32.175,7.445672,32.2296Q7.468287,32.2842,7.501118,32.3333Q7.53395,32.3825,7.575736,32.4243Q7.617522,32.466,7.666658,32.4989Q7.715793,32.5317,7.77039,32.5543Q7.824986,32.5769,7.882946,32.588499999999996Q7.9409051999999996,32.6,8,32.6Q8.0590948,32.6,8.117054,32.588499999999996Q8.175014000000001,32.5769,8.22961,32.5543Q8.284207,32.5317,8.333342,32.4989Q8.382478,32.466,8.424264,32.4243Q8.46605,32.3825,8.498882,32.3333Q8.531713,32.2842,8.554328,32.2296Q8.576942,32.175,8.588471,32.1171Q8.6,32.0591,8.6,32Z" fill-rule="evenodd" fill="#404040" fill-opacity="1"/></g><g transform="matrix(-1,0,0,-1,26,36)"><rect x="13" y="18" width="3" height="10" rx="1" fill="#404040" fill-opacity="1"/></g><g transform="matrix(-1,0,0,-1,36,36)"><rect x="18" y="18" width="3" height="7" rx="1" fill="#404040" fill-opacity="1"/></g></g></g></svg>