<svg xmlns="http://www.w3.org/2000/svg" xmlns:xlink="http://www.w3.org/1999/xlink" fill="none" version="1.1" width="28" height="28" viewBox="0 0 28 28"><defs><clipPath id="master_svg0_57_797"><rect x="0" y="0" width="28" height="28" rx="0"/></clipPath><clipPath id="master_svg1_57_894"><rect x="5" y="5" width="18" height="18" rx="0"/></clipPath></defs><g clip-path="url(#master_svg0_57_797)"><g clip-path="url(#master_svg1_57_894)"><g transform="matrix(-1,0,0,1,41.5,0)"><path d="M21.35,20L21.35,8Q21.35,7.9409051999999996,21.338471,7.882946Q21.326942,7.824986,21.304328,7.77039Q21.281713,7.715793,21.248882,7.666658Q21.21605,7.617522,21.174264,7.575736Q21.132478,7.53395,21.083342000000002,7.501118Q21.034207,7.468287,20.97961,7.445672Q20.925014,7.423058,20.867054,7.411529Q20.8090948,7.4,20.75,7.4Q20.6909052,7.4,20.632946,7.411529Q20.574986,7.423058,20.52039,7.445672Q20.465793,7.468287,20.416657999999998,7.501118Q20.367522,7.53395,20.325736,7.575736Q20.28395,7.617522,20.251118,7.666658Q20.218287,7.715793,20.195672,7.77039Q20.173058,7.824986,20.161529,7.882946Q20.15,7.9409051999999996,20.15,8L20.15,20Q20.15,20.0591,20.161529,20.1171Q20.173058,20.175,20.195672,20.229599999999998Q20.218287,20.2842,20.251118,20.3333Q20.28395,20.3825,20.325736,20.424300000000002Q20.367522,20.466,20.416657999999998,20.4989Q20.465793,20.5317,20.52039,20.554299999999998Q20.574986,20.576900000000002,20.632946,20.5885Q20.6909052,20.6,20.75,20.6Q20.8090948,20.6,20.867054,20.5885Q20.925014,20.576900000000002,20.97961,20.554299999999998Q21.034207,20.5317,21.083342000000002,20.4989Q21.132478,20.466,21.174264,20.424300000000002Q21.21605,20.3825,21.248882,20.3333Q21.281713,20.2842,21.304328,20.229599999999998Q21.326942,20.175,21.338471,20.1171Q21.35,20.0591,21.35,20Z" fill-rule="evenodd" fill="#404040" fill-opacity="1"/></g><g transform="matrix(-1,0,0,1,36,0)"><rect x="18" y="10" width="11" height="3" rx="1" fill="#404040" fill-opacity="1"/></g><g transform="matrix(-1,0,0,1,36,0)"><rect x="18" y="15" width="8" height="3" rx="1" fill="#404040" fill-opacity="1"/></g></g></g></svg>