<svg xmlns="http://www.w3.org/2000/svg" xmlns:xlink="http://www.w3.org/1999/xlink" fill="none" version="1.1" width="28" height="28" viewBox="0 0 28 28"><defs><clipPath id="master_svg0_57_789"><rect x="0" y="0" width="28" height="28" rx="0"/></clipPath><clipPath id="master_svg1_57_884"><rect x="5" y="5" width="18" height="18" rx="0"/></clipPath></defs><g clip-path="url(#master_svg0_57_789)"><g clip-path="url(#master_svg1_57_884)"><g><path d="M7.85,20L7.85,8Q7.85,7.9409051999999996,7.838471,7.882946Q7.826942,7.824986,7.804328,7.77039Q7.781713,7.715793,7.748882,7.666658Q7.71605,7.617522,7.674264,7.575736Q7.632478,7.53395,7.583342,7.501118Q7.534207,7.468287,7.47961,7.445672Q7.425014,7.423058,7.367054,7.411529Q7.3090948000000004,7.4,7.25,7.4Q7.1909051999999996,7.4,7.132946,7.411529Q7.074986,7.423058,7.02039,7.445672Q6.965793,7.468287,6.916658,7.501118Q6.867522,7.53395,6.825736,7.575736Q6.78395,7.617522,6.751118,7.666658Q6.718287,7.715793,6.695672,7.77039Q6.673058,7.824986,6.661529,7.882946Q6.65,7.9409051999999996,6.65,8L6.65,20Q6.65,20.0591,6.661529,20.1171Q6.673058,20.175,6.695672,20.229599999999998Q6.718287,20.2842,6.751118,20.3333Q6.78395,20.3825,6.825736,20.424300000000002Q6.867522,20.466,6.916658,20.4989Q6.965793,20.5317,7.02039,20.554299999999998Q7.074986,20.576900000000002,7.132946,20.5885Q7.1909051999999996,20.6,7.25,20.6Q7.3090948000000004,20.6,7.367054,20.5885Q7.425014,20.576900000000002,7.47961,20.554299999999998Q7.534207,20.5317,7.583342,20.4989Q7.632478,20.466,7.674264,20.424300000000002Q7.71605,20.3825,7.748882,20.3333Q7.781713,20.2842,7.804328,20.229599999999998Q7.826942,20.175,7.838471,20.1171Q7.85,20.0591,7.85,20Z" fill-rule="evenodd" fill="#404040" fill-opacity="1"/></g><g><rect x="10" y="10" width="11" height="3" rx="1" fill="#404040" fill-opacity="1"/></g><g><rect x="10" y="15" width="8" height="3" rx="1" fill="#404040" fill-opacity="1"/></g></g></g></svg>