<svg xmlns="http://www.w3.org/2000/svg" xmlns:xlink="http://www.w3.org/1999/xlink" fill="none" version="1.1" width="28" height="28" viewBox="0 0 28 28"><defs><clipPath id="master_svg0_57_785"><rect x="0" y="0" width="28" height="28" rx="0"/></clipPath><clipPath id="master_svg1_57_908"><rect x="5" y="5" width="18" height="18" rx="0"/></clipPath></defs><g clip-path="url(#master_svg0_57_785)"><g clip-path="url(#master_svg1_57_908)"><g transform="matrix(0,1,1,0,0,0)"><path d="M8.6,20L8.6,8Q8.6,7.9409051999999996,8.588471,7.882946Q8.576942,7.824986,8.554328,7.77039Q8.531713,7.715793,8.498882,7.666658Q8.46605,7.617522,8.424264,7.575736Q8.382478,7.53395,8.333342,7.501118Q8.284207,7.468287,8.22961,7.445672Q8.175014000000001,7.423058,8.117054,7.411529Q8.0590948,7.4,8,7.4Q7.9409051999999996,7.4,7.882946,7.411529Q7.824986,7.423058,7.77039,7.445672Q7.715793,7.468287,7.666658,7.501118Q7.617522,7.53395,7.575736,7.575736Q7.53395,7.617522,7.501118,7.666658Q7.468287,7.715793,7.445672,7.77039Q7.423058,7.824986,7.411529,7.882946Q7.4,7.9409051999999996,7.4,8L7.4,20Q7.4,20.0591,7.411529,20.1171Q7.423058,20.175,7.445672,20.229599999999998Q7.468287,20.2842,7.501118,20.3333Q7.53395,20.3825,7.575736,20.424300000000002Q7.617522,20.466,7.666658,20.4989Q7.715793,20.5317,7.77039,20.554299999999998Q7.824986,20.576900000000002,7.882946,20.5885Q7.9409051999999996,20.6,8,20.6Q8.0590948,20.6,8.117054,20.5885Q8.175014000000001,20.576900000000002,8.22961,20.554299999999998Q8.284207,20.5317,8.333342,20.4989Q8.382478,20.466,8.424264,20.424300000000002Q8.46605,20.3825,8.498882,20.3333Q8.531713,20.2842,8.554328,20.229599999999998Q8.576942,20.175,8.588471,20.1171Q8.6,20.0591,8.6,20Z" fill-rule="evenodd" fill="#404040" fill-opacity="1"/></g><g transform="matrix(-1,0,0,1,26,0)"><rect x="13" y="10" width="3" height="10" rx="1" fill="#404040" fill-opacity="1"/></g><g transform="matrix(-1,0,0,1,36,0)"><rect x="18" y="10" width="3" height="7" rx="1" fill="#404040" fill-opacity="1"/></g></g></g></svg>