<?xml version="1.0" encoding="UTF-8"?>
<svg width="135px" height="136px" viewBox="0 0 135 136" version="1.1" xmlns="http://www.w3.org/2000/svg" xmlns:xlink="http://www.w3.org/1999/xlink">
    <title>画板</title>
    <g id="画板" stroke="none" stroke-width="1" fill="none" fill-rule="evenodd">
        <rect fill="#FFFFFF" opacity="0" x="0" y="0" width="135" height="136"></rect>
        <g id="编组" transform="translate(5.000000, -7.328125)" stroke="#979797">
            <path d="M71.027027,16.1752194 C71.729465,16.1752194 72.3978673,16.3852246 72.9592293,16.756899 C73.5205914,17.1285734 73.9749132,17.6619171 74.2491902,18.3085941 L74.2491902,18.3085941 L121.180724,128.9615 C121.558108,129.851275 121.539111,130.809781 121.203325,131.640188 C120.867538,132.470596 120.214962,133.172905 119.325187,133.550288 C118.892895,133.733637 118.428128,133.828125 117.958561,133.828125 L117.958561,133.828125 L71.027027,133.828125 C70.0605287,133.828125 69.1855287,133.436374 68.5521533,132.802999 C67.9187779,132.169623 67.527027,131.294623 67.527027,130.328125 L67.527027,130.328125 L67.527027,19.6752194 C67.527027,18.7087211 67.9187779,17.8337211 68.5521533,17.2003457 C69.1855287,16.5669703 70.0605287,16.1752194 71.027027,16.1752194 Z" id="三角形" fill="#484545"></path>
            <path d="M4,16.1752194 C4.70243798,16.1752194 5.37084026,16.3852246 5.9322023,16.756899 C6.49356434,17.1285734 6.94788614,17.6619171 7.22216314,18.3085941 L7.22216314,18.3085941 L54.1536974,128.9615 C54.5310805,129.851275 54.512084,130.809781 54.1762977,131.640188 C53.8405114,132.470596 53.1879353,133.172905 52.2981595,133.550288 C51.8658676,133.733637 51.4011014,133.828125 50.9315342,133.828125 L50.9315342,133.828125 L4,133.828125 C3.03350169,133.828125 2.15850169,133.436374 1.52512627,132.802999 C0.891750844,132.169623 0.5,131.294623 0.5,130.328125 L0.5,130.328125 L0.5,19.6752194 C0.5,18.7087211 0.891750844,17.8337211 1.52512627,17.2003457 C2.15850169,16.5669703 3.03350169,16.1752194 4,16.1752194 Z" id="三角形" fill="#D8D8D8" transform="translate(28.486486, 67.164062) scale(-1, 1) translate(-28.486486, -67.164062) "></path>
        </g>
    </g>
</svg>