<svg xmlns="http://www.w3.org/2000/svg" xmlns:xlink="http://www.w3.org/1999/xlink" fill="none" version="1.1" width="14" height="14" viewBox="0 0 14 14"><defs><clipPath id="master_svg0_53_0332"><rect x="0" y="0" width="14" height="14" rx="0"/></clipPath></defs><g clip-path="url(#master_svg0_53_0332)"><g><path d="M0.322659,11.4085L5.24884,2.3771199999999997C5.44728,2.01332,6,2.15426,6,2.56866L6,11.6C6,11.8209,5.82091,12,5.6,12L0.673817,12C0.370193,12,0.177268,11.675,0.322659,11.4085" fill="#CCCCCC" fill-opacity="1"/></g><g transform="matrix(-1,0,0,1,28,0)"><path d="M14.322659,11.4085L19.24884,2.3771199999999997C19.44728,2.01332,20,2.15426,20,2.56866L20,11.6C20,11.8209,19.820909999999998,12,19.6,12L14.673817,12C14.370193,12,14.177268,11.675,14.322659,11.4085" fill="#737373" fill-opacity="1"/></g></g></svg>