<svg xmlns="http://www.w3.org/2000/svg" xmlns:xlink="http://www.w3.org/1999/xlink" fill="none" version="1.1" width="14" height="14" viewBox="0 0 14 14"><defs><clipPath id="master_svg0_53_0298"><rect x="0" y="0" width="14" height="14" rx="0"/></clipPath></defs><g clip-path="url(#master_svg0_53_0298)"><g transform="matrix(0,1,-1,0,13,-13)"><path d="M13.322659,10.4085L18.24884,1.37712C18.44728,1.01332,19,1.15426,19,1.56866L19,10.6C19,10.8209,18.820909999999998,11,18.6,11L13.673817,11C13.370193,11,13.177268,10.675,13.322659,10.4085" fill="#CCCCCC" fill-opacity="1"/></g><g transform="matrix(0,-1,-1,0,27,27)"><path d="M13.322659,24.4085L18.24884,15.37712C18.44728,15.01332,19,15.15426,19,15.56866L19,24.6C19,24.8209,18.820909999999998,25,18.6,25L13.673817,25C13.370193,25,13.177268,24.675,13.322659,24.4085" fill="#737373" fill-opacity="1"/></g></g></svg>