<svg xmlns="http://www.w3.org/2000/svg" xmlns:xlink="http://www.w3.org/1999/xlink" fill="none" version="1.1" width="32" height="32" viewBox="0 0 32 32"><defs><clipPath id="master_svg0_39_432"><rect x="0" y="0" width="32" height="32" rx="0"/></clipPath><clipPath id="master_svg1_39_682"><rect x="6" y="6" width="20" height="20" rx="0"/></clipPath></defs><g clip-path="url(#master_svg0_39_432)"><g clip-path="url(#master_svg1_39_682)"><g><path d="M8,10.35L24,10.35Q24.064,10.35,24.1268,10.36249Q24.1896,10.374979,24.2487,10.399478Q24.3079,10.423978,24.3611,10.459545Q24.4143,10.495112,24.4596,10.540381Q24.5049,10.585649,24.5405,10.638879Q24.576,10.69211,24.6005,10.751256Q24.625,10.810402,24.6375,10.873191Q24.65,10.9359806,24.65,11Q24.65,11.0640194,24.6375,11.126809Q24.625,11.189598,24.6005,11.248744Q24.576,11.30789,24.5405,11.361121Q24.5049,11.414351,24.4596,11.459619Q24.4143,11.504888,24.3611,11.540455Q24.3079,11.576022,24.2487,11.600522Q24.1896,11.625021,24.1268,11.63751Q24.064,11.65,24,11.65L8,11.65Q7.9359806,11.65,7.873191,11.63751Q7.810402,11.625021,7.751256,11.600522Q7.69211,11.576022,7.638879,11.540455Q7.585649,11.504888,7.540381,11.459619Q7.495112,11.414351,7.459545,11.361121Q7.423978,11.30789,7.399478,11.248744Q7.374979,11.189598,7.36249,11.126809Q7.35,11.0640194,7.35,11Q7.35,10.9359806,7.36249,10.873191Q7.374979,10.810402,7.399478,10.751256Q7.423978,10.69211,7.459545,10.638879Q7.495112,10.585649,7.540381,10.540381Q7.585649,10.495112,7.638879,10.459545Q7.69211,10.423978,7.751256,10.399478Q7.810402,10.374979,7.873191,10.36249Q7.9359806,10.35,8,10.35Z" fill-rule="evenodd" fill="#FFFFFF" fill-opacity="1"/></g><g><path d="M8,20.35L24,20.35Q24.064,20.35,24.1268,20.36249Q24.1896,20.374979,24.2487,20.399478Q24.3079,20.423977999999998,24.3611,20.459545Q24.4143,20.495112,24.4596,20.540381Q24.5049,20.585649,24.5405,20.638879Q24.576,20.69211,24.6005,20.751256Q24.625,20.810402,24.6375,20.873191Q24.65,20.9359806,24.65,21Q24.65,21.0640194,24.6375,21.126809Q24.625,21.189598,24.6005,21.248744Q24.576,21.30789,24.5405,21.361121Q24.5049,21.414351,24.4596,21.459619Q24.4143,21.504888,24.3611,21.540455Q24.3079,21.576022000000002,24.2487,21.600522Q24.1896,21.625021,24.1268,21.63751Q24.064,21.65,24,21.65L8,21.65Q7.9359806,21.65,7.873191,21.63751Q7.810402,21.625021,7.751256,21.600522Q7.69211,21.576022000000002,7.638879,21.540455Q7.585649,21.504888,7.540381,21.459619Q7.495112,21.414351,7.459545,21.361121Q7.423978,21.30789,7.399478,21.248744Q7.374979,21.189598,7.36249,21.126809Q7.35,21.0640194,7.35,21Q7.35,20.9359806,7.36249,20.873191Q7.374979,20.810402,7.399478,20.751256Q7.423978,20.69211,7.459545,20.638879Q7.495112,20.585649,7.540381,20.540381Q7.585649,20.495112,7.638879,20.459545Q7.69211,20.423977999999998,7.751256,20.399478Q7.810402,20.374979,7.873191,20.36249Q7.9359806,20.35,8,20.35Z" fill-rule="evenodd" fill="#FFFFFF" fill-opacity="1"/></g><g><path d="M10.35,8Q10.35,7.9359806,10.36249,7.873191Q10.374979,7.810402,10.399478,7.751256Q10.423978,7.69211,10.459545,7.638879Q10.495112,7.585649,10.540381,7.540381Q10.585649,7.495112,10.638879,7.459545Q10.69211,7.423978,10.751256,7.399478Q10.810402,7.374979,10.873191,7.36249Q10.9359806,7.35,11,7.35Q11.0640194,7.35,11.126809,7.36249Q11.189598,7.374979,11.248744,7.399478Q11.30789,7.423978,11.361121,7.459545Q11.414351,7.495112,11.459619,7.540381Q11.504888,7.585649,11.540455,7.638879Q11.576022,7.69211,11.600522,7.751256Q11.625021,7.810402,11.63751,7.873191Q11.65,7.9359806,11.65,8L11.65,24Q11.65,24.064,11.63751,24.1268Q11.625021,24.1896,11.600522,24.2487Q11.576022,24.3079,11.540455,24.3611Q11.504888,24.4143,11.459619,24.4596Q11.414351,24.5049,11.361121,24.5405Q11.30789,24.576,11.248744,24.6005Q11.189598,24.625,11.126809,24.6375Q11.0640194,24.65,11,24.65Q10.9359806,24.65,10.873191,24.6375Q10.810402,24.625,10.751256,24.6005Q10.69211,24.576,10.638879,24.5405Q10.585649,24.5049,10.540381,24.4596Q10.495112,24.4143,10.459545,24.3611Q10.423978,24.3079,10.399478,24.2487Q10.374979,24.1896,10.36249,24.1268Q10.35,24.064,10.35,24L10.35,8Z" fill-rule="evenodd" fill="#FFFFFF" fill-opacity="1"/></g><g><path d="M20.35,8Q20.35,7.9359806,20.36249,7.873191Q20.374979,7.810402,20.399478,7.751256Q20.423977999999998,7.69211,20.459545,7.638879Q20.495112,7.585649,20.540381,7.540381Q20.585649,7.495112,20.638879,7.459545Q20.69211,7.423978,20.751256,7.399478Q20.810402,7.374979,20.873191,7.36249Q20.9359806,7.35,21,7.35Q21.0640194,7.35,21.126809,7.36249Q21.189598,7.374979,21.248744,7.399478Q21.30789,7.423978,21.361121,7.459545Q21.414351,7.495112,21.459619,7.540381Q21.504888,7.585649,21.540455,7.638879Q21.576022000000002,7.69211,21.600522,7.751256Q21.625021,7.810402,21.63751,7.873191Q21.65,7.9359806,21.65,8L21.65,24Q21.65,24.064,21.63751,24.1268Q21.625021,24.1896,21.600522,24.2487Q21.576022000000002,24.3079,21.540455,24.3611Q21.504888,24.4143,21.459619,24.4596Q21.414351,24.5049,21.361121,24.5405Q21.30789,24.576,21.248744,24.6005Q21.189598,24.625,21.126809,24.6375Q21.0640194,24.65,21,24.65Q20.9359806,24.65,20.873191,24.6375Q20.810402,24.625,20.751256,24.6005Q20.69211,24.576,20.638879,24.5405Q20.585649,24.5049,20.540381,24.4596Q20.495112,24.4143,20.459545,24.3611Q20.423977999999998,24.3079,20.399478,24.2487Q20.374979,24.1896,20.36249,24.1268Q20.35,24.064,20.35,24L20.35,8Z" fill-rule="evenodd" fill="#FFFFFF" fill-opacity="1"/></g></g></g></svg>