<svg xmlns="http://www.w3.org/2000/svg" xmlns:xlink="http://www.w3.org/1999/xlink" fill="none" version="1.1" width="18" height="18" viewBox="0 0 18 18"><defs><clipPath id="master_svg0_905_00534"><rect x="0" y="0" width="18" height="18" rx="0"/></clipPath></defs><g clip-path="url(#master_svg0_905_00534)"><g><path d="M1.7998046875,3.85L16.1998046875,3.85Q16.2638046875,3.85,16.3266046875,3.86249Q16.3894046875,3.8749789999999997,16.448504687499998,3.899478Q16.507704687500002,3.923978,16.5609046875,3.959545Q16.6141046875,3.9951119999999998,16.6594046875,4.040381Q16.704704687499998,4.085649,16.7403046875,4.138879Q16.7758046875,4.19211,16.800304687500002,4.251256Q16.8248046875,4.310402,16.8373046875,4.373191Q16.8498046875,4.4359806,16.8498046875,4.5Q16.8498046875,4.5640194,16.8373046875,4.626809Q16.8248046875,4.689598,16.800304687500002,4.748744Q16.7758046875,4.80789,16.7403046875,4.861121Q16.704704687499998,4.914351,16.6594046875,4.959619Q16.6141046875,5.004888,16.5609046875,5.040455Q16.507704687500002,5.076022,16.448504687499998,5.100522Q16.3894046875,5.125021,16.3266046875,5.13751Q16.2638046875,5.15,16.1998046875,5.15L1.7998046875,5.15Q1.7357852875,5.15,1.6729956875,5.13751Q1.6102066875,5.125021,1.5510606875,5.100522Q1.4919146875,5.076022,1.4386836875,5.040455Q1.3854536875,5.004888,1.3401856875,4.959619Q1.2949166875,4.914351,1.2593496874999999,4.861121Q1.2237826875,4.80789,1.1992826875,4.748744Q1.1747836875,4.689598,1.1622946875,4.626809Q1.1498046875,4.5640194,1.1498046875,4.5Q1.1498046875,4.4359806,1.1622946875,4.373191Q1.1747836875,4.310402,1.1992826875,4.251256Q1.2237826875,4.19211,1.2593496874999999,4.138879Q1.2949166875,4.085649,1.3401856875,4.040381Q1.3854536875,3.9951119999999998,1.4386836875,3.959545Q1.4919146875,3.923978,1.5510606875,3.899478Q1.6102066875,3.8749789999999997,1.6729956875,3.86249Q1.7357852875,3.85,1.7998046875,3.85Z" fill-rule="evenodd" fill="#FFFFFF" fill-opacity="1"/></g><g><path d="M1.7998046875,12.85L16.1998046875,12.85Q16.2638046875,12.85,16.3266046875,12.86249Q16.3894046875,12.874979,16.448504687499998,12.899478Q16.507704687500002,12.923978,16.5609046875,12.959545Q16.6141046875,12.995112,16.6594046875,13.040381Q16.704704687499998,13.085649,16.7403046875,13.138879Q16.7758046875,13.19211,16.800304687500002,13.251256Q16.8248046875,13.310402,16.8373046875,13.373191Q16.8498046875,13.4359806,16.8498046875,13.5Q16.8498046875,13.5640194,16.8373046875,13.626809Q16.8248046875,13.689598,16.800304687500002,13.748744Q16.7758046875,13.80789,16.7403046875,13.861121Q16.704704687499998,13.914351,16.6594046875,13.959619Q16.6141046875,14.004888,16.5609046875,14.040455Q16.507704687500002,14.076022,16.448504687499998,14.100522Q16.3894046875,14.125021,16.3266046875,14.13751Q16.2638046875,14.15,16.1998046875,14.15L1.7998046875,14.15Q1.7357852875,14.15,1.6729956875,14.13751Q1.6102066875,14.125021,1.5510606875,14.100522Q1.4919146875,14.076022,1.4386836875,14.040455Q1.3854536875,14.004888,1.3401856875,13.959619Q1.2949166875,13.914351,1.2593496874999999,13.861121Q1.2237826875,13.80789,1.1992826875,13.748744Q1.1747836875,13.689598,1.1622946875,13.626809Q1.1498046875,13.5640194,1.1498046875,13.5Q1.1498046875,13.4359806,1.1622946875,13.373191Q1.1747836875,13.310402,1.1992826875,13.251256Q1.2237826875,13.19211,1.2593496874999999,13.138879Q1.2949166875,13.085649,1.3401856875,13.040381Q1.3854536875,12.995112,1.4386836875,12.959545Q1.4919146875,12.923978,1.5510606875,12.899478Q1.6102066875,12.874979,1.6729956875,12.86249Q1.7357852875,12.85,1.7998046875,12.85Z" fill-rule="evenodd" fill="#FFFFFF" fill-opacity="1"/></g><g><path d="M3.85,1.800048828125Q3.85,1.736029428125,3.86249,1.673239828125Q3.8749789999999997,1.610450828125,3.899478,1.551304828125Q3.923978,1.492158828125,3.959545,1.438927828125Q3.9951119999999998,1.385697828125,4.040381,1.340429828125Q4.085649,1.295160828125,4.138879,1.2595938281249999Q4.19211,1.224026828125,4.251256,1.199526828125Q4.310402,1.175027828125,4.373191,1.162538828125Q4.4359806,1.150048828125,4.5,1.150048828125Q4.5640194,1.150048828125,4.626809,1.162538828125Q4.689598,1.175027828125,4.748744,1.199526828125Q4.80789,1.224026828125,4.861121,1.2595938281249999Q4.914351,1.295160828125,4.959619,1.340429828125Q5.004888,1.385697828125,5.040455,1.438927828125Q5.076022,1.492158828125,5.100522,1.551304828125Q5.125021,1.610450828125,5.13751,1.673239828125Q5.15,1.736029428125,5.15,1.800048828125L5.15,16.200048828125Q5.15,16.264048828125,5.13751,16.326848828125Q5.125021,16.389648828125,5.100522,16.448748828124998Q5.076022,16.507948828125002,5.040455,16.561148828125Q5.004888,16.614348828125,4.959619,16.659648828125Q4.914351,16.704948828124998,4.861121,16.740548828125Q4.80789,16.776048828125,4.748744,16.800548828125002Q4.689598,16.825048828125,4.626809,16.837548828125Q4.5640194,16.850048828125,4.5,16.850048828125Q4.4359806,16.850048828125,4.373191,16.837548828125Q4.310402,16.825048828125,4.251256,16.800548828125002Q4.19211,16.776048828125,4.138879,16.740548828125Q4.085649,16.704948828124998,4.040381,16.659648828125Q3.9951119999999998,16.614348828125,3.959545,16.561148828125Q3.923978,16.507948828125002,3.899478,16.448748828124998Q3.8749789999999997,16.389648828125,3.86249,16.326848828125Q3.85,16.264048828125,3.85,16.200048828125L3.85,1.800048828125Z" fill-rule="evenodd" fill="#FFFFFF" fill-opacity="1"/></g><g><path d="M12.85,1.800048828125Q12.85,1.736029428125,12.86249,1.673239828125Q12.874979,1.610450828125,12.899478,1.551304828125Q12.923978,1.492158828125,12.959545,1.438927828125Q12.995112,1.385697828125,13.040381,1.340429828125Q13.085649,1.295160828125,13.138879,1.2595938281249999Q13.19211,1.224026828125,13.251256,1.199526828125Q13.310402,1.175027828125,13.373191,1.162538828125Q13.4359806,1.150048828125,13.5,1.150048828125Q13.5640194,1.150048828125,13.626809,1.162538828125Q13.689598,1.175027828125,13.748744,1.199526828125Q13.80789,1.224026828125,13.861121,1.2595938281249999Q13.914351,1.295160828125,13.959619,1.340429828125Q14.004888,1.385697828125,14.040455,1.438927828125Q14.076022,1.492158828125,14.100522,1.551304828125Q14.125021,1.610450828125,14.13751,1.673239828125Q14.15,1.736029428125,14.15,1.800048828125L14.15,16.200048828125Q14.15,16.264048828125,14.13751,16.326848828125Q14.125021,16.389648828125,14.100522,16.448748828124998Q14.076022,16.507948828125002,14.040455,16.561148828125Q14.004888,16.614348828125,13.959619,16.659648828125Q13.914351,16.704948828124998,13.861121,16.740548828125Q13.80789,16.776048828125,13.748744,16.800548828125002Q13.689598,16.825048828125,13.626809,16.837548828125Q13.5640194,16.850048828125,13.5,16.850048828125Q13.4359806,16.850048828125,13.373191,16.837548828125Q13.310402,16.825048828125,13.251256,16.800548828125002Q13.19211,16.776048828125,13.138879,16.740548828125Q13.085649,16.704948828124998,13.040381,16.659648828125Q12.995112,16.614348828125,12.959545,16.561148828125Q12.923978,16.507948828125002,12.899478,16.448748828124998Q12.874979,16.389648828125,12.86249,16.326848828125Q12.85,16.264048828125,12.85,16.200048828125L12.85,1.800048828125Z" fill-rule="evenodd" fill="#FFFFFF" fill-opacity="1"/></g></g></svg>