<svg xmlns="http://www.w3.org/2000/svg" xmlns:xlink="http://www.w3.org/1999/xlink" fill="none" version="1.1" width="20" height="20" viewBox="0 0 20 20"><defs><clipPath id="master_svg0_39_682"><rect x="0" y="0" width="20" height="20" rx="0"/></clipPath></defs><g clip-path="url(#master_svg0_39_682)"><g><path d="M2,4.35L18,4.35Q18.064,4.35,18.1268,4.36249Q18.1896,4.374979,18.2487,4.399478Q18.3079,4.423978,18.3611,4.459545Q18.4143,4.495112,18.4596,4.540381Q18.5049,4.585649,18.5405,4.638879Q18.576,4.69211,18.6005,4.751256Q18.625,4.810402,18.6375,4.873191Q18.65,4.9359806,18.65,5Q18.65,5.0640194,18.6375,5.126809Q18.625,5.189598,18.6005,5.248744Q18.576,5.30789,18.5405,5.361121Q18.5049,5.414351,18.4596,5.459619Q18.4143,5.504888,18.3611,5.540455Q18.3079,5.576022,18.2487,5.600522Q18.1896,5.625021,18.1268,5.63751Q18.064,5.65,18,5.65L2,5.65Q1.9359806,5.65,1.873191,5.63751Q1.810402,5.625021,1.751256,5.600522Q1.69211,5.576022,1.638879,5.540455Q1.585649,5.504888,1.540381,5.459619Q1.495112,5.414351,1.4595449999999999,5.361121Q1.423978,5.30789,1.399478,5.248744Q1.374979,5.189598,1.36249,5.126809Q1.35,5.0640194,1.35,5Q1.35,4.9359806,1.36249,4.873191Q1.374979,4.810402,1.399478,4.751256Q1.423978,4.69211,1.4595449999999999,4.638879Q1.495112,4.585649,1.540381,4.540381Q1.585649,4.495112,1.638879,4.459545Q1.69211,4.423978,1.751256,4.399478Q1.810402,4.374979,1.873191,4.36249Q1.9359806,4.35,2,4.35Z" fill-rule="evenodd" fill="#FFFFFF" fill-opacity="1"/></g><g><path d="M2,14.35L18,14.35Q18.064,14.35,18.1268,14.36249Q18.1896,14.374979,18.2487,14.399478Q18.3079,14.423978,18.3611,14.459545Q18.4143,14.495112,18.4596,14.540381Q18.5049,14.585649,18.5405,14.638879Q18.576,14.69211,18.6005,14.751256Q18.625,14.810402,18.6375,14.873191Q18.65,14.9359806,18.65,15Q18.65,15.0640194,18.6375,15.126809Q18.625,15.189598,18.6005,15.248744Q18.576,15.30789,18.5405,15.361121Q18.5049,15.414351,18.4596,15.459619Q18.4143,15.504888,18.3611,15.540455Q18.3079,15.576022,18.2487,15.600522Q18.1896,15.625021,18.1268,15.63751Q18.064,15.65,18,15.65L2,15.65Q1.9359806,15.65,1.873191,15.63751Q1.810402,15.625021,1.751256,15.600522Q1.69211,15.576022,1.638879,15.540455Q1.585649,15.504888,1.540381,15.459619Q1.495112,15.414351,1.4595449999999999,15.361121Q1.423978,15.30789,1.399478,15.248744Q1.374979,15.189598,1.36249,15.126809Q1.35,15.0640194,1.35,15Q1.35,14.9359806,1.36249,14.873191Q1.374979,14.810402,1.399478,14.751256Q1.423978,14.69211,1.4595449999999999,14.638879Q1.495112,14.585649,1.540381,14.540381Q1.585649,14.495112,1.638879,14.459545Q1.69211,14.423978,1.751256,14.399478Q1.810402,14.374979,1.873191,14.36249Q1.9359806,14.35,2,14.35Z" fill-rule="evenodd" fill="#FFFFFF" fill-opacity="1"/></g><g><path d="M4.35,2Q4.35,1.9359806,4.36249,1.873191Q4.374979,1.810402,4.399478,1.751256Q4.423978,1.69211,4.459545,1.638879Q4.495112,1.585649,4.540381,1.540381Q4.585649,1.495112,4.638879,1.4595449999999999Q4.69211,1.423978,4.751256,1.399478Q4.810402,1.374979,4.873191,1.36249Q4.9359806,1.35,5,1.35Q5.0640194,1.35,5.126809,1.36249Q5.189598,1.374979,5.248744,1.399478Q5.30789,1.423978,5.361121,1.4595449999999999Q5.414351,1.495112,5.459619,1.540381Q5.504888,1.585649,5.540455,1.638879Q5.576022,1.69211,5.600522,1.751256Q5.625021,1.810402,5.63751,1.873191Q5.65,1.9359806,5.65,2L5.65,18Q5.65,18.064,5.63751,18.1268Q5.625021,18.1896,5.600522,18.2487Q5.576022,18.3079,5.540455,18.3611Q5.504888,18.4143,5.459619,18.4596Q5.414351,18.5049,5.361121,18.5405Q5.30789,18.576,5.248744,18.6005Q5.189598,18.625,5.126809,18.6375Q5.0640194,18.65,5,18.65Q4.9359806,18.65,4.873191,18.6375Q4.810402,18.625,4.751256,18.6005Q4.69211,18.576,4.638879,18.5405Q4.585649,18.5049,4.540381,18.4596Q4.495112,18.4143,4.459545,18.3611Q4.423978,18.3079,4.399478,18.2487Q4.374979,18.1896,4.36249,18.1268Q4.35,18.064,4.35,18L4.35,2Z" fill-rule="evenodd" fill="#FFFFFF" fill-opacity="1"/></g><g><path d="M14.35,2Q14.35,1.9359806,14.36249,1.873191Q14.374979,1.810402,14.399478,1.751256Q14.423978,1.69211,14.459545,1.638879Q14.495112,1.585649,14.540381,1.540381Q14.585649,1.495112,14.638879,1.4595449999999999Q14.69211,1.423978,14.751256,1.399478Q14.810402,1.374979,14.873191,1.36249Q14.9359806,1.35,15,1.35Q15.0640194,1.35,15.126809,1.36249Q15.189598,1.374979,15.248744,1.399478Q15.30789,1.423978,15.361121,1.4595449999999999Q15.414351,1.495112,15.459619,1.540381Q15.504888,1.585649,15.540455,1.638879Q15.576022,1.69211,15.600522,1.751256Q15.625021,1.810402,15.63751,1.873191Q15.65,1.9359806,15.65,2L15.65,18Q15.65,18.064,15.63751,18.1268Q15.625021,18.1896,15.600522,18.2487Q15.576022,18.3079,15.540455,18.3611Q15.504888,18.4143,15.459619,18.4596Q15.414351,18.5049,15.361121,18.5405Q15.30789,18.576,15.248744,18.6005Q15.189598,18.625,15.126809,18.6375Q15.0640194,18.65,15,18.65Q14.9359806,18.65,14.873191,18.6375Q14.810402,18.625,14.751256,18.6005Q14.69211,18.576,14.638879,18.5405Q14.585649,18.5049,14.540381,18.4596Q14.495112,18.4143,14.459545,18.3611Q14.423978,18.3079,14.399478,18.2487Q14.374979,18.1896,14.36249,18.1268Q14.35,18.064,14.35,18L14.35,2Z" fill-rule="evenodd" fill="#FFFFFF" fill-opacity="1"/></g></g></svg>