<svg xmlns="http://www.w3.org/2000/svg" xmlns:xlink="http://www.w3.org/1999/xlink" fill="none" version="1.1" width="18" height="18" viewBox="0 0 18 18"><defs><clipPath id="master_svg0_52_0"><rect x="0" y="0" width="18" height="18" rx="0"/></clipPath></defs><g clip-path="url(#master_svg0_52_0)"><g><path d="M12,2.25L16.5,2.25L16.5,6.75L15,6.75L15,3.75L12,3.75L12,2.25ZM1.5,2.25L6,2.25L6,3.75L3,3.75L3,6.75L1.5,6.75L1.5,2.25ZM15,14.25L15,11.25L16.5,11.25L16.5,15.75L12,15.75L12,14.25L15,14.25ZM3,14.25L6,14.25L6,15.75L1.5,15.75L1.5,11.25L3,11.25L3,14.25Z" fill="#FFFFFF" fill-opacity="1"/></g></g></svg>