<svg xmlns="http://www.w3.org/2000/svg" xmlns:xlink="http://www.w3.org/1999/xlink" fill="none" version="1.1" width="20" height="20" viewBox="0 0 20 20"><defs><clipPath id="master_svg0_1_169"><rect x="0" y="0" width="20" height="20" rx="0"/></clipPath></defs><g clip-path="url(#master_svg0_1_169)"><g><path d="M6.583251953125,2.708343505859375L6.583251953125,8.541673505859375Q6.583251953125,8.633523505859376,6.615890953125,8.719363505859375Q6.648529953125,8.805213505859374,6.709546953125,8.873853505859376Q6.775621953125,8.948193505859376,6.865113953125,8.991583505859374Q6.954605953125,9.034973505859375,7.053890953125,9.040813505859376Q7.153175553125,9.046653505859375,7.247136953125,9.014053505859376Q7.341098953125,8.981453505859374,7.4154339531249995,8.915383505859374L8.723881953125,7.752323505859375L10.032321953124999,8.915383505859374Q10.100961953125001,8.976393505859374,10.186811953125,9.009033505859374Q10.272661953125,9.041673505859375,10.364501953125,9.041673505859375Q10.413751953125,9.041673505859375,10.462041953125,9.032073505859376Q10.510341953125,9.022463505859374,10.555841953125,9.003613505859375Q10.601341953125,8.984773505859376,10.642291953125,8.957413505859375Q10.683231953125,8.930053505859375,10.718051953125,8.895233505859375Q10.752881953125,8.860403505859374,10.780231953125,8.819463505859375Q10.807591953125,8.778513505859376,10.826441953125,8.733013505859375Q10.845291953124999,8.687523505859374,10.854891953125,8.639223505859375Q10.864501953125,8.590923505859376,10.864501953125,8.541673505859375L10.864501953125,2.708343505859375Q10.864501953125,2.659097805859375,10.854891953125,2.610798405859375Q10.845291953124999,2.562498505859375,10.826441953125,2.517001505859375Q10.807591953125,2.471504505859375,10.780231953125,2.430558505859375Q10.752881953125,2.389612505859375,10.718051953125,2.354790505859375Q10.683231953125,2.319968505859375,10.642281953125,2.292608505859375Q10.601341953125,2.265249505859375,10.555841953125,2.2464035058593748Q10.510341953125,2.227558505859375,10.462041953125,2.217950505859375Q10.413751953125,2.208343505859375,10.364501953125,2.208343505859375L7.083251953125,2.208343505859375Q7.034006253125,2.208343505859375,6.985706853125,2.217950505859375Q6.937406953125,2.227558505859375,6.891909953125,2.2464035058593748Q6.846412953125,2.265249505859375,6.805466953125,2.292608505859375Q6.764520953125,2.319968505859375,6.729698953125,2.354790505859375Q6.694876953125,2.389612505859375,6.667516953125,2.430558505859375Q6.640157953125,2.471504505859375,6.621311953125,2.517001505859375Q6.602466953125,2.562498505859375,6.592858953125,2.610798405859375Q6.583251953125,2.659097805859375,6.583251953125,2.708343505859375ZM7.583251953125,7.428253505859375L8.391691953125001,6.709643505859375Q8.425731953125,6.679383505859375,8.464671953125,6.655773505859376Q8.503621953125,6.632163505859375,8.546181953125,6.615983505859375Q8.588751953125,6.599803505859375,8.633541953125,6.591573505859375Q8.678331953125,6.583343505859375,8.723881953125,6.583343505859375Q8.769421953125,6.583343505859375,8.814211953125,6.591573505859375Q8.859001953125,6.599803505859375,8.901571953125,6.615983505859375Q8.944131953125,6.632163505859375,8.983081953125,6.655773505859376Q9.022021953125,6.679383505859375,9.056061953124999,6.709643505859375L9.864501953125,7.428253505859375L9.864501953125,3.208343505859375L7.583251953125,3.208343505859375L7.583251953125,7.428253505859375Z" fill-rule="evenodd" fill="#1878F5" fill-opacity="1"/></g><g><path d="M7.083251953125,11.958343505859375L10.729081953125,11.958343505859375Q10.778331953125,11.958343505859375,10.826631953125,11.948736505859374Q10.874931953125,11.939128505859376,10.920421953125,11.920283505859375Q10.965921953125001,11.901437505859375,11.006871953125,11.874078505859375Q11.047811953125,11.846718505859375,11.082641953125,11.811896505859375Q11.117461953125,11.777074505859375,11.144821953125,11.736128505859375Q11.172181953125001,11.695182505859375,11.191021953125,11.649685505859376Q11.209871953124999,11.604188505859375,11.219481953125001,11.555888605859375Q11.229081953125,11.507589205859375,11.229081953125,11.458343505859375Q11.229081953125,11.409097805859375,11.219481953125001,11.360798405859375Q11.209871953124999,11.312498505859375,11.191021953125,11.267001505859374Q11.172181953125001,11.221504505859375,11.144821953125,11.180558505859375Q11.117461953125,11.139612505859375,11.082641953125,11.104790505859375Q11.047811953125,11.069968505859375,11.006871953125,11.042608505859375Q10.965921953125001,11.015249505859375,10.920421953125,10.996403505859375Q10.874931953125,10.977558505859374,10.826631953125,10.967950505859376Q10.778331953125,10.958343505859375,10.729081953125,10.958343505859375L7.083251953125,10.958343505859375Q7.034006253125,10.958343505859375,6.985706853125,10.967950505859376Q6.937406953125,10.977558505859374,6.891909953125,10.996403505859375Q6.846412953125,11.015249505859375,6.805466953125,11.042608505859375Q6.764520953125,11.069968505859375,6.729698953125,11.104790505859375Q6.694876953125,11.139612505859375,6.667516953125,11.180558505859375Q6.640157953125,11.221504505859375,6.621311953125,11.267001505859374Q6.602466953125,11.312498505859375,6.592858953125,11.360798405859375Q6.583251953125,11.409097805859375,6.583251953125,11.458343505859375Q6.583251953125,11.507589205859375,6.592858953125,11.555888605859375Q6.602466953125,11.604188505859375,6.621311953125,11.649685505859376Q6.640157953125,11.695182505859375,6.667516953125,11.736128505859375Q6.694876953125,11.777074505859375,6.729698953125,11.811896505859375Q6.764520953125,11.846718505859375,6.805466953125,11.874078505859375Q6.846412953125,11.901437505859375,6.891909953125,11.920283505859375Q6.937406953125,11.939128505859376,6.985706853125,11.948736505859374Q7.034006253125,11.958343505859375,7.083251953125,11.958343505859375Z" fill-rule="evenodd" fill="#1878F5" fill-opacity="1"/></g><g><path d="M7.083251953125,14.145843505859375L12.916581953125,14.145843505859375Q12.965831953125,14.145843505859375,13.014131953125,14.136236505859374Q13.062431953125,14.126628505859376,13.107921953125,14.107783505859375Q13.153421953125001,14.088937505859375,13.194371953125,14.061578505859375Q13.235311953124999,14.034218505859375,13.270141953125,13.999396505859375Q13.304961953125,13.964574505859375,13.332321953125,13.923628505859375Q13.359681953125001,13.882682505859375,13.378521953125,13.837185505859376Q13.397371953124999,13.791688505859375,13.406981953125001,13.743388605859375Q13.416581953125,13.695089205859375,13.416581953125,13.645843505859375Q13.416581953125,13.596597805859375,13.406981953125001,13.548298405859375Q13.397371953124999,13.499998505859375,13.378521953125,13.454501505859374Q13.359681953125001,13.409004505859375,13.332321953125,13.368058505859375Q13.304961953125,13.327112505859375,13.270141953125,13.292290505859375Q13.235311953124999,13.257468505859375,13.194371953125,13.230108505859375Q13.153421953125001,13.202749505859375,13.107921953125,13.183903505859375Q13.062431953125,13.165058505859374,13.014131953125,13.155450505859376Q12.965831953125,13.145843505859375,12.916581953125,13.145843505859375L7.083251953125,13.145843505859375Q7.034006253125,13.145843505859375,6.985706853125,13.155450505859376Q6.937406953125,13.165058505859374,6.891909953125,13.183903505859375Q6.846412953125,13.202749505859375,6.805466953125,13.230108505859375Q6.764520953125,13.257468505859375,6.729698953125,13.292290505859375Q6.694876953125,13.327112505859375,6.667516953125,13.368058505859375Q6.640157953125,13.409004505859375,6.621311953125,13.454501505859374Q6.602466953125,13.499998505859375,6.592858953125,13.548298405859375Q6.583251953125,13.596597805859375,6.583251953125,13.645843505859375Q6.583251953125,13.695089205859375,6.592858953125,13.743388605859375Q6.602466953125,13.791688505859375,6.621311953125,13.837185505859376Q6.640157953125,13.882682505859375,6.667516953125,13.923628505859375Q6.694876953125,13.964574505859375,6.729698953125,13.999396505859375Q6.764520953125,14.034218505859375,6.805466953125,14.061578505859375Q6.846412953125,14.088937505859375,6.891909953125,14.107783505859375Q6.937406953125,14.126628505859376,6.985706853125,14.136236505859374Q7.034006253125,14.145843505859375,7.083251953125,14.145843505859375Z" fill-rule="evenodd" fill="#1878F5" fill-opacity="1"/></g><g><path d="M3.516748046875,16.125043505859374L3.516748046875,3.875013505859375Q3.516748046875,3.122522505859375,4.048837046875,2.590432505859375Q4.580926046875,2.058343505859375,5.333418046875,2.058343505859375L14.666748046875,2.058343505859375Q15.419248046875,2.058343505859375,15.951348046875,2.590432505859375Q16.483448046875,3.122521505859375,16.483448046875,3.875013505859375L16.483448046875,16.125043505859374Q16.483448046875,16.877543505859375,15.951348046875,17.409543505859375Q15.419248046875,17.941643505859375,14.666748046875,17.941643505859375L5.333418046875,17.941643505859375Q4.580926046875,17.941643505859375,4.048837046875,17.409543505859375Q3.516748046875,16.877543505859375,3.516748046875,16.125043505859374ZM4.816748046875,16.125043505859374Q4.816748046875,16.339043505859372,4.968076046875,16.490343505859375Q5.119405046875,16.641643505859374,5.333418046875,16.641643505859374L14.666748046875,16.641643505859374Q14.880748046875,16.641643505859374,15.032048046875,16.490343505859375Q15.183448046875,16.339043505859372,15.183448046875,16.125043505859374L15.183448046875,3.875013505859375Q15.183448046875,3.661000505859375,15.032048046875,3.509671505859375Q14.880748046875,3.358343505859375,14.666748046875,3.358343505859375L5.333418046875,3.358343505859375Q5.119404046875,3.358343505859375,4.968076046875,3.509671505859375Q4.816748046875,3.660999505859375,4.816748046875,3.875013505859375L4.816748046875,16.125043505859374Z" fill="#1878F5" fill-opacity="1"/></g></g></svg>