<svg xmlns="http://www.w3.org/2000/svg" xmlns:xlink="http://www.w3.org/1999/xlink" fill="none" version="1.1" width="16" height="16" viewBox="0 0 16 16"><defs><clipPath id="master_svg0_67_212"><rect x="0" y="0" width="16" height="16" rx="8"/></clipPath></defs><g><g clip-path="url(#master_svg0_67_212)"><g transform="matrix(0.7071067690849304,-0.7071067690849304,0.7071067690849304,0.7071067690849304,-13.341738970161316,-5.4775146720512)"><g transform="matrix(1,-1.1102230246251565e-16,1.1102230246251565e-16,1,-1.7763568394002505e-15,-1.7763568394002505e-15)"><g><path d="M-7.282814979553223,13.666146087646485L-10.282814979553223,13.666146087646485L-10.282814979553223,13.066146087646484L-7.282814979553223,13.066146087646484L-7.282814979553223,13.666146087646485Z" fill-rule="evenodd" fill="#000000" fill-opacity="1" style="mix-blend-mode:passthrough"/></g></g><g transform="matrix(1,-1.1102230246251565e-16,1.1102230246251565e-16,1,-1.7763568394002505e-15,0)"><g><path d="M-7.282814979553223,17.666146087646485L-10.282814979553223,17.666146087646485L-10.282814979553223,17.066146087646484L-7.282814979553223,17.066146087646484L-7.282814979553223,17.666146087646485Z" fill-rule="evenodd" fill="#000000" fill-opacity="1" style="mix-blend-mode:passthrough"/></g></g><g transform="matrix(1,-1.1102230246251565e-16,1.1102230246251565e-16,1,-1.7763568394002505e-15,0)"><g><path d="M-7.282814979553223,21.666146087646485L-10.282814979553223,21.666146087646485L-10.282814979553223,21.066146087646484L-7.282814979553223,21.066146087646484L-7.282814979553223,21.666146087646485Z" fill-rule="evenodd" fill="#000000" fill-opacity="1" style="mix-blend-mode:passthrough"/></g></g><g transform="matrix(1,-1.1102230246251565e-16,1.1102230246251565e-16,1,-3.552713678800501e-15,0)"><g><path d="M-7.282814979553223,25.666146087646485L-10.282814979553223,25.666146087646485L-10.282814979553223,25.066146087646484L-7.282814979553223,25.066146087646484L-7.282814979553223,25.666146087646485Z" fill-rule="evenodd" fill="#000000" fill-opacity="1" style="mix-blend-mode:passthrough"/></g></g><g transform="matrix(1,-1.1102230246251565e-16,1.1102230246251565e-16,1,-3.552713678800501e-15,0)"><g><path d="M-7.282814979553223,29.666146087646485L-10.282814979553223,29.666146087646485L-10.282814979553223,29.066146087646484L-7.282814979553223,29.066146087646484L-7.282814979553223,29.666146087646485Z" fill-rule="evenodd" fill="#000000" fill-opacity="1" style="mix-blend-mode:passthrough"/></g></g><g transform="matrix(1,-1.1102230246251565e-16,1.1102230246251565e-16,1,-3.552713678800501e-15,0)"><g><path d="M-7.282814979553223,33.66614608764648L-10.282814979553223,33.66614608764648L-10.282814979553223,33.06614608764649L-7.282814979553223,33.06614608764649L-7.282814979553223,33.66614608764648Z" fill-rule="evenodd" fill="#000000" fill-opacity="1" style="mix-blend-mode:passthrough"/></g></g><g transform="matrix(1,-1.1102230246251565e-16,1.1102230246251565e-16,1,-1.7763568394002505e-15,0)"><g><path d="M-4.282814979553223,15.666146087646485L-7.282814979553223,15.666146087646485L-7.282814979553223,15.066146087646484L-4.282814979553223,15.066146087646484L-4.282814979553223,15.666146087646485Z" fill-rule="evenodd" fill="#000000" fill-opacity="1" style="mix-blend-mode:passthrough"/></g></g><g transform="matrix(1,-1.1102230246251565e-16,1.1102230246251565e-16,1,-1.7763568394002505e-15,0)"><g><path d="M-4.282814979553223,19.666146087646485L-7.282814979553223,19.666146087646485L-7.282814979553223,19.066146087646484L-4.282814979553223,19.066146087646484L-4.282814979553223,19.666146087646485Z" fill-rule="evenodd" fill="#000000" fill-opacity="1" style="mix-blend-mode:passthrough"/></g></g><g transform="matrix(1,-1.1102230246251565e-16,1.1102230246251565e-16,1,-2.6645352591003757e-15,0)"><g><path d="M-4.282814979553223,23.666146087646485L-7.282814979553223,23.666146087646485L-7.282814979553223,23.066146087646484L-4.282814979553223,23.066146087646484L-4.282814979553223,23.666146087646485Z" fill-rule="evenodd" fill="#000000" fill-opacity="1" style="mix-blend-mode:passthrough"/></g></g><g transform="matrix(1,-1.1102230246251565e-16,1.1102230246251565e-16,1,-2.6645352591003757e-15,0)"><g><path d="M-4.282814979553223,27.666146087646485L-7.282814979553223,27.666146087646485L-7.282814979553223,27.066146087646484L-4.282814979553223,27.066146087646484L-4.282814979553223,27.666146087646485Z" fill-rule="evenodd" fill="#000000" fill-opacity="1" style="mix-blend-mode:passthrough"/></g></g><g transform="matrix(1,-1.1102230246251565e-16,1.1102230246251565e-16,1,-3.552713678800501e-15,0)"><g><path d="M-4.282814979553223,31.666146087646485L-7.282814979553223,31.666146087646485L-7.282814979553223,31.066146087646484L-4.282814979553223,31.066146087646484L-4.282814979553223,31.666146087646485Z" fill-rule="evenodd" fill="#000000" fill-opacity="1" style="mix-blend-mode:passthrough"/></g></g><g transform="matrix(1,-1.1102230246251565e-16,1.1102230246251565e-16,1,-3.552713678800501e-15,0)"><g><path d="M-4.282814979553223,35.66614608764648L-7.282814979553223,35.66614608764648L-7.282814979553223,35.06614608764649L-4.282814979553223,35.06614608764649L-4.282814979553223,35.66614608764648Z" fill-rule="evenodd" fill="#000000" fill-opacity="1" style="mix-blend-mode:passthrough"/></g></g><g transform="matrix(1,-1.1102230246251565e-16,1.1102230246251565e-16,1,-1.7763568394002505e-15,-1.7763568394002505e-15)"><g><path d="M-10.282814979553223,15.666146087646485L-13.282814979553223,15.666146087646485L-13.282814979553223,15.066146087646484L-10.282814979553223,15.066146087646484L-10.282814979553223,15.666146087646485Z" fill-rule="evenodd" fill="#000000" fill-opacity="1" style="mix-blend-mode:passthrough"/></g></g><g transform="matrix(1,-1.1102230246251565e-16,1.1102230246251565e-16,1,-1.7763568394002505e-15,0)"><g><path d="M-10.282814979553223,19.666146087646485L-13.282814979553223,19.666146087646485L-13.282814979553223,19.066146087646484L-10.282814979553223,19.066146087646484L-10.282814979553223,19.666146087646485Z" fill-rule="evenodd" fill="#000000" fill-opacity="1" style="mix-blend-mode:passthrough"/></g></g><g transform="matrix(1,-1.1102230246251565e-16,1.1102230246251565e-16,1,-1.7763568394002505e-15,0)"><g><path d="M-10.282814979553223,23.666146087646485L-13.282814979553223,23.666146087646485L-13.282814979553223,23.066146087646484L-10.282814979553223,23.066146087646484L-10.282814979553223,23.666146087646485Z" fill-rule="evenodd" fill="#000000" fill-opacity="1" style="mix-blend-mode:passthrough"/></g></g><g transform="matrix(1,-1.1102230246251565e-16,1.1102230246251565e-16,1,-3.552713678800501e-15,0)"><g><path d="M-10.282814979553223,27.666146087646485L-13.282814979553223,27.666146087646485L-13.282814979553223,27.066146087646484L-10.282814979553223,27.066146087646484L-10.282814979553223,27.666146087646485Z" fill-rule="evenodd" fill="#000000" fill-opacity="1" style="mix-blend-mode:passthrough"/></g></g><g transform="matrix(1,-1.1102230246251565e-16,1.1102230246251565e-16,1,-3.552713678800501e-15,0)"><g><path d="M-10.282814979553223,31.666146087646485L-13.282814979553223,31.666146087646485L-13.282814979553223,31.066146087646484L-10.282814979553223,31.066146087646484L-10.282814979553223,31.666146087646485Z" fill-rule="evenodd" fill="#000000" fill-opacity="1" style="mix-blend-mode:passthrough"/></g></g><g transform="matrix(1,-1.1102230246251565e-16,1.1102230246251565e-16,1,-3.552713678800501e-15,0)"><g><path d="M-10.282814979553223,35.66614608764648L-13.282814979553223,35.66614608764648L-13.282814979553223,35.06614608764649L-10.282814979553223,35.06614608764649L-10.282814979553223,35.66614608764648Z" fill-rule="evenodd" fill="#000000" fill-opacity="1" style="mix-blend-mode:passthrough"/></g></g><g transform="matrix(1,-1.1102230246251565e-16,1.1102230246251565e-16,1,-1.7763568394002505e-15,0)"><g><path d="M-1.2828149795532227,13.666146087646485L-4.282814979553223,13.666146087646485L-4.282814979553223,13.066146087646484L-1.2828149795532227,13.066146087646484L-1.2828149795532227,13.666146087646485Z" fill-rule="evenodd" fill="#000000" fill-opacity="1" style="mix-blend-mode:passthrough"/></g></g><g transform="matrix(1,-1.1102230246251565e-16,1.1102230246251565e-16,1,-1.7763568394002505e-15,0)"><g><path d="M-1.2828149795532227,17.666146087646485L-4.282814979553223,17.666146087646485L-4.282814979553223,17.066146087646484L-1.2828149795532227,17.066146087646484L-1.2828149795532227,17.666146087646485Z" fill-rule="evenodd" fill="#000000" fill-opacity="1" style="mix-blend-mode:passthrough"/></g></g><g transform="matrix(1,-1.1102230246251565e-16,1.1102230246251565e-16,1,-2.6645352591003757e-15,0)"><g><path d="M-1.2828149795532227,21.666146087646485L-4.282814979553223,21.666146087646485L-4.282814979553223,21.066146087646484L-1.2828149795532227,21.066146087646484L-1.2828149795532227,21.666146087646485Z" fill-rule="evenodd" fill="#000000" fill-opacity="1" style="mix-blend-mode:passthrough"/></g></g><g transform="matrix(1,-1.1102230246251565e-16,1.1102230246251565e-16,1,-2.6645352591003757e-15,0)"><g><path d="M-1.2828149795532227,25.666146087646485L-4.282814979553223,25.666146087646485L-4.282814979553223,25.066146087646484L-1.2828149795532227,25.066146087646484L-1.2828149795532227,25.666146087646485Z" fill-rule="evenodd" fill="#000000" fill-opacity="1" style="mix-blend-mode:passthrough"/></g></g><g transform="matrix(1,-1.1102230246251565e-16,1.1102230246251565e-16,1,-3.552713678800501e-15,0)"><g><path d="M-1.2828149795532227,29.666146087646485L-4.282814979553223,29.666146087646485L-4.282814979553223,29.066146087646484L-1.2828149795532227,29.066146087646484L-1.2828149795532227,29.666146087646485Z" fill-rule="evenodd" fill="#000000" fill-opacity="1" style="mix-blend-mode:passthrough"/></g></g><g transform="matrix(1,-1.1102230246251565e-16,1.1102230246251565e-16,1,-3.552713678800501e-15,0)"><g><path d="M-1.2828149795532227,33.66614608764648L-4.282814979553223,33.66614608764648L-4.282814979553223,33.06614608764649L-1.2828149795532227,33.06614608764649L-1.2828149795532227,33.66614608764648Z" fill-rule="evenodd" fill="#000000" fill-opacity="1" style="mix-blend-mode:passthrough"/></g></g><g transform="matrix(1,-1.1102230246251565e-16,1.1102230246251565e-16,1,-1.7763568394002505e-15,0)"><g><path d="M1.7171850204467773,15.666146087646485L-1.2828149795532227,15.666146087646485L-1.2828149795532227,15.066146087646484L1.7171850204467773,15.066146087646484L1.7171850204467773,15.666146087646485Z" fill-rule="evenodd" fill="#000000" fill-opacity="1" style="mix-blend-mode:passthrough"/></g></g><g transform="matrix(1,-1.1102230246251565e-16,1.1102230246251565e-16,1,-2.220446049250313e-15,0)"><g><path d="M1.7171850204467773,19.666146087646485L-1.2828149795532227,19.666146087646485L-1.2828149795532227,19.066146087646484L1.7171850204467773,19.066146087646484L1.7171850204467773,19.666146087646485Z" fill-rule="evenodd" fill="#000000" fill-opacity="1" style="mix-blend-mode:passthrough"/></g></g><g transform="matrix(1,-1.1102230246251565e-16,1.1102230246251565e-16,1,-2.6645352591003757e-15,0)"><g><path d="M1.7171850204467773,23.666146087646485L-1.2828149795532227,23.666146087646485L-1.2828149795532227,23.066146087646484L1.7171850204467773,23.066146087646484L1.7171850204467773,23.666146087646485Z" fill-rule="evenodd" fill="#000000" fill-opacity="1" style="mix-blend-mode:passthrough"/></g></g><g transform="matrix(1,-1.1102230246251565e-16,1.1102230246251565e-16,1,-3.1086244689504383e-15,0)"><g><path d="M1.7171850204467773,27.666146087646485L-1.2828149795532227,27.666146087646485L-1.2828149795532227,27.066146087646484L1.7171850204467773,27.066146087646484L1.7171850204467773,27.666146087646485Z" fill-rule="evenodd" fill="#000000" fill-opacity="1" style="mix-blend-mode:passthrough"/></g></g><g transform="matrix(1,-1.1102230246251565e-16,1.1102230246251565e-16,1,-3.552713678800501e-15,0)"><g><path d="M1.7171850204467773,31.666146087646485L-1.2828149795532227,31.666146087646485L-1.2828149795532227,31.066146087646484L1.7171850204467773,31.066146087646484L1.7171850204467773,31.666146087646485Z" fill-rule="evenodd" fill="#000000" fill-opacity="1" style="mix-blend-mode:passthrough"/></g></g><g transform="matrix(1,-1.1102230246251565e-16,1.1102230246251565e-16,1,-3.9968028886505635e-15,0)"><g><path d="M1.7171850204467773,35.66614608764648L-1.2828149795532227,35.66614608764648L-1.2828149795532227,35.06614608764649L1.7171850204467773,35.06614608764649L1.7171850204467773,35.66614608764648Z" fill-rule="evenodd" fill="#000000" fill-opacity="1" style="mix-blend-mode:passthrough"/></g></g><g transform="matrix(1,-1.1102230246251565e-16,1.1102230246251565e-16,1,-1.5543122344752192e-15,0)"><g><path d="M4.717185020446777,13.666146087646485L1.7171850204467773,13.666146087646485L1.7171850204467773,13.066146087646484L4.717185020446777,13.066146087646484L4.717185020446777,13.666146087646485Z" fill-rule="evenodd" fill="#000000" fill-opacity="1" style="mix-blend-mode:passthrough"/></g></g><g transform="matrix(1,-1.1102230246251565e-16,1.1102230246251565e-16,1,-1.9984014443252818e-15,0)"><g><path d="M4.717185020446777,17.666146087646485L1.7171850204467773,17.666146087646485L1.7171850204467773,17.066146087646484L4.717185020446777,17.066146087646484L4.717185020446777,17.666146087646485Z" fill-rule="evenodd" fill="#000000" fill-opacity="1" style="mix-blend-mode:passthrough"/></g></g><g transform="matrix(1,-1.1102230246251565e-16,1.1102230246251565e-16,1,-2.4424906541753444e-15,0)"><g><path d="M4.717185020446777,21.666146087646485L1.7171850204467773,21.666146087646485L1.7171850204467773,21.066146087646484L4.717185020446777,21.066146087646484L4.717185020446777,21.666146087646485Z" fill-rule="evenodd" fill="#000000" fill-opacity="1" style="mix-blend-mode:passthrough"/></g></g><g transform="matrix(1,-1.1102230246251565e-16,1.1102230246251565e-16,1,-2.886579864025407e-15,0)"><g><path d="M4.717185020446777,25.666146087646485L1.7171850204467773,25.666146087646485L1.7171850204467773,25.066146087646484L4.717185020446777,25.066146087646484L4.717185020446777,25.666146087646485Z" fill-rule="evenodd" fill="#000000" fill-opacity="1" style="mix-blend-mode:passthrough"/></g></g><g transform="matrix(1,-1.1102230246251565e-16,1.1102230246251565e-16,1,-3.3306690738754696e-15,0)"><g><path d="M4.717185020446777,29.666146087646485L1.7171850204467773,29.666146087646485L1.7171850204467773,29.066146087646484L4.717185020446777,29.066146087646484L4.717185020446777,29.666146087646485Z" fill-rule="evenodd" fill="#000000" fill-opacity="1" style="mix-blend-mode:passthrough"/></g></g><g transform="matrix(1,-1.1102230246251565e-16,1.1102230246251565e-16,1,-3.774758283725532e-15,0)"><g><path d="M4.717185020446777,33.66614608764648L1.7171850204467773,33.66614608764648L1.7171850204467773,33.06614608764649L4.717185020446777,33.06614608764649L4.717185020446777,33.66614608764648Z" fill-rule="evenodd" fill="#000000" fill-opacity="1" style="mix-blend-mode:passthrough"/></g></g><g transform="matrix(1,-1.1102230246251565e-16,1.1102230246251565e-16,1,-1.7763568394002505e-15,0)"><g><path d="M7.717185020446777,15.666146087646485L4.717185020446777,15.666146087646485L4.717185020446777,15.066146087646484L7.717185020446777,15.066146087646484L7.717185020446777,15.666146087646485Z" fill-rule="evenodd" fill="#000000" fill-opacity="1" style="mix-blend-mode:passthrough"/></g></g><g transform="matrix(1,-1.1102230246251565e-16,1.1102230246251565e-16,1,-1.7763568394002505e-15,0)"><g><path d="M7.717185020446777,19.666146087646485L4.717185020446777,19.666146087646485L4.717185020446777,19.066146087646484L7.717185020446777,19.066146087646484L7.717185020446777,19.666146087646485Z" fill-rule="evenodd" fill="#000000" fill-opacity="1" style="mix-blend-mode:passthrough"/></g></g><g transform="matrix(1,-1.1102230246251565e-16,1.1102230246251565e-16,1,-2.6645352591003757e-15,0)"><g><path d="M7.717185020446777,23.666146087646485L4.717185020446777,23.666146087646485L4.717185020446777,23.066146087646484L7.717185020446777,23.066146087646484L7.717185020446777,23.666146087646485Z" fill-rule="evenodd" fill="#000000" fill-opacity="1" style="mix-blend-mode:passthrough"/></g></g><g transform="matrix(1,-1.1102230246251565e-16,1.1102230246251565e-16,1,-2.6645352591003757e-15,0)"><g><path d="M7.717185020446777,27.666146087646485L4.717185020446777,27.666146087646485L4.717185020446777,27.066146087646484L7.717185020446777,27.066146087646484L7.717185020446777,27.666146087646485Z" fill-rule="evenodd" fill="#000000" fill-opacity="1" style="mix-blend-mode:passthrough"/></g></g><g transform="matrix(1,-1.1102230246251565e-16,1.1102230246251565e-16,1,-3.552713678800501e-15,0)"><g><path d="M7.717185020446777,31.666146087646485L4.717185020446777,31.666146087646485L4.717185020446777,31.066146087646484L7.717185020446777,31.066146087646484L7.717185020446777,31.666146087646485Z" fill-rule="evenodd" fill="#000000" fill-opacity="1" style="mix-blend-mode:passthrough"/></g></g><g transform="matrix(1,-1.1102230246251565e-16,1.1102230246251565e-16,1,-3.552713678800501e-15,0)"><g><path d="M7.717185020446777,35.66614608764648L4.717185020446777,35.66614608764648L4.717185020446777,35.06614608764649L7.717185020446777,35.06614608764649L7.717185020446777,35.66614608764648Z" fill-rule="evenodd" fill="#000000" fill-opacity="1" style="mix-blend-mode:passthrough"/></g></g><g transform="matrix(1,-1.1102230246251565e-16,1.1102230246251565e-16,1,-1.7763568394002505e-15,0)"><g><path d="M10.717185020446777,13.666146087646485L7.717185020446777,13.666146087646485L7.717185020446777,13.066146087646484L10.717185020446777,13.066146087646484L10.717185020446777,13.666146087646485Z" fill-rule="evenodd" fill="#000000" fill-opacity="1" style="mix-blend-mode:passthrough"/></g></g><g transform="matrix(1,-1.1102230246251565e-16,1.1102230246251565e-16,1,-1.7763568394002505e-15,0)"><g><path d="M10.717185020446777,17.666146087646485L7.717185020446777,17.666146087646485L7.717185020446777,17.066146087646484L10.717185020446777,17.066146087646484L10.717185020446777,17.666146087646485Z" fill-rule="evenodd" fill="#000000" fill-opacity="1" style="mix-blend-mode:passthrough"/></g></g><g transform="matrix(1,-1.1102230246251565e-16,1.1102230246251565e-16,1,-2.6645352591003757e-15,0)"><g><path d="M10.717185020446777,21.666146087646485L7.717185020446777,21.666146087646485L7.717185020446777,21.066146087646484L10.717185020446777,21.066146087646484L10.717185020446777,21.666146087646485Z" fill-rule="evenodd" fill="#000000" fill-opacity="1" style="mix-blend-mode:passthrough"/></g></g><g transform="matrix(1,-1.1102230246251565e-16,1.1102230246251565e-16,1,-2.6645352591003757e-15,0)"><g><path d="M10.717185020446777,25.666146087646485L7.717185020446777,25.666146087646485L7.717185020446777,25.066146087646484L10.717185020446777,25.066146087646484L10.717185020446777,25.666146087646485Z" fill-rule="evenodd" fill="#000000" fill-opacity="1" style="mix-blend-mode:passthrough"/></g></g><g transform="matrix(1,-1.1102230246251565e-16,1.1102230246251565e-16,1,-3.552713678800501e-15,0)"><g><path d="M10.717185020446777,29.666146087646485L7.717185020446777,29.666146087646485L7.717185020446777,29.066146087646484L10.717185020446777,29.066146087646484L10.717185020446777,29.666146087646485Z" fill-rule="evenodd" fill="#000000" fill-opacity="1" style="mix-blend-mode:passthrough"/></g></g><g transform="matrix(1,-1.1102230246251565e-16,1.1102230246251565e-16,1,-3.552713678800501e-15,0)"><g><path d="M10.717185020446777,33.66614608764648L7.717185020446777,33.66614608764648L7.717185020446777,33.06614608764649L10.717185020446777,33.06614608764649L10.717185020446777,33.66614608764648Z" fill-rule="evenodd" fill="#000000" fill-opacity="1" style="mix-blend-mode:passthrough"/></g></g><g transform="matrix(1,-1.1102230246251565e-16,1.1102230246251565e-16,1,-1.7763568394002505e-15,1.7763568394002505e-15)"><g><path d="M13.717185020446777,15.666146087646485L10.717185020446777,15.666146087646485L10.717185020446777,15.066146087646484L13.717185020446777,15.066146087646484L13.717185020446777,15.666146087646485Z" fill-rule="evenodd" fill="#000000" fill-opacity="1" style="mix-blend-mode:passthrough"/></g></g><g transform="matrix(1,-1.1102230246251565e-16,1.1102230246251565e-16,1,-1.7763568394002505e-15,0)"><g><path d="M13.717185020446777,19.666146087646485L10.717185020446777,19.666146087646485L10.717185020446777,19.066146087646484L13.717185020446777,19.066146087646484L13.717185020446777,19.666146087646485Z" fill-rule="evenodd" fill="#000000" fill-opacity="1" style="mix-blend-mode:passthrough"/></g></g><g transform="matrix(1,-1.1102230246251565e-16,1.1102230246251565e-16,1,-1.7763568394002505e-15,0)"><g><path d="M13.717185020446777,23.666146087646485L10.717185020446777,23.666146087646485L10.717185020446777,23.066146087646484L13.717185020446777,23.066146087646484L13.717185020446777,23.666146087646485Z" fill-rule="evenodd" fill="#000000" fill-opacity="1" style="mix-blend-mode:passthrough"/></g></g><g transform="matrix(1,-1.1102230246251565e-16,1.1102230246251565e-16,1,-3.552713678800501e-15,0)"><g><path d="M13.717185020446777,27.666146087646485L10.717185020446777,27.666146087646485L10.717185020446777,27.066146087646484L13.717185020446777,27.066146087646484L13.717185020446777,27.666146087646485Z" fill-rule="evenodd" fill="#000000" fill-opacity="1" style="mix-blend-mode:passthrough"/></g></g><g transform="matrix(1,-1.1102230246251565e-16,1.1102230246251565e-16,1,-3.552713678800501e-15,0)"><g><path d="M13.717185020446777,31.666146087646485L10.717185020446777,31.666146087646485L10.717185020446777,31.066146087646484L13.717185020446777,31.066146087646484L13.717185020446777,31.666146087646485Z" fill-rule="evenodd" fill="#000000" fill-opacity="1" style="mix-blend-mode:passthrough"/></g></g><g transform="matrix(1,-1.1102230246251565e-16,1.1102230246251565e-16,1,-3.552713678800501e-15,0)"><g><path d="M13.717185020446777,35.66614608764648L10.717185020446777,35.66614608764648L10.717185020446777,35.06614608764649L13.717185020446777,35.06614608764649L13.717185020446777,35.66614608764648Z" fill-rule="evenodd" fill="#000000" fill-opacity="1" style="mix-blend-mode:passthrough"/></g></g><g transform="matrix(1,-1.1102230246251565e-16,1.1102230246251565e-16,1,-1.7763568394002505e-15,1.7763568394002505e-15)"><g><path d="M16.717185020446777,13.666146087646485L13.717185020446777,13.666146087646485L13.717185020446777,13.066146087646484L16.717185020446777,13.066146087646484L16.717185020446777,13.666146087646485Z" fill-rule="evenodd" fill="#000000" fill-opacity="1" style="mix-blend-mode:passthrough"/></g></g><g transform="matrix(1,-1.1102230246251565e-16,1.1102230246251565e-16,1,-1.7763568394002505e-15,0)"><g><path d="M16.717185020446777,17.666146087646485L13.717185020446777,17.666146087646485L13.717185020446777,17.066146087646484L16.717185020446777,17.066146087646484L16.717185020446777,17.666146087646485Z" fill-rule="evenodd" fill="#000000" fill-opacity="1" style="mix-blend-mode:passthrough"/></g></g><g transform="matrix(1,-1.1102230246251565e-16,1.1102230246251565e-16,1,-1.7763568394002505e-15,0)"><g><path d="M16.717185020446777,21.666146087646485L13.717185020446777,21.666146087646485L13.717185020446777,21.066146087646484L16.717185020446777,21.066146087646484L16.717185020446777,21.666146087646485Z" fill-rule="evenodd" fill="#000000" fill-opacity="1" style="mix-blend-mode:passthrough"/></g></g><g transform="matrix(1,-1.1102230246251565e-16,1.1102230246251565e-16,1,-3.552713678800501e-15,0)"><g><path d="M16.717185020446777,25.666146087646485L13.717185020446777,25.666146087646485L13.717185020446777,25.066146087646484L16.717185020446777,25.066146087646484L16.717185020446777,25.666146087646485Z" fill-rule="evenodd" fill="#000000" fill-opacity="1" style="mix-blend-mode:passthrough"/></g></g><g transform="matrix(1,-1.1102230246251565e-16,1.1102230246251565e-16,1,-3.552713678800501e-15,0)"><g><path d="M16.717185020446777,29.666146087646485L13.717185020446777,29.666146087646485L13.717185020446777,29.066146087646484L16.717185020446777,29.066146087646484L16.717185020446777,29.666146087646485Z" fill-rule="evenodd" fill="#000000" fill-opacity="1" style="mix-blend-mode:passthrough"/></g></g><g transform="matrix(1,-1.1102230246251565e-16,1.1102230246251565e-16,1,-3.552713678800501e-15,0)"><g><path d="M16.717185020446777,33.66614608764648L13.717185020446777,33.66614608764648L13.717185020446777,33.06614608764649L16.717185020446777,33.06614608764649L16.717185020446777,33.66614608764648Z" fill-rule="evenodd" fill="#000000" fill-opacity="1" style="mix-blend-mode:passthrough"/></g></g><g transform="matrix(1,-1.1102230246251565e-16,1.1102230246251565e-16,1,0,1.7763568394002505e-15)"><g><path d="M19.717185020446777,15.666146087646485L16.717185020446777,15.666146087646485L16.717185020446777,15.066146087646484L19.717185020446777,15.066146087646484L19.717185020446777,15.666146087646485Z" fill-rule="evenodd" fill="#000000" fill-opacity="1" style="mix-blend-mode:passthrough"/></g></g><g transform="matrix(1,-1.1102230246251565e-16,1.1102230246251565e-16,1,-3.552713678800501e-15,3.552713678800501e-15)"><g><path d="M19.717185020446777,19.666146087646485L16.717185020446777,19.666146087646485L16.717185020446777,19.066146087646484L19.717185020446777,19.066146087646484L19.717185020446777,19.666146087646485Z" fill-rule="evenodd" fill="#000000" fill-opacity="1" style="mix-blend-mode:passthrough"/></g></g><g transform="matrix(1,-1.1102230246251565e-16,1.1102230246251565e-16,1,-3.552713678800501e-15,3.552713678800501e-15)"><g><path d="M19.717185020446777,23.666146087646485L16.717185020446777,23.666146087646485L16.717185020446777,23.066146087646484L19.717185020446777,23.066146087646484L19.717185020446777,23.666146087646485Z" fill-rule="evenodd" fill="#000000" fill-opacity="1" style="mix-blend-mode:passthrough"/></g></g><g transform="matrix(1,-1.1102230246251565e-16,1.1102230246251565e-16,1,-3.552713678800501e-15,3.552713678800501e-15)"><g><path d="M19.717185020446777,27.666146087646485L16.717185020446777,27.666146087646485L16.717185020446777,27.066146087646484L19.717185020446777,27.066146087646484L19.717185020446777,27.666146087646485Z" fill-rule="evenodd" fill="#000000" fill-opacity="1" style="mix-blend-mode:passthrough"/></g></g><g transform="matrix(1,-1.1102230246251565e-16,1.1102230246251565e-16,1,-3.552713678800501e-15,3.552713678800501e-15)"><g><path d="M19.717185020446777,31.666146087646485L16.717185020446777,31.666146087646485L16.717185020446777,31.066146087646484L19.717185020446777,31.066146087646484L19.717185020446777,31.666146087646485Z" fill-rule="evenodd" fill="#000000" fill-opacity="1" style="mix-blend-mode:passthrough"/></g></g><g transform="matrix(1,-1.1102230246251565e-16,1.1102230246251565e-16,1,-3.552713678800501e-15,0)"><g><path d="M19.717185020446777,35.66614608764648L16.717185020446777,35.66614608764648L16.717185020446777,35.06614608764649L19.717185020446777,35.06614608764649L19.717185020446777,35.66614608764648Z" fill-rule="evenodd" fill="#000000" fill-opacity="1" style="mix-blend-mode:passthrough"/></g></g><g transform="matrix(1,-1.1102230246251565e-16,1.1102230246251565e-16,1,0,1.7763568394002505e-15)"><g><path d="M22.717185020446777,13.666146087646485L19.717185020446777,13.666146087646485L19.717185020446777,13.066146087646484L22.717185020446777,13.066146087646484L22.717185020446777,13.666146087646485Z" fill-rule="evenodd" fill="#000000" fill-opacity="1" style="mix-blend-mode:passthrough"/></g></g><g transform="matrix(1,-1.1102230246251565e-16,1.1102230246251565e-16,1,-3.552713678800501e-15,3.552713678800501e-15)"><g><path d="M22.717185020446777,17.666146087646485L19.717185020446777,17.666146087646485L19.717185020446777,17.066146087646484L22.717185020446777,17.066146087646484L22.717185020446777,17.666146087646485Z" fill-rule="evenodd" fill="#000000" fill-opacity="1" style="mix-blend-mode:passthrough"/></g></g><g transform="matrix(1,-1.1102230246251565e-16,1.1102230246251565e-16,1,-3.552713678800501e-15,3.552713678800501e-15)"><g><path d="M22.717185020446777,21.666146087646485L19.717185020446777,21.666146087646485L19.717185020446777,21.066146087646484L22.717185020446777,21.066146087646484L22.717185020446777,21.666146087646485Z" fill-rule="evenodd" fill="#000000" fill-opacity="1" style="mix-blend-mode:passthrough"/></g></g><g transform="matrix(1,-1.1102230246251565e-16,1.1102230246251565e-16,1,-3.552713678800501e-15,3.552713678800501e-15)"><g><path d="M22.717185020446777,25.666146087646485L19.717185020446777,25.666146087646485L19.717185020446777,25.066146087646484L22.717185020446777,25.066146087646484L22.717185020446777,25.666146087646485Z" fill-rule="evenodd" fill="#000000" fill-opacity="1" style="mix-blend-mode:passthrough"/></g></g><g transform="matrix(1,-1.1102230246251565e-16,1.1102230246251565e-16,1,-3.552713678800501e-15,3.552713678800501e-15)"><g><path d="M22.717185020446777,29.666146087646485L19.717185020446777,29.666146087646485L19.717185020446777,29.066146087646484L22.717185020446777,29.066146087646484L22.717185020446777,29.666146087646485Z" fill-rule="evenodd" fill="#000000" fill-opacity="1" style="mix-blend-mode:passthrough"/></g></g><g transform="matrix(1,-1.1102230246251565e-16,1.1102230246251565e-16,1,-3.552713678800501e-15,0)"><g><path d="M22.717185020446777,33.66614608764648L19.717185020446777,33.66614608764648L19.717185020446777,33.06614608764649L22.717185020446777,33.06614608764649L22.717185020446777,33.66614608764648Z" fill-rule="evenodd" fill="#000000" fill-opacity="1" style="mix-blend-mode:passthrough"/></g></g><g transform="matrix(1,-1.1102230246251565e-16,1.1102230246251565e-16,1,0,1.7763568394002505e-15)"><g><path d="M25.717185020446777,15.666146087646485L22.717185020446777,15.666146087646485L22.717185020446777,15.066146087646484L25.717185020446777,15.066146087646484L25.717185020446777,15.666146087646485Z" fill-rule="evenodd" fill="#000000" fill-opacity="1" style="mix-blend-mode:passthrough"/></g></g><g transform="matrix(1,-1.1102230246251565e-16,1.1102230246251565e-16,1,-3.552713678800501e-15,3.552713678800501e-15)"><g><path d="M25.717185020446777,19.666146087646485L22.717185020446777,19.666146087646485L22.717185020446777,19.066146087646484L25.717185020446777,19.066146087646484L25.717185020446777,19.666146087646485Z" fill-rule="evenodd" fill="#000000" fill-opacity="1" style="mix-blend-mode:passthrough"/></g></g><g transform="matrix(1,-1.1102230246251565e-16,1.1102230246251565e-16,1,-3.552713678800501e-15,3.552713678800501e-15)"><g><path d="M25.717185020446777,23.666146087646485L22.717185020446777,23.666146087646485L22.717185020446777,23.066146087646484L25.717185020446777,23.066146087646484L25.717185020446777,23.666146087646485Z" fill-rule="evenodd" fill="#000000" fill-opacity="1" style="mix-blend-mode:passthrough"/></g></g><g transform="matrix(1,-1.1102230246251565e-16,1.1102230246251565e-16,1,-3.552713678800501e-15,3.552713678800501e-15)"><g><path d="M25.717185020446777,27.666146087646485L22.717185020446777,27.666146087646485L22.717185020446777,27.066146087646484L25.717185020446777,27.066146087646484L25.717185020446777,27.666146087646485Z" fill-rule="evenodd" fill="#000000" fill-opacity="1" style="mix-blend-mode:passthrough"/></g></g><g transform="matrix(1,-1.1102230246251565e-16,1.1102230246251565e-16,1,-3.552713678800501e-15,3.552713678800501e-15)"><g><path d="M25.717185020446777,31.666146087646485L22.717185020446777,31.666146087646485L22.717185020446777,31.066146087646484L25.717185020446777,31.066146087646484L25.717185020446777,31.666146087646485Z" fill-rule="evenodd" fill="#000000" fill-opacity="1" style="mix-blend-mode:passthrough"/></g></g><g transform="matrix(1,-1.1102230246251565e-16,1.1102230246251565e-16,1,-3.552713678800501e-15,0)"><g><path d="M25.717185020446777,35.66614608764648L22.717185020446777,35.66614608764648L22.717185020446777,35.06614608764649L25.717185020446777,35.06614608764649L25.717185020446777,35.66614608764648Z" fill-rule="evenodd" fill="#000000" fill-opacity="1" style="mix-blend-mode:passthrough"/></g></g></g></g></g></svg>