<svg xmlns="http://www.w3.org/2000/svg" xmlns:xlink="http://www.w3.org/1999/xlink" fill="none" version="1.1" width="24" height="24" viewBox="0 0 24 24"><g style="mix-blend-mode:passthrough"><path d="M9.95868,23.1213C10.5213,23.6839,11.2844,24,12.08,24L12.083,24C12.8786,24,13.6417,23.6839,14.2043,23.1213C14.7669,22.5587,15.083,21.7956,15.083,21L15.083,20.83C15.0835,20.7032,15.121,20.5793,15.191,20.4736C15.2611,20.3679,15.3604,20.2849,15.477,20.235L15.487,20.235C15.6052,20.1828,15.7362,20.1671,15.8634,20.1897C15.9905,20.2123,16.1081,20.2723,16.201,20.362L16.256,20.417C16.5347,20.6957,16.8655,20.9168,17.2296,21.0677C17.5937,21.2186,17.984,21.2963,18.3781,21.2963C18.7723,21.2964,19.1626,21.2188,19.5267,21.068C19.8909,20.9172,20.2218,20.6962,20.5005,20.4175C20.7792,20.1388,21.0003,19.808,21.1512,19.4439C21.3021,19.0798,21.3798,18.6895,21.3798,18.2954C21.3799,17.9012,21.3023,17.5109,21.1515,17.1468C21.0007,16.7826,20.7797,16.4517,20.501,16.173L20.446,16.118C20.3563,16.0251,20.2963,15.9075,20.2737,15.7804C20.2511,15.6532,20.2668,15.5222,20.319,15.404L20.319,15.394C20.3687,15.2781,20.451,15.1791,20.5559,15.1091C20.6609,15.0392,20.7839,15.0013,20.91,15L21,15C21.7956,15,22.5587,14.6839,23.1213,14.1213C23.6839,13.5587,24,12.7956,24,12C24,11.2044,23.6839,10.4413,23.1213,9.87868C22.5587,9.31607,21.7956,9,21,9L20.834,9C20.7282,8.99932,20.6242,8.97282,20.5309,8.9228C20.4377,8.87278,20.3581,8.80077,20.299,8.713C20.2847,8.64427,20.2633,8.57724,20.235,8.513C20.1828,8.39484,20.1671,8.26381,20.1897,8.13664C20.2123,8.00947,20.2723,7.89192,20.362,7.799L20.417,7.744C20.6957,7.46533,20.9168,7.1345,21.0677,6.77038C21.2186,6.40626,21.2963,6.01599,21.2963,5.62185C21.2964,5.22772,21.2188,4.83743,21.068,4.47327C20.9172,4.10912,20.6962,3.77823,20.4175,3.4995C20.1388,3.22077,19.808,2.99966,19.4439,2.84878C19.0798,2.69791,18.6895,2.62023,18.2954,2.62019C17.9012,2.62014,17.5109,2.69772,17.1468,2.84851C16.7826,2.9993,16.4517,3.22034,16.173,3.499L16.118,3.554C16.0251,3.64371,15.9075,3.70371,15.7804,3.72633C15.6532,3.74895,15.5222,3.73317,15.404,3.681L15.394,3.681C15.2781,3.63133,15.1791,3.54901,15.1091,3.44408C15.0392,3.33914,15.0013,3.21611,15,3.09L15,3C15,2.20435,14.6839,1.44129,14.1213,0.87868C13.5587,0.31607,12.7956,0,12,0C11.2044,0,10.4413,0.31607,9.87868,0.87868C9.31607,1.44129,9,2.20435,9,3L9,3.166C8.99965,3.27153,8.97361,3.37539,8.92413,3.4686C8.87464,3.56182,8.80321,3.64158,8.716,3.701C8.64727,3.71526,8.58024,3.73671,8.516,3.765C8.39784,3.81717,8.26681,3.83295,8.13964,3.81033C8.01247,3.78771,7.89493,3.72772,7.802,3.638L7.747,3.583C7.18421,3.01981,6.42075,2.70326,5.62456,2.70298C4.82838,2.7027,4.06469,3.01871,3.5015,3.5815C2.93831,4.14429,2.62176,4.90775,2.62148,5.70394C2.6212,6.50012,2.93721,7.26381,3.5,7.827L3.559,7.881C3.64872,7.97393,3.70871,8.09147,3.73133,8.21864C3.75395,8.34581,3.73817,8.47684,3.686,8.595C3.67733,8.61433,3.66933,8.634,3.662,8.654C3.61747,8.77496,3.53798,8.87995,3.43364,8.95563C3.3293,9.0313,3.20481,9.07425,3.076,9.079L3,9.079C2.20435,9.079,1.44129,9.39507,0.87868,9.95768C0.31607,10.5203,0,11.2834,0,12.079C0,12.8747,0.31607,13.6377,0.87868,14.2003C1.44129,14.7629,2.20435,15.079,3,15.079L3.174,15.079C3.3008,15.0795,3.42468,15.117,3.53041,15.187C3.63613,15.2571,3.71906,15.3564,3.769,15.473L3.769,15.483C3.82117,15.6012,3.83695,15.7322,3.81433,15.8594C3.79171,15.9865,3.73171,16.1041,3.642,16.197L3.587,16.252C3.02408,16.8148,2.70778,17.5781,2.70769,18.3741C2.70759,19.1701,3.02371,19.9336,3.5865,20.4965C4.14929,21.0594,4.91265,21.3757,5.70865,21.3758C6.50464,21.3759,7.26808,21.0598,7.831,20.497L7.886,20.442C7.97893,20.3523,8.09647,20.2923,8.22364,20.2697C8.35081,20.2471,8.48184,20.2628,8.6,20.315L8.655,20.338C8.77596,20.3825,8.88095,20.462,8.95662,20.5664C9.0323,20.6707,9.07524,20.7952,9.08,20.924L9.08,21C9.08,21.7956,9.39607,22.5587,9.95868,23.1213ZM10.5923,19.4213C10.2896,18.9914,9.86587,18.6613,9.375,18.473L9.374,18.473C8.89199,18.2672,8.35977,18.2089,7.84464,18.3056C7.32951,18.4022,6.85462,18.6494,6.48,19.016L6.412,19.084C6.31902,19.1769,6.20866,19.2506,6.0872,19.3009C5.96575,19.3511,5.83559,19.377,5.70415,19.3769C5.57271,19.3769,5.44256,19.3509,5.32114,19.3006C5.19972,19.2502,5.08941,19.1765,4.9965,19.0835C4.90359,18.9905,4.8299,18.8802,4.77964,18.7587C4.72939,18.6373,4.70354,18.5071,4.70359,18.3756C4.70364,18.2442,4.72957,18.1141,4.77992,17.9926C4.83026,17.8712,4.90402,17.7609,4.997,17.668L5.065,17.6C5.43194,17.2262,5.68039,16.7523,5.77919,16.2379C5.87799,15.7234,5.82275,15.1913,5.6204,14.7081C5.41805,14.2249,5.07759,13.8122,4.64169,13.5217C4.20579,13.2312,3.69384,13.0758,3.17,13.075L3,13.075C2.73478,13.075,2.48043,12.9696,2.29289,12.7821C2.10536,12.5946,2,12.3402,2,12.075C2,11.8098,2.10536,11.5554,2.29289,11.3679C2.48043,11.1804,2.73478,11.075,3,11.075L3.114,11.075C3.63963,11.0631,4.14982,10.8951,4.57969,10.5923C5.00955,10.2896,5.33965,9.86587,5.528,9.375C5.73382,8.89299,5.79209,8.36077,5.69544,7.84564C5.59879,7.33051,5.35155,6.85562,4.985,6.481L4.917,6.413C4.72962,6.22523,4.62452,5.97071,4.6248,5.70544C4.62508,5.44017,4.73073,5.18588,4.9185,4.9985C5.10627,4.81112,5.36079,4.70602,5.62606,4.7063C5.89133,4.70658,6.14562,4.81223,6.333,5L6.392,5.057L6.4,5.065C6.75319,5.41067,7.19599,5.65069,7.67841,5.75795C8.16082,5.86522,8.66362,5.83544,9.13,5.672C9.22088,5.66021,9.30972,5.63598,9.394,5.6C9.86977,5.39607,10.2754,5.05728,10.5608,4.62544C10.8462,4.1936,10.9989,3.68763,11,3.17L11,3C11,2.73478,11.1054,2.48043,11.2929,2.29289C11.4804,2.10536,11.7348,2,12,2C12.2652,2,12.5196,2.10536,12.7071,2.29289C12.8946,2.48043,13,2.73478,13,3L13,3.094C13.0025,3.61649,13.1588,4.12666,13.4494,4.56091C13.74,4.99515,14.152,5.33425,14.634,5.5359C15.116,5.73756,15.6467,5.79285,16.1599,5.69488C16.6731,5.59692,17.1462,5.35002,17.52,4.985L17.588,4.917C17.6807,4.82411,17.7908,4.75037,17.912,4.7C18.0334,4.64966,18.1636,4.62375,18.295,4.62375C18.4264,4.62375,18.5566,4.64966,18.678,4.7C18.8302,4.76281,18.9645,4.86222,19.069,4.9894C19.1735,5.11657,19.245,5.26759,19.2772,5.42904C19.3093,5.59049,19.3011,5.75738,19.2533,5.9149C19.2055,6.07241,19.1195,6.21569,19.003,6.332L18.935,6.4C18.5893,6.75319,18.3493,7.19599,18.242,7.67841C18.1348,8.16082,18.1646,8.66362,18.328,9.13C18.3398,9.22088,18.364,9.30972,18.4,9.394C18.6039,9.86977,18.9427,10.2754,19.3746,10.5608C19.8064,10.8462,20.3124,10.9989,20.83,11L21,11C21.2652,11,21.5196,11.1054,21.7071,11.2929C21.8946,11.4804,22,11.7348,22,12C22,12.2652,21.8946,12.5196,21.7071,12.7071C21.5196,12.8946,21.2652,13,21,13L20.906,13C20.3837,13.0027,19.8738,13.1591,19.4397,13.4496C19.0057,13.7401,18.6668,14.152,18.4651,14.6338C18.2635,15.1156,18.2082,15.6461,18.3059,16.1591C18.4037,16.6722,18.6503,17.1451,19.015,17.519L19.084,17.588C19.1769,17.681,19.2506,17.7913,19.3009,17.9128C19.3511,18.0343,19.377,18.1644,19.3769,18.2959C19.3769,18.4273,19.3509,18.5574,19.3006,18.6789C19.2502,18.8003,19.1765,18.9106,19.0835,19.0035C18.9905,19.0964,18.8802,19.1701,18.7587,19.2204C18.6373,19.2706,18.5071,19.2965,18.3756,19.2964C18.2442,19.2964,18.1141,19.2704,17.9926,19.2201C17.8712,19.1697,17.7609,19.096,17.668,19.003L17.6,18.935C17.2262,18.5681,16.7523,18.3196,16.2379,18.2208C15.7234,18.122,15.1913,18.1772,14.7081,18.3796C14.2249,18.5819,13.8122,18.9224,13.5217,19.3583C13.2312,19.7942,13.0758,20.3062,13.075,20.83L13.075,21C13.075,21.2652,12.9696,21.5196,12.7821,21.7071C12.5946,21.8946,12.3402,22,12.075,22C11.8098,22,11.5554,21.8946,11.3679,21.7071C11.1804,21.5196,11.075,21.2652,11.075,21L11.075,20.887C11.0631,20.3614,10.8951,19.8512,10.5923,19.4213ZM9.77772,15.3259C10.4355,15.7654,11.2089,16,12,16C13.0609,16,14.0783,15.5786,14.8284,14.8284C15.5786,14.0783,16,13.0609,16,12C16,11.2089,15.7654,10.4355,15.3259,9.77772C14.8864,9.11992,14.2616,8.60723,13.5307,8.30448C12.7998,8.00173,11.9956,7.92252,11.2196,8.07686C10.4437,8.2312,9.73098,8.61216,9.17157,9.17157C8.61216,9.73098,8.2312,10.4437,8.07686,11.2196C7.92252,11.9956,8.00173,12.7998,8.30448,13.5307C8.60723,14.2616,9.11992,14.8864,9.77772,15.3259ZM10.8889,10.3371C11.2178,10.1173,11.6044,10,12,10C12.5304,10,13.0391,10.2107,13.4142,10.5858C13.7893,10.9609,14,11.4696,14,12C14,12.3956,13.8827,12.7822,13.6629,13.1111C13.4432,13.44,13.1308,13.6964,12.7654,13.8478C12.3999,13.9991,11.9978,14.0387,11.6098,13.9616C11.2219,13.8844,10.8655,13.6939,10.5858,13.4142C10.3061,13.1345,10.1156,12.7781,10.0384,12.3902C9.96126,12.0022,10.0009,11.6001,10.1522,11.2346C10.3036,10.8692,10.56,10.5568,10.8889,10.3371Z" fill-rule="evenodd" fill="#000000" fill-opacity="1"/></g></svg>