<svg xmlns="http://www.w3.org/2000/svg" xmlns:xlink="http://www.w3.org/1999/xlink" fill="none" version="1.1" width="16" height="16" viewBox="0 0 16 16"><defs><clipPath id="master_svg0_318_1698"><rect x="0" y="0" width="16" height="16" rx="0"/></clipPath></defs><g clip-path="url(#master_svg0_318_1698)"><g><path d="M6.3382891,6.3382891Q5.65,7.026578,5.65,8Q5.65,8.97342,6.3382891,9.66171Q7.026578,10.35,8,10.35Q8.97342,10.35,9.66171,9.66171Q10.35,8.97342,10.35,8Q10.35,7.026578,9.66171,6.3382891Q8.97342,5.65,8,5.65Q7.026578,5.65,6.3382891,6.3382891ZM7.186817,8.81318Q6.85,8.47637,6.85,8Q6.85,7.52363,7.186817,7.186817Q7.52363,6.85,8,6.85Q8.47637,6.85,8.81318,7.186817Q9.15,7.52363,9.15,8Q9.15,8.47637,8.81318,8.81318Q8.47637,9.15,8,9.15Q7.52363,9.15,7.186817,8.81318Z" fill-rule="evenodd" fill="#333333" fill-opacity="1"/></g><g><path d="M14.4333259765625,7.416778046875Q14.4333259765625,7.367098046875,14.4251259765625,7.318088046875Q14.4169259765625,7.269088046875,14.4008259765625,7.222088046875Q14.3847259765625,7.175098046875,14.3611259765625,7.131398046875Q14.3374259765625,7.087688046875,14.3069259765625,7.048468046875Q14.2764259765625,7.009248046875,14.2399259765625,6.975578046875Q14.2034259765625,6.941898046875,14.1618259765625,6.914698046875Q14.1202259765625,6.887488046875,14.0748259765625,6.867498046875Q14.0293259765625,6.847498046875,13.9811259765625,6.835258046875L12.8856259765625,6.556678046875L12.5002259765625,5.626098046875001L13.1248259765625,4.887488046875Q13.1609259765625,4.844768046875,13.1885259765625,4.796118046875Q13.2161259765625,4.7474680468749995,13.2342259765625,4.694548046875Q13.2523259765625,4.641638046875,13.2604259765625,4.586278046875Q13.2684259765625,4.530928046875,13.2661259765625,4.4750380468749995Q13.2637259765625,4.419148046875,13.2511259765625,4.364658046875Q13.2385259765625,4.310168046875,13.2160259765625,4.258948046875Q13.1935259765625,4.207728046874999,13.1620259765625,4.161548046875Q13.1304259765625,4.115368046875,13.0909259765625,4.075818046875L11.9242259765625,2.9091500468750002Q11.8845359765625,2.8694580468749997,11.8381659765625,2.837817046875Q11.7917959765625,2.806176046875,11.7403659765625,2.783684046875Q11.6889359765625,2.761193046875,11.6342259765625,2.748631046875Q11.5795159765625,2.736069046875,11.5234259765625,2.733874046875Q11.4673359765625,2.731678046875,11.4118159765625,2.7399250468750003Q11.3562859765625,2.748171046875,11.3032559765625,2.766573046875Q11.2502259765625,2.784976046875,11.2015259765625,2.812896046875Q11.1528359765625,2.840815046875,11.1101559765625,2.877283046875L10.3767159765625,3.504068046875L9.4131059765625,3.107786046875L9.125865976562501,2.014307046875Q9.1133159765625,1.966545046875,9.0931259765625,1.921477046875Q9.072945976562501,1.876409046875,9.0456559765625,1.835247046875Q9.0183759765625,1.794086046875,8.984725976562501,1.757940046875Q8.9510859765625,1.721794046875,8.9119759765625,1.691635046875Q8.8728759765625,1.661477046875,8.8293659765625,1.6381170468750001Q8.7858559765625,1.614758046875,8.7391159765625,1.5988270468749999Q8.692365976562499,1.582896046875,8.6436559765625,1.574822046875Q8.5949359765625,1.566748046875,8.5455459765625,1.566748046875L7.4055459765625,1.566748046875Q7.3561759765625,1.566748046875,7.3074759765625,1.574817046875Q7.2587759765625,1.582885046875,7.2120459765625,1.598806046875Q7.1653159765625,1.614726046875,7.1218159765625,1.638070046875Q7.0783159765625,1.661414046875,7.0392259765625,1.691553046875Q7.0001259765625,1.7216920468749999,6.9664759765625,1.757817046875Q6.9328359765625,1.7939410468750001,6.9055459765625,1.835079046875Q6.8782559765625,1.876217046875,6.8580559765625,1.921262046875Q6.8378659765625,1.966306046875,6.8252959765625,2.014047046875L6.5318259765625,3.129198046875L5.6100359765625,3.517768046875L4.8987159765624995,2.885090046875Q4.856205976562499,2.847287046875,4.8073659765625,2.818144046875Q4.758515976562499,2.7890010468749997,4.7050559765625,2.769557046875Q4.651595976562501,2.750113046875,4.5954459765625,2.741061046875Q4.5392859765625,2.732009046875,4.482425976562499,2.733671046875Q4.4255659765625,2.735333046875,4.3700359765625,2.747650046875Q4.3145059765625,2.759968046875,4.2622759765625,2.7825010468749998Q4.210045976562499,2.805035046875,4.1629759765625,2.8369820468749998Q4.1159159765624995,2.868929046875,4.0756959765625,2.909151046875L2.9090289765625,4.075818046875Q2.8700009765625,4.114848046875,2.8387479765625,4.160338046875Q2.8074959765625,4.205828046875,2.7850669765625,4.256258046875001Q2.7626379765625,4.306688046875,2.7497859765625,4.360368046875Q2.7369339765625,4.414048046875,2.7340899765625,4.469168046875Q2.7312459765625,4.524288046875,2.7385049765625,4.578998046875Q2.7457639765625,4.633708046875,2.7628839765624997,4.686178046875Q2.7800029765625,4.738658046875,2.8064069765625,4.787118046874999Q2.8328119765624997,4.835588046874999,2.8676149765625,4.878428046874999L3.4915459765625,5.646378046875L3.1117989765625,6.580038046875L2.0302609765625,6.832448046875Q1.9811549765625,6.843908046875,1.9346509765625,6.863408046875Q1.8881469765625,6.882898046875,1.8455499765625,6.909888046875Q1.8029519765625,6.936868046875,1.7654559765625,6.970588046875Q1.7279589765625,7.004298046875,1.6966159765625,7.043798046875Q1.6652729765625,7.083298046875,1.6409619765625,7.127478046875Q1.6166509765625001,7.171658046875,1.6000549765624998,7.219268046875Q1.5834579765624999,7.266888046875,1.5750419765625,7.316608046875Q1.5666259765625,7.366318046875,1.5666259765625,7.416748046875L1.5666259765625,8.583418046875Q1.5666259765625,8.632438046875,1.5745829765625001,8.680798046875001Q1.5825389765625,8.729168046875,1.5982409765624999,8.775608046875Q1.6139439765625,8.822048046875,1.6369749765625001,8.865318046875Q1.6600059765625002,8.908588046875,1.6897559765625,8.947548046875Q1.7195059765625,8.986508046874999,1.7551849765625,9.020128046875Q1.7908639765625,9.053738046875,1.8315249765625001,9.081118046875Q1.8721869765624999,9.108498046874999,1.9167539765625,9.128908046875Q1.9613199765625,9.149318046874999,2.0086089765625,9.162228046875L3.1277419765625,9.467758046875L3.5173359765625003,10.391968046875L2.8854189765625,11.100818046875Q2.8475399765625,11.143308046875,2.8183259765625,11.192168046875Q2.7891129765625,11.241028046875,2.7696089765625,11.294508046875Q2.7501049765625,11.347988046875,2.7410069765625,11.404178046875Q2.7319079765625,11.460368046875,2.7335389765625,11.517278046875Q2.7351699765625,11.574178046875,2.7474729765625,11.629758046875Q2.7597759765625,11.685338046875,2.7823119765625,11.737608046875Q2.8048479765625,11.789888046875,2.8368119765625,11.836988046875Q2.8687759765625,11.884098046875,2.9090279765625002,11.924348046875L4.0756959765625,13.091048046875Q4.1147659765625,13.130048046875,4.1603059765624995,13.161348046875Q4.2058559765625,13.192648046875,4.2563459765625,13.215048046875Q4.3068359765625,13.237548046875,4.3605759765625,13.250348046875Q4.4143059765625,13.263148046875,4.4694859765625,13.265948046875Q4.5246659765625,13.268748046875,4.5794359765625,13.261448046875Q4.6341959765625,13.254148046875,4.6866959765625005,13.236948046875Q4.7392059765625,13.219748046875,4.7876859765625,13.193248046875Q4.8361759765625,13.166748046875,4.8789959765625,13.131848046875L5.6469159765625,12.506048046875L6.5571359765625,12.880548046875L6.8348859765625,13.980348046875Q6.8470659765625,14.028548046875,6.8670259765625,14.074148046875Q6.8869859765625,14.119648046875,6.9141659765625,14.161348046875Q6.9413559765625,14.202948046875,6.9750259765625,14.239648046875Q7.0087059765625,14.276248046875,7.0479459765625,14.306748046875Q7.0871859765625,14.337348046875,7.1309259765625,14.361048046875Q7.1746659765625,14.384748046875,7.2217159765625,14.400848046875Q7.2687559765625,14.417048046875,7.3178259765625,14.425248046875Q7.3668859765625,14.433448046875,7.4166259765625,14.433448046875L8.5832959765625,14.433448046875Q8.633005976562501,14.433448046875,8.682045976562499,14.425248046875Q8.7310859765625,14.417048046875,8.7781059765625,14.400948046875Q8.8251259765625,14.384748046875,8.8688559765625,14.361148046875Q8.9125759765625,14.337448046875,8.9518159765625,14.306948046875Q8.9910459765625,14.276348046875,9.0247159765625,14.239748046875Q9.058395976562501,14.203248046875,9.0855859765625,14.161548046875Q9.1127759765625,14.119948046875,9.1327559765625,14.074448046875Q9.1527259765625,14.028948046875,9.1649259765625,13.980748046875L9.4436359765625,12.880248046875L10.3863959765625,12.489848046875Q10.6476959765625,12.708348046875,11.0993559765625,13.113448046875Q11.1418159765625,13.151548046875,11.1906959765625,13.180948046875Q11.2395759765625,13.210348046875,11.2931159765625,13.229948046875Q11.3466559765625,13.249648046875,11.4029459765625,13.258848046875Q11.4592359765625,13.268048046875,11.5162559765625,13.266548046875Q11.5732659765625,13.264948046875,11.6289759765625,13.252748046875Q11.6846759765625,13.240448046875,11.7370759765625,13.217948046875Q11.7894659765625,13.195348046875,11.8366759765625,13.163348046875Q11.8838959765625,13.131348046875,11.9242259765625,13.091048046875L13.0909259765625,11.924348046875Q13.1305259765625,11.884758046875,13.1620259765625,11.838528046875Q13.1936259765625,11.792308046875,13.2161259765625,11.741038046875Q13.2386259765625,11.689768046875,13.2512259765625,11.635218046875Q13.2638259765625,11.580668046875,13.2661259765625,11.524738046875Q13.2684259765625,11.468798046875,13.2603259765625,11.413398046875Q13.2522259765625,11.358008046875,13.2340259765625,11.305058046875Q13.2158259765625,11.252118046875,13.1881259765625,11.203458046875Q13.1605259765625,11.154788046875,13.1243259765625,11.112088046875L12.4953259765625,10.370188046875L12.8815259765625,9.437718046875L13.9843259765625,9.150778046875Q14.0322259765625,9.138328046875,14.0774259765625,9.118198046875001Q14.1225259765625,9.098068046875,14.1638259765625,9.070808046875001Q14.2051259765625,9.043548046875,14.2414259765625,9.009898046875Q14.2776259765625,8.976248046875,14.3079259765625,8.937108046875Q14.3381259765625,8.897968046875,14.3616259765625,8.854408046875001Q14.3850259765625,8.810848046875,14.4010259765625,8.764028046875Q14.4170259765625,8.717218046875,14.4251259765625,8.668418046875Q14.4332259765625,8.619618046875,14.4332259765625,8.570148046875001L14.4333259765625,7.416778046875ZM13.2332259765625,7.883268046875L12.2985259765625,7.645558046875Q12.1609359765625,7.610578046875,12.0536259765625,7.517678046875Q11.9463259765625,7.424768046875,11.8920159765625,7.293638046875L11.2516859765625,5.747458046875Q11.2200859765625,5.671128046874999,11.2102759765625,5.589108046874999Q11.2004659765625,5.507088046874999,11.2131959765625,5.425468046875Q11.2259159765625,5.343848046874999,11.2602259765625,5.268708046875Q11.2945259765625,5.193558046874999,11.3478659765625,5.130478046875L11.8521259765625,4.534108046875L11.4679959765625,4.149978046875L10.8775059765625,4.654598046875Q10.8145459765625,4.708408046875,10.7393559765625,4.743138046875Q10.6641759765625,4.777878046875,10.5823959765625,4.790948046875Q10.5006159765625,4.804018046875,10.4183559765625,4.794448046875Q10.3360959765625,4.784878046875,10.2594959765625,4.7533780468749995L8.6804659765625,4.104008046875Q8.5499959765625,4.0503480468749995,8.4570959765625,3.944168046875Q8.3642059765625,3.837988046875,8.3283659765625,3.701538046875L8.0828059765625,2.766748046875L7.8680759765625,2.766748046875L7.6171759765625,3.720108046875Q7.5816459765625,3.855128046875,7.4901459765625,3.960598046875Q7.3986559765625,4.066058046875,7.2699959765625,4.120288046875L5.7272559765625,4.770608046875Q5.6489259765625,4.803628046875,5.5645159765625,4.813588046875Q5.480095976562501,4.8235480468750005,5.3962359765625,4.809678046875Q5.3123759765625,4.795798046874999,5.2356659765625,4.759168046875001Q5.1589559765625,4.722538046875,5.0954459765625,4.666048046875L4.5240559765625,4.157838046875L4.1401859765625,4.541718046874999L4.6467659765625005,5.165228046875Q4.6976059765625,5.2278080468749994,4.7301259765624994,5.3015880468750005Q4.7626459765625,5.375358046875,4.7745359765625,5.455098046874999Q4.7864259765625,5.534848046875,4.7768359765625,5.614898046875Q4.767255976562501,5.694948046875,4.7368759765625,5.769638046875L4.1063659765625005,7.319808046875Q4.0792459765625,7.386488046875,4.0371259765625,7.444868046875Q3.9950059765625,7.503238046875,3.9402659765625003,7.549988046875Q3.8855359765625,7.596738046875,3.8212859765625,7.629218046875Q3.7570459765625,7.661698046875,3.6869459765625,7.678058046875L2.7666259765625,7.892838046875L2.7666259765625,8.125258046875L3.7252859765624997,8.386968046875001Q3.8585859765625,8.423358046875,3.9625359765625,8.514378046874999Q4.0664859765625,8.605408046874999,4.1201559765625,8.732728046875L4.7703659765625,10.275178046875Q4.8034159765624995,10.353588046875,4.813365976562499,10.438088046875Q4.8233159765625,10.522598046875,4.8093759765624995,10.606538046875Q4.7954359765625,10.690478046875,4.7587059765625,10.767228046875Q4.7219759765625,10.843988046875,4.6653559765625,10.907498046875L4.1581759765625,11.476428046875L4.5410159765625,11.859278046875L5.165765976562501,11.350148046875Q5.2285859765625,11.298948046875,5.3027359765625,11.266248046875Q5.3768959765624995,11.233558046875,5.4570659765625,11.221708046875Q5.5372359765625,11.209858046875,5.6176759765625,11.219698046875Q5.698125976562499,11.229538046875,5.773075976562501,11.260378046875L7.2931459765625,11.885708046875Q7.4249959765625,11.939948046875,7.5183459765625,12.047698046875Q7.6117059765625,12.155448046875,7.6466159765625,12.293648046875L7.8839359765625,13.233448046875L8.1163059765625,13.233448046875L8.354285976562501,12.293848046875Q8.3891659765625,12.156068046875,8.4821159765625,12.048608046875Q8.575065976562499,11.941138046875,8.706345976562499,11.886768046875L10.2525259765625,11.246448046875Q10.3231159765625,11.217218046875,10.3987759765625,11.206608046875Q10.4744359765625,11.195998046875,10.5503359765625,11.204688046875Q10.6262459765625,11.213368046875,10.6975459765625,11.240808046875Q10.7688559765625,11.268238046875,10.8310059765625,11.312668046875Q11.0304059765625,11.455198046875,11.4750659765625,11.843118046875L11.8516159765625,11.466568046875L11.3432359765625,10.866898046875Q11.2897559765625,10.803808046875,11.2553359765625,10.728608046875Q11.2209159765625,10.653408046875,11.2081259765625,10.571698046875Q11.1953259765625,10.489988046875,11.2051159765625,10.407868046875Q11.2149159765625,10.325738046875,11.2465559765625,10.249328046875L11.8870559765625,8.702678046875Q11.9410259765625,8.572348046875,12.0474159765625,8.479728046875Q12.1538059765625,8.387098046875,12.2903259765625,8.351578046875L13.2332259765625,8.106248046874999L13.2332259765625,7.883268046875Z" fill-rule="evenodd" fill="#333333" fill-opacity="1"/></g></g></svg>