<svg xmlns="http://www.w3.org/2000/svg" xmlns:xlink="http://www.w3.org/1999/xlink"
    version="1.1" width="14" height="14" viewBox="0 0 14 14">
    <defs>
        <clipPath id="master_svg0_747_09762">
            <rect x="0" y="0" width="14" height="14" rx="0" />
        </clipPath>
    </defs>
    <g clip-path="url(#master_svg0_747_09762)">
        <g>
            <path
                d="M13.7483,7Q13.7483,6.33726,13.2797,5.86863L8.13137,0.720343Q7.66274,0.25171299999999996,7,0.251714Q6.33726,0.251714,5.86863,0.720343L0.720343,5.86863Q0.25171299999999996,6.33726,0.251714,7Q0.251714,7.66274,0.720343,8.13137L5.86863,13.2797Q6.33726,13.7483,7,13.7483Q7.66274,13.7483,8.13137,13.2797L13.2797,8.13137Q13.7483,7.66274,13.7483,7ZM7.28284,1.56887L12.4311,6.71716Q12.714,7,12.4311,7.28284L7.28284,12.4311Q7,12.714,6.71716,12.4311L1.56887,7.28284Q1.45171,7.16569,1.45171,7Q1.45171,6.83431,1.56887,6.71716L6.71716,1.56887Q6.83431,1.45171,7,1.45171Q7.16569,1.45171,7.28284,1.56887Z"
                fill-rule="evenodd" fill="inherit" fill-opacity="1" />
        </g>
    </g>
</svg>