<svg xmlns="http://www.w3.org/2000/svg" xmlns:xlink="http://www.w3.org/1999/xlink" fill="none" version="1.1" width="32" height="32" viewBox="0 0 32 32"><defs><clipPath id="master_svg0_43_416"><rect x="0" y="0" width="32" height="32" rx="4"/></clipPath><clipPath id="master_svg1_43_434"><rect x="6" y="6" width="20" height="20" rx="0"/></clipPath></defs><g clip-path="url(#master_svg0_43_416)"><g clip-path="url(#master_svg1_43_434)"><g><path d="M16.85,18.1968994140625L16.85,20.4468994140625Q16.85,20.5109194140625,16.86249,20.5737094140625Q16.87498,20.6364994140625,16.89948,20.6956394140625Q16.92398,20.7547894140625,16.95954,20.8080194140625Q16.99511,20.8612494140625,17.04038,20.9065194140625Q17.08565,20.9517894140625,17.13888,20.9873494140625Q17.19211,21.0229194140625,17.25126,21.0474194140625Q17.3104,21.0719194140625,17.37319,21.0844094140625Q17.43598,21.0968994140625,17.5,21.0968994140625Q17.56402,21.0968994140625,17.62681,21.0844094140625Q17.6896,21.0719194140625,17.74874,21.0474194140625Q17.80789,21.0229194140625,17.86112,20.9873494140625Q17.91435,20.9517894140625,17.95962,20.9065194140625Q18.00489,20.8612494140625,18.04045,20.8080194140625Q18.07602,20.7547894140625,18.10052,20.6956394140625Q18.12502,20.6364994140625,18.13751,20.5737094140625Q18.15,20.5109194140625,18.15,20.4468994140625L18.15,18.1968994140625Q18.15,17.3063234140625,17.52029,16.6766112140625Q16.89058,16.0468994140625,16,16.0468994140625Q15.109424,16.0468994140625,14.479712,16.6766111140625Q13.85,17.3063224140625,13.85,18.1968994140625L13.85,20.4468994140625Q13.85,20.5109194140625,13.86249,20.5737094140625Q13.874979,20.6364994140625,13.899478,20.6956394140625Q13.923978,20.7547894140625,13.959545,20.8080194140625Q13.995112,20.8612494140625,14.040381,20.9065194140625Q14.085649,20.9517894140625,14.138879,20.9873494140625Q14.19211,21.0229194140625,14.251256,21.0474194140625Q14.310402,21.0719194140625,14.373191,21.0844094140625Q14.4359806,21.0968994140625,14.5,21.0968994140625Q14.5640194,21.0968994140625,14.626809,21.0844094140625Q14.689598,21.0719194140625,14.748744,21.0474194140625Q14.80789,21.0229194140625,14.861121,20.9873494140625Q14.914351,20.9517894140625,14.959619,20.9065194140625Q15.004888,20.8612494140625,15.040455,20.8080194140625Q15.076022,20.7547894140625,15.100522,20.6956394140625Q15.125021,20.6364994140625,15.13751,20.5737094140625Q15.15,20.5109194140625,15.15,20.4468994140625L15.15,18.1968994140625Q15.15,17.8447994140625,15.398951,17.5958504140625Q15.6479,17.3468994140625,16,17.3468994140625Q16.3521,17.3468994140625,16.60105,17.5958504140625Q16.85,17.8447994140625,16.85,18.1968994140625Z" fill-rule="evenodd" fill="#FFFFFF" fill-opacity="1"/></g><g><path d="M16,9.923615999999999L23.2093,13.52826Q23.346600000000002,13.59689,23.5,13.59689L23.5088,13.59683Q23.5982,13.59561,23.683999999999997,13.57031Q23.7697,13.545,23.8455,13.49748Q23.9212,13.44996,23.981299999999997,13.38375Q24.0414,13.31755,24.081400000000002,13.23757Q24.15,13.10033,24.15,12.94689L24.15,12.94454Q24.1496,12.84026,24.1166,12.741340000000001Q24.0758,12.61868,23.991,12.52101Q23.9063,12.42333,23.7907,12.36551L16.49191,8.716128Q16.00003,8.470156,15.50809,8.716129L8.209517,12.36541L8.209312,12.36551Q8.093668,12.42333,8.008955,12.521Q7.924242,12.61868,7.883356,12.741340000000001Q7.85,12.84141,7.85,12.94689Q7.85,12.95379,7.850147,12.96068Q7.85325,13.10683,7.918622,13.23757Q7.976444,13.35322,8.074119,13.43793Q8.171793,13.522639999999999,8.294451,13.56353Q8.394519,13.59689,8.5,13.59689Q8.50689906,13.59689,8.5137984,13.59674Q8.659943,13.59364,8.790688,13.52826L8.790894,13.52816L16,9.923615999999999Z" fill-rule="evenodd" fill="#FFFFFF" fill-opacity="1"/></g><g><path d="M10.65,21.1968994140625L10.65,15.1968994140625Q10.65,15.1328800140625,10.63751,15.0700904140625Q10.625021,15.0073014140625,10.600522,14.9481554140625Q10.576022,14.8890094140625,10.540455,14.8357784140625Q10.504888,14.7825484140625,10.459619,14.7372804140625Q10.414351,14.6920114140625,10.361121,14.6564444140625Q10.30789,14.6208774140625,10.248744,14.5963774140625Q10.189598,14.5718784140625,10.126809,14.5593894140625Q10.0640194,14.5468994140625,10,14.5468994140625Q9.9359806,14.5468994140625,9.873191,14.5593894140625Q9.810402,14.5718784140625,9.751256,14.5963774140625Q9.69211,14.6208774140625,9.638879,14.6564444140625Q9.585649,14.6920114140625,9.540381,14.7372804140625Q9.495112,14.7825484140625,9.459545,14.8357784140625Q9.423978,14.8890094140625,9.399478,14.9481554140625Q9.374979,15.0073014140625,9.36249,15.0700904140625Q9.35,15.1328800140625,9.35,15.1968994140625L9.35,21.1968994140625Q9.35,22.0874694140625,9.9797226,22.7171894140625Q10.609439,23.3468994140625,11.5,23.3468994140625L20.5,23.3468994140625Q21.3906,23.3468994140625,22.0203,22.7171894140625Q22.65,22.0874694140625,22.65,21.1968994140625L22.65,15.1968994140625Q22.65,15.1328800140625,22.6375,15.0700904140625Q22.625,15.0073014140625,22.6005,14.9481554140625Q22.576,14.8890094140625,22.5405,14.8357784140625Q22.5049,14.7825484140625,22.459600000000002,14.7372804140625Q22.4143,14.6920114140625,22.3611,14.6564444140625Q22.3079,14.6208774140625,22.2487,14.5963774140625Q22.1896,14.5718784140625,22.1268,14.5593894140625Q22.064,14.5468994140625,22,14.5468994140625Q21.936,14.5468994140625,21.8732,14.5593894140625Q21.8104,14.5718784140625,21.7513,14.5963774140625Q21.6921,14.6208774140625,21.6389,14.6564444140625Q21.5856,14.6920114140625,21.540399999999998,14.7372804140625Q21.4951,14.7825484140625,21.4595,14.8357784140625Q21.424,14.8890094140625,21.3995,14.9481554140625Q21.375,15.0073014140625,21.3625,15.0700904140625Q21.35,15.1328800140625,21.35,15.1968994140625L21.35,21.1968994140625Q21.35,21.5489994140625,21.101,21.7979494140625Q20.8521,22.0468994140625,20.5,22.0468994140625L11.5,22.0468994140625Q11.14791,22.0468994140625,10.898957,21.7979494140625Q10.65,21.5489894140625,10.65,21.1968994140625Z" fill-rule="evenodd" fill="#FFFFFF" fill-opacity="1"/></g></g></g></svg>