<svg xmlns="http://www.w3.org/2000/svg" xmlns:xlink="http://www.w3.org/1999/xlink" fill="none" version="1.1" width="20" height="20" viewBox="0 0 20 20"><defs><clipPath id="master_svg0_43_434"><rect x="0" y="0" width="20" height="20" rx="0"/></clipPath></defs><g clip-path="url(#master_svg0_43_434)"><g><path d="M10.85,12.1968994140625L10.85,14.4468994140625Q10.85,14.5109194140625,10.862490000000001,14.573709414062499Q10.87498,14.6364994140625,10.89948,14.6956394140625Q10.92398,14.7547894140625,10.95954,14.8080194140625Q10.99511,14.861249414062499,11.040379999999999,14.906519414062501Q11.08565,14.9517894140625,11.13888,14.9873494140625Q11.19211,15.0229194140625,11.25126,15.0474194140625Q11.3104,15.0719194140625,11.373190000000001,15.084409414062499Q11.43598,15.0968994140625,11.5,15.0968994140625Q11.56402,15.0968994140625,11.626809999999999,15.084409414062499Q11.6896,15.0719194140625,11.74874,15.0474194140625Q11.80789,15.0229194140625,11.86112,14.9873494140625Q11.91435,14.9517894140625,11.959620000000001,14.906519414062501Q12.00489,14.861249414062499,12.04045,14.8080194140625Q12.07602,14.7547894140625,12.10052,14.6956394140625Q12.12502,14.6364994140625,12.137509999999999,14.573709414062499Q12.15,14.5109194140625,12.15,14.4468994140625L12.15,12.1968994140625Q12.15,11.3063234140625,11.52029,10.6766112140625Q10.89058,10.0468994140625,10,10.0468994140625Q9.109424,10.0468994140625,8.479712,10.6766111140625Q7.85,11.3063224140625,7.85,12.1968994140625L7.85,14.4468994140625Q7.85,14.5109194140625,7.86249,14.573709414062499Q7.874979,14.6364994140625,7.899478,14.6956394140625Q7.923978,14.7547894140625,7.959545,14.8080194140625Q7.995112,14.861249414062499,8.040381,14.906519414062501Q8.085649,14.9517894140625,8.138879,14.9873494140625Q8.19211,15.0229194140625,8.251256,15.0474194140625Q8.310402,15.0719194140625,8.373191,15.084409414062499Q8.4359806,15.0968994140625,8.5,15.0968994140625Q8.5640194,15.0968994140625,8.626809,15.084409414062499Q8.689598,15.0719194140625,8.748744,15.0474194140625Q8.80789,15.0229194140625,8.861121,14.9873494140625Q8.914351,14.9517894140625,8.959619,14.906519414062501Q9.004888,14.861249414062499,9.040455,14.8080194140625Q9.076022,14.7547894140625,9.100522,14.6956394140625Q9.125021,14.6364994140625,9.13751,14.573709414062499Q9.15,14.5109194140625,9.15,14.4468994140625L9.15,12.1968994140625Q9.15,11.8447994140625,9.398951,11.5958504140625Q9.6479,11.3468994140625,10,11.3468994140625Q10.3521,11.3468994140625,10.60105,11.5958504140625Q10.85,11.8447994140625,10.85,12.1968994140625Z" fill-rule="evenodd" fill="#FFFFFF" fill-opacity="1"/></g><g><path d="M10,3.923616L17.2093,7.52826Q17.346600000000002,7.59689,17.5,7.59689L17.5088,7.59683Q17.5982,7.59561,17.683999999999997,7.57031Q17.7697,7.545,17.8455,7.49748Q17.9212,7.44996,17.981299999999997,7.38375Q18.0414,7.31755,18.081400000000002,7.23757Q18.15,7.10033,18.15,6.94689L18.15,6.94454Q18.1496,6.84026,18.1166,6.74134Q18.0758,6.6186799999999995,17.991,6.52101Q17.9063,6.42333,17.7907,6.3655100000000004L10.49191,2.716128Q10.000029999999999,2.4701560000000002,9.50809,2.716129L2.209517,6.36541L2.209312,6.3655100000000004Q2.093668,6.42333,2.008955,6.521Q1.924242,6.6186799999999995,1.883356,6.74134Q1.85,6.84141,1.85,6.94689Q1.85,6.95379,1.850147,6.96068Q1.85325,7.10683,1.918622,7.23757Q1.9764439999999999,7.35322,2.074119,7.43793Q2.171793,7.52264,2.294451,7.56353Q2.394519,7.59689,2.5,7.59689Q2.50689906,7.59689,2.5137984,7.59674Q2.659943,7.59364,2.790688,7.52826L2.7908939999999998,7.52816L10,3.923616Z" fill-rule="evenodd" fill="#FFFFFF" fill-opacity="1"/></g><g><path d="M4.65,15.1968994140625L4.65,9.1968994140625Q4.65,9.1328800140625,4.63751,9.0700904140625Q4.625021,9.0073014140625,4.600522,8.9481554140625Q4.576022,8.8890094140625,4.540455,8.8357784140625Q4.504888,8.7825484140625,4.459619,8.7372804140625Q4.414351,8.6920114140625,4.361121,8.6564444140625Q4.30789,8.6208774140625,4.248744,8.5963774140625Q4.189598,8.5718784140625,4.126809,8.5593894140625Q4.0640194,8.5468994140625,4,8.5468994140625Q3.9359806,8.5468994140625,3.873191,8.5593894140625Q3.810402,8.5718784140625,3.751256,8.5963774140625Q3.69211,8.6208774140625,3.638879,8.6564444140625Q3.585649,8.6920114140625,3.540381,8.7372804140625Q3.4951119999999998,8.7825484140625,3.459545,8.8357784140625Q3.423978,8.8890094140625,3.399478,8.9481554140625Q3.3749789999999997,9.0073014140625,3.36249,9.0700904140625Q3.35,9.1328800140625,3.35,9.1968994140625L3.35,15.1968994140625Q3.35,16.0874694140625,3.9797226,16.7171894140625Q4.609439,17.3468994140625,5.5,17.3468994140625L14.5,17.3468994140625Q15.3906,17.3468994140625,16.0203,16.7171894140625Q16.65,16.0874694140625,16.65,15.1968994140625L16.65,9.1968994140625Q16.65,9.1328800140625,16.6375,9.0700904140625Q16.625,9.0073014140625,16.6005,8.9481554140625Q16.576,8.8890094140625,16.5405,8.8357784140625Q16.5049,8.7825484140625,16.459600000000002,8.7372804140625Q16.4143,8.6920114140625,16.3611,8.6564444140625Q16.3079,8.6208774140625,16.2487,8.5963774140625Q16.1896,8.5718784140625,16.1268,8.5593894140625Q16.064,8.5468994140625,16,8.5468994140625Q15.936,8.5468994140625,15.8732,8.5593894140625Q15.8104,8.5718784140625,15.7513,8.5963774140625Q15.6921,8.6208774140625,15.6389,8.6564444140625Q15.5856,8.6920114140625,15.5404,8.7372804140625Q15.4951,8.7825484140625,15.4595,8.8357784140625Q15.424,8.8890094140625,15.3995,8.9481554140625Q15.375,9.0073014140625,15.3625,9.0700904140625Q15.35,9.1328800140625,15.35,9.1968994140625L15.35,15.1968994140625Q15.35,15.5489994140625,15.101,15.7979494140625Q14.8521,16.0468994140625,14.5,16.0468994140625L5.5,16.0468994140625Q5.1479099999999995,16.0468994140625,4.898957,15.7979494140625Q4.65,15.5489894140625,4.65,15.1968994140625Z" fill-rule="evenodd" fill="#FFFFFF" fill-opacity="1"/></g></g></svg>