<svg t="1685451063377" class="icon" viewBox="0 0 1024 1024" version="1.1" xmlns="http://www.w3.org/2000/svg" p-id="1254" width="200" height="200"><path d="M0 0m256 0l512 0q256 0 256 256l0 512q0 256-256 256l-512 0q-256 0-256-256l0-512q0-256 256-256Z" fill="#000000" fill-opacity="0" p-id="1255"></path><path d="M358.4 785.92V551.36c0-21.568 17.152-39.04 38.272-39.04h230.016c21.12 0 38.4 17.472 38.4 39.04v234.56h114.944V396.032L512.064 244.16l-268.736 152.32v389.44H358.4zM166.592 434.24a38.784 38.784 0 0 1-37.376-29.248 39.68 39.68 0 0 1 18.176-44.288l345.088-195.456a37.76 37.76 0 0 1 38.336 0l344.96 195.392a39.424 39.424 0 0 1 18.88 44.416 38.528 38.528 0 0 1-38.016 29.056v390.784c0 21.632-17.152 39.104-38.272 39.104H205.056a38.016 38.016 0 0 1-27.136-11.456 39.424 39.424 0 0 1-11.264-27.648V434.176v0.064z m268.352 351.68h153.344V590.464H435.008v195.456z" fill="#000000" fill-opacity=".88" p-id="1256"></path></svg>