<svg xmlns="http://www.w3.org/2000/svg" xmlns:xlink="http://www.w3.org/1999/xlink" fill="none"
    version="1.1" width="12" height="12" viewBox="0 0 12 12">
    <defs>
        <clipPath id="master_svg0_3013_18061">
            <rect x="0" y="0" width="12" height="12" rx="0" />
        </clipPath>
    </defs>
    <g clip-path="url(#master_svg0_3013_18061)">
        <g transform="matrix(1,0,0,-1,0,22)">
            <path
                d="M0,11.652174L0,20.347830000000002C0,20.70801,0.268629,21,0.6,21C0.931371,21,1.2,20.70801,1.2,20.347830000000002L1.2,11.652174C1.2,11.291988,0.931371,11,0.6,11C0.268629,11,0,11.291988,0,11.652174Z"
                fill-rule="evenodd" fill="#8C8C8C" fill-opacity="1" />
        </g>
        <g transform="matrix(1,0,0,-1,0,22)">
            <path
                d="M10.7998046875,11.652174L10.7998046875,20.347830000000002C10.7998046875,20.70801,11.0684336875,21,11.3998046875,21C11.7311756875,21,11.9998046875,20.70801,11.9998046875,20.347830000000002L11.9998046875,11.652174C11.9998046875,11.291988,11.7311756875,11,11.3998046875,11C11.0684336875,11,10.7998046875,11.291988,10.7998046875,11.652174Z"
                fill-rule="evenodd" fill="#8C8C8C" fill-opacity="1" />
        </g>
        <g>
            <path
                d="M3.88086,4.128176583068847L2.106443,5.726628583068848C2.0383608,5.7986485830688475,2,5.897178583068848,2,6.000028583068848C2,6.1028885830688475,2.0383608,6.201418583068848,2.106443,6.273428583068847L3.88086,7.871848583068848C4.01081,8.029548583068848,4.2346699999999995,8.043628583068848,4.38086,7.903458583068847C4.4564699999999995,7.830958583068847,4.5,7.727108583068848,4.5,7.617988583068848L4.5,6.5999085830688475L7.5,6.5999085830688475L7.5,7.617988583068848C7.5,7.727108583068848,7.54353,7.830958583068847,7.61914,7.903458583068847C7.76533,8.043628583068848,7.98919,8.029548583068848,8.11914,7.871848583068848L9.89356,6.273428583068847C9.96164,6.201418583068848,10,6.1028885830688475,10,6.000028583068848C10,5.897178583068848,9.96164,5.7986485830688475,9.89356,5.726628583068848L8.11914,4.128176583068847C8.051929999999999,4.0466193830688475,7.95533,4.000017166138847,7.85417,4.000017166138847C7.65857,4.000017166138847,7.5,4.171053583068848,7.5,4.382038583068848L7.5,5.399908583068847L4.5,5.399908583068847L4.5,4.382038583068848C4.5,4.171053583068848,4.34143,4.000017166138847,4.14583,4.000017166138847C4.04467,4.000017166138847,3.94807,4.0466193830688475,3.88086,4.128176583068847Z"
                fill-rule="evenodd" fill="#8C8C8C" fill-opacity="1" />
        </g>
    </g>
</svg>