<svg data-v-cb91088a="" data-v-3844b174="" width="14" height="14" viewBox="8 9 14 14" version="1.1" xmlns="http://www.w3.org/2000/svg" xmlns:xlink="http://www.w3.org/1999/xlink" xmlns:xhtml="http://www.w3.org/1999/xhtml" preserveAspectRatio="xMinYMin meet" overflow="visible" style="background-color: transparent;"><g transform="translate(8,9)"><svg version="1.1" xmlns="http://www.w3.org/2000/svg" xmlns:xlink="http://www.w3.org/1999/xlink" xmlns:xhtml="http://www.w3.org/1999/xhtml" preserveAspectRatio="xMinYMin meet" overflow="hidden" width="14" height="14" x="0" y="0" viewBox="0 0 14 14"><clipPath id="clippath-artboard-5023"><path d="M 0 0 l 14 0 l 0 14 l -14 0 z" clip-rule="evenodd"/></clipPath><g clip-path="url(#clippath-artboard-5023)"><g style="transform:translate(7px,7px) rotate(-90deg) translate(-5px,-5px);"><path d="M 0.9999999999999998 0 L 9 0 C 9.552284749830793 0 10 0.44771525016920655 10 0.9999999999999998 L 10 9 C 10 9.552284749830793 9.552284749830793 10 9 10 L 0.9999999999999998 10 C 0.44771525016920655 10 0 9.552284749830793 0 9 L 0 0.9999999999999998 C 0 0.44771525016920655 0.44771525016920655 0 0.9999999999999998 0 Z" fill="none" stroke="rgba(140,140,140,1)" stroke-linejoin="miter" stroke-width="1"/></g><g style="transform:translate(9.482355835524686px,6.982138473429842px) rotate(-90deg) translate(-4.954958050375097px,-0.5px);"><path d="M 0 4.547473508864641e-13 L 9.909916100750195 -7.105427357601002e-14" fill="none" stroke="rgba(140,140,140,1)" stroke-linejoin="miter" stroke-width="1"/></g><g style="transform:translate(4.234260127384834px,6.545135965117879px) rotate(-90deg) translate(-0.5px,-2.1833611943901925px);"><path d="M 0 0 L 3.126388037344441e-13 4.366722388780385" fill="none" stroke="rgba(140,140,140,1)" stroke-linejoin="miter" stroke-width="1"/></g><g style="transform:translate(5.8601879984704865px,6.998823322437962px) rotate(-90deg) translate(-2.0041843338882277px,-0.8364764622516896px);"><path d="M -1.6787623113542068e-13 0.000032702087500061124 L 1.985859489822112 1.672952924503487 L 4.008368667776288 1.0872898921588184e-13" fill="none" stroke="rgba(140,140,140,1)" stroke-linejoin="miter" stroke-width="1"/></g></g></svg></g></svg>