<svg xmlns="http://www.w3.org/2000/svg" xmlns:xlink="http://www.w3.org/1999/xlink" fill="none" version="1.1" width="12" height="12" viewBox="0 0 12 12"><defs><clipPath id="master_svg0_2191_23421/2191_21959/2191_21706"><rect x="0" y="0" width="12" height="12" rx="0"/></clipPath></defs><g clip-path="url(#master_svg0_2191_23421/2191_21959/2191_21706)"><g><path d="M6.5512,10.205828125L11.5512,2.205827125Q11.6197,2.096187125,11.6411,1.968669125Q11.6624,1.841151425,11.6334,1.715169125Q11.6043,1.589187125,11.5292,1.483921125Q11.4541,1.378654125,11.3445,1.310129125Q11.2902,1.276199125,11.2303,1.2535121249999999Q11.1705,1.230825125,11.1073,1.2202531250000002Q11.0442,1.209680125,10.98021,1.211629125Q10.91622,1.2135791249999999,10.85384,1.227974125Q10.79146,1.242369125,10.73309,1.268658125Q10.67471,1.294946125,10.62259,1.332118125Q10.57047,1.3692891249999999,10.5266,1.415915125Q10.48273,1.462540125,10.4488,1.5168291250000001L6,8.634908124999999L1.551199,1.5168291250000001Q1.517269,1.462540125,1.4733990000000001,1.415915125Q1.42953,1.3692891249999999,1.377407,1.332118125Q1.325284,1.294946125,1.266912,1.268658125Q1.208539,1.242369125,1.146159,1.227974125Q1.0837787,1.2135791249999999,1.019789,1.211629125Q0.9557992,1.209680125,0.892659,1.2202531250000002Q0.829518,1.230825125,0.7696540000000001,1.2535121249999999Q0.709789,1.276199125,0.655501,1.310129125Q0.6012120000000001,1.344059125,0.5545869999999999,1.3879291249999999Q0.507961,1.431798125,0.47079000000000004,1.483921125Q0.43361799999999995,1.536044125,0.40732999999999997,1.594416125Q0.38104099999999996,1.652789125,0.366646,1.715169125Q0.352251,1.777549425,0.350301,1.841539125Q0.348352,1.905528925,0.35892500000000005,1.968669125Q0.36949699999999996,2.031810125,0.392184,2.091674125Q0.414871,2.151539125,0.448801,2.205827125L5.4488,10.205828125Q5.5283,10.333028125,5.6555,10.412528125Q5.76514,10.481048125,5.89266,10.502408125Q6.02018,10.523758125,6.14616,10.494688125Q6.27214,10.465608125,6.37741,10.390538125Q6.48267,10.315468125,6.5512,10.205828125Z" fill-rule="evenodd" fill="#808080" fill-opacity="1"/></g><g><path d="M6.00012625,3.211328125Q4.10766625,3.211328125,2.50566025,4.202506125Q2.45121925,4.236190125,2.40439425,4.279847125Q2.35757025,4.323504125,2.3201632500000002,4.375458125Q2.28275525,4.427412125,2.25620225,4.485665125Q2.22964925,4.543918125,2.21497125,4.606232125Q2.20029325,4.668546125,2.19805425,4.732526125Q2.19581525,4.796506125,2.20610025,4.859694125Q2.2163862500000002,4.922878125,2.23880125,4.982848125Q2.26121725,5.042818125,2.29490025,5.097258125Q2.36292725,5.207208125,2.46785225,5.282758125Q2.57277725,5.358298125,2.6986262500000002,5.387948125Q2.82447525,5.417588125,2.95208825,5.396818125Q3.07970225,5.3760481250000005,3.18965225,5.308018125Q4.47731625,4.511328125,6.00012625,4.511328125Q7.51448625,4.511328125,8.79721625,5.299768125Q8.907366249999999,5.367468125,9.03504625,5.387868125Q9.162716249999999,5.408268125,9.28847625,5.378248125Q9.41423625,5.348238125,9.518946249999999,5.2723781249999995Q9.62364625,5.196528125,9.691346249999999,5.0863781249999995Q9.72486625,5.031838125,9.74710625,4.971808125Q9.76934625,4.911768125,9.77944625,4.848554125Q9.78954625,4.785336125,9.78712625,4.721363125Q9.78469625,4.657389125,9.76983625,4.595119125Q9.75497625,4.532848125,9.72824625,4.474673125Q9.70152625,4.416498125,9.66396625,4.364655125Q9.626406249999999,4.312812125,9.57945625,4.269292125Q9.532496250000001,4.225772125,9.47795625,4.192249125Q7.88207625,3.211328125,6.00012625,3.211328125Z" fill-rule="evenodd" fill="#808080" fill-opacity="1"/></g></g></svg>