<svg xmlns="http://www.w3.org/2000/svg" xmlns:xlink="http://www.w3.org/1999/xlink" fill="none" version="1.1" width="16" height="16" viewBox="0 0 16 16"><defs><clipPath id="master_svg0_62_0419"><rect x="0" y="0" width="16" height="16" rx="0"/></clipPath></defs><g clip-path="url(#master_svg0_62_0419)"><g><path d="M2.89720609375,13.1029740234375Q5.01092609375,15.2166740234375,8.00016609375,15.2166740234375Q8.054336093749999,15.2166740234375,8.10746609375,15.2061740234375Q8.16059609375,15.1955740234375,8.21063609375,15.1748740234375Q8.26068609375,15.1540740234375,8.30572609375,15.1239740234375Q8.35076609375,15.0938740234375,8.389076093749999,15.0555740234375Q8.42737609375,15.0172740234375,8.45746609375,14.9722740234375Q8.48756609375,14.9272740234375,8.508296093750001,14.8771740234375Q8.52902609375,14.8271740234375,8.53959609375,14.7739740234375Q8.55016609375,14.7208740234375,8.55016609375,14.6666740234375Q8.55016609375,14.6125740234375,8.53959609375,14.5593740234375Q8.52902609375,14.5062740234375,8.508296093750001,14.4562740234375Q8.48756609375,14.4061740234375,8.45746609375,14.3611740234375Q8.42737609375,14.3160740234375,8.389076093749999,14.2777740234375Q8.35076609375,14.2394740234375,8.30572609375,14.2093740234375Q8.26068609375,14.1792740234375,8.21063609375,14.1585740234375Q8.16059609375,14.1378740234375,8.10746609375,14.1272740234375Q8.054336093749999,14.1166740234375,8.00016609375,14.1166740234375Q5.46656609375,14.1166740234375,3.67502609375,12.3251740234375Q1.88349609375,10.5336240234375,1.88349609375,8.0000440234375Q1.88349609375,5.4664340234375,3.67502609375,3.6749040234375Q5.46655609375,1.8833730234375001,8.00016609375,1.8833740234375Q10.53374609375,1.8833740234375,12.32529609375,3.6749040234375Q14.11679609375,5.4664440234375,14.11679609375,8.0000440234375Q14.11679609375,8.054214023437499,14.12739609375,8.1073440234375Q14.13799609375,8.1604740234375,14.15869609375,8.2105140234375Q14.17939609375,8.2605640234375,14.20949609375,8.3056040234375Q14.23959609375,8.3506440234375,14.27789609375,8.388954023437499Q14.31619609375,8.4272540234375,14.36129609375,8.4573440234375Q14.40629609375,8.4874440234375,14.45639609375,8.508174023437501Q14.50639609375,8.5289040234375,14.55949609375,8.5394740234375Q14.61269609375,8.5500440234375,14.66679609375,8.5500440234375Q14.72099609375,8.5500440234375,14.77409609375,8.5394740234375Q14.82729609375,8.5289040234375,14.87729609375,8.508174023437501Q14.92739609375,8.4874440234375,14.97239609375,8.4573440234375Q15.01739609375,8.4272540234375,15.05569609375,8.388954023437499Q15.09399609375,8.3506440234375,15.12409609375,8.3056040234375Q15.15419609375,8.2605640234375,15.17499609375,8.2105140234375Q15.19569609375,8.1604740234375,15.20629609375,8.1073440234375Q15.21679609375,8.054214023437499,15.21679609375,8.0000440234375Q15.21679609375,5.0108040234375,13.10309609375,2.8970840234375Q10.98938609375,0.7833740234375,8.00016609375,0.7833740234375Q5.01091609375,0.7833740234375,2.89720609375,2.8970840234375Q0.78349609375,5.0107940234375,0.78349609375,8.0000440234375Q0.78349609375,10.9892640234375,2.89720609375,13.1029740234375Z" fill-rule="evenodd" fill="currentColor" fill-opacity="1"/></g><g><path d="M8.228482906250001,1.6988329375Q8.11650390625,1.5513709375,8.11650390625,1.3662109375Q8.11650390625,1.3120406375,8.12707190625,1.2589109375Q8.13763990625,1.2057819375,8.15836990625,1.1557349375000001Q8.17909990625,1.1056879375,8.20919590625,1.0606469375Q8.23929090625,1.0156059375,8.27759490625,0.9773019375Q8.31589890625,0.9389979374999999,8.36093990625,0.9089029375Q8.40598090625,0.8788069375,8.45602790625,0.8580769375Q8.50607490625,0.8373469375,8.55920390625,0.8267789375Q8.61233360625,0.8162109375,8.66650390625,0.8162109375Q8.79547490625,0.8162109375,8.91100090625,0.8735439375Q9.02652790625,0.9308759375,9.104524906249999,1.0335889375Q11.21650390625,3.8148009375,11.21650390625,7.9999309375Q11.21650390625,8.0541009375,11.20593390625,8.107230937499999Q11.19536390625,8.1603609375,11.17463390625,8.2104109375Q11.153903906250001,8.2604509375,11.12381390625,8.3054909375Q11.09371390625,8.3505309375,11.05541390625,8.3888409375Q11.01710390625,8.427140937499999,10.97206390625,8.4572409375Q10.92702390625,8.487330937500001,10.87698390625,8.5080609375Q10.82693390625,8.5287909375,10.77380390625,8.5393609375Q10.72067390625,8.549930937500001,10.66650390625,8.549930937500001Q10.61233390625,8.549930937500001,10.55920390625,8.5393609375Q10.50607390625,8.5287909375,10.45602390625,8.5080609375Q10.40598390625,8.487330937500001,10.36094390625,8.4572409375Q10.31590390625,8.427140937499999,10.27759390625,8.3888409375Q10.23929390625,8.3505309375,10.20919390625,8.3054909375Q10.179103906249999,8.2604509375,10.15837390625,8.2104109375Q10.13764390625,8.1603609375,10.12707390625,8.107230937499999Q10.11650390625,8.0541009375,10.11650390625,7.9999309375Q10.11650390625,4.1851209375,8.228482906250001,1.6988329375Z" fill-rule="evenodd" fill="currentColor" fill-opacity="1"/></g><g><path d="M7.77151609375,1.6988329375Q7.88349609375,1.5513709375,7.88349609375,1.3662109375Q7.88349609375,1.3120406375,7.872926093749999,1.2589109375Q7.86235609375,1.2057819375,7.8416260937499995,1.1557349375000001Q7.82089609375,1.1056879375,7.79080609375,1.0606469375Q7.7607060937500005,1.0156059375,7.72240609375,0.9773019375Q7.68409609375,0.9389979374999999,7.63905609375,0.9089029375Q7.59401609375,0.8788069375,7.5439760937500004,0.8580769375Q7.49392609375,0.8373469375,7.44079609375,0.8267789375Q7.38766609375,0.8162109375,7.33349609375,0.8162109375Q7.20452609375,0.8162109375,7.08899609375,0.8735439375Q6.9734760937499995,0.9308759375,6.89547609375,1.0335889375Q4.78349609375,3.8148009375,4.78349609375,7.9999309375Q4.78349609375,12.1851109375,6.89547609375,14.9663109375Q6.97346609375,15.0691109375,7.08899609375,15.1264109375Q7.20452609375,15.1837109375,7.33349609375,15.1837109375Q7.38766609375,15.1837109375,7.44079609375,15.1732109375Q7.49392609375,15.1626109375,7.5439760937500004,15.1419109375Q7.59401609375,15.1211109375,7.63905609375,15.0910109375Q7.68409609375,15.0609109375,7.72240609375,15.0226109375Q7.7607060937500005,14.9843109375,7.79080609375,14.9393109375Q7.82089609375,14.8942109375,7.8416260937499995,14.8442109375Q7.86235609375,14.7941109375,7.872926093749999,14.7410109375Q7.88349609375,14.6879109375,7.88349609375,14.6337109375Q7.88349609375,14.4486109375,7.77151609375,14.3011109375Q5.88349609375,11.8148109375,5.88349609375,7.9999309375Q5.88349509375,4.1851209375,7.77151609375,1.6988329375Z" fill-rule="evenodd" fill="currentColor" fill-opacity="1"/></g><g><path d="M1.7529296875,9.7833740234375L7.9998396875,9.7833740234375Q8.054009687499999,9.7833740234375,8.1071396875,9.7939420234375Q8.1602596875,9.8045100234375,8.2103096875,9.8252400234375Q8.2603596875,9.8459700234375,8.3053996875,9.8760660234375Q8.3504396875,9.9061610234375,8.388749687499999,9.9444650234375Q8.4270496875,9.9827690234375,8.4571396875,10.0278100234375Q8.4872396875,10.0728510234375,8.507969687500001,10.1228980234375Q8.5286996875,10.1729450234375,8.5392696875,10.2260740234375Q8.5498396875,10.2792037234375,8.5498396875,10.3333740234375Q8.5498396875,10.3875443234375,8.5392696875,10.4406740234375Q8.5286996875,10.4938030234375,8.507969687500001,10.5438500234375Q8.4872396875,10.5938970234375,8.4571396875,10.6389380234375Q8.4270496875,10.6839790234375,8.388749687499999,10.7222830234375Q8.3504396875,10.7605870234375,8.3053996875,10.7906820234375Q8.2603596875,10.8207780234375,8.2103096875,10.8415080234375Q8.1602596875,10.8622380234375,8.1071396875,10.8728060234375Q8.054009687499999,10.8833740234375,7.9998396875,10.8833740234375L1.7529296875,10.8833740234375Q1.6987593875,10.8833740234375,1.6456296875,10.8728060234375Q1.5925006875,10.8622380234375,1.5424536875000001,10.8415080234375Q1.4924066875,10.8207780234375,1.4473656875,10.7906820234375Q1.4023246875,10.7605870234375,1.3640206875,10.7222830234375Q1.3257166875,10.6839790234375,1.2956216875,10.6389380234375Q1.2655256875,10.5938970234375,1.2447956875,10.5438500234375Q1.2240656875,10.4938030234375,1.2134976874999999,10.4406740234375Q1.2029296875,10.3875443234375,1.2029296875,10.3333740234375Q1.2029296875,10.2792037234375,1.2134976874999999,10.2260740234375Q1.2240656875,10.1729450234375,1.2447956875,10.1228980234375Q1.2655256875,10.0728510234375,1.2956216875,10.0278100234375Q1.3257166875,9.9827690234375,1.3640206875,9.9444650234375Q1.4023246875,9.9061610234375,1.4473656875,9.8760660234375Q1.4924066875,9.8459700234375,1.5424536875000001,9.8252400234375Q1.5925006875,9.8045100234375,1.6456296875,9.7939420234375Q1.6987593875,9.7833740234375,1.7529296875,9.7833740234375Z" fill-rule="evenodd" fill="currentColor" fill-opacity="1"/></g><g><path d="M1.7529296875,5.1166259765625L14.2467296875,5.1166259765625Q14.3009296875,5.1166259765625,14.3540296875,5.1271939765625Q14.4072296875,5.1377619765624996,14.4572296875,5.1584919765625Q14.5073296875,5.1792219765625,14.5523296875,5.2093179765625Q14.5973296875,5.2394129765625,14.6356296875,5.2777169765625Q14.6740296875,5.3160209765625,14.7040296875,5.3610619765625Q14.7341296875,5.4061029765625,14.7549296875,5.4561499765625Q14.7756296875,5.5061969765625,14.7862296875,5.5593259765625Q14.7967296875,5.6124556765625,14.7967296875,5.6666259765625Q14.7967296875,5.7207962765625,14.7862296875,5.7739259765625Q14.7756296875,5.8270549765625,14.7549296875,5.8771019765625Q14.7341296875,5.9271489765625,14.7040296875,5.9721899765625Q14.6740296875,6.0172309765625,14.6356296875,6.0555349765625Q14.5973296875,6.0938389765625,14.5523296875,6.1239339765625Q14.5073296875,6.1540299765625,14.4572296875,6.1747599765625Q14.4072296875,6.1954899765625004,14.3540296875,6.2060579765625Q14.3009296875,6.2166259765625,14.2467296875,6.2166259765625L1.7529296875,6.2166259765625Q1.6987593875,6.2166259765625,1.6456296875,6.2060579765625Q1.5925006875,6.1954899765625004,1.5424536875000001,6.1747599765625Q1.4924066875,6.1540299765625,1.4473656875,6.1239339765625Q1.4023246875,6.0938389765625,1.3640206875,6.0555349765625Q1.3257166875,6.0172309765625,1.2956216875,5.9721899765625Q1.2655256875,5.9271489765625,1.2447956875,5.8771019765625Q1.2240656875,5.8270549765625,1.2134976874999999,5.7739259765625Q1.2029296875,5.7207962765625,1.2029296875,5.6666259765625Q1.2029296875,5.6124556765625,1.2134976874999999,5.5593259765625Q1.2240656875,5.5061969765625,1.2447956875,5.4561499765625Q1.2655256875,5.4061029765625,1.2956216875,5.3610619765625Q1.3257166875,5.3160209765625,1.3640206875,5.2777169765625Q1.4023246875,5.2394129765625,1.4473656875,5.2093179765625Q1.4924066875,5.1792219765625,1.5424536875000001,5.1584919765625Q1.5925006875,5.1377619765624996,1.6456296875,5.1271939765625Q1.6987593875,5.1166259765625,1.7529296875,5.1166259765625Z" fill-rule="evenodd" fill="currentColor" fill-opacity="1"/></g><g><path d="M11.32861771875,9.2956340859375L11.32854371875,9.2955890859375Q10.81219671875,8.9778800859375,10.34587071875,9.3044180859375Q9.87958871875,9.6309262859375,10.00146171875,10.2248270859375L10.83833471875,14.302198085937501Q10.96146771875,14.9019180859375,11.53241171875,15.0835580859375Q11.82148171875,15.175518085937501,12.09391171875,15.0814380859375Q12.41428171875,14.970808085937499,12.56932171875,14.659368085937501L13.20351171875,13.385538085937501L14.61749171875,13.2252780859375Q14.96317171875,13.1860580859375,15.17667171875,12.9228580859375Q15.358251718750001,12.699028085937499,15.37070171875,12.395958085937501Q15.39530171875,11.7972480859375,14.87381171875,11.4765180859375L11.32861771875,9.2956340859375ZM11.17998271875,10.4956720859375L11.83197171875,13.6722680859375L12.35207171875,12.6275880859375Q12.38275171875,12.5659680859375,12.42767171875,12.5138180859375Q12.47258171875,12.4616580859375,12.52896171875,12.4221780859375Q12.585351718750001,12.3826980859375,12.64972171875,12.3583280859375Q12.71409171875,12.3339580859375,12.78249171875,12.3262080859375L13.94202171875,12.1947880859375L11.17998271875,10.4956720859375Z" fill-rule="evenodd" fill="currentColor" fill-opacity="1"/></g></g></svg>