<svg xmlns="http://www.w3.org/2000/svg" xmlns:xlink="http://www.w3.org/1999/xlink" fill="none" version="1.1" width="20" height="20" viewBox="0 0 20 20"><defs><clipPath id="master_svg0_39_783"><rect x="0" y="0" width="20" height="20" rx="0"/></clipPath></defs><g clip-path="url(#master_svg0_39_783)"><g><rect x="7.5" y="7.5" width="5" height="5" rx="0" fill="#D8D8D8" fill-opacity="1"/></g><g><path d="M16.9,11.25L16.9,13.75Q16.9,13.80909,16.91153,13.867049999999999Q16.92306,13.92501,16.94567,13.979610000000001Q16.96829,14.03421,17.00112,14.08334Q17.03395,14.132480000000001,17.07574,14.17426Q17.11752,14.21605,17.16666,14.24888Q17.21579,14.28171,17.27039,14.30433Q17.32499,14.32694,17.38295,14.338470000000001Q17.44091,14.35,17.5,14.35Q17.55909,14.35,17.61705,14.338470000000001Q17.67501,14.32694,17.72961,14.30433Q17.78421,14.28171,17.83334,14.24888Q17.88248,14.21605,17.92426,14.17426Q17.96605,14.132480000000001,17.99888,14.08334Q18.03171,14.03421,18.05433,13.979610000000001Q18.07694,13.92501,18.08847,13.867049999999999Q18.1,13.80909,18.1,13.75L18.1,11.25Q18.1,11.1909052,18.08847,11.132946Q18.07694,11.074985999999999,18.05433,11.02039Q18.03171,10.965793,17.99888,10.916658Q17.96605,10.867522,17.92426,10.825736Q17.88248,10.78395,17.83334,10.751118Q17.78421,10.718287,17.72961,10.695672Q17.67501,10.673058,17.61705,10.661529Q17.55909,10.65,17.5,10.65Q17.44091,10.65,17.38295,10.661529Q17.32499,10.673058,17.27039,10.695672Q17.21579,10.718287,17.16666,10.751118Q17.11752,10.78395,17.07574,10.825736Q17.03395,10.867522,17.00112,10.916658Q16.96829,10.965793,16.94567,11.02039Q16.92306,11.074985999999999,16.91153,11.132946Q16.9,11.1909052,16.9,11.25ZM11.25,18.1L13.75,18.1Q13.80909,18.1,13.867049999999999,18.08847Q13.92501,18.07694,13.979610000000001,18.05433Q14.03421,18.03171,14.08334,17.99888Q14.132480000000001,17.96605,14.17426,17.92426Q14.21605,17.88248,14.24888,17.83334Q14.28171,17.78421,14.30433,17.72961Q14.32694,17.67501,14.338470000000001,17.61705Q14.35,17.55909,14.35,17.5Q14.35,17.44091,14.338470000000001,17.38295Q14.32694,17.32499,14.30433,17.27039Q14.28171,17.21579,14.24888,17.16666Q14.21605,17.11752,14.17426,17.07574Q14.132480000000001,17.03395,14.08334,17.00112Q14.03421,16.96829,13.979610000000001,16.94567Q13.92501,16.92306,13.867049999999999,16.91153Q13.80909,16.9,13.75,16.9L11.25,16.9Q11.1909052,16.9,11.132946,16.91153Q11.074985999999999,16.92306,11.02039,16.94567Q10.965793,16.96829,10.916658,17.00112Q10.867522,17.03395,10.825736,17.07574Q10.78395,17.11752,10.751118,17.16666Q10.718287,17.21579,10.695672,17.27039Q10.673058,17.32499,10.661529,17.38295Q10.65,17.44091,10.65,17.5Q10.65,17.55909,10.661529,17.61705Q10.673058,17.67501,10.695672,17.72961Q10.718287,17.78421,10.751118,17.83334Q10.78395,17.88248,10.825736,17.92426Q10.867522,17.96605,10.916658,17.99888Q10.965793,18.03171,11.02039,18.05433Q11.074985999999999,18.07694,11.132946,18.08847Q11.1909052,18.1,11.25,18.1Z" fill-rule="evenodd" fill="#FFFFFF" fill-opacity="1"/></g><g><path d="M6.9,8L6.9,13.75Q6.9,13.809090000000001,6.911529,13.867049999999999Q6.923058,13.92501,6.945672,13.979610000000001Q6.968287,14.03421,7.001118,14.08334Q7.03395,14.132480000000001,7.075736,14.17426Q7.117522,14.21605,7.166658,14.24888Q7.215793,14.28171,7.27039,14.30433Q7.324986,14.32694,7.382946,14.338470000000001Q7.4409051999999996,14.35,7.5,14.35Q7.5590948000000004,14.35,7.617054,14.338470000000001Q7.675014,14.32694,7.72961,14.30433Q7.784207,14.28171,7.833342,14.24888Q7.882478,14.21605,7.924264,14.17426Q7.96605,14.132480000000001,7.998882,14.08334Q8.031713,14.03421,8.054328,13.979610000000001Q8.076942,13.92501,8.088471,13.867049999999999Q8.1,13.809090000000001,8.1,13.75L8.1,8.1L13.75,8.1Q13.809090000000001,8.1,13.867049999999999,8.088471Q13.92501,8.076942,13.979610000000001,8.054328Q14.03421,8.031713,14.08334,7.998882Q14.132480000000001,7.96605,14.17426,7.924264Q14.21605,7.882478,14.24888,7.833342Q14.28171,7.784207,14.30433,7.72961Q14.32694,7.675014,14.338470000000001,7.617054Q14.35,7.5590948000000004,14.35,7.5Q14.35,7.4409051999999996,14.338470000000001,7.382946Q14.32694,7.324986,14.30433,7.27039Q14.28171,7.215793,14.24888,7.166658Q14.21605,7.117522,14.17426,7.075736Q14.132480000000001,7.03395,14.08334,7.001118Q14.03421,6.968287,13.979610000000001,6.945672Q13.92501,6.923058,13.867049999999999,6.911529Q13.809090000000001,6.9,13.75,6.9L8,6.9Q7.5443658,6.9,7.222183,7.222183Q6.9,7.5443657,6.9,8Z" fill-rule="evenodd" fill="#FFFFFF" fill-opacity="1"/></g><g><path d="M6.9,16.25Q6.9,16.1909052,6.911529,16.132946Q6.923058,16.074986,6.945672,16.02039Q6.968287,15.965793,7.001118,15.916658Q7.03395,15.867522,7.075736,15.825736Q7.117522,15.78395,7.166658,15.751118Q7.215793,15.718287,7.27039,15.695672Q7.324986,15.673058,7.382946,15.661529Q7.4409051999999996,15.65,7.5,15.65Q7.5590948000000004,15.65,7.617054,15.661529Q7.675014,15.673058,7.72961,15.695672Q7.784207,15.718287,7.833342,15.751118Q7.882478,15.78395,7.924264,15.825736Q7.96605,15.867522,7.998882,15.916658Q8.031713,15.965793,8.054328,16.02039Q8.076942,16.074986,8.088471,16.132946Q8.1,16.1909052,8.1,16.25L8.1,16.9L8.75,16.9Q8.80909,16.9,8.86705,16.911529Q8.92501,16.923058,8.979610000000001,16.945672Q9.03421,16.968287,9.08334,17.001117999999998Q9.13248,17.033949,9.17426,17.075736Q9.21605,17.117522,9.24888,17.166657999999998Q9.28171,17.215793,9.30433,17.27039Q9.32694,17.32499,9.338470000000001,17.38295Q9.35,17.44091,9.35,17.5Q9.35,17.55909,9.338470000000001,17.61705Q9.32694,17.67501,9.30433,17.72961Q9.28171,17.78421,9.24888,17.83334Q9.21605,17.88248,9.17426,17.92426Q9.13248,17.96605,9.08334,17.99888Q9.03421,18.03171,8.979610000000001,18.05433Q8.92501,18.07694,8.86705,18.08847Q8.80909,18.1,8.75,18.1L8,18.1Q7.5443675,18.1,7.22219,17.77783Q6.9,17.45565,6.9,17L6.9,16.25Z" fill-rule="evenodd" fill="#FFFFFF" fill-opacity="1"/></g><g><path d="M16.9,16.25Q16.9,16.1909052,16.911529,16.132946Q16.923058,16.074986,16.945672,16.02039Q16.968287,15.965793,17.001117999999998,15.916658Q17.033949,15.867522,17.075736,15.825736Q17.117522,15.78395,17.166657999999998,15.751118Q17.215793,15.718287,17.27039,15.695672Q17.32499,15.673058,17.38295,15.661529Q17.44091,15.65,17.5,15.65Q17.55909,15.65,17.61705,15.661529Q17.67501,15.673058,17.72961,15.695672Q17.78421,15.718287,17.83334,15.751118Q17.88248,15.78395,17.92426,15.825736Q17.96605,15.867522,17.99888,15.916658Q18.03171,15.965793,18.05433,16.02039Q18.07694,16.074986,18.08847,16.132946Q18.1,16.1909052,18.1,16.25L18.1,17Q18.1,17.45565,17.77783,17.77783Q17.45565,18.1,17,18.1L16.25,18.1Q16.1909052,18.1,16.132946,18.08847Q16.074986,18.07694,16.02039,18.05433Q15.965793,18.03171,15.916658,17.99888Q15.867522,17.96605,15.825736,17.92426Q15.78395,17.88248,15.751118,17.83334Q15.718287,17.78421,15.695672,17.72961Q15.673058,17.67501,15.661529,17.61705Q15.65,17.55909,15.65,17.5Q15.65,17.44091,15.661529,17.38295Q15.673058,17.32499,15.695672,17.27039Q15.718287,17.215793,15.751118,17.166657999999998Q15.78395,17.117522,15.825736,17.075736Q15.867522,17.033949,15.916658,17.001117999999998Q15.965793,16.968287,16.02039,16.945672Q16.074986,16.923058,16.132946,16.911529Q16.1909052,16.9,16.25,16.9L16.9,16.9L16.9,16.25Z" fill-rule="evenodd" fill="#FFFFFF" fill-opacity="1"/></g><g><path d="M16.25,6.9L17,6.9Q17.45565,6.9,17.77783,7.22219Q18.1,7.5443675,18.1,8L18.1,8.75Q18.1,8.80909,18.08847,8.86705Q18.07694,8.92501,18.05433,8.979610000000001Q18.03171,9.03421,17.99888,9.08334Q17.96605,9.13248,17.92426,9.17426Q17.88248,9.21605,17.83334,9.24888Q17.78421,9.28171,17.72961,9.30433Q17.67501,9.32694,17.61705,9.338470000000001Q17.55909,9.35,17.5,9.35Q17.44091,9.35,17.38295,9.338470000000001Q17.32499,9.32694,17.27039,9.30433Q17.215793,9.28171,17.166657999999998,9.24888Q17.117522,9.21605,17.075736,9.17426Q17.033949,9.13248,17.001117999999998,9.08334Q16.968287,9.03421,16.945672,8.979610000000001Q16.923058,8.92501,16.911529,8.86705Q16.9,8.80909,16.9,8.75L16.9,8.1L16.25,8.1Q16.1909052,8.1,16.132946,8.088471Q16.074986,8.076942,16.02039,8.054328Q15.965793,8.031713,15.916658,7.998882Q15.867522,7.96605,15.825736,7.924264Q15.78395,7.882478,15.751118,7.833342Q15.718287,7.784207,15.695672,7.72961Q15.673058,7.675014,15.661529,7.617054Q15.65,7.5590948000000004,15.65,7.5Q15.65,7.4409051999999996,15.661529,7.382946Q15.673058,7.324986,15.695672,7.27039Q15.718287,7.215793,15.751118,7.166658Q15.78395,7.117522,15.825736,7.075736Q15.867522,7.03395,15.916658,7.001118Q15.965793,6.968287,16.02039,6.945672Q16.074986,6.923058,16.132946,6.911529Q16.1909052,6.9,16.25,6.9Z" fill-rule="evenodd" fill="#FFFFFF" fill-opacity="1"/></g><g><path d="M6.25,3.1L8.75,3.1Q8.809090000000001,3.1,8.867049999999999,3.088471Q8.92501,3.076942,8.979610000000001,3.054328Q9.03421,3.031713,9.08334,2.998882Q9.132480000000001,2.96605,9.17426,2.924264Q9.21605,2.882478,9.24888,2.833342Q9.28171,2.784207,9.30433,2.72961Q9.32694,2.675014,9.338470000000001,2.617054Q9.35,2.5590948,9.35,2.5Q9.35,2.4409052,9.338470000000001,2.382946Q9.32694,2.324986,9.30433,2.27039Q9.28171,2.215793,9.24888,2.166658Q9.21605,2.117522,9.17426,2.075736Q9.132480000000001,2.03395,9.08334,2.001118Q9.03421,1.9682870000000001,8.979610000000001,1.945672Q8.92501,1.9230580000000002,8.867049999999999,1.911529Q8.809090000000001,1.9,8.75,1.9L6.25,1.9Q6.1909,1.9,6.13295,1.911529Q6.07499,1.9230580000000002,6.02039,1.945672Q5.96579,1.9682870000000001,5.91666,2.001118Q5.86752,2.03395,5.82574,2.075736Q5.78395,2.117522,5.75112,2.166658Q5.71829,2.215793,5.69567,2.27039Q5.6730599999999995,2.324986,5.66153,2.382946Q5.65,2.4409052,5.65,2.5Q5.65,2.5590948,5.66153,2.617054Q5.6730599999999995,2.675014,5.69567,2.72961Q5.71829,2.784207,5.75112,2.833342Q5.78395,2.882478,5.82574,2.924264Q5.86752,2.96605,5.91666,2.998882Q5.96579,3.031713,6.02039,3.054328Q6.07499,3.076942,6.13295,3.088471Q6.1909,3.1,6.25,3.1ZM3.1,8.75L3.1,6.25Q3.1,6.1909,3.088471,6.13295Q3.076942,6.07499,3.054328,6.02039Q3.031713,5.96579,2.998882,5.91666Q2.96605,5.86752,2.924264,5.82574Q2.882478,5.78395,2.833342,5.75112Q2.784207,5.71829,2.72961,5.69567Q2.675014,5.6730599999999995,2.617054,5.66153Q2.5590948,5.65,2.5,5.65Q2.4409052,5.65,2.382946,5.66153Q2.324986,5.6730599999999995,2.27039,5.69567Q2.215793,5.71829,2.166658,5.75112Q2.117522,5.78395,2.075736,5.82574Q2.03395,5.86752,2.001118,5.91666Q1.9682870000000001,5.96579,1.945672,6.02039Q1.9230580000000002,6.07499,1.911529,6.13295Q1.9,6.1909,1.9,6.25L1.9,8.75Q1.9,8.809090000000001,1.911529,8.867049999999999Q1.9230580000000002,8.92501,1.945672,8.979610000000001Q1.9682870000000001,9.03421,2.001118,9.08334Q2.03395,9.132480000000001,2.075736,9.17426Q2.117522,9.21605,2.166658,9.24888Q2.215793,9.28171,2.27039,9.30433Q2.324986,9.32694,2.382946,9.338470000000001Q2.4409052,9.35,2.5,9.35Q2.5590948,9.35,2.617054,9.338470000000001Q2.675014,9.32694,2.72961,9.30433Q2.784207,9.28171,2.833342,9.24888Q2.882478,9.21605,2.924264,9.17426Q2.96605,9.132480000000001,2.998882,9.08334Q3.031713,9.03421,3.054328,8.979610000000001Q3.076942,8.92501,3.088471,8.867049999999999Q3.1,8.809090000000001,3.1,8.75Z" fill-rule="evenodd" fill="#FFFFFF" fill-opacity="1"/></g><g><path d="M13.1,6.25L13.1,12Q13.1,12.45565,12.77783,12.77783Q12.45565,13.1,12,13.1L6.25,13.1Q6.1909051999999996,13.1,6.132946,13.088470000000001Q6.074986,13.07694,6.02039,13.05433Q5.965793,13.03171,5.916658,12.99888Q5.867522,12.96605,5.825736,12.92426Q5.78395,12.882480000000001,5.751118,12.83334Q5.718287,12.78421,5.695672,12.729610000000001Q5.673058,12.67501,5.661529,12.617049999999999Q5.65,12.559090000000001,5.65,12.5Q5.65,12.440909999999999,5.661529,12.382950000000001Q5.673058,12.32499,5.695672,12.270389999999999Q5.718287,12.21579,5.751118,12.16666Q5.78395,12.117519999999999,5.825736,12.07574Q5.867522,12.03395,5.916658,12.00112Q5.965793,11.96829,6.02039,11.94567Q6.074986,11.92306,6.132946,11.911529999999999Q6.1909051999999996,11.9,6.25,11.9L11.9,11.9L11.9,6.25Q11.9,6.1909051999999996,11.911529999999999,6.132946Q11.92306,6.074986,11.94567,6.02039Q11.96829,5.965793,12.00112,5.916658Q12.03395,5.867522,12.07574,5.825736Q12.117519999999999,5.78395,12.16666,5.751118Q12.21579,5.718287,12.270389999999999,5.695672Q12.32499,5.673058,12.382950000000001,5.661529Q12.440909999999999,5.65,12.5,5.65Q12.559090000000001,5.65,12.617049999999999,5.661529Q12.67501,5.673058,12.729610000000001,5.695672Q12.78421,5.718287,12.83334,5.751118Q12.882480000000001,5.78395,12.92426,5.825736Q12.96605,5.867522,12.99888,5.916658Q13.03171,5.965793,13.05433,6.02039Q13.07694,6.074986,13.088470000000001,6.132946Q13.1,6.1909051999999996,13.1,6.25Z" fill-rule="evenodd" fill="#FFFFFF" fill-opacity="1"/></g><g><path d="M1.9,11.25Q1.9,11.1909052,1.911529,11.132946Q1.9230580000000002,11.074985999999999,1.945672,11.02039Q1.9682870000000001,10.965793,2.001118,10.916658Q2.03395,10.867522,2.075736,10.825736Q2.117522,10.78395,2.166658,10.751118Q2.215793,10.718287,2.27039,10.695672Q2.324986,10.673058,2.382946,10.661529Q2.4409052,10.65,2.5,10.65Q2.5590948,10.65,2.617054,10.661529Q2.675014,10.673058,2.72961,10.695672Q2.784207,10.718287,2.833342,10.751118Q2.882478,10.78395,2.924264,10.825736Q2.96605,10.867522,2.998882,10.916658Q3.031713,10.965793,3.054328,11.02039Q3.076942,11.074985999999999,3.088471,11.132946Q3.1,11.1909052,3.1,11.25L3.1,11.9L3.75,11.9Q3.8090900000000003,11.9,3.86705,11.911529Q3.9250100000000003,11.923058,3.97961,11.945672Q4.03421,11.968287,4.08334,12.001118Q4.13248,12.033949,4.17426,12.075736Q4.21605,12.117522,4.24888,12.166658Q4.28171,12.215793,4.30433,12.270389999999999Q4.3269400000000005,12.32499,4.33847,12.38295Q4.35,12.44091,4.35,12.5Q4.35,12.55909,4.33847,12.61705Q4.3269400000000005,12.67501,4.30433,12.729610000000001Q4.28171,12.78421,4.24888,12.83334Q4.21605,12.88248,4.17426,12.92426Q4.13248,12.96605,4.08334,12.99888Q4.03421,13.03171,3.97961,13.05433Q3.9250100000000003,13.07694,3.86705,13.088470000000001Q3.8090900000000003,13.1,3.75,13.1L3,13.1Q2.5443675,13.1,2.22219,12.77783Q1.9,12.45565,1.9,12L1.9,11.25Z" fill-rule="evenodd" fill="#FFFFFF" fill-opacity="1"/></g><g><path d="M3.1,3.1L3.75,3.1Q3.8090900000000003,3.1,3.86705,3.088471Q3.9250100000000003,3.076942,3.97961,3.054328Q4.03421,3.031713,4.08334,2.998882Q4.13248,2.96605,4.17426,2.924264Q4.21605,2.882478,4.24888,2.833342Q4.28171,2.784207,4.30433,2.72961Q4.3269400000000005,2.675014,4.33847,2.617054Q4.35,2.5590948,4.35,2.5Q4.35,2.4409052,4.33847,2.382946Q4.3269400000000005,2.324986,4.30433,2.27039Q4.28171,2.215793,4.24888,2.166658Q4.21605,2.117522,4.17426,2.075736Q4.13248,2.03395,4.08334,2.001118Q4.03421,1.9682870000000001,3.97961,1.945672Q3.9250100000000003,1.9230580000000002,3.86705,1.911529Q3.8090900000000003,1.9,3.75,1.9L3,1.9Q2.5443655,1.9,2.2221830000000002,2.2221830000000002Q1.9,2.5443656,1.9,3L1.9,3.75Q1.9,3.8090900000000003,1.911529,3.86705Q1.9230580000000002,3.9250100000000003,1.945672,3.97961Q1.9682870000000001,4.03421,2.001118,4.08334Q2.03395,4.13248,2.075736,4.17426Q2.117522,4.21605,2.166658,4.24888Q2.215793,4.28171,2.27039,4.30433Q2.324986,4.3269400000000005,2.382946,4.33847Q2.4409052,4.35,2.5,4.35Q2.5590948,4.35,2.617054,4.33847Q2.675014,4.3269400000000005,2.72961,4.30433Q2.784207,4.28171,2.833342,4.24888Q2.882478,4.21605,2.924264,4.17426Q2.96605,4.13248,2.998882,4.08334Q3.031713,4.03421,3.054328,3.97961Q3.076942,3.9250100000000003,3.088471,3.86705Q3.1,3.8090900000000003,3.1,3.75L3.1,3.1Z" fill-rule="evenodd" fill="#FFFFFF" fill-opacity="1"/></g><g><path d="M11.25,1.9L12,1.9Q12.45565,1.9,12.77783,2.22219Q13.1,2.5443675,13.1,3L13.1,3.75Q13.1,3.8090900000000003,13.088470000000001,3.86705Q13.07694,3.9250100000000003,13.05433,3.97961Q13.03171,4.03421,12.99888,4.08334Q12.96605,4.13248,12.92426,4.17426Q12.88248,4.21605,12.83334,4.24888Q12.78421,4.28171,12.729610000000001,4.30433Q12.67501,4.3269400000000005,12.61705,4.33847Q12.55909,4.35,12.5,4.35Q12.44091,4.35,12.38295,4.33847Q12.32499,4.3269400000000005,12.270389999999999,4.30433Q12.215793,4.28171,12.166658,4.24888Q12.117522,4.21605,12.075736,4.17426Q12.033949,4.13248,12.001118,4.08334Q11.968287,4.03421,11.945672,3.97961Q11.923058,3.9250100000000003,11.911529,3.86705Q11.9,3.8090900000000003,11.9,3.75L11.9,3.1L11.25,3.1Q11.1909052,3.1,11.132946,3.088471Q11.074985999999999,3.076942,11.02039,3.054328Q10.965793,3.031713,10.916658,2.998882Q10.867522,2.96605,10.825736,2.924264Q10.78395,2.882478,10.751118,2.833342Q10.718287,2.784207,10.695672,2.72961Q10.673058,2.675014,10.661529,2.617054Q10.65,2.5590948,10.65,2.5Q10.65,2.4409052,10.661529,2.382946Q10.673058,2.324986,10.695672,2.27039Q10.718287,2.215793,10.751118,2.166658Q10.78395,2.117522,10.825736,2.075736Q10.867522,2.03395,10.916658,2.001118Q10.965793,1.9682870000000001,11.02039,1.945672Q11.074985999999999,1.9230580000000002,11.132946,1.911529Q11.1909052,1.9,11.25,1.9Z" fill-rule="evenodd" fill="#FFFFFF" fill-opacity="1"/></g></g></svg>