<svg xmlns="http://www.w3.org/2000/svg" xmlns:xlink="http://www.w3.org/1999/xlink" fill="none" version="1.1" width="32" height="32" viewBox="0 0 32 32"><defs><clipPath id="master_svg0_39_707"><rect x="0" y="0" width="32" height="32" rx="0"/></clipPath><clipPath id="master_svg1_39_743"><rect x="6" y="6" width="20" height="20" rx="0"/></clipPath></defs><g clip-path="url(#master_svg0_39_707)"><g clip-path="url(#master_svg1_39_743)"><g><path d="M12.849999904632568,19.149609375L8.999999904632569,19.149609375Q8.523657904632568,19.149609375,8.186834904632569,18.812809375Q7.849999904632568,18.476009375,7.849999904632568,17.999609375L7.849999904632568,8.999609375Q7.849999904632568,8.523264375,8.186826904632568,8.186436375Q8.523654904632568,7.849609375,8.999999904632569,7.849609375L17.999999904632567,7.849609375Q18.47639990463257,7.849609375,18.81319990463257,8.186444375Q19.14999990463257,8.523267375,19.14999990463257,8.999609375L19.14999990463257,12.849609375L22.999999904632567,12.849609375Q23.47639990463257,12.849609375,23.81319990463257,13.186449374999999Q24.14999990463257,13.523269375,24.14999990463257,13.999609375L24.14999990463257,22.999609375Q24.14999990463257,23.476009375,23.81319990463257,23.812809375Q23.47639990463257,24.149609375,22.999999904632567,24.149609375L13.999999904632569,24.149609375Q13.523659904632568,24.149609375,13.186839904632567,23.812809375Q12.849999904632568,23.476009375,12.849999904632568,22.999609375L12.849999904632568,19.149609375Z" fill-rule="evenodd" fill="#CCCCCC" fill-opacity="1"/></g><g><path d="M14.1,22.9L14.1,18.5Q14.1,18.44091,14.088471,18.38295Q14.076942,18.32499,14.054328,18.27039Q14.031713,18.21579,13.998882,18.16666Q13.96605,18.11752,13.924264,18.07574Q13.882478,18.03395,13.833342,18.00112Q13.784207,17.96829,13.72961,17.94567Q13.675014000000001,17.92306,13.617054,17.91153Q13.5590948,17.9,13.5,17.9Q13.4409052,17.9,13.382946,17.91153Q13.324985999999999,17.92306,13.27039,17.94567Q13.215793,17.96829,13.166658,18.00112Q13.117522,18.03395,13.075736,18.07574Q13.03395,18.11752,13.001118,18.16666Q12.968287,18.21579,12.945672,18.27039Q12.923058,18.32499,12.911529,18.38295Q12.9,18.44091,12.9,18.5L12.9,23Q12.9,23.45566,13.22219,23.7778Q13.5443683,24.1,14,24.1L23,24.1Q23.45565,24.1,23.7778,23.7778Q24.1,23.45565,24.1,23L24.1,14Q24.1,13.5443682,23.7778,13.22219Q23.45566,12.9,23,12.9L18.5,12.9Q18.44091,12.9,18.38295,12.911529Q18.32499,12.923058,18.27039,12.945672Q18.21579,12.968287,18.16666,13.001118Q18.11752,13.03395,18.07574,13.075736Q18.03395,13.117522,18.00112,13.166658Q17.96829,13.215793,17.94567,13.27039Q17.92306,13.324985999999999,17.91153,13.382946Q17.9,13.4409052,17.9,13.5Q17.9,13.5590948,17.91153,13.617054Q17.92306,13.675014000000001,17.94567,13.72961Q17.96829,13.784207,18.00112,13.833342Q18.03395,13.882478,18.07574,13.924264Q18.11752,13.96605,18.16666,13.998882Q18.21579,14.031713,18.27039,14.054328Q18.32499,14.076942,18.38295,14.088471Q18.44091,14.1,18.5,14.1L22.9,14.1L22.9,22.9L14.1,22.9Z" fill-rule="evenodd" fill="#FFFFFF" fill-opacity="1"/></g><g><path d="M9,19.1L13.5,19.1Q13.559090000000001,19.1,13.617049999999999,19.0885Q13.67501,19.076900000000002,13.729610000000001,19.054299999999998Q13.78421,19.0317,13.83334,18.9989Q13.882480000000001,18.9661,13.92426,18.924300000000002Q13.96605,18.8825,13.99888,18.8333Q14.03171,18.7842,14.05433,18.729599999999998Q14.07694,18.675,14.088470000000001,18.6171Q14.1,18.5591,14.1,18.5Q14.1,18.440910000000002,14.088470000000001,18.38295Q14.07694,18.32499,14.05433,18.27039Q14.03171,18.21579,13.99888,18.16666Q13.96605,18.11752,13.92426,18.07573Q13.882480000000001,18.03395,13.83334,18.00112Q13.78421,17.96828,13.729610000000001,17.94567Q13.67501,17.92306,13.617049999999999,17.91153Q13.559090000000001,17.9,13.5,17.9L9.1,17.9L9.1,9.1L17.9,9.1L17.9,13.5Q17.9,13.559090000000001,17.91153,13.617049999999999Q17.92306,13.67501,17.94567,13.729610000000001Q17.96828,13.78421,18.00112,13.83334Q18.03395,13.882480000000001,18.07574,13.92426Q18.11752,13.96605,18.16666,13.99888Q18.21579,14.03171,18.27039,14.05433Q18.32499,14.07694,18.38295,14.088470000000001Q18.440910000000002,14.1,18.5,14.1Q18.5591,14.1,18.6171,14.088470000000001Q18.675,14.07694,18.729599999999998,14.05433Q18.7842,14.03171,18.8333,13.99888Q18.8825,13.96605,18.924300000000002,13.92426Q18.9661,13.882480000000001,18.9989,13.83334Q19.0317,13.78421,19.054299999999998,13.729610000000001Q19.076900000000002,13.67501,19.0885,13.617049999999999Q19.1,13.559090000000001,19.1,13.5L19.1,9Q19.1,8.5443681,18.7778,8.22219Q18.45566,7.9,18,7.9L9,7.9Q8.5443656,7.9,8.222183,8.222183Q7.9,8.5443655,7.9,9L7.9,18Q7.9,18.45566,8.22219,18.7778Q8.5443681,19.1,9,19.1Z" fill-rule="evenodd" fill="#FFFFFF" fill-opacity="1"/></g></g></g></svg>