<svg data-v-cb91088a="" data-v-3844b174="" width="12" height="12" viewBox="28 10 12 12" version="1.1" xmlns="http://www.w3.org/2000/svg" xmlns:xlink="http://www.w3.org/1999/xlink" xmlns:xhtml="http://www.w3.org/1999/xhtml" preserveAspectRatio="xMinYMin meet" overflow="visible" style="background-color: transparent;"><g transform="translate(28,10)"><svg version="1.1" xmlns="http://www.w3.org/2000/svg" xmlns:xlink="http://www.w3.org/1999/xlink" xmlns:xhtml="http://www.w3.org/1999/xhtml" preserveAspectRatio="xMinYMin meet" overflow="hidden" width="12" height="12" x="0" y="0" viewBox="0 0 12 12"><clipPath id="clippath-artboard-5010"><path d="M 0 0 l 12 0 l 0 12 l -12 0 z" clip-rule="evenodd"/></clipPath><g clip-path="url(#clippath-artboard-5010)"><g transform="translate(1.2680025100708008,2.9240050315856934)"><path d="M 6.03445 0.853553 C 5.94068 0.759785 5.888 0.632608 5.888 0.49999999999999994 C 5.888 0.22385799999999997 6.11186 0 6.388 0 C 6.52061 0 6.64779 0.0526784 6.74155 0.146447 L 9.31755 2.72244 C 9.37007 2.77496 9.40847 2.83627 9.43273 2.90162 C 9.44848 2.94393 9.45866 2.98895 9.46239 3.03579 C 9.46453 3.06255 9.46453 3.08945 9.46239 3.1161999999999996 C 9.45866 3.16304 9.44848 3.20806 9.43273 3.2503700000000006 C 9.40847 3.31572 9.37007 3.3770199999999995 9.31755 3.42955 L 6.74155 6.00554 C 6.64779 6.09931 6.52061 6.15199 6.388 6.15199 C 6.11186 6.15199 5.888 5.92813 5.888 5.65199 C 5.888 5.51938 5.94068 5.3922 6.03467 5.29821 L 7.75689 3.576 L 0.5 3.576 C 0.223858 3.576 0 3.3521400000000003 0 3.076 C 0 2.79985 0.223858 2.576 0.5 2.576 L 7.75689 2.576 L 6.03445 0.853553 Z" fill="currentColor" fill-opacity="1" stroke="none" stroke-width="0" fill-rule="evenodd"/></g></g></svg></g></svg>