<svg xmlns="http://www.w3.org/2000/svg" xmlns:xlink="http://www.w3.org/1999/xlink" fill="none" version="1.1" width="28" height="28" viewBox="0 0 28 28"><defs><clipPath id="master_svg0_57_791"><rect x="0" y="0" width="28" height="28" rx="0"/></clipPath><clipPath id="master_svg1_57_886"><rect x="5" y="5" width="18" height="18" rx="0"/></clipPath></defs><g clip-path="url(#master_svg0_57_791)"><g clip-path="url(#master_svg1_57_886)"><g transform="matrix(0,1,1,0,-6,6)"><path d="M8.6,26L8.6,14Q8.6,13.9409052,8.588471,13.882946Q8.576942,13.824985999999999,8.554328,13.77039Q8.531713,13.715793,8.498882,13.666658Q8.46605,13.617522,8.424264,13.575736Q8.382478,13.53395,8.333342,13.501118Q8.284207,13.468287,8.22961,13.445672Q8.175014000000001,13.423058,8.117054,13.411529Q8.0590948,13.4,8,13.4Q7.9409051999999996,13.4,7.882946,13.411529Q7.824986,13.423058,7.77039,13.445672Q7.715793,13.468287,7.666658,13.501118Q7.617522,13.53395,7.575736,13.575736Q7.53395,13.617522,7.501118,13.666658Q7.468287,13.715793,7.445672,13.77039Q7.423058,13.824985999999999,7.411529,13.882946Q7.4,13.9409052,7.4,14L7.4,26Q7.4,26.0591,7.411529,26.1171Q7.423058,26.175,7.445672,26.229599999999998Q7.468287,26.2842,7.501118,26.3333Q7.53395,26.3825,7.575736,26.424300000000002Q7.617522,26.466,7.666658,26.4989Q7.715793,26.5317,7.77039,26.554299999999998Q7.824986,26.576900000000002,7.882946,26.5885Q7.9409051999999996,26.6,8,26.6Q8.0590948,26.6,8.117054,26.5885Q8.175014000000001,26.576900000000002,8.22961,26.554299999999998Q8.284207,26.5317,8.333342,26.4989Q8.382478,26.466,8.424264,26.424300000000002Q8.46605,26.3825,8.498882,26.3333Q8.531713,26.2842,8.554328,26.229599999999998Q8.576942,26.175,8.588471,26.1171Q8.6,26.0591,8.6,26Z" fill-rule="evenodd" fill="#404040" fill-opacity="1"/></g><g transform="matrix(-1,0,0,1,26,0)"><rect x="13" y="8" width="3" height="12" rx="1" fill="#404040" fill-opacity="1"/></g><g transform="matrix(-1,0,0,1,36,0)"><rect x="18" y="10" width="3" height="9" rx="1" fill="#404040" fill-opacity="1"/></g></g></g></svg>