<svg xmlns="http://www.w3.org/2000/svg" xmlns:xlink="http://www.w3.org/1999/xlink" fill="none" version="1.1" width="28" height="28" viewBox="0 0 28 28"><defs><clipPath id="master_svg0_57_795"><rect x="0" y="0" width="28" height="28" rx="0"/></clipPath><clipPath id="master_svg1_57_887"><rect x="5" y="5" width="18" height="18" rx="0"/></clipPath></defs><g clip-path="url(#master_svg0_57_795)"><g clip-path="url(#master_svg1_57_887)"><g><path d="M14.6,20L14.6,8Q14.6,7.9409051999999996,14.588471,7.882946Q14.576942,7.824986,14.554328,7.77039Q14.531713,7.715793,14.498882,7.666658Q14.46605,7.617522,14.424264,7.575736Q14.382478,7.53395,14.333342,7.501118Q14.284207,7.468287,14.22961,7.445672Q14.175014000000001,7.423058,14.117054,7.411529Q14.0590948,7.4,14,7.4Q13.9409052,7.4,13.882946,7.411529Q13.824985999999999,7.423058,13.77039,7.445672Q13.715793,7.468287,13.666658,7.501118Q13.617522,7.53395,13.575736,7.575736Q13.53395,7.617522,13.501118,7.666658Q13.468287,7.715793,13.445672,7.77039Q13.423058,7.824986,13.411529,7.882946Q13.4,7.9409051999999996,13.4,8L13.4,20Q13.4,20.0591,13.411529,20.1171Q13.423058,20.175,13.445672,20.229599999999998Q13.468287,20.2842,13.501118,20.3333Q13.53395,20.3825,13.575736,20.424300000000002Q13.617522,20.466,13.666658,20.4989Q13.715793,20.5317,13.77039,20.554299999999998Q13.824985999999999,20.576900000000002,13.882946,20.5885Q13.9409052,20.6,14,20.6Q14.0590948,20.6,14.117054,20.5885Q14.175014000000001,20.576900000000002,14.22961,20.554299999999998Q14.284207,20.5317,14.333342,20.4989Q14.382478,20.466,14.424264,20.424300000000002Q14.46605,20.3825,14.498882,20.3333Q14.531713,20.2842,14.554328,20.229599999999998Q14.576942,20.175,14.588471,20.1171Q14.6,20.0591,14.6,20Z" fill-rule="evenodd" fill="#404040" fill-opacity="1"/></g><g><rect x="7" y="10" width="14" height="3" rx="1" fill="#404040" fill-opacity="1"/></g><g><rect x="10" y="15" width="8" height="3" rx="1" fill="#404040" fill-opacity="1"/></g></g></g></svg>