<?xml version="1.0" standalone="no"?><!DOCTYPE svg PUBLIC "-//W3C//DTD SVG 1.1//EN" "http://www.w3.org/Graphics/SVG/1.1/DTD/svg11.dtd"><svg class="icon" width="200px" height="102.04px" viewBox="0 0 2007 1024" version="1.1" xmlns="http://www.w3.org/2000/svg"><path d="M999.87456 0c268.20608 0 496.64 170.27072 583.10656 408.59648h111.52384a36.0448 36.0448 0 1 1 0 72.11008h-90.23488a621.42464 621.42464 0 0 1 15.65696 129.792h189.952a36.0448 36.0448 0 1 1 0 72.11008h-192.99328a618.72128 618.72128 0 0 1-11.54048 72.11008h86.75328a38.46144 38.46144 0 0 1 38.16448 43.264h158.9248c61.07136 0 110.57152 49.50016 110.57152 110.56128 0 61.06112-49.50016 110.56128-110.56128 110.56128H110.56128C49.50016 1019.10528 0 969.60512 0 908.544c0-61.06112 49.50016-110.56128 110.56128-110.56128h158.93504a38.46144 38.46144 0 0 1 38.15424-43.264h86.75328a622.336 622.336 0 0 1-14.35648-153.82528H189.88032a36.0448 36.0448 0 1 1 0-72.11008h196.56704C430.592 229.61152 688.42496 0 999.87456 0z" fill="#F4F7FF" /><path d="M562.432 927.77472c0 15.9232 195.85024 28.83584 437.4528 28.83584 241.59232 0 437.44256-12.9024 437.44256-28.83584 0-15.93344-195.85024-28.84608-437.4528-28.84608-241.59232 0-437.44256 12.91264-437.44256 28.84608z" fill="#C9D7FF" /><path d="M624.92672 269.19936h749.90592c12.82048 0 19.23072 6.41024 19.23072 19.23072v461.47584c0 12.82048-6.41024 19.23072-19.23072 19.23072H624.92672c-12.82048 0-19.23072-6.41024-19.23072-19.23072V288.43008c0-12.82048 6.41024-19.23072 19.23072-19.23072zM817.21344 894.12608h365.33248c12.82048 0 19.23072 6.41024 19.23072 19.22048 0 12.82048-6.41024 19.23072-19.23072 19.23072H817.21344c-12.82048 0-19.23072-6.41024-19.23072-19.23072 0-12.81024 6.41024-19.22048 19.23072-19.22048z" fill="#647BFC" /><path d="M946.9952 519.168h105.75872c12.82048 0 19.23072 6.41024 19.23072 19.23072v374.94784c0 12.82048-6.41024 19.23072-19.23072 19.23072H947.00544c-12.82048 0-19.23072-6.41024-19.23072-19.23072V538.39872c0-12.82048 6.41024-19.23072 19.23072-19.23072z" fill="#647BFC" /><path d="M644.15744 298.04544h711.44448c6.41024 0 9.6256 3.20512 9.6256 9.60512v423.03488c0 6.4-3.21536 9.60512-9.6256 9.60512H644.15744c-6.41024 0-9.6256-3.20512-9.6256-9.60512V307.65056c0-6.4 3.21536-9.60512 9.6256-9.60512z" fill="#FFFFFF" /><path d="M730.68544 336.49664h192.27648c12.82048 0 19.23072 6.41024 19.23072 19.23072v48.06656c0 12.82048-6.41024 19.23072-19.23072 19.23072H730.68544c-12.82048 0-19.23072-6.41024-19.23072-19.23072V355.7376c0-12.82048 6.41024-19.23072 19.23072-19.23072z" fill="#5883FF" /><path d="M730.68544 471.10144h192.27648c12.82048 0 19.23072 6.4 19.23072 19.22048v48.0768c0 12.82048-6.41024 19.23072-19.23072 19.23072H730.68544c-12.82048 0-19.23072-6.41024-19.23072-19.23072v-48.0768c0-12.82048 6.41024-19.22048 19.23072-19.22048z" fill="#F4A998" /><path d="M730.68544 605.696h192.27648c12.82048 0 19.23072 6.41024 19.23072 19.23072v48.06656c0 12.82048-6.41024 19.23072-19.23072 19.23072H730.68544c-12.82048 0-19.23072-6.41024-19.23072-19.23072v-48.06656c0-12.82048 6.41024-19.23072 19.23072-19.23072z" fill="#96D9F4" /><path d="M735.488 620.11392h182.67136c6.41024 0 9.61536 3.20512 9.61536 9.6256v38.4512c0 6.41024-3.20512 9.61536-9.6256 9.61536H735.49824c-6.41024 0-9.61536-3.20512-9.61536-9.6256v-38.4512c0-6.41024 3.20512-9.61536 9.61536-9.61536z" fill="#FFFFFF" /><path d="M754.71872 634.54208h14.41792c6.41024 0 9.61536 3.20512 9.61536 9.61536v9.60512c0 6.41024-3.20512 9.6256-9.61536 9.6256h-14.41792c-6.41024 0-9.6256-3.21536-9.6256-9.6256v-9.60512c0-6.41024 3.21536-9.6256 9.6256-9.6256z" fill="#96D9F4" /><path d="M735.488 485.51936h182.67136c6.41024 0 9.61536 3.20512 9.61536 9.61536v38.4512c0 6.41024-3.20512 9.6256-9.6256 9.6256H735.49824c-6.41024 0-9.61536-3.21536-9.61536-9.6256v-38.4512c0-6.41024 3.20512-9.6256 9.61536-9.6256z" fill="#FFFFFF" /><path d="M754.71872 499.93728h14.41792c6.41024 0 9.61536 3.20512 9.61536 9.6256v9.60512c0 6.41024-3.20512 9.61536-9.61536 9.61536h-14.41792c-6.41024 0-9.6256-3.20512-9.6256-9.61536v-9.61536c0-6.41024 3.21536-9.61536 9.6256-9.61536z" fill="#F4A998" /><path d="M735.488 350.9248h182.67136c6.41024 0 9.61536 3.19488 9.61536 9.60512v38.46144c0 6.41024-3.20512 9.61536-9.6256 9.61536H735.49824c-6.41024 0-9.61536-3.20512-9.61536-9.6256v-38.4512c0-6.41024 3.20512-9.61536 9.61536-9.61536z" fill="#FFFFFF" /><path d="M754.71872 365.34272h14.41792c6.41024 0 9.61536 3.20512 9.61536 9.61536v9.61536c0 6.4-3.20512 9.60512-9.61536 9.60512h-14.41792c-6.41024 0-9.6256-3.20512-9.6256-9.60512v-9.6256c0-6.4 3.21536-9.60512 9.6256-9.60512z" fill="#647BFC" /><path d="M1483.9808 702.07488l20.40832 20.39808a4.8128 4.8128 0 0 1 0 6.79936l-20.39808 20.39808a4.8128 4.8128 0 0 1-6.79936 0l-20.39808-20.39808a4.8128 4.8128 0 0 1 0-6.79936l20.39808-20.39808a4.8128 4.8128 0 0 1 6.79936 0z m-3.38944 10.19904l-13.59872 13.59872 13.59872 13.59872 13.58848-13.59872-13.58848-13.59872zM395.64288 672.99328c2.6624 0 4.8128 2.1504 4.8128 4.8128v12.9536h12.9536c2.6624 0 4.8128 2.1504 4.8128 4.8128v2.92864c0 2.65216-2.1504 4.80256-4.8128 4.80256h-12.9536v12.9536c0 2.6624-2.1504 4.8128-4.8128 4.8128h-2.9184a4.8128 4.8128 0 0 1-4.8128-4.8128v-12.9536h-12.9536a4.8128 4.8128 0 0 1-4.8128-4.8128v-2.9184a4.8128 4.8128 0 0 1 4.8128-4.8128h12.9536v-12.9536c0-2.6624 2.1504-4.8128 4.8128-4.8128h2.92864z m41.79968-129.792a24.03328 24.03328 0 1 1 0 48.0768 24.03328 24.03328 0 0 1 0-48.0768z m0 9.6256a14.41792 14.41792 0 1 0 0 28.83584 14.41792 14.41792 0 0 0 0-28.84608zM294.7072 317.25568c2.6624 0 4.8128 2.1504 4.8128 4.8128v12.9536h12.9536a4.8128 4.8128 0 0 1 4.8128 4.8128v2.92864a4.8128 4.8128 0 0 1-4.8128 4.8128l-12.96384-0.01024v12.9536c0 2.6624-2.1504 4.8128-4.8128 4.8128h-2.9184a4.8128 4.8128 0 0 1-4.8128-4.8128v-12.9536h-12.9536a4.8128 4.8128 0 0 1-4.8128-4.8128v-2.9184a4.8128 4.8128 0 0 1 4.8128-4.8128h12.9536v-12.9536a4.8128 4.8128 0 0 1 4.8128-4.8128h2.92864z m1358.97088-54.39488l19.21024 19.21024 19.21024-19.21024a4.8128 4.8128 0 0 1 6.79936 0l9.1648 9.15456a4.8128 4.8128 0 0 1 0 6.79936l-19.22048 19.22048 19.22048 19.21024a4.8128 4.8128 0 0 1 0 6.79936l-9.1648 9.1648a4.8128 4.8128 0 0 1-6.79936 0l-19.21024-19.22048-19.22048 19.21024a4.8128 4.8128 0 0 1-6.79936 0l-9.15456-9.15456a4.8128 4.8128 0 0 1 0-6.79936l19.21024-19.22048-19.21024-19.21024a4.8128 4.8128 0 0 1 0-6.79936l9.15456-9.15456a4.8128 4.8128 0 0 1 6.79936 0z m41.82016 10.1888l-22.60992 22.62016-22.62016-22.62016-2.3552 2.36544 22.60992 22.60992-22.60992 22.60992 2.3552 2.3552 22.62016-22.59968 22.60992 22.60992 2.3552-2.3552-22.60992-22.62016 22.62016-22.60992-2.36544-2.36544z m-1192.1408-79.70816l33.98656 33.98656a4.8128 4.8128 0 0 1 0 6.79936l-33.9968 33.9968a4.8128 4.8128 0 0 1-6.79936 0l-33.9968-33.9968a4.8128 4.8128 0 0 1 0-6.79936l33.9968-33.98656a4.8128 4.8128 0 0 1 6.79936 0z m-3.40992 10.19904l-27.1872 27.1872 27.1872 27.19744 27.19744-27.19744-27.19744-27.1872z m552.81664-131.44064a43.264 43.264 0 1 1 0 86.528 43.264 43.264 0 0 1 0-86.528z m0 9.61536a33.64864 33.64864 0 1 0 0 67.29728 33.64864 33.64864 0 0 0 0-67.29728zM837.89824 24.03328c2.6624 0 4.8128 2.1504 4.8128 4.8128v12.9536h12.9536c2.6624 0 4.8128 2.1504 4.8128 4.8128v2.92864c0 2.65216-2.1504 4.8128-4.8128 4.8128l-12.96384-0.01024v12.9536a4.8128 4.8128 0 0 1-4.80256 4.8128h-2.9184a4.8128 4.8128 0 0 1-4.8128-4.8128V54.34368h-12.9536a4.8128 4.8128 0 0 1-4.8128-4.8128v-2.9184c0-2.6624 2.1504-4.8128 4.8128-4.8128h12.9536V28.84608c0-2.6624 2.1504-4.8128 4.8128-4.8128h2.9184z" fill="#9099CC" /><path d="M1283.50208 134.59456h211.2c8.33536 0 16.26112 3.60448 21.72928 9.89184l24.35072 27.904c4.58752 5.25312 7.10656 11.99104 7.10656 18.96448v250.90048c0 10.61888-8.6016 19.23072-19.23072 19.23072h-245.15584a19.23072 19.23072 0 0 1-19.23072-19.23072V153.82528c0-10.61888 8.6016-19.23072 19.23072-19.23072z" fill="#647BFC" /><path d="M1297.92 149.02272h186.71616c8.8576 0 17.21344 4.06528 22.6816 11.03872l19.99872 25.47712c3.9936 5.07904 6.144 11.34592 6.144 17.79712v224.50176c0 10.61888-8.6016 19.22048-19.22048 19.22048H1297.92a19.23072 19.23072 0 0 1-19.23072-19.22048V168.2432a19.23072 19.23072 0 0 1 19.23072-19.23072z" fill="#FFFFFF" /><path d="M1422.8992 216.32a4.8128 4.8128 0 0 1 4.8128 4.8128v28.83584a4.8128 4.8128 0 0 1-4.8128 4.8128h-9.60512v19.22048h52.86912c2.6624 0 4.8128 2.1504 4.8128 4.8128v33.64864h9.61536c2.6624 0 4.8128 2.1504 4.8128 4.8128V346.112a4.8128 4.8128 0 0 1-4.8128 4.8128h-28.84608a4.8128 4.8128 0 0 1-4.8128-4.8128v-28.84608c0-2.65216 2.1504-4.8128 4.8128-4.8128h9.61536v-28.83584h-48.06656v28.84608h9.60512a4.8128 4.8128 0 0 1 4.8128 4.8128V346.112a4.8128 4.8128 0 0 1-4.8128 4.8128h-28.83584a4.8128 4.8128 0 0 1-4.8128-4.8128v-28.84608c0-2.65216 2.1504-4.8128 4.8128-4.8128h9.61536v-28.83584h-48.0768v28.84608h9.6256c2.64192 0 4.80256 2.1504 4.80256 4.8128V346.112c0 2.6624-2.1504 4.8128-4.8128 4.8128h-28.84608a4.8128 4.8128 0 0 1-4.80256-4.8128v-28.84608c0-2.65216 2.1504-4.8128 4.8128-4.8128h9.60512v-33.6384a4.8128 4.8128 0 0 1 4.8128-4.8128h52.87936v-19.22048h-9.6256a4.8128 4.8128 0 0 1-4.80256-4.8128v-28.84608c0-2.65216 2.1504-4.80256 4.8128-4.80256h28.83584z m-331.06944 167.26016l4.63872 1.23904-4.9664 18.57536-4.64896-1.23904 4.97664-18.57536z m15.67744-4.59776l9.6256 16.65024-4.16768 2.4064-9.6256-16.65024 4.16768-2.4064z m-45.13792-4.02432v4.8128H951.808v-4.8128h110.56128z m243.4048-72.11008a9.61536 9.61536 0 1 1-9.29792 12.02176h-130.816c-8.92928 0-16.31232 6.97344-16.7936 15.90272l-0.03072 0.9216V346.112a21.62688 21.62688 0 0 1-20.61312 21.6064l-1.024 0.02048-26.368-4.80256v-4.8128l26.37824 4.8128c8.92928 0 16.30208-6.98368 16.7936-15.90272l0.03072-0.9216v-14.41792c0-11.55072 9.07264-21.06368 20.61312-21.6064l1.024-0.03072h130.80576a9.61536 9.61536 0 0 1 9.30816-7.20896z m-244.19328 32.36864l13.59872 13.59872-3.39968 3.39968-13.59872-13.59872 3.40992-3.39968z m24.1664-10.73152v19.23072h-4.8128v-19.23072h4.8128z" fill="#647BFC" /><path d="M1087.01696 522.98752l4.64896 1.23904-4.97664 18.57536-4.63872-1.23904 4.9664-18.57536z m15.68768-4.608l9.61536 16.66048-4.16768 2.4064-9.61536-16.65024 4.16768-2.4064z m-40.33536-4.01408v4.80256H951.808v-4.8128h110.56128z m243.4048-153.83552a9.61536 9.61536 0 1 1-9.29792 12.02176h-101.96992c-8.93952 0-16.31232 6.98368-16.7936 15.90272l-0.03072 0.9216v91.3408a21.62688 21.62688 0 0 1-20.61312 21.6064l-1.024 0.02048-55.21408-4.8128v-4.80256l55.21408 4.8128c8.93952 0 16.31232-6.98368 16.7936-15.90272l0.03072-0.9216v-91.3408c0-11.55072 9.08288-21.06368 20.61312-21.6064l1.024-0.03072h101.96992a9.61536 9.61536 0 0 1 9.30816-7.20896zM1056.78848 474.624l13.59872 13.59872-3.39968 3.39968-13.59872-13.59872 3.39968-3.39968z m24.15616-10.73152v19.23072h-4.8128v-19.23072h4.8128z" fill="#FFA537" /><path d="M1088.94208 660.7872l4.64896 1.24928-4.97664 18.57536-4.64896-1.24928 4.97664-18.56512z m15.68768-4.58752l9.61536 16.65024-4.16768 2.4064-9.61536-16.65024 4.16768-2.4064z m-42.26048-7.23968v4.8128H951.808v-4.8128h110.56128z m243.4048-230.73792a9.61536 9.61536 0 1 1-9.29792 12.02176h-73.13408c-8.92928 0-16.30208 6.97344-16.7936 15.89248l-0.03072 0.9216v168.2432a21.62688 21.62688 0 0 1-20.61312 21.61664l-1.024 0.02048-84.04992-4.8128v-4.80256l84.06016 4.8128c8.92928 0 16.31232-6.98368 16.7936-15.90272l0.03072-0.9216v-168.2432c0-11.56096 9.07264-21.07392 20.61312-21.6064l1.024-0.03072h73.1136a9.61536 9.61536 0 0 1 9.3184-7.20896zM1058.7136 612.43392l13.59872 13.59872-3.39968 3.39968-13.59872-13.59872 3.39968-3.39968z m24.15616-10.73152v19.23072h-4.8128V601.7024h4.8128z" fill="#96D9F4" /></svg>
