<svg xmlns="http://www.w3.org/2000/svg" xmlns:xlink="http://www.w3.org/1999/xlink"
    version="1.1" width="13" height="13" viewBox="0 0 13 13">
    <defs>
        <clipPath id="master_svg0_912_00845">
            <rect x="0" y="0" width="13" height="13" rx="0" />
        </clipPath>
    </defs>
    <g clip-path="url(#master_svg0_912_00845)">
        <g
            transform="matrix(-0.7071067690849304,0.7071067690849304,-0.7071067690849304,-0.7071067690849304,19.439869345267653,-3.3232535940042)">
            <path
                d="M10.408203125,1.764501953125L22.108203125,1.764501953125Q22.167303125,1.764501953125,22.225303125,1.776030953125Q22.283203125,1.7875599531250002,22.337803125,1.810173953125Q22.392403125,1.8327889531250001,22.441503125,1.865619953125Q22.490703125,1.898451953125,22.532503124999998,1.940237953125Q22.574203125,1.9820239531250001,22.607103125000002,2.031159953125Q22.639903125,2.080294953125,22.662503125,2.134891953125Q22.685103124999998,2.189487953125,22.696703125,2.247447953125Q22.708203125,2.305407153125,22.708203125,2.364501953125Q22.708203125,2.423596753125,22.696703125,2.481555953125Q22.685103124999998,2.539515953125,22.662503125,2.594111953125Q22.639903125,2.648708953125,22.607103125000002,2.697843953125Q22.574203125,2.746979953125,22.532503124999998,2.788765953125Q22.490703125,2.830551953125,22.441503125,2.863383953125Q22.392403125,2.896214953125,22.337803125,2.918829953125Q22.283203125,2.941443953125,22.225303125,2.952972953125Q22.167303125,2.964501953125,22.108203125,2.964501953125L10.408203125,2.964501953125Q10.349108325,2.964501953125,10.291149125,2.952972953125Q10.233189124999999,2.941443953125,10.178593125,2.918829953125Q10.123996125,2.896214953125,10.074861125,2.863383953125Q10.025725125,2.830551953125,9.983939125,2.788765953125Q9.942153125,2.746979953125,9.909321125,2.697843953125Q9.876490125,2.648708953125,9.853875125,2.594111953125Q9.831261125,2.539515953125,9.819732125,2.481555953125Q9.808203125,2.423596753125,9.808203125,2.364501953125Q9.808203125,2.305407153125,9.819732125,2.247447953125Q9.831261125,2.189487953125,9.853875125,2.134891953125Q9.876490125,2.080294953125,9.909321125,2.031159953125Q9.942153125,1.9820239531250001,9.983939125,1.940237953125Q10.025725125,1.898451953125,10.074861125,1.865619953125Q10.123996125,1.8327889531250001,10.178593125,1.810173953125Q10.233189124999999,1.7875599531250002,10.291149125,1.776030953125Q10.349108325,1.764501953125,10.408203125,1.764501953125Z"
                fill-rule="evenodd" fill="inherit" fill-opacity="1" />
        </g>
    </g>
</svg>