<svg xmlns="http://www.w3.org/2000/svg" xmlns:xlink="http://www.w3.org/1999/xlink" fill="none" version="1.1" width="13" height="13" viewBox="0 0 13 13"><defs><clipPath id="master_svg0_912_00784"><rect x="0" y="0" width="13" height="13" rx="0"/></clipPath></defs><g clip-path="url(#master_svg0_912_00784)"><g transform="matrix(-0.7071067690849304,0.7071067690849304,-0.7071067690849304,-0.7071067690849304,19.439869345267653,-3.3232535940042)"><path d="M10.408203125,1.764501953125L22.108203125,1.764501953125Q22.167303125,1.764501953125,22.225303125,1.776030953125Q22.283203125,1.7875599531250002,22.337803125,1.810173953125Q22.392403125,1.8327889531250001,22.441503125,1.865619953125Q22.490703125,1.898451953125,22.532503124999998,1.940237953125Q22.574203125,1.9820239531250001,22.607103125000002,2.031159953125Q22.639903125,2.080294953125,22.662503125,2.134891953125Q22.685103124999998,2.189487953125,22.696703125,2.247447953125Q22.708203125,2.305407153125,22.708203125,2.364501953125Q22.708203125,2.423596753125,22.696703125,2.481555953125Q22.685103124999998,2.539515953125,22.662503125,2.594111953125Q22.639903125,2.648708953125,22.607103125000002,2.697843953125Q22.574203125,2.746979953125,22.532503124999998,2.788765953125Q22.490703125,2.830551953125,22.441503125,2.863383953125Q22.392403125,2.896214953125,22.337803125,2.918829953125Q22.283203125,2.941443953125,22.225303125,2.952972953125Q22.167303125,2.964501953125,22.108203125,2.964501953125L10.408203125,2.964501953125Q10.349108325,2.964501953125,10.291149125,2.952972953125Q10.233189124999999,2.941443953125,10.178593125,2.918829953125Q10.123996125,2.896214953125,10.074861125,2.863383953125Q10.025725125,2.830551953125,9.983939125,2.788765953125Q9.942153125,2.746979953125,9.909321125,2.697843953125Q9.876490125,2.648708953125,9.853875125,2.594111953125Q9.831261125,2.539515953125,9.819732125,2.481555953125Q9.808203125,2.423596753125,9.808203125,2.364501953125Q9.808203125,2.305407153125,9.819732125,2.247447953125Q9.831261125,2.189487953125,9.853875125,2.134891953125Q9.876490125,2.080294953125,9.909321125,2.031159953125Q9.942153125,1.9820239531250001,9.983939125,1.940237953125Q10.025725125,1.898451953125,10.074861125,1.865619953125Q10.123996125,1.8327889531250001,10.178593125,1.810173953125Q10.233189124999999,1.7875599531250002,10.291149125,1.776030953125Q10.349108325,1.764501953125,10.408203125,1.764501953125Z" fill-rule="evenodd" fill="#595959" fill-opacity="1"/></g><g><path d="M7.80078125,1.35001220703125L11.05078125,1.35001220703125Q11.10987125,1.35001220703125,11.167831249999999,1.36154120703125Q11.22579125,1.3730702070312502,11.280391250000001,1.39568420703125Q11.33499125,1.4182992070312501,11.38412125,1.45113020703125Q11.433261250000001,1.48396220703125,11.47504125,1.52574820703125Q11.51683125,1.5675342070312501,11.54966125,1.61667020703125Q11.58249125,1.6658052070312501,11.60511125,1.72040220703125Q11.62772125,1.77499820703125,11.639251250000001,1.83295820703125Q11.65078125,1.89091740703125,11.65078125,1.95001220703125L11.65078125,5.20001220703125Q11.65078125,5.259102207031249,11.639251250000001,5.31706220703125Q11.62772125,5.37502220703125,11.60511125,5.42962220703125Q11.58249125,5.48422220703125,11.54966125,5.53335220703125Q11.51683125,5.58249220703125,11.47504125,5.62427220703125Q11.433261250000001,5.66606220703125,11.38412125,5.69889220703125Q11.33499125,5.73172220703125,11.280391250000001,5.75434220703125Q11.22579125,5.7769522070312505,11.167831249999999,5.78848220703125Q11.10987125,5.80001220703125,11.05078125,5.80001220703125Q10.99168125,5.80001220703125,10.933731250000001,5.78848220703125Q10.87577125,5.7769522070312505,10.821171249999999,5.75434220703125Q10.76657125,5.73172220703125,10.71744125,5.69889220703125Q10.668301249999999,5.66606220703125,10.62652125,5.62427220703125Q10.58473125,5.58249220703125,10.55190125,5.53335220703125Q10.51907125,5.48422220703125,10.49645125,5.42962220703125Q10.47384125,5.37502220703125,10.462311249999999,5.31706220703125Q10.45078125,5.259102207031249,10.45078125,5.20001220703125L10.45078125,2.55001220703125L7.80078125,2.55001220703125Q7.7416864499999996,2.55001220703125,7.68372725,2.53848320703125Q7.62576725,2.52695420703125,7.57117125,2.50434020703125Q7.51657425,2.48172520703125,7.46743925,2.44889420703125Q7.41830325,2.41606220703125,7.37651725,2.37427620703125Q7.33473125,2.33249020703125,7.30189925,2.28335420703125Q7.26906825,2.23421920703125,7.24645325,2.17962220703125Q7.22383925,2.12502620703125,7.21231025,2.06706620703125Q7.20078125,2.00910700703125,7.20078125,1.95001220703125Q7.20078125,1.89091740703125,7.21231025,1.83295820703125Q7.22383925,1.77499820703125,7.24645325,1.72040220703125Q7.26906825,1.6658052070312501,7.30189925,1.61667020703125Q7.33473125,1.5675342070312501,7.37651725,1.52574820703125Q7.41830325,1.48396220703125,7.46743925,1.45113020703125Q7.51657425,1.4182992070312501,7.57117125,1.39568420703125Q7.62576725,1.3730702070312502,7.68372725,1.36154120703125Q7.7416864499999996,1.35001220703125,7.80078125,1.35001220703125Z" fill-rule="evenodd" fill="#595959" fill-opacity="1"/></g></g></svg>