<svg xmlns="http://www.w3.org/2000/svg" xmlns:xlink="http://www.w3.org/1999/xlink"
    version="1.1" width="13" height="13" viewBox="0 0 13 13">
    <defs>
        <clipPath id="master_svg0_870_9030">
            <rect x="0" y="0" width="13" height="13" rx="0" />
        </clipPath>
        <clipPath id="master_svg1_870_9030/870_8779">
            <rect x="5" y="5" width="8" height="8" rx="0" />
        </clipPath>
    </defs>
    <g clip-path="url(#master_svg0_870_9030)">
        <g>
            <g>
                <path
                    d="M0.4,1L0.4,2.82813Q0.4,2.8872299999999997,0.41152900000000003,2.94519Q0.42305800000000005,3.00315,0.44567199999999996,3.05774Q0.468287,3.11234,0.501118,3.16148Q0.5339499999999999,3.21061,0.575736,3.2524Q0.617522,3.29418,0.666658,3.32701Q0.715793,3.35985,0.77039,3.38246Q0.824986,3.40508,0.882946,3.4166Q0.9409052,3.42813,1,3.42813Q1.0590948,3.42813,1.117054,3.4166Q1.175014,3.40508,1.22961,3.38246Q1.2842069999999999,3.35985,1.333342,3.32701Q1.3824779999999999,3.29418,1.424264,3.2524Q1.46605,3.21061,1.498882,3.16148Q1.5317129999999999,3.11234,1.554328,3.05774Q1.5769419999999998,3.00315,1.588471,2.94519Q1.6,2.8872299999999997,1.6,2.82813L1.6,1.6L2.82813,1.6Q2.8872299999999997,1.6,2.94519,1.588471Q3.00315,1.5769419999999998,3.05774,1.554328Q3.11234,1.5317129999999999,3.16148,1.498882Q3.21061,1.46605,3.2524,1.424264Q3.29418,1.3824779999999999,3.32701,1.333342Q3.35985,1.2842069999999999,3.38246,1.22961Q3.40508,1.175014,3.4166,1.117054Q3.42813,1.0590948,3.42813,1Q3.42813,0.9409052,3.4166,0.882946Q3.40508,0.824986,3.38246,0.77039Q3.35985,0.715793,3.32701,0.666658Q3.29418,0.617522,3.2524,0.575736Q3.21061,0.5339499999999999,3.16148,0.501118Q3.11234,0.468287,3.05774,0.44567199999999996Q3.00315,0.42305800000000005,2.94519,0.41152900000000003Q2.8872299999999997,0.4,2.82813,0.4L1,0.4Q0.9409052,0.4,0.882946,0.41152900000000003Q0.824986,0.42305800000000005,0.77039,0.44567199999999996Q0.715793,0.468287,0.666658,0.501118Q0.617522,0.5339499999999999,0.575736,0.575736Q0.5339499999999999,0.617522,0.501118,0.666658Q0.468287,0.715793,0.44567199999999996,0.77039Q0.42305800000000005,0.824986,0.41152900000000003,0.882946Q0.4,0.9409052,0.4,1Z"
                    fill-rule="evenodd" fill="inherit" fill-opacity="1" />
            </g>
            <g>
                <path
                    d="M0.4,5.265625L0.4,6.484385Q0.4,6.543475,0.41152900000000003,6.601435Q0.42305800000000005,6.659395,0.44567199999999996,6.713995Q0.468287,6.768585,0.501118,6.817725Q0.5339499999999999,6.866855,0.575736,6.908645Q0.617522,6.950435,0.666658,6.983265Q0.715793,7.016095,0.77039,7.038705Q0.824986,7.061325,0.882946,7.072855Q0.9409052,7.084385,1,7.084385Q1.0590948,7.084385,1.117054,7.072855Q1.175014,7.061325,1.22961,7.038705Q1.2842069999999999,7.016095,1.333342,6.983265Q1.3824779999999999,6.950435,1.424264,6.908645Q1.46605,6.866855,1.498882,6.817725Q1.5317129999999999,6.768585,1.554328,6.713995Q1.5769419999999998,6.659395,1.588471,6.601435Q1.6,6.543475,1.6,6.484385L1.6,5.265625Q1.6,5.2065301999999996,1.588471,5.148571Q1.5769419999999998,5.090611,1.554328,5.036015Q1.5317129999999999,4.981418,1.498882,4.932283Q1.46605,4.883147,1.424264,4.841361Q1.3824779999999999,4.799575,1.333342,4.766743Q1.2842069999999999,4.733912,1.22961,4.711297Q1.175014,4.688683,1.117054,4.677154Q1.0590948,4.665625,1,4.665625Q0.9409052,4.665625,0.882946,4.677154Q0.824986,4.688683,0.77039,4.711297Q0.715793,4.733912,0.666658,4.766743Q0.617522,4.799575,0.575736,4.841361Q0.5339499999999999,4.883147,0.501118,4.932283Q0.468287,4.981418,0.44567199999999996,5.036015Q0.42305800000000005,5.090611,0.41152900000000003,5.148571Q0.4,5.2065301999999996,0.4,5.265625Z"
                    fill-rule="evenodd" fill="inherit" fill-opacity="1" />
            </g>
            <g>
                <path
                    d="M5.2657470703125,1.6L6.4845070703125,1.6Q6.5435970703125,1.6,6.6015570703125,1.588471Q6.6595170703125,1.5769419999999998,6.7141170703125,1.554328Q6.7687070703125,1.5317129999999999,6.8178470703125,1.498882Q6.8669770703125,1.46605,6.9087670703125,1.424264Q6.9505570703125,1.3824779999999999,6.9833870703125,1.333342Q7.0162170703125,1.2842069999999999,7.0388270703125,1.22961Q7.0614470703125,1.175014,7.0729770703125,1.117054Q7.0845070703125,1.0590948,7.0845070703125,1Q7.0845070703125,0.9409052,7.0729770703125,0.882946Q7.0614470703125,0.824986,7.0388270703125,0.77039Q7.0162170703125,0.715793,6.9833870703125,0.666658Q6.9505570703125,0.617522,6.9087670703125,0.575736Q6.8669770703125,0.5339499999999999,6.8178470703125,0.501118Q6.7687070703125,0.468287,6.7141170703125,0.44567199999999996Q6.6595170703125,0.42305800000000005,6.6015570703125,0.41152900000000003Q6.5435970703125,0.4,6.4845070703125,0.4L5.2657470703125,0.4Q5.2066522703124996,0.4,5.1486930703125,0.41152900000000003Q5.0907330703125,0.42305800000000005,5.0361370703125,0.44567199999999996Q4.9815400703125,0.468287,4.9324050703125,0.501118Q4.8832690703125,0.5339499999999999,4.8414830703125,0.575736Q4.7996970703125,0.617522,4.7668650703125,0.666658Q4.7340340703125,0.715793,4.7114190703125,0.77039Q4.6888050703125,0.824986,4.6772760703125,0.882946Q4.6657470703125,0.9409052,4.6657470703125,1Q4.6657470703125,1.0590948,4.6772760703125,1.117054Q4.6888050703125,1.175014,4.7114190703125,1.22961Q4.7340340703125,1.2842069999999999,4.7668650703125,1.333342Q4.7996970703125,1.3824779999999999,4.8414830703125,1.424264Q4.8832690703125,1.46605,4.9324050703125,1.498882Q4.9815400703125,1.5317129999999999,5.0361370703125,1.554328Q5.0907330703125,1.5769419999999998,5.1486930703125,1.588471Q5.2066522703124996,1.6,5.2657470703125,1.6Z"
                    fill-rule="evenodd" fill="inherit" fill-opacity="1" />
            </g>
            <g>
                <path
                    d="M10.1501270703125,1.6L10.1501270703125,2.82813Q10.1501270703125,2.8872299999999997,10.1616570703125,2.94519Q10.1731870703125,3.00315,10.195807070312501,3.05774Q10.2184170703125,3.11234,10.2512470703125,3.16148Q10.2840770703125,3.21061,10.3258670703125,3.2524Q10.3676570703125,3.29418,10.4167870703125,3.32701Q10.4659270703125,3.35985,10.5205170703125,3.38246Q10.5751170703125,3.40508,10.633077070312499,3.4166Q10.6910370703125,3.42813,10.7501270703125,3.42813Q10.8092270703125,3.42813,10.8671870703125,3.4166Q10.9251470703125,3.40508,10.979737070312499,3.38246Q11.0343370703125,3.35985,11.083477070312501,3.32701Q11.132607070312499,3.29418,11.1743970703125,3.2524Q11.2161770703125,3.21061,11.2490070703125,3.16148Q11.2818470703125,3.11234,11.3044570703125,3.05774Q11.3270770703125,3.00315,11.338597070312499,2.94519Q11.3501270703125,2.8872299999999997,11.3501270703125,2.82813L11.3501270703125,1Q11.3501270703125,0.9409052,11.338597070312499,0.882946Q11.3270770703125,0.824986,11.3044570703125,0.77039Q11.2818470703125,0.715793,11.2490070703125,0.666658Q11.2161770703125,0.617522,11.1743970703125,0.575736Q11.132607070312499,0.5339499999999999,11.083477070312501,0.501118Q11.0343370703125,0.468287,10.979737070312499,0.44567199999999996Q10.9251470703125,0.42305800000000005,10.8671870703125,0.41152900000000003Q10.8092270703125,0.4,10.7501270703125,0.4L8.9219970703125,0.4Q8.8629022703125,0.4,8.8049430703125,0.41152900000000003Q8.746983070312499,0.42305800000000005,8.6923870703125,0.44567199999999996Q8.6377900703125,0.468287,8.5886550703125,0.501118Q8.5395190703125,0.5339499999999999,8.4977330703125,0.575736Q8.4559470703125,0.617522,8.4231150703125,0.666658Q8.3902840703125,0.715793,8.3676690703125,0.77039Q8.3450550703125,0.824986,8.3335260703125,0.882946Q8.3219970703125,0.9409052,8.3219970703125,1Q8.3219970703125,1.0590948,8.3335260703125,1.117054Q8.3450550703125,1.175014,8.3676690703125,1.22961Q8.3902840703125,1.2842069999999999,8.4231150703125,1.333342Q8.4559470703125,1.3824779999999999,8.4977330703125,1.424264Q8.5395190703125,1.46605,8.5886550703125,1.498882Q8.6377900703125,1.5317129999999999,8.6923870703125,1.554328Q8.746983070312499,1.5769419999999998,8.8049430703125,1.588471Q8.8629022703125,1.6,8.9219970703125,1.6L10.1501270703125,1.6Z"
                    fill-rule="evenodd" fill="inherit" fill-opacity="1" />
            </g>
            <g>
                <path
                    d="M1.6,10.150005L1.6,8.921875Q1.6,8.8627802,1.588471,8.804821Q1.5769419999999998,8.746860999999999,1.554328,8.692265Q1.5317129999999999,8.637668,1.498882,8.588533Q1.46605,8.539397,1.424264,8.497611Q1.3824779999999999,8.455825,1.333342,8.422993Q1.2842069999999999,8.390162,1.22961,8.367547Q1.175014,8.344933,1.117054,8.333404Q1.0590948,8.321875,1,8.321875Q0.9409052,8.321875,0.882946,8.333404Q0.824986,8.344933,0.77039,8.367547Q0.715793,8.390162,0.666658,8.422993Q0.617522,8.455825,0.575736,8.497611Q0.5339499999999999,8.539397,0.501118,8.588533Q0.468287,8.637668,0.44567199999999996,8.692265Q0.42305800000000005,8.746860999999999,0.41152900000000003,8.804821Q0.4,8.8627802,0.4,8.921875L0.4,10.750005Q0.4,10.809105,0.41152900000000003,10.867065Q0.42305800000000005,10.925025,0.44567199999999996,10.979614999999999Q0.468287,11.034215,0.501118,11.083355000000001Q0.5339499999999999,11.132484999999999,0.575736,11.174275Q0.617522,11.216055,0.666658,11.248885Q0.715793,11.281725,0.77039,11.304335Q0.824986,11.326955,0.882946,11.338474999999999Q0.9409052,11.350005,1,11.350005L2.82813,11.350005Q2.8872299999999997,11.350005,2.94519,11.338474999999999Q3.00315,11.326955,3.05774,11.304335Q3.11234,11.281725,3.16148,11.248885Q3.21061,11.216055,3.2524,11.174275Q3.29418,11.132484999999999,3.32701,11.083355000000001Q3.35985,11.034215,3.38246,10.979614999999999Q3.40508,10.925025,3.4166,10.867065Q3.42813,10.809105,3.42813,10.750005Q3.42813,10.690915,3.4166,10.632954999999999Q3.40508,10.574995,3.38246,10.520395Q3.35985,10.465805,3.32701,10.416665Q3.29418,10.367535,3.2524,10.325745Q3.21061,10.283955,3.16148,10.251125Q3.11234,10.218295,3.05774,10.195685000000001Q3.00315,10.173065,2.94519,10.161535Q2.8872299999999997,10.150005,2.82813,10.150005L1.6,10.150005Z"
                    fill-rule="evenodd" fill="inherit" fill-opacity="1" />
            </g>
        </g>
        <g clip-path="url(#master_svg1_870_9030/870_8779)">
            <g>
                <path
                    d="M12.999970000000001,6.27493161328125C12.99848,6.15414861328125,12.94599,6.03775561328125,12.85493,5.95475161328125L12.358419999999999,5.49146561328125C12.18308,5.33170791328125,11.91184,5.33584431328125,11.741530000000001,5.50093361328125L5.111848,11.92654861328125C5.00942147,12.025638613281249,4.9740378,12.17113861328125,5.0194779,12.30617861328125C5.0649179,12.44138861328125,5.181591,12.53725861328125,5.324243,12.55647861328125C5.680128,12.603998613281249,6.02223,12.62568861328125,6.35055,12.62568861328125C9.3347,12.62568861328125,11.16534,10.83406861328125,11.53193,10.43954861328125C11.69358,10.26507861328125,11.687339999999999,9.99712861328125,11.51787,9.82974861328125L10.56434,8.83915861328125L12.86365,6.59763861328125C12.951740000000001,6.51362861328125,13.00146,6.3958986132812505,12.999970000000001,6.27493161328125Z"
                    fill="#8C8C8C" fill-opacity="1" />
            </g>
        </g>
    </g>
</svg>