<svg xmlns="http://www.w3.org/2000/svg" xmlns:xlink="http://www.w3.org/1999/xlink" fill="inherit"
    version="1.1" width="13" height="13" viewBox="0 0 13 13">
    <defs>
        <clipPath id="master_svg0_912_00842">
            <rect x="0" y="0" width="13" height="13" rx="0" />
        </clipPath>
    </defs>
    <g clip-path="url(#master_svg0_912_00842)">
        <g>
            <path
                d="M1.025,11.375L1.025,1.625Q1.025,1.5659052,1.036529,1.507946Q1.0480580000000002,1.449986,1.070672,1.39539Q1.0932870000000001,1.3407930000000001,1.126118,1.291658Q1.15895,1.2425220000000001,1.200736,1.200736Q1.2425220000000001,1.15895,1.291658,1.126118Q1.3407930000000001,1.0932870000000001,1.39539,1.070672Q1.449986,1.0480580000000002,1.507946,1.036529Q1.5659052,1.025,1.625,1.025L11.375,1.025Q11.43409,1.025,11.49205,1.036529Q11.55001,1.0480580000000002,11.60461,1.070672Q11.6592,1.0932870000000001,11.7083,1.126118Q11.7575,1.15895,11.7993,1.200736Q11.8411,1.2425220000000001,11.8739,1.291658Q11.9067,1.3407930000000001,11.9293,1.39539Q11.9519,1.449986,11.9635,1.507946Q11.975,1.5659052,11.975,1.625L11.975,11.375Q11.975,11.43409,11.9635,11.49205Q11.9519,11.55001,11.9293,11.60461Q11.9067,11.6592,11.8739,11.7083Q11.841,11.7575,11.7993,11.7993Q11.7575,11.8411,11.7083,11.8739Q11.6592,11.9067,11.60461,11.9293Q11.55001,11.9519,11.49205,11.9635Q11.43409,11.975,11.375,11.975L1.625,11.975Q1.5659052,11.975,1.507946,11.9635Q1.449986,11.9519,1.39539,11.9293Q1.3407930000000001,11.9067,1.291658,11.8739Q1.2425220000000001,11.841,1.200736,11.7993Q1.15895,11.7575,1.126118,11.7083Q1.0932870000000001,11.6592,1.070672,11.60461Q1.0480580000000002,11.55001,1.036529,11.49205Q1.025,11.43409,1.025,11.375ZM2.225,2.225L2.225,10.775L10.775,10.775L10.775,2.225L2.225,2.225Z"
                fill="inherit" fill-opacity="1" />
        </g>
        <g>
            <path
                d="M8.27557,8.3091948828125L8.27619,8.3097248828125Q8.35775,8.3796348828125,8.4585,8.4169048828125Q8.559249999999999,8.4541748828125,8.66667,8.4541748828125Q8.725760000000001,8.4541748828125,8.783719999999999,8.4426448828125Q8.84168,8.4311148828125,8.89628,8.408504882812501Q8.95087,8.3858848828125,9.00001,8.3530548828125Q9.049140000000001,8.3202248828125,9.09093,8.2784348828125Q9.132719999999999,8.2366548828125,9.16555,8.1875148828125Q9.19838,8.138384882812499,9.22099,8.0837848828125Q9.24361,8.0291848828125,9.25514,7.9712248828125Q9.266670000000001,7.9132648828125,9.266670000000001,7.8541748828125Q9.266670000000001,7.7228048828125,9.21177,7.6034648828125Q9.156880000000001,7.4841148828125,9.05714,7.3986248828125L9.05704,7.3985348828125L5.63004,4.4611078828125Q5.30117,4.1791948828125,4.86803,4.1864138828125Q4.43491,4.1936318828125,4.115600000000001,4.4863548828125L1.219565,7.1410448828124995Q1.126582,7.2262848828125,1.0757910000000002,7.3417448828125Q1.025,7.4572048828124995,1.025,7.5833448828125Q1.025,7.6424348828125,1.036529,7.7003948828125Q1.0480580000000002,7.7583548828125,1.070672,7.8129548828125Q1.0932870000000001,7.8675448828125,1.126118,7.9166848828125005Q1.15895,7.9658148828125,1.200736,8.007604882812501Q1.2425220000000001,8.0493948828125,1.291658,8.0822248828125Q1.3407930000000001,8.115054882812501,1.39539,8.1376648828125Q1.449986,8.1602848828125,1.507946,8.1718148828125Q1.5659052,8.1833448828125,1.625,8.1833448828125Q1.737586,8.1833448828125,1.842514,8.1425248828125Q1.947441,8.1017148828125,2.0304349999999998,8.0256348828125L4.8883600000000005,5.4058718828125L8.27557,8.3091948828125Z"
                fill-rule="evenodd" fill="inherit" fill-opacity="1" />
        </g>
        <g>
            <path
                d="M9.265284375,5.66733501953125L11.015654375,6.9801050195312495Q11.175654375,7.1001050195312505,11.375654375,7.1001050195312505Q11.434744375000001,7.1001050195312505,11.492704375,7.08857501953125Q11.550664375,7.0770450195312495,11.605264375,7.05443501953125Q11.659854375,7.03181501953125,11.708994375,6.99898501953125Q11.758124375000001,6.96615501953125,11.799914375,6.92436501953125Q11.841704374999999,6.88258501953125,11.874534375,6.83344501953125Q11.907364375,6.78431501953125,11.929974375,6.72971501953125Q11.952594375,6.67511501953125,11.964124375,6.61715501953125Q11.975654375000001,6.55919501953125,11.975654375000001,6.50010501953125Q11.975654375000001,6.35846501953125,11.912304375,6.23177501953125Q11.848964375000001,6.10508501953125,11.735654375,6.02010401953125L11.735504375,6.01999601953125L9.944814375,4.67698801953125Q9.603914375,4.42132301953125,9.178884374999999,4.45152101953125Q8.753844375,4.48172101953125,8.452543375,4.78301801953125L7.159720375,6.07584501953125Q7.075329375,6.16023501953125,7.029656375,6.27049501953125Q6.983984375,6.38075501953125,6.983984375,6.50010501953125Q6.983984375,6.55919501953125,6.995513375,6.61715501953125Q7.007042375,6.67511501953125,7.029656375,6.72971501953125Q7.052271375,6.78431501953125,7.085102375,6.83344501953125Q7.117934375,6.88258501953125,7.159720375,6.92436501953125Q7.201506375,6.96615501953125,7.250642375,6.99898501953125Q7.299777375,7.03181501953125,7.354374375,7.05443501953125Q7.408970375,7.0770450195312495,7.466930375,7.08857501953125Q7.5248895749999996,7.1001050195312505,7.583984375,7.1001050195312505Q7.703331375,7.1001050195312505,7.813594375,7.05443501953125Q7.923857375,7.00876501953125,8.008248375,6.92436501953125L9.265284375,5.66733501953125Z"
                fill-rule="evenodd" fill="inherit" fill-opacity="1" />
        </g>
    </g>
</svg>