<svg xmlns="http://www.w3.org/2000/svg" xmlns:xlink="http://www.w3.org/1999/xlink"
    xmlns:xhtml="http://www.w3.org/1999/xhtml" data-v-762203b5="" data-v-a9142392="" width="14"
    height="14" viewBox="2818 1129 14 14" version="1.1" preserveAspectRatio="xMinYMin meet"
    overflow="visible" style="background-color: transparent;">
    <g style="transform:matrix(1,0,0,1,2818,1129);">
        <g clip-path="url(#clippath-artboard-3805)">
            <svg xmlns="http://www.w3.org/2000/svg" xmlns:xlink="http://www.w3.org/1999/xlink"
                xmlns:xhtml="http://www.w3.org/1999/xhtml" preserveAspectRatio="xMinYMin meet"
                overflow="hidden" width="14" height="14" viewBox="0 0 14 14">
                <clipPath id="clippath-artboard-3805">
                    <path
                        d="M 1.0000000000000002 0 L 13 0 C 13.552284749830793 0 14 0.4477152501692069 14 1.0000000000000002 L 14 13 C 14 13.552284749830793 13.552284749830793 14 13 14 L 1.0000000000000002 14 C 0.4477152501692069 14 0 13.552284749830793 0 13 L 0 1.0000000000000002 C 0 0.4477152501692069 0.4477152501692069 0 1.0000000000000002 0 Z"
                        clip-rule="evenodd" />
                </clipPath>
                <g style="transform:matrix(1,0,0,1,2.3333333333333335,2.3333333333333335);">
                    <path
                        d="M 2.33333 1 L 2.33333 3.08333 C 2.33333 3.63562 1.88562 4.08333 1.33333 4.08333 L 1 4.08333 C 0.447715 4.08333 4.44089e-16 3.63562 4.44089e-16 3.08333 L 0 1 C 0 0.447715 0.447715 2.09346e-16 1 1.4803e-16 L 1.33333 1.11022e-16 C 1.88562 4.97064e-17 2.33333 0.447715 2.33333 1 Z M 2.33333 6.25 L 2.33333 8.33333 C 2.33333 8.88562 1.88562 9.33333 1.33333 9.33333 L 1 9.33333 C 0.447715 9.33333 4.44089e-16 8.88562 4.44089e-16 8.33333 L 0 6.25 C 0 5.69772 0.447715 5.25 1 5.25 L 1.33333 5.25 C 1.88562 5.25 2.33333 5.69772 2.33333 6.25 Z M 9.33333 1 L 9.33333 3.08333 C 9.33333 3.63562 8.88562 4.08333 8.33333 4.08333 L 8 4.08333 C 7.44772 4.08333 7 3.63562 7 3.08333 L 7 1 C 7 0.447715 7.44772 2.09346e-16 8 1.4803e-16 L 8.33333 1.11022e-16 C 8.88562 4.97064e-17 9.33333 0.447715 9.33333 1 Z M 5.83333 6.25 L 5.83333 8.33333 C 5.83333 8.88562 5.38562 9.33333 4.83333 9.33333 L 4.5 9.33333 C 3.94772 9.33333 3.5 8.88562 3.5 8.33333 L 3.5 6.25 C 3.5 5.69772 3.94772 5.25 4.5 5.25 L 4.83333 5.25 C 5.38562 5.25 5.83333 5.69772 5.83333 6.25 Z M 5.83333 1 L 5.83333 3.08333 C 5.83333 3.63562 5.38562 4.08333 4.83333 4.08333 L 4.5 4.08333 C 3.94772 4.08333 3.5 3.63562 3.5 3.08333 L 3.5 1 C 3.5 0.447715 3.94772 9.15887e-17 4.5 6.4763e-17 L 4.83333 4.85723e-17 C 5.38562 2.17465e-17 5.83333 0.447715 5.83333 1 Z"
                        fill="rgb(89,89,89)" fill-opacity="1" stroke="none" stroke-width="0"
                        fill-rule="evenodd" />
                </g>
            </svg>
        </g>
    </g>
</svg>