<svg xmlns="http://www.w3.org/2000/svg" xmlns:xlink="http://www.w3.org/1999/xlink" fill="none"
    version="1.1" width="14" height="14" viewBox="0 0 14 14">
    <defs>
        <clipPath id="master_svg0_747_09816">
            <rect x="0" y="0" width="14" height="14" rx="0" />
        </clipPath>
    </defs>
    <g clip-path="url(#master_svg0_747_09816)">
        <g>
            <path
                d="M13.3108,7Q13.3108,6.33726,12.8422,5.86863L8.13137,1.157843Q7.66274,0.689214,7,0.689214Q6.33726,0.689214,5.86863,1.157843L1.157843,5.86863Q0.689214,6.33726,0.689214,7Q0.689214,7.66274,1.157843,8.13137L5.86863,12.8422Q6.33726,13.3108,7,13.3108Q7.66274,13.3108,8.13137,12.8422L12.8422,8.13137Q13.3108,7.66274,13.3108,7ZM7.28284,2.00637L11.9936,6.71716Q12.2765,7,11.9936,7.28284L7.28284,11.9936Q7,12.2765,6.71716,11.9936L2.00637,7.28284Q1.88921,7.16569,1.88921,7Q1.88921,6.83431,2.00637,6.71716L6.71716,2.00637Q6.83431,1.88921,7,1.88921Q7.16569,1.88921,7.28284,2.00637Z"
                fill-rule="evenodd" fill="#7F58F9" fill-opacity="1" />
        </g>
        <g
            transform="matrix(0.7071067690849304,0.7071067690849304,-0.7071067690849304,0.7071067690849304,3.9730485315558326,-4.156484671602811)">
            <rect x="7.00384521484375" y="2.7176513671875" width="6.056147575378418"
                height="6.068322658538818" rx="0.5" fill="#B7A4F3" fill-opacity="1" />
        </g>
    </g>
</svg>