<svg xmlns="http://www.w3.org/2000/svg" xmlns:xlink="http://www.w3.org/1999/xlink" fill="none" version="1.1" width="13" height="13" viewBox="0 0 13 13"><defs><clipPath id="master_svg0_912_00802"><rect x="0" y="0" width="13" height="13" rx="0"/></clipPath></defs><g clip-path="url(#master_svg0_912_00802)"><g><path d="M1.30078125,2.65L11.70078125,2.65Q11.75988125,2.65,11.81788125,2.661529Q11.87578125,2.673058,11.93038125,2.695672Q11.98498125,2.718287,12.03408125,2.751118Q12.08328125,2.78395,12.12508125,2.825736Q12.16678125,2.867522,12.19968125,2.916658Q12.23248125,2.965793,12.25508125,3.02039Q12.27768125,3.074986,12.28928125,3.132946Q12.30078125,3.1909052,12.30078125,3.25Q12.30078125,3.3090948,12.28928125,3.367054Q12.27768125,3.425014,12.25508125,3.47961Q12.23248125,3.534207,12.19968125,3.583342Q12.16678125,3.632478,12.12508125,3.674264Q12.08328125,3.71605,12.03408125,3.748882Q11.98498125,3.781713,11.93038125,3.804328Q11.87578125,3.826942,11.81788125,3.838471Q11.75988125,3.85,11.70078125,3.85L1.30078125,3.85Q1.24168645,3.85,1.18372725,3.838471Q1.12576725,3.826942,1.07117125,3.804328Q1.0165742500000001,3.781713,0.96743925,3.748882Q0.91830325,3.71605,0.87651725,3.674264Q0.8347312499999999,3.632478,0.80189925,3.583342Q0.76906825,3.534207,0.74645325,3.47961Q0.72383925,3.425014,0.71231025,3.367054Q0.70078125,3.3090948,0.70078125,3.25Q0.70078125,3.1909052,0.71231025,3.132946Q0.72383925,3.074986,0.74645325,3.02039Q0.76906825,2.965793,0.80189925,2.916658Q0.8347312499999999,2.867522,0.87651725,2.825736Q0.91830325,2.78395,0.96743925,2.751118Q1.0165742500000001,2.718287,1.07117125,2.695672Q1.12576725,2.673058,1.18372725,2.661529Q1.24168645,2.65,1.30078125,2.65Z" fill-rule="evenodd" fill="#595959" fill-opacity="1"/></g><g><path d="M1.30078125,9.15L11.70078125,9.15Q11.75988125,9.15,11.81788125,9.161529Q11.87578125,9.173058,11.93038125,9.195672Q11.98498125,9.218287,12.03408125,9.251118Q12.08328125,9.28395,12.12508125,9.325736Q12.16678125,9.367522,12.19968125,9.416658Q12.23248125,9.465793,12.25508125,9.52039Q12.27768125,9.574985999999999,12.28928125,9.632946Q12.30078125,9.6909052,12.30078125,9.75Q12.30078125,9.8090948,12.28928125,9.867054Q12.27768125,9.925014000000001,12.25508125,9.97961Q12.23248125,10.034207,12.19968125,10.083342Q12.16678125,10.132478,12.12508125,10.174264Q12.08328125,10.21605,12.03408125,10.248882Q11.98498125,10.281713,11.93038125,10.304328Q11.87578125,10.326942,11.81788125,10.338471Q11.75988125,10.35,11.70078125,10.35L1.30078125,10.35Q1.24168645,10.35,1.18372725,10.338471Q1.12576725,10.326942,1.07117125,10.304328Q1.0165742500000001,10.281713,0.96743925,10.248882Q0.91830325,10.21605,0.87651725,10.174264Q0.8347312499999999,10.132478,0.80189925,10.083342Q0.76906825,10.034207,0.74645325,9.97961Q0.72383925,9.925014000000001,0.71231025,9.867054Q0.70078125,9.8090948,0.70078125,9.75Q0.70078125,9.6909052,0.71231025,9.632946Q0.72383925,9.574985999999999,0.74645325,9.52039Q0.76906825,9.465793,0.80189925,9.416658Q0.8347312499999999,9.367522,0.87651725,9.325736Q0.91830325,9.28395,0.96743925,9.251118Q1.0165742500000001,9.218287,1.07117125,9.195672Q1.12576725,9.173058,1.18372725,9.161529Q1.24168645,9.15,1.30078125,9.15Z" fill-rule="evenodd" fill="#595959" fill-opacity="1"/></g><g><path d="M2.65,1.29998779296875Q2.65,1.24089299296875,2.661529,1.18293379296875Q2.673058,1.12497379296875,2.695672,1.07037779296875Q2.718287,1.0157807929687501,2.751118,0.96664579296875Q2.78395,0.91750979296875,2.825736,0.87572379296875Q2.867522,0.8339377929687499,2.916658,0.80110579296875Q2.965793,0.76827479296875,3.02039,0.74565979296875Q3.074986,0.72304579296875,3.132946,0.71151679296875Q3.1909052,0.69998779296875,3.25,0.69998779296875Q3.3090948,0.69998779296875,3.367054,0.71151679296875Q3.425014,0.72304579296875,3.47961,0.74565979296875Q3.534207,0.76827479296875,3.583342,0.80110579296875Q3.632478,0.8339377929687499,3.674264,0.87572379296875Q3.71605,0.91750979296875,3.748882,0.96664579296875Q3.781713,1.0157807929687501,3.804328,1.07037779296875Q3.826942,1.12497379296875,3.838471,1.18293379296875Q3.85,1.24089299296875,3.85,1.29998779296875L3.85,11.69998779296875Q3.85,11.75908779296875,3.838471,11.81708779296875Q3.826942,11.87498779296875,3.804328,11.92958779296875Q3.781713,11.98418779296875,3.748882,12.03328779296875Q3.71605,12.08248779296875,3.674264,12.12428779296875Q3.632478,12.16598779296875,3.583342,12.19888779296875Q3.534207,12.23168779296875,3.47961,12.25428779296875Q3.425014,12.27688779296875,3.367054,12.28848779296875Q3.3090948,12.29998779296875,3.25,12.29998779296875Q3.1909052,12.29998779296875,3.132946,12.28848779296875Q3.074986,12.27688779296875,3.02039,12.25428779296875Q2.965793,12.23168779296875,2.916658,12.19888779296875Q2.867522,12.16598779296875,2.825736,12.12428779296875Q2.78395,12.08248779296875,2.751118,12.03328779296875Q2.718287,11.98418779296875,2.695672,11.92958779296875Q2.673058,11.87498779296875,2.661529,11.81708779296875Q2.65,11.75908779296875,2.65,11.69998779296875L2.65,1.29998779296875Z" fill-rule="evenodd" fill="#595959" fill-opacity="1"/></g><g><path d="M9.15,1.29998779296875Q9.15,1.24089299296875,9.161529,1.18293379296875Q9.173058,1.12497379296875,9.195672,1.07037779296875Q9.218287,1.0157807929687501,9.251118,0.96664579296875Q9.28395,0.91750979296875,9.325736,0.87572379296875Q9.367522,0.8339377929687499,9.416658,0.80110579296875Q9.465793,0.76827479296875,9.52039,0.74565979296875Q9.574985999999999,0.72304579296875,9.632946,0.71151679296875Q9.6909052,0.69998779296875,9.75,0.69998779296875Q9.8090948,0.69998779296875,9.867054,0.71151679296875Q9.925014000000001,0.72304579296875,9.97961,0.74565979296875Q10.034207,0.76827479296875,10.083342,0.80110579296875Q10.132478,0.8339377929687499,10.174264,0.87572379296875Q10.21605,0.91750979296875,10.248882,0.96664579296875Q10.281713,1.0157807929687501,10.304328,1.07037779296875Q10.326942,1.12497379296875,10.338471,1.18293379296875Q10.35,1.24089299296875,10.35,1.29998779296875L10.35,11.69998779296875Q10.35,11.75908779296875,10.338471,11.81708779296875Q10.326942,11.87498779296875,10.304328,11.92958779296875Q10.281713,11.98418779296875,10.248882,12.03328779296875Q10.21605,12.08248779296875,10.174264,12.12428779296875Q10.132478,12.16598779296875,10.083342,12.19888779296875Q10.034207,12.23168779296875,9.97961,12.25428779296875Q9.925014000000001,12.27688779296875,9.867054,12.28848779296875Q9.8090948,12.29998779296875,9.75,12.29998779296875Q9.6909052,12.29998779296875,9.632946,12.28848779296875Q9.574985999999999,12.27688779296875,9.52039,12.25428779296875Q9.465793,12.23168779296875,9.416658,12.19888779296875Q9.367522,12.16598779296875,9.325736,12.12428779296875Q9.28395,12.08248779296875,9.251118,12.03328779296875Q9.218287,11.98418779296875,9.195672,11.92958779296875Q9.173058,11.87498779296875,9.161529,11.81708779296875Q9.15,11.75908779296875,9.15,11.69998779296875L9.15,1.29998779296875Z" fill-rule="evenodd" fill="#595959" fill-opacity="1"/></g></g></svg>