<svg xmlns="http://www.w3.org/2000/svg" xmlns:xlink="http://www.w3.org/1999/xlink" fill="none" version="1.1" width="13" height="13" viewBox="0 0 13 13"><defs><clipPath id="master_svg0_912_00835"><rect x="0" y="0" width="13" height="13" rx="0"/></clipPath></defs><g clip-path="url(#master_svg0_912_00835)"><g><path d="M10.232685625,2.225L10.232685625,2.9611Q10.232685625,3.0202,10.244205625,3.07816Q10.255735625,3.13612,10.278355625,3.19071Q10.300965625,3.24531,10.333795625,3.29444Q10.366635625,3.34358,10.408415625,3.38537Q10.450205625,3.42715,10.499335625,3.45998Q10.548475625,3.49281,10.603075625,3.5154300000000003Q10.657665625,3.53804,10.715625625,3.54957Q10.773585625,3.5610999999999997,10.832685625,3.5610999999999997Q10.891775625,3.5610999999999997,10.949735625,3.54957Q11.007695625,3.53804,11.062295625,3.5154300000000003Q11.116885625,3.49281,11.166025625,3.45998Q11.215155625,3.42715,11.256945625,3.38537Q11.298735625,3.34358,11.331565625,3.29444Q11.364395625,3.24531,11.387005625,3.19071Q11.409625625,3.13612,11.421155625,3.07816Q11.432685625,3.0202,11.432685625,2.9611L11.432685625,1.625Q11.432685625,1.5659052,11.421155625,1.507946Q11.409625625,1.449986,11.387005625,1.39539Q11.364395625,1.3407930000000001,11.331565625,1.291658Q11.298735625,1.2425220000000001,11.256945625,1.200736Q11.215155625,1.15895,11.166025625,1.126118Q11.116885625,1.0932870000000001,11.062295625,1.070672Q11.007695625,1.0480580000000002,10.949735625,1.036529Q10.891775625,1.025,10.832685625,1.025L2.166015625,1.025Q2.106920825,1.025,2.048961625,1.036529Q1.991001625,1.0480580000000002,1.936405625,1.070672Q1.8818086250000001,1.0932870000000001,1.832673625,1.126118Q1.7835376250000001,1.15895,1.741751625,1.200736Q1.699965625,1.2425220000000001,1.667133625,1.291658Q1.6343026250000001,1.3407930000000001,1.611687625,1.39539Q1.5890736250000002,1.449986,1.577544625,1.507946Q1.566015625,1.5659052,1.566015625,1.625L1.566015625,2.9611Q1.566015625,3.0202,1.577544625,3.07816Q1.5890736250000002,3.13612,1.611687625,3.19071Q1.6343026250000001,3.24531,1.667133625,3.29444Q1.699965625,3.34358,1.741751625,3.38537Q1.7835376250000001,3.42715,1.832673625,3.45998Q1.8818086250000001,3.49281,1.936405625,3.5154300000000003Q1.991001625,3.53804,2.048961625,3.54957Q2.106920825,3.5610999999999997,2.166015625,3.5610999999999997Q2.225110425,3.5610999999999997,2.283069625,3.54957Q2.341029625,3.53804,2.395625625,3.5154300000000003Q2.450222625,3.49281,2.499357625,3.45998Q2.548493625,3.42715,2.590279625,3.38537Q2.632065625,3.34358,2.664897625,3.29444Q2.697728625,3.24531,2.720343625,3.19071Q2.742957625,3.13612,2.754486625,3.07816Q2.766015625,3.0202,2.766015625,2.9611L2.766015625,2.225L10.232685625,2.225Z" fill-rule="evenodd" fill="#595959" fill-opacity="1"/></g><g><path d="M5.9,1.625Q5.9,1.5659052,5.911529,1.507946Q5.923058,1.449986,5.945672,1.39539Q5.968287,1.3407930000000001,6.001118,1.291658Q6.03395,1.2425220000000001,6.075736,1.200736Q6.117522,1.15895,6.166658,1.126118Q6.215793,1.0932870000000001,6.27039,1.070672Q6.324986,1.0480580000000002,6.382946,1.036529Q6.4409051999999996,1.025,6.5,1.025Q6.5590948000000004,1.025,6.617054,1.036529Q6.675014,1.0480580000000002,6.72961,1.070672Q6.784207,1.0932870000000001,6.833342,1.126118Q6.882478,1.15895,6.924264,1.200736Q6.96605,1.2425220000000001,6.998882,1.291658Q7.031713,1.3407930000000001,7.054328,1.39539Q7.076942,1.449986,7.088471,1.507946Q7.1,1.5659052,7.1,1.625L7.1,11.375Q7.1,11.43409,7.088471,11.49205Q7.076942,11.55001,7.054328,11.60461Q7.031713,11.6592,6.998882,11.7083Q6.96605,11.7575,6.924264,11.7993Q6.882478,11.8411,6.833342,11.8739Q6.784207,11.9067,6.72961,11.9293Q6.675014,11.9519,6.617054,11.9635Q6.5590948000000004,11.975,6.5,11.975Q6.4409051999999996,11.975,6.382946,11.9635Q6.324986,11.9519,6.27039,11.9293Q6.215793,11.9067,6.166658,11.8739Q6.117522,11.841,6.075736,11.7993Q6.03395,11.7575,6.001118,11.7083Q5.968287,11.6592,5.945672,11.60461Q5.923058,11.55001,5.911529,11.49205Q5.9,11.43409,5.9,11.375L5.9,1.625Z" fill-rule="evenodd" fill="#595959" fill-opacity="1"/></g><g><path d="M4.333984375,10.775L8.667314375,10.775Q8.726414375000001,10.775,8.784374374999999,10.786529Q8.842334375,10.798058,8.896924375000001,10.820672Q8.951524375,10.843287,9.000654375,10.876118Q9.049794375000001,10.90895,9.091584375,10.950736Q9.133364375,10.992522,9.166194375,11.041658Q9.199034375,11.090793,9.221644375,11.14539Q9.244254375,11.199985999999999,9.255784375000001,11.257946Q9.267314375,11.3159052,9.267314375,11.375Q9.267314375,11.4340948,9.255784375000001,11.492054Q9.244264375,11.550014000000001,9.221644375,11.60461Q9.199034375,11.659207,9.166194375,11.708342Q9.133364375,11.757478,9.091584375,11.799264Q9.049794375000001,11.84105,9.000654375,11.873882Q8.951524375,11.906713,8.896924375000001,11.929328Q8.842334375,11.951942,8.784374374999999,11.963471Q8.726414375000001,11.975,8.667314375,11.975L4.333984375,11.975Q4.2748895749999996,11.975,4.216930375,11.963471Q4.158970375,11.951942,4.104374375,11.929328Q4.049777375,11.906713,4.000642375,11.873882Q3.951506375,11.84105,3.909720375,11.799264Q3.867934375,11.757478,3.835102375,11.708342Q3.802271375,11.659207,3.779656375,11.60461Q3.757042375,11.550014000000001,3.745513375,11.492054Q3.733984375,11.4340948,3.733984375,11.375Q3.733984375,11.3159052,3.745513375,11.257946Q3.757042375,11.199985999999999,3.779656375,11.14539Q3.802271375,11.090793,3.835102375,11.041658Q3.867934375,10.992522,3.909720375,10.950736Q3.951506375,10.90895,4.000642375,10.876118Q4.049777375,10.843287,4.104374375,10.820672Q4.158970375,10.798058,4.216930375,10.786529Q4.2748895749999996,10.775,4.333984375,10.775Z" fill-rule="evenodd" fill="#595959" fill-opacity="1"/></g></g></svg>