<svg xmlns="http://www.w3.org/2000/svg" xmlns:xlink="http://www.w3.org/1999/xlink"
    version="1.1" width="13" height="13" viewBox="0 0 13 13">
    <defs>
        <clipPath id="master_svg0_912_00858">
            <rect x="0" y="0" width="13" height="13" rx="0" />
        </clipPath>
    </defs>
    <g clip-path="url(#master_svg0_912_00858)">
        <g>
            <path
                d="M1.025,1.625L1.025,11.375Q1.025,11.43409,1.036529,11.49205Q1.0480580000000002,11.55001,1.070672,11.60461Q1.0932870000000001,11.6592,1.126118,11.7083Q1.15895,11.7575,1.200736,11.7993Q1.2425220000000001,11.8411,1.291658,11.8739Q1.3407930000000001,11.9067,1.39539,11.9293Q1.449986,11.9519,1.507946,11.9635Q1.5659052,11.975,1.625,11.975L11.375,11.975Q11.43409,11.975,11.49205,11.9635Q11.55001,11.9519,11.60461,11.9293Q11.6592,11.9067,11.7083,11.8739Q11.7575,11.841,11.7993,11.7993Q11.8411,11.7575,11.8739,11.7083Q11.9067,11.6592,11.9293,11.60461Q11.9519,11.55001,11.9635,11.49205Q11.975,11.43409,11.975,11.375L11.975,1.625Q11.975,1.5659052,11.9635,1.507946Q11.9519,1.449986,11.9293,1.39539Q11.9067,1.3407930000000001,11.8739,1.291658Q11.841,1.2425220000000001,11.7993,1.200736Q11.7575,1.15895,11.7083,1.126118Q11.6592,1.0932870000000001,11.60461,1.070672Q11.55001,1.0480580000000002,11.49205,1.036529Q11.43409,1.025,11.375,1.025L1.625,1.025Q1.5659052,1.025,1.507946,1.036529Q1.449986,1.0480580000000002,1.39539,1.070672Q1.3407930000000001,1.0932870000000001,1.291658,1.126118Q1.2425220000000001,1.15895,1.200736,1.200736Q1.15895,1.2425220000000001,1.126118,1.291658Q1.0932870000000001,1.3407930000000001,1.070672,1.39539Q1.0480580000000002,1.449986,1.036529,1.507946Q1.025,1.5659052,1.025,1.625ZM2.225,10.775L2.225,2.225L10.775,2.225L10.775,10.775L2.225,10.775Z"
                fill-rule="evenodd" fill="inherit" fill-opacity="1" />
        </g>
        <g>
            <path
                d="M1.625,7.525L11.375,7.525Q11.43409,7.525,11.49205,7.536529Q11.55001,7.548058,11.60461,7.570672Q11.6592,7.593287,11.7083,7.626118Q11.7575,7.65895,11.7993,7.700736Q11.8411,7.742522,11.8739,7.791658Q11.9067,7.840793,11.9293,7.89539Q11.9519,7.949986,11.9635,8.007946Q11.975,8.0659052,11.975,8.125Q11.975,8.1840948,11.9635,8.242054Q11.9519,8.300014000000001,11.9293,8.35461Q11.9067,8.409207,11.8739,8.458342Q11.841,8.507478,11.7993,8.549264Q11.7575,8.59105,11.7083,8.623882Q11.6592,8.656713,11.60461,8.679328Q11.55001,8.701942,11.49205,8.713471Q11.43409,8.725,11.375,8.725L1.625,8.725Q1.5659052,8.725,1.507946,8.713471Q1.449986,8.701942,1.39539,8.679328Q1.3407930000000001,8.656713,1.291658,8.623882Q1.2425220000000001,8.59105,1.200736,8.549264Q1.15895,8.507478,1.126118,8.458342Q1.0932870000000001,8.409207,1.070672,8.35461Q1.0480580000000002,8.300014000000001,1.036529,8.242054Q1.025,8.1840948,1.025,8.125Q1.025,8.0659052,1.036529,8.007946Q1.0480580000000002,7.949986,1.070672,7.89539Q1.0932870000000001,7.840793,1.126118,7.791658Q1.15895,7.742522,1.200736,7.700736Q1.2425220000000001,7.65895,1.291658,7.626118Q1.3407930000000001,7.593287,1.39539,7.570672Q1.449986,7.548058,1.507946,7.536529Q1.5659052,7.525,1.625,7.525Z"
                fill-rule="evenodd" fill="inherit" fill-opacity="1" />
        </g>
        <g>
            <path
                d="M1.625,10.775L11.375,10.775Q11.43409,10.775,11.49205,10.786529Q11.55001,10.798058,11.60461,10.820672Q11.6592,10.843287,11.7083,10.876118Q11.7575,10.90895,11.7993,10.950736Q11.8411,10.992522,11.8739,11.041658Q11.9067,11.090793,11.9293,11.14539Q11.9519,11.199985999999999,11.9635,11.257946Q11.975,11.3159052,11.975,11.375Q11.975,11.4340948,11.9635,11.492054Q11.9519,11.550014000000001,11.9293,11.60461Q11.9067,11.659207,11.8739,11.708342Q11.841,11.757478,11.7993,11.799264Q11.7575,11.84105,11.7083,11.873882Q11.6592,11.906713,11.60461,11.929328Q11.55001,11.951942,11.49205,11.963471Q11.43409,11.975,11.375,11.975L1.625,11.975Q1.5659052,11.975,1.507946,11.963471Q1.449986,11.951942,1.39539,11.929328Q1.3407930000000001,11.906713,1.291658,11.873882Q1.2425220000000001,11.84105,1.200736,11.799264Q1.15895,11.757478,1.126118,11.708342Q1.0932870000000001,11.659207,1.070672,11.60461Q1.0480580000000002,11.550014000000001,1.036529,11.492054Q1.025,11.4340948,1.025,11.375Q1.025,11.3159052,1.036529,11.257946Q1.0480580000000002,11.199985999999999,1.070672,11.14539Q1.0932870000000001,11.090793,1.126118,11.041658Q1.15895,10.992522,1.200736,10.950736Q1.2425220000000001,10.90895,1.291658,10.876118Q1.3407930000000001,10.843287,1.39539,10.820672Q1.449986,10.798058,1.507946,10.786529Q1.5659052,10.775,1.625,10.775Z"
                fill-rule="evenodd" fill="inherit" fill-opacity="1" />
        </g>
        <g>
            <path
                d="M1.625,4.275L11.375,4.275Q11.43409,4.275,11.49205,4.286529Q11.55001,4.298058,11.60461,4.320672Q11.6592,4.343287,11.7083,4.376118Q11.7575,4.40895,11.7993,4.450736Q11.8411,4.492522,11.8739,4.541658Q11.9067,4.590793,11.9293,4.64539Q11.9519,4.699986,11.9635,4.757946Q11.975,4.8159051999999996,11.975,4.875Q11.975,4.9340948000000004,11.9635,4.992054Q11.9519,5.050014,11.9293,5.10461Q11.9067,5.159207,11.8739,5.208342Q11.841,5.257478,11.7993,5.299264Q11.7575,5.34105,11.7083,5.373882Q11.6592,5.406713,11.60461,5.429328Q11.55001,5.451942,11.49205,5.463471Q11.43409,5.475,11.375,5.475L1.625,5.475Q1.5659052,5.475,1.507946,5.463471Q1.449986,5.451942,1.39539,5.429328Q1.3407930000000001,5.406713,1.291658,5.373882Q1.2425220000000001,5.34105,1.200736,5.299264Q1.15895,5.257478,1.126118,5.208342Q1.0932870000000001,5.159207,1.070672,5.10461Q1.0480580000000002,5.050014,1.036529,4.992054Q1.025,4.9340948000000004,1.025,4.875Q1.025,4.8159051999999996,1.036529,4.757946Q1.0480580000000002,4.699986,1.070672,4.64539Q1.0932870000000001,4.590793,1.126118,4.541658Q1.15895,4.492522,1.200736,4.450736Q1.2425220000000001,4.40895,1.291658,4.376118Q1.3407930000000001,4.343287,1.39539,4.320672Q1.449986,4.298058,1.507946,4.286529Q1.5659052,4.275,1.625,4.275Z"
                fill-rule="evenodd" fill="inherit" fill-opacity="1" />
        </g>
        <g>
            <path
                d="M1.625,1.025L11.375,1.025Q11.43409,1.025,11.49205,1.036529Q11.55001,1.0480580000000002,11.60461,1.070672Q11.6592,1.0932870000000001,11.7083,1.126118Q11.7575,1.15895,11.7993,1.200736Q11.8411,1.2425220000000001,11.8739,1.291658Q11.9067,1.3407930000000001,11.9293,1.39539Q11.9519,1.449986,11.9635,1.507946Q11.975,1.5659052,11.975,1.625Q11.975,1.6840948,11.9635,1.742054Q11.9519,1.800014,11.9293,1.85461Q11.9067,1.9092069999999999,11.8739,1.958342Q11.841,2.007478,11.7993,2.049264Q11.7575,2.09105,11.7083,2.123882Q11.6592,2.156713,11.60461,2.179328Q11.55001,2.201942,11.49205,2.213471Q11.43409,2.225,11.375,2.225L1.625,2.225Q1.5659052,2.225,1.507946,2.213471Q1.449986,2.201942,1.39539,2.179328Q1.3407930000000001,2.156713,1.291658,2.123882Q1.2425220000000001,2.09105,1.200736,2.049264Q1.15895,2.007478,1.126118,1.958342Q1.0932870000000001,1.9092069999999999,1.070672,1.85461Q1.0480580000000002,1.800014,1.036529,1.742054Q1.025,1.6840948,1.025,1.625Q1.025,1.5659052,1.036529,1.507946Q1.0480580000000002,1.449986,1.070672,1.39539Q1.0932870000000001,1.3407930000000001,1.126118,1.291658Q1.15895,1.2425220000000001,1.200736,1.200736Q1.2425220000000001,1.15895,1.291658,1.126118Q1.3407930000000001,1.0932870000000001,1.39539,1.070672Q1.449986,1.0480580000000002,1.507946,1.036529Q1.5659052,1.025,1.625,1.025Z"
                fill-rule="evenodd" fill="inherit" fill-opacity="1" />
        </g>
        <g>
            <path
                d="M7.525,1.625Q7.525,1.5659052,7.536529,1.507946Q7.548058,1.449986,7.570672,1.39539Q7.593287,1.3407930000000001,7.626118,1.291658Q7.65895,1.2425220000000001,7.700736,1.200736Q7.742522,1.15895,7.791658,1.126118Q7.840793,1.0932870000000001,7.89539,1.070672Q7.949986,1.0480580000000002,8.007946,1.036529Q8.0659052,1.025,8.125,1.025Q8.1840948,1.025,8.242054,1.036529Q8.300014000000001,1.0480580000000002,8.35461,1.070672Q8.409207,1.0932870000000001,8.458342,1.126118Q8.507478,1.15895,8.549264,1.200736Q8.59105,1.2425220000000001,8.623882,1.291658Q8.656713,1.3407930000000001,8.679328,1.39539Q8.701942,1.449986,8.713471,1.507946Q8.725,1.5659052,8.725,1.625L8.725,11.375Q8.725,11.43409,8.713471,11.49205Q8.701942,11.55001,8.679328,11.60461Q8.656713,11.6592,8.623882,11.7083Q8.59105,11.7575,8.549264,11.7993Q8.507478,11.8411,8.458342,11.8739Q8.409207,11.9067,8.35461,11.9293Q8.300014000000001,11.9519,8.242054,11.9635Q8.1840948,11.975,8.125,11.975Q8.0659052,11.975,8.007946,11.9635Q7.949986,11.9519,7.89539,11.9293Q7.840793,11.9067,7.791658,11.8739Q7.742522,11.841,7.700736,11.7993Q7.65895,11.7575,7.626118,11.7083Q7.593287,11.6592,7.570672,11.60461Q7.548058,11.55001,7.536529,11.49205Q7.525,11.43409,7.525,11.375L7.525,1.625Z"
                fill-rule="evenodd" fill="inherit" fill-opacity="1" />
        </g>
        <g>
            <path
                d="M4.275,1.625Q4.275,1.5659052,4.286529,1.507946Q4.298058,1.449986,4.320672,1.39539Q4.343287,1.3407930000000001,4.376118,1.291658Q4.40895,1.2425220000000001,4.450736,1.200736Q4.492522,1.15895,4.541658,1.126118Q4.590793,1.0932870000000001,4.64539,1.070672Q4.699986,1.0480580000000002,4.757946,1.036529Q4.8159051999999996,1.025,4.875,1.025Q4.9340948000000004,1.025,4.992054,1.036529Q5.050014,1.0480580000000002,5.10461,1.070672Q5.159207,1.0932870000000001,5.208342,1.126118Q5.257478,1.15895,5.299264,1.200736Q5.34105,1.2425220000000001,5.373882,1.291658Q5.406713,1.3407930000000001,5.429328,1.39539Q5.451942,1.449986,5.463471,1.507946Q5.475,1.5659052,5.475,1.625L5.475,11.375Q5.475,11.43409,5.463471,11.49205Q5.451942,11.55001,5.429328,11.60461Q5.406713,11.6592,5.373882,11.7083Q5.34105,11.7575,5.299264,11.7993Q5.257478,11.8411,5.208342,11.8739Q5.159207,11.9067,5.10461,11.9293Q5.050014,11.9519,4.992054,11.9635Q4.9340948000000004,11.975,4.875,11.975Q4.8159051999999996,11.975,4.757946,11.9635Q4.699986,11.9519,4.64539,11.9293Q4.590793,11.9067,4.541658,11.8739Q4.492522,11.841,4.450736,11.7993Q4.40895,11.7575,4.376118,11.7083Q4.343287,11.6592,4.320672,11.60461Q4.298058,11.55001,4.286529,11.49205Q4.275,11.43409,4.275,11.375L4.275,1.625Z"
                fill-rule="evenodd" fill="inherit" fill-opacity="1" />
        </g>
    </g>
</svg>