<svg xmlns="http://www.w3.org/2000/svg" xmlns:xlink="http://www.w3.org/1999/xlink" fill="none" version="1.1" width="13" height="13" viewBox="0 0 13 13"><defs><clipPath id="master_svg0_829_9086"><rect x="0" y="0" width="13" height="13" rx="0"/></clipPath></defs><g clip-path="url(#master_svg0_829_9086)"><g><path d="M12.77955,6.5Q12.77955,5.83726,12.31095,5.36863L7.63137,0.689093Q7.16274,0.220464,6.5,0.220464Q5.83726,0.220464,5.36863,0.689093L0.689093,5.36863Q0.220464,5.83726,0.220464,6.5Q0.220464,7.16274,0.689093,7.63137L5.36863,12.31095Q5.83726,12.77955,6.5,12.77955Q7.16274,12.77955,7.63137,12.31095L12.31095,7.63137Q12.77955,7.16274,12.77955,6.5ZM6.78284,1.53762L11.46235,6.21716Q11.57955,6.33431,11.57955,6.5Q11.57955,6.66569,11.46235,6.78284L6.78284,11.46235Q6.66569,11.57955,6.5,11.57955Q6.33431,11.57955,6.21716,11.46235L1.53762,6.78284Q1.42046,6.66569,1.42046,6.5Q1.42046,6.33431,1.53762,6.21716L6.21716,1.53762Q6.33431,1.42046,6.5,1.42046Q6.66569,1.42046,6.78284,1.53762Z" fill-rule="evenodd" fill="#7F58F9" fill-opacity="1"/></g></g></svg>