<svg xmlns="http://www.w3.org/2000/svg" xmlns:xlink="http://www.w3.org/1999/xlink"
    version="1.1" width="13" height="13" viewBox="0 0 13 13">
    <defs>
        <clipPath id="master_svg0_912_00881">
            <rect x="0" y="0" width="13" height="13" rx="0" />
        </clipPath>
    </defs>
    <g clip-path="url(#master_svg0_912_00881)">
        <g>
            <path
                d="M1.95,1.025Q1.487401,1.025,1.209762,1.395286Q1.1743109999999999,1.442566,1.148766,1.495854Q1.1232199999999999,1.5491424,1.108562,1.6063903Q1.093903,1.6636382,1.090694,1.7226459Q1.087486,1.781654,1.0958510000000001,1.840153Q1.104216,1.898653,1.1238329999999999,1.954397Q1.143449,2.010141,1.173564,2.0609859999999998Q1.20368,2.111832,1.243136,2.1558260000000002Q1.282591,2.1998189999999997,1.329872,2.23527Q1.425359,2.306866,1.5409766,2.336471Q1.6565939,2.366075,1.77474,2.3491809999999997Q1.935724,2.326162,2.063051,2.225L4.15502,2.225Q4.21411,2.225,4.272069999999999,2.213471Q4.33003,2.201942,4.38463,2.179328Q4.43923,2.156713,4.48836,2.123882Q4.5375,2.09105,4.57928,2.049264Q4.62107,2.007478,4.6539,1.958342Q4.68673,1.9092069999999999,4.709350000000001,1.85461Q4.73196,1.800014,4.7434899999999995,1.742054Q4.75502,1.6840948,4.75502,1.625Q4.75502,1.5659052,4.7434899999999995,1.507946Q4.73196,1.449986,4.709350000000001,1.39539Q4.68673,1.3407930000000001,4.6539,1.291658Q4.62107,1.2425220000000001,4.57928,1.200736Q4.5375,1.15895,4.48836,1.126118Q4.43923,1.0932870000000001,4.38463,1.070672Q4.33003,1.0480580000000002,4.272069999999999,1.036529Q4.21411,1.025,4.15502,1.025L1.95,1.025ZM9.055019999999999,1.025L6.55502,1.025Q6.49592,1.025,6.43797,1.036529Q6.38001,1.0480580000000002,6.32541,1.070672Q6.27081,1.0932870000000001,6.22168,1.126118Q6.17254,1.15895,6.13076,1.200736Q6.08897,1.2425220000000001,6.05614,1.291658Q6.02331,1.3407930000000001,6.00069,1.39539Q5.97808,1.449986,5.96655,1.507946Q5.95502,1.5659052,5.95502,1.625Q5.95502,1.6840948,5.96655,1.742054Q5.97808,1.800014,6.00069,1.85461Q6.02331,1.9092069999999999,6.05614,1.958342Q6.08897,2.007478,6.13076,2.049264Q6.17254,2.09105,6.22168,2.123882Q6.27081,2.156713,6.32541,2.179328Q6.38001,2.201942,6.43797,2.213471Q6.49592,2.225,6.55502,2.225L9.055019999999999,2.225Q9.11411,2.225,9.17207,2.213471Q9.23003,2.201942,9.28463,2.179328Q9.33923,2.156713,9.388359999999999,2.123882Q9.4375,2.09105,9.47928,2.049264Q9.52107,2.007478,9.553899999999999,1.958342Q9.58673,1.9092069999999999,9.60935,1.85461Q9.63196,1.800014,9.64349,1.742054Q9.65502,1.6840948,9.65502,1.625Q9.65502,1.5659052,9.64349,1.507946Q9.63196,1.449986,9.60935,1.39539Q9.58673,1.3407930000000001,9.553899999999999,1.291658Q9.52107,1.2425220000000001,9.47928,1.200736Q9.4375,1.15895,9.388359999999999,1.126118Q9.33923,1.0932870000000001,9.28463,1.070672Q9.23003,1.0480580000000002,9.17207,1.036529Q9.11411,1.025,9.055019999999999,1.025ZM11.975,1.95Q11.975,1.810392,11.934,1.6774272Q11.9166,1.62095376,11.8885,1.568961Q11.8604,1.516968,11.8227,1.471454Q11.7851,1.42594,11.7392,1.388654Q11.6934,1.351368,11.6411,1.323743Q11.58888,1.2961179999999999,11.53225,1.279215Q11.47563,1.262312,11.41679,1.256781Q11.35796,1.25125,11.29917,1.257303Q11.24039,1.263357,11.18392,1.280762Q11.06986,1.315914,10.97794,1.392036Q10.88602,1.468158,10.83023,1.5736623Q10.78023,1.6682213,10.76598,1.774235Q10.75173,1.880248,10.775,1.984654L10.775,4.357530000000001Q10.775,4.41662,10.78653,4.47458Q10.79806,4.53254,10.82067,4.58714Q10.84329,4.64173,10.87612,4.69087Q10.90895,4.74001,10.95074,4.78179Q10.99252,4.82358,11.04166,4.85641Q11.09079,4.88924,11.14539,4.911849999999999Q11.19998,4.93447,11.25795,4.946Q11.3159,4.95753,11.375,4.95753Q11.43409,4.95753,11.49205,4.946Q11.55001,4.93447,11.60461,4.911849999999999Q11.6592,4.88924,11.7083,4.85641Q11.7575,4.82358,11.7993,4.78179Q11.8411,4.74001,11.8739,4.69087Q11.9067,4.64173,11.9293,4.58714Q11.9519,4.53254,11.9635,4.47458Q11.975,4.41662,11.975,4.357530000000001L11.975,1.95ZM1.025,4.1474899999999995L1.025,6.64749Q1.025,6.70659,1.036529,6.76455Q1.0480580000000002,6.8225,1.070672,6.8771Q1.0932870000000001,6.9317,1.126118,6.98083Q1.15895,7.02997,1.200736,7.07176Q1.2425220000000001,7.11354,1.291658,7.14637Q1.3407930000000001,7.1792,1.39539,7.20182Q1.449986,7.22443,1.507946,7.23596Q1.5659052,7.24749,1.625,7.24749Q1.6840948,7.24749,1.742054,7.23596Q1.800014,7.22443,1.85461,7.20182Q1.9092069999999999,7.1792,1.958342,7.14637Q2.007478,7.11354,2.049264,7.07176Q2.09105,7.02997,2.123882,6.98083Q2.156713,6.9317,2.179328,6.8771Q2.201942,6.8225,2.213471,6.76455Q2.225,6.70659,2.225,6.64749L2.225,4.1474899999999995Q2.225,4.0884,2.213471,4.0304400000000005Q2.201942,3.97248,2.179328,3.91788Q2.156713,3.86329,2.123882,3.81415Q2.09105,3.76501,2.049264,3.72323Q2.007478,3.68144,1.958342,3.64861Q1.9092069999999999,3.61578,1.85461,3.59316Q1.800014,3.57055,1.742054,3.5590200000000003Q1.6840948,3.54749,1.625,3.54749Q1.5659052,3.54749,1.507946,3.5590200000000003Q1.449986,3.57055,1.39539,3.59316Q1.3407930000000001,3.61578,1.291658,3.64861Q1.2425220000000001,3.68144,1.200736,3.72323Q1.15895,3.76501,1.126118,3.81415Q1.0932870000000001,3.86329,1.070672,3.91788Q1.0480580000000002,3.97248,1.036529,4.0304400000000005Q1.025,4.0884,1.025,4.1474899999999995ZM11.975,9.25753L11.975,6.75753Q11.975,6.69843,11.9635,6.64047Q11.9519,6.58251,11.9293,6.52792Q11.9067,6.47332,11.8739,6.42418Q11.841,6.37505,11.7993,6.33326Q11.7575,6.29148,11.7083,6.25864Q11.6592,6.22581,11.60461,6.2032Q11.55001,6.18058,11.49205,6.16906Q11.43409,6.15753,11.375,6.15753Q11.3159,6.15753,11.25795,6.16906Q11.19998,6.18058,11.14539,6.2032Q11.09079,6.22581,11.04166,6.25864Q10.99252,6.29148,10.95074,6.33326Q10.90895,6.37505,10.87612,6.42418Q10.84329,6.47332,10.82067,6.52792Q10.79806,6.58251,10.78653,6.64047Q10.775,6.69843,10.775,6.75753L10.775,9.25753Q10.775,9.31662,10.78653,9.37458Q10.79806,9.43254,10.82067,9.48714Q10.84329,9.541730000000001,10.87612,9.590869999999999Q10.90895,9.64,10.95074,9.68179Q10.99252,9.72358,11.04166,9.75641Q11.09079,9.78924,11.14539,9.81185Q11.19998,9.83447,11.25795,9.846Q11.3159,9.85753,11.375,9.85753Q11.43409,9.85753,11.49205,9.846Q11.55001,9.83447,11.60461,9.81185Q11.6592,9.78924,11.7083,9.75641Q11.7575,9.72358,11.7993,9.68179Q11.8411,9.64,11.8739,9.590869999999999Q11.9067,9.541730000000001,11.9293,9.48714Q11.9519,9.43254,11.9635,9.37458Q11.975,9.31662,11.975,9.25753ZM1.295933,11.7041Q1.5668562,11.975,1.95,11.975Q2.009095,11.975,2.067054,11.9635Q2.125013,11.9519,2.1796100000000003,11.9293Q2.234207,11.9067,2.283342,11.8739Q2.332478,11.841,2.374264,11.7993Q2.4160500000000003,11.7575,2.4488820000000002,11.7083Q2.481713,11.6592,2.504328,11.60461Q2.526942,11.55001,2.538471,11.49205Q2.55,11.43409,2.55,11.375Q2.55,11.29238,2.527671,11.21284Q2.505343,11.1333,2.462348,11.06275Q2.419352,10.9922,2.35889,10.9359Q2.298428,10.8796,2.225,10.84173L2.225,9.04749Q2.225,8.9884,2.213471,8.93044Q2.201942,8.87248,2.179328,8.817879999999999Q2.156713,8.76329,2.123882,8.71415Q2.09105,8.665009999999999,2.049264,8.62323Q2.007478,8.58144,1.958342,8.54861Q1.9092069999999999,8.51578,1.85461,8.49316Q1.800014,8.47055,1.742054,8.459019999999999Q1.6840948,8.44749,1.625,8.44749Q1.5659052,8.44749,1.507946,8.459019999999999Q1.449986,8.47055,1.39539,8.49316Q1.3407930000000001,8.51578,1.291658,8.54861Q1.2425220000000001,8.58144,1.200736,8.62323Q1.15895,8.665009999999999,1.126118,8.71415Q1.0932870000000001,8.76328,1.070672,8.817879999999999Q1.0480580000000002,8.87248,1.036529,8.93044Q1.025,8.9884,1.025,9.04749L1.025,11.05Q1.025,11.43316,1.295933,11.7041ZM3.5399700000000003,11.975L6.03997,11.975Q6.09906,11.975,6.15702,11.9635Q6.21498,11.9519,6.26958,11.9293Q6.32418,11.9067,6.37331,11.8739Q6.42245,11.841,6.46423,11.7993Q6.50602,11.7575,6.53885,11.7083Q6.57168,11.6592,6.5943,11.60461Q6.61691,11.55001,6.62844,11.49205Q6.63997,11.43409,6.63997,11.375Q6.63997,11.3159,6.62844,11.25795Q6.61691,11.19998,6.5943,11.14539Q6.57168,11.09079,6.53885,11.04166Q6.50602,10.99252,6.46423,10.95074Q6.42245,10.90895,6.37331,10.87612Q6.32418,10.84329,6.26958,10.82067Q6.21498,10.79806,6.15702,10.78653Q6.09906,10.775,6.03997,10.775L3.5399700000000003,10.775Q3.48087,10.775,3.42291,10.78653Q3.36496,10.79806,3.31036,10.82067Q3.25576,10.84329,3.20663,10.87612Q3.15749,10.90895,3.11571,10.95074Q3.07392,10.99252,3.04109,11.04166Q3.00826,11.09079,2.98564,11.14539Q2.96303,11.19998,2.9515000000000002,11.25795Q2.9399699999999998,11.3159,2.9399699999999998,11.375Q2.9399699999999998,11.43409,2.9515000000000002,11.49205Q2.96303,11.55001,2.98564,11.60461Q3.00826,11.6592,3.04109,11.7083Q3.07392,11.7575,3.11571,11.7993Q3.15749,11.8411,3.20663,11.8739Q3.25576,11.9067,3.31036,11.9293Q3.36496,11.9519,3.42292,11.9635Q3.48087,11.975,3.5399700000000003,11.975ZM8.439969999999999,11.975L10.93997,11.975Q10.99906,11.975,11.05702,11.9635Q11.11498,11.9519,11.16958,11.9293Q11.22417,11.9067,11.27331,11.8739Q11.32244,11.841,11.36423,11.7993Q11.40602,11.7575,11.43885,11.7083Q11.47168,11.6592,11.49429,11.60461Q11.51691,11.55001,11.52844,11.49205Q11.53997,11.43409,11.53997,11.375Q11.53997,11.3159,11.52844,11.25795Q11.51691,11.19998,11.4943,11.14539Q11.47168,11.09079,11.43885,11.04166Q11.40602,10.99252,11.36423,10.95074Q11.32244,10.90895,11.27331,10.87612Q11.22417,10.84329,11.16958,10.82067Q11.11498,10.79806,11.05702,10.78653Q10.99906,10.775,10.93997,10.775L8.439969999999999,10.775Q8.38087,10.775,8.32291,10.78653Q8.264949999999999,10.79806,8.21036,10.82067Q8.15576,10.84329,8.10663,10.87612Q8.05749,10.90895,8.015699999999999,10.95074Q7.97392,10.99252,7.94109,11.04166Q7.90825,11.09079,7.88564,11.14539Q7.86303,11.19998,7.8515,11.25795Q7.83997,11.3159,7.83997,11.375Q7.83997,11.43409,7.8515,11.49205Q7.86303,11.55001,7.88564,11.60461Q7.90825,11.6592,7.94109,11.7083Q7.97392,11.7575,8.015699999999999,11.7993Q8.05749,11.8411,8.10663,11.8739Q8.15576,11.9067,8.21036,11.9293Q8.264949999999999,11.9519,8.32291,11.9635Q8.38087,11.975,8.439969999999999,11.975Z"
                fill-rule="evenodd" fill="inherit" fill-opacity="1" />
        </g>
    </g>
</svg>