<svg xmlns="http://www.w3.org/2000/svg" width="14"
    height="14" viewBox="5 5 14 14" version="1.1" preserveAspectRatio="xMinYMin meet"
    overflow="visible" style="background-color: transparent;">
    <g transform="translate(5,5)">
        <svg xmlns="http://www.w3.org/2000/svg"  version="1.1"
            preserveAspectRatio="xMinYMin meet" overflow="hidden" width="14" height="14" x="0" y="0"
            viewBox="0 0 14 14">
            <clipPath id="clippath-artboard-1444">
                <path d="M 0 0 l 14 0 l 0 14 l -14 0 z" clip-rule="evenodd" />
            </clipPath>
            <g clip-path="url(#clippath-artboard-1444)">
                <g transform="translate(0,-9.021243840834359e-8)">
                    <g>
                        <clipPath id="clippath-border12228041">
                            <path
                                d="M 1.9999999999999996 0 L 11.999999300853574 0 C 13.10456880051516 0 13.999999300853574 0.8954305003384131 13.999999300853574 1.9999999999999996 L 13.999999300853574 12.000000090212382 C 13.999999300853574 13.104569589873968 13.10456880051516 14.000000090212382 11.999999300853574 14.000000090212382 L 1.9999999999999996 14.000000090212382 C 0.8954305003384131 14.000000090212382 0 13.104569589873968 0 12.000000090212382 L 0 1.9999999999999996 C 0 0.8954305003384131 0.8954305003384131 0 1.9999999999999996 0 Z"
                                clip-rule="evenodd" />
                        </clipPath>
                        <path
                            d="M 1.9999999999999996 0 L 11.999999300853574 0 C 13.10456880051516 0 13.999999300853574 0.8954305003384131 13.999999300853574 1.9999999999999996 L 13.999999300853574 12.000000090212382 C 13.999999300853574 13.104569589873968 13.10456880051516 14.000000090212382 11.999999300853574 14.000000090212382 L 1.9999999999999996 14.000000090212382 C 0.8954305003384131 14.000000090212382 0 13.104569589873968 0 12.000000090212382 L 0 1.9999999999999996 C 0 0.8954305003384131 0.8954305003384131 0 1.9999999999999996 0 Z"
                            fill="none" stroke="inherit" stroke-width="2.6"
                            clip-path="url(#clippath-border12228041)" />
                    </g>
                </g>
                <g transform="translate(0.007992731558309936,4.143064189601589)">
                    <path
                        d="M 9.432547808982232 5.098827702290302 L 4.939304565738989 1.248827702290303 C 4.923245921650682 1.2320595049643004 4.901035583242352 1.2225772274159254 4.877818079252502 1.2225772274159254 C 4.854600575262653 1.2225772274159254 4.832390236854323 1.2320595049643004 4.816331592766016 1.248827702290303 L 1.0230883495227712 4.748827702290304 C 0.9127855458159541 4.852048396759095 0.7673984913141939 4.909526999701652 0.6163315927660146 4.909638513101115 L 0.6163315927660145 4.909638513101115 C 0.4442910222419167 4.90779713404283 0.2803918567694819 4.836091249148639 0.16227753871196035 4.710989864452466 C 0.05923339688078782 4.596796980708633 0.0019695829505130707 4.4485847564185095 0.0014667279011494282 4.294773648236249 L 0.0014667279011494545 4.294773648236249 L 0.0014667279011494545 4.294773648236249 C -0.011157118524723763 4.110923675601756 0.05808720406039072 3.9308884368804584 0.19065591709033816 3.802881756344357 L 3.9744397008741235 0.3312601347227356 C 4.477769657297392 -0.1104193017249419 5.230569203910314 -0.1104193017249419 5.733899160333584 0.3312601347227356 L 10.217682944117367 4.181260134722736 C 10.342196917481404 4.289933468002174 10.42010529017521 4.442362892837882 10.435250511684936 4.6069358103984115 L 10.435250511684936 4.606935810398412 L 10.435250511684936 4.606935810398412 C 10.434242086090526 4.7561081997400665 10.380647277085245 4.900144248941768 10.283899160333593 5.01369256715516 C 10.179096086503526 5.1366007520093815 10.028891336298775 5.211703127111757 9.867682944117368 5.221800675263276 L 9.82984510627953 5.221800675263276 C 9.68683716557964 5.230718199834365 9.545511972761172 5.186974687771505 9.432547808982232 5.098827702290302 Z"
                        fill="inherit" fill-opacity="1" stroke="none" stroke-width="0"
                        fill-rule="nonzero" />
                </g>
                <g transform="translate(7.776231997721903,4.4806783650372495)">
                    <path
                        d="M 5.239984218494312 3.011213526854644 L 2.894038272548367 1.2517540673951848 C 2.87797962846006 1.2349858700691823 2.8557692900517306 1.2255035925208073 2.832551786061881 1.2255035925208073 C 2.809334282072031 1.2255035925208073 2.787123943663702 1.2349858700691823 2.7710652995753944 1.2517540673951848 L 1.115659894169988 2.9544567700978885 C 0.8753413949192909 3.215672530152993 0.46876754611698385 3.2326131071864226 0.20755178606187885 2.992294607935725 C -0.05366397399322597 2.751976108685028 -0.07060455102665508 2.3454022598827216 0.16971394822404198 2.0841864998276165 L 1.8629571914672853 0.3909432565843729 C 2.3271583998090932 -0.07909660941444982 3.06805235703433 -0.1317284205834559 3.5940382725483664 0.2679702836113998 L 5.939984218494312 2.0274297430708597 C 6.109165966541321 2.135274247806542 6.21509125940947 2.3188780887780034 6.223768002278095 2.5193216349627523 L 6.223768002278095 2.5193216349627523 C 6.2218208600962805 2.6520367698059095 6.178866396465564 2.78090016069806 6.100795029305122 2.8882405538816727 C 5.98872249062493 3.0378593454018294 5.814670031302262 3.128366624249617 5.627822056332149 3.134186499827618 L 5.627822056332149 3.1341864998276177 C 5.488642638200986 3.1362382733822383 5.352552915578147 3.093087873526217 5.239984218494312 3.011213526854644 Z"
                        fill="inherit" fill-opacity="1" stroke="none" stroke-width="0"
                        fill-rule="nonzero" />
                </g>
            </g>
        </svg>
    </g>
</svg>