<svg xmlns="http://www.w3.org/2000/svg" xmlns:xlink="http://www.w3.org/1999/xlink" fill="none" version="1.1" width="13" height="13" viewBox="0 0 13 13"><defs><clipPath id="master_svg0_912_00781"><rect x="0" y="0" width="13" height="13" rx="0"/></clipPath></defs><g clip-path="url(#master_svg0_912_00781)"><g><path d="M6.88608125,3.7055908203125L10.78594125,3.7055908203125Q10.84504125,3.7055908203125,10.90300125,3.6940618203125Q10.96096125,3.6825328203125,11.01555125,3.6599188203125Q11.07015125,3.6373038203125,11.11928125,3.6044728203125Q11.16842125,3.5716408203125,11.21021125,3.5298548203125Q11.25199125,3.4880688203125,11.28482125,3.4389328203125Q11.31768125,3.3897978203125,11.34028125,3.3352008203125Q11.36288125,3.2806048203125,11.37438125,3.2226448203125Q11.38598125,3.1646856203125,11.38598125,3.1055908203125Q11.38598125,3.0464960203125,11.37438125,2.9885368203125Q11.36288125,2.9305768203125,11.34028125,2.8759808203125Q11.31768125,2.8213838203125,11.28482125,2.7722488203125Q11.25199125,2.7231128203125,11.21021125,2.6813268203125Q11.16842125,2.6395408203125,11.11928125,2.6067088203125Q11.07015125,2.5738778203125,11.01555125,2.5512628203125Q10.96096125,2.5286488203125,10.90300125,2.5171198203125Q10.84504125,2.5055908203125,10.78594125,2.5055908203125L6.88608125,2.5055908203125Q5.91535125,2.5055908203125,5.37851125,3.0424291203125Q4.84167125,3.5792668203125,4.84167125,4.5500008203124995L4.84167125,9.6055908203125Q4.84167125,9.8057108203125,4.70003125,9.9473308203125Q4.558351249999999,10.0889808203125,4.35813125,10.0889808203125L1.30078125,10.0889808203125Q1.24168645,10.0889808203125,1.18372725,10.1005108203125Q1.12576725,10.1120308203125,1.07117125,10.134650820312501Q1.0165742500000001,10.1572608203125,0.96743925,10.1900908203125Q0.91830325,10.222920820312499,0.87651725,10.2647108203125Q0.8347312499999999,10.3065008203125,0.80189925,10.3556308203125Q0.76906825,10.4047708203125,0.74645325,10.4593708203125Q0.72383925,10.5139608203125,0.71231025,10.5719208203125Q0.70078125,10.6298808203125,0.70078125,10.6889808203125Q0.70078125,10.748070820312499,0.71231025,10.8060308203125Q0.72383925,10.8639908203125,0.74645325,10.918590820312499Q0.76906825,10.9731808203125,0.80189925,11.022320820312501Q0.8347312499999999,11.0714508203125,0.87651725,11.1132408203125Q0.91830325,11.1550308203125,0.96743925,11.1878608203125Q1.0165742500000001,11.2206908203125,1.07117125,11.2433008203125Q1.12576725,11.2659208203125,1.18372725,11.2774508203125Q1.24168645,11.2889808203125,1.30078125,11.2889808203125L4.35813125,11.2889808203125Q5.05534125,11.2889808203125,5.54847125,10.795940820312499Q6.04167125,10.3028408203125,6.04167125,9.6055908203125L6.04167125,4.5500008203124995Q6.04167125,4.0763238203125,6.22704125,3.8909568203125Q6.41241125,3.7055908203125,6.88608125,3.7055908203125Z" fill-rule="evenodd" fill="#595959" fill-opacity="1"/></g><g><path d="M8.917530875,1.72424979296875Q8.833139875,1.63985879296875,8.787468875,1.52959679296875Q8.741796875,1.41933479296875,8.741796875,1.29998779296875Q8.741796875,1.24089299296875,8.753325875,1.18293379296875Q8.764854875,1.12497379296875,8.787468875,1.07037779296875Q8.810083875,1.0157807929687501,8.842914875,0.96664579296875Q8.875746875,0.91750979296875,8.917532875,0.87572379296875Q8.959318875,0.8339377929687499,9.008454875,0.80110579296875Q9.057589875,0.76827479296875,9.112186875,0.74565979296875Q9.166782874999999,0.72304579296875,9.224742875,0.71151679296875Q9.282702075,0.69998779296875,9.341796875,0.69998779296875Q9.461144875,0.69998779296875,9.571407875,0.74566079296875Q9.681671875,0.79133379296875,9.766062875,0.8757257929687501L11.571596875000001,2.68127779296875Q11.613386875,2.7230677929687497,11.646216875,2.77219779296875Q11.679046875000001,2.82133779296875,11.701666875,2.87592779296875Q11.724276875000001,2.93052779296875,11.735806875,2.98848779296875Q11.747336875,3.04644779296875,11.747336875,3.10553779296875Q11.747336875,3.16463779296875,11.735806875,3.2225977929687497Q11.724276875000001,3.28055779296875,11.701666875,3.33514779296875Q11.679046875000001,3.38974779296875,11.646216875,3.43887779296875Q11.613386875,3.48801779296875,11.571596875000001,3.52980779296875L9.766391875,5.33503779296875L9.766063875,5.33535779296875Q9.681671875,5.41975779296875,9.571408875,5.46542779296875Q9.461144875,5.51109779296875,9.341796875,5.51109779296875Q9.282702075,5.51109779296875,9.224742875,5.49956779296875Q9.166782874999999,5.48803779296875,9.112186875,5.46542779296875Q9.057589875,5.44281779296875,9.008454875,5.40997779296875Q8.959318875,5.37714779296875,8.917532875,5.33536779296875Q8.875746875,5.29357779296875,8.842914875,5.24443779296875Q8.810083875,5.19530779296875,8.787468875,5.14070779296875Q8.764854875,5.08611779296875,8.753325875,5.02815779296875Q8.741796875,4.97019779296875,8.741796875,4.91109779296875Q8.741796875,4.79175779296875,8.787468875,4.68148779296875Q8.833139875,4.571227792968751,8.917529875,4.48683779296875L8.917614875,4.48675779296875L10.298810875000001,3.10553779296875L8.917530875,1.72424979296875Z" fill-rule="evenodd" fill="#595959" fill-opacity="1"/></g></g></svg>