<svg xmlns="http://www.w3.org/2000/svg" xmlns:xlink="http://www.w3.org/1999/xlink" fill="none" version="1.1" width="20" height="20" viewBox="0 0 20 20"><defs><clipPath id="master_svg0_186_0227"><rect x="0" y="0" width="20" height="20" rx="0"/></clipPath></defs><g clip-path="url(#master_svg0_186_0227)"><g><g><ellipse cx="10" cy="10" rx="9" ry="9" fill="#000000" fill-opacity="1"/></g><g><path d="M13.314367431640626,7.548658828125L12.454817431640624,8.458918828125Q12.375947431640625,8.542448828125,12.333507431640625,8.649208828125Q12.291067431640625,8.755968828124999,12.291067431640625,8.870858828125Q12.291067431640625,8.929948828125,12.302587431640625,8.987908828125Q12.314117431640625,9.045868828125,12.336737431640625,9.100468828124999Q12.359347431640625,9.155068828125,12.392177431640626,9.204198828125Q12.425007431640624,9.253338828124999,12.466797431640625,9.295118828125Q12.508587431640624,9.336908828125,12.557717431640626,9.369738828125Q12.606857431640625,9.402568828125,12.661447431640624,9.425188828125Q12.716047431640625,9.447798828125,12.774007431640625,9.459328828124999Q12.831967431640624,9.470858828125,12.891067431640625,9.470858828125Q13.014887431640625,9.470858828125,13.128587431640625,9.421838828125Q13.242297431640626,9.372818828125,13.327307431640625,9.282798828125L14.181327431640625,8.378378828125Q14.843837431640626,7.711248828125,14.831087431640626,6.760358828125Q14.818407431640626,5.814261828125,14.142737431640626,5.138600228125Q13.467077431640625,4.462937828125,12.520987431640625,4.450255828125Q11.565457431640624,4.437446828125,10.896467431640625,5.106484728125L8.506417431640624,7.594348828125Q8.425906431640625,7.678168828125,8.382511431640625,7.785978828125Q8.339117431640625,7.893788828125,8.339117431640625,8.010008828125Q8.339117431640625,8.069108828125,8.350646431640625,8.127058828125Q8.362175431640624,8.185018828125,8.384789431640625,8.239618828125Q8.407404431640625,8.294218828125,8.440235431640625,8.343348828125Q8.473067431640626,8.392488828125,8.514853431640624,8.434268828125Q8.556639431640624,8.476058828125,8.605775431640625,8.508888828125Q8.654910431640625,8.541718828125,8.709507431640626,8.564338828124999Q8.764103431640624,8.586948828125,8.822063431640625,8.598478828125Q8.880022631640625,8.610008828125,8.939117431640625,8.610008828125Q9.061600431640626,8.610008828125,9.174283431640625,8.561998828125Q9.286965431640626,8.513998828125,9.371817431640626,8.425668828125L11.745017431640624,5.954983828125Q12.055857431640625,5.644128828125,12.504897431640625,5.650147828125Q12.963377431640625,5.656293828125,13.294217431640625,5.987128828125Q13.625047431640624,6.3179588281250005,13.631197431640626,6.776438828125Q13.637217431640625,7.225488828125,13.326357431640625,7.536318828125Q13.320277431640626,7.542408828125,13.314367431640626,7.548658828125Z" fill-rule="evenodd" fill="#FFFFFF" fill-opacity="1"/></g><g><path d="M7.12536,10.970894859375Q7.20975,10.886503859375,7.25542,10.776240859375Q7.30109,10.665977859375,7.30109,10.546630859375Q7.30109,10.487536059375,7.28957,10.429576859375Q7.27804,10.371616859374999,7.25542,10.317020859375Q7.23281,10.262423859375,7.19998,10.213288859375Q7.16714,10.164152859375,7.12536,10.122366859375Q7.08357,10.080580859375,7.03444,10.047748859375Q6.9853000000000005,10.014917859375,6.9307,9.992302859375Q6.87611,9.969688859375,6.81815,9.958159859375Q6.76019,9.946630859375,6.70109,9.946630859375Q6.5817499999999995,9.946630859375,6.471484,9.992302859375Q6.361222,10.037975859375,6.27683,10.122366859375L6.276685,10.122512859375Q6.050745,10.348446859375,5.5723705,10.810537859375Q4.904842,11.478019859375,4.900029,12.469510859375Q4.895171,13.470440859375,5.5723553,14.147620859375Q6.2480139999999995,14.823280859375,7.1941,14.835950859375Q8.14179,14.848640859375,8.80768,14.190630859375L11.12155,12.089940859375Q11.215499999999999,12.004650859375,11.26687,11.888630859375Q11.31824,11.772600859375,11.31824,11.645710859375Q11.31824,11.586620859375,11.30672,11.528656859375Q11.29519,11.470696859375,11.27257,11.416100859375Q11.24996,11.361503859375,11.217130000000001,11.312368859375Q11.18429,11.263232859375,11.14251,11.221446859375Q11.100719999999999,11.179659859375,11.051590000000001,11.146828859375Q11.00245,11.113997859375,10.947849999999999,11.091382859375Q10.89326,11.068768859375,10.8353,11.057239859375Q10.777339999999999,11.045710859375,10.718250000000001,11.045710859375Q10.6064,11.045710859375,10.50208,11.086004859375Q10.39775,11.126299859374999,10.31494,11.201475859375L7.9910499999999995,13.311250859375Q7.98034,13.320980859375,7.97011,13.331210859375Q7.6592199999999995,13.642070859375,7.21017,13.636060859375Q6.75171,13.629920859375,6.420884,13.299100859375Q6.097586,12.975800859375,6.100015,12.475330859375Q6.102431,11.977510859375,6.420869,11.659090859375Q6.89187,11.204381859375,7.12521,10.971044859375L7.12536,10.970894859375L7.12536,10.970894859375Z" fill-rule="evenodd" fill="#FFFFFF" fill-opacity="1"/></g><g><path d="M9.4316433984375,8.38474021875Q9.5160473984375,8.30034721875,9.5617233984375,8.19007721875Q9.6074033984375,8.07980621875,9.6074033984375,7.96044921875Q9.6074033984375,7.9013544187499996,9.5958733984375,7.84339521875Q9.5843533984375,7.78543521875,9.5617333984375,7.73083921875Q9.5391233984375,7.67624221875,9.5062883984375,7.62710721875Q9.4734573984375,7.57797121875,9.4316703984375,7.53618521875Q9.3898843984375,7.49439921875,9.3407483984375,7.46156721875Q9.2916133984375,7.42873621875,9.2370163984375,7.40612121875Q9.1824203984375,7.38350721875,9.1244603984375,7.37197821875Q9.0665013984375,7.36044921875,9.0074063984375,7.36044921875Q8.8880693984375,7.36044921875,8.7778143984375,7.40611421875Q8.6675593984375,7.45177921875,8.5831696984375,7.53615821875Q7.8624333984375,8.25680221875,7.9319993984375,9.285549218749999Q7.9909563984375005,10.15812921875,8.6152723984375,10.78244921875Q8.6996633984375,10.86683921875,8.8099263984375,10.91250921875Q8.9201893984375,10.95818921875,9.0395363984375,10.95818921875Q9.098631398437501,10.95817921875,9.1565903984375,10.94665921875Q9.2145503984375,10.93512921875,9.269146398437499,10.91250921875Q9.3237433984375,10.88989921875,9.3728783984375,10.85706921875Q9.4220143984375,10.82423921875,9.4638003984375,10.78244921875Q9.5055873984375,10.74065921875,9.5384233984375,10.69152921875Q9.5712533984375,10.64238921875,9.5938633984375,10.58778921875Q9.6164833984375,10.53319921875,9.6280033984375,10.47523921875Q9.6395333984375,10.41727921875,9.6395333984375,10.35818921875Q9.6395333984375,10.23883921875,9.5938633984375,10.12856921875Q9.5481933984375,10.01830921875,9.4638003984375,9.93391921875Q9.1578733984375,9.62798921875,9.1292643984375,9.20457921875Q9.0964863984375,8.71985521875,9.4316433984375,8.38474021875Z" fill-rule="evenodd" fill="#FFFFFF" fill-opacity="1"/></g><g><path d="M10.293824603515626,11.221506875Q10.209425603515625,11.305896875,10.163749603515624,11.416166875Q10.118073603515626,11.526426875,10.118073603515626,11.645786875Q10.118073603515626,11.704876875,10.129602603515625,11.762836875Q10.141131603515625,11.820796875,10.163745603515626,11.875386875Q10.186360603515626,11.929986875,10.219191603515625,11.979126875Q10.252022603515625,12.028256875,10.293809603515625,12.070046875Q10.335595603515625,12.111836875,10.384731603515625,12.144666875Q10.433866603515625,12.177496875,10.488463603515624,12.200106875Q10.543059603515625,12.222726875,10.601019303515624,12.234256875Q10.658978603515624,12.245776875,10.718073503515624,12.245786875Q10.837415603515625,12.245786875,10.947673603515625,12.200116874999999Q11.057932603515624,12.154446875,11.142322603515625,12.070056875L10.293824603515626,11.221506875L10.293824603515626,11.221506875ZM10.685943603515625,8.648046875Q10.626848803515625,8.648046875,10.568889603515625,8.659575875Q10.510929603515624,8.671104875,10.456333603515626,8.693718875Q10.401736603515625,8.716333875,10.352601603515625,8.749164875Q10.303465603515624,8.781996875,10.261679603515624,8.823782875Q10.219893603515626,8.865568875,10.187061603515625,8.914704875Q10.154230603515625,8.963839875,10.131615603515625,9.018436875Q10.109001603515624,9.073032874999999,10.097472603515625,9.130992875Q10.085943603515625,9.188952075,10.085943603515625,9.248046875Q10.085943603515625,9.307141675,10.097472603515625,9.365100875Q10.109001603515624,9.423060875000001,10.131615603515625,9.477656875Q10.154230603515625,9.532253875,10.187061603515625,9.581388875Q10.219893603515626,9.630524875,10.261679603515624,9.672310875Q10.303465603515624,9.714096875,10.352601603515625,9.746928875Q10.401736603515625,9.779759875,10.456333603515626,9.802374875Q10.510929603515624,9.824988875,10.568889603515625,9.836517875Q10.626848803515625,9.848046875,10.685943603515625,9.848046875Q10.745038403515625,9.848046875,10.802997603515625,9.836517875Q10.860957603515626,9.824988875,10.915553603515624,9.802374875Q10.970150603515625,9.779759875,11.019285603515625,9.746928875Q11.068421603515626,9.714096875,11.110207603515626,9.672310875Q11.151993603515624,9.630524875,11.184825603515625,9.581388875Q11.217656603515625,9.532253875,11.240271603515625,9.477656875Q11.262885603515626,9.423060875000001,11.274414603515625,9.365100875Q11.285943603515625,9.307141675,11.285943603515625,9.248046875Q11.285943603515625,9.128699875,11.240271603515625,9.018436875Q11.194598603515624,8.908173875,11.110207603515626,8.823782875Q11.785873603515626,9.499445875,11.798553603515625,10.445536875Q11.811363603515625,11.401066875,11.142322603515625,12.070056875Q11.226720603515625,11.985666875,11.272397603515625,11.875406875Q11.318073603515625,11.765136875,11.318073603515625,11.645786875Q11.318073603515625,11.586686875,11.306544603515626,11.528726875Q11.295015603515624,11.470766874999999,11.272401603515625,11.416166875Q11.249786603515625,11.361576875,11.216955603515625,11.312436875Q11.184123603515625,11.263306875,11.142337603515625,11.221516875Q11.100551603515624,11.179726875,11.051415603515625,11.146896875Q11.002279603515625,11.114066875,10.947683603515625,11.091456875Q10.893086603515625,11.068836875,10.835127603515625,11.057306875Q10.777168303515625,11.045786875,10.718073503515624,11.045786875Q10.598731503515625,11.045786875,10.488472603515625,11.091446874999999Q10.378214603515625,11.137116875,10.293824603515626,11.221506875Q10.604679103515625,10.910666875,10.598659903515625,10.461626875Q10.592514303515625,10.003145875,10.261679603515624,9.672310875L11.110207603515626,8.823782875L11.110207603515626,8.823782875Q11.025816603515626,8.739391875,10.915553603515624,8.693718875Q10.805290603515624,8.648046875,10.685943603515625,8.648046875Z" fill-rule="evenodd" fill="#FFFFFF" fill-opacity="1"/></g></g></g></svg>