<svg xmlns="http://www.w3.org/2000/svg" xmlns:xlink="http://www.w3.org/1999/xlink" fill="none" version="1.1" width="14" height="14" viewBox="0 0 14 14"><defs><clipPath id="master_svg0_517_01256"><rect x="0" y="0" width="14" height="14" rx="0"/></clipPath></defs><g clip-path="url(#master_svg0_517_01256)"><g><ellipse cx="6.9998369216918945" cy="7.0000810623168945" rx="5.8333330154418945" ry="5.8333330154418945" fill-opacity="0" stroke-opacity="1" stroke="#8C8C8C" fill="none" stroke-width="1.2000000476837158" stroke-linejoin="round"/></g><g><path d="M7,13.433418046875Q7.0590948000000004,13.433418046875,7.117054,13.421888046875Q7.175014,13.410358046875,7.22961,13.387738046875Q7.284207,13.365128046875,7.333342,13.332298046875Q7.382478,13.299468046874999,7.424264,13.257678046875Q7.46605,13.215888046875,7.498882,13.166758046875Q7.531713,13.117618046875,7.554328,13.063028046875Q7.576942,13.008428046875,7.588471,12.950468046875Q7.6,12.892508046875001,7.6,12.833418046875L7.6,10.791748046875Q7.6,10.732653246875,7.588471,10.674694046875Q7.576942,10.616734046874999,7.554328,10.562138046875Q7.531713,10.507541046875,7.498882,10.458406046875Q7.46605,10.409270046875,7.424264,10.367484046875Q7.382478,10.325698046875,7.333342,10.292866046875Q7.284207,10.260035046875,7.22961,10.237420046875Q7.175014,10.214806046875,7.117054,10.203277046875Q7.0590948000000004,10.191748046875,7,10.191748046875Q6.9409051999999996,10.191748046875,6.882946,10.203277046875Q6.824986,10.214806046875,6.77039,10.237420046875Q6.715793,10.260035046875,6.666658,10.292866046875Q6.617522,10.325698046875,6.575736,10.367484046875Q6.53395,10.409270046875,6.501118,10.458406046875Q6.468287,10.507541046875,6.445672,10.562138046875Q6.423058,10.616734046874999,6.411529,10.674694046875Q6.4,10.732653246875,6.4,10.791748046875L6.4,12.833418046875Q6.4,12.892508046875001,6.411529,12.950468046875Q6.423058,13.008428046875,6.445672,13.063028046875Q6.468287,13.117618046875,6.501118,13.166758046875Q6.53395,13.215888046875,6.575736,13.257678046875Q6.617522,13.299468046874999,6.666658,13.332298046875Q6.715793,13.365128046875,6.77039,13.387738046875Q6.824986,13.410358046875,6.882946,13.421888046875Q6.9409051999999996,13.433418046875,7,13.433418046875Z" fill-rule="evenodd" fill="#8C8C8C" fill-opacity="1"/></g><g><path d="M6.4,12.833418046875L6.4,10.791748046875L7.6,10.791748046875L7.6,12.833418046875L6.4,12.833418046875Z" fill-rule="evenodd" fill="#8C8C8C" fill-opacity="1"/></g><g><path d="M13.43333,7Q13.43333,6.9409051999999996,13.421800000000001,6.882946Q13.41028,6.824986,13.38766,6.77039Q13.36505,6.715793,13.33221,6.666658Q13.29938,6.617522,13.2576,6.575736Q13.21581,6.53395,13.16668,6.501118Q13.11754,6.468287,13.062940000000001,6.445672Q13.00835,6.423058,12.95039,6.411529Q12.892430000000001,6.4,12.83333,6.4L10.5,6.4Q10.4409052,6.4,10.382946,6.411529Q10.324985999999999,6.423058,10.27039,6.445672Q10.215793,6.468287,10.166658,6.501118Q10.117522,6.53395,10.075736,6.575736Q10.03395,6.617522,10.001118,6.666658Q9.968287,6.715793,9.945672,6.77039Q9.923058,6.824986,9.911529,6.882946Q9.9,6.9409051999999996,9.9,7Q9.9,7.0590948000000004,9.911529,7.117054Q9.923058,7.175014,9.945672,7.22961Q9.968287,7.284207,10.001118,7.333342Q10.03395,7.382478,10.075736,7.424264Q10.117522,7.46605,10.166658,7.498882Q10.215793,7.531713,10.27039,7.554328Q10.324985999999999,7.576942,10.382946,7.588471Q10.4409052,7.6,10.5,7.6L12.83333,7.6Q12.892430000000001,7.6,12.95039,7.588471Q13.00835,7.576942,13.062940000000001,7.554328Q13.11754,7.531713,13.16668,7.498882Q13.21581,7.46605,13.2576,7.424264Q13.29938,7.382478,13.33221,7.333342Q13.36505,7.284207,13.38766,7.22961Q13.41028,7.175014,13.421800000000001,7.117054Q13.43333,7.0590948000000004,13.43333,7Z" fill-rule="evenodd" fill="#8C8C8C" fill-opacity="1"/></g><g><path d="M12.83333,7.6L10.5,7.6L10.5,6.4L12.83333,6.4L12.83333,7.6Z" fill-rule="evenodd" fill="#8C8C8C" fill-opacity="1"/></g><g><path d="M3.80817390625,7Q3.80817390625,6.9409051999999996,3.79664390625,6.882946Q3.78511390625,6.824986,3.76249390625,6.77039Q3.73988390625,6.715793,3.70705390625,6.666658Q3.67422390625,6.617522,3.63243390625,6.575736Q3.59064390625,6.53395,3.54151390625,6.501118Q3.49237390625,6.468287,3.43778390625,6.445672Q3.38318390625,6.423058,3.32522390625,6.411529Q3.26726390625,6.4,3.20817390625,6.4L1.16650390625,6.4Q1.10740910625,6.4,1.04944990625,6.411529Q0.99148990625,6.423058,0.93689390625,6.445672Q0.88229690625,6.468287,0.83316190625,6.501118Q0.78402590625,6.53395,0.74223990625,6.575736Q0.7004539062499999,6.617522,0.66762190625,6.666658Q0.63479090625,6.715793,0.61217590625,6.77039Q0.58956190625,6.824986,0.57803290625,6.882946Q0.56650390625,6.9409051999999996,0.56650390625,7Q0.56650390625,7.0590948000000004,0.57803290625,7.117054Q0.58956190625,7.175014,0.61217590625,7.22961Q0.63479090625,7.284207,0.66762190625,7.333342Q0.7004539062499999,7.382478,0.74223990625,7.424264Q0.78402590625,7.46605,0.83316190625,7.498882Q0.88229690625,7.531713,0.93689390625,7.554328Q0.99148990625,7.576942,1.04944990625,7.588471Q1.10740910625,7.6,1.16650390625,7.6L3.20817390625,7.6Q3.26726390625,7.6,3.32522390625,7.588471Q3.38318390625,7.576942,3.43778390625,7.554328Q3.49237390625,7.531713,3.54151390625,7.498882Q3.59064390625,7.46605,3.63243390625,7.424264Q3.67422390625,7.382478,3.70705390625,7.333342Q3.73988390625,7.284207,3.76249390625,7.22961Q3.78511390625,7.175014,3.79664390625,7.117054Q3.80817390625,7.0590948000000004,3.80817390625,7Z" fill-rule="evenodd" fill="#8C8C8C" fill-opacity="1"/></g><g><path d="M3.20817390625,7.6L1.16650390625,7.6L1.16650390625,6.4L3.20817390625,6.4L3.20817390625,7.6Z" fill-rule="evenodd" fill="#8C8C8C" fill-opacity="1"/></g><g><path d="M7,0.566748046875Q6.9409051999999996,0.566748046875,6.882946,0.578277046875Q6.824986,0.589806046875,6.77039,0.612420046875Q6.715793,0.635035046875,6.666658,0.667866046875Q6.617522,0.7006980468749999,6.575736,0.742484046875Q6.53395,0.784270046875,6.501118,0.833406046875Q6.468287,0.882541046875,6.445672,0.937138046875Q6.423058,0.991734046875,6.411529,1.049694046875Q6.4,1.107653246875,6.4,1.166748046875L6.4,3.208418046875Q6.4,3.267508046875,6.411529,3.325468046875Q6.423058,3.383428046875,6.445672,3.438028046875Q6.468287,3.492618046875,6.501118,3.541758046875Q6.53395,3.590888046875,6.575736,3.632678046875Q6.617522,3.674468046875,6.666658,3.707298046875Q6.715793,3.740128046875,6.77039,3.762738046875Q6.824986,3.785358046875,6.882946,3.796888046875Q6.9409051999999996,3.808418046875,7,3.808418046875Q7.0590948000000004,3.808418046875,7.117054,3.796888046875Q7.175014,3.785358046875,7.22961,3.762738046875Q7.284207,3.740128046875,7.333342,3.707298046875Q7.382478,3.674468046875,7.424264,3.632678046875Q7.46605,3.590888046875,7.498882,3.541758046875Q7.531713,3.492618046875,7.554328,3.438028046875Q7.576942,3.383428046875,7.588471,3.325468046875Q7.6,3.267508046875,7.6,3.208418046875L7.6,1.166748046875Q7.6,1.107653246875,7.588471,1.049694046875Q7.576942,0.991734046875,7.554328,0.937138046875Q7.531713,0.882541046875,7.498882,0.833406046875Q7.46605,0.784270046875,7.424264,0.742484046875Q7.382478,0.7006980468749999,7.333342,0.667866046875Q7.284207,0.635035046875,7.22961,0.612420046875Q7.175014,0.589806046875,7.117054,0.578277046875Q7.0590948000000004,0.566748046875,7,0.566748046875Z" fill-rule="evenodd" fill="#8C8C8C" fill-opacity="1"/></g><g><path d="M7.6,1.166748046875L7.6,3.208418046875L6.4,3.208418046875L6.4,1.166748046875L7.6,1.166748046875Z" fill-rule="evenodd" fill="#8C8C8C" fill-opacity="1"/></g></g></svg>