<svg xmlns="http://www.w3.org/2000/svg" xmlns:xlink="http://www.w3.org/1999/xlink" fill="none" version="1.1" width="13" height="13" viewBox="0 0 13 13"><defs><clipPath id="master_svg0_912_00870"><rect x="0" y="0" width="13" height="13" rx="0"/></clipPath></defs><g clip-path="url(#master_svg0_912_00870)"><g><path d="M10.753521875,10.754535034751893Q12.515721875,8.992285034751893,12.515721875,6.5001050347518925Q12.515721875,4.007915034751893,10.753521875,2.2456750347518923Q8.991271875,0.4834350347518921,6.499091875,0.4834350347518921Q4.0069018750000005,0.4834351539608921,2.2446618750000003,2.2456750347518923Q0.482421875,4.007915034751893,0.482421875,6.5001050347518925Q0.482421994209,8.992285034751893,2.2446618750000003,10.754535034751893Q4.0069018750000005,12.516735034751893,6.499091875,12.516735034751893Q8.991271875,12.516735034751893,10.753521875,10.754535034751893ZM9.904981875,3.094205034751892Q11.315721875,4.504975034751892,11.315721875,6.5001050347518925Q11.315721875,8.495225034751892,9.904981875,9.905995034751893Q8.494221875,11.316735034751892,6.499091875,11.316735034751892Q4.503961875,11.316735034751892,3.093191875,9.905995034751893Q1.682421875,8.495235034751891,1.682421875,6.5001050347518925Q1.682421875,4.504975034751892,3.093191875,3.094205034751892Q4.503961875,1.683435034751892,6.499091875,1.683435034751892Q8.494211875,1.683435034751892,9.904981875,3.094205034751892Z" fill-rule="evenodd" fill="#595959" fill-opacity="1"/></g><g><path d="M6.500390625,12.516764677124023C6.831761625,12.516764677124023,7.100390625,12.248134677124023,7.100390625,11.916764677124023L7.100390625,10.020934677124023C7.100390625,9.689563677124024,6.831761625,9.420934677124023,6.500390625,9.420934677124023C6.169019625,9.420934677124023,5.900390625,9.689563677124024,5.900390625,10.020934677124023L5.900390625,11.916764677124023C5.900390625,12.248134677124023,6.169019625,12.516764677124023,6.500390625,12.516764677124023Z" fill-rule="evenodd" fill="#595959" fill-opacity="1"/></g><g><path d="M5.900390625,11.91676505859375L5.900390625,10.02093505859375L7.100390625,10.02093505859375L7.100390625,11.91676505859375L5.900390625,11.91676505859375Z" fill-rule="evenodd" fill="#595959" fill-opacity="1"/></g><g><path d="M12.517060625,6.500000095367431C12.517060625,6.168629095367431,12.248430625000001,5.900000095367432,11.917060625,5.900000095367432L9.750390625,5.900000095367432C9.419019625,5.900000095367432,9.150390625,6.168629095367431,9.150390625,6.500000095367431C9.150390625,6.831371095367432,9.419019625,7.100000095367432,9.750390625,7.100000095367432L11.917060625,7.100000095367432C12.248430625000001,7.100000095367432,12.517060625,6.831371095367432,12.517060625,6.500000095367431Z" fill-rule="evenodd" fill="#595959" fill-opacity="1"/></g><g><path d="M11.91667,7.100000095367432L9.75,7.100000095367432L9.75,5.900000095367432L11.91667,5.900000095367432L11.91667,7.100000095367432Z" fill-rule="evenodd" fill="#595959" fill-opacity="1"/></g><g><path d="M3.578251875,6.500000095367431C3.578251875,6.168629095367431,3.309621875,5.900000095367432,2.978251875,5.900000095367432L1.082421875,5.900000095367432C0.751050875,5.900000095367432,0.482421875,6.168629095367431,0.482421875,6.500000095367431C0.482421875,6.831371095367432,0.751050875,7.100000095367432,1.082421875,7.100000095367432L2.978251875,7.100000095367432C3.309621875,7.100000095367432,3.578251875,6.831371095367432,3.578251875,6.500000095367431Z" fill-rule="evenodd" fill="#595959" fill-opacity="1"/></g><g><path d="M2.979814375,7.100000095367432L1.083984375,7.100000095367432L1.083984375,5.900000095367432L2.979814375,5.900000095367432L2.979814375,7.100000095367432Z" fill-rule="evenodd" fill="#595959" fill-opacity="1"/></g><g><path d="M6.500390625,0.4834350347518921C6.169019625,0.4834350347518921,5.900390625,0.7520640347518921,5.900390625,1.0834350347518922L5.900390625,2.9792650347518923C5.900390625,3.310635034751892,6.169019625,3.579265034751892,6.500390625,3.579265034751892C6.831761625,3.579265034751892,7.100390625,3.310635034751892,7.100390625,2.9792650347518923L7.100390625,1.0834350347518922C7.100390625,0.7520640347518921,6.831761625,0.4834350347518921,6.500390625,0.4834350347518921Z" fill-rule="evenodd" fill="#595959" fill-opacity="1"/></g><g><path d="M7.100390625,1.08343505859375L7.100390625,2.97926505859375L5.900390625,2.97926505859375L5.900390625,1.08343505859375L7.100390625,1.08343505859375Z" fill-rule="evenodd" fill="#595959" fill-opacity="1"/></g></g></svg>