<svg xmlns="http://www.w3.org/2000/svg" xmlns:xlink="http://www.w3.org/1999/xlink" fill="none" version="1.1" width="14" height="14" viewBox="0 0 14 14"><defs><clipPath id="master_svg0_517_01226"><rect x="0" y="0" width="14" height="14" rx="0"/></clipPath></defs><g clip-path="url(#master_svg0_517_01226)"><g><path d="M1.44150390625,11.847089921875L1.44150390625,7.430419921875Q1.44150390625,6.767677921875,1.91013290625,6.299048921875Q2.37876190625,5.830419921875,3.04150390625,5.830419921875L10.95817390625,5.830419921875Q11.62091390625,5.830419921875,12.08950390625,6.299048921875Q12.55820390625,6.7676789218749995,12.55820390625,7.430419921875L12.55820390625,11.847089921875Q12.55820390625,12.509829921875,12.08950390625,12.978459921875Q11.62091390625,13.447089921875001,10.95817390625,13.447089921875001L3.04150390625,13.447089921875001Q2.37876290625,13.447089921875001,1.91013290625,12.978459921875Q1.44150390625,12.509829921875,1.44150390625,11.847089921875ZM2.64150390625,11.847089921875Q2.64150390625,12.247089921875,3.04150390625,12.247089921875L10.95817390625,12.247089921875Q11.35817390625,12.247089921875,11.35817390625,11.847089921875L11.35817390625,7.430419921875Q11.35817390625,7.030419921875,10.95817390625,7.030419921875L3.04150390625,7.030419921875Q2.64150390625,7.030419921875,2.64150390625,7.430419921875L2.64150390625,11.847089921875Z" fill="#8C8C8C" fill-opacity="1"/></g><g><path d="M8.42354609375,2.219818046875Q9.14986609375,2.7491980468749997,9.32907609375,3.622428046875Q9.33942609375,3.672818046875,9.35818609375,3.720708046875Q9.37695609375,3.768608046875,9.40360609375,3.812608046875Q9.43024609375,3.856608046875,9.46399609375,3.895428046875Q9.49774609375,3.934248046875,9.53760609375,3.966758046875Q9.577466093750001,3.999278046875,9.622286093749999,4.024528046875Q9.66709609375,4.049778046875,9.71555609375,4.067038046875Q9.76401609375,4.084288046875,9.81470609375,4.0930480468749995Q9.86539609375,4.101798046875,9.91682609375,4.101798046875Q9.975926093750001,4.101798046875,10.033886093749999,4.090268046875Q10.09184609375,4.078748046875,10.146436093750001,4.056128046875Q10.20103609375,4.033518046875,10.25017609375,4.000688046875Q10.299306093750001,3.967848046875,10.34109609375,3.926068046875Q10.38287609375,3.884278046875,10.41571609375,3.835148046875Q10.44854609375,3.786008046875,10.47115609375,3.731408046875Q10.49377609375,3.676818046875,10.50530609375,3.618858046875Q10.51682609375,3.560898046875,10.51682609375,3.501798046875Q10.51682609375,3.440868046875,10.50457609375,3.381178046875Q10.23199609375,2.052991046875,9.130356093749999,1.250065546875Q8.03125609375,0.44898804687500005,6.67388609375,0.584647046875Q5.31584609375,0.7203690468749999,4.40009209375,1.723574046875Q3.48212409375,2.7292080468749997,3.4834980937499997,4.0853980468749995L3.48349709375,6.416748046875Q3.48349709375,6.475838046875,3.49502609375,6.533798046875Q3.50655509375,6.591758046875,3.52917009375,6.646358046875Q3.5517840937500003,6.700958046875,3.58461509375,6.750088046875Q3.61744709375,6.799228046875,3.65923309375,6.841008046875Q3.70101909375,6.882798046875,3.75015509375,6.915628046875Q3.79929009375,6.948458046875,3.85388609375,6.971078046875Q3.90848309375,6.993688046875,3.96644209375,7.005218046875Q4.02440139375,7.016748046875,4.08349609375,7.016748046875Q4.14259109375,7.016748046875,4.20055009375,7.005218046875Q4.25851009375,6.993688046875,4.31310709375,6.971078046875Q4.36770309375,6.948458046875,4.41683909375,6.915628046875Q4.46597509375,6.882798046875,4.50776109375,6.841008046875Q4.54954709375,6.799228046875,4.58237909375,6.750088046875Q4.61521009375,6.700958046875,4.63782509375,6.646358046875Q4.66044009375,6.591758046875,4.6719690937500005,6.533798046875Q4.68349709375,6.475838046875,4.68349709375,6.416748046875L4.68349709375,4.0841780468749995Q4.68259609375,3.194028046875,5.28636609375,2.532598046875Q5.89236609375,1.868730046875,6.79321609375,1.778699046875Q7.69470609375,1.688602046875,8.42354609375,2.219818046875Z" fill-rule="evenodd" fill="#8C8C8C" fill-opacity="1"/></g></g></svg>