<svg xmlns="http://www.w3.org/2000/svg" xmlns:xlink="http://www.w3.org/1999/xlink" fill="none" version="1.1" width="13" height="13" viewBox="0 0 13 13"><defs><clipPath id="master_svg0_912_00865"><rect x="0" y="0" width="13" height="13" rx="0"/></clipPath></defs><g clip-path="url(#master_svg0_912_00865)"><g transform="matrix(0.983776867389679,-0.17939652502536774,0.17939652502536774,0.983776867389679,-0.08606129747576574,0.43026875947191456)"><path d="M7.7648575,3.581509467163086Q7.6017775,2.786889467163086,6.9407475,2.3050994671630862Q6.2771775000000005,1.821469467163086,5.4563675,1.903499467163086Q4.6361875,1.985469467163086,4.0845475,2.5897894671630857Q3.5351175,3.1916894671630858,3.5359375,4.001609467163085L3.5359375,6.167619467163086C3.5359375,6.498989467163086,3.2673095,6.767619467163086,2.9359375,6.767619467163086C2.6045675,6.767619467163086,2.33593922853,6.498989467163086,2.33593922853,6.167619467163086L2.33593940735,4.002829467163085Q2.33464706,2.7268694671630858,3.1982675,1.7807794671630859Q4.0596775,0.8371074671630859,5.3370375,0.7094472671630859Q6.6137375,0.5818514671630859,7.6475475,1.335346467163086Q8.6839075,2.0906894671630862,8.940357500000001,3.340249467163086C8.9484975,3.379949467163086,8.9526075,3.420359467163086,8.9526075,3.460879467163086C8.9526075,3.792249467163086,8.683977500000001,4.060879467163086,8.352607500000001,4.060879467163086C8.0677275,4.060879467163086,7.8221275,3.860559467163086,7.7648575,3.581509467163086Z" fill-rule="evenodd" fill="#595959" fill-opacity="1"/></g><g><path d="M1.025390625,7.040000057220459L1.025390625,10.998330057220459Q1.0253905653954,11.66107005722046,1.494019625,12.12970005722046Q1.962649625,12.598330057220458,2.625390625,12.598330057220458L10.375390625,12.598330057220458Q11.038090625,12.598330057220458,11.506790625,12.12970005722046Q11.975390625,11.66107005722046,11.975390625,10.998330057220459L11.975390625,7.040000057220459Q11.975390625,6.377259057220459,11.506790625,5.908629057220459Q11.038090625,5.440000057220459,10.375390625,5.440000057220459L2.625390625,5.440000057220459Q1.962648625,5.440000116825059,1.494019625,5.908629057220459Q1.025390625,6.377258057220459,1.025390625,7.040000057220459ZM2.625390625,11.398330057220459Q2.225390625,11.398330057220459,2.225390625,10.998330057220459L2.225390625,7.040000057220459Q2.225390625,6.640000057220459,2.625390625,6.640000057220459L10.375390625,6.640000057220459Q10.775390625,6.640000057220459,10.775390625,7.040000057220459L10.775390625,10.998330057220459Q10.775390625,11.398330057220459,10.375390625,11.398330057220459L2.625390625,11.398330057220459Z" fill-rule="evenodd" fill="#595959" fill-opacity="1"/></g></g></svg>