<svg xmlns="http://www.w3.org/2000/svg" xmlns:xlink="http://www.w3.org/1999/xlink" fill="none"
    version="1.1" width="13" height="13" viewBox="0 0 13 13">
    <defs>
        <clipPath id="master_svg0_912_00902">
            <rect x="0" y="0" width="13" height="13" rx="0" />
        </clipPath>
    </defs>
    <g clip-path="url(#master_svg0_912_00902)">
        <g>
            <path
                d="M1.025390625,7.040000057220459L1.025390625,10.998330057220459Q1.0253905653954,11.66107005722046,1.494019625,12.12970005722046Q1.962649625,12.598330057220458,2.625390625,12.598330057220458L10.375390625,12.598330057220458Q11.038090625,12.598330057220458,11.506790625,12.12970005722046Q11.975390625,11.66107005722046,11.975390625,10.998330057220459L11.975390625,7.040000057220459Q11.975390625,6.377259057220459,11.506790625,5.908629057220459Q11.038090625,5.440000057220459,10.375390625,5.440000057220459L2.625390625,5.440000057220459Q1.962648625,5.440000116825059,1.494019625,5.908629057220459Q1.025390625,6.377258057220459,1.025390625,7.040000057220459ZM2.625390625,11.398330057220459Q2.225390625,11.398330057220459,2.225390625,10.998330057220459L2.225390625,7.040000057220459Q2.225390625,6.640000057220459,2.625390625,6.640000057220459L10.375390625,6.640000057220459Q10.775390625,6.640000057220459,10.775390625,7.040000057220459L10.775390625,10.998330057220459Q10.775390625,11.398330057220459,10.375390625,11.398330057220459L2.625390625,11.398330057220459Z"
                fill-rule="evenodd" fill="#ffffff" fill-opacity="1" />
        </g>
        <g>
            <path
                d="M8.60807625,5.958435034751892L8.60807625,3.7917650347518923Q8.60807625,2.918475034751892,7.99055625,2.300955034751892Q7.37303625,1.683435034751892,6.49973625,1.683435034751892Q5.62644625,1.683435034751892,5.00892625,2.300955034751892Q4.39140625,2.918475034751892,4.39140625,3.7917650347518923L4.39140625,5.958435034751892C4.39140625,6.289805034751892,4.12277725,6.558435034751892,3.79140625,6.558435034751892C3.46003525,6.558435034751892,3.19140625,6.289805034751892,3.19140625,5.958435034751892L3.19140625,3.7917650347518923Q3.191406369209,2.421415034751892,4.16040025,1.4524220347518921Q5.12938625,0.48343509435649207,6.49973625,0.4834350347518921Q7.87008625,0.4834350347518921,8.83907625,1.4524220347518921Q9.80807625,2.421415034751892,9.80807625,3.7917650347518923L9.80807625,5.958435034751892C9.80807625,6.289805034751892,9.539446250000001,6.558435034751892,9.208076250000001,6.558435034751892C8.87670625,6.558435034751892,8.60807625,6.289805034751892,8.60807625,5.958435034751892Z"
                fill-rule="evenodd" fill="#ffffff" fill-opacity="1" />
        </g>
        <g>
            <path
                d="M5.919921875,8.128051853179931L5.919921875,9.855361853179932C5.919921875,10.186731853179932,6.188550875,10.455361853179932,6.519921875,10.455361853179932C6.851292875,10.455361853179932,7.119921875,10.186731853179932,7.119921875,9.855361853179932L7.119921875,8.128051853179931C7.119921875,7.796680853179931,6.851292875,7.528051853179932,6.519921875,7.528051853179932C6.188550875,7.528051853179932,5.919921875,7.796680853179931,5.919921875,8.128051853179931Z"
                fill-rule="evenodd" fill="#ffffff" fill-opacity="1" />
        </g>
    </g>
</svg>