<svg xmlns="http://www.w3.org/2000/svg" xmlns:xlink="http://www.w3.org/1999/xlink" fill="none" version="1.1" width="14" height="14" viewBox="0 0 14 14"><defs><clipPath id="master_svg0_31_524"><rect x="0" y="0" width="14" height="14" rx="0"/></clipPath></defs><g clip-path="url(#master_svg0_31_524)"><g><path d="M1.15,11.333418046875L1.15,7.916748046875Q1.15,7.046899046875,1.7650757,6.431823746875Q2.380152,5.816748046875,3.25,5.816748046875L10.75,5.816748046875Q11.61985,5.816748046875,12.2349,6.431823746875Q12.85,7.046900046875,12.85,7.916748046875L12.85,11.333418046875Q12.85,12.203258046875,12.2349,12.818338046874999Q11.61985,13.433418046875001,10.75,13.433418046875001L3.25,13.433418046875001Q2.380152,13.433418046875001,1.7650757,12.818338046874999Q1.15,12.203268046875,1.15,11.333418046875ZM2.35,11.333418046875Q2.35,11.706208046875,2.613604,11.969808046875Q2.87721,12.233418046875,3.25,12.233418046875L10.75,12.233418046875Q11.12279,12.233418046875,11.3864,11.969808046875Q11.65,11.706208046875,11.65,11.333418046875L11.65,7.916748046875Q11.65,7.543958046875,11.3864,7.2803520468750005Q11.12279,7.016748046875,10.75,7.016748046875L3.25,7.016748046875Q2.87721,7.016748046875,2.613604,7.2803520468750005Q2.35,7.543958046875,2.35,7.916748046875L2.35,11.333418046875Z" fill="#808080" fill-opacity="1"/></g><g><path d="M9.317314374999999,4.083418046875L9.317314374999999,6.416748046875Q9.317314374999999,6.475838046875,9.328844375,6.533798046875Q9.340374375,6.591758046875,9.362994375,6.646358046875Q9.385604375,6.700958046875,9.418434375,6.750088046875Q9.451264375000001,6.799228046875,9.493054375,6.841008046875Q9.534844374999999,6.882798046875,9.583974375,6.915628046875Q9.633114375,6.948458046875,9.687704375,6.971078046875Q9.742304375,6.993688046875,9.800264375000001,7.005218046875Q9.858224374999999,7.016748046875,9.917314375,7.016748046875Q9.976414375000001,7.016748046875,10.034374374999999,7.005218046875Q10.092334375,6.993688046875,10.146924375000001,6.971078046875Q10.201524375,6.948458046875,10.250654375,6.915628046875Q10.299794375000001,6.882798046875,10.341584375,6.841008046875Q10.383364375,6.799228046875,10.416194375,6.750088046875Q10.449034375,6.700958046875,10.471644375,6.646358046875Q10.494264375,6.591758046875,10.505784375000001,6.533798046875Q10.517314375,6.475838046875,10.517314375,6.416748046875L10.517314375,4.083418046875Q10.517314375,2.626768046875,9.487304375,1.596755046875Q8.457294375,0.566748046875,7.000654375,0.566748046875Q5.544004375,0.566748046875,4.513998375,1.596755046875Q3.483984375,2.626768046875,3.483984375,4.083418046875L3.483984375,6.416748046875Q3.483984375,6.475838046875,3.495513375,6.533798046875Q3.507042375,6.591758046875,3.529656375,6.646358046875Q3.552271375,6.700958046875,3.585102375,6.750088046875Q3.617934375,6.799228046875,3.659720375,6.841008046875Q3.701506375,6.882798046875,3.750642375,6.915628046875Q3.799777375,6.948458046875,3.854374375,6.971078046875Q3.908970375,6.993688046875,3.966930375,7.005218046875Q4.0248895749999996,7.016748046875,4.083984375,7.016748046875Q4.1430791750000004,7.016748046875,4.201038375,7.005218046875Q4.258998375,6.993688046875,4.313594375,6.971078046875Q4.368191375,6.948458046875,4.417326375,6.915628046875Q4.466462375,6.882798046875,4.508248375,6.841008046875Q4.550034375,6.799228046875,4.582866375,6.750088046875Q4.615697375,6.700958046875,4.638312375,6.646358046875Q4.660926375,6.591758046875,4.672455375,6.533798046875Q4.683984375,6.475838046875,4.683984375,6.416748046875L4.683984375,4.083418046875Q4.683984375,3.123818046875,5.362524375,2.445288046875Q6.0410643749999995,1.766748046875,7.000654375,1.766748046875Q7.960234375000001,1.766748046875,8.638774375,2.445288046875Q9.317314374999999,3.123818046875,9.317314374999999,4.083418046875Z" fill-rule="evenodd" fill="#808080" fill-opacity="1"/></g><g><path d="M6.4,8.75L6.4,10.5Q6.4,10.55909,6.411529,10.61705Q6.423058,10.67501,6.445672,10.729610000000001Q6.468287,10.78421,6.501118,10.83334Q6.53395,10.882480000000001,6.575736,10.92426Q6.617522,10.96605,6.666658,10.99888Q6.715793,11.03171,6.77039,11.05433Q6.824986,11.07694,6.882946,11.088470000000001Q6.9409051999999996,11.1,7,11.1Q7.0590948000000004,11.1,7.117054,11.088470000000001Q7.175014,11.07694,7.22961,11.05433Q7.284207,11.03171,7.333342,10.99888Q7.382478,10.96605,7.424264,10.92426Q7.46605,10.882480000000001,7.498882,10.83334Q7.531713,10.78421,7.554328,10.729610000000001Q7.576942,10.67501,7.588471,10.61705Q7.6,10.55909,7.6,10.5L7.6,8.75Q7.6,8.6909052,7.588471,8.632946Q7.576942,8.574985999999999,7.554328,8.52039Q7.531713,8.465793,7.498882,8.416658Q7.46605,8.367522,7.424264,8.325736Q7.382478,8.28395,7.333342,8.251118Q7.284207,8.218287,7.22961,8.195672Q7.175014,8.173058,7.117054,8.161529Q7.0590948000000004,8.15,7,8.15Q6.9409051999999996,8.15,6.882946,8.161529Q6.824986,8.173058,6.77039,8.195672Q6.715793,8.218287,6.666658,8.251118Q6.617522,8.28395,6.575736,8.325736Q6.53395,8.367522,6.501118,8.416658Q6.468287,8.465793,6.445672,8.52039Q6.423058,8.574985999999999,6.411529,8.632946Q6.4,8.6909052,6.4,8.75Z" fill-rule="evenodd" fill="#808080" fill-opacity="1"/></g></g></svg>