<svg width="200" height="200" viewBox="0 0 200 200" fill="none" xmlns="http://www.w3.org/2000/svg">
<rect x="36" y="79" width="128" height="77" rx="10" fill="#D9D9D9"/>
<path d="M63 79C63 74.1411 63.957 69.3298 65.8165 64.8407C67.6759 60.3517 70.4013 56.2728 73.8371 52.837C77.2728 49.4013 81.3517 46.6759 85.8407 44.8165C90.3298 42.957 95.1411 42 100 42C104.859 42 109.67 42.957 114.159 44.8165C118.648 46.6759 122.727 49.4013 126.163 52.8371C129.599 56.2728 132.324 60.3517 134.184 64.8407C136.043 69.3298 137 74.1411 137 79L114.826 79C114.826 77.0531 114.442 75.1252 113.697 73.3265C112.952 71.5277 111.86 69.8934 110.483 68.5167C109.107 67.14 107.472 66.0479 105.674 65.3029C103.875 64.5578 101.947 64.1743 100 64.1743C98.0531 64.1743 96.1252 64.5578 94.3265 65.3029C92.5277 66.0479 90.8934 67.14 89.5167 68.5167C88.14 69.8934 87.0479 71.5277 86.3029 73.3265C85.5578 75.1252 85.1743 77.0531 85.1743 79L63 79Z" fill="#D9D9D9"/>
<rect x="63" y="79" width="22.2" height="48.7167" fill="#D9D9D9"/>
</svg>
