<svg xmlns="http://www.w3.org/2000/svg" xmlns:xlink="http://www.w3.org/1999/xlink" fill="none" version="1.1" width="16" height="17.5927734375" viewBox="0 0 16 17.5927734375"><g style="mix-blend-mode:passthrough"><g style="mix-blend-mode:passthrough"><rect x="0" y="6.925926208496094" width="16" height="10.666666984558105" rx="0" fill="#FFFFFF" fill-opacity="0"/><rect x="1" y="7.925926208496094" width="14" height="8.666666984558105" rx="0" fill-opacity="0" stroke-opacity="0.4699999988079071" stroke="#3D3D3D" fill="none" stroke-width="2"/></g><g style="mix-blend-mode:passthrough"><path d="" fill="#FFFFFF" fill-opacity="0"/><path d="M3.74074125289917,7.51852L3.74074125289917,5.43006L3.74074125289917,4.259259999999999Q3.74074125289917,2.4950200000000002,4.98824925289917,1.247508Q6.23576125289917,0,8.00000125289917,0Q9.76424125289917,0,11.01175125289917,1.247508Q12.259261252899169,2.4950200000000002,12.259261252899169,4.259259999999999L12.259261252899169,5.43006L10.259261252899169,5.43006L10.259261252899169,4.259259999999999Q10.259261252899169,3.32344,9.59754125289917,2.66172Q8.93582125289917,2,8.00000125289917,2Q7.06418125289917,2,6.40246125289917,2.66172Q5.74074125289917,3.32344,5.74074125289917,4.259259999999999L5.74074125289917,5.43006L5.74074125289917,7.51852L3.74074125289917,7.51852Z" fill="#3D3D3D" fill-opacity="0.4699999988079071"/></g></g></svg>