<svg xmlns="http://www.w3.org/2000/svg" xmlns:xlink="http://www.w3.org/1999/xlink" fill="none" version="1.1" width="14" height="14" viewBox="0 0 14 14"><defs><clipPath id="master_svg0_53_0351/49_792"><rect x="0" y="0" width="14" height="14" rx="0"/></clipPath></defs><g clip-path="url(#master_svg0_53_0351/49_792)"><g><path d="M1.15,11.833418046875L1.15,7.416748046875Q1.15,6.754006046875,1.618629,6.285377046875Q2.087258,5.816748046875,2.75,5.816748046875L11.25,5.816748046875Q11.9127,5.816748046875,12.3814,6.285377046875Q12.85,6.7540070468749995,12.85,7.416748046875L12.85,11.833418046875Q12.85,12.496158046875,12.3814,12.964788046875Q11.9127,13.433418046875001,11.25,13.433418046875001L2.75,13.433418046875001Q2.087259,13.433418046875001,1.618629,12.964788046875Q1.15,12.496158046875,1.15,11.833418046875ZM2.35,11.833418046875Q2.35,12.233418046875,2.75,12.233418046875L11.25,12.233418046875Q11.65,12.233418046875,11.65,11.833418046875L11.65,7.416748046875Q11.65,7.016748046875,11.25,7.016748046875L2.75,7.016748046875Q2.35,7.016748046875,2.35,7.416748046875L2.35,11.833418046875Z" fill="#808080" fill-opacity="1"/></g><g><path d="M9.316704023437499,4.083418046875L9.316704023437499,6.416748046875Q9.316704023437499,6.475838046875,9.3282340234375,6.533798046875Q9.3397640234375,6.591758046875,9.3623840234375,6.646358046875Q9.3849940234375,6.700958046875,9.4178240234375,6.750088046875Q9.450654023437501,6.799228046875,9.4924440234375,6.841008046875Q9.534234023437499,6.882798046875,9.5833640234375,6.915628046875Q9.6325040234375,6.948458046875,9.6870940234375,6.971078046875Q9.7416940234375,6.993688046875,9.799654023437501,7.005218046875Q9.857614023437499,7.016748046875,9.9167040234375,7.016748046875Q9.975804023437501,7.016748046875,10.033764023437499,7.005218046875Q10.0917240234375,6.993688046875,10.146314023437501,6.971078046875Q10.2009140234375,6.948458046875,10.2500440234375,6.915628046875Q10.299184023437501,6.882798046875,10.3409740234375,6.841008046875Q10.3827540234375,6.799228046875,10.4155840234375,6.750088046875Q10.4484240234375,6.700958046875,10.4710340234375,6.646358046875Q10.4936540234375,6.591758046875,10.505174023437501,6.533798046875Q10.5167040234375,6.475838046875,10.5167040234375,6.416748046875L10.5167040234375,4.083418046875Q10.5167040234375,2.626768046875,9.4866940234375,1.596755046875Q8.4566840234375,0.566748046875,7.0000440234375,0.566748046875Q5.5433940234375,0.566748046875,4.5133880234375,1.596755046875Q3.4833740234375,2.626768046875,3.4833740234375,4.083418046875L3.4833740234375,6.416748046875Q3.4833740234375,6.475838046875,3.4949030234375,6.533798046875Q3.5064320234375,6.591758046875,3.5290460234375,6.646358046875Q3.5516610234375,6.700958046875,3.5844920234375,6.750088046875Q3.6173240234375,6.799228046875,3.6591100234375,6.841008046875Q3.7008960234375,6.882798046875,3.7500320234375,6.915628046875Q3.7991670234375,6.948458046875,3.8537640234375,6.971078046875Q3.9083600234375,6.993688046875,3.9663200234375,7.005218046875Q4.0242792234374996,7.016748046875,4.0833740234375,7.016748046875Q4.1424688234375004,7.016748046875,4.2004280234375,7.005218046875Q4.2583880234375,6.993688046875,4.3129840234375,6.971078046875Q4.3675810234375,6.948458046875,4.4167160234375,6.915628046875Q4.4658520234375,6.882798046875,4.5076380234375,6.841008046875Q4.5494240234375,6.799228046875,4.5822560234375,6.750088046875Q4.6150870234375,6.700958046875,4.6377020234375,6.646358046875Q4.6603160234375,6.591758046875,4.6718450234375,6.533798046875Q4.6833740234375,6.475838046875,4.6833740234375,6.416748046875L4.6833740234375,4.083418046875Q4.6833740234375,3.123818046875,5.3619140234375,2.445288046875Q6.0404540234374995,1.766748046875,7.0000440234375,1.766748046875Q7.959624023437501,1.766748046875,8.6381640234375,2.445288046875Q9.316704023437499,3.123818046875,9.316704023437499,4.083418046875Z" fill-rule="evenodd" fill="#808080" fill-opacity="1"/></g></g></svg>