<svg xmlns="http://www.w3.org/2000/svg" xmlns:xlink="http://www.w3.org/1999/xlink" fill="none" version="1.1" width="14" height="14" viewBox="0 0 14 14"><defs><clipPath id="master_svg0_517_01298"><rect x="0" y="0" width="14" height="14" rx="0"/></clipPath><clipPath id="master_svg1_517_01298/49_792"><rect x="0" y="0" width="14" height="14" rx="0"/></clipPath></defs><g clip-path="url(#master_svg0_517_01298)"><g clip-path="url(#master_svg1_517_01298/49_792)"><g><path d="M1.15,11.833418046875L1.15,7.416748046875Q1.15,6.754006046875,1.618629,6.285377046875Q2.087258,5.816748046875,2.75,5.816748046875L11.25,5.816748046875Q11.9127,5.816748046875,12.3814,6.285377046875Q12.85,6.7540070468749995,12.85,7.416748046875L12.85,11.833418046875Q12.85,12.496158046875,12.3814,12.964788046875Q11.9127,13.433418046875001,11.25,13.433418046875001L2.75,13.433418046875001Q2.087259,13.433418046875001,1.618629,12.964788046875Q1.15,12.496158046875,1.15,11.833418046875ZM2.35,11.833418046875Q2.35,12.233418046875,2.75,12.233418046875L11.25,12.233418046875Q11.65,12.233418046875,11.65,11.833418046875L11.65,7.416748046875Q11.65,7.016748046875,11.25,7.016748046875L2.75,7.016748046875Q2.35,7.016748046875,2.35,7.416748046875L2.35,11.833418046875Z" fill="#8C8C8C" fill-opacity="1"/></g><g><path d="M9.316826093749999,4.083418046875L9.316826093749999,6.416748046875Q9.316826093749999,6.475838046875,9.32835609375,6.533798046875Q9.33988609375,6.591758046875,9.36250609375,6.646358046875Q9.38511609375,6.700958046875,9.41794609375,6.750088046875Q9.450776093750001,6.799228046875,9.49256609375,6.841008046875Q9.534356093749999,6.882798046875,9.58348609375,6.915628046875Q9.63262609375,6.948458046875,9.68721609375,6.971078046875Q9.74181609375,6.993688046875,9.799776093750001,7.005218046875Q9.857736093749999,7.016748046875,9.91682609375,7.016748046875Q9.975926093750001,7.016748046875,10.033886093749999,7.005218046875Q10.09184609375,6.993688046875,10.146436093750001,6.971078046875Q10.20103609375,6.948458046875,10.25016609375,6.915628046875Q10.299306093750001,6.882798046875,10.34109609375,6.841008046875Q10.38287609375,6.799228046875,10.41570609375,6.750088046875Q10.44854609375,6.700958046875,10.47115609375,6.646358046875Q10.49377609375,6.591758046875,10.505296093750001,6.533798046875Q10.51682609375,6.475838046875,10.51682609375,6.416748046875L10.51682609375,4.083418046875Q10.51682609375,2.626768046875,9.48681609375,1.596755046875Q8.45680609375,0.566748046875,7.00016609375,0.566748046875Q5.54351609375,0.566748046875,4.51351009375,1.596755046875Q3.48349609375,2.626768046875,3.48349609375,4.083418046875L3.48349609375,6.416748046875Q3.48349609375,6.475838046875,3.49502509375,6.533798046875Q3.50655409375,6.591758046875,3.52916809375,6.646358046875Q3.55178309375,6.700958046875,3.58461409375,6.750088046875Q3.61744609375,6.799228046875,3.65923209375,6.841008046875Q3.70101809375,6.882798046875,3.75015409375,6.915628046875Q3.79928909375,6.948458046875,3.85388609375,6.971078046875Q3.90848209375,6.993688046875,3.96644209375,7.005218046875Q4.0244012937499996,7.016748046875,4.08349609375,7.016748046875Q4.1425908937500004,7.016748046875,4.20055009375,7.005218046875Q4.25851009375,6.993688046875,4.31310609375,6.971078046875Q4.36770309375,6.948458046875,4.41683809375,6.915628046875Q4.46597409375,6.882798046875,4.50776009375,6.841008046875Q4.54954609375,6.799228046875,4.58237809375,6.750088046875Q4.61520909375,6.700958046875,4.63782409375,6.646358046875Q4.66043809375,6.591758046875,4.67196709375,6.533798046875Q4.68349609375,6.475838046875,4.68349609375,6.416748046875L4.68349609375,4.083418046875Q4.68349609375,3.123818046875,5.36203609375,2.445288046875Q6.0405760937499995,1.766748046875,7.00016609375,1.766748046875Q7.959746093750001,1.766748046875,8.63828609375,2.445288046875Q9.316826093749999,3.123818046875,9.316826093749999,4.083418046875Z" fill-rule="evenodd" fill="#8C8C8C" fill-opacity="1"/></g></g></g></svg>