<svg xmlns="http://www.w3.org/2000/svg" xmlns:xlink="http://www.w3.org/1999/xlink" fill="none" version="1.1" width="24" height="24" viewBox="0 0 24 24"><defs><clipPath id="master_svg0_1_0067"><rect x="0" y="0" width="24" height="24" rx="0"/></clipPath></defs><g clip-path="url(#master_svg0_1_0067)"><g><path d="M20.2025,16.8022Q20.2025,16.7065,20.1799,16.613500000000002Q20.157400000000003,16.5205,20.113500000000002,16.4354Q20.0696,16.3504,20.0069,16.278100000000002Q19.9441,16.2057,19.8661,16.1503Q17.8021,14.6825,17.8021,9.120899999999999Q17.8021,6.6833,16.1795,4.952704Q14.53642,3.2,12.201260000000001,3.2Q9.8661,3.2,8.22292,4.952727Q6.60042,6.68339,6.60042,9.120899999999999Q6.60042,14.6825,4.536386,16.1503Q4.472173,16.1959,4.418102,16.2532Q4.36403,16.3106,4.322179,16.377299999999998Q4.280328,16.4441,4.252305,16.517699999999998Q4.224282,16.5914,4.211165,16.6691Q4.198047,16.7467,4.200339,16.825499999999998Q4.20263,16.9043,4.220243,16.981099999999998Q4.237856,17.0579,4.270113,17.1298Q4.30237,17.2016,4.348032,17.265900000000002Q4.403503,17.343899999999998,4.475811,17.406599999999997Q4.54812,17.4693,4.633183,17.513199999999998Q4.718247,17.5571,4.811264,17.579700000000003Q4.9042812,17.6022,5,17.6022L19.4025,17.6022Q19.481299999999997,17.6022,19.5586,17.5869Q19.6359,17.5715,19.7087,17.5413Q19.7815,17.511200000000002,19.847,17.467399999999998Q19.9125,17.4236,19.9682,17.3679Q20.023899999999998,17.3122,20.067700000000002,17.2467Q20.1115,17.1812,20.1416,17.1084Q20.171799999999998,17.035600000000002,20.1871,16.9583Q20.2025,16.881,20.2025,16.8022ZM17.612299999999998,16.002200000000002Q16.2021,13.70571,16.2021,9.120899999999999Q16.2021,7.316050000000001,15.0123,6.0470500000000005Q13.84324,4.8,12.201260000000001,4.8Q10.55927,4.8,9.39018,6.0470299999999995Q8.20042,7.31611,8.20042,9.120899999999999Q8.20042,13.70571,6.79025,16.002200000000002L17.612299999999998,16.002200000000002Z" fill-rule="evenodd" fill="#262626" fill-opacity="1"/></g><g><path d="M11.5092106015625,18.80155471875L11.5090396015625,18.80125871875Q11.4562986015625,18.71032771875,11.3818576015625,18.63610771875Q11.3074156015625,18.56188771875,11.2163276015625,18.50941871875Q11.1252386015625,18.45694971875,11.0236876015625,18.42979371875Q10.9221366015625,18.40263671875,10.8170168631395,18.40263671875Q10.7976577015625,18.40263671875,10.7783215015625,18.40357271875Q10.5839626015625,18.41298471875,10.4156386015625,18.51061371875Q10.3247076015625,18.56335471875,10.2504876015625,18.63779671875Q10.1762676015625,18.71223771875,10.1237986015625,18.80332671875Q10.0713296015625,18.89441471875,10.0441736015625,18.99596571875Q10.0170166015625,19.09751671875,10.0170166015625,19.20263671875Q10.0170166015625,19.22199551875,10.0179526015625,19.24133181875Q10.0273646015625,19.43569071875,10.1249936015625,19.60401471875L10.1250016015625,19.60402871875L10.1250666015625,19.60414071875Q10.4471516015625,20.15938071875,11.0033896015625,20.47963671875Q11.5594446015625,20.79997671875,12.2012566015625,20.79997671875Q12.843076601562501,20.79997671875,13.3993066015625,20.47953671875Q13.9553366015625,20.15950171875,14.2775266015625,19.60401271875Q14.385496601562501,19.41784871875,14.385496601562501,19.202637129505L14.3853966015625,19.18982031875Q14.3838266015625,19.09183071875,14.358656601562501,18.99711771875Q14.3177666015625,18.84332871875,14.2211466015625,18.71688971875Q14.1245266015625,18.59045171875,13.9868766015625,18.51061271875Q13.800716601562499,18.40263671875,13.5854966015625,18.40263671875L13.5726866015625,18.40273971875Q13.4746966015625,18.40430971875,13.3799866015625,18.42948571875Q13.2261966015625,18.47036671875,13.0997566015625,18.56698771875Q12.9733166015625,18.66360871875,12.8934766015625,18.80126071875Q12.7861066015625,18.98637571875,12.6006166015625,19.09314171875Q12.4151666015625,19.19997667875,12.2012566015625,19.19997667875Q11.9873566015625,19.19997667875,11.8017306015625,19.09303971875Q11.6165256015625,18.98640771875,11.5092106015625,18.80155471875Z" fill-rule="evenodd" fill="#8C8C8C" fill-opacity="1"/></g></g></svg>