<svg xmlns="http://www.w3.org/2000/svg" xmlns:xlink="http://www.w3.org/1999/xlink" fill="none" version="1.1" width="20" height="20" viewBox="0 0 20 20"><defs><clipPath id="master_svg0_740_1787"><rect x="0" y="0" width="20" height="20" rx="0"/></clipPath></defs><g clip-path="url(#master_svg0_740_1787)"><g><path d="M17.432743505859374,7.432621953125L9.099373505859376,15.765951953125C8.676303505859375,16.189051953125002,7.990383505859375,16.189051953125002,7.567313505859375,15.765951953125L3.401158505859375,11.599801953124999L3.401158505859375,11.599801953124999C3.197480505859375,11.396121953125,3.083343605200475,11.120571953125001,3.083343505859375,10.833251953125C3.083343505859375,10.545931953124999,3.197480505859375,10.270381953125,3.400644505859375,10.067221953125C3.6038085058593747,9.864051953125,3.879358505859375,9.749921953125,4.166673505859375,9.749921953125C4.4539935058593745,9.749921953125,4.729543505859375,9.864051953125,4.932713505859375,10.067221953125L8.333343505859375,13.467851953124999L15.900643505859374,5.900552953125C16.103843505859373,5.697388953125,16.379343505859374,5.583251953125,16.666643505859376,5.583251953125C16.954043505859374,5.583251953125,17.229543505859375,5.697388953125,17.432743505859374,5.900552953125C17.635843505859377,6.103717953125,17.750043505859374,6.379267953125,17.750043505859374,6.666581953125C17.750043505859374,6.9539019531249995,17.635843505859377,7.229451953125,17.432743505859374,7.432621953125Z" fill-rule="evenodd" fill="#1878F5" fill-opacity="1"/></g></g></svg>