<svg xmlns="http://www.w3.org/2000/svg" xmlns:xlink="http://www.w3.org/1999/xlink" fill="none" version="1.1" width="24" height="24" viewBox="0 0 24 24"><defs><clipPath id="master_svg0_1_524"><rect x="0" y="0" width="24" height="24" rx="0"/></clipPath><clipPath id="master_svg1_1_525"><rect x="2" y="2" width="20" height="20" rx="0"/></clipPath></defs><g clip-path="url(#master_svg0_1_524)"><g clip-path="url(#master_svg1_1_525)"><g><ellipse cx="11.999837875366211" cy="11.999837875366211" rx="8.333333969116211" ry="8.333333969116211" fill-opacity="0" stroke-opacity="1" stroke="#BFBFBF" fill="none" stroke-width="1.600000023841858" stroke-linecap="ROUND" stroke-linejoin="round"/></g><g transform="matrix(1,0,0,-1,0,33.34716796875)"><path d="M12.00007265625,17.473583984375Q13.367812656249999,17.473583984375,14.34984265625,18.574843984375Q14.40228265625,18.633653984375,14.46519265625,18.681103984375Q14.528102656249999,18.728553984375,14.599052656249999,18.762813984375Q14.67000265625,18.797073984375,14.74628265625,18.816833984375002Q14.82255265625,18.836603984375,14.901222656249999,18.841103984375Q14.97988265625,18.845603984375,15.05791265625,18.834673984375Q15.13594265625,18.823743984375,15.210342656249999,18.797793984375Q15.28474265625,18.771853984375,15.352652656250001,18.731893984375Q15.42056265625,18.691933984374998,15.47937265625,18.639493984375Q15.59813265625,18.533583984375,15.66733265625,18.390283984375Q15.736532656249999,18.246993984375,15.74562265625,18.088123984375Q15.75471265625,17.929253984375,15.70232265625,17.778993984375Q15.64992265625,17.628737984375,15.54401265625,17.509969984375Q14.08479265625,15.873583984375,12.00007265625,15.873583984375Q9.91535965625,15.873583984375,8.45613865625,17.509969984375Q8.35811965625,17.619890984375,8.30567065625,17.757513984375Q8.25322265625,17.895133984375,8.25322265625,18.042413984375Q8.25322265625,18.065283984375,8.25452965625,18.088123984375Q8.26362165625,18.246993984375,8.33281865625,18.390283984375Q8.40201665625,18.533583984375,8.52078365625,18.639493984375Q8.63070365625,18.737513984375,8.76832465625,18.789963984375Q8.90594565625,18.842413984375,9.05322265625,18.842413984375L9.05568515625,18.842403984375Q9.07732685625,18.842343984375,9.09893325625,18.841103984375Q9.25780265625,18.832013984375,9.40109965625,18.762813984375Q9.54439665625,18.693613984375,9.65030565625,18.574843984375L9.65077365625,18.574323984375Q10.63266265625,17.473583984375,12.00007265625,17.473583984375Z" fill-rule="evenodd" fill="#D9D9D9" fill-opacity="1"/></g></g></g></svg>