<svg xmlns="http://www.w3.org/2000/svg" xmlns:xlink="http://www.w3.org/1999/xlink" fill="none" version="1.1" width="14" height="14" viewBox="0 0 14 14"><defs><clipPath id="master_svg0_33_2719"><rect x="0" y="0" width="14" height="14" rx="0"/></clipPath></defs><g clip-path="url(#master_svg0_33_2719)"><g><path d="M3.3714259375,2.14584Q2.3755859375,3.14168,2.3755859375,4.55001Q2.3755859375,5.95832,3.3714239375,6.95417Q4.3672659375,7.95002,5.7755959375,7.95002Q7.1839059375,7.95002,8.179755937500001,6.95417Q9.1756059375,5.95832,9.1756059375,4.55001Q9.1756059375,3.14168,8.179755937500001,2.145838Q7.1839059375,1.15,5.7755959375,1.15Q4.3672659375,1.15,3.3714259375,2.14584ZM4.2199559375,6.10564Q3.5755859375,5.46127,3.5755859375,4.55001Q3.5755859375,3.6387400000000003,4.2199559375,2.99437Q4.8643259375,2.35,5.7755959375,2.35Q6.6868559375,2.35,7.3312259375,2.99437Q7.9756059375,3.6387400000000003,7.9756059375,4.55001Q7.9756059375,5.461259999999999,7.3312259375,6.10564Q6.686845937499999,6.75002,5.7755959375,6.75002Q4.8643259375,6.75002,4.2199559375,6.10564Z" fill-rule="evenodd" fill="#FFFFFF" fill-opacity="1"/></g><g><path d="M7.61638,8.3626414453125L7.6176,8.363221445312501Q7.73977,8.4212514453125,7.87502,8.4212514453125Q7.88217,8.4212514453125,7.88932,8.4210814453125Q7.98555,8.4187914453125,8.076229999999999,8.3865114453125Q8.18867,8.3464894453125,8.27723,8.2664864453125Q8.36579,8.1864834453125,8.417,8.0786784453125Q8.47502,7.9565074453125,8.47502,7.8212544453125Q8.47502,7.8111214453125,8.47468,7.8009964453125Q8.4719,7.7185084453125,8.44694,7.6398374453125Q8.421990000000001,7.5611664453125,8.376719999999999,7.4921544453125Q8.33145,7.4231433453125,8.26922,7.3689183453125Q8.207,7.3146932453125,8.13245,7.2792825453125Q7.01756,6.7497314453125,5.77502,6.7497314453125Q3.49684,6.7497314453125,1.88592,8.3606514453125Q0.275,9.9715614453125,0.275,12.2497514453125L0.275,12.9497514453125Q0.275,13.0088414453125,0.28652900000000003,13.0668014453125Q0.29805800000000005,13.124761445312501,0.32067199999999996,13.1793614453125Q0.343287,13.233961445312499,0.376118,13.2830914453125Q0.40895,13.3322314453125,0.450736,13.374011445312501Q0.492522,13.4158014453125,0.541658,13.4486314453125Q0.590793,13.481461445312501,0.64539,13.5040814453125Q0.699986,13.526691445312501,0.757946,13.5382214453125Q0.8159052,13.5497514453125,0.875,13.5497514453125Q0.9340948,13.5497514453125,0.992054,13.5382214453125Q1.050014,13.526691445312501,1.10461,13.5040814453125Q1.1592069999999999,13.481461445312501,1.208342,13.4486314453125Q1.2574779999999999,13.4158014453125,1.299264,13.374011445312501Q1.34105,13.3322314453125,1.373882,13.2830914453125Q1.4067129999999999,13.233961445312499,1.429328,13.1793614453125Q1.4519419999999998,13.124761445312501,1.463471,13.0668014453125Q1.475,13.0088414453125,1.475,12.9497514453125L1.475,12.2497514453125Q1.475,10.4686214453125,2.73445,9.2091714453125Q3.99389,7.9497314453125,5.77502,7.9497314453125Q6.74637,7.9497314453125,7.61638,8.3626414453125Z" fill-rule="evenodd" fill="#FFFFFF" fill-opacity="1"/></g><g><path d="M11.623838124999999,9.900156484375L11.623838124999999,8.400146484375Q11.623838124999999,8.341051684375,11.612308125,8.283092484375Q11.600778125,8.225132484374999,11.578158125,8.170536484375Q11.555548125,8.115939484375,11.522718125,8.066804484375Q11.489888125,8.017668484375,11.448098125,7.975882484375Q11.406308124999999,7.934096484375,11.357178125,7.901264484375Q11.308038125,7.868433484375,11.253448125,7.845818484375Q11.198848125,7.823204484375,11.140888125,7.811675484375Q11.082928125,7.800146484375,11.023838125000001,7.800146484375Q10.964738125,7.800146484375,10.906778125,7.811675484375Q10.848818125,7.823204484375,10.794228125,7.845818484375Q10.739628125,7.868433484375,10.690498125,7.901264484375Q10.641358125,7.934096484375,10.599568125,7.975882484375Q10.557788125,8.017668484375,10.524958125,8.066804484375Q10.492118125,8.115939484375,10.469508125,8.170536484375Q10.446888125000001,8.225132484374999,10.435368125,8.283092484375Q10.423838125,8.341051684375,10.423838125,8.400146484375L10.423838125,9.900156484375L8.923828125,9.900156484375Q8.864733325,9.900156484375,8.806774125,9.911686484375Q8.748814124999999,9.923206484375001,8.694218125,9.945826484375Q8.639621125,9.968436484375,8.590486125,10.001276484375Q8.541350125,10.034106484375,8.499564125,10.075886484375Q8.457778125,10.117676484375,8.424946125,10.166816484375Q8.392115125,10.215946484375,8.369500125,10.270546484375Q8.346886125,10.325136484375,8.335357125,10.383096484375Q8.323828125,10.441056484375,8.323828125,10.500156484375001Q8.323828125,10.559246484375,8.335357125,10.617206484375Q8.346886125,10.675166484375,8.369500125,10.729766484375Q8.392115125,10.784356484375,8.424946125,10.833496484375Q8.457778125,10.882626484374999,8.499564125,10.924416484375Q8.541350125,10.966206484375,8.590486125,10.999036484375Q8.639621125,11.031866484375,8.694218125,11.054476484375Q8.748814124999999,11.077096484375,8.806774125,11.088626484375Q8.864733325,11.100156484374999,8.923828125,11.100156484374999L10.423838125,11.100156484374999L10.423838125,12.600166484375Q10.423838125,12.659256484375,10.435368125,12.717216484375001Q10.446888125000001,12.775176484374999,10.469508125,12.829766484375Q10.492118125,12.884366484375,10.524958125,12.933506484375Q10.557788125,12.982636484375,10.599568125,13.024426484374999Q10.641358125,13.066216484375001,10.690498125,13.099046484375Q10.739628125,13.131876484374999,10.794228125,13.154486484375Q10.848818125,13.177106484374999,10.906778125,13.188636484375Q10.964738125,13.200156484375,11.023838125000001,13.200156484375Q11.082928125,13.200156484375,11.140888125,13.188636484375Q11.198848125,13.177106484374999,11.253448125,13.154486484375Q11.308038125,13.131876484374999,11.357178125,13.099046484375Q11.406308124999999,13.066206484375,11.448098125,13.024426484374999Q11.489888125,12.982636484375,11.522718125,12.933506484375Q11.555548125,12.884366484375,11.578158125,12.829766484375Q11.600778125,12.775176484374999,11.612308125,12.717216484375001Q11.623838124999999,12.659256484375,11.623838124999999,12.600166484375L11.623838124999999,11.100156484374999L13.123848125,11.100156484374999Q13.182938125,11.100156484374999,13.240898125000001,11.088626484375Q13.298858124999999,11.077096484375,13.353448125,11.054476484375Q13.408048125,11.031866484375,13.457188125,10.999036484375Q13.506318125,10.966206484375,13.548108124999999,10.924416484375Q13.589898125000001,10.882626484374999,13.622728125,10.833496484375Q13.655558124999999,10.784356484375,13.678168125,10.729766484375Q13.700788124999999,10.675166484375,13.712318125,10.617206484375Q13.723838125,10.559246484375,13.723838125,10.500156484375001Q13.723838125,10.441056484375,13.712318125,10.383096484375Q13.700788124999999,10.325136484375,13.678168125,10.270546484375Q13.655558124999999,10.215946484375,13.622728125,10.166816484375Q13.589888125,10.117676484375,13.548108124999999,10.075886484375Q13.506318125,10.034106484375,13.457188125,10.001276484375Q13.408048125,9.968436484375,13.353448125,9.945826484375Q13.298858124999999,9.923216484375,13.240898125000001,9.911686484375Q13.182938125,9.900156484375,13.123848125,9.900156484375L11.623838124999999,9.900156484375Z" fill-rule="evenodd" fill="#FFFFFF" fill-opacity="1"/></g></g></svg>