<svg xmlns="http://www.w3.org/2000/svg" xmlns:xlink="http://www.w3.org/1999/xlink" fill="none" version="1.1" width="18" height="18" viewBox="0 0 18 18"><defs><clipPath id="master_svg0_59_1873"><rect x="0" y="0" width="18" height="18" rx="0"/></clipPath></defs><g clip-path="url(#master_svg0_59_1873)"><g><path d="M4.455106171875,2.8801550000000002Q3.224951171875,4.11031,3.224951171875,5.85001Q3.224951171875,7.58969,4.455105171875,8.81986Q5.685271171875,10.05003,7.424961171875,10.05003Q9.164641171875001,10.05003,10.394811171875,8.81986Q11.624981171875,7.58969,11.624981171875,5.85001Q11.624981171875,4.11032,10.394811171875,2.880153Q9.164641171875001,1.65,7.424961171875,1.65Q5.685261171875,1.65,4.455106171875,2.8801550000000002ZM5.303631171875,7.97133Q4.424951171875,7.09264,4.424951171875,5.85001Q4.424951171875,4.6073699999999995,5.303631171875,3.7286799999999998Q6.1823211718749995,2.85,7.424961171875,2.85Q8.667591171875,2.85,9.546281171875,3.7286799999999998Q10.424981171875,4.6073699999999995,10.424981171875,5.85001Q10.424981171875,7.09263,9.546281171875,7.97133Q8.667581171875,8.85003,7.424961171875,8.85003Q6.1823211718749995,8.85003,5.303631171875,7.97133Z" fill-rule="evenodd" fill="#333333" fill-opacity="1"/></g><g><path d="M9.86639,10.59733703125L9.86761,10.59791703125Q9.98978,10.65594703125,10.12503,10.65594703125Q10.13218,10.65594703125,10.13933,10.65577703125Q10.23555,10.65348703125,10.32624,10.62120703125Q10.43867,10.58118703125,10.52724,10.50118703125Q10.6158,10.42118003125,10.667,10.31337503125Q10.72503,10.19120503125,10.72503,10.05595503125Q10.72503,10.04581803125,10.72469,10.03569203125Q10.7219,9.95320503125,10.69695,9.87453403125Q10.67199,9.79586203125,10.62672,9.72685103125Q10.58146,9.65783903125,10.51923,9.60361403125Q10.45701,9.54938933125,10.38246,9.51397863125L10.38194,9.51373233125Q8.98365,8.84970703125,7.42502,8.84970703125Q4.566940000000001,8.84970703125,2.54597,10.87067703125Q0.525,12.89164703125,0.525,15.74972703125L0.525,16.649737031249998Q0.525,16.70882703125,0.536529,16.76678703125Q0.548058,16.82474703125,0.570672,16.87934703125Q0.593287,16.93393703125,0.626118,16.983077031249998Q0.6589499999999999,17.03220703125,0.700736,17.073997031250002Q0.742522,17.11578703125,0.791658,17.148617031249998Q0.840793,17.181447031250002,0.89539,17.20405703125Q0.949986,17.22667703125,1.007946,17.23820703125Q1.0659052,17.24973703125,1.125,17.24973703125Q1.1840948,17.24973703125,1.242054,17.23820703125Q1.300014,17.22667703125,1.35461,17.20405703125Q1.4092069999999999,17.181447031250002,1.458342,17.148617031249998Q1.5074779999999999,17.11578703125,1.549264,17.073997031250002Q1.59105,17.03220703125,1.623882,16.983077031249998Q1.6567129999999999,16.93393703125,1.679328,16.87934703125Q1.7019419999999998,16.82474703125,1.713471,16.76678703125Q1.725,16.70882703125,1.725,16.649737031249998L1.725,15.74972703125Q1.725,13.38869703125,3.3945,11.71920703125Q5.064,10.04970703125,7.42502,10.04970703125Q8.71275,10.04970703125,9.86639,10.59733703125Z" fill-rule="evenodd" fill="#333333" fill-opacity="1"/></g><g transform="matrix(-1,0,0,1,33.75,0)"><path d="M18.98661,11.674419L18.98676,11.674264Q19.07116,11.589873,19.11683,11.47961Q19.1625,11.369347,19.1625,11.25Q19.1625,11.130653,19.11683,11.02039Q19.07116,10.910127,18.98676,10.825736Q18.90237,10.741345,18.79211,10.695672Q18.68185,10.65,18.5625,10.65Q18.44315,10.65,18.33289,10.695672Q18.22263,10.741345,18.13824,10.825736L18.13814,10.825832L16.450736,12.51324Q16.366345,12.59763,16.320672,12.707889999999999Q16.275,12.81815,16.275,12.9375Q16.275,13.05685,16.320672,13.167110000000001Q16.366345,13.27737,16.450736,13.36176Q16.535127,13.446159999999999,16.64539,13.49183Q16.755653,13.5375,16.875,13.5375L23.625,13.5375Q23.68409,13.5375,23.74205,13.525970000000001Q23.80001,13.51444,23.85461,13.49183Q23.90921,13.46921,23.95834,13.43638Q24.00748,13.40355,24.04926,13.36176Q24.09105,13.319980000000001,24.12388,13.27084Q24.15671,13.22171,24.17933,13.167110000000001Q24.20194,13.11251,24.21347,13.05455Q24.225,12.99659,24.225,12.9375Q24.225,12.87841,24.21347,12.82045Q24.20194,12.76249,24.17933,12.707889999999999Q24.15671,12.65329,24.12388,12.60416Q24.09105,12.55502,24.04926,12.51324Q24.00748,12.47145,23.95834,12.43862Q23.90921,12.40579,23.85461,12.38317Q23.80001,12.36056,23.74205,12.349029999999999Q23.68409,12.3375,23.625,12.3375L18.32353,12.3375L18.98661,11.674419Z" fill-rule="evenodd" fill="#333333" fill-opacity="1"/></g><g transform="matrix(1,0,0,-1,0,33.75)"><path d="M12.23661,17.299419L12.23676,17.299264Q12.321159999999999,17.214873,12.36683,17.10461Q12.4125,16.994347,12.4125,16.875Q12.4125,16.755653,12.36683,16.64539Q12.321159999999999,16.535127,12.23676,16.450736Q12.15237,16.366345,12.042110000000001,16.320672Q11.93185,16.275,11.8125,16.275Q11.69315,16.275,11.582889999999999,16.320672Q11.47263,16.366345,11.38824,16.450736L11.38814,16.450832L9.700736,18.13824Q9.616345,18.22263,9.570672,18.33289Q9.525,18.44315,9.525,18.5625Q9.525,18.68185,9.570672,18.79211Q9.616345,18.90237,9.700736,18.98676Q9.785127,19.07116,9.89539,19.11683Q10.005653,19.1625,10.125,19.1625L16.875,19.1625Q16.93409,19.1625,16.99205,19.15097Q17.05001,19.13944,17.10461,19.11683Q17.15921,19.09421,17.20834,19.06138Q17.25748,19.02855,17.29926,18.98676Q17.34105,18.94498,17.37388,18.89584Q17.40671,18.84671,17.42933,18.79211Q17.45194,18.73751,17.46347,18.67955Q17.475,18.62159,17.475,18.5625Q17.475,18.50341,17.46347,18.44545Q17.45194,18.38749,17.42933,18.33289Q17.40671,18.27829,17.37388,18.22916Q17.34105,18.18002,17.29926,18.13824Q17.25748,18.09645,17.20834,18.06362Q17.15921,18.03079,17.10461,18.00817Q17.05001,17.98556,16.99205,17.97403Q16.93409,17.9625,16.875,17.9625L11.57353,17.9625L12.23661,17.299419Z" fill-rule="evenodd" fill="#333333" fill-opacity="1"/></g></g></svg>