<svg xmlns="http://www.w3.org/2000/svg" xmlns:xlink="http://www.w3.org/1999/xlink" fill="none" version="1.1" width="32" height="32" viewBox="0 0 32 32"><defs><clipPath id="master_svg0_43_419"><rect x="0" y="0" width="32" height="32" rx="4"/></clipPath><clipPath id="master_svg1_43_435"><rect x="6" y="6" width="20" height="20" rx="0"/></clipPath></defs><g clip-path="url(#master_svg0_43_419)"><g clip-path="url(#master_svg1_43_435)"><g><path d="M9.31201171875,11.6291259765625L22.64531171875,11.6291259765625Q22.70931171875,11.6291259765625,22.77211171875,11.6166359765625Q22.83491171875,11.6041469765625,22.89411171875,11.5796479765625Q22.953211718749998,11.5551479765625,23.00641171875,11.5195809765625Q23.059711718750002,11.4840139765625,23.10491171875,11.4387449765625Q23.15021171875,11.3934769765625,23.18581171875,11.3402469765625Q23.221411718749998,11.2870159765625,23.245811718749998,11.2278699765625Q23.27031171875,11.1687239765625,23.28281171875,11.1059349765625Q23.29531171875,11.0431453765625,23.29531171875,10.9791259765625Q23.29531171875,10.9151065765625,23.28281171875,10.8523169765625Q23.27031171875,10.7895279765625,23.245811718749998,10.7303819765625Q23.221411718749998,10.6712359765625,23.18581171875,10.6180049765625Q23.15021171875,10.5647749765625,23.10491171875,10.5195069765625Q23.059711718750002,10.4742379765625,23.00641171875,10.4386709765625Q22.953211718749998,10.4031039765625,22.89411171875,10.3786039765625Q22.83491171875,10.3541049765625,22.77211171875,10.3416159765625Q22.70931171875,10.3291259765625,22.64531171875,10.3291259765625L9.31201171875,10.3291259765625Q9.24799231875,10.3291259765625,9.18520271875,10.3416159765625Q9.12241371875,10.3541049765625,9.06326771875,10.3786039765625Q9.00412171875,10.4031039765625,8.95089071875,10.4386709765625Q8.89766071875,10.4742379765625,8.85239271875,10.5195069765625Q8.80712371875,10.5647749765625,8.77155671875,10.6180049765625Q8.73598971875,10.6712359765625,8.71148971875,10.7303819765625Q8.68699071875,10.7895279765625,8.67450171875,10.8523169765625Q8.66201171875,10.9151065765625,8.66201171875,10.9791259765625Q8.66201171875,11.0431453765625,8.67450171875,11.1059349765625Q8.68699071875,11.1687239765625,8.71148971875,11.2278699765625Q8.73598971875,11.2870159765625,8.77155671875,11.3402469765625Q8.80712371875,11.3934769765625,8.85239271875,11.4387449765625Q8.89766071875,11.4840139765625,8.95089071875,11.5195809765625Q9.00412171875,11.5551479765625,9.06326771875,11.5796479765625Q9.12241371875,11.6041469765625,9.18520271875,11.6166359765625Q9.24799231875,11.6291259765625,9.31201171875,11.6291259765625Z" fill-rule="evenodd" fill="#FFFFFF" fill-opacity="1"/></g><g><path d="M9.31201171875,16.6291259765625L22.64531171875,16.6291259765625Q22.70931171875,16.6291259765625,22.77211171875,16.6166359765625Q22.83491171875,16.6041469765625,22.89411171875,16.5796479765625Q22.953211718749998,16.555147976562502,23.00641171875,16.5195809765625Q23.059711718750002,16.4840139765625,23.10491171875,16.4387449765625Q23.15021171875,16.3934769765625,23.18581171875,16.3402469765625Q23.221411718749998,16.2870159765625,23.245811718749998,16.2278699765625Q23.27031171875,16.1687239765625,23.28281171875,16.1059349765625Q23.29531171875,16.0431453765625,23.29531171875,15.9791259765625Q23.29531171875,15.9151065765625,23.28281171875,15.8523169765625Q23.27031171875,15.7895279765625,23.245811718749998,15.7303819765625Q23.221411718749998,15.6712359765625,23.18581171875,15.6180049765625Q23.15021171875,15.5647749765625,23.10491171875,15.5195069765625Q23.059711718750002,15.4742379765625,23.00641171875,15.4386709765625Q22.953211718749998,15.4031039765625,22.89411171875,15.3786039765625Q22.83491171875,15.3541049765625,22.77211171875,15.3416159765625Q22.70931171875,15.3291259765625,22.64531171875,15.3291259765625L9.31201171875,15.3291259765625Q9.24799231875,15.3291259765625,9.18520271875,15.3416159765625Q9.12241371875,15.3541049765625,9.06326771875,15.3786039765625Q9.00412171875,15.4031039765625,8.95089071875,15.4386709765625Q8.89766071875,15.4742379765625,8.85239271875,15.5195069765625Q8.80712371875,15.5647749765625,8.77155671875,15.6180049765625Q8.73598971875,15.6712359765625,8.71148971875,15.7303819765625Q8.68699071875,15.7895279765625,8.67450171875,15.8523169765625Q8.66201171875,15.9151065765625,8.66201171875,15.9791259765625Q8.66201171875,16.0431453765625,8.67450171875,16.1059349765625Q8.68699071875,16.1687239765625,8.71148971875,16.2278699765625Q8.73598971875,16.2870159765625,8.77155671875,16.3402469765625Q8.80712371875,16.3934769765625,8.85239271875,16.4387449765625Q8.89766071875,16.4840139765625,8.95089071875,16.5195809765625Q9.00412171875,16.555147976562502,9.06326771875,16.5796479765625Q9.12241371875,16.6041469765625,9.18520271875,16.6166359765625Q9.24799231875,16.6291259765625,9.31201171875,16.6291259765625Z" fill-rule="evenodd" fill="#FFFFFF" fill-opacity="1"/></g><g><path d="M9.31201171875,21.6291259765625L22.64531171875,21.6291259765625Q22.70931171875,21.6291259765625,22.77211171875,21.6166359765625Q22.83491171875,21.6041469765625,22.89411171875,21.5796479765625Q22.953211718749998,21.555147976562502,23.00641171875,21.5195809765625Q23.059711718750002,21.4840139765625,23.10491171875,21.4387449765625Q23.15021171875,21.3934769765625,23.18581171875,21.3402469765625Q23.221411718749998,21.2870159765625,23.245811718749998,21.2278699765625Q23.27031171875,21.1687239765625,23.28281171875,21.1059349765625Q23.29531171875,21.0431453765625,23.29531171875,20.9791259765625Q23.29531171875,20.9151065765625,23.28281171875,20.8523169765625Q23.27031171875,20.7895279765625,23.245811718749998,20.7303819765625Q23.221411718749998,20.6712359765625,23.18581171875,20.6180049765625Q23.15021171875,20.5647749765625,23.10491171875,20.5195069765625Q23.059711718750002,20.4742379765625,23.00641171875,20.4386709765625Q22.953211718749998,20.403103976562498,22.89411171875,20.3786039765625Q22.83491171875,20.3541049765625,22.77211171875,20.3416159765625Q22.70931171875,20.3291259765625,22.64531171875,20.3291259765625L9.31201171875,20.3291259765625Q9.24799231875,20.3291259765625,9.18520271875,20.3416159765625Q9.12241371875,20.3541049765625,9.06326771875,20.3786039765625Q9.00412171875,20.403103976562498,8.95089071875,20.4386709765625Q8.89766071875,20.4742379765625,8.85239271875,20.5195069765625Q8.80712371875,20.5647749765625,8.77155671875,20.6180049765625Q8.73598971875,20.6712359765625,8.71148971875,20.7303819765625Q8.68699071875,20.7895279765625,8.67450171875,20.8523169765625Q8.66201171875,20.9151065765625,8.66201171875,20.9791259765625Q8.66201171875,21.0431453765625,8.67450171875,21.1059349765625Q8.68699071875,21.1687239765625,8.71148971875,21.2278699765625Q8.73598971875,21.2870159765625,8.77155671875,21.3402469765625Q8.80712371875,21.3934769765625,8.85239271875,21.4387449765625Q8.89766071875,21.4840139765625,8.95089071875,21.5195809765625Q9.00412171875,21.555147976562502,9.06326771875,21.5796479765625Q9.12241371875,21.6041469765625,9.18520271875,21.6166359765625Q9.24799231875,21.6291259765625,9.31201171875,21.6291259765625Z" fill-rule="evenodd" fill="#FFFFFF" fill-opacity="1"/></g></g></g></svg>