<svg xmlns="http://www.w3.org/2000/svg" xmlns:xlink="http://www.w3.org/1999/xlink" fill="none" version="1.1" width="20" height="20" viewBox="0 0 20 20"><defs><clipPath id="master_svg0_43_435"><rect x="0" y="0" width="20" height="20" rx="0"/></clipPath></defs><g clip-path="url(#master_svg0_43_435)"><g><path d="M3.31201171875,5.6291259765625L16.64531171875,5.6291259765625Q16.70931171875,5.6291259765625,16.77211171875,5.6166359765625Q16.83491171875,5.6041469765625,16.89411171875,5.5796479765625Q16.953211718749998,5.5551479765625,17.00641171875,5.5195809765625Q17.059711718750002,5.4840139765625,17.10491171875,5.4387449765625Q17.15021171875,5.3934769765625,17.18581171875,5.3402469765625Q17.221411718749998,5.2870159765625,17.245811718749998,5.2278699765625Q17.27031171875,5.1687239765625,17.28281171875,5.1059349765625Q17.29531171875,5.0431453765625,17.29531171875,4.9791259765625Q17.29531171875,4.9151065765625,17.28281171875,4.8523169765625Q17.27031171875,4.7895279765625,17.245811718749998,4.7303819765625Q17.221411718749998,4.6712359765625,17.18581171875,4.6180049765625Q17.15021171875,4.5647749765625,17.10491171875,4.5195069765625Q17.059711718750002,4.4742379765625,17.00641171875,4.4386709765625Q16.953211718749998,4.4031039765625,16.89411171875,4.3786039765625Q16.83491171875,4.3541049765625,16.77211171875,4.3416159765625Q16.70931171875,4.3291259765625,16.64531171875,4.3291259765625L3.31201171875,4.3291259765625Q3.24799231875,4.3291259765625,3.18520271875,4.3416159765625Q3.12241371875,4.3541049765625,3.06326771875,4.3786039765625Q3.00412171875,4.4031039765625,2.95089071875,4.4386709765625Q2.89766071875,4.4742379765625,2.85239271875,4.5195069765625Q2.8071237187499998,4.5647749765625,2.77155671875,4.6180049765625Q2.73598971875,4.6712359765625,2.71148971875,4.7303819765625Q2.6869907187499997,4.7895279765625,2.67450171875,4.8523169765625Q2.66201171875,4.9151065765625,2.66201171875,4.9791259765625Q2.66201171875,5.0431453765625,2.67450171875,5.1059349765625Q2.6869907187499997,5.1687239765625,2.71148971875,5.2278699765625Q2.73598971875,5.2870159765625,2.77155671875,5.3402469765625Q2.8071237187499998,5.3934769765625,2.85239271875,5.4387449765625Q2.89766071875,5.4840139765625,2.95089071875,5.5195809765625Q3.00412171875,5.5551479765625,3.06326771875,5.5796479765625Q3.12241371875,5.6041469765625,3.18520271875,5.6166359765625Q3.24799231875,5.6291259765625,3.31201171875,5.6291259765625Z" fill-rule="evenodd" fill="#000000" fill-opacity="1"/></g><g><path d="M3.31201171875,10.6291259765625L16.64531171875,10.6291259765625Q16.70931171875,10.6291259765625,16.77211171875,10.6166359765625Q16.83491171875,10.6041469765625,16.89411171875,10.5796479765625Q16.953211718749998,10.5551479765625,17.00641171875,10.5195809765625Q17.059711718750002,10.4840139765625,17.10491171875,10.4387449765625Q17.15021171875,10.3934769765625,17.18581171875,10.3402469765625Q17.221411718749998,10.2870159765625,17.245811718749998,10.2278699765625Q17.27031171875,10.1687239765625,17.28281171875,10.1059349765625Q17.29531171875,10.0431453765625,17.29531171875,9.9791259765625Q17.29531171875,9.9151065765625,17.28281171875,9.8523169765625Q17.27031171875,9.7895279765625,17.245811718749998,9.7303819765625Q17.221411718749998,9.6712359765625,17.18581171875,9.6180049765625Q17.15021171875,9.5647749765625,17.10491171875,9.5195069765625Q17.059711718750002,9.4742379765625,17.00641171875,9.4386709765625Q16.953211718749998,9.4031039765625,16.89411171875,9.3786039765625Q16.83491171875,9.3541049765625,16.77211171875,9.3416159765625Q16.70931171875,9.3291259765625,16.64531171875,9.3291259765625L3.31201171875,9.3291259765625Q3.24799231875,9.3291259765625,3.18520271875,9.3416159765625Q3.12241371875,9.3541049765625,3.06326771875,9.3786039765625Q3.00412171875,9.4031039765625,2.95089071875,9.4386709765625Q2.89766071875,9.4742379765625,2.85239271875,9.5195069765625Q2.8071237187499998,9.5647749765625,2.77155671875,9.6180049765625Q2.73598971875,9.6712359765625,2.71148971875,9.7303819765625Q2.6869907187499997,9.7895279765625,2.67450171875,9.8523169765625Q2.66201171875,9.9151065765625,2.66201171875,9.9791259765625Q2.66201171875,10.0431453765625,2.67450171875,10.1059349765625Q2.6869907187499997,10.1687239765625,2.71148971875,10.2278699765625Q2.73598971875,10.2870159765625,2.77155671875,10.3402469765625Q2.8071237187499998,10.3934769765625,2.85239271875,10.4387449765625Q2.89766071875,10.4840139765625,2.95089071875,10.5195809765625Q3.00412171875,10.5551479765625,3.06326771875,10.5796479765625Q3.12241371875,10.6041469765625,3.18520271875,10.6166359765625Q3.24799231875,10.6291259765625,3.31201171875,10.6291259765625Z" fill-rule="evenodd" fill="#000000" fill-opacity="1"/></g><g><path d="M3.31201171875,15.6291259765625L16.64531171875,15.6291259765625Q16.70931171875,15.6291259765625,16.77211171875,15.6166359765625Q16.83491171875,15.6041469765625,16.89411171875,15.5796479765625Q16.953211718749998,15.5551479765625,17.00641171875,15.5195809765625Q17.059711718750002,15.4840139765625,17.10491171875,15.4387449765625Q17.15021171875,15.3934769765625,17.18581171875,15.3402469765625Q17.221411718749998,15.2870159765625,17.245811718749998,15.2278699765625Q17.27031171875,15.1687239765625,17.28281171875,15.1059349765625Q17.29531171875,15.0431453765625,17.29531171875,14.9791259765625Q17.29531171875,14.9151065765625,17.28281171875,14.8523169765625Q17.27031171875,14.7895279765625,17.245811718749998,14.7303819765625Q17.221411718749998,14.6712359765625,17.18581171875,14.6180049765625Q17.15021171875,14.5647749765625,17.10491171875,14.5195069765625Q17.059711718750002,14.4742379765625,17.00641171875,14.4386709765625Q16.953211718749998,14.4031039765625,16.89411171875,14.3786039765625Q16.83491171875,14.3541049765625,16.77211171875,14.3416159765625Q16.70931171875,14.3291259765625,16.64531171875,14.3291259765625L3.31201171875,14.3291259765625Q3.24799231875,14.3291259765625,3.18520271875,14.3416159765625Q3.12241371875,14.3541049765625,3.06326771875,14.3786039765625Q3.00412171875,14.4031039765625,2.95089071875,14.4386709765625Q2.89766071875,14.4742379765625,2.85239271875,14.5195069765625Q2.8071237187499998,14.5647749765625,2.77155671875,14.6180049765625Q2.73598971875,14.6712359765625,2.71148971875,14.7303819765625Q2.6869907187499997,14.7895279765625,2.67450171875,14.8523169765625Q2.66201171875,14.9151065765625,2.66201171875,14.9791259765625Q2.66201171875,15.0431453765625,2.67450171875,15.1059349765625Q2.6869907187499997,15.1687239765625,2.71148971875,15.2278699765625Q2.73598971875,15.2870159765625,2.77155671875,15.3402469765625Q2.8071237187499998,15.3934769765625,2.85239271875,15.4387449765625Q2.89766071875,15.4840139765625,2.95089071875,15.5195809765625Q3.00412171875,15.5551479765625,3.06326771875,15.5796479765625Q3.12241371875,15.6041469765625,3.18520271875,15.6166359765625Q3.24799231875,15.6291259765625,3.31201171875,15.6291259765625Z" fill-rule="evenodd" fill="#000000" fill-opacity="1"/></g></g></svg>