<svg xmlns="http://www.w3.org/2000/svg" xmlns:xlink="http://www.w3.org/1999/xlink" fill="none" version="1.1" width="24" height="24" viewBox="0 0 24 24"><defs><clipPath id="master_svg0_1_499"><rect x="0" y="0" width="24" height="24" rx="0"/></clipPath></defs><g clip-path="url(#master_svg0_1_499)"><g><g><path d="M8.586669921875,12.160107421875L15.413339921875,12.160107421875Q15.492129921875,12.160107421875,15.569409921875,12.144735421875Q15.646689921875,12.129363421875,15.719479921875,12.099211421875Q15.792279921875,12.069058421875,15.857789921875,12.025283421875Q15.923309921875,11.981508421875,15.979019921875,11.925792421875Q16.034739921875,11.870077421875,16.078509921875,11.804563421875Q16.122289921875,11.739049421875,16.152439921875,11.666254421875Q16.182589921875,11.593458421875,16.197969921875,11.516179421875Q16.213339921875,11.438900521875,16.213339921875,11.360107421875Q16.213339921875,11.281314321875,16.197969921875,11.204035421875Q16.182589921875,11.126756421875,16.152439921875,11.053960421875Q16.122289921875,10.981165421875,16.078509921875,10.915651421875Q16.034739921875,10.850137421875,15.979019921875,10.794422421875Q15.923309921875,10.738706421875,15.857789921875,10.694931421875Q15.792279921875,10.651156421875,15.719479921875,10.621003421875Q15.646689921875,10.590851421875,15.569409921875,10.575479421875Q15.492129921875,10.560107421875,15.413339921875,10.560107421875L8.586669921875,10.560107421875Q8.507876821875,10.560107421875,8.430597921875,10.575479421875Q8.353318921875,10.590851421875,8.280522921875,10.621003421875Q8.207727921875,10.651156421875,8.142213921875,10.694931421875Q8.076699921875,10.738706421875,8.020984921875,10.794422421875Q7.965268921875,10.850137421875,7.921493921875,10.915651421875Q7.877718921875,10.981165421875,7.847565921875,11.053960421875Q7.817413921875,11.126756421875,7.802041921875,11.204035421875Q7.786669921875,11.281314321875,7.786669921875,11.360107421875Q7.786669921875,11.438900521875,7.802041921875,11.516179421875Q7.817413921875,11.593458421875,7.847565921875,11.666254421875Q7.877718921875,11.739049421875,7.921493921875,11.804563421875Q7.965268921875,11.870077421875,8.020984921875,11.925792421875Q8.076699921875,11.981508421875,8.142213921875,12.025283421875Q8.207727921875,12.069058421875,8.280522921875,12.099211421875Q8.353318921875,12.129363421875,8.430597921875,12.144735421875Q8.507876821875,12.160107421875,8.586669921875,12.160107421875Z" fill-rule="evenodd" fill="#1878F5" fill-opacity="1"/></g><g><path d="M8.586669921875,15.5734375L11.999999921875,15.5734375Q12.078799921875,15.5734375,12.156079921875,15.5580655Q12.233349921875,15.5426935,12.306149921875,15.5125415Q12.378939921875,15.4823885,12.444459921875,15.4386135Q12.509969921875,15.3948385,12.565689921875,15.3391225Q12.621399921875,15.2834075,12.665179921875,15.2178935Q12.708949921875,15.1523795,12.739109921875,15.0795845Q12.769259921875001,15.0067885,12.784629921875,14.9295095Q12.799999921875,14.8522306,12.799999921875,14.7734375Q12.799999921875,14.6946444,12.784629921875,14.6173655Q12.769259921875001,14.5400865,12.739109921875,14.4672905Q12.708949921875,14.3944955,12.665179921875,14.3289815Q12.621399921875,14.2634675,12.565689921875,14.2077525Q12.509969921875,14.1520365,12.444459921875,14.1082615Q12.378939921875,14.0644865,12.306149921875,14.0343335Q12.233349921875,14.0041815,12.156079921875,13.9888095Q12.078799921875,13.9734375,11.999999921875,13.9734375L8.586669921875,13.9734375Q8.507876821875,13.9734375,8.430597921875,13.9888095Q8.353318921875,14.0041815,8.280522921875,14.0343335Q8.207727921875,14.0644865,8.142213921875,14.1082615Q8.076699921875,14.1520365,8.020984921875,14.2077525Q7.965268921875,14.2634675,7.921493921875,14.3289815Q7.877718921875,14.3944955,7.847565921875,14.4672905Q7.817413921875,14.5400865,7.802041921875,14.6173655Q7.786669921875,14.6946444,7.786669921875,14.7734375Q7.786669921875,14.8522306,7.802041921875,14.9295095Q7.817413921875,15.0067885,7.847565921875,15.0795845Q7.877718921875,15.1523795,7.921493921875,15.2178935Q7.965268921875,15.2834075,8.020984921875,15.3391225Q8.076699921875,15.3948385,8.142213921875,15.4386135Q8.207727921875,15.4823885,8.280522921875,15.5125415Q8.353318921875,15.5426935,8.430597921875,15.5580655Q8.507876821875,15.5734375,8.586669921875,15.5734375Z" fill-rule="evenodd" fill="#1878F5" fill-opacity="1"/></g><g><path d="M19.40403984375,7.22636L15.77713984375,3.446148Q15.66403984375,3.328211,15.51363984375,3.264105Q15.36333984375,3.2,15.19993984375,3.2L6.77333984375,3.2Q5.77922784375,3.2,5.07628364375,3.9029439Q4.37333984375,4.605887,4.37333984375,5.6L4.37333984375,18.4Q4.37333984375,19.3941,5.07628354375,20.0971Q5.77922784375,20.8,6.77333984375,20.8L17.22663984375,20.8Q18.22083984375,20.8,18.92373984375,20.0971Q19.62663984375,19.3941,19.62663984375,18.4L19.626739843750002,7.78021Q19.626739843750002,7.62538,19.56893984375,7.481730000000001Q19.511239843749998,7.33808,19.40403984375,7.22636ZM14.85878984375,4.8L6.77333984375,4.8Q6.44196984375,4.8,6.20764984375,5.03431Q5.97333984375,5.26863,5.97333984375,5.6L5.97333984375,18.4Q5.97333984375,18.7314,6.20764984375,18.9657Q6.44196984375,19.2,6.77333984375,19.2L17.22663984375,19.2Q17.558039843750002,19.2,17.79233984375,18.9657Q18.02663984375,18.7314,18.02663984375,18.4L18.02673984375,8.10192L14.85878984375,4.8Z" fill-rule="evenodd" fill="#262626" fill-opacity="1"/></g></g></g></svg>