<svg xmlns="http://www.w3.org/2000/svg" xmlns:xlink="http://www.w3.org/1999/xlink" fill="none" version="1.1" width="24" height="24" viewBox="0 0 24 24"><defs><clipPath id="master_svg0_1_0117"><rect x="0" y="0" width="24" height="24" rx="0"/></clipPath><clipPath id="master_svg1_1_0277"><rect x="1" y="1" width="22" height="22" rx="0"/></clipPath></defs><g clip-path="url(#master_svg0_1_0117)"><g clip-path="url(#master_svg1_1_0277)"><g><path d="M13.0388623828125,17.4675016796875L13.0388623828125,14.7175016796875Q13.0388623828125,14.2871516796875,12.7345823828125,13.9828816796875Q12.4303123828125,13.6786116796875,11.9999723828125,13.6786116796875Q11.5696223828125,13.6786116796875,11.2653523828125,13.9828816796875Q10.9610823828125,14.2871516796875,10.9610823828125,14.7175016796875L10.9610823828125,17.4675016796875C10.9610823828125,17.9062616796875,10.6053923828125,18.2619416796875,10.1666373828125,18.2619416796875C9.7278773828125,18.2619416796875,9.3721925285125,17.9062616796875,9.3721925285125,17.4675016796875L9.3721923828125,14.7175016796875Q9.3721924556626,13.6290216796875,10.1418403828125,12.859368679687499Q10.9114923828125,12.0897215339875,11.9999723828125,12.0897216796875Q13.0884523828125,12.0897216796875,13.8581023828125,12.8593696796875Q14.6277523828125,13.6290216796875,14.6277523828125,14.7175016796875L14.6277523828125,17.4675016796875C14.6277523828125,17.9062616796875,14.2720623828125,18.2619416796875,13.8333023828125,18.2619416796875C13.3945423828125,18.2619416796875,13.0388623828125,17.9062616796875,13.0388623828125,17.4675016796875Z" fill-rule="evenodd" fill="#1878F5" fill-opacity="1"/></g><g><path d="M20.811318359375,9.0114342578125L11.999928359375,4.6057442578125L3.1887983593750002,9.011304257812501C3.083328359375,9.0640342578125,2.967739359375,9.0926242578125,2.850127359375,9.0951242578125C2.850127359375,9.0951242578125,2.833262359375,9.0953042578125,2.833262359375,9.0953042578125C2.747874359375,9.0953042578125,2.663043359375,9.0815342578125,2.582036359375,9.054534257812499C2.382149359375,8.987904257812499,2.216917359375,8.8445942578125,2.122689859375,8.6561442578125C2.070080359375,8.5509242578125,2.041494649375,8.4353342578125,2.038997425375,8.3177242578125C2.038997425375,8.3177242578125,2.038818359375,8.3008542578125,2.038818359375,8.3008542578125C2.038818359375,8.2154642578125,2.052584459375,8.130634257812499,2.079586959375,8.0496342578125C2.146216359375,7.8497442578125,2.289521359375,7.6845142578125,2.477977359375,7.5902842578125L11.398698359375,3.1299312578125Q11.999968359375,2.8292972578125,12.601118359375,3.1299302578125L21.521918359375,7.5902842578125C21.710318359375,7.6845142578125,21.853618359375,7.8497442578125,21.920318359375,8.0496342578125C21.947018359375,8.1297242578125,21.960718359375,8.2135642578125,21.961018359375,8.2979842578125L21.961018359375,8.3008642578125C21.961018359375,8.4241942578125,21.932318359375,8.545834257812501,21.877218359375,8.6561442578125C21.744318359375,8.9218242578125,21.474418359375,9.0912042578125,21.177318359375,9.0952242578125L21.166618359375,9.0953042578125C21.043218359375,9.0953042578125,20.921618359375,9.0665842578125,20.811318359375,9.0114342578125Z" fill-rule="evenodd" fill="#262626" fill-opacity="1"/></g><g><path d="M5.4610823828125,11.0509137265625L5.4610823828125,18.3842497265625Q5.4610823828125,18.8145797265625,5.7653623828125,19.118859726562498Q6.0696423828125,19.4231397265625,6.4999723828125,19.4231397265625L17.4999923828125,19.4231397265625Q17.9302923828125,19.4231397265625,18.2345923828125,19.118859726562498Q18.5388923828125,18.814589726562502,18.5388923828125,18.3842497265625L18.5388923828125,11.0509137265625C18.5388923828125,10.6121547265625,18.894592382812498,10.2564697265625,19.333292382812502,10.2564697265625C19.772092382812502,10.2564697265625,20.1277923828125,10.6121547265625,20.1277923828125,11.0509137265625L20.1277923828125,18.3842497265625Q20.1277923828125,19.4727297265625,19.3580923828125,20.2423797265625Q18.5884923828125,21.0120697265625,17.4999923828125,21.0120697265625L6.4999723828125,21.0120697265625Q5.4115023828125,21.0120697265625,4.6418533828125,20.2423797265625Q3.8721923828125,19.4727297265625,3.8721923828125,18.3842497265625L3.8721923828125,11.0509137265625C3.8721923828125,10.6121547265625,4.2278773828125,10.2564697265625,4.6666363828125,10.2564697265625C5.1053923828125,10.2564697265625,5.4610823828125,10.6121547265625,5.4610823828125,11.0509137265625Z" fill-rule="evenodd" fill="#262626" fill-opacity="1"/></g></g></g></svg>