<svg xmlns="http://www.w3.org/2000/svg" xmlns:xlink="http://www.w3.org/1999/xlink" fill="none" version="1.1" width="16" height="16" viewBox="0 0 16 16"><defs><clipPath id="master_svg0_737_8675"><rect x="0" y="0" width="16" height="16" rx="0"/></clipPath></defs><g clip-path="url(#master_svg0_737_8675)"><g><path d="M6.3651014868927005,7.564755986968994L6.3655614868927,7.564607986968994Q6.4602514868927,7.5341609869689945,6.5360714868927,7.469797986968994Q6.6118914868927,7.405435986968994,6.6573114868927,7.316956986968994Q6.7125014868927,7.209454986968995,6.7125014868927,7.0886155475889945L6.7124214868927,7.079710956968994Q6.711101486892701,7.005861186968994,6.6884914868927,6.935545986968994Q6.6641914868927,6.859970986968994,6.6176714868927,6.795640986968994Q6.5711614868927,6.731309986968994,6.5070014868927,6.684550986968994Q6.4428514868927005,6.6377919869689945,6.3673714868927,6.613202986968994Q6.2918814868927,6.588613986968994,6.2125014868927,6.588613986968994L6.2084814868927,6.588629986968995Q6.1321214868927,6.589243986968994,6.0594314868927,6.612619986968994L6.0593214868927,6.612652986968994Q4.181091486892701,7.216681986968994,2.9390474868927003,8.801053986968995Q1.6826204868927002,10.403783986968994,1.5214214868927,12.453163986968995Q1.5198814868927002,12.472733986968993,1.5198814868927002,12.492363986968993Q1.5198814868927002,12.518513986968994,1.5226084868927001,12.544513986968994Q1.5271434868927,12.587753986968995,1.5390734868927,12.629563986968993Q1.5510034868927,12.671373986968995,1.5699714868927002,12.710493986968995Q1.5889394868927003,12.749623986968995,1.6143754868927003,12.784883986968994Q1.6398114868927003,12.820143986968993,1.6709524868927002,12.850483986968994Q1.7020934868927002,12.880823986968995,1.7380034868927001,12.905333986968994Q1.7739144868927001,12.929853986968993,1.8135164868927003,12.947793986968994Q1.8531184868927002,12.965733986968994,1.8952244868927002,12.976573986968994Q1.9373293868927002,12.987413986968994,1.9806737868927002,12.990823986968994Q2.0002473868927,12.992363986968993,2.0198814868927,12.992363986968993L2.0288904068927,12.992283986968994Q2.2082324868927,12.989053986968994,2.3446214868927,12.872553986968995Q2.4202464868927,12.807963986968995,2.4653944868927002,12.719343986968994Q2.5105424868927004,12.630723986968995,2.5183414868927003,12.531573986968993Q2.6558684868927003,10.783153986968994,3.7260514868927004,9.418003986968994Q4.7788814868927005,8.074992986968994,6.3651014868927005,7.564755986968994ZM9.940991486892699,6.6127559869689945Q9.939061486892701,6.612134986968994,9.9371314868927,6.6115299869689945Q9.8642514868927,6.588738986968994,9.7878914868927,6.588738986968994Q9.6670714868927,6.588738986968994,9.5595814868927,6.643907986968994L9.558241486892701,6.6445969869689945Q9.4702514868927,6.690096986968994,9.4062414868927,6.765712986968994Q9.3422414868927,6.841328986968994,9.3119114868927,6.935635986968994Q9.3112914868927,6.937566986968994,9.310681486892701,6.939502986968995Q9.2878914868927,7.0123808869689945,9.2878914868927,7.088739320968994Q9.2878914868927,7.168120986968994,9.3124814868927,7.243598986968994Q9.3370614868927,7.319077986968994,9.3838214868927,7.383229986968994Q9.430571486892699,7.447381986968994,9.4949014868927,7.493898986968994Q9.5592214868927,7.540414986968994,9.6347914868927,7.564721986968994Q11.2217614868927,8.075176986968994,12.2747814868927,9.419033986968994Q13.344981486892701,10.784883986968994,13.4818814868927,12.533973986968995Q13.4854814868927,12.580613986968995,13.4977814868927,12.625773986968994Q13.5099814868927,12.670923986968994,13.5303814868927,12.713023986968995Q13.550781486892701,12.755123986968993,13.5786814868927,12.792703986968995Q13.6064814868927,12.830293986968993,13.6408814868927,12.862053986968995Q13.6751814868927,12.893813986968993,13.7147814868927,12.918663986968994Q13.7544814868927,12.943503986968995,13.7980814868927,12.960553986968995Q13.8415814868927,12.977613986968993,13.8875814868927,12.986293986968995Q13.9335814868927,12.994973986968994,13.9802814868927,12.994973986968994L13.982981486892701,12.994963986968994Q14.0011814868927,12.994863986968994,14.0192814868927,12.993443986968995Q14.1184814868927,12.985683986968994,14.207081486892701,12.940573986968994Q14.2957814868927,12.895463986968995,14.3603814868927,12.819863986968993Q14.4184814868927,12.751953986968994,14.449381486892701,12.668133986968993Q14.4802814868927,12.584313986968994,14.4802814868927,12.494973986968994L14.4802814868927,12.492043986968994Q14.4801814868927,12.473973986968995,14.4787814868927,12.455963986968994L14.4787814868927,12.455423986968995Q14.3181814868927,10.405593986968995,13.0618814868927,8.802263986968994Q11.8198114868927,7.2170859869689945,9.940991486892699,6.6127559869689945Z" fill-rule="evenodd" fill="#BFBFBF" fill-opacity="1"/></g><g><ellipse cx="8" cy="6" rx="2" ry="2" fill-opacity="0" stroke-opacity="1" stroke="#141414" fill="none" stroke-width="1" stroke-linecap="ROUND" stroke-linejoin="round"/></g><g><path d="M6.0003681640625,5.484375L1.7086181640625,5.484375Q1.6593724640625,5.484375,1.6110730640625,5.493982Q1.5627731640625,5.50359,1.5172761640624999,5.522435Q1.4717791640625,5.541281,1.4308331640625,5.56864Q1.3898871640625,5.596,1.3550651640625,5.630822Q1.3202431640625,5.665644,1.2928831640625,5.70659Q1.2655241640625001,5.747536,1.2466781640625,5.793033Q1.2278331640625,5.83853,1.2182251640625,5.8868299Q1.2086181640625,5.9351293,1.2086181640625,5.984375Q1.2086181640625,6.0336207,1.2182251640625,6.0819201Q1.2278331640625,6.13022,1.2466781640625,6.175717Q1.2655241640625001,6.221214,1.2928831640625,6.26216Q1.3202431640625,6.303106,1.3550651640625,6.337928Q1.3898871640625,6.37275,1.4308331640625,6.40011Q1.4717791640625,6.427469,1.5172761640624999,6.446315Q1.5627731640625,6.46516,1.6110730640625,6.474768Q1.6593724640625,6.484375,1.7086181640625,6.484375L6.0003681640625,6.484375Q6.0496081640625,6.484375,6.0979081640625,6.474768Q6.1462081640625,6.46516,6.1917081640625,6.446315Q6.2372081640625,6.427469,6.2781481640625,6.40011Q6.3190981640625,6.37275,6.3539181640625,6.337928Q6.3887381640625,6.303106,6.4160981640625,6.26216Q6.4434581640625,6.221214,6.4623081640625,6.175717Q6.4811481640625,6.13022,6.4907581640625,6.0819201Q6.5003681640625,6.0336207,6.5003681640625,5.984375Q6.5003681640625,5.9351293,6.4907581640625,5.8868299Q6.4811481640625,5.83853,6.4623081640625,5.793033Q6.4434581640625,5.747536,6.4160981640625,5.70659Q6.3887381640625,5.665644,6.3539181640625,5.630822Q6.3190981640625,5.596,6.2781481640625,5.56864Q6.2372081640625,5.541281,6.1917081640625,5.522435Q6.1462081640625,5.50359,6.0979081640625,5.493982Q6.0496081640625,5.484375,6.0003681640625,5.484375Z" fill-rule="evenodd" fill="#141414" fill-opacity="1"/></g><g transform="matrix(-1,0,0,1,28.583740234375,0)"><path d="M18.5836201171875,5.484375L14.2918701171875,5.484375Q14.2426244171875,5.484375,14.1943250171875,5.493982Q14.1460251171875,5.50359,14.1005281171875,5.522435Q14.0550311171875,5.541281,14.0140851171875,5.56864Q13.9731391171875,5.596,13.9383171171875,5.630822Q13.9034951171875,5.665644,13.8761351171875,5.70659Q13.8487761171875,5.747536,13.8299301171875,5.793033Q13.811085117187499,5.83853,13.8014771171875,5.8868299Q13.7918701171875,5.9351293,13.7918701171875,5.984375Q13.7918701171875,6.0336207,13.8014771171875,6.0819201Q13.811085117187499,6.13022,13.8299301171875,6.175717Q13.8487761171875,6.221214,13.8761351171875,6.26216Q13.9034951171875,6.303106,13.9383171171875,6.337928Q13.9731391171875,6.37275,14.0140851171875,6.40011Q14.0550311171875,6.427469,14.1005281171875,6.446315Q14.1460251171875,6.46516,14.1943250171875,6.474768Q14.2426244171875,6.484375,14.2918701171875,6.484375L18.5836201171875,6.484375Q18.632860117187498,6.484375,18.6811601171875,6.474768Q18.7294601171875,6.46516,18.7749601171875,6.446315Q18.8204601171875,6.427469,18.8614001171875,6.40011Q18.9023501171875,6.37275,18.9371701171875,6.337928Q18.9719901171875,6.303106,18.9993501171875,6.26216Q19.0267101171875,6.221214,19.0455601171875,6.175717Q19.0644001171875,6.13022,19.0740101171875,6.0819201Q19.0836201171875,6.0336207,19.0836201171875,5.984375Q19.0836201171875,5.9351293,19.0740101171875,5.8868299Q19.0644001171875,5.83853,19.0455601171875,5.793033Q19.0267101171875,5.747536,18.9993501171875,5.70659Q18.9719901171875,5.665644,18.9371701171875,5.630822Q18.9023501171875,5.596,18.8614001171875,5.56864Q18.8204601171875,5.541281,18.7749601171875,5.522435Q18.7294601171875,5.50359,18.6811601171875,5.493982Q18.632860117187498,5.484375,18.5836201171875,5.484375Z" fill-rule="evenodd" fill="#141414" fill-opacity="1"/></g><g><rect x="1" y="5" width="2" height="2" rx="0.5" fill="#141414" fill-opacity="1"/></g><g transform="matrix(-1,0,0,1,30.0009765625,0)"><rect x="15.00048828125" y="5" width="2" height="2" rx="0.5" fill="#141414" fill-opacity="1"/></g></g></svg>