<svg xmlns="http://www.w3.org/2000/svg" xmlns:xlink="http://www.w3.org/1999/xlink" fill="none" version="1.1" width="26" height="26" viewBox="0 0 26 26"><g style="mix-blend-mode:passthrough"><g style="mix-blend-mode:passthrough"><path d="" fill="#D8D8D8" fill-opacity="1"/><path d="M7.19355,2Q5.04231,2,3.52116,3.52116Q2,5.04231,2,7.19355L2,7.50847L0,7.50847L0,7.19355Q0,4.21388,2.10694,2.10694Q4.21388,0,7.19355,0L7.19355,2Z" fill="#000000" fill-opacity="1"/></g><g style="mix-blend-mode:passthrough" transform="matrix(-1,0,0,1,50,0)"><path d="" fill="#D8D8D8" fill-opacity="1"/><path d="M31.193550000000002,2Q29.04231,2,27.521160000000002,3.52116Q26,5.04231,26,7.19355L26,7.50847L24,7.50847L24,7.19355Q24,4.21388,26.10694,2.10694Q28.21388,0,31.193550000000002,0L31.193550000000002,2Z" fill="#000000" fill-opacity="1"/></g><g style="mix-blend-mode:passthrough" transform="matrix(1,0,0,-1,0,50)"><path d="" fill="#D8D8D8" fill-opacity="1"/><path d="M7.19355,26Q5.04231,26,3.52116,27.521160000000002Q2,29.04231,2,31.193550000000002L2,31.50847L0,31.50847L0,31.193550000000002Q0,28.21388,2.10694,26.10694Q4.21388,24,7.19355,24L7.19355,26Z" fill="#000000" fill-opacity="1"/></g><g style="mix-blend-mode:passthrough" transform="matrix(-1,0,0,-1,50,49.186439514160156)"><path d="" fill="#D8D8D8" fill-opacity="1"/><path d="M31.193550000000002,25.593219757080078Q29.04231,25.593219757080078,27.521160000000002,27.11437975708008Q26,28.63552975708008,26,30.78676975708008L26,31.101689757080077L24,31.101689757080077L24,30.78676975708008Q24,27.807099757080078,26.10694,25.70015975708008Q28.21388,23.593219757080078,31.193550000000002,23.593219757080078L31.193550000000002,25.593219757080078Z" fill="#000000" fill-opacity="1"/></g></g></svg>