<svg xmlns="http://www.w3.org/2000/svg" xmlns:xlink="http://www.w3.org/1999/xlink" fill="none" version="1.1" width="20" height="20" viewBox="0 0 20 20"><defs><clipPath id="master_svg0_186_921"><rect x="0" y="0" width="20" height="20" rx="0"/></clipPath></defs><g clip-path="url(#master_svg0_186_921)"><g><path d="M17.432743505859374,7.4327440234375L9.099373505859376,15.7660740234375C8.676303505859375,16.189174023437502,7.990383505859375,16.189174023437502,7.567313505859375,15.7660740234375L3.401158505859375,11.599924023437499L3.401158505859375,11.599924023437499C3.197480505859375,11.3962440234375,3.083343605200475,11.120694023437501,3.083343505859375,10.8333740234375C3.083343505859375,10.546054023437499,3.197480505859375,10.2705040234375,3.400644505859375,10.0673440234375C3.6038085058593747,9.8641740234375,3.879358505859375,9.7500440234375,4.166673505859375,9.7500440234375C4.4539935058593745,9.7500440234375,4.729543505859375,9.8641740234375,4.932713505859375,10.0673440234375L8.333343505859375,13.467974023437499L15.900643505859374,5.9006750234375C16.103843505859373,5.6975110234375,16.379343505859374,5.5833740234375,16.666643505859376,5.5833740234375C16.954043505859374,5.5833740234375,17.229543505859375,5.6975110234375,17.432743505859374,5.9006750234375C17.635843505859377,6.1038400234375,17.750043505859374,6.3793900234375,17.750043505859374,6.6667040234375C17.750043505859374,6.9540240234374995,17.635843505859377,7.2295740234375,17.432743505859374,7.4327440234375Z" fill-rule="evenodd" fill="#1878F5" fill-opacity="1"/></g></g></svg>