<svg xmlns="http://www.w3.org/2000/svg" xmlns:xlink="http://www.w3.org/1999/xlink" fill="none" version="1.1" width="24" height="24" viewBox="0 0 24 24"><defs><clipPath id="master_svg0_1_0301"><rect x="0" y="0" width="24" height="24" rx="0"/></clipPath></defs><g clip-path="url(#master_svg0_1_0301)"><g><path d="M13.6800537109375,17.599949951171876Q13.6800535678865,16.307579951171874,14.5938667109375,15.393762951171874Q15.5076837109375,14.479949665069874,16.8000537109375,14.479949951171875Q18.0924237109375,14.479949808120875,19.0062437109375,15.393762951171874Q19.920053710937502,16.307579951171874,19.920053710937502,17.599949951171876Q19.920053710937502,18.892319951171874,19.0062437109375,19.806139951171875Q18.0924237109375,20.719949951171877,16.8000537109375,20.719949951171877Q15.5076837109375,20.719949951171877,14.5938667109375,19.806139951171875Q13.6800534248355,18.892319951171874,13.6800537109375,17.599949951171876ZM15.1200537109375,17.599949951171876Q15.1200537109375,18.295859951171874,15.6121037109375,18.787899951171873Q16.1041437109375,19.279949951171876,16.8000537109375,19.279949951171876Q17.4959637109375,19.279949951171876,17.988003710937498,18.787899951171873Q18.4800537109375,18.295859951171874,18.4800537109375,17.599949951171876Q18.4800537109375,16.904039951171875,17.988003710937498,16.411999951171875Q17.4959637109375,15.919949951171875,16.8000537109375,15.919949951171875Q16.1041437109375,15.919949951171875,15.6121037109375,16.411999951171875Q15.1200537109375,16.904039951171875,15.1200537109375,17.599949951171876Z" fill-rule="evenodd" fill="#595959" fill-opacity="1"/></g><g><path d="M13.6800537109375,6.400029296875Q13.6800534963605,5.107679296875,14.5938637109375,4.193860296875Q15.5076837109375,3.280029296875,16.8000537109375,3.280029296875Q18.0924237109375,3.280029296875,19.0062437109375,4.193860296875Q19.920053710937502,5.107679296875,19.920053710937502,6.400029296875Q19.920053710937502,7.692379296875,19.0062437109375,8.606199296875001Q18.0924237109375,9.520029296875,16.8000537109375,9.520029296875Q15.5076837109375,9.520029296875,14.5938637109375,8.606199296875001Q13.6800533533095,7.692379296875,13.6800537109375,6.400029296875ZM15.1200537109375,6.400029296875Q15.1200537109375,7.095919296875,15.6121037109375,7.587969296875Q16.1041537109375,8.080029296875,16.8000537109375,8.080029296875Q17.4959537109375,8.080029296875,17.988003710937498,7.587969296875Q18.4800537109375,7.095909296875,18.4800537109375,6.400029296875Q18.4800537109375,5.704139296875001,17.988003710937498,5.212089296875Q17.4959537109375,4.7200292968749995,16.8000537109375,4.7200292968749995Q16.1041537109375,4.7200292968749995,15.6121037109375,5.212089296875Q15.1200537109375,5.704139296875001,15.1200537109375,6.400029296875Z" fill-rule="evenodd" fill="#595959" fill-opacity="1"/></g><g><path d="M4.08001708984375,12.000004882812501Q4.08001708984375,10.7076348828125,4.99384808984375,9.7938148828125Q5.90766708984375,8.8800045967105,7.20001708984375,8.8800048828125Q8.49236708984375,8.8800046682355,9.406187089843751,9.7938148828125Q10.32001708984375,10.7076348828125,10.32001708984375,12.000004882812501Q10.32001708984375,13.2923748828125,9.406187089843751,14.2061948828125Q8.49236708984375,15.1200048828125,7.20001708984375,15.1200048828125Q5.90766708984375,15.1200048828125,4.99384808984375,14.2061948828125Q4.08001701831815,13.2923748828125,4.08001708984375,12.000004882812501ZM5.5200170898437495,12.000004882812501Q5.5200170898437495,12.6959048828125,6.01207708984375,13.1879548828125Q6.504127089843751,13.6800048828125,7.20001708984375,13.6800048828125Q7.89590708984375,13.6800048828125,8.38795708984375,13.1879548828125Q8.88001708984375,12.6959048828125,8.88001708984375,12.000004882812501Q8.88001708984375,11.3041048828125,8.38795708984375,10.8120548828125Q7.89590708984375,10.3200048828125,7.20001708984375,10.3200048828125Q6.504127089843751,10.3200048828125,6.01207708984375,10.8120548828125Q5.5200170898437495,11.3041048828125,5.5200170898437495,12.000004882812501Z" fill-rule="evenodd" fill="#595959" fill-opacity="1"/></g><g><path d="M8.84283447265625,10.17491455078125L14.44283447265625,6.97491455078125L15.157274472656251,8.22518455078125L9.55727447265625,11.42518455078125L8.84283447265625,10.17491455078125Z" fill-rule="evenodd" fill="#595959" fill-opacity="1"/></g><g><path d="M14.44283447265625,17.02516013671875L8.84283447265625,13.82516013671875L9.55727447265625,12.57489013671875L15.157274472656251,15.77489013671875L14.44283447265625,17.02516013671875Z" fill-rule="evenodd" fill="#595959" fill-opacity="1"/></g></g></svg>