<svg xmlns="http://www.w3.org/2000/svg" xmlns:xlink="http://www.w3.org/1999/xlink" fill="none" version="1.1" width="12.86667275428772" height="12.283324480056763" viewBox="0 0 12.86667275428772 12.283324480056763"><g><path d="M4.442630023841858,3.945980023841858L5.9578600238418575,0.8938600238418579C6.152340023841858,0.5020467238418579,6.714330023841858,0.5020467238418579,6.908810023841858,0.8938600238418579L8.424020023841859,3.945980023841858L11.812500023841858,4.438430023841858C12.247300023841857,4.501610023841858,12.420500023841857,5.032980023841858,12.105800023841859,5.337770023841858L9.654330023841858,7.711880023841858L10.232880023841858,11.065800023841858C10.307190023841859,11.496500023841858,9.852490023841858,11.825000023841858,9.463460023841858,11.621600023841857L6.433330023841858,10.037170023841858L3.4031900238418578,11.621600023841857C3.014180023841858,11.825000023841858,2.559470023841858,11.496500023841858,2.633760023841858,11.065800023841858L3.212310023841858,7.711880023841858L0.7608550238418579,5.337770023841858C0.4461000238418579,5.032980023841858,0.6193793238418579,4.501610023841858,1.0541380238418578,4.438430023841858L4.442630023841858,3.945980023841858Z" fill="#FFB92E" fill-opacity="1"/><path d="M4.045080023841858,3.397460023841858L0.9678460238418579,3.844670023841858Q0.2731300238418579,3.945630023841858,0.05599402384185792,4.611480023841858Q-0.16184697615814214,5.279490023841858,0.34344502384185793,5.768780023841858L2.567150023841858,7.922330023841858L2.042490023841858,10.963800023841857Q1.923110023841858,11.656000023841857,2.493430023841858,12.067900023841858Q3.0607900238418577,12.477700023841859,3.681210023841858,12.153300023841858L6.433330023841858,10.714200023841858L9.185450023841858,12.153300023841858Q9.805880023841858,12.477700023841859,10.373230023841858,12.067900023841858Q10.943600023841858,11.656000023841857,10.824100023841858,10.963800023841857L10.299490023841859,7.922330023841858L12.523300023841857,5.768780023841858Q13.028500023841858,5.279460023841858,12.810700023841857,4.611480023841858Q12.593500023841857,3.945630023841858,11.898800023841858,3.844670023841858L8.821570023841858,3.397460023841858L7.446240023841858,0.6270949238418579Q7.134980023841858,2.384185793236071e-8,6.433330023841858,2.384185793236071e-8Q5.731690023841858,2.384185793236071e-8,5.4204400238418575,0.6270593238418579L4.045080023841858,3.397460023841858ZM1.285944023841858,5.011050023841858L3.629720023841858,7.2808700238418576Q3.682360023841858,7.331850023841858,3.721190023841858,7.3940000238418575Q3.760010023841858,7.456150023841858,3.782740023841858,7.525820023841858Q3.805460023841858,7.595490023841858,3.810750023841858,7.668580023841858Q3.816040023841858,7.741660023841858,3.803580023841858,7.8138800238418575L3.2497100238418577,11.024700023841858L6.155320023841858,9.505460023841858Q6.219670023841858,9.471820023841858,6.290190023841858,9.454490023841858Q6.360720023841858,9.437170023841858,6.433340023841858,9.437170023841858Q6.505950023841858,9.437170023841858,6.5764800238418575,9.454490023841858Q6.647000023841858,9.471820023841858,6.711350023841858,9.505470023841857L9.616930023841858,11.024700023841858L9.063060023841858,7.8138800238418575Q9.050600023841858,7.741660023841858,9.055890023841858,7.668570023841858Q9.061180023841858,7.595480023841858,9.083910023841858,7.525820023841858Q9.106630023841857,7.456150023841858,9.145450023841859,7.3940000238418575Q9.184280023841858,7.331850023841858,9.236920023841858,7.2808700238418576L11.580700023841858,5.011050023841858L8.337730023841857,4.539740023841858Q8.265700023841859,4.529280023841858,8.198270023841857,4.501900023841857Q8.13084002384186,4.474510023841858,8.071910023841859,4.431800023841857Q8.012980023841859,4.389090023841858,7.965970023841858,4.333530023841858Q7.918960023841858,4.277970023841858,7.886600023841858,4.212780023841858L6.433330023841858,1.285432023841858L4.980050023841858,4.212780023841858Q4.947690023841858,4.277970023841858,4.900680023841858,4.333530023841858Q4.8536700238418575,4.389090023841858,4.794740023841858,4.431800023841857Q4.735810023841858,4.474510023841858,4.668380023841858,4.501900023841857Q4.6009500238418575,4.529280023841858,4.528930023841857,4.539740023841858L1.285944023841858,5.011050023841858Z" fill-rule="evenodd" fill="#FFB92E" fill-opacity="1"/></g></svg>