<svg xmlns="http://www.w3.org/2000/svg" xmlns:xlink="http://www.w3.org/1999/xlink" fill="none" version="1.1" width="24"
    height="24" viewBox="0 0 24 24">
    <defs>
        <clipPath id="master_svg0_1_0289">
            <rect x="0" y="0" width="24" height="24" rx="0" />
        </clipPath>
    </defs>
    <g clip-path="url(#master_svg0_1_0289)">
        <g>
            <path
                d="M4.51930123046875,8.951551640625L8.79286123046875,8.330471640625L10.70305123046875,4.482778640625Q11.10156123046875,3.679931640625,12.00003123046875,3.679931640625Q12.89850123046875,3.679931640625,13.29706123046875,4.482821640625L15.20716123046875,8.330471640625L19.48076123046875,8.951551640625Q20.37036123046875,9.080831640625,20.64836123046875,9.933281640625001Q20.92716123046875,10.788281640625,20.28036123046875,11.414651640625L17.19156123046875,14.405931640625L17.92036123046875,18.630631640624998Q18.07316123046875,19.516631640625,17.34306123046875,20.043931640625Q16.61656123046875,20.568731640625,15.82206123046875,20.153231640625L12.00003123046875,18.154831640624998L8.178021230468751,20.153231640625Q7.38351123046875,20.568731640625,6.656961230468751,20.043931640625Q5.9268612304687505,19.516631640625,6.07967123046875,18.630631640624998L6.80844123046875,14.405931640625L3.71974023046875,11.414661640624999Q3.07292123046875,10.788321640625,3.35175373046875,9.933281640625001Q3.62974123046875,9.080831640625,4.51930123046875,8.951551640625ZM4.72639123046875,10.376581640625Q4.72159123046875,10.377281640625,4.72080123046875,10.379731640625L4.72080123046875,10.379731640625L8.083521230468751,13.636161640625C8.25452123046875,13.801731640625,8.33262123046875,14.041231640625,8.29215123046875,14.275731640625L7.49871123046875,18.875431640625L7.50010123046875,18.876631640625Q7.50506123046875,18.880131640625002,7.51079123046875,18.877131640625002L11.66641123046875,16.704331640625C11.87540123046875,16.595031640625002,12.12466123046875,16.595031640625002,12.33365123046875,16.704331640625L16.48926123046875,18.877131640625002Q16.49496123046875,18.880131640625002,16.49996123046875,18.876631640625L16.50136123046875,18.875431640625L15.70786123046875,14.275731640625C15.66736123046875,14.041131640625,15.74546123046875,13.801731640625,15.91646123046875,13.636161640625L19.27856123046875,10.380251640625L19.27856123046875,10.380251640625Q19.27846123046875,10.377281640625,19.27366123046875,10.376581640625L14.62656123046875,9.701221640625C14.39266123046875,9.667231640625001,14.19036123046875,9.520581640625,14.08516123046875,9.308861640625L12.00719123046875,5.123061640625Q12.00564123046875,5.1199316406249995,12.00003123046875,5.1199316406249995Q11.99442123046875,5.1199316406249995,11.99285123046875,5.123101640625L9.91483123046875,9.308871640625C9.80972123046875,9.520581640625,9.60739123046875,9.667231640625001,9.37348123046875,9.701221640625L4.72639123046875,10.376581640625Z"
                fill-rule="evenodd" fill="#595959" fill-opacity="1" />
        </g>
    </g>
</svg>