<svg xmlns="http://www.w3.org/2000/svg" xmlns:xlink="http://www.w3.org/1999/xlink" fill="none" version="1.1" width="24" height="24" viewBox="0 0 24 24"><defs><clipPath id="master_svg0_1_0090"><rect x="0" y="0" width="24" height="24" rx="0"/></clipPath></defs><g clip-path="url(#master_svg0_1_0090)"><g><ellipse cx="7.875" cy="10.125" rx="4.875" ry="4.875" fill-opacity="0" stroke-opacity="1" stroke="#BFBFBF" fill="none" stroke-width="1.600000023841858" stroke-linecap="ROUND" stroke-linejoin="round"/></g><g><path d="M11.343684375,16.644866874999998Q13.046284375,17.535776875,14.119184375,19.184556875L14.120184375,19.186186875Q14.174684375,19.269956875,14.248084375,19.337746875Q14.321584375,19.405546875,14.409384375,19.453196875Q14.497184375,19.500846875,14.594084375,19.525426875Q14.690884375,19.550016875,14.790884375,19.550016875Q14.810384375,19.550016875,14.829784375,19.549066875Q15.045784375,19.538536875,15.226984375,19.420646875Q15.360384375,19.333886875,15.450484375,19.202686875Q15.540484375,19.071476875000002,15.573484375,18.915806875Q15.590884375,18.833816875,15.590884375,18.750016875Q15.590884375,18.735996875,15.590384375,18.721986875Q15.582584375,18.500026875,15.461484375,18.313836875L15.461384375,18.313716875L15.460484375,18.312246875Q14.159184375,16.312316875,12.085484375,15.227211875Q10.118604375,14.198045875,7.874924375,14.198045875Q5.631234375,14.198045875,3.664404375,15.227211875Q1.590844375,16.312216875,0.28962437500000004,18.311886875Q0.15898437499999996,18.511466875,0.15898437499999996,18.750016875L0.159067375,18.761466875Q0.16018437500000005,18.839476875,0.17635337500000003,18.915806875Q0.20933037499999996,19.071476875000002,0.299372375,19.202686875Q0.38941337499999995,19.333886875,0.5228113750000001,19.420646875Q0.721714375,19.550016875,0.958984375,19.550016875L0.960888975,19.550006875Q1.060577375,19.549776875,1.157158375,19.525076875Q1.253740375,19.500386875,1.341308375,19.452746875Q1.428875375,19.405096874999998,1.5020743749999999,19.337426875Q1.575272375,19.269756875,1.6296243750000001,19.186186875Q2.702744375,17.536216875,4.406204375,16.644866874999998Q6.024554375,15.798045875,7.874924375,15.798045875Q9.725294375,15.798045875,11.343684375,16.644866874999998Z" fill-rule="evenodd" fill="#BFBFBF" fill-opacity="1"/></g><g><path d="M22.369239999999998,19.18455L22.37024,19.18608Q22.42472,19.26987,22.49813,19.33768Q22.571550000000002,19.40549,22.659399999999998,19.45316Q22.74725,19.50082,22.84412,19.52541Q22.94099,19.55,23.04094,19.55Q23.06036,19.55,23.07976,19.54906Q23.29573,19.53856,23.47701,19.4207Q23.61042,19.33396,23.70048,19.20277Q23.79054,19.07158,23.82354,18.91591Q23.84094,18.83387,23.84094,18.75Q23.84094,18.73604,23.84045,18.72209Q23.8327,18.50013,23.71164,18.31393L23.711579999999998,18.31384L23.71054,18.31223Q22.458750000000002,16.38782,20.44051,15.293478Q18.421590000000002,14.198765,16.125,14.200001L16.12453108,14.200001Q16.0457676,14.200048,15.968525,14.215453Q15.891283,14.230859,15.818528,14.261032Q15.745774,14.291206,15.6803,14.334988Q15.614827,14.378771,15.559149,14.434481Q15.503471,14.490192,15.459727,14.555691Q15.415982,14.62119,15.385852,14.693962Q15.355720999999999,14.766734,15.34036,14.843986Q15.325,14.9212366,15.325,15L15.325,15.000470828L22.369239999999998,19.18455Z" fill-rule="evenodd" fill="#D9D9D9" fill-opacity="1"/></g><g><path d="M16.125007265625,14.199944453125L16.124307265625,14.199944453125Q15.965177265625,14.200084453125,15.818207265625,14.261114453125Q15.671247265625,14.322134453125,15.558827265625,14.434764453125Q15.446537265625,14.547254453125,15.385767265625,14.694124453125Q15.325007265625,14.841004453125,15.325007265625,14.999944453125L15.325007265625,15.000654453125Q15.325077265625,15.079394453125,15.340497265625,15.156624453125Q15.355927265625,15.233844453125,15.386107265625,15.306614453125Q15.416297265625,15.379314453125,15.460077265625,15.444814453125Q15.503867265625,15.510214453125,15.559577265625,15.565914453125Q15.615277265625,15.621514453125,15.680777265625,15.665314453125Q15.746267265625,15.709014453125,15.819027265625,15.739114453125Q15.891787265625,15.769214453125,15.969027265625,15.784614453125Q16.046257265625,15.799914453125,16.125007265625,15.799914453125L16.125717265625,15.799914453125L16.126467265625,15.799914453125Q17.432057265625,15.798614453125,18.593687265625,15.235564453125Q19.706287265625,14.696264453125,20.498037265625,13.736684453125Q21.289787265625,12.777104453125,21.607977265625,11.582324453125Q21.940277265625,10.334544453125,21.693377265625,9.052084453125Q21.446477265625,7.769624453125,20.674647265625,6.734414453125Q19.935607265625002,5.743180453125,18.844167265625,5.146153453125Q17.752737265625,4.549128453125,16.519427265625,4.461465453125Q15.231406265625,4.369914453125,14.018326265625,4.853744453125Q13.906848265625,4.898206453125,13.813325265625,4.973422453125Q13.719802265625,5.048639453125,13.652467265625,5.147988153125Q13.585132265624999,5.247336858425,13.549915265625,5.362070453125Q13.514697265625,5.476804453125,13.514697265625,5.596821453125L13.514700265625,5.598861453125Q13.515089265625,5.751456453125,13.571620265625,5.893193453125Q13.630572265625,6.041000453125,13.741600265625,6.154996453125Q13.852627265625,6.268994453125,13.998828265625,6.331824453125Q14.150075265625,6.396824453125,14.314697265625,6.396824453125L14.324035445625,6.396764453125Q14.472842265625,6.395034453125,14.611069265625,6.339894453125L14.612057265625,6.339504453125Q16.393587265625,5.629392453125,18.076327265625,6.549864453125Q19.759527265625,7.470594453125,20.122227265625,9.354564453125Q20.484937265625,11.238544453125,19.263907265625,12.718394453125Q18.043097265625,14.197984453125,16.125007265625,14.199944453125Z" fill-rule="evenodd" fill="#D9D9D9" fill-opacity="1"/></g></g></svg>