<svg xmlns="http://www.w3.org/2000/svg" xmlns:xlink="http://www.w3.org/1999/xlink" fill="none" version="1.1" width="134" height="36" viewBox="0 0 134 36"><defs><clipPath id="master_svg0_227_449"><rect x="0" y="0" width="134" height="36" rx="0"/></clipPath><linearGradient x1="0.5" y1="0" x2="0.5" y2="1" id="master_svg1_227_491"><stop offset="0%" stop-color="#1878F5" stop-opacity="1"/><stop offset="100%" stop-color="#47F6FF" stop-opacity="1"/></linearGradient><linearGradient x1="0.5" y1="1" x2="0.5" y2="0" id="master_svg2_227_488"><stop offset="0%" stop-color="#46F7F1" stop-opacity="1"/><stop offset="100%" stop-color="#1878F5" stop-opacity="1"/></linearGradient><clipPath id="master_svg3_227_451"><rect x="50" y="6" width="73.28064727783203" height="24.045330047607422" rx="0"/></clipPath></defs><g clip-path="url(#master_svg0_227_449)"><g><g><g><path d="M17.0322,13.888653369140625L17.0322,15.994053369140625C17.0322,19.756653369140626,20.0824,22.806853369140626,23.845,22.806853369140626L23.845,13.888653369140625C23.845,7.420913369140625,18.4113,1.883453369140625,11.9225,1.883453369140625C5.4993,1.883455681230625,0,7.354913369140625,0,13.888653369140625L7.66553e-7,27.631153369140623C9.76433e-7,31.393753369140626,3.05022,34.444053369140626,6.81286,34.444053369140626L6.81286,13.888653369140625C6.81286,7.712943369140625,17.0322,7.275393369140625,17.0322,13.888653369140625Z" fill-rule="evenodd" fill="url(#master_svg1_227_491)" fill-opacity="1"/></g><g><path d="M37.38473828125,5.399490361328125C33.40283828125,1.389995361328125,26.873958281249998,0.752540361328125,22.20081828125,3.991400361328125C23.80887828125,5.660330361328125,25.01608828125,7.710920361328125,25.67784828125,9.939450361328126Q26.260568281250002,9.446910361328126,26.96639828125,9.146300361328125Q27.912438281249997,8.743380361328125,28.95423828125,8.743380361328125Q29.99603828125,8.743380361328125,30.94213828125,9.146300361328125Q31.858438281250002,9.536570361328124,32.56733828125,10.250340361328124Q33.27613828125,10.964120361328124,33.663738281250005,11.886830361328125Q34.06393828125,12.839470361328125,34.06393828125,13.888470361328125L34.06393828125,23.578570361328126C34.06393828125,26.391370361328125,31.867838281250002,28.425370361328124,29.52083828125,28.425370361328124C27.14093828125,28.425370361328124,24.60009828125,27.423770361328124,23.84459828125,24.979170361328126C21.460098281249998,24.979170361328126,17.71302428125,23.264170361328127,17.03173828125,20.863170361328127L17.03173828125,23.578570361328126C17.03173828125,30.046370361328126,22.46547828125,35.64987036132813,28.95423828125,35.64987036132813C35.33063828125,35.64987036132813,40.79653828125,30.191870361328125,40.87583828125,23.721370361328123L40.87673828125,23.721370361328123L40.87673828125,13.888470361328125Q40.87673828125,11.448300361328124,39.93843828125,9.214450361328126Q39.03323828125,7.059400361328125,37.38473828125,5.399490361328125Z" fill-rule="evenodd" fill="url(#master_svg2_227_488)" fill-opacity="1"/></g></g></g><g clip-path="url(#master_svg3_227_451)"><g><rect x="70.25927734375" y="6.024688720703125" width="1.833522081375122" height="19.659284591674805" rx="0" fill="#111111" fill-opacity="1"/></g><g><path d="M72.45282,29.980988720703124L71.15625,28.685688720703126L71.804525,28.030888720703125C72.62314,27.216788720703125,73.08202,26.108988720703124,73.07882,24.954488720703125L73.07882,6.024688720703125L74.91234,6.024688720703125L74.91234,24.961088720703124C74.91711,26.601788720703127,74.26482,28.176088720703124,73.10109,29.332688720703125L72.45282,29.980988720703124Z" fill="#111111" fill-opacity="1"/></g><g><path d="M79.15985125,29.980988720703124L77.86328125,28.685688720703126L78.51811025,28.030888720703125C79.33625125,27.216588720703125,79.79463125,26.108788720703124,79.79109125,24.954488720703125L79.79109125,6.024688720703125L81.62462125,6.024688720703125L81.62462125,24.961088720703124C81.62929125,26.601488720703124,80.97756125,28.175588720703125,79.81467125,29.332688720703125L79.15985125,29.980988720703124Z" fill="#111111" fill-opacity="1"/></g><g><rect x="75.80810546875" y="6.024688720703125" width="9.821130752563477" height="1.8335219621658325" rx="0" fill="#111111" fill-opacity="1"/></g><g><path d="M83.32554546875,26.0090869140625L82.02898546875,24.712486914062502L82.67725546875,24.0576869140625C83.39509546875,23.3430869140625,83.79774546875,22.3712869140625,83.79571546875,21.3584869140625L83.79571546875,13.7074069140625C83.79427546875,12.8465369140625,83.09675546875,12.1490269140625,82.23590546875,12.1476069140625L77.64162546875,12.1476069140625L77.64162546875,25.6828869140625L75.80810546875,25.6828869140625L75.80810546875,10.3140869140625L82.23590546875,10.3140869140625C84.10907546875,10.3162611540625,85.62704546875,11.8342269140625,85.62923546875,13.7074069140625L85.62923546875,21.3649869140625C85.63332546875,22.8645869140625,85.03721546875,24.3034869140625,83.97381546875,25.3607869140625L83.32554546875,26.0090869140625Z" fill="#111111" fill-opacity="1"/></g><g><path d="M53.0193765625,10.26407021484375L54.2491465625,11.49515021484375L51.8040165625,11.49515021484375L51.8040165625,7.7613202148437495L56.8082165625,7.7613202148437495L56.8082165625,6.01947021484375L50.0634765625,6.01947021484375L50.0634765625,13.23569021484375L56.3511465625,13.23569021484375L56.9666865625,11.749230214843749L54.2504565625,9.03299021484375L53.0193765625,10.26407021484375Z" fill="#111111" fill-opacity="1"/></g><g><path d="M64.295599375,10.264048720703125L63.065819375,11.493828720703124L65.510959375,11.493828720703124L65.510959375,10.330848720703125C65.510949375,8.910998720703125,64.359939375,7.7599887207031255,62.940099375,7.7599887207031255L60.506762375,7.7599887207031255L60.506762375,6.024688720703125L62.831409375,6.024688720703125C65.272549375,6.024688720703125,67.251489375,8.003628720703125,67.251499375,10.444788720703125L67.251499375,13.240908720703125L60.965142375,13.240908720703125L60.349609375,11.754448720703124L63.064509375,9.036908720703124L64.295599375,10.264048720703125Z" fill="#111111" fill-opacity="1"/></g><g><rect x="50.0634765625" y="17.009033203125" width="17.182714462280273" height="1.7405362129211426" rx="0" fill="#111111" fill-opacity="1"/></g><g><rect x="50.0634765625" y="27.788818359375" width="17.009851455688477" height="1.7405362129211426" rx="0" fill="#111111" fill-opacity="1"/></g><g transform="matrix(0.7071067690849304,-0.7071067690849304,0.7071067690849304,0.7071067690849304,-0.7638995687630086,41.73817832290297)"><rect x="50.00048828125" y="21.79119873046875" width="3.2309257984161377" height="1.7405354976654053" rx="0" fill="#111111" fill-opacity="1"/></g><g transform="matrix(0.7071067690849304,-0.7071067690849304,0.7071067690849304,0.7071067690849304,3.9529784637288685,51.05633172387206)"><rect x="63.60693359375" y="20.756500244140625" width="1.7405354976654053" height="3.2309257984161377" rx="0" fill="#111111" fill-opacity="1"/></g><g><path d="M54.66410046875,23.24170802734375L53.44873046875,21.99359802734375L54.07344046875,21.38722802734375C56.89052046875,18.63694302734375,60.12668046875,18.63694302734375,63.18604046875,21.36102802734375L63.84083046875,21.93989802734375L62.68313046875,23.23907802734375L62.02831046875,22.66020802734375C59.65127046875,20.54118802734375,57.44450046875,20.53201802734375,55.28881046875,22.63401802734375L54.66410046875,23.24170802734375Z" fill="#111111" fill-opacity="1"/></g><g><path d="M55.4540365625,26.34293109375L50.0634765625,26.34293109375L50.0634765625,24.60239109375L55.4540365625,24.60239109375C56.7439065625,24.600951093749998,57.7885865625,23.55452109375,57.7878565625,22.26465009375L57.7878565625,21.78662109375L59.5283965625,21.78662109375L59.5283965625,22.26465009375C59.5283965625,24.51550109375,57.7048865625,26.34077109375,55.4540365625,26.34293109375Z" fill="#111111" fill-opacity="1"/></g><g><path d="M59.34600875,29.205831337890626L57.60546875,29.205831337890626L57.60546875,28.336211337890624C57.607627,26.086901337890623,59.43051875,24.264021597890626,61.67980875,24.261871337890625L67.07168874999999,24.261871337890625L67.07168874999999,26.002401337890625L61.67980875,26.002401337890625C60.39147875,26.003831337890624,59.34744875,27.047881337890626,59.34600875,28.336211337890624L59.34600875,29.205831337890626Z" fill="#111111" fill-opacity="1"/></g><g><path d="M55.2078165625,16.038388720703125L50.0634765625,16.038388720703125L50.0634765625,14.204818720703125L55.2078165625,14.204818720703125C56.5889365625,14.203368720703125,57.7084165625,13.084498720703124,57.7105765625,11.703368720703125L57.7105765625,6.024688720703125L59.5440965625,6.024688720703125L59.5440965625,11.708608720703126C59.5376165625,14.099708720703125,57.5989365625,16.035488720703125,55.2078165625,16.038388720703125Z" fill="#111111" fill-opacity="1"/></g><g><path d="M59.54885203125,18.7036260546875L57.71533203125,18.7036260546875L57.71533203125,17.7868660546875C57.71677086125,15.8097460546875,59.31880203125,14.2071143046875,61.29593203125,14.2049560546875L67.26535203125,14.2049560546875L67.26535203125,16.0384760546875L61.29593203125,16.0384760546875C60.33113203125,16.0399160546875,59.54957203125,16.8220660546875,59.54885203125,17.7868660546875L59.54885203125,18.7036260546875Z" fill="#111111" fill-opacity="1"/></g><g><path d="M116.739909375,29.846088720703126L115.443359375,28.549488720703124L116.091634375,27.894688720703126C116.909949375,27.080888720703125,117.368779375,25.973688720703127,117.365929375,24.819588720703123L117.365929375,6.024688720703125L119.199449375,6.024688720703125L119.199449375,24.831388720703124C119.203899375,26.472088720703123,118.551689375,28.046288720703124,117.38817937499999,29.202988720703125L116.739909375,29.846088720703126Z" fill="#111111" fill-opacity="1"/></g><g><path d="M90.42889421875,29.88696318359375L89.13232421875,28.59046318359375L89.78059921875,27.93556318359375C90.59841421875,27.12156318359375,91.05678421875,26.01436318359375,91.05358421875,24.86056318359375L91.05358421875,10.38226318359375L92.88710421875,10.38226318359375L92.88710421875,24.86706318359375C92.89119421875,26.50736318359375,92.23956421875,28.08136318359375,91.07716421875,29.23876318359375L90.42889421875,29.88696318359375Z" fill="#111111" fill-opacity="1"/></g><g><rect x="88.24169921875" y="6.01947021484375" width="4.65321683883667" height="1.8335219621658325" rx="0" fill="#000000" fill-opacity="1"/></g><g><rect x="88.24169921875" y="10.38226318359375" width="4.65321683883667" height="1.8335219621658325" rx="0" fill="#000000" fill-opacity="1"/></g><g><path d="M109.56099234375,29.881543310546874L108.27490234375,28.571943310546875L108.92973134375,27.927543310546874C109.75447234375,27.120643310546875,110.22148234375,26.016843310546875,110.22628234375,24.862943310546875L110.33630234375,10.378143310546875L112.16982234375,10.391236710546876L112.05980234375,24.876043310546876C112.05245234375,26.516743310546875,111.38889234375,28.086243310546877,110.21710234375,29.234643310546875L109.56099234375,29.881543310546874Z" fill="#111111" fill-opacity="1"/></g><g transform="matrix(0.007330317050218582,-0.9999731183052063,0.9999731183052063,0.007330317050218582,98.90547496999534,115.28635687901192)"><rect x="107.52001953125" y="7.82659912109375" width="1.8335217237472534" height="4.653215408325195" rx="0" fill="#000000" fill-opacity="1"/></g><g transform="matrix(0.007330317050218582,-0.9999731183052063,0.9999731183052063,0.007330317050218582,94.51797524246103,119.58752384265313)"><rect x="107.49267578125" y="12.18707275390625" width="1.8335217237472534" height="4.653215408325195" rx="0" fill="#000000" fill-opacity="1"/></g><g><rect x="113.45263671875" y="10.38226318359375" width="9.831608772277832" height="1.8335219621658325" rx="0" fill="#000000" fill-opacity="1"/></g><g><rect x="94.56640625" y="14.206268310546875" width="9.584081649780273" height="1.8335219621658325" rx="0" fill="#000000" fill-opacity="1"/></g><g><path d="M94.8630500625,12.764198720703124L93.9462890625,12.764198720703124L93.9462890625,10.930668720703125L94.8630500625,10.930668720703125C95.7119090625,10.929978720703126,96.3998990625,10.242008720703126,96.4005990625,9.393138720703124L96.4005990625,6.024688720703125L98.2341290625,6.024688720703125L98.2341290625,9.398368720703125C98.2290790625,11.257218720703126,96.7219090625,12.762038720703124,94.8630500625,12.764198720703124Z" fill="#000000" fill-opacity="1"/></g><g><path d="M103.84811078125,12.764198720703124C101.98722078125,12.762028720703125,100.47922502125,11.254028720703126,100.47705078125,9.393138720703124L100.47705078125,6.024688720703125L102.31057078125,6.024688720703125L102.31057078125,9.398368720703125C102.31128078125,10.247228720703125,102.99923078125,10.935188720703124,103.84811078125,10.935908720703125L103.84811078125,12.764198720703124Z" fill="#000000" fill-opacity="1"/></g><g><rect x="96.40087890625" y="6.01947021484375" width="5.90656042098999" height="1.8335219621658325" rx="0" fill="#000000" fill-opacity="1"/></g><g><path d="M104.13216625,30.0439560546875L102.91154625,29.3603560546875C97.76026625,26.4718560546875,94.56944379,21.0275660546875,94.56640625,15.1217170546875L94.56640625,14.2049560546875L96.39992625,14.2049560546875L96.39992625,15.1217170546875C96.40274625,20.3641460546875,99.23494625000001,25.1968560546875,103.80736625,27.7612560546875L105.02800625,28.4448560546875L104.13216625,30.0439560546875Z" fill="#000000" fill-opacity="1"/></g><g><path d="M94.57939575,30.0442064453125L93.68359375,28.4451064453125L94.90812375,27.7654064453125C99.48057375,25.2010064453125,102.31280375,20.3682964453125,102.31555374999999,15.1258674453125L102.31555374999999,14.2091064453125L104.14909375,14.2091064453125L104.14909375,15.1258674453125C104.14599375,21.0317164453125,100.95518375,26.4759064453125,95.80394375,29.3645064453125L94.57939575,30.0442064453125Z" fill="#000000" fill-opacity="1"/></g></g></g></svg>