<svg xmlns="http://www.w3.org/2000/svg" xmlns:xlink="http://www.w3.org/1999/xlink" fill="none" version="1.1" width="122" height="64" viewBox="0 0 122 64"><defs><clipPath id="master_svg0_341_8224"><rect x="0" y="0" width="122" height="64" rx="0"/></clipPath><linearGradient x1="0.5" y1="0" x2="0.5" y2="1" id="master_svg1_3_0757"><stop offset="0%" stop-color="#1878F5" stop-opacity="1"/><stop offset="100%" stop-color="#47F6FF" stop-opacity="1"/></linearGradient><linearGradient x1="0.5" y1="1" x2="0.5" y2="0" id="master_svg2_3_0763"><stop offset="0%" stop-color="#46F7F1" stop-opacity="1"/><stop offset="100%" stop-color="#1878F5" stop-opacity="1"/></linearGradient></defs><g clip-path="url(#master_svg0_341_8224)"><g><g><path d="M18.5177,27.05246103515625L18.5177,29.34136103515625C18.5177,33.43226103515625,21.834,36.748461035156254,25.9248,36.748461035156254L25.9248,27.05246103515625C25.9248,20.02051103515625,20.0171,14.00006103515625,12.9624,14.00006103515625C5.97896,14.00006354891625,0,19.94875103515625,0,27.05246103515625L8.33414e-7,41.99356103515625C0.0000010616,46.08436103515625,3.31627,49.40066103515625,7.40709,49.40066103515625L7.40709,27.05246103515625C7.40709,20.33802103515625,18.5177,19.86229103515625,18.5177,27.05246103515625Z" fill-rule="evenodd" fill="url(#master_svg1_3_0757)" fill-opacity="1"/></g><g><path d="M40.645778125,17.82259392578125C36.316678124999996,13.46337692578125,29.218278124999998,12.77032392578125,24.137518125,16.29168392578125C25.885838125,18.10618392578125,27.198338125,20.335633925781252,27.917818125,22.75853392578125Q28.551378125,22.22303392578125,29.318778125,21.89620392578125Q30.347278125000003,21.45813392578125,31.479978125000002,21.45813392578125Q32.612678125,21.45813392578125,33.641278125,21.89620392578125Q34.637578125000005,22.32051392578125,35.408178125,23.096543925781248Q36.178878125,23.87257392578125,36.600278125,24.87577392578125Q37.035278125000005,25.91147392578125,37.035278125000005,27.051973925781247L37.035278125000005,37.58727392578125C37.035278125000005,40.64537392578125,34.647678125,42.85687392578125,32.096078125,42.85687392578125C29.508578125,42.85687392578125,26.746058124999998,41.767873925781245,25.924668125,39.11007392578125C23.332188125000002,39.11007392578125,19.258287125,37.245473925781255,18.517578125,34.63497392578125L18.517578125,37.58727392578125C18.517578125,44.61927392578125,24.425268125,50.71157392578125,31.479978125000002,50.71157392578125C38.412478125,50.71157392578125,44.355178124999995,44.77747392578125,44.441478125,37.74257392578125L44.442378125000005,37.74257392578125L44.442378125000005,27.051973925781247Q44.442378125000005,24.39897392578125,43.422278125,21.97029392578125Q42.438078125000004,19.62727392578125,40.645778125,17.82259392578125Z" fill-rule="evenodd" fill="url(#master_svg2_3_0763)" fill-opacity="1"/></g></g><g><g><rect x="72" y="14" width="1.6775612831115723" height="17.98703956604004" rx="0" fill="#111111" fill-opacity="1"/></g><g><path d="M74.01049875,35.9185L72.82421875,34.7335L73.41735075,34.134299999999996C74.16633875,33.3895,74.58617875,32.3759,74.58325875,31.3196L74.58325875,14L76.26081875,14L76.26081875,31.3256C76.26517875,32.8268,75.66836875,34.2672,74.60362875,35.3254L74.01049875,35.9185Z" fill="#111111" fill-opacity="1"/></g><g><path d="M80.14331125,35.9185L78.95703125,34.7335L79.55616025,34.134299999999996C80.30470125,33.3893,80.72409125,32.3758,80.72086125,31.3196L80.72086125,14L82.39842125,14L82.39842125,31.3256C82.40269125,32.826499999999996,81.80640125,34.2668,80.74244125,35.3254L80.14331125,35.9185Z" fill="#111111" fill-opacity="1"/></g><g><rect x="77.078125" y="14" width="8.985736846923828" height="1.677560806274414" rx="0" fill="#111111" fill-opacity="1"/></g><g><path d="M83.956125,32.284338476562496L82.769855,31.0980384765625L83.362985,30.4989384765625C84.019755,29.8451384765625,84.388155,28.956038476562497,84.386295,28.0293384765625L84.386295,21.029118476562502C84.384985,20.2414784765625,83.746805,19.6032984765625,82.959175,19.6019984765625L78.755685,19.6019984765625L78.755685,31.985938476562502L77.078125,31.985938476562502L77.078125,17.9244384765625L82.959175,17.9244384765625C84.673005,17.9264277765625,86.061855,19.3152784765625,86.063855,21.029118476562502L86.063855,28.0353384765625C86.067605,29.4073384765625,85.522205,30.7238384765625,84.549255,31.6912384765625L83.956125,32.284338476562496Z" fill="#111111" fill-opacity="1"/></g></g><g><g><path d="M55.7640403125,17.90680439453125L56.8892003125,19.03317439453125L54.6520503125,19.03317439453125L54.6520503125,15.616934394531249L59.2306003125,15.616934394531249L59.2306003125,14.02325439453125L53.0595703125,14.02325439453125L53.0595703125,20.62565439453125L58.8124103125,20.62565439453125L59.3755803125,19.26563439453125L56.8904003125,16.78044439453125L55.7640403125,17.90680439453125Z" fill="#111111" fill-opacity="1"/></g><g><path d="M66.07517375,17.90714134765625L64.95001375,19.03231134765625L67.18716375,19.03231134765625L67.18716375,17.96825134765625C67.18715375,16.66918134765625,66.13405375,15.61607134765625,64.83498375,15.61607134765625L62.60862875,15.61607134765625L62.60862875,14.02838134765625L64.73553375,14.02838134765625C66.96903375,14.02838134765625,68.77964375,15.83899134765625,68.77965375,18.07250134765625L68.77965375,20.63078134765625L63.02801875,20.63078134765625L62.46484375,19.27076134765625L64.94881375,16.78437134765625L66.07517375,17.90714134765625Z" fill="#111111" fill-opacity="1"/></g><g><rect x="53.0595703125" y="24.0784912109375" width="15.721142768859863" height="1.5924843549728394" rx="0" fill="#111111" fill-opacity="1"/></g><g><rect x="53.0595703125" y="33.9410400390625" width="15.562982559204102" height="1.5924843549728394" rx="0" fill="#111111" fill-opacity="1"/></g><g transform="matrix(0.7071067690849304,-0.7071067690849304,0.7071067690849304,0.7071067690849304,-4.596444475970202,45.81054736343867)"><rect x="53" y="28.45367431640625" width="2.956097364425659" height="1.5924819707870483" rx="0" fill="#111111" fill-opacity="1"/></g><g transform="matrix(0.7071067690849304,-0.7071067690849304,0.7071067690849304,0.7071067690849304,-0.28082037870262866,54.33460970046508)"><rect x="65.447265625" y="27.50628662109375" width="1.5924819707870483" height="2.956097364425659" rx="0" fill="#111111" fill-opacity="1"/></g><g><path d="M57.26189234375,29.7804814453125L56.14990234375,28.638541445312498L56.72147334375,28.0837414453125C59.29893234375,25.5674024453125,62.25981234375,25.5674024453125,65.05894234375,28.0597814453125L65.65807234375,28.5894014453125L64.59882234375,29.7780714453125L63.99969234375,29.2484514453125C61.82484234375,27.3096614453125,59.805782343749996,27.3012814453125,57.83346234375,29.2244814453125L57.26189234375,29.7804814453125Z" fill="#111111" fill-opacity="1"/></g><g><path d="M57.9916003125,32.61850806640625L53.0595703125,32.61850806640625L53.0595703125,31.02602806640625L57.9916003125,31.02602806640625C59.1717503125,31.024708066406248,60.1275703125,30.06728806640625,60.1269103125,28.88713506640625L60.1269103125,28.44976806640625L61.7194003125,28.44976806640625L61.7194003125,28.88713506640625C61.7194003125,30.946528066406252,60.0509903125,32.61653806640625,57.9916003125,32.61850806640625Z" fill="#111111" fill-opacity="1"/></g><g><path d="M61.54903296875,35.237043046875L59.95654296875,35.237043046875L59.95654296875,34.441403046875C59.95851763875,32.383413046875,61.62635296875,30.715590396875,63.68432296875,30.713623046875L68.61755296875,30.713623046875L68.61755296875,32.306103046875L63.68432296875,32.306103046875C62.50557296875,32.307413046875,61.55035296875,33.262653046875,61.54903296875,34.441403046875L61.54903296875,35.237043046875Z" fill="#111111" fill-opacity="1"/></g><g><path d="M57.7663303125,23.19026134765625L53.0595703125,23.19026134765625L53.0595703125,21.51270134765625L57.7663303125,21.51270134765625C59.0299703125,21.51138134765625,60.0542203125,20.48767134765625,60.056200312499996,19.22403134765625L60.056200312499996,14.02838134765625L61.733760312499996,14.02838134765625L61.733760312499996,19.22882134765625C61.7278403125,21.41653134765625,59.9540603125,23.18763134765625,57.7663303125,23.19026134765625Z" fill="#111111" fill-opacity="1"/></g><g><path d="M61.73957171875,25.6287053125L60.06201171875,25.6287053125L60.06201171875,24.7899253125C60.06332816875,22.9809753125,61.52909171875,21.5146699825,63.33804171875,21.5126953125L68.79970171875,21.5126953125L68.79970171875,23.1902553125L63.33804171875,23.1902553125C62.455311718749996,23.1915753125,61.74023171875,23.9071953125,61.73957171875,24.7899253125L61.73957171875,25.6287053125Z" fill="#111111" fill-opacity="1"/></g></g><g><g><path d="M115.45920921875,35.8235048318863L114.27294921875,34.637204831886294L114.86608121875,34.03810483188629C115.61478921875,33.293504831886295,116.03458921875,32.28050483188629,116.03198921875,31.224604831886293L116.03198921875,14.028404831886292L117.70954921875,14.028404831886292L117.70954921875,31.235404831886292C117.71360921875,32.73650483188629,117.11687921875,34.17680483188629,116.05234921875,35.23520483188629L115.45920921875,35.8235048318863Z" fill="#111111" fill-opacity="1"/></g><g><path d="M108.889590625,35.85587590408325L107.712890625,34.65757590408325L108.312019625,34.06807590408325C109.066610625,33.32967590408325,109.493900625,32.31977590408325,109.498280625,31.264075904083253L109.598950625,18.011375904083252L111.276510625,18.023355504083252L111.175850625,31.27607590408325C111.169110625,32.77717590408325,110.562000625,34.21317590408325,109.489890625,35.26387590408325L108.889590625,35.85587590408325Z" fill="#111111" fill-opacity="1"/></g><g transform="matrix(0.007330317050218582,-0.9999731183052063,0.9999731183052063,0.007330317050218582,90.56570710680364,122.58705924609924)"><rect x="107.02734375" y="15.677513718605042" width="1.6775587797164917" height="4.257403373718262" rx="0" fill="#000000" fill-opacity="1"/></g><g transform="matrix(0.007330317050218582,-0.9999731183052063,0.9999731183052063,0.007330317050218582,86.54953540690857,126.51961022525104)"><rect x="107" y="19.666649341583252" width="1.6775587797164917" height="4.257403373718262" rx="0" fill="#000000" fill-opacity="1"/></g><g><rect x="112.45556640625" y="18.015526294708252" width="8.995323181152344" height="1.677560806274414" rx="0" fill="#000000" fill-opacity="1"/></g></g><g><g><path d="M91.00317453125,35.837848535156255L89.81689453125,34.651648535156255L90.41002653125,34.052448535156245C91.15827453125,33.30774853515625,91.57765453125,32.29464853515625,91.57472453125,31.23894853515625L91.57472453125,17.99224853515625L93.25229453125,17.99224853515625L93.25229453125,31.24494853515625C93.25603453125,32.74574853515625,92.65983453125,34.18584853515625,91.59630453125,35.24474853515625L91.00317453125,35.837848535156255Z" fill="#111111" fill-opacity="1"/></g><g><rect x="89" y="14" width="4.257411003112793" height="1.677560806274414" rx="0" fill="#000000" fill-opacity="1"/></g><g><rect x="89" y="17.99224853515625" width="4.257411003112793" height="1.677560806274414" rx="0" fill="#000000" fill-opacity="1"/></g><g><rect x="94.78759765625" y="21.4901123046875" width="8.768851280212402" height="1.677560806274414" rx="0" fill="#000000" fill-opacity="1"/></g><g><path d="M95.059484125,20.171366953125002L94.220703125,20.171366953125002L94.220703125,18.493806953125L95.059484125,18.493806953125C95.836143125,18.493166953124998,96.465613125,17.863716953125,96.466253125,17.087046953125L96.466253125,14.005126953125L98.143813125,14.005126953125L98.143813125,17.091836953125C98.139193125,18.792566953125,96.760233125,20.169386953125,95.059484125,20.171366953125002Z" fill="#000000" fill-opacity="1"/></g><g><path d="M103.281575625,20.171366953125002C101.578975625,20.169376953125,100.199254925,18.789656953125,100.197265625,17.087046953125L100.197265625,14.005126953125L101.874825625,14.005126953125L101.874825625,17.091836953125C101.875475625,17.868486953125,102.504905625,18.497936953125,103.281575625,18.498596953125002L103.281575625,20.171366953125002Z" fill="#000000" fill-opacity="1"/></g><g><rect x="96.46533203125" y="14" width="5.404141902923584" height="1.677560806274414" rx="0" fill="#000000" fill-opacity="1"/></g><g><path d="M103.53967765625,35.98114091796875L102.42289765625,35.35564091796875C97.70978765625,32.71284091796875,94.79037681625,27.73171091796875,94.78759765625,22.32822091796875L94.78759765625,21.48944091796875L96.46515765625,21.48944091796875L96.46515765625,22.32822091796875C96.46773765625,27.12472091796875,99.05902765625,31.54634091796875,103.24251765625,33.89264091796875L104.35929765624999,34.51814091796875L103.53967765625,35.98114091796875Z" fill="#000000" fill-opacity="1"/></g><g><path d="M94.79665478125,35.9806537109375L93.97705078125,34.5176537109375L95.09742078125,33.8957537109375C99.28093078125,31.5494537109375,101.87226078125,27.1278337109375,101.87477078124999,22.3313337109375L101.87477078124999,21.4925537109375L103.55234078125,21.4925537109375L103.55234078125,22.3313337109375C103.54952078125,27.7348237109375,100.63012078125,32.7159537109375,95.91704078125,35.3587537109375L94.79665478125,35.9806537109375Z" fill="#000000" fill-opacity="1"/></g></g><g><path d="M60.076,40.72L58.504,40.72L56.403999999999996,45.292L54.28,40.72L52.708,40.72L52.708,49L54.28,49L54.28,44.056L55.876,47.403999999999996L56.932,47.403999999999996L58.504,44.092L58.504,49L60.076,49L60.076,40.72ZM61.384,45.796C61.384,47.99613,62.3719,49.096000000000004,64.348,49.096000000000004C65.27590000000001,49.096000000000004,66.0139,48.838,66.562,48.322C67.1099,47.806,67.384,46.96412,67.384,45.796L67.384,43.9C67.384,42.73206,67.1159,41.89,66.58,41.374C66.04390000000001,40.858,65.3159,40.6,64.396,40.6C62.3879,40.6,61.384,41.70006,61.384,43.9L61.384,45.796ZM65.464,47.230000000000004C65.2319,47.53806,64.876,47.692,64.396,47.692C63.891999999999996,47.692,63.5279,47.542,63.304,47.242000000000004C63.0799,46.942,62.968,46.45206,62.968,45.772L62.968,43.984C62.968,43.264,63.0799,42.75006,63.304,42.442C63.5279,42.13412,63.891999999999996,41.98,64.396,41.98C64.876,41.98,65.2319,42.13806,65.464,42.454C65.6959,42.77012,65.812,43.28013,65.812,43.984L65.812,45.772C65.812,46.43612,65.6959,46.92212,65.464,47.230000000000004ZM69.112,48.406C69.6079,48.85,70.3,49.072,71.188,49.072C72.0919,49.072,72.8099,48.85206,73.342,48.412C73.87389999999999,47.97213,74.14,47.33613,74.14,46.504C74.14,45.208,73.4279,44.43213,72.004,44.176L71.128,44.019999999999996C70.7359,43.948,70.4479,43.828,70.264,43.66C70.0799,43.492,69.988,43.264,69.988,42.976C69.988,42.64806,70.0919,42.39006,70.3,42.202C70.5079,42.01412,70.816,41.92,71.224,41.92C71.62389999999999,41.92,71.9279,42.01206,72.136,42.196C72.3439,42.38013,72.46000000000001,42.67206,72.48400000000001,43.072L73.996,43.072C73.9319,42.28806,73.6619,41.68,73.186,41.248C72.7099,40.816,72.064,40.6,71.248,40.6C70.408,40.6,69.7339,40.82406,69.226,41.272C68.7179,41.72012,68.464,42.328,68.464,43.096000000000004C68.464,44.38412,69.2119,45.15212,70.708,45.4L71.488,45.532C71.872,45.59612,72.1519,45.71406,72.328,45.886C72.5039,46.05813,72.592,46.30806,72.592,46.636C72.592,47.36406,72.148,47.728,71.26,47.728C70.7959,47.728,70.4459,47.63406,70.21000000000001,47.446C69.9739,47.25813,69.8279,46.936,69.77199999999999,46.480000000000004L68.28399999999999,46.480000000000004C68.3399,47.32,68.6159,47.962,69.112,48.406ZM75.688,48.406C76.1839,48.85,76.876,49.072,77.764,49.072C78.6679,49.072,79.38589999999999,48.85206,79.918,48.412C80.4499,47.97213,80.71600000000001,47.33613,80.71600000000001,46.504C80.71600000000001,45.208,80.0039,44.43213,78.58,44.176L77.70400000000001,44.019999999999996C77.31190000000001,43.948,77.0239,43.828,76.84,43.66C76.6559,43.492,76.564,43.264,76.564,42.976C76.564,42.64806,76.6679,42.39006,76.876,42.202C77.0839,42.01412,77.392,41.92,77.8,41.92C78.1999,41.92,78.5039,42.01206,78.712,42.196C78.9199,42.38013,79.036,42.67206,79.06,43.072L80.572,43.072C80.5079,42.28806,80.2379,41.68,79.762,41.248C79.2859,40.816,78.64,40.6,77.824,40.6C76.98400000000001,40.6,76.3099,40.82406,75.80199999999999,41.272C75.29390000000001,41.72012,75.03999999999999,42.328,75.03999999999999,43.096000000000004C75.03999999999999,44.38412,75.78790000000001,45.15212,77.28399999999999,45.4L78.064,45.532C78.44800000000001,45.59612,78.7279,45.71406,78.904,45.886C79.0799,46.05813,79.168,46.30806,79.168,46.636C79.168,47.36406,78.724,47.728,77.836,47.728C77.3719,47.728,77.0219,47.63406,76.786,47.446C76.54990000000001,47.25813,76.4039,46.936,76.348,46.480000000000004L74.86,46.480000000000004C74.9159,47.32,75.1919,47.962,75.688,48.406ZM84.47200000000001,40.72L84.47200000000001,49L87.34,49C88.2679,49,89.0039,48.742000000000004,89.548,48.226C90.09190000000001,47.71,90.364,46.86812,90.364,45.7L90.364,44.008C90.364,42.84006,90.09790000000001,42.00006,89.566,41.488C89.0339,40.97612,88.30789999999999,40.72,87.388,40.72L84.47200000000001,40.72ZM87.376,47.632L86.044,47.632L86.044,42.088L87.376,42.088C87.856,42.088,88.2119,42.24606,88.444,42.562C88.6759,42.87812,88.792,43.38812,88.792,44.092L88.792,45.688C88.792,46.36,88.6739,46.852000000000004,88.438,47.164C88.2019,47.476,87.84790000000001,47.632,87.376,47.632ZM93.124,42.088L96.80799999999999,42.088L96.80799999999999,40.72L91.55199999999999,40.72L91.55199999999999,49L96.80799999999999,49L96.80799999999999,47.632L93.124,47.632L93.124,45.508L96.268,45.508L96.268,44.14L93.124,44.14L93.124,42.088ZM98.356,48.406C98.8519,48.85,99.544,49.072,100.432,49.072C101.33590000000001,49.072,102.0539,48.85206,102.586,48.412C103.11789999999999,47.97213,103.384,47.33613,103.384,46.504C103.384,45.208,102.6719,44.43213,101.24799999999999,44.176L100.372,44.019999999999996C99.9799,43.948,99.6919,43.828,99.50800000000001,43.66C99.32390000000001,43.492,99.232,43.264,99.232,42.976C99.232,42.64806,99.33590000000001,42.39006,99.544,42.202C99.7519,42.01412,100.06,41.92,100.468,41.92C100.86789999999999,41.92,101.1719,42.01206,101.38,42.196C101.58789999999999,42.38013,101.70400000000001,42.67206,101.72800000000001,43.072L103.24000000000001,43.072C103.1759,42.28806,102.9059,41.68,102.43,41.248C101.9539,40.816,101.30799999999999,40.6,100.49199999999999,40.6C99.652,40.6,98.9779,40.82406,98.47,41.272C97.9619,41.72012,97.708,42.328,97.708,43.096000000000004C97.708,44.38412,98.4559,45.15212,99.952,45.4L100.732,45.532C101.116,45.59612,101.3959,45.71406,101.572,45.886C101.7479,46.05813,101.836,46.30806,101.836,46.636C101.836,47.36406,101.392,47.728,100.50399999999999,47.728C100.0399,47.728,99.6899,47.63406,99.45400000000001,47.446C99.2179,47.25813,99.0719,46.936,99.01599999999999,46.480000000000004L97.52799999999999,46.480000000000004C97.5839,47.32,97.85990000000001,47.962,98.356,48.406ZM104.584,40.72L104.584,49L106.156,49L106.156,40.72L104.584,40.72ZM107.536,45.796C107.536,47.99613,108.5399,49.096000000000004,110.548,49.096000000000004C112.53999999999999,49.096000000000004,113.536,48.03606,113.536,45.916L113.536,44.5L110.536,44.5L110.536,45.796L112,45.796L112,46.192C112,46.696,111.8899,47.07212,111.67,47.32C111.4499,47.56806,111.1,47.692,110.62,47.692C110.1079,47.692,109.7299,47.542,109.48599999999999,47.242000000000004C109.2419,46.942,109.12,46.45206,109.12,45.772L109.12,43.984C109.12,43.272059999999996,109.23400000000001,42.76,109.462,42.448C109.69,42.136,110.056,41.98,110.56,41.98C111.0079,41.98,111.35390000000001,42.10413,111.598,42.352C111.84190000000001,42.60006,111.964,42.91206,111.964,43.288L111.964,43.372L113.536,43.372L113.536,43.288C113.536,42.448,113.2679,41.79006,112.732,41.314C112.1959,40.83813,111.4759,40.6,110.572,40.6C108.5479,40.6,107.536,41.70006,107.536,43.9L107.536,45.796ZM120.916,40.72L119.344,40.72L119.344,45.903999999999996L116.296,40.72L114.72399999999999,40.72L114.72399999999999,49L116.296,49L116.296,43.828L119.344,49L120.916,49L120.916,40.72Z" fill="#111111" fill-opacity="1"/></g></g></svg>