<svg xmlns="http://www.w3.org/2000/svg" xmlns:xlink="http://www.w3.org/1999/xlink" fill="none" version="1.1" width="25.000194549560547" height="27.49557113647461" viewBox="0 0 25.000194549560547 27.49557113647461"><g style="mix-blend-mode:passthrough"><path d="M6.31291,2.56281C7.95386,0.921872,10.1795,0,12.5001,0C14.8207,0,17.0464,0.921872,18.6873,2.56281C20.3283,4.20376,21.2501,6.42936,21.2501,8.75C21.2501,12.9409,22.1464,15.5433,22.9725,17.0576C23.3873,17.818,23.7911,18.3169,24.0716,18.613C24.2122,18.7614,24.3226,18.8598,24.3892,18.9153C24.4225,18.943,24.4447,18.96,24.4544,18.9671C24.4559,18.9683,24.4571,18.9691,24.458,18.9697C24.9061,19.2776,25.1044,19.8406,24.9465,20.3623C24.7869,20.8894,24.3009,21.25,23.7501,21.25C23.7501,21.25,1.2501,21.25,1.2501,21.25C0.699264,21.25,0.213355,20.8894,0.0537322,20.3623C-0.104196,19.8406,0.094103,19.2776,0.542209,18.9697C0.543086,18.9691,0.54428,18.9683,0.545781,18.9671C0.555406,18.96,0.577722,18.943,0.611,18.9153C0.67752,18.8598,0.788,18.7614,0.928594,18.613C1.20913,18.3169,1.61299,17.818,2.02772,17.0576C2.85376,15.5433,3.7501,12.9409,3.7501,8.75C3.7501,6.42935,4.67198,4.20376,6.31291,2.56281C6.31291,2.56281,6.31291,2.56281,6.31291,2.56281ZM0.554844,18.9613C0.554942,18.9611,0.555041,18.961,0.55514,18.961C0.555134,18.961,0.555129,18.961,0.555124,18.961C0.555124,18.961,0.554844,18.9613,0.554844,18.9613C0.554844,18.9613,0.554844,18.9613,0.554844,18.9613ZM3.93675,18.75C3.93675,18.75,21.0635,18.75,21.0635,18.75C20.9684,18.5941,20.8729,18.4292,20.7778,18.2549C19.7288,16.3318,18.7501,13.3091,18.7501,8.75C18.7501,7.0924,18.0916,5.50269,16.9195,4.33059C15.7474,3.15847,14.1577,2.5,12.5001,2.5C10.8425,2.5,9.25279,3.15847,8.08068,4.33059C6.90858,5.50269,6.2501,7.0924,6.2501,8.75C6.2501,13.3091,5.27144,16.3318,4.22246,18.2549C4.12735,18.4292,4.03186,18.5941,3.93675,18.75C3.93675,18.75,3.93675,18.75,3.93675,18.75ZM9.71039,23.9188C10.3075,23.5724,11.0724,23.7756,11.4188,24.3727C11.5287,24.5622,11.6865,24.7195,11.8762,24.8288C12.066,24.938,12.2811,24.9956,12.5001,24.9956C12.7191,24.9956,12.9342,24.938,13.124,24.8288C13.3138,24.7195,13.4715,24.5622,13.5814,24.3727C13.9278,23.7756,14.6926,23.5724,15.2898,23.9188C15.887,24.2651,16.0903,25.03,15.7439,25.6273C15.4142,26.1955,14.941,26.6671,14.3717,26.9951C13.8025,27.323,13.157,27.4956,12.5001,27.4956C11.8431,27.4956,11.1977,27.323,10.6284,26.9951C10.0591,26.6671,9.58599,26.1955,9.25635,25.6273C8.90995,25.03,9.11322,24.2651,9.71039,23.9188C9.71039,23.9188,9.71039,23.9188,9.71039,23.9188Z" fill-rule="evenodd" fill="#000000" fill-opacity="1"/></g></svg>