<svg width="105px" height="9px" viewBox="0 0 105 9" version="1.1" xmlns="http://www.w3.org/2000/svg"
    xmlns:xlink="http://www.w3.org/1999/xlink">
    <path
        d="M4.5,0 C6.81637876,0 8.72398135,1.7501788 8.97256844,4.00029704 L105,4 L105,5 L8.97245735,5.00070744 C8.7234136,7.25034205 6.81603406,9 4.5,9 C2.01471863,9 0,6.98528137 0,4.5 C0,2.01471863 2.01471863,0 4.5,0 Z M4.5,1 C2.56700338,1 1,2.56700338 1,4.5 C1,6.43299662 2.56700338,8 4.5,8 C6.43299662,8 8,6.43299662 8,4.5 C8,2.56700338 6.43299662,1 4.5,1 Z"
        fill="inherit" fill-rule="nonzero"></path>
</svg>