<svg xmlns="http://www.w3.org/2000/svg" xmlns:xlink="http://www.w3.org/1999/xlink" fill="none" version="1.1" width="12.200000047683716" height="10.000001192092896" viewBox="0 0 12.200000047683716 10.000001192092896"><g><path d="M1.200000023841858,3.850000023841858L11.000000023841858,3.850000023841858L11.000000023841858,2.850000023841858L6.497100023841858,2.850000023841858Q6.152950023841858,2.850000023841858,5.891760023841858,2.626030023841858L4.228040023841858,1.200000023841858L1.200000023841858,1.200000023841858L1.200000023841858,3.850000023841858ZM12.200000023841858,4.4500000238418576L12.200000023841858,9.070000023841859Q12.200000023841858,9.455230023841859,11.927600023841858,9.727620023841858Q11.655200023841857,10.000000023841858,11.270000023841858,10.000000023841858L0.930000023841858,10.000000023841858Q0.5447860238418579,10.000000023841858,0.2723980238418579,9.727620023841858Q2.384185793236071e-8,9.455240023841858,2.384185793236071e-8,9.070000023841859L2.384185793236071e-8,0.930000023841858Q2.384185793236071e-8,0.544781723841858,0.2723910238418579,0.2723910238418579Q0.5447818238418579,2.384185793236071e-8,0.930000023841858,2.384185793236071e-8L4.3279300238418585,2.384185793236071e-8Q4.671940023841858,2.384185793236071e-8,4.933160023841858,0.2238920238418579L6.596970023841858,1.650000023841858L11.270000023841858,1.650000023841858Q11.655200023841857,1.650000023841858,11.927600023841858,1.922400023841858Q12.200000023841858,2.1947900238418576,12.200000023841858,2.580000023841858L12.200000023841858,4.4500000238418576ZM11.000000023841858,5.050000023841858L1.200000023841858,5.050000023841858L1.200000023841858,8.800000023841857L11.000000023841858,8.800000023841857L11.000000023841858,5.050000023841858Z" fill-rule="evenodd" fill="#333333" fill-opacity="1"/></g></svg>