<svg xmlns="http://www.w3.org/2000/svg" xmlns:xlink="http://www.w3.org/1999/xlink" fill="none" version="1.1" width="24" height="24" viewBox="0 0 24 24"><defs><clipPath id="master_svg0_1_743"><rect x="0" y="0" width="24" height="24" rx="0"/></clipPath></defs><g clip-path="url(#master_svg0_1_743)"><g><path d="M2.9,11.25L2.9,6.45Q2.9,6.0150762,3.207538,5.707538Q3.5150762,5.4,3.95,5.4L8.58354,5.4Q8.97194,5.4,9.266860000000001,5.652782L11.59697,7.65L18.05,7.65Q18.4849,7.65,18.7925,7.9575499999999995Q19.1,8.265080000000001,19.1,8.7L19.1,11.25Q19.1,11.309090000000001,19.0885,11.367049999999999Q19.076900000000002,11.42501,19.054299999999998,11.479610000000001Q19.0317,11.53421,18.9989,11.58334Q18.966,11.632480000000001,18.924300000000002,11.67426Q18.8825,11.71605,18.8333,11.74888Q18.7842,11.78171,18.729599999999998,11.80433Q18.675,11.82694,18.6171,11.838470000000001Q18.5591,11.85,18.5,11.85L4.1,11.85L4.1,17.4L11,17.4Q11.059090000000001,17.4,11.117049999999999,17.4115Q11.17501,17.423099999999998,11.229610000000001,17.445700000000002Q11.28421,17.4683,11.33334,17.5011Q11.382480000000001,17.5339,11.42426,17.575699999999998Q11.46605,17.6175,11.49888,17.6667Q11.53171,17.7158,11.55433,17.770400000000002Q11.57694,17.825,11.58847,17.8829Q11.6,17.9409,11.6,18Q11.6,18.0591,11.58847,18.1171Q11.57694,18.175,11.55433,18.229599999999998Q11.53171,18.2842,11.49888,18.3333Q11.46605,18.3825,11.42426,18.424300000000002Q11.382480000000001,18.466,11.33334,18.4989Q11.28421,18.5317,11.229610000000001,18.554299999999998Q11.17501,18.576900000000002,11.117049999999999,18.5885Q11.059090000000001,18.6,11,18.6L3.95,18.6Q3.515079,18.6,3.207545,18.2925Q2.9,17.9849,2.9,17.55L2.9,11.25ZM4.1,10.65L17.9,10.65L17.9,8.85L11.5415,8.85Q11.152940000000001,8.85,10.85806,8.59714L8.52804,6.6L4.1,6.6L4.1,10.65Z" fill-rule="evenodd" fill="#000000" fill-opacity="1"/></g><g><g><ellipse cx="17" cy="17" rx="4" ry="4" fill="#46CDF7" fill-opacity="1"/></g><g><path d="M17.6,16.4L17.6,15.5Q17.6,15.4409052,17.58847,15.382946Q17.57694,15.324985999999999,17.55433,15.27039Q17.53171,15.215793,17.49888,15.166658Q17.46605,15.117522,17.42426,15.075736Q17.38248,15.03395,17.33334,15.001118Q17.28421,14.968287,17.22961,14.945672Q17.17501,14.923058,17.11705,14.911529Q17.05909,14.9,17,14.9Q16.94091,14.9,16.88295,14.911529Q16.82499,14.923058,16.77039,14.945672Q16.71579,14.968287,16.66666,15.001118Q16.61752,15.03395,16.57574,15.075736Q16.53395,15.117522,16.50112,15.166658Q16.468287,15.215793,16.445672,15.27039Q16.423058,15.324985999999999,16.411529,15.382946Q16.4,15.4409052,16.4,15.5L16.4,16.4L15.5,16.4Q15.4409052,16.4,15.382946,16.411529Q15.324985999999999,16.423058,15.27039,16.445672Q15.215793,16.468287,15.166658,16.50112Q15.117522,16.53395,15.075736,16.57574Q15.03395,16.61752,15.001118,16.66666Q14.968287,16.71579,14.945672,16.77039Q14.923058,16.82499,14.911529,16.88295Q14.9,16.94091,14.9,17Q14.9,17.05909,14.911529,17.11705Q14.923058,17.17501,14.945672,17.22961Q14.968287,17.28421,15.001118,17.33334Q15.03395,17.38248,15.075736,17.42426Q15.117522,17.46605,15.166658,17.49888Q15.215793,17.53171,15.27039,17.55433Q15.324985999999999,17.57694,15.382946,17.58847Q15.4409052,17.6,15.5,17.6L16.4,17.6L16.4,18.5Q16.4,18.55909,16.411529,18.61705Q16.423058,18.67501,16.445672,18.72961Q16.468287,18.78421,16.50112,18.83334Q16.53395,18.88248,16.57574,18.92426Q16.61752,18.96605,16.66666,18.99888Q16.71579,19.03171,16.77039,19.05433Q16.82499,19.07694,16.88295,19.08847Q16.94091,19.1,17,19.1Q17.05909,19.1,17.11705,19.08847Q17.17501,19.07694,17.22961,19.05433Q17.28421,19.03171,17.33334,18.99888Q17.38248,18.96605,17.42426,18.92426Q17.46605,18.88248,17.49888,18.83334Q17.53171,18.78421,17.55433,18.72961Q17.57694,18.67501,17.58847,18.61705Q17.6,18.55909,17.6,18.5L17.6,17.6L18.5,17.6Q18.55909,17.6,18.61705,17.58847Q18.67501,17.57694,18.72961,17.55433Q18.78421,17.53171,18.83334,17.49888Q18.88248,17.46605,18.92426,17.42426Q18.96605,17.38248,18.99888,17.33334Q19.03171,17.28421,19.05433,17.22961Q19.07694,17.17501,19.08847,17.11705Q19.1,17.05909,19.1,17Q19.1,16.94091,19.08847,16.88295Q19.07694,16.82499,19.05433,16.77039Q19.03171,16.71579,18.99888,16.66666Q18.96605,16.61752,18.92426,16.57574Q18.88248,16.53395,18.83334,16.50112Q18.78421,16.468287,18.72961,16.445672Q18.67501,16.423058,18.61705,16.411529Q18.55909,16.4,18.5,16.4L17.6,16.4Z" fill-rule="evenodd" fill="#FFFFFF" fill-opacity="1"/></g></g></g></svg>