<svg data-v-cb91088a="" data-v-3844b174="" width="12" height="12" viewBox="28 10 12 12" version="1.1" xmlns="http://www.w3.org/2000/svg" xmlns:xlink="http://www.w3.org/1999/xlink" xmlns:xhtml="http://www.w3.org/1999/xhtml" preserveAspectRatio="xMinYMin meet" overflow="visible" style="background-color: transparent;"><g transform="translate(28,10)"><svg version="1.1" xmlns="http://www.w3.org/2000/svg" xmlns:xlink="http://www.w3.org/1999/xlink" xmlns:xhtml="http://www.w3.org/1999/xhtml" preserveAspectRatio="xMinYMin meet" overflow="hidden" width="12" height="12" x="0" y="0" viewBox="0 0 12 12"><clipPath id="clippath-artboard-5082"><path d="M 0 0 l 12 0 l 0 12 l -12 0 z" clip-rule="evenodd"/></clipPath><g clip-path="url(#clippath-artboard-5082)"><g transform="translate(0.5816451780522129,3.3014550358880115)"><path d="M 3.233162362662431 5.397089928223977 L 2.6985449641119885 5.397089928223977 C 1.208179733700252 5.397089928223977 0 4.188910194523725 0 2.6985449641119885 L 0 2.6985449641119885 C 0 1.2081797337002522 1.2081797337002522 0 2.6985449641119885 0 L 3.767779761212873 0 C 5.25814499162461 0 6.466324725324862 1.2081797337002518 6.466324725324862 2.6985449641119885 L 6.466324725324862 2.6985449641119885" fill="none" stroke="currentColor" stroke-linejoin="miter" stroke-width="1"/></g><g transform="translate(4.952030096622821,3.3014550358880115)"><path d="M 3.233162362662431 0 L 3.767779761212873 0 C 5.25814499162461 0 6.466324725324862 1.208179733700252 6.466324725324862 2.6985449641119885 L 6.466324725324862 2.6985449641119885 C 6.466324725324862 4.188910194523725 5.25814499162461 5.397089928223977 3.767779761212873 5.397089928223977 L 2.6985449641119885 5.397089928223977 C 1.2081797337002518 5.397089928223977 0 4.188910194523725 0 2.6985449641119885 L 0 2.6985449641119885" fill="none" stroke="currentColor" stroke-linejoin="miter" stroke-width="1"/></g></g></svg></g></svg>