<svg data-v-cb91088a="" data-v-3844b174="" width="12" height="12" viewBox="28 10 12 12" version="1.1" xmlns="http://www.w3.org/2000/svg" xmlns:xlink="http://www.w3.org/1999/xlink" xmlns:xhtml="http://www.w3.org/1999/xhtml" preserveAspectRatio="xMinYMin meet" overflow="visible" style="background-color: transparent;"><g transform="translate(28,10)"><svg version="1.1" xmlns="http://www.w3.org/2000/svg" xmlns:xlink="http://www.w3.org/1999/xlink" xmlns:xhtml="http://www.w3.org/1999/xhtml" preserveAspectRatio="xMinYMin meet" overflow="hidden" width="12" height="12" x="0" y="0" viewBox="0 0 12 12"><clipPath id="clippath-artboard-5122"><path d="M 0 0 l 12 0 l 0 12 l -12 0 z" clip-rule="evenodd"/></clipPath><g clip-path="url(#clippath-artboard-5122)"><g transform="translate(2,1.5)"><path d="M 7 6.75 L 7 8 C 7 8.552284749830793 6.552284749830793 9 6 9 L 1.0000000000000002 9 C 0.4477152501692069 9 0 8.552284749830793 0 8 L 0 1.0000000000000002 C 0 0.4477152501692069 0.4477152501692069 0 1.0000000000000002 0 L 6 0 C 6.552284749830793 0 7 0.44771525016920655 7 0.9999999999999998 L 7 2.25" fill="none" stroke="currentColor" stroke-linejoin="miter" stroke-width="1"/></g><g transform="translate(7,4)"><path d="M 0.9999999999999998 0 L 3 0 C 3.5522847498307932 0 4 0.44771525016920655 4 0.9999999999999998 L 4 3 C 4 3.5522847498307932 3.5522847498307932 4 3 4 L 0.9999999999999998 4 C 0.44771525016920655 4 0 3.5522847498307932 0 3 L 0 0.9999999999999998 C 0 0.44771525016920655 0.44771525016920655 0 0.9999999999999998 0 Z" fill="none" stroke="currentColor" stroke-linejoin="miter" stroke-width="1"/></g></g></svg></g></svg>