<svg xmlns="http://www.w3.org/2000/svg" preserveAspectRatio="xMinYMin meet" width="12" height="12" viewBox="0 0 32 32"><path d="M 14.999999999999995 3.114577464723832 C 14.999999999999995 3.114577464723832 12.5837691578961 3.114577464723832 10.377480306785882 4.048755985547985 C 10.377480306785882 4.048755985547985 8.244968010693382 4.95159407256245 6.598232477257091 6.598329475127965 C 6.598232477257091 6.598329475127965 4.951496943820806 8.245064877693478 4.048658785055216 10.377479673769368 C 4.048658785055216 10.377479673769368 3.114577520536745 12.583768349539513 3.114577520536745 14.999998999618645 C 3.114577520536745 14.999998999618645 3.114577520536745 17.416132319158006 4.048658785055216 19.622518325467933 C 4.048658785055216 19.622518325467933 4.951496943820806 21.755030452083595 6.598232477257091 23.40176585464911 C 6.598232477257091 23.40176585464911 8.244968010693382 25.048403926674847 10.377480306785882 25.951242013689317 C 10.377480306785882 25.951242013689317 12.5837691578961 26.885420534513464 14.999999999999995 26.885420534513464 C 14.999999999999995 26.885420534513464 17.416133511556374 26.885420534513464 19.622519693214112 25.951339344229098 C 19.622519693214112 25.951339344229098 21.755031989306612 25.048501257214625 23.401767522742897 23.40176585464911 C 23.401767522742897 23.40176585464911 25.048405725631667 21.755030452083595 25.95124388439726 19.622518325467933 C 25.95124388439726 19.622518325467933 26.885422479463248 17.416132319158006 26.885422479463248 14.999998999618645 L 29.99999999999999 14.999998999618645 C 29.99999999999999 14.999998999618645 29.99999999999999 18.04829417503974 28.81938045862153 20.836814139783638 C 28.81938045862153 20.836814139783638 27.679931738842665 23.528198225825456 25.604065821404927 25.604063978288217 C 25.604065821404927 25.604063978288217 23.528199903967188 27.67992973075097 20.836815604033376 28.819378359974593 C 20.836815604033376 28.819378359974593 18.048295417677817 29.999997807525848 14.999999999999995 29.999997807525848 C 14.999999999999995 29.999997807525848 11.951704582322176 29.999997807525848 9.163184395966617 28.819378359974593 C 9.163184395966617 28.819378359974593 6.471800096032805 27.67992973075097 4.395934178595067 25.604063978288217 C 4.395934178595067 25.604063978288217 2.3200682611573233 23.528198225825456 1.1805222108309423 20.836814139783638 C 1.1805222108309423 20.836814139783638 0 18.04829417503974 0 14.999998999618645 C 0 14.999998999618645 0 11.951606493657783 1.1805222108309423 9.163183859453666 C 1.1805222108309423 9.163183859453666 2.3200682611573233 6.471897103951621 4.395934178595067 4.395934020949085 C 4.395934178595067 4.395934020949085 6.471800096032805 2.3200682684863283 9.163184395966617 1.1806196392627053 C 9.163184395966617 1.1806196392627053 11.951607251774655 1.9171144934581086e-7 14.999999999999995 1.9171144934581086e-7 L 14.999999999999995 3.114577464723832 Z M 14.999999999999995 9.835932550424333 C 14.999999999999995 9.835932550424333 12.863497151459308 9.835932550424333 11.349715145930931 11.349714435648131 C 11.349715145930931 11.349714435648131 9.83593314040256 12.86349632087193 9.83593314040256 14.999998999618645 C 9.83593314040256 14.999998999618645 9.83593314040256 17.136501678365363 11.349715145930931 18.65028356358916 C 11.349715145930931 18.65028356358916 12.863497151459308 20.16406544881296 14.999999999999995 20.16406544881296 C 14.999999999999995 20.16406544881296 17.136502848540687 20.16406544881296 18.65028485406906 18.65028356358916 C 18.65028485406906 18.65028356358916 20.164066859597437 17.136501678365363 20.164066859597437 14.999998999618645 L 23.27864438013418 14.999998999618645 C 23.27864438013418 14.999998999618645 23.27864438013418 16.68226004920446 22.626724372866835 18.22193185801018 C 22.626724372866835 18.22193185801018 21.99787170536096 19.70739055615752 20.852583152731096 20.85258168722827 C 20.852583152731096 20.85258168722827 19.707391930648733 21.997870148838782 18.22193311444774 22.62672276636794 C 18.22193311444774 22.62672276636794 16.68216385273239 23.278642721825342 14.999999999999995 23.278642721825342 C 14.999999999999995 23.278642721825342 13.317836147267608 23.278642721825342 11.777969555004733 22.62672276636794 C 11.777969555004733 22.62672276636794 10.292608069351262 21.997870148838782 9.147319516721389 20.85258168722827 C 9.147319516721389 20.85258168722827 8.002128294639032 19.70739055615752 7.37327562713316 18.22193185801018 C 7.37327562713316 18.22193185801018 6.721355619865814 16.68226004920446 6.721355619865814 14.999998999618645 C 6.721355619865814 14.999998999618645 6.721355619865814 13.317835280572613 7.37327562713316 11.778066141227121 C 7.37327562713316 11.778066141227121 8.002128294639032 10.292607443079774 9.147319516721389 9.147416312009037 C 9.147319516721389 9.147416312009037 10.292608069351262 8.002127850398516 11.777969555004733 7.373275232869358 C 11.777969555004733 7.373275232869358 13.317738816720087 6.721355277411954 14.999999999999995 6.721355277411954 L 14.999999999999995 9.835932550424333 Z" fill="#808080"/></svg>