<svg xmlns="http://www.w3.org/2000/svg" version="1.1" width="12" height="12" viewBox="0 0 12 12"><path d="M5.45962,9.459620000000001L10.459620000000001,4.459619Q10.55104,4.368195,10.60052,4.248744Q10.65,4.129293,10.65,4Q10.65,3.870707,10.60052,3.751256Q10.55104,3.631805,10.459620000000001,3.540381Q10.3682,3.448957,10.24874,3.399478Q10.129290000000001,3.35,10,3.35Q9.870709999999999,3.35,9.75126,3.399478Q9.6318,3.448957,9.540379999999999,3.540381L5,8.08076L2.959856,6.0406200000000005L2.959619,6.04038Q2.868195,5.94896,2.748744,5.8994800000000005Q2.629293,5.85,2.5,5.85Q2.370707,5.85,2.251256,5.8994800000000005Q2.131805,5.94896,2.040381,6.04038Q1.948957,6.1318,1.899478,6.25126Q1.85,6.37071,1.85,6.5Q1.85,6.62929,1.899478,6.74874Q1.948957,6.8682,2.040381,6.95962L2.040689,6.95993L4.54038,9.459620000000001Q4.585649999999999,9.50489,4.63888,9.54045Q4.69211,9.57602,4.75126,9.60052Q4.8104,9.62502,4.87319,9.637509999999999Q4.93598,9.65,5,9.65Q5.06402,9.65,5.12681,9.637509999999999Q5.1896,9.62502,5.24874,9.60052Q5.30789,9.57602,5.36112,9.54045Q5.414350000000001,9.50489,5.45962,9.459620000000001Z" fill-rule="evenodd" fill="inherit"/></svg>