<svg xmlns="http://www.w3.org/2000/svg" xmlns:xlink="http://www.w3.org/1999/xlink" fill="none" version="1.1" width="32" height="32" viewBox="0 0 32 32"><defs><clipPath id="master_svg0_11_0205"><rect x="0" y="0" width="32" height="32" rx="4"/></clipPath><clipPath id="master_svg1_39_770"><rect x="6" y="6" width="20" height="20" rx="0"/></clipPath></defs><g clip-path="url(#master_svg0_11_0205)"><g clip-path="url(#master_svg1_39_770)"><g transform="matrix(-0.7071067690849304,0.7071067690849304,-0.7071067690849304,-0.7071067690849304,44.394567864073906,0.8865585111198016)"><path d="M22.013671875,8.9376953125L40.013671875,8.9376953125Q40.082571875,8.9376953125,40.150271875,8.9511453125Q40.217871875,8.9645963125,40.281571875,8.9909793125Q40.345271875,9.0173633125,40.402571875,9.0556663125Q40.459871875000005,9.0939703125,40.508671875000005,9.1427203125Q40.557371875,9.1914713125,40.595671875,9.2487963125Q40.633971875,9.3061213125,40.660371874999996,9.3698173125Q40.686771875000005,9.4335133125,40.700171874999995,9.5011323125Q40.713671875,9.5687513125,40.713671875,9.6376953125Q40.713671875,9.7066393125,40.700171874999995,9.7742583125Q40.686771875000005,9.8418773125,40.660371874999996,9.9055733125Q40.633971875,9.9692693125,40.595671875,10.0265943125Q40.557371875,10.0839193125,40.508671875000005,10.1326703125Q40.459871875000005,10.1814203125,40.402571875,10.2197243125Q40.345271875,10.2580273125,40.281571875,10.2844113125Q40.217871875,10.3107943125,40.150271875,10.3242453125Q40.082571875,10.3376953125,40.013671875,10.3376953125L22.013671875,10.3376953125Q21.944727875,10.3376953125,21.877108875,10.3242453125Q21.809489875,10.3107943125,21.745793875,10.2844113125Q21.682097875,10.2580273125,21.624772875,10.2197243125Q21.567447875,10.1814203125,21.518696875,10.1326703125Q21.469946875,10.0839193125,21.431642875,10.0265943125Q21.393339875,9.9692693125,21.366955875,9.9055733125Q21.340572875,9.8418773125,21.327121875,9.7742583125Q21.313671875,9.7066393125,21.313671875,9.6376953125Q21.313671875,9.5687513125,21.327121875,9.5011323125Q21.340572875,9.4335133125,21.366955875,9.3698173125Q21.393339875,9.3061213125,21.431642875,9.2487963125Q21.469946875,9.1914713125,21.518696875,9.1427203125Q21.567447875,9.0939703125,21.624772875,9.0556663125Q21.682097875,9.0173633125,21.745793875,8.9909793125Q21.809489875,8.9645963125,21.877108875,8.9511453125Q21.944727875,8.9376953125,22.013671875,8.9376953125Z" fill-rule="evenodd" fill="#FFFFFF" fill-opacity="1"/></g></g></g></svg>