<svg xmlns="http://www.w3.org/2000/svg" xmlns:xlink="http://www.w3.org/1999/xlink" fill="none" version="1.1" width="14" height="14" viewBox="0 0 14 14"><defs><clipPath id="master_svg0_2206_13402/2206_13327"><rect x="0" y="0" width="14" height="14" rx="0"/></clipPath></defs><g clip-path="url(#master_svg0_2206_13402/2206_13327)"><g><path d="M0.5283011667327882,5.046731498374939L5.108898166732788,5.046551498374939L6.524548166732788,0.690200498374939C6.609888166732788,0.427576198374939,6.891978166732788,0.28386149837493896,7.1545981667327885,0.36920419837493895C7.306798166732788,0.418664798374939,7.426128166732788,0.537995498374939,7.475598166732788,0.690200498374939L8.891238166732789,5.046551498374939L13.471818166732788,5.046731498374939C13.604418166732788,5.046731498374939,13.731618166732789,5.099411498374939,13.825418166732788,5.193191498374939C13.919118166732789,5.286961498374939,13.971818166732788,5.4141414983749385,13.971818166732788,5.546741498374939C13.971818166732788,5.706781498374939,13.895218166732787,5.857151498374939,13.765718166732787,5.951221498374939L10.060018166732789,8.643771498374939L11.475318166732787,13.000191498374939C11.560718166732789,13.26289149837494,11.416918166732788,13.54489149837494,11.154318166732788,13.63029149837494C11.002118166732789,13.67969149837494,10.835418166732788,13.653291498374939,10.705918166732788,13.55929149837494L7.000068166732788,10.866991498374938L3.294188166732788,13.55929149837494C3.0707781667327883,13.72159149837494,2.758098166732788,13.67199149837494,2.5957881667327882,13.448591498374938C2.501728166732788,13.31909149837494,2.475328166732788,13.152491498374939,2.524778166732788,13.000191498374939L3.9400881667327883,8.643771498374939L0.23441216673278809,5.951221498374939C0.12713306673278807,5.873271498374939,0.05521276673278809,5.755901498374939,0.034473206732788086,5.624921498374939C0.013733566732788086,5.493951498374939,0.04587366673278809,5.360101498374939,0.12382296673278809,5.252821498374939C0.21789616673278808,5.123351498374939,0.3682621667327881,5.046731498374939,0.5283011667327882,5.046731498374939ZM5.947688166732788,5.701071498374939C5.880748166732788,5.907061498374939,5.688778166732788,6.0465314983749385,5.472178166732788,6.046541498374939L2.0669781667327882,6.046671498374939L4.821768166732788,8.04830149837494C4.996998166732788,8.17562149837494,5.070318166732788,8.401291498374938,5.003398166732788,8.60729149837494L3.951258166732788,11.84589149837494L6.706198166732788,9.84444149837494C6.881428166732788,9.71713149837494,7.118708166732788,9.71713149837494,7.293948166732788,9.84444149837494L10.048918166732788,11.84589149837494L8.996738166732788,8.60729149837494C8.929818166732788,8.401281498374939,9.003138166732787,8.17562149837494,9.178368166732788,8.04830149837494L11.933118166732788,6.046671498374939L8.527958166732788,6.046541498374939C8.311358166732788,6.0465314983749385,8.119398166732788,5.907061498374939,8.052458166732787,5.701071498374939L7.000068166732788,2.462571498374939L5.947688166732788,5.701071498374939Z" fill-rule="evenodd" fill="#FFFFFF" fill-opacity="1"/></g></g></svg>