<svg xmlns="http://www.w3.org/2000/svg" xmlns:xlink="http://www.w3.org/1999/xlink" fill="none" version="1.1" width="18" height="18" viewBox="0 0 18 18"><defs><clipPath id="master_svg0_945_9831"><rect x="0" y="0" width="18" height="18" rx="0"/></clipPath></defs><g clip-path="url(#master_svg0_945_9831)"><g><path d="M9.533548828125,5.000048828125L14.933348828125,5.000048828125Q15.002248828125,5.000048828125,15.069948828125,4.986598828125Q15.137548828125,4.973147828125,15.201248828125,4.946764828125Q15.264948828125,4.920380828125,15.322248828125,4.882077828125Q15.379548828125,4.843773828125,15.428348828125,4.795023828125Q15.477048828125,4.746272828125,15.515348828125,4.688947828125Q15.553648828125,4.631622828125,15.580048828125,4.567926828125Q15.606448828125,4.504230828125,15.619948828125,4.436611828125Q15.633348828125,4.368992828125,15.633348828125,4.300048828125Q15.633348828125,4.231104828125,15.619948828125,4.163485828125Q15.606448828125,4.095866828125,15.580048828125,4.032170828125Q15.553648828125,3.968474828125,15.515348828125,3.911149828125Q15.477048828125,3.853824828125,15.428348828125,3.805073828125Q15.379548828125,3.7563238281249998,15.322248828125,3.718019828125Q15.264948828125,3.679716828125,15.201248828125,3.653332828125Q15.137548828125,3.626949828125,15.069948828125,3.613498828125Q15.002248828125,3.600048828125,14.933348828125,3.600048828125L9.533548828125,3.600048828125Q8.243618828125001,3.600048828125,7.538608828125,4.305061848125Q6.833598828125,5.010074828125,6.833598828125,6.299998828125L6.833598828125,13.300048828125Q6.833598828125,13.631318828125,6.599158828125,13.865698828125Q6.364698828125,14.100118828125,6.033298828125,14.100118828125L1.800048828125,14.100118828125Q1.7311048281249999,14.100118828125,1.663485828125,14.113568828125Q1.595866828125,14.127018828125,1.532170828125,14.153408828125Q1.468474828125,14.179788828125,1.4111498281250001,14.218088828125Q1.353824828125,14.256388828125,1.305073828125,14.305148828125Q1.256323828125,14.353848828125,1.218019828125,14.411248828125Q1.1797168281250001,14.468548828125,1.153332828125,14.532248828125Q1.1269498281249999,14.595948828125,1.113498828125,14.663548828125Q1.100048828125,14.731148828125,1.100048828125,14.800148828125Q1.100048828125,14.869048828125,1.113498828125,14.936648828125Q1.1269498281249999,15.004348828125,1.153332828125,15.068048828125Q1.1797168281250001,15.131648828125,1.218019828125,15.189048828125Q1.256323828125,15.246348828125,1.305073828125,15.295048828125Q1.353824828125,15.343848828125,1.4111498281250001,15.382148828125Q1.468474828125,15.420448828125,1.532170828125,15.446848828125Q1.595866828125,15.473248828125,1.663485828125,15.486648828125Q1.7311048281249999,15.500148828125,1.800048828125,15.500148828125L6.033298828125,15.500148828125Q6.944508828125,15.500148828125,7.589008828125,14.855748828125Q8.233598828125,14.211298828125,8.233588828125,13.300048828125L8.233588828125,6.299998828125Q8.233598828125,5.589978828125,8.528558828125,5.295010828125Q8.823518828125,5.000048828125,9.533548828125,5.000048828125Z" fill-rule="evenodd" fill="#FFFFFF" fill-opacity="1"/></g><g><path d="M15.89319375,3.840428828125L13.39321575,1.340431828125Q13.30179075,1.249006828125,13.18233975,1.199527828125Q13.06288775,1.150048828125,12.9335936612325,1.150048828125Q12.91676785,1.150048828125,12.89996445,1.1509198281250002Q12.77955575,1.157156828125,12.66939475,1.206164828125Q12.55923275,1.255171828125,12.47397675,1.340426828125Q12.38255175,1.4318518281250001,12.33307275,1.551302828125Q12.28359375,1.670754828125,12.28359375,1.800048828125Q12.28359375,1.816874828125,12.28446475,1.833678128125Q12.29070175,1.954086828125,12.33970975,2.064247828125Q12.38871675,2.174409828125,12.47397175,2.259665828125L14.51433375,4.300048828125L12.47397175,6.340438828125Q12.38254875,6.431858828125,12.33307175,6.551308828125Q12.28359375,6.670758828125,12.28359375,6.800048828125Q12.28359475,6.929348828125,12.33307375,7.048798828125Q12.38255275,7.168248828125,12.47397675,7.259668828125Q12.56540075,7.351098828125,12.68485175,7.400568828125Q12.80430175,7.450048828125,12.93359375,7.450048828125Q13.06288875,7.450048828125,13.18234075,7.400568828125Q13.30179275,7.351088828125,13.39321575,7.259668828125L15.89319375,4.759658828125Q15.93845375,4.714398828125001,15.97402375,4.661168828125Q16.00959375,4.607938828125,16.03409375,4.548788828125Q16.05859375,4.489638828125,16.07107375,4.426848828124999Q16.08356375,4.364068828125,16.08356375,4.300048828125Q16.08356375,4.236028828125,16.07107375,4.173238828125Q16.05859375,4.110448828125,16.03409375,4.051298828125001Q16.00959375,3.992158828125,15.97402375,3.938928828125Q15.93845375,3.885698828125,15.89319375,3.840428828125Z" fill-rule="evenodd" fill="#FFFFFF" fill-opacity="1"/></g></g></svg>