<svg xmlns="http://www.w3.org/2000/svg" xmlns:xlink="http://www.w3.org/1999/xlink" fill="none" version="1.1" width="14" height="14" viewBox="0 0 14 14"><defs><clipPath id="master_svg0_517_01223"><rect x="0" y="0" width="14" height="14" rx="0"/></clipPath></defs><g clip-path="url(#master_svg0_517_01223)"><g><path d="M7.41484234375,3.944482421875L11.61470234375,3.944482421875Q11.67380234375,3.944482421875,11.73170234375,3.932953421875Q11.78970234375,3.921424421875,11.84430234375,3.898810421875Q11.89890234375,3.876195421875,11.94800234375,3.843364421875Q11.99720234375,3.810532421875,12.03900234375,3.768746421875Q12.08070234375,3.726960421875,12.11360234375,3.677824421875Q12.14640234375,3.628689421875,12.16900234375,3.574092421875Q12.19160234375,3.519496421875,12.20320234375,3.461536421875Q12.21470234375,3.403577221875,12.21470234375,3.344482421875Q12.21470234375,3.285387621875,12.20320234375,3.227428421875Q12.19160234375,3.169468421875,12.16900234375,3.114872421875Q12.14640234375,3.060275421875,12.11360234375,3.011140421875Q12.08070234375,2.962004421875,12.03900234375,2.920218421875Q11.99720234375,2.878432421875,11.94800234375,2.845600421875Q11.89890234375,2.812769421875,11.84430234375,2.790154421875Q11.78970234375,2.767540421875,11.73170234375,2.756011421875Q11.67380234375,2.744482421875,11.61470234375,2.744482421875L7.41484234375,2.744482421875Q6.38856234375,2.744482421875,5.82394234375,3.309097821875Q5.25932234375,3.8737134218750002,5.25932234375,4.900002421875L5.25932234375,10.344482421875Q5.25932234375,10.579122421874999,5.09326234375,10.745142421875Q4.92717234375,10.911202421875,4.69243234375,10.911202421875L1.39990234375,10.911202421875Q1.34080754375,10.911202421875,1.28284834375,10.922732421875Q1.22488834375,10.934262421875001,1.17029234375,10.956882421875001Q1.1156953437500001,10.979492421875001,1.06656034375,11.012322421875Q1.0174243437500001,11.045152421874999,0.97563834375,11.086942421875001Q0.9338523437499999,11.128732421875,0.90102034375,11.177862421875Q0.86818934375,11.227002421875,0.84557434375,11.281592421875Q0.82296034375,11.336192421875001,0.81143134375,11.394152421875Q0.79990234375,11.452112421875,0.79990234375,11.511202421875Q0.79990234375,11.570302421875,0.81143134375,11.628262421875Q0.82296034375,11.686222421875,0.84557434375,11.740812421875Q0.86818934375,11.795412421875,0.90102034375,11.844552421875Q0.9338523437499999,11.893682421875,0.97563834375,11.935472421875Q1.0174243437500001,11.977252421875,1.06656034375,12.010092421875Q1.1156953437500001,12.042922421875,1.17029234375,12.065532421875Q1.22488834375,12.088152421875,1.28284834375,12.099672421875Q1.34080754375,12.111202421875,1.39990234375,12.111202421875L4.69243234375,12.111202421875Q5.42416234375,12.111202421875,5.94171234375,11.593762421875Q6.45932234375,11.076252421875001,6.45932234375,10.344482421875L6.45932234375,4.900002421875Q6.45932234375,4.3707724218749995,6.67247234375,4.157625421875Q6.88561234375,3.944482421875,7.41484234375,3.944482421875Z" fill-rule="evenodd" fill="#595959" fill-opacity="1"/></g><g><path d="M10.483688171875,0.9758584140625L12.428016171875,2.9202044140625Q12.469806171875,2.9619944140625,12.502636171875,3.0111244140625Q12.535466171875001,3.0602644140625,12.558076171875,3.1148544140625Q12.580696171875001,3.1694544140625,12.592226171875,3.2274144140625003Q12.603746171875,3.2853744140625,12.603756171875,3.3444644140625Q12.603756171875,3.4035644140625,12.592226171875,3.4615244140625Q12.580696171875001,3.5194744140625,12.558076171875,3.5740744140625Q12.535466171875001,3.6286744140625,12.502636171875,3.6778044140625Q12.469806171875,3.7269444140625,12.428016171875,3.7687244140625L10.483593171875,5.7131744140625Q10.399201171875,5.7975644140625,10.288938171875,5.8432444140625Q10.178674171875,5.8889144140625,10.059326171875,5.8889144140625Q10.000231371875,5.8889144140625,9.942272171875,5.8773844140625Q9.884312171874999,5.8658544140625,9.829716171875,5.8432444140625Q9.775119171875,5.8206244140625,9.725984171875,5.7877944140625Q9.676848171875,5.7549644140625,9.635062171875,5.7131744140625Q9.593276171875,5.6713944140625,9.560444171875,5.6222544140625Q9.527613171875,5.5731244140625,9.504998171875,5.5185244140625Q9.482384171875,5.4639244140625,9.470855171875,5.4059644140625Q9.459326171875,5.3480144140625,9.459326171875,5.2889144140625Q9.459326171875,5.1695644140625,9.504998171875,5.0593044140625Q9.550669171875,4.9490444140625005,9.635059171875,4.8646544140625L11.155226171875,3.3444644140625L9.635156171875,1.8243834140625L9.635060171875,1.8242864140625Q9.550669171875,1.7398954140625,9.504998171875,1.6296334140625Q9.459326171875,1.5193714140625,9.459326171875,1.4000244140625Q9.459326171875,1.3409296140625,9.470855171875,1.2829704140625Q9.482384171875,1.2250104140625,9.504998171875,1.1704144140625Q9.527613171875,1.1158174140625001,9.560444171875,1.0666824140625Q9.593276171875,1.0175464140625001,9.635062171875,0.9757604140625Q9.676848171875,0.9339744140624999,9.725984171875,0.9011424140625Q9.775119171875,0.8683114140625,9.829716171875,0.8456964140625Q9.884312171874999,0.8230824140625,9.942272171875,0.8115534140625Q10.000231371875,0.8000244140625,10.059326171875,0.8000244140625Q10.178674171875,0.8000244140625,10.288937171875,0.8456974140625Q10.399201171875,0.8913704140625,10.483592171875,0.9757624140625001L10.483688171875,0.9758584140625Z" fill-rule="evenodd" fill="#595959" fill-opacity="1"/></g></g></svg>