<svg xmlns="http://www.w3.org/2000/svg" xmlns:xlink="http://www.w3.org/1999/xlink" fill="none" version="1.1" width="18" height="18" viewBox="0 0 18 18"><defs><clipPath id="master_svg0_945_9832"><rect x="0" y="0" width="18" height="18" rx="0"/></clipPath></defs><g clip-path="url(#master_svg0_945_9832)"><g><path d="M1.6,2.25L1.6,15.75Q1.6,15.814,1.61249,15.8768Q1.624979,15.9396,1.649478,15.9987Q1.673978,16.0579,1.7095449999999999,16.1111Q1.745112,16.1644,1.790381,16.209600000000002Q1.835649,16.2549,1.888879,16.2905Q1.94211,16.326,2.001256,16.3505Q2.060402,16.375,2.123191,16.3875Q2.1859806,16.4,2.25,16.4L15.75,16.4Q15.814,16.4,15.8768,16.3875Q15.9396,16.375,15.9987,16.3505Q16.0579,16.326,16.1111,16.2905Q16.1644,16.2549,16.209600000000002,16.209600000000002Q16.2549,16.1644,16.2905,16.1111Q16.326,16.0579,16.3505,15.9987Q16.375,15.9396,16.3875,15.8768Q16.4,15.814,16.4,15.75L16.4,2.25Q16.4,2.1859806,16.3875,2.123191Q16.375,2.060402,16.3505,2.001256Q16.326,1.94211,16.2905,1.888879Q16.2549,1.835649,16.209600000000002,1.790381Q16.1644,1.745112,16.1111,1.7095449999999999Q16.0579,1.673978,15.9987,1.649478Q15.9396,1.624979,15.8768,1.61249Q15.814,1.6,15.75,1.6L2.25,1.6Q2.1859806,1.6,2.123191,1.61249Q2.060402,1.624979,2.001256,1.649478Q1.94211,1.673978,1.888879,1.7095449999999999Q1.835649,1.745112,1.790381,1.790381Q1.745112,1.835649,1.7095449999999999,1.888879Q1.673978,1.94211,1.649478,2.001256Q1.624979,2.060402,1.61249,2.123191Q1.6,2.1859806,1.6,2.25ZM2.9,15.1L2.9,2.9L15.1,2.9L15.1,15.1L2.9,15.1Z" fill-rule="evenodd" fill="#FFFFFF" fill-opacity="1"/></g><g><path d="M15.75,11.9L2.25,11.9L2.25,10.6L15.75,10.6L15.75,11.9Z" fill-rule="evenodd" fill="#FFFFFF" fill-opacity="1"/></g><g><path d="M15.75,16.4L2.25,16.4L2.25,15.1L15.75,15.1L15.75,16.4Z" fill-rule="evenodd" fill="#FFFFFF" fill-opacity="1"/></g><g><path d="M15.75,7.4L2.25,7.4L2.25,6.1L15.75,6.1L15.75,7.4Z" fill-rule="evenodd" fill="#FFFFFF" fill-opacity="1"/></g><g><path d="M15.75,2.9L2.25,2.9L2.25,1.6L15.75,1.6L15.75,2.9Z" fill-rule="evenodd" fill="#FFFFFF" fill-opacity="1"/></g><g><path d="M10.6,15.75L10.6,2.25L11.9,2.25L11.9,15.75L10.6,15.75Z" fill-rule="evenodd" fill="#FFFFFF" fill-opacity="1"/></g><g><path d="M6.1,15.75L6.1,2.25L7.4,2.25L7.4,15.75L6.1,15.75Z" fill-rule="evenodd" fill="#FFFFFF" fill-opacity="1"/></g></g></svg>
