<svg xmlns="http://www.w3.org/2000/svg" xmlns:xlink="http://www.w3.org/1999/xlink" fill="none" version="1.1" width="32" height="32" viewBox="0 0 32 32"><defs><clipPath id="master_svg0_39_710"><rect x="0" y="0" width="32" height="32" rx="4"/></clipPath><clipPath id="master_svg1_39_739"><rect x="6" y="6" width="20" height="20" rx="0"/></clipPath></defs><g clip-path="url(#master_svg0_39_710)"><g clip-path="url(#master_svg1_39_739)"><g><path d="M16.59277,11.47783203125L22.592599999999997,11.47783203125Q22.6615,11.47783203125,22.729100000000003,11.46438203125Q22.7967,11.45093103125,22.8604,11.42454803125Q22.9241,11.39816403125,22.9815,11.35986103125Q23.038800000000002,11.32155703125,23.0875,11.27280703125Q23.1363,11.22405603125,23.174599999999998,11.16673103125Q23.212899999999998,11.10940603125,23.2393,11.04571003125Q23.265700000000002,10.98201403125,23.2791,10.91439503125Q23.2926,10.84677603125,23.2926,10.77783203125Q23.2926,10.70888803125,23.2791,10.64126903125Q23.265700000000002,10.57365003125,23.2393,10.50995403125Q23.212899999999998,10.44625803125,23.174599999999998,10.38893303125Q23.1363,10.33160803125,23.0875,10.28285703125Q23.038800000000002,10.23410703125,22.9815,10.19580303125Q22.9241,10.15750003125,22.8604,10.13111603125Q22.7967,10.10473303125,22.729100000000003,10.09128203125Q22.6615,10.07783203125,22.592599999999997,10.07783203125L16.59277,10.07783203125Q15.19174,10.07783203125,14.43117,10.83839933125Q13.67061,11.59896703125,13.67061,13.00000203125L13.67061,20.77783203125Q13.67061,21.17813203125,13.38734,21.461332031250002Q13.104040000000001,21.74453203125,12.703610000000001,21.74453203125L8,21.74453203125Q7.931056,21.74453203125,7.863437,21.75803203125Q7.795818,21.77143203125,7.732122,21.79783203125Q7.668426,21.82423203125,7.611101,21.862532031249998Q7.553776,21.900832031249998,7.505025,21.949632031249998Q7.456275,21.99833203125,7.417971,22.05563203125Q7.379668,22.11303203125,7.353284,22.176732031249998Q7.326901,22.240432031250002,7.31345,22.30803203125Q7.3,22.37563203125,7.3,22.44453203125Q7.3,22.51353203125,7.31345,22.58113203125Q7.326901,22.64873203125,7.353284,22.71243203125Q7.379668,22.77613203125,7.417971,22.83343203125Q7.456275,22.89083203125,7.505025,22.93953203125Q7.553776,22.98833203125,7.611101,23.02663203125Q7.668426,23.064932031250002,7.732122,23.091332031249998Q7.795818,23.11763203125,7.863437,23.13113203125Q7.931056,23.14453203125,8,23.14453203125L12.703610000000001,23.14453203125Q13.68386,23.14453203125,14.377189999999999,22.45143203125Q15.07061,21.75813203125,15.07061,20.77783203125L15.07061,13.00000203125Q15.07061,12.17886203125,15.42112,11.82835203125Q15.77164,11.47783203125,16.59277,11.47783203125Z" fill-rule="evenodd" fill="#FFFFFF" fill-opacity="1"/></g><g><path d="M20.83026546875,7.540421L20.83022646875,7.540383Q20.73880346875,7.448958,20.61935246875,7.399479Q20.49990146875,7.350001,20.37060840166,7.35L20.37060546875,7.35Q20.35498606875,7.35,20.33938476875,7.35075Q20.21833046875,7.356571,20.10750846875,7.405627Q19.99668546875,7.454682,19.91098846875,7.540379Q19.72060546875,8.0156194,19.72135546875,8.0312207Q19.72717646875,8.152275,19.77623246875,8.263097Q19.82528746875,8.37392,19.91098446875,8.459617L19.91102246875,8.459655L22.22912546875,10.77778L19.91109646875,13.09583L19.91098346875,13.095939999999999Q19.81956046875,13.18737,19.77008346875,13.30682Q19.72060546875,13.426269999999999,19.72060546875,13.55556Q19.72060646875,13.68485,19.77008546875,13.804310000000001Q19.81956446875,13.92376,19.91098846875,14.01518Q20.00241246875,14.1066,20.12186346875,14.15608Q20.24131346875,14.20556,20.37060546875,14.20556Q20.49990046875,14.20556,20.61935246875,14.15608Q20.73880446875,14.1066,20.83022746875,14.015170000000001L20.83034046875,14.01506L23.60797546875,11.23739Q23.65324546875,11.19212,23.68881546875,11.13889Q23.72437546875,11.08566,23.74887546875,11.02652Q23.77337546875,10.967369999999999,23.78586546875,10.90458Q23.79835546875,10.84179,23.79835546875,10.77777Q23.79835546875,10.71376,23.78586546875,10.650970000000001Q23.77337546875,10.58818,23.74887546875,10.52903Q23.72437546875,10.46989,23.68881546875,10.41666Q23.65324546875,10.363430000000001,23.60797546875,10.31816L20.83026546875,7.540421ZM19.72060546875,7.99999706709Q19.72060646875,7.870704,19.77008446875,7.751253Q19.81956346875,7.631802,19.91098846875,7.540379Q19.81956346875,7.631802,19.77008546875,7.751253Q19.72060646875,7.870704,19.72060546875,7.99999706709Z" fill-rule="evenodd" fill="#FFFFFF" fill-opacity="1"/></g></g></g></svg>