<svg xmlns="http://www.w3.org/2000/svg" xmlns:xlink="http://www.w3.org/1999/xlink" fill="none" version="1.1" width="18" height="18" viewBox="0 0 18 18"><defs><clipPath id="master_svg0_983_8306"><rect x="0" y="0" width="18" height="18" rx="0"/></clipPath></defs><g clip-path="url(#master_svg0_983_8306)"><g><path d="M14.35,2.9L14.35,4.09999Q14.35,4.16401,14.3625,4.2268Q14.375,4.28958,14.3995,4.34873Q14.424,4.4078800000000005,14.4595,4.46111Q14.4951,4.51434,14.5404,4.55961Q14.5856,4.60487,14.6389,4.64044Q14.6921,4.67601,14.7513,4.7005099999999995Q14.8104,4.72501,14.8732,4.7375Q14.936,4.74999,15,4.74999Q15.064,4.74999,15.1268,4.7375Q15.1896,4.72501,15.2487,4.7005099999999995Q15.3079,4.67601,15.3611,4.64044Q15.4143,4.60487,15.4596,4.55961Q15.5049,4.51434,15.5405,4.46111Q15.576,4.4078800000000005,15.6005,4.34873Q15.625,4.28958,15.6375,4.2268Q15.65,4.16401,15.65,4.09999L15.65,2.25Q15.65,2.1859806,15.6375,2.123191Q15.625,2.060402,15.6005,2.001256Q15.576,1.94211,15.5405,1.888879Q15.5049,1.835649,15.4596,1.790381Q15.4143,1.745112,15.3611,1.7095449999999999Q15.3079,1.673978,15.2487,1.649478Q15.1896,1.624979,15.1268,1.61249Q15.064,1.6,15,1.6L3,1.6Q2.9359806,1.6,2.873191,1.61249Q2.810402,1.624979,2.751256,1.649478Q2.69211,1.673978,2.638879,1.7095449999999999Q2.585649,1.745112,2.540381,1.790381Q2.4951119999999998,1.835649,2.459545,1.888879Q2.423978,1.94211,2.399478,2.001256Q2.3749789999999997,2.060402,2.36249,2.123191Q2.35,2.1859806,2.35,2.25L2.35,4.09999Q2.35,4.16401,2.36249,4.2268Q2.3749789999999997,4.28958,2.399478,4.34873Q2.423978,4.4078800000000005,2.459545,4.46111Q2.4951119999999998,4.51434,2.540381,4.55961Q2.585649,4.60487,2.638879,4.64044Q2.69211,4.67601,2.751256,4.7005099999999995Q2.810402,4.72501,2.873191,4.7375Q2.9359806,4.74999,3,4.74999Q3.0640194,4.74999,3.126809,4.7375Q3.189598,4.72501,3.248744,4.7005099999999995Q3.30789,4.67601,3.361121,4.64044Q3.414351,4.60487,3.459619,4.55961Q3.5048880000000002,4.51434,3.540455,4.46111Q3.576022,4.4078800000000005,3.600522,4.34873Q3.6250210000000003,4.28958,3.63751,4.2268Q3.65,4.16401,3.65,4.09999L3.65,2.9L14.35,2.9Z" fill-rule="evenodd" fill="#FFFFFF" fill-opacity="1"/></g><g><path d="M8.35,2.25L8.35,15.75Q8.35,15.814,8.36249,15.8768Q8.374979,15.9396,8.399478,15.9987Q8.423978,16.0579,8.459545,16.1111Q8.495112,16.1644,8.540381,16.209600000000002Q8.585649,16.2549,8.638879,16.2905Q8.69211,16.326,8.751256,16.3505Q8.810402,16.375,8.873191,16.3875Q8.9359806,16.4,9,16.4Q9.0640194,16.4,9.126809,16.3875Q9.189598,16.375,9.248744,16.3505Q9.30789,16.326,9.361121,16.2905Q9.414351,16.2549,9.459619,16.209600000000002Q9.504888,16.1644,9.540455,16.1111Q9.576022,16.0579,9.600522,15.9987Q9.625021,15.9396,9.63751,15.8768Q9.65,15.814,9.65,15.75L9.65,2.25Q9.65,2.1859806,9.63751,2.123191Q9.625021,2.060402,9.600522,2.001256Q9.576022,1.94211,9.540455,1.888879Q9.504888,1.835649,9.459619,1.790381Q9.414351,1.745112,9.361121,1.7095449999999999Q9.30789,1.673978,9.248744,1.649478Q9.189598,1.624979,9.126809,1.61249Q9.0640194,1.6,9,1.6Q8.9359806,1.6,8.873191,1.61249Q8.810402,1.624979,8.751256,1.649478Q8.69211,1.673978,8.638879,1.7095449999999999Q8.585649,1.745112,8.540381,1.790381Q8.495112,1.835649,8.459545,1.888879Q8.423978,1.94211,8.399478,2.001256Q8.374979,2.060402,8.36249,2.123191Q8.35,2.1859806,8.35,2.25Z" fill-rule="evenodd" fill="#FFFFFF" fill-opacity="1"/></g><g><path d="M6,16.4L12,16.4Q12.06402,16.4,12.126809999999999,16.38751Q12.1896,16.375021,12.24874,16.350522Q12.30789,16.326022000000002,12.36112,16.290455Q12.414349999999999,16.254888,12.459620000000001,16.209619Q12.50489,16.164351,12.54045,16.111121Q12.57602,16.05789,12.60052,15.998744Q12.62502,15.939598,12.637509999999999,15.876809Q12.65,15.8140194,12.65,15.75Q12.65,15.6859806,12.637509999999999,15.623191Q12.62502,15.560402,12.60052,15.501256Q12.57602,15.44211,12.54045,15.388879Q12.50489,15.335649,12.459620000000001,15.290381Q12.414349999999999,15.245112,12.36112,15.209545Q12.30789,15.173978,12.24874,15.149478Q12.1896,15.124979,12.126809999999999,15.11249Q12.06402,15.1,12,15.1L6,15.1Q5.9359806,15.1,5.873191,15.11249Q5.810402,15.124979,5.751256,15.149478Q5.69211,15.173978,5.638879,15.209545Q5.585649,15.245112,5.540381,15.290381Q5.495112,15.335649,5.459545,15.388879Q5.423978,15.44211,5.399478,15.501256Q5.374979,15.560402,5.36249,15.623191Q5.35,15.6859806,5.35,15.75Q5.35,15.8140194,5.36249,15.876809Q5.374979,15.939598,5.399478,15.998744Q5.423978,16.05789,5.459545,16.111121Q5.495112,16.164351,5.540381,16.209619Q5.585649,16.254888,5.638879,16.290455Q5.69211,16.326022000000002,5.751256,16.350522Q5.810402,16.375021,5.873191,16.38751Q5.9359806,16.4,6,16.4Z" fill-rule="evenodd" fill="#FFFFFF" fill-opacity="1"/></g></g></svg>