<svg width="14" height="14" viewBox="0 0 14 14" fill="none" xmlns="http://www.w3.org/2000/svg">
    <path fill-rule="evenodd" clip-rule="evenodd"
          d="M11.4078 7.47784C11.4194 7.51252 11.4291 7.54675 11.4369 7.58055L12.1468 8.28055C12.4948 8.6285 12.6687 9.04851 12.6687 9.5406C12.6687 10.0327 12.4948 10.4527 12.1468 10.8007L10.793 12.1546C10.445 12.5025 10.025 12.6765 9.5329 12.6765C9.04083 12.6765 8.62164 12.5033 8.27533 12.157L7.54439 11.4363C7.50203 11.4244 7.45905 11.4095 7.41546 11.3916L3.97765 9.97605C3.72697 9.87283 3.55876 9.69263 3.47304 9.43545L1.05329 2.17619C0.939633 1.83522 1.00778 1.53561 1.25774 1.27735C1.50767 1.01913 1.80488 0.941216 2.14938 1.04361L9.60215 3.25926C9.89776 3.34713 10.0943 3.53737 10.1919 3.82995L11.4078 7.47784ZM2.45734 3.19094L4.41451 9.06246L7.72489 10.4256L10.4247 7.72573L9.25281 4.21025L3.06784 2.37151L5.87331 5.17699C6.06073 5.0894 6.26629 5.04561 6.48999 5.04561C6.89397 5.04561 7.23878 5.18843 7.52443 5.47408C7.81005 5.7597 7.95286 6.1045 7.95286 6.50847C7.95286 6.91243 7.81006 7.25723 7.52446 7.54288C7.23879 7.82855 6.89397 7.97139 6.48999 7.97139C6.08601 7.97139 5.74119 7.82856 5.45555 7.5429C5.16992 7.25725 5.0271 6.91244 5.0271 6.50847C5.0271 6.28485 5.07087 6.07936 5.15839 5.89201L2.45734 3.19094ZM6.1666 6.19302C6.08101 6.28043 6.03821 6.38558 6.03821 6.50847C6.03821 6.63324 6.08232 6.73973 6.17054 6.82796C6.25875 6.91617 6.36523 6.96027 6.48999 6.96027C6.61476 6.96027 6.72124 6.91617 6.80943 6.82798C6.89765 6.73975 6.94175 6.63325 6.94175 6.50847C6.94175 6.38371 6.89766 6.27724 6.80946 6.18905C6.72125 6.10083 6.61476 6.05672 6.48999 6.05672C6.36707 6.05672 6.26187 6.09956 6.1744 6.18522L6.1705 6.18916L6.1666 6.19302ZM8.98526 11.4371L8.56133 11.0191L11.0053 8.57496L11.4318 8.9955C11.5824 9.14602 11.6576 9.32772 11.6576 9.5406C11.6576 9.75348 11.5824 9.93518 11.4318 10.0857L10.078 11.4396C9.9275 11.5901 9.74578 11.6654 9.5329 11.6654C9.32002 11.6654 9.13748 11.5893 8.98526 11.4371Z"
          fill="white"/>
</svg>
