<svg xmlns="http://www.w3.org/2000/svg" xmlns:xlink="http://www.w3.org/1999/xlink" fill="none" version="1.1" width="18"
     height="18" viewBox="0 0 18 18">
    <defs>
        <clipPath id="master_svg0_905_00543">
            <rect x="0" y="0" width="18" height="18" rx="0"/>
        </clipPath>
    </defs>
    <g clip-path="url(#master_svg0_905_00543)">
        <g>
            <path d="M1.6,15.75L1.6,2.25Q1.6,2.1859806,1.61249,2.123191Q1.624979,2.060402,1.649478,2.001256Q1.673978,1.94211,1.7095449999999999,1.888879Q1.745112,1.835649,1.790381,1.790381Q1.835649,1.745112,1.888879,1.7095449999999999Q1.94211,1.673978,2.001256,1.649478Q2.060402,1.624979,2.123191,1.61249Q2.1859806,1.6,2.25,1.6L15.75,1.6Q15.814,1.6,15.8768,1.61249Q15.9396,1.624979,15.9987,1.649478Q16.0579,1.673978,16.1111,1.7095449999999999Q16.1644,1.745112,16.209600000000002,1.790381Q16.2549,1.835649,16.2905,1.888879Q16.326,1.94211,16.3505,2.001256Q16.375,2.060402,16.3875,2.123191Q16.4,2.1859806,16.4,2.25L16.4,15.75Q16.4,15.814,16.3875,15.8768Q16.375,15.9396,16.3505,15.9987Q16.326,16.0579,16.2905,16.1111Q16.2549,16.1644,16.209600000000002,16.209600000000002Q16.1644,16.2549,16.1111,16.2905Q16.0579,16.326,15.9987,16.3505Q15.9396,16.375,15.8768,16.3875Q15.814,16.4,15.75,16.4L2.25,16.4Q2.1859806,16.4,2.123191,16.3875Q2.060402,16.375,2.001256,16.3505Q1.94211,16.326,1.888879,16.2905Q1.835649,16.2549,1.790381,16.209600000000002Q1.745112,16.1644,1.7095449999999999,16.1111Q1.673978,16.0579,1.649478,15.9987Q1.624979,15.9396,1.61249,15.8768Q1.6,15.814,1.6,15.75ZM2.9,2.9L2.9,15.1L15.1,15.1L15.1,2.9L2.9,2.9Z"
                  fill="#FFFFFF" fill-opacity="1"/>
        </g>
        <g>
            <path d="M6.83177,7.301277265625L11.57698,11.368607265625Q11.66534,11.444337265625,11.77448,11.484707265625001Q11.88363,11.525087265625,12,11.525087265625Q12.02496,11.525087265625,12.04985,11.523167265625Q12.17876,11.513257265625,12.2941,11.454757265625Q12.4094,11.396267265625,12.4935,11.298097265625Q12.5692,11.209747265625001,12.6096,11.100607265625001Q12.65,10.991467265625001,12.65,10.875097265625L12.65,10.872137265625Q12.6499,10.848647265625,12.6481,10.825237265624999Q12.6382,10.696317265625,12.5797,10.581017265625Q12.5212,10.465717265624999,12.423,10.381567265625L7.6778,6.314244265625Q7.2745,5.968539265625,6.74337,5.977392265625Q6.21223,5.986244265625,5.82067,6.345202265625L1.8107790000000001,10.020937265625001Q1.71547,10.108297265625,1.66085,10.225487265625Q1.60623,10.342677265625,1.600614,10.471847265625Q1.6,10.485957265625,1.6,10.500087265625L1.600007,10.503077265625Q1.600565,10.624267265625,1.64476,10.737117265624999Q1.6889560000000001,10.849967265625,1.77085,10.939307265625Q1.863187,11.040037265625,1.988269,11.095057265625Q2.113351,11.150087265625,2.25,11.150087265625L2.25540392,11.150067265625001Q2.37597,11.149057265625,2.488156,11.104887265624999Q2.600342,11.060707265625,2.689221,10.979237265624999L6.69915,7.303470265625Q6.76447,7.243587265625,6.83177,7.301277265625Z"
                  fill-rule="evenodd" fill="#FFFFFF" fill-opacity="1"/>
        </g>
        <g>
            <path d="M12.88039,7.6603714453125L15.36,9.5200664453125Q15.53333,9.6500664453125,15.75,9.6500664453125Q15.76249,9.6500664453125,15.77498,9.6495864453125Q15.92174,9.6439464453125,16.05181,9.5757564453125Q16.18188,9.507556445312499,16.27,9.390066445312499Q16.4,9.216736445312499,16.4,9.0000664453125Q16.4,8.9875764453125,16.39952,8.9750964453125Q16.39388,8.8283364453125,16.32568,8.6982664453125Q16.25749,8.5681864453125,16.14,8.4800664453125L13.66039,6.6203694453125Q13.24235,6.3068534453125,12.72114,6.3438844453125Q12.19992,6.3809174453125,11.83044,6.7503874453125L10.040504,8.5403264453125L10.040381,8.5404464453125Q9.948957,8.6318764453125,9.899478,8.7513264453125Q9.85,8.8707764453125,9.85,9.0000664453125Q9.85,9.129366445312499,9.899478,9.2488164453125Q9.948957,9.3682664453125,10.040381,9.4596864453125Q10.131805,9.5511164453125,10.251256,9.600596445312501Q10.370707,9.6500664453125,10.5,9.6500664453125Q10.629293,9.6500664453125,10.748744,9.600596445312501Q10.868195,9.5511164453125,10.959619,9.4596864453125L12.74968,7.6696284453125Q12.81099,7.6083224453125,12.88039,7.6603714453125Z"
                  fill-rule="evenodd" fill="#FFFFFF" fill-opacity="1"/>
        </g>
    </g>
</svg>