<svg xmlns="http://www.w3.org/2000/svg" xmlns:xlink="http://www.w3.org/1999/xlink" fill="none" version="1.1" width="14" height="14" viewBox="0 0 14 14"><defs><clipPath id="master_svg0_2206_13402/2206_13348"><rect x="0" y="0" width="14" height="14" rx="0"/></clipPath></defs><g clip-path="url(#master_svg0_2206_13402/2206_13348)"><g transform="matrix(-0.7071067690849304,0.7071067690849304,-0.7071067690849304,-0.7071067690849304,22.250891585781574,-4.123847590881269)"><path d="M12.523966705078125,2.54638671875L25.123922705078122,2.54638671875C25.424622705078125,2.54638671875,25.668422705078125,2.79014271875,25.668422705078125,3.09083071875C25.668422705078125,3.39151971875,25.424622705078125,3.63527671875,25.123922705078122,3.63527671875L12.523966705078125,3.63527671875C12.223278705078124,3.63527671875,11.979522705078125,3.39151971875,11.979522705078125,3.09083071875C11.979522705078125,2.79014271875,12.223278705078124,2.54638671875,12.523966705078125,2.54638671875Z" fill-rule="evenodd" fill="#FFFFFF" fill-opacity="1"/></g><g><path d="M11.899999697265624,1.594451904296875L8.399995697265625,1.594451904296875C8.120784697265625,1.594451904296875,7.894439697265625,1.820796904296875,7.894439697265625,2.100007904296875C7.894439697265625,2.379217904296875,8.120784697265625,2.605561904296875,8.399995697265625,2.605561904296875L11.394439697265625,2.605561904296875L11.394439697265625,5.600011904296875C11.394439697265625,5.879221904296875,11.620789697265625,6.105561904296875,11.899999697265624,6.105561904296875C12.179209697265625,6.105561904296875,12.405549697265625,5.879221904296875,12.405549697265625,5.600011904296875L12.405549697265625,2.100007904296875C12.405549697265625,1.820796904296875,12.179209697265625,1.594451904296875,11.899999697265624,1.594451904296875Z" fill-rule="evenodd" fill="#FFFFFF" fill-opacity="1"/></g></g></svg>