<svg xmlns="http://www.w3.org/2000/svg" xmlns:xlink="http://www.w3.org/1999/xlink" fill="none" version="1.1" width="18" height="18" viewBox="0 0 18 18"><defs><clipPath id="master_svg0_905_00575"><rect x="0" y="0" width="18" height="18" rx="0"/></clipPath></defs><g clip-path="url(#master_svg0_905_00575)"><g transform="matrix(-0.7071067690849304,0.7071067690849304,-0.7071067690849304,-0.7071067690849304,29.90928663505474,-5.1134414888801984)"><path d="M16.013671875,2.9376953125L34.013671875,2.9376953125Q34.082571875,2.9376953125,34.150271875,2.9511453125Q34.217871875,2.9645963125,34.281571875,2.9909793125Q34.345271875,3.0173633125,34.402571875,3.0556663125Q34.459871875000005,3.0939703124999998,34.508671875000005,3.1427203125Q34.557371875,3.1914713125,34.595671875,3.2487963125Q34.633971875,3.3061213125,34.660371874999996,3.3698173125Q34.686771875000005,3.4335133125,34.700171874999995,3.5011323125000002Q34.713671875,3.5687513125,34.713671875,3.6376953125Q34.713671875,3.7066393125,34.700171874999995,3.7742583124999998Q34.686771875000005,3.8418773125,34.660371874999996,3.9055733125Q34.633971875,3.9692693125,34.595671875,4.0265943125Q34.557371875,4.0839193125,34.508671875000005,4.1326703125Q34.459871875000005,4.1814203125,34.402571875,4.2197243125Q34.345271875,4.2580273125,34.281571875,4.2844113125Q34.217871875,4.3107943125,34.150271875,4.3242453125Q34.082571875,4.3376953125,34.013671875,4.3376953125L16.013671875,4.3376953125Q15.944727875,4.3376953125,15.877108875,4.3242453125Q15.809489875,4.3107943125,15.745793875,4.2844113125Q15.682097875,4.2580273125,15.624772875,4.2197243125Q15.567447875,4.1814203125,15.518696875,4.1326703125Q15.469946875,4.0839193125,15.431642875,4.0265943125Q15.393339875,3.9692693125,15.366955875,3.9055733125Q15.340572875,3.8418773125,15.327121875,3.7742583124999998Q15.313671875,3.7066393125,15.313671875,3.6376953125Q15.313671875,3.5687513125,15.327121875,3.5011323125000002Q15.340572875,3.4335133125,15.366955875,3.3698173125Q15.393339875,3.3061213125,15.431642875,3.2487963125Q15.469946875,3.1914713125,15.518696875,3.1427203125Q15.567447875,3.0939703124999998,15.624772875,3.0556663125Q15.682097875,3.0173633125,15.745793875,2.9909793125Q15.809489875,2.9645963125,15.877108875,2.9511453125Q15.944727875,2.9376953125,16.013671875,2.9376953125Z" fill-rule="evenodd" fill="#FFFFFF" fill-opacity="1"/></g><g><path d="M12,2.35L17,2.35Q17.06402,2.35,17.12681,2.36249Q17.1896,2.3749789999999997,17.248739999999998,2.399478Q17.30789,2.423978,17.36112,2.459545Q17.41435,2.4951119999999998,17.45962,2.540381Q17.50489,2.585649,17.54045,2.638879Q17.57602,2.69211,17.60052,2.751256Q17.62502,2.810402,17.63751,2.873191Q17.65,2.9359806,17.65,3L17.65,8Q17.65,8.06402,17.63751,8.126809999999999Q17.62502,8.1896,17.60052,8.24874Q17.57602,8.30789,17.54045,8.36112Q17.50489,8.414349999999999,17.45962,8.459620000000001Q17.41435,8.50489,17.36112,8.54045Q17.30789,8.57602,17.248739999999998,8.60052Q17.1896,8.62502,17.12681,8.637509999999999Q17.06402,8.65,17,8.65Q16.93598,8.65,16.87319,8.637509999999999Q16.8104,8.62502,16.751260000000002,8.60052Q16.69211,8.57602,16.63888,8.54045Q16.58565,8.50489,16.54038,8.459620000000001Q16.49511,8.414349999999999,16.45954,8.36112Q16.42398,8.30789,16.39948,8.24874Q16.37498,8.1896,16.36249,8.126809999999999Q16.35,8.06402,16.35,8L16.35,3.65L12,3.65Q11.9359806,3.65,11.873191,3.63751Q11.810402,3.6250210000000003,11.751256,3.600522Q11.69211,3.576022,11.638879,3.540455Q11.585649,3.5048880000000002,11.540381,3.459619Q11.495112,3.414351,11.459545,3.361121Q11.423978,3.30789,11.399478,3.248744Q11.374979,3.189598,11.36249,3.126809Q11.35,3.0640194,11.35,3Q11.35,2.9359806,11.36249,2.873191Q11.374979,2.810402,11.399478,2.751256Q11.423978,2.69211,11.459545,2.638879Q11.495112,2.585649,11.540381,2.540381Q11.585649,2.4951119999999998,11.638879,2.459545Q11.69211,2.423978,11.751256,2.399478Q11.810402,2.3749789999999997,11.873191,2.36249Q11.9359806,2.35,12,2.35Z" fill-rule="evenodd" fill="#FFFFFF" fill-opacity="1"/></g></g></svg>