<svg xmlns="http://www.w3.org/2000/svg" xmlns:xlink="http://www.w3.org/1999/xlink" fill="none" version="1.1" width="32" height="32" viewBox="0 0 32 32"><defs><clipPath id="master_svg0_39_726"><rect x="0" y="0" width="32" height="32" rx="4"/></clipPath><clipPath id="master_svg1_39_744"><rect x="6" y="6" width="20" height="20" rx="0"/></clipPath></defs><g clip-path="url(#master_svg0_39_726)"><g clip-path="url(#master_svg1_39_744)"><g><path d="M7.85,8.5L7.85,23.5Q7.85,23.564,7.86249,23.6268Q7.874979,23.6896,7.899478,23.7487Q7.923978,23.8079,7.959545,23.8611Q7.995112,23.9143,8.040381,23.959600000000002Q8.085649,24.0049,8.138879,24.0405Q8.19211,24.076,8.251256,24.1005Q8.310402,24.125,8.373191,24.1375Q8.4359806,24.15,8.5,24.15L23.5,24.15Q23.564,24.15,23.6268,24.1375Q23.6896,24.125,23.7487,24.1005Q23.8079,24.076,23.8611,24.0405Q23.9143,24.0049,23.959600000000002,23.959600000000002Q24.0049,23.9143,24.0405,23.8611Q24.076,23.8079,24.1005,23.7487Q24.125,23.6896,24.1375,23.6268Q24.15,23.564,24.15,23.5L24.15,8.5Q24.15,8.4359806,24.1375,8.373191Q24.125,8.310402,24.1005,8.251256Q24.076,8.19211,24.0405,8.138879Q24.0049,8.085649,23.959600000000002,8.040381Q23.9143,7.995112,23.8611,7.959545Q23.8079,7.923978,23.7487,7.899478Q23.6896,7.874979,23.6268,7.86249Q23.564,7.85,23.5,7.85L8.5,7.85Q8.4359806,7.85,8.373191,7.86249Q8.310402,7.874979,8.251256,7.899478Q8.19211,7.923978,8.138879,7.959545Q8.085649,7.995112,8.040381,8.040381Q7.995112,8.085649,7.959545,8.138879Q7.923978,8.19211,7.899478,8.251256Q7.874979,8.310402,7.86249,8.373191Q7.85,8.4359806,7.85,8.5ZM9.15,22.85L9.15,9.15L22.85,9.15L22.85,22.85L9.15,22.85Z" fill-rule="evenodd" fill="#FFFFFF" fill-opacity="1"/></g><g><path d="M8.5,20.4L23.5,20.4Q23.564,20.4,23.6268,20.38751Q23.6896,20.375021,23.7487,20.350522Q23.8079,20.326022000000002,23.8611,20.290455Q23.9143,20.254888,23.959600000000002,20.209619Q24.0049,20.164351,24.0405,20.111121Q24.076,20.05789,24.1005,19.998744Q24.125,19.939598,24.1375,19.876809Q24.15,19.8140194,24.15,19.75Q24.15,19.6859806,24.1375,19.623191Q24.125,19.560402,24.1005,19.501256Q24.076,19.44211,24.0405,19.388879Q24.0049,19.335649,23.959600000000002,19.290381Q23.9143,19.245112,23.8611,19.209545Q23.8079,19.173977999999998,23.7487,19.149478Q23.6896,19.124979,23.6268,19.11249Q23.564,19.1,23.5,19.1L8.5,19.1Q8.4359806,19.1,8.373191,19.11249Q8.310402,19.124979,8.251256,19.149478Q8.19211,19.173977999999998,8.138879,19.209545Q8.085649,19.245112,8.040381,19.290381Q7.995112,19.335649,7.959545,19.388879Q7.923978,19.44211,7.899478,19.501256Q7.874979,19.560402,7.86249,19.623191Q7.85,19.6859806,7.85,19.75Q7.85,19.8140194,7.86249,19.876809Q7.874979,19.939598,7.899478,19.998744Q7.923978,20.05789,7.959545,20.111121Q7.995112,20.164351,8.040381,20.209619Q8.085649,20.254888,8.138879,20.290455Q8.19211,20.326022000000002,8.251256,20.350522Q8.310402,20.375021,8.373191,20.38751Q8.4359806,20.4,8.5,20.4Z" fill-rule="evenodd" fill="#FFFFFF" fill-opacity="1"/></g><g><path d="M8.5,16.65L23.5,16.65Q23.564,16.65,23.6268,16.63751Q23.6896,16.625021,23.7487,16.600522Q23.8079,16.576022000000002,23.8611,16.540455Q23.9143,16.504888,23.959600000000002,16.459619Q24.0049,16.414351,24.0405,16.361121Q24.076,16.30789,24.1005,16.248744Q24.125,16.189598,24.1375,16.126809Q24.15,16.0640194,24.15,16Q24.15,15.9359806,24.1375,15.873191Q24.125,15.810402,24.1005,15.751256Q24.076,15.69211,24.0405,15.638879Q24.0049,15.585649,23.959600000000002,15.540381Q23.9143,15.495112,23.8611,15.459545Q23.8079,15.423978,23.7487,15.399478Q23.6896,15.374979,23.6268,15.36249Q23.564,15.35,23.5,15.35L8.5,15.35Q8.4359806,15.35,8.373191,15.36249Q8.310402,15.374979,8.251256,15.399478Q8.19211,15.423978,8.138879,15.459545Q8.085649,15.495112,8.040381,15.540381Q7.995112,15.585649,7.959545,15.638879Q7.923978,15.69211,7.899478,15.751256Q7.874979,15.810402,7.86249,15.873191Q7.85,15.9359806,7.85,16Q7.85,16.0640194,7.86249,16.126809Q7.874979,16.189598,7.899478,16.248744Q7.923978,16.30789,7.959545,16.361121Q7.995112,16.414351,8.040381,16.459619Q8.085649,16.504888,8.138879,16.540455Q8.19211,16.576022000000002,8.251256,16.600522Q8.310402,16.625021,8.373191,16.63751Q8.4359806,16.65,8.5,16.65Z" fill-rule="evenodd" fill="#FFFFFF" fill-opacity="1"/></g><g><path d="M8.5,12.9L23.5,12.9Q23.564,12.9,23.6268,12.88751Q23.6896,12.875021,23.7487,12.850522Q23.8079,12.826022,23.8611,12.790455Q23.9143,12.754888,23.959600000000002,12.709619Q24.0049,12.664351,24.0405,12.611121Q24.076,12.55789,24.1005,12.498744Q24.125,12.439598,24.1375,12.376809Q24.15,12.3140194,24.15,12.25Q24.15,12.1859806,24.1375,12.123191Q24.125,12.060402,24.1005,12.001256Q24.076,11.94211,24.0405,11.888879Q24.0049,11.835649,23.959600000000002,11.790381Q23.9143,11.745112,23.8611,11.709545Q23.8079,11.673978,23.7487,11.649478Q23.6896,11.624979,23.6268,11.61249Q23.564,11.6,23.5,11.6L8.5,11.6Q8.4359806,11.6,8.373191,11.61249Q8.310402,11.624979,8.251256,11.649478Q8.19211,11.673978,8.138879,11.709545Q8.085649,11.745112,8.040381,11.790381Q7.995112,11.835649,7.959545,11.888879Q7.923978,11.94211,7.899478,12.001256Q7.874979,12.060402,7.86249,12.123191Q7.85,12.1859806,7.85,12.25Q7.85,12.3140194,7.86249,12.376809Q7.874979,12.439598,7.899478,12.498744Q7.923978,12.55789,7.959545,12.611121Q7.995112,12.664351,8.040381,12.709619Q8.085649,12.754888,8.138879,12.790455Q8.19211,12.826022,8.251256,12.850522Q8.310402,12.875021,8.373191,12.88751Q8.4359806,12.9,8.5,12.9Z" fill-rule="evenodd" fill="#FFFFFF" fill-opacity="1"/></g><g><path d="M19.1,8.5L19.1,23.5Q19.1,23.564,19.11249,23.6268Q19.124979,23.6896,19.149478,23.7487Q19.173977999999998,23.8079,19.209545,23.8611Q19.245112,23.9143,19.290381,23.959600000000002Q19.335649,24.0049,19.388879,24.0405Q19.44211,24.076,19.501256,24.1005Q19.560402,24.125,19.623191,24.1375Q19.6859806,24.15,19.75,24.15Q19.8140194,24.15,19.876809,24.1375Q19.939598,24.125,19.998744,24.1005Q20.05789,24.076,20.111121,24.0405Q20.164351,24.0049,20.209619,23.959600000000002Q20.254888,23.9143,20.290455,23.8611Q20.326022000000002,23.8079,20.350522,23.7487Q20.375021,23.6896,20.38751,23.6268Q20.4,23.564,20.4,23.5L20.4,8.5Q20.4,8.4359806,20.38751,8.373191Q20.375021,8.310402,20.350522,8.251256Q20.326022000000002,8.19211,20.290455,8.138879Q20.254888,8.085649,20.209619,8.040381Q20.164351,7.995112,20.111121,7.959545Q20.05789,7.923978,19.998744,7.899478Q19.939598,7.874979,19.876809,7.86249Q19.8140194,7.85,19.75,7.85Q19.6859806,7.85,19.623191,7.86249Q19.560402,7.874979,19.501256,7.899478Q19.44211,7.923978,19.388879,7.959545Q19.335649,7.995112,19.290381,8.040381Q19.245112,8.085649,19.209545,8.138879Q19.173977999999998,8.19211,19.149478,8.251256Q19.124979,8.310402,19.11249,8.373191Q19.1,8.4359806,19.1,8.5Z" fill-rule="evenodd" fill="#FFFFFF" fill-opacity="1"/></g><g><path d="M15.35,8.5L15.35,23.5Q15.35,23.564,15.36249,23.6268Q15.374979,23.6896,15.399478,23.7487Q15.423978,23.8079,15.459545,23.8611Q15.495112,23.9143,15.540381,23.959600000000002Q15.585649,24.0049,15.638879,24.0405Q15.69211,24.076,15.751256,24.1005Q15.810402,24.125,15.873191,24.1375Q15.9359806,24.15,16,24.15Q16.0640194,24.15,16.126809,24.1375Q16.189598,24.125,16.248744,24.1005Q16.30789,24.076,16.361121,24.0405Q16.414351,24.0049,16.459619,23.959600000000002Q16.504888,23.9143,16.540455,23.8611Q16.576022000000002,23.8079,16.600522,23.7487Q16.625021,23.6896,16.63751,23.6268Q16.65,23.564,16.65,23.5L16.65,8.5Q16.65,8.4359806,16.63751,8.373191Q16.625021,8.310402,16.600522,8.251256Q16.576022000000002,8.19211,16.540455,8.138879Q16.504888,8.085649,16.459619,8.040381Q16.414351,7.995112,16.361121,7.959545Q16.30789,7.923978,16.248744,7.899478Q16.189598,7.874979,16.126809,7.86249Q16.0640194,7.85,16,7.85Q15.9359806,7.85,15.873191,7.86249Q15.810402,7.874979,15.751256,7.899478Q15.69211,7.923978,15.638879,7.959545Q15.585649,7.995112,15.540381,8.040381Q15.495112,8.085649,15.459545,8.138879Q15.423978,8.19211,15.399478,8.251256Q15.374979,8.310402,15.36249,8.373191Q15.35,8.4359806,15.35,8.5Z" fill-rule="evenodd" fill="#FFFFFF" fill-opacity="1"/></g><g><path d="M11.6,8.5L11.6,23.5Q11.6,23.564,11.61249,23.6268Q11.624979,23.6896,11.649478,23.7487Q11.673978,23.8079,11.709545,23.8611Q11.745112,23.9143,11.790381,23.959600000000002Q11.835649,24.0049,11.888879,24.0405Q11.94211,24.076,12.001256,24.1005Q12.060402,24.125,12.123191,24.1375Q12.1859806,24.15,12.25,24.15Q12.3140194,24.15,12.376809,24.1375Q12.439598,24.125,12.498744,24.1005Q12.55789,24.076,12.611121,24.0405Q12.664351,24.0049,12.709619,23.959600000000002Q12.754888,23.9143,12.790455,23.8611Q12.826022,23.8079,12.850522,23.7487Q12.875021,23.6896,12.88751,23.6268Q12.9,23.564,12.9,23.5L12.9,8.5Q12.9,8.4359806,12.88751,8.373191Q12.875021,8.310402,12.850522,8.251256Q12.826022,8.19211,12.790455,8.138879Q12.754888,8.085649,12.709619,8.040381Q12.664351,7.995112,12.611121,7.959545Q12.55789,7.923978,12.498744,7.899478Q12.439598,7.874979,12.376809,7.86249Q12.3140194,7.85,12.25,7.85Q12.1859806,7.85,12.123191,7.86249Q12.060402,7.874979,12.001256,7.899478Q11.94211,7.923978,11.888879,7.959545Q11.835649,7.995112,11.790381,8.040381Q11.745112,8.085649,11.709545,8.138879Q11.673978,8.19211,11.649478,8.251256Q11.624979,8.310402,11.61249,8.373191Q11.6,8.4359806,11.6,8.5Z" fill-rule="evenodd" fill="#FFFFFF" fill-opacity="1"/></g></g></g></svg>