<svg xmlns="http://www.w3.org/2000/svg" xmlns:xlink="http://www.w3.org/1999/xlink" fill="none" version="1.1" width="14" height="14" viewBox="0 0 14 14"><defs><clipPath id="master_svg0_517_01225"><rect x="0" y="0" width="14" height="14" rx="0"/></clipPath></defs><g clip-path="url(#master_svg0_517_01225)"><g transform="matrix(-0.7071067690849304,0.7071067690849304,-0.7071067690849304,-0.7071067690849304,20.9363339348929,-3.5793399888207205)"><path d="M11.20947265625,1.94638671875L23.80947265625,1.94638671875Q23.868572656250002,1.94638671875,23.926572656250002,1.95791571875Q23.98447265625,1.9694447187500002,24.03907265625,1.99205871875Q24.09367265625,2.01467371875,24.14277265625,2.04750471875Q24.19197265625,2.08033671875,24.23377265625,2.12212271875Q24.275472656250003,2.16390871875,24.30837265625,2.21304471875Q24.341172656250002,2.26217971875,24.36377265625,2.31677671875Q24.38637265625,2.37137271875,24.397972656249998,2.42933271875Q24.40947265625,2.48729191875,24.40947265625,2.54638671875Q24.40947265625,2.60548151875,24.397972656249998,2.66344071875Q24.38637265625,2.72140071875,24.36377265625,2.77599671875Q24.341172656250002,2.83059371875,24.30837265625,2.87972871875Q24.275472656250003,2.92886471875,24.23377265625,2.97065071875Q24.19197265625,3.01243671875,24.14277265625,3.04526871875Q24.09367265625,3.07809971875,24.03907265625,3.10071471875Q23.98447265625,3.12332871875,23.926572656250002,3.13485771875Q23.868572656250002,3.14638671875,23.80947265625,3.14638671875L11.20947265625,3.14638671875Q11.15037785625,3.14638671875,11.09241865625,3.13485771875Q11.034458656249999,3.12332871875,10.97986265625,3.10071471875Q10.92526565625,3.07809971875,10.87613065625,3.04526871875Q10.82699465625,3.01243671875,10.78520865625,2.97065071875Q10.74342265625,2.92886471875,10.71059065625,2.87972871875Q10.67775965625,2.83059371875,10.65514465625,2.77599671875Q10.63253065625,2.72140071875,10.62100165625,2.66344071875Q10.60947265625,2.60548151875,10.60947265625,2.54638671875Q10.60947265625,2.48729191875,10.62100165625,2.42933271875Q10.63253065625,2.37137271875,10.65514465625,2.31677671875Q10.67775965625,2.26217971875,10.71059065625,2.21304471875Q10.74342265625,2.16390871875,10.78520865625,2.12212271875Q10.82699465625,2.08033671875,10.87613065625,2.04750471875Q10.92526565625,2.01467371875,10.97986265625,1.99205871875Q11.034458656249999,1.9694447187500002,11.09241865625,1.95791571875Q11.15037785625,1.94638671875,11.20947265625,1.94638671875Z" fill-rule="evenodd" fill="#595959" fill-opacity="1"/></g><g><path d="M8.39990234375,1.4999755859375L11.89990234375,1.4999755859375Q11.95899234375,1.4999755859375,12.016952343749999,1.5115045859375Q12.07491234375,1.5230335859375002,12.129512343750001,1.5456475859375Q12.18411234375,1.5682625859375001,12.23324234375,1.6010935859375Q12.282382343750001,1.6339255859375,12.32416234375,1.6757115859375Q12.36595234375,1.7174975859375001,12.39878234375,1.7666335859375Q12.43161234375,1.8157685859375001,12.45423234375,1.8703655859375Q12.47684234375,1.9249615859375,12.488372343750001,1.9829215859375Q12.49990234375,2.0408807859375,12.49990234375,2.0999755859375L12.49990234375,5.5999755859375Q12.49990234375,5.659065585937499,12.488372343750001,5.7170255859375Q12.47684234375,5.7749855859375,12.45423234375,5.8295855859375Q12.43161234375,5.8841855859375,12.39878234375,5.9333155859375Q12.36595234375,5.9824555859375,12.32416234375,6.0242355859375Q12.282382343750001,6.0660255859375,12.23324234375,6.0988555859375Q12.18411234375,6.1316855859375,12.129512343750001,6.1543055859375Q12.07491234375,6.1769155859375,12.016952343749999,6.1884455859375Q11.95899234375,6.1999755859375,11.89990234375,6.1999755859375Q11.84080234375,6.1999755859375,11.782852343750001,6.1884455859375Q11.72489234375,6.1769155859375,11.670292343749999,6.1543055859375Q11.61569234375,6.1316855859375,11.56656234375,6.0988555859375Q11.517422343749999,6.0660255859375,11.47564234375,6.0242355859375Q11.43385234375,5.9824555859375,11.40102234375,5.9333155859375Q11.36819234375,5.8841855859375,11.34557234375,5.8295855859375Q11.32296234375,5.7749855859375,11.311432343749999,5.7170255859375Q11.29990234375,5.659065585937499,11.29990234375,5.5999755859375L11.29990234375,2.6999755859375L8.39990234375,2.6999755859375Q8.34080754375,2.6999755859375,8.28284834375,2.6884465859375Q8.224888343749999,2.6769175859375,8.17029234375,2.6543035859375Q8.11569534375,2.6316885859375,8.06656034375,2.5988575859375Q8.01742434375,2.5660255859375,7.97563834375,2.5242395859375Q7.93385234375,2.4824535859375,7.90102034375,2.4333175859375Q7.86818934375,2.3841825859375,7.84557434375,2.3295855859375Q7.82296034375,2.2749895859375,7.81143134375,2.2170295859375Q7.79990234375,2.1590703859375,7.79990234375,2.0999755859375Q7.79990234375,2.0408807859375,7.81143134375,1.9829215859375Q7.82296034375,1.9249615859375,7.84557434375,1.8703655859375Q7.86818934375,1.8157685859375001,7.90102034375,1.7666335859375Q7.93385234375,1.7174975859375001,7.97563834375,1.6757115859375Q8.01742434375,1.6339255859375,8.06656034375,1.6010935859375Q8.11569534375,1.5682625859375001,8.17029234375,1.5456475859375Q8.224888343749999,1.5230335859375002,8.28284834375,1.5115045859375Q8.34080754375,1.4999755859375,8.39990234375,1.4999755859375Z" fill-rule="evenodd" fill="#595959" fill-opacity="1"/></g></g></svg>