<svg xmlns="http://www.w3.org/2000/svg" xmlns:xlink="http://www.w3.org/1999/xlink" fill="none" version="1.1" width="20" height="20" viewBox="0 0 20 20"><defs><clipPath id="master_svg0_39_770"><rect x="0" y="0" width="20" height="20" rx="0"/></clipPath></defs><g clip-path="url(#master_svg0_39_770)"><g transform="matrix(-0.7071067690849304,0.7071067690849304,-0.7071067690849304,-0.7071067690849304,29.90928663505474,-5.1134414888801984)"><path d="M16.013671875,2.9376953125L34.013671875,2.9376953125Q34.082571875,2.9376953125,34.150271875,2.9511453125Q34.217871875,2.9645963125,34.281571875,2.9909793125Q34.345271875,3.0173633125,34.402571875,3.0556663125Q34.459871875000005,3.0939703124999998,34.508671875000005,3.1427203125Q34.557371875,3.1914713125,34.595671875,3.2487963125Q34.633971875,3.3061213125,34.660371874999996,3.3698173125Q34.686771875000005,3.4335133125,34.700171874999995,3.5011323125000002Q34.713671875,3.5687513125,34.713671875,3.6376953125Q34.713671875,3.7066393125,34.700171874999995,3.7742583124999998Q34.686771875000005,3.8418773125,34.660371874999996,3.9055733125Q34.633971875,3.9692693125,34.595671875,4.0265943125Q34.557371875,4.0839193125,34.508671875000005,4.1326703125Q34.459871875000005,4.1814203125,34.402571875,4.2197243125Q34.345271875,4.2580273125,34.281571875,4.2844113125Q34.217871875,4.3107943125,34.150271875,4.3242453125Q34.082571875,4.3376953125,34.013671875,4.3376953125L16.013671875,4.3376953125Q15.944727875,4.3376953125,15.877108875,4.3242453125Q15.809489875,4.3107943125,15.745793875,4.2844113125Q15.682097875,4.2580273125,15.624772875,4.2197243125Q15.567447875,4.1814203125,15.518696875,4.1326703125Q15.469946875,4.0839193125,15.431642875,4.0265943125Q15.393339875,3.9692693125,15.366955875,3.9055733125Q15.340572875,3.8418773125,15.327121875,3.7742583124999998Q15.313671875,3.7066393125,15.313671875,3.6376953125Q15.313671875,3.5687513125,15.327121875,3.5011323125000002Q15.340572875,3.4335133125,15.366955875,3.3698173125Q15.393339875,3.3061213125,15.431642875,3.2487963125Q15.469946875,3.1914713125,15.518696875,3.1427203125Q15.567447875,3.0939703124999998,15.624772875,3.0556663125Q15.682097875,3.0173633125,15.745793875,2.9909793125Q15.809489875,2.9645963125,15.877108875,2.9511453125Q15.944727875,2.9376953125,16.013671875,2.9376953125Z" fill-rule="evenodd" fill="#FFFFFF" fill-opacity="1"/></g></g></svg>