<svg xmlns="http://www.w3.org/2000/svg" xmlns:xlink="http://www.w3.org/1999/xlink" fill="none" version="1.1" width="14" height="14" viewBox="0 0 14 14"><defs><clipPath id="master_svg0_517_01299"><rect x="0" y="0" width="14" height="14" rx="0"/></clipPath></defs><g clip-path="url(#master_svg0_517_01299)"><g transform="matrix(-0.7071067690849304,0.7071067690849304,-0.7071067690849304,-0.7071067690849304,20.936750709006446,-3.5795126223092666)"><path d="M11.209716796875,1.94638671875L23.809716796875,1.94638671875Q23.868816796875002,1.94638671875,23.926816796875002,1.95791571875Q23.984716796875,1.9694447187500002,24.039316796875,1.99205871875Q24.093916796875,2.01467371875,24.143016796875,2.04750471875Q24.192216796875,2.08033671875,24.234016796875,2.12212271875Q24.275716796875003,2.16390871875,24.308616796875,2.21304471875Q24.341416796875002,2.26217971875,24.364016796875,2.31677671875Q24.386616796875,2.37137271875,24.398216796874998,2.42933271875Q24.409716796875,2.48729191875,24.409716796875,2.54638671875Q24.409716796875,2.60548151875,24.398216796874998,2.66344071875Q24.386616796875,2.72140071875,24.364016796875,2.77599671875Q24.341416796875002,2.83059371875,24.308616796875,2.87972871875Q24.275716796875003,2.92886471875,24.234016796875,2.97065071875Q24.192216796875,3.01243671875,24.143016796875,3.04526871875Q24.093916796875,3.07809971875,24.039316796875,3.10071471875Q23.984716796875,3.12332871875,23.926816796875002,3.13485771875Q23.868816796875002,3.14638671875,23.809716796875,3.14638671875L11.209716796875,3.14638671875Q11.150621996875,3.14638671875,11.092662796875,3.13485771875Q11.034702796874999,3.12332871875,10.980106796875,3.10071471875Q10.925509796875,3.07809971875,10.876374796875,3.04526871875Q10.827238796875,3.01243671875,10.785452796875,2.97065071875Q10.743666796875,2.92886471875,10.710834796875,2.87972871875Q10.678003796875,2.83059371875,10.655388796875,2.77599671875Q10.632774796875,2.72140071875,10.621245796875,2.66344071875Q10.609716796875,2.60548151875,10.609716796875,2.54638671875Q10.609716796875,2.48729191875,10.621245796875,2.42933271875Q10.632774796875,2.37137271875,10.655388796875,2.31677671875Q10.678003796875,2.26217971875,10.710834796875,2.21304471875Q10.743666796875,2.16390871875,10.785452796875,2.12212271875Q10.827238796875,2.08033671875,10.876374796875,2.04750471875Q10.925509796875,2.01467371875,10.980106796875,1.99205871875Q11.034702796874999,1.9694447187500002,11.092662796875,1.95791571875Q11.150621996875,1.94638671875,11.209716796875,1.94638671875Z" fill-rule="evenodd" fill="#595959" fill-opacity="1"/></g></g></svg>