<svg xmlns="http://www.w3.org/2000/svg" xmlns:xlink="http://www.w3.org/1999/xlink" fill="none" version="1.1" width="14" height="14" viewBox="0 0 14 14"><defs><clipPath id="master_svg0_517_01241"><rect x="0" y="0" width="14" height="14" rx="0"/></clipPath></defs><g clip-path="url(#master_svg0_517_01241)"><g><path d="M1.15,2.1L1.15,2.635759Q1.15,2.694854,1.161529,2.75281Q1.1730580000000002,2.8107699999999998,1.195672,2.86537Q1.2182870000000001,2.91997,1.251118,2.9691Q1.28395,3.01824,1.325736,3.0600199999999997Q1.3675220000000001,3.10181,1.416658,3.13464Q1.4657930000000001,3.16747,1.52039,3.19009Q1.574986,3.2127,1.632946,3.22423Q1.6909052,3.23576,1.75,3.23576Q1.8090948,3.23576,1.867054,3.22423Q1.925014,3.2127,1.97961,3.19009Q2.034207,3.16747,2.083342,3.13464Q2.132478,3.10181,2.174264,3.0600199999999997Q2.21605,3.01824,2.248882,2.9691Q2.281713,2.91997,2.304328,2.86537Q2.326942,2.8107699999999998,2.338471,2.75281Q2.35,2.694854,2.35,2.635759L2.35,2.35L3.52848,2.35Q3.58758,2.35,3.64554,2.338471Q3.7035,2.326942,3.75809,2.304328Q3.81269,2.281713,3.86183,2.248882Q3.91096,2.21605,3.95275,2.174264Q3.99453,2.132478,4.0273699999999995,2.083342Q4.0602,2.034207,4.08281,1.97961Q4.10543,1.925014,4.11695,1.867054Q4.12848,1.8090948,4.12848,1.75Q4.12848,1.6909052,4.11695,1.632946Q4.10543,1.574986,4.08281,1.52039Q4.0602,1.4657930000000001,4.02736,1.416658Q3.99453,1.3675220000000001,3.95275,1.325736Q3.91096,1.28395,3.86183,1.251118Q3.81269,1.2182870000000001,3.75809,1.195672Q3.7035,1.1730580000000002,3.64554,1.161529Q3.58758,1.15,3.52848,1.15L2.1,1.15Q1.7064975,1.15,1.428249,1.428249Q1.15,1.7064974,1.15,2.1ZM8.42848,1.15L5.92848,1.15Q5.86939,1.15,5.81143,1.161529Q5.75347,1.1730580000000002,5.698869999999999,1.195672Q5.64428,1.2182870000000001,5.59514,1.251118Q5.54601,1.28395,5.50422,1.325736Q5.4624299999999995,1.3675220000000001,5.429600000000001,1.416658Q5.39677,1.4657930000000001,5.37416,1.52039Q5.35154,1.574986,5.3400099999999995,1.632946Q5.32848,1.6909052,5.32848,1.75Q5.32848,1.8090948,5.3400099999999995,1.867054Q5.35154,1.925014,5.37416,1.97961Q5.39677,2.034207,5.429600000000001,2.083342Q5.4624299999999995,2.132478,5.50422,2.174264Q5.54601,2.21605,5.59514,2.248882Q5.64428,2.281713,5.698869999999999,2.304328Q5.75347,2.326942,5.81143,2.338471Q5.86939,2.35,5.92848,2.35L8.42848,2.35Q8.487580000000001,2.35,8.545539999999999,2.338471Q8.6035,2.326942,8.65809,2.304328Q8.71269,2.281713,8.76183,2.248882Q8.81096,2.21605,8.85275,2.174264Q8.89453,2.132478,8.92736,2.083342Q8.9602,2.034207,8.98281,1.97961Q9.00542,1.925014,9.01695,1.867054Q9.02848,1.8090948,9.02848,1.75Q9.02848,1.6909052,9.01695,1.632946Q9.00542,1.574986,8.98281,1.52039Q8.9602,1.4657930000000001,8.92736,1.416658Q8.89453,1.3675220000000001,8.85275,1.325736Q8.81096,1.28395,8.76183,1.251118Q8.71269,1.2182870000000001,8.65809,1.195672Q8.6035,1.1730580000000002,8.545539999999999,1.161529Q8.487580000000001,1.15,8.42848,1.15ZM11.9,1.15L10.82848,1.15Q10.76939,1.15,10.71143,1.161529Q10.65347,1.1730580000000002,10.59887,1.195672Q10.54428,1.2182870000000001,10.49514,1.251118Q10.446,1.28395,10.40422,1.325736Q10.36243,1.3675220000000001,10.3296,1.416658Q10.29677,1.4657930000000001,10.27415,1.52039Q10.25154,1.574986,10.24001,1.632946Q10.22848,1.6909052,10.22848,1.75Q10.22848,1.8090948,10.24001,1.867054Q10.25154,1.925014,10.27415,1.97961Q10.29677,2.034207,10.3296,2.083342Q10.36243,2.132478,10.40422,2.174264Q10.446,2.21605,10.49514,2.248882Q10.54428,2.281713,10.59887,2.304328Q10.65347,2.326942,10.71143,2.338471Q10.76939,2.35,10.82848,2.35L11.65,2.35L11.65,2.9927200000000003Q11.65,3.05182,11.66153,3.1097799999999998Q11.67306,3.1677400000000002,11.69567,3.22233Q11.71829,3.27693,11.7511,3.32606Q11.7839,3.3752,11.8257,3.41699Q11.8675,3.45877,11.9167,3.4916Q11.9658,3.5244400000000002,12.0204,3.54705Q12.075,3.56967,12.1329,3.5811900000000003Q12.1909,3.59272,12.25,3.59272Q12.3091,3.59272,12.3671,3.5811900000000003Q12.425,3.56967,12.4796,3.54705Q12.5342,3.5244400000000002,12.5833,3.4916Q12.6325,3.45877,12.6743,3.41699Q12.716,3.3752,12.7489,3.32606Q12.7817,3.27693,12.8043,3.22233Q12.8269,3.1677400000000002,12.8385,3.1097799999999998Q12.85,3.05182,12.85,2.9927200000000003L12.85,2.1Q12.85,1.7065006,12.5718,1.428256Q12.2935,1.15,11.9,1.15ZM1.15,5.03576L1.15,7.53576Q1.15,7.59485,1.161529,7.65281Q1.1730580000000002,7.71077,1.195672,7.76537Q1.2182870000000001,7.81997,1.251118,7.8691Q1.28395,7.91824,1.325736,7.96002Q1.3675220000000001,8.001809999999999,1.416658,8.03464Q1.4657930000000001,8.06747,1.52039,8.09009Q1.574986,8.1127,1.632946,8.12423Q1.6909052,8.135760000000001,1.75,8.135760000000001Q1.8090948,8.135760000000001,1.867054,8.12423Q1.925014,8.1127,1.97961,8.09009Q2.034207,8.06747,2.083342,8.03464Q2.132478,8.001809999999999,2.174264,7.96002Q2.21605,7.91824,2.248882,7.8691Q2.281713,7.81997,2.304328,7.76537Q2.326942,7.71077,2.338471,7.65281Q2.35,7.59485,2.35,7.53576L2.35,5.03576Q2.35,4.97667,2.338471,4.91871Q2.326942,4.8607499999999995,2.304328,4.806150000000001Q2.281713,4.75155,2.248882,4.70242Q2.21605,4.6532800000000005,2.174264,4.6114999999999995Q2.132478,4.569710000000001,2.083342,4.53688Q2.034207,4.504049999999999,1.97961,4.48143Q1.925014,4.458819999999999,1.867054,4.447290000000001Q1.8090948,4.43576,1.75,4.43576Q1.6909052,4.43576,1.632946,4.447290000000001Q1.574986,4.458819999999999,1.52039,4.48143Q1.4657930000000001,4.504049999999999,1.416658,4.53688Q1.3675220000000001,4.569710000000001,1.325736,4.6114999999999995Q1.28395,4.6532800000000005,1.251118,4.70242Q1.2182870000000001,4.75155,1.195672,4.806150000000001Q1.1730580000000002,4.8607499999999995,1.161529,4.91871Q1.15,4.97667,1.15,5.03576ZM12.85,7.89272L12.85,5.392720000000001Q12.85,5.333629999999999,12.8385,5.27567Q12.8269,5.21771,12.8043,5.16311Q12.7817,5.10852,12.7489,5.05938Q12.716,5.01024,12.6743,4.96846Q12.6325,4.92667,12.5833,4.89384Q12.5342,4.86101,12.4796,4.83839Q12.425,4.81578,12.3671,4.80425Q12.3091,4.79272,12.25,4.79272Q12.1909,4.79272,12.1329,4.80425Q12.075,4.81578,12.0204,4.83839Q11.9658,4.86101,11.9167,4.89384Q11.8675,4.92667,11.8257,4.96846Q11.7839,5.01024,11.7511,5.05938Q11.71829,5.10852,11.69567,5.16311Q11.67306,5.21771,11.66153,5.27567Q11.65,5.333629999999999,11.65,5.392720000000001L11.65,7.89272Q11.65,7.95182,11.66153,8.00978Q11.67306,8.06774,11.69567,8.12233Q11.71829,8.176929999999999,11.7511,8.22606Q11.7839,8.2752,11.8257,8.31699Q11.8675,8.35877,11.9167,8.3916Q11.9658,8.42444,12.0204,8.44705Q12.075,8.469660000000001,12.1329,8.48119Q12.1909,8.49272,12.25,8.49272Q12.3091,8.49272,12.3671,8.48119Q12.425,8.469660000000001,12.4796,8.44705Q12.5342,8.42444,12.5833,8.3916Q12.6325,8.35877,12.6743,8.31699Q12.716,8.2752,12.7489,8.22606Q12.7817,8.176929999999999,12.8043,8.12233Q12.8269,8.06774,12.8385,8.00978Q12.85,7.95182,12.85,7.89272ZM2.1,12.85L4.243040000000001,12.85Q4.30213,12.85,4.36009,12.8385Q4.41805,12.8269,4.47265,12.8043Q4.52725,12.7817,4.57638,12.7489Q4.62552,12.716,4.6673,12.6743Q4.70909,12.6325,4.74192,12.5833Q4.77475,12.5342,4.79737,12.4796Q4.81998,12.425,4.83151,12.3671Q4.84304,12.3091,4.84304,12.25Q4.84304,12.1909,4.83151,12.1329Q4.81998,12.075,4.79737,12.0204Q4.77475,11.9658,4.74192,11.9167Q4.70909,11.8675,4.6673,11.8257Q4.62552,11.7839,4.57638,11.7511Q4.52725,11.71829,4.47265,11.69567Q4.41805,11.67306,4.36009,11.66153Q4.30213,11.65,4.243040000000001,11.65L2.35,11.65L2.35,9.93576Q2.35,9.87666,2.338471,9.8187Q2.326942,9.76075,2.304328,9.706150000000001Q2.281713,9.65155,2.248882,9.60242Q2.21605,9.55328,2.174264,9.5115Q2.132478,9.46971,2.083342,9.43688Q2.034207,9.40405,1.97961,9.38143Q1.925014,9.35882,1.867054,9.347290000000001Q1.8090948,9.33576,1.75,9.33576Q1.6909052,9.33576,1.632946,9.347290000000001Q1.574986,9.35882,1.52039,9.38143Q1.4657930000000001,9.40405,1.416658,9.43688Q1.3675220000000001,9.46971,1.325736,9.5115Q1.28395,9.55328,1.251118,9.60242Q1.2182870000000001,9.65155,1.195672,9.706150000000001Q1.1730580000000002,9.76075,1.161529,9.8187Q1.15,9.87666,1.15,9.93576L1.15,11.9Q1.15,12.2935,1.428256,12.5718Q1.7065007,12.85,2.1,12.85ZM12.85,11.9L12.85,10.29272Q12.85,10.23363,12.8385,10.17567Q12.8269,10.11771,12.8043,10.06311Q12.7817,10.00852,12.7489,9.95938Q12.716,9.91025,12.6743,9.86846Q12.6325,9.82667,12.5833,9.79384Q12.5342,9.76101,12.4796,9.7384Q12.425,9.715779999999999,12.3671,9.70425Q12.3091,9.69272,12.25,9.69272Q12.1909,9.69272,12.1329,9.70425Q12.075,9.715779999999999,12.0204,9.7384Q11.9658,9.76101,11.9167,9.79384Q11.8675,9.82667,11.8257,9.86846Q11.7839,9.91025,11.7511,9.95938Q11.71829,10.00852,11.69567,10.06311Q11.67306,10.11771,11.66153,10.17567Q11.65,10.23363,11.65,10.29272L11.65,11.65L11.54304,11.65Q11.48394,11.65,11.42598,11.66153Q11.36802,11.67306,11.31343,11.69567Q11.25883,11.71829,11.20969,11.7511Q11.16056,11.7839,11.11877,11.8257Q11.07699,11.8675,11.04415,11.9167Q11.01132,11.9658,10.98871,12.0204Q10.96609,12.075,10.95456,12.1329Q10.94304,12.1909,10.94304,12.25Q10.94304,12.3091,10.95456,12.3671Q10.96609,12.425,10.98871,12.4796Q11.01132,12.5342,11.04416,12.5833Q11.07699,12.6325,11.11877,12.6743Q11.16056,12.716,11.20969,12.7489Q11.25883,12.7817,11.31343,12.8043Q11.36802,12.8269,11.42598,12.8385Q11.48394,12.85,11.54304,12.85L11.9,12.85Q12.2935,12.85,12.5718,12.5718Q12.85,12.2935,12.85,11.9ZM6.64304,12.85L9.14304,12.85Q9.20213,12.85,9.26009,12.8385Q9.31805,12.8269,9.37265,12.8043Q9.42725,12.7817,9.476379999999999,12.7489Q9.52552,12.716,9.5673,12.6743Q9.60909,12.6325,9.641919999999999,12.5833Q9.67475,12.5342,9.69737,12.4796Q9.71998,12.425,9.73151,12.3671Q9.74304,12.3091,9.74304,12.25Q9.74304,12.1909,9.73151,12.1329Q9.71998,12.075,9.69737,12.0204Q9.67475,11.9658,9.641919999999999,11.9167Q9.60909,11.8675,9.5673,11.8257Q9.52552,11.7839,9.476379999999999,11.7511Q9.42725,11.71829,9.37265,11.69567Q9.31805,11.67306,9.26009,11.66153Q9.20213,11.65,9.14304,11.65L6.64304,11.65Q6.58395,11.65,6.52599,11.66153Q6.46803,11.67306,6.41343,11.69567Q6.35883,11.71829,6.3097,11.7511Q6.26056,11.7839,6.21878,11.8257Q6.17699,11.8675,6.14416,11.9167Q6.11133,11.9658,6.08871,12.0204Q6.0661,12.075,6.05457,12.1329Q6.04304,12.1909,6.04304,12.25Q6.04304,12.3091,6.05457,12.3671Q6.0661,12.425,6.08871,12.4796Q6.11133,12.5342,6.14416,12.5833Q6.17699,12.6325,6.21878,12.6743Q6.26056,12.716,6.3097,12.7489Q6.35883,12.7817,6.41343,12.8043Q6.46803,12.8269,6.52599,12.8385Q6.58395,12.85,6.64304,12.85Z" fill-rule="evenodd" fill="#595959" fill-opacity="1"/></g></g></svg>