<svg xmlns="http://www.w3.org/2000/svg" xmlns:xlink="http://www.w3.org/1999/xlink" fill="none" version="1.1" width="32" height="32" viewBox="0 0 32 32"><defs><clipPath id="master_svg0_39_413"><rect x="0" y="0" width="32" height="32" rx="0"/></clipPath><clipPath id="master_svg1_39_683"><rect x="6" y="6" width="20" height="20" rx="0"/></clipPath></defs><g clip-path="url(#master_svg0_39_413)"><g clip-path="url(#master_svg1_39_683)"><g><path d="M8.186835,23.813200000000002Q8.5236558,24.15,9,24.15L23,24.15Q23.476399999999998,24.15,23.813200000000002,23.813200000000002Q24.15,23.476399999999998,24.15,23L24.15,9Q24.15,8.5236558,23.813200000000002,8.186835Q23.476399999999998,7.85,23,7.85L9,7.85Q8.5236549,7.85,8.186827,8.186827Q7.85,8.5236549,7.85,9L7.85,23Q7.85,23.476399999999998,8.186835,23.813200000000002ZM9.15,22.85L22.85,22.85L22.85,9.15L9.15,9.15L9.15,22.85Z" fill-rule="evenodd" fill="#FFFFFF" fill-opacity="1"/></g></g></g></svg>