<svg xmlns="http://www.w3.org/2000/svg" xmlns:xlink="http://www.w3.org/1999/xlink" fill="none" version="1.1" width="20" height="20" viewBox="0 0 20 20"><defs><clipPath id="master_svg0_39_744"><rect x="0" y="0" width="20" height="20" rx="0"/></clipPath></defs><g clip-path="url(#master_svg0_39_744)"><g><path d="M1.85,2.5L1.85,17.5Q1.85,17.564,1.86249,17.6268Q1.874979,17.6896,1.899478,17.7487Q1.923978,17.8079,1.9595449999999999,17.8611Q1.995112,17.9143,2.040381,17.959600000000002Q2.085649,18.0049,2.138879,18.0405Q2.19211,18.076,2.251256,18.1005Q2.310402,18.125,2.373191,18.1375Q2.4359806,18.15,2.5,18.15L17.5,18.15Q17.564,18.15,17.6268,18.1375Q17.6896,18.125,17.7487,18.1005Q17.8079,18.076,17.8611,18.0405Q17.9143,18.0049,17.959600000000002,17.959600000000002Q18.0049,17.9143,18.0405,17.8611Q18.076,17.8079,18.1005,17.7487Q18.125,17.6896,18.1375,17.6268Q18.15,17.564,18.15,17.5L18.15,2.5Q18.15,2.4359806,18.1375,2.373191Q18.125,2.310402,18.1005,2.251256Q18.076,2.19211,18.0405,2.138879Q18.0049,2.085649,17.959600000000002,2.040381Q17.9143,1.995112,17.8611,1.9595449999999999Q17.8079,1.923978,17.7487,1.899478Q17.6896,1.874979,17.6268,1.86249Q17.564,1.85,17.5,1.85L2.5,1.85Q2.4359806,1.85,2.373191,1.86249Q2.310402,1.874979,2.251256,1.899478Q2.19211,1.923978,2.138879,1.9595449999999999Q2.085649,1.995112,2.040381,2.040381Q1.995112,2.085649,1.9595449999999999,2.138879Q1.923978,2.19211,1.899478,2.251256Q1.874979,2.310402,1.86249,2.373191Q1.85,2.4359806,1.85,2.5ZM3.15,16.85L3.15,3.15L16.85,3.15L16.85,16.85L3.15,16.85Z" fill-rule="evenodd" fill="#FFFFFF" fill-opacity="1"/></g><g><path d="M2.5,14.4L17.5,14.4Q17.564,14.4,17.6268,14.38751Q17.6896,14.375021,17.7487,14.350522Q17.8079,14.326022,17.8611,14.290455Q17.9143,14.254888,17.959600000000002,14.209619Q18.0049,14.164351,18.0405,14.111121Q18.076,14.05789,18.1005,13.998744Q18.125,13.939598,18.1375,13.876809Q18.15,13.8140194,18.15,13.75Q18.15,13.6859806,18.1375,13.623191Q18.125,13.560402,18.1005,13.501256Q18.076,13.44211,18.0405,13.388879Q18.0049,13.335649,17.959600000000002,13.290381Q17.9143,13.245112,17.8611,13.209545Q17.8079,13.173978,17.7487,13.149478Q17.6896,13.124979,17.6268,13.11249Q17.564,13.1,17.5,13.1L2.5,13.1Q2.4359806,13.1,2.373191,13.11249Q2.310402,13.124979,2.251256,13.149478Q2.19211,13.173978,2.138879,13.209545Q2.085649,13.245112,2.040381,13.290381Q1.995112,13.335649,1.9595449999999999,13.388879Q1.923978,13.44211,1.899478,13.501256Q1.874979,13.560402,1.86249,13.623191Q1.85,13.6859806,1.85,13.75Q1.85,13.8140194,1.86249,13.876809Q1.874979,13.939598,1.899478,13.998744Q1.923978,14.05789,1.9595449999999999,14.111121Q1.995112,14.164351,2.040381,14.209619Q2.085649,14.254888,2.138879,14.290455Q2.19211,14.326022,2.251256,14.350522Q2.310402,14.375021,2.373191,14.38751Q2.4359806,14.4,2.5,14.4Z" fill-rule="evenodd" fill="#FFFFFF" fill-opacity="1"/></g><g><path d="M2.5,10.65L17.5,10.65Q17.564,10.65,17.6268,10.63751Q17.6896,10.625021,17.7487,10.600522Q17.8079,10.576022,17.8611,10.540455Q17.9143,10.504888,17.959600000000002,10.459619Q18.0049,10.414351,18.0405,10.361121Q18.076,10.30789,18.1005,10.248744Q18.125,10.189598,18.1375,10.126809Q18.15,10.0640194,18.15,10Q18.15,9.9359806,18.1375,9.873191Q18.125,9.810402,18.1005,9.751256Q18.076,9.69211,18.0405,9.638879Q18.0049,9.585649,17.959600000000002,9.540381Q17.9143,9.495112,17.8611,9.459545Q17.8079,9.423978,17.7487,9.399478Q17.6896,9.374979,17.6268,9.36249Q17.564,9.35,17.5,9.35L2.5,9.35Q2.4359806,9.35,2.373191,9.36249Q2.310402,9.374979,2.251256,9.399478Q2.19211,9.423978,2.138879,9.459545Q2.085649,9.495112,2.040381,9.540381Q1.995112,9.585649,1.9595449999999999,9.638879Q1.923978,9.69211,1.899478,9.751256Q1.874979,9.810402,1.86249,9.873191Q1.85,9.9359806,1.85,10Q1.85,10.0640194,1.86249,10.126809Q1.874979,10.189598,1.899478,10.248744Q1.923978,10.30789,1.9595449999999999,10.361121Q1.995112,10.414351,2.040381,10.459619Q2.085649,10.504888,2.138879,10.540455Q2.19211,10.576022,2.251256,10.600522Q2.310402,10.625021,2.373191,10.63751Q2.4359806,10.65,2.5,10.65Z" fill-rule="evenodd" fill="#FFFFFF" fill-opacity="1"/></g><g><path d="M2.5,6.9L17.5,6.9Q17.564,6.9,17.6268,6.88751Q17.6896,6.875021,17.7487,6.850522Q17.8079,6.826022,17.8611,6.790455Q17.9143,6.754888,17.959600000000002,6.709619Q18.0049,6.664351,18.0405,6.611121Q18.076,6.55789,18.1005,6.498744Q18.125,6.439598,18.1375,6.376809Q18.15,6.3140194,18.15,6.25Q18.15,6.1859806,18.1375,6.123191Q18.125,6.060402,18.1005,6.001256Q18.076,5.94211,18.0405,5.888879Q18.0049,5.835649,17.959600000000002,5.790381Q17.9143,5.745112,17.8611,5.709545Q17.8079,5.673978,17.7487,5.649478Q17.6896,5.624979,17.6268,5.61249Q17.564,5.6,17.5,5.6L2.5,5.6Q2.4359806,5.6,2.373191,5.61249Q2.310402,5.624979,2.251256,5.649478Q2.19211,5.673978,2.138879,5.709545Q2.085649,5.745112,2.040381,5.790381Q1.995112,5.835649,1.9595449999999999,5.888879Q1.923978,5.94211,1.899478,6.001256Q1.874979,6.060402,1.86249,6.123191Q1.85,6.1859806,1.85,6.25Q1.85,6.3140194,1.86249,6.376809Q1.874979,6.439598,1.899478,6.498744Q1.923978,6.55789,1.9595449999999999,6.611121Q1.995112,6.664351,2.040381,6.709619Q2.085649,6.754888,2.138879,6.790455Q2.19211,6.826022,2.251256,6.850522Q2.310402,6.875021,2.373191,6.88751Q2.4359806,6.9,2.5,6.9Z" fill-rule="evenodd" fill="#FFFFFF" fill-opacity="1"/></g><g><path d="M13.1,2.5L13.1,17.5Q13.1,17.564,13.11249,17.6268Q13.124979,17.6896,13.149478,17.7487Q13.173978,17.8079,13.209545,17.8611Q13.245112,17.9143,13.290381,17.959600000000002Q13.335649,18.0049,13.388879,18.0405Q13.44211,18.076,13.501256,18.1005Q13.560402,18.125,13.623191,18.1375Q13.6859806,18.15,13.75,18.15Q13.8140194,18.15,13.876809,18.1375Q13.939598,18.125,13.998744,18.1005Q14.05789,18.076,14.111121,18.0405Q14.164351,18.0049,14.209619,17.959600000000002Q14.254888,17.9143,14.290455,17.8611Q14.326022,17.8079,14.350522,17.7487Q14.375021,17.6896,14.38751,17.6268Q14.4,17.564,14.4,17.5L14.4,2.5Q14.4,2.4359806,14.38751,2.373191Q14.375021,2.310402,14.350522,2.251256Q14.326022,2.19211,14.290455,2.138879Q14.254888,2.085649,14.209619,2.040381Q14.164351,1.995112,14.111121,1.9595449999999999Q14.05789,1.923978,13.998744,1.899478Q13.939598,1.874979,13.876809,1.86249Q13.8140194,1.85,13.75,1.85Q13.6859806,1.85,13.623191,1.86249Q13.560402,1.874979,13.501256,1.899478Q13.44211,1.923978,13.388879,1.9595449999999999Q13.335649,1.995112,13.290381,2.040381Q13.245112,2.085649,13.209545,2.138879Q13.173978,2.19211,13.149478,2.251256Q13.124979,2.310402,13.11249,2.373191Q13.1,2.4359806,13.1,2.5Z" fill-rule="evenodd" fill="#FFFFFF" fill-opacity="1"/></g><g><path d="M9.35,2.5L9.35,17.5Q9.35,17.564,9.36249,17.6268Q9.374979,17.6896,9.399478,17.7487Q9.423978,17.8079,9.459545,17.8611Q9.495112,17.9143,9.540381,17.959600000000002Q9.585649,18.0049,9.638879,18.0405Q9.69211,18.076,9.751256,18.1005Q9.810402,18.125,9.873191,18.1375Q9.9359806,18.15,10,18.15Q10.0640194,18.15,10.126809,18.1375Q10.189598,18.125,10.248744,18.1005Q10.30789,18.076,10.361121,18.0405Q10.414351,18.0049,10.459619,17.959600000000002Q10.504888,17.9143,10.540455,17.8611Q10.576022,17.8079,10.600522,17.7487Q10.625021,17.6896,10.63751,17.6268Q10.65,17.564,10.65,17.5L10.65,2.5Q10.65,2.4359806,10.63751,2.373191Q10.625021,2.310402,10.600522,2.251256Q10.576022,2.19211,10.540455,2.138879Q10.504888,2.085649,10.459619,2.040381Q10.414351,1.995112,10.361121,1.9595449999999999Q10.30789,1.923978,10.248744,1.899478Q10.189598,1.874979,10.126809,1.86249Q10.0640194,1.85,10,1.85Q9.9359806,1.85,9.873191,1.86249Q9.810402,1.874979,9.751256,1.899478Q9.69211,1.923978,9.638879,1.9595449999999999Q9.585649,1.995112,9.540381,2.040381Q9.495112,2.085649,9.459545,2.138879Q9.423978,2.19211,9.399478,2.251256Q9.374979,2.310402,9.36249,2.373191Q9.35,2.4359806,9.35,2.5Z" fill-rule="evenodd" fill="#FFFFFF" fill-opacity="1"/></g><g><path d="M5.6,2.5L5.6,17.5Q5.6,17.564,5.61249,17.6268Q5.624979,17.6896,5.649478,17.7487Q5.673978,17.8079,5.709545,17.8611Q5.745112,17.9143,5.790381,17.959600000000002Q5.835649,18.0049,5.888879,18.0405Q5.94211,18.076,6.001256,18.1005Q6.060402,18.125,6.123191,18.1375Q6.1859806,18.15,6.25,18.15Q6.3140194,18.15,6.376809,18.1375Q6.439598,18.125,6.498744,18.1005Q6.55789,18.076,6.611121,18.0405Q6.664351,18.0049,6.709619,17.959600000000002Q6.754888,17.9143,6.790455,17.8611Q6.826022,17.8079,6.850522,17.7487Q6.875021,17.6896,6.88751,17.6268Q6.9,17.564,6.9,17.5L6.9,2.5Q6.9,2.4359806,6.88751,2.373191Q6.875021,2.310402,6.850522,2.251256Q6.826022,2.19211,6.790455,2.138879Q6.754888,2.085649,6.709619,2.040381Q6.664351,1.995112,6.611121,1.9595449999999999Q6.55789,1.923978,6.498744,1.899478Q6.439598,1.874979,6.376809,1.86249Q6.3140194,1.85,6.25,1.85Q6.1859806,1.85,6.123191,1.86249Q6.060402,1.874979,6.001256,1.899478Q5.94211,1.923978,5.888879,1.9595449999999999Q5.835649,1.995112,5.790381,2.040381Q5.745112,2.085649,5.709545,2.138879Q5.673978,2.19211,5.649478,2.251256Q5.624979,2.310402,5.61249,2.373191Q5.6,2.4359806,5.6,2.5Z" fill-rule="evenodd" fill="#FFFFFF" fill-opacity="1"/></g></g></svg>