<svg xmlns="http://www.w3.org/2000/svg" xmlns:xlink="http://www.w3.org/1999/xlink" fill="none" version="1.1" width="14" height="14" viewBox="0 0 14 14"><defs><clipPath id="master_svg0_517_01237"><rect x="0" y="0" width="14" height="14" rx="0"/></clipPath></defs><g clip-path="url(#master_svg0_517_01237)"><g><path d="M1.15,12.25L1.15,1.75Q1.15,1.6909052,1.161529,1.632946Q1.1730580000000002,1.574986,1.195672,1.52039Q1.2182870000000001,1.4657930000000001,1.251118,1.416658Q1.28395,1.3675220000000001,1.325736,1.325736Q1.3675220000000001,1.28395,1.416658,1.251118Q1.4657930000000001,1.2182870000000001,1.52039,1.195672Q1.574986,1.1730580000000002,1.632946,1.161529Q1.6909052,1.15,1.75,1.15L12.25,1.15Q12.3091,1.15,12.3671,1.161529Q12.425,1.1730580000000002,12.4796,1.195672Q12.5342,1.2182870000000001,12.5833,1.251118Q12.6325,1.28395,12.6743,1.325736Q12.716,1.3675220000000001,12.7489,1.416658Q12.7817,1.4657930000000001,12.8043,1.52039Q12.8269,1.574986,12.8385,1.632946Q12.85,1.6909052,12.85,1.75L12.85,12.25Q12.85,12.3091,12.8385,12.3671Q12.8269,12.425,12.8043,12.4796Q12.7817,12.5342,12.7489,12.5833Q12.716,12.6325,12.6743,12.6743Q12.6325,12.716,12.5833,12.7489Q12.5342,12.7817,12.4796,12.8043Q12.425,12.8269,12.3671,12.8385Q12.3091,12.85,12.25,12.85L1.75,12.85Q1.6909052,12.85,1.632946,12.8385Q1.574986,12.8269,1.52039,12.8043Q1.4657930000000001,12.7817,1.416658,12.7489Q1.3675220000000001,12.716,1.325736,12.6743Q1.28395,12.6325,1.251118,12.5833Q1.2182870000000001,12.5342,1.195672,12.4796Q1.1730580000000002,12.425,1.161529,12.3671Q1.15,12.3091,1.15,12.25ZM2.35,2.35L2.35,11.65L11.65,11.65L11.65,2.35L2.35,2.35Z" fill="#595959" fill-opacity="1"/></g><g><path d="M8.942730000000001,8.913778945312501L8.94286,8.9138889453125Q9.02442,8.9837989453125,9.12517,9.0210589453125Q9.225909999999999,9.0583289453125,9.33333,9.0583289453125Q9.392430000000001,9.0583289453125,9.450389999999999,9.0467989453125Q9.50835,9.0352789453125,9.562940000000001,9.0126589453125Q9.61754,8.9900489453125,9.66668,8.9572089453125Q9.715810000000001,8.924378945312501,9.7576,8.8825989453125Q9.79938,8.8408089453125,9.83221,8.7916689453125Q9.86505,8.7425389453125,9.88766,8.6879389453125Q9.91028,8.6333489453125,9.9218,8.5753889453125Q9.93333,8.5174289453125,9.93333,8.4583289453125Q9.93333,8.326968945312501,9.87844,8.2076189453125Q9.82355,8.0882689453125,9.72381,8.0027789453125L9.72368,8.0026689453125L6.03309,4.8393029453125Q5.69221,4.5471009453125,5.24327,4.5545829453125Q4.79433,4.5620659453125,4.463369999999999,4.8654709453125005L1.344744,7.724208945312499L1.344565,7.7243689453125Q1.251582,7.8096089453125,1.2007910000000002,7.9250689453125Q1.15,8.0405289453125,1.15,8.1666689453125Q1.15,8.2257589453125,1.161529,8.2837189453125Q1.1730580000000002,8.3416789453125,1.195672,8.396278945312499Q1.2182870000000001,8.4508689453125,1.251118,8.5000089453125Q1.28395,8.5491389453125,1.325736,8.5909289453125Q1.3675220000000001,8.6327189453125,1.416658,8.6655489453125Q1.4657930000000001,8.6983789453125,1.52039,8.7209889453125Q1.574986,8.7436089453125,1.632946,8.755138945312499Q1.6909052,8.7666689453125,1.75,8.7666689453125Q1.862586,8.7666689453125,1.967514,8.7258489453125Q2.072441,8.685038945312499,2.1554349999999998,8.6089589453125L2.155613,8.6087989453125L5.2633600000000005,5.7600289453125L8.942730000000001,8.913778945312501Z" fill-rule="evenodd" fill="#595959" fill-opacity="1"/></g><g><path d="M11.88959390625,7.47994171875L11.88983390625,7.48012171875Q12.04983390625,7.60012171875,12.24983390625,7.60012171875Q12.308933906250001,7.60012171875,12.366893906249999,7.58859171875Q12.42485390625,7.5770617187500005,12.479443906250001,7.55445171875Q12.53404390625,7.53183171875,12.58317390625,7.49900171875Q12.632313906250001,7.46617171875,12.67410390625,7.42438171875Q12.71588390625,7.38260171875,12.74871390625,7.33346171875Q12.78155390625,7.28433171875,12.80416390625,7.22973171875Q12.82677390625,7.17513171875,12.838303906250001,7.11717171875Q12.84983390625,7.05922171875,12.84983390625,7.00012171875Q12.84983390625,6.85848171875,12.78649390625,6.73179171875Q12.72314390625,6.60510171875,12.60983390625,6.52012171875L12.60959390625,6.51994171875L10.68124390625,5.07368871875Q10.32790390625,4.80869271875,9.88736390625,4.83999371875Q9.44680390625,4.87129471875,9.13451090625,5.18358671875L7.74233590625,6.57576171875L7.74223990625,6.57586171875Q7.65784890625,6.6602517187500005,7.61217590625,6.77051171875Q7.56650390625,6.88077171875,7.56650390625,7.00012171875Q7.56650390625,7.05922171875,7.57803290625,7.11717171875Q7.58956190625,7.17513171875,7.61217590625,7.22973171875Q7.63479090625,7.28433171875,7.66762190625,7.33346171875Q7.70045390625,7.38260171875,7.74223990625,7.42439171875Q7.78402590625,7.46617171875,7.83316190625,7.49900171875Q7.88229690625,7.53183171875,7.93689390625,7.55445171875Q7.99148990625,7.5770617187500005,8.04944990625,7.58859171875Q8.10740910625,7.60012171875,8.16650390625,7.60012171875Q8.28585090625,7.60012171875,8.39611390625,7.55445171875Q8.50637690625,7.50878171875,8.59076790625,7.42438171875L8.59086490625,7.42429171875L9.97280390625,6.04235371875L11.88959390625,7.47994171875Z" fill-rule="evenodd" fill="#595959" fill-opacity="1"/></g></g></svg>