<svg xmlns="http://www.w3.org/2000/svg" xmlns:xlink="http://www.w3.org/1999/xlink" fill="none"
    version="1.1" width="14" height="14" viewBox="0 0 14 14">
    <defs>
        <clipPath id="master_svg0_2191_14684">
            <rect x="0" y="0" width="14" height="14" rx="0" />
        </clipPath>
    </defs>
    <g clip-path="url(#master_svg0_2191_14684)">
        <g>
            <path
                d="M0.50497558125,11.35937374830246L6.56715828125,0.8593747483024596C6.63345828125,0.7445327483024597,6.74266828125,0.6607335483024597,6.87075828125,0.6264120483024597C6.99884828125,0.5920905483024597,7.13532828125,0.6100581883024597,7.25016828125,0.6763623483024597C7.32617828125,0.7202467483024597,7.38929828125,0.7833657483024598,7.43317828125,0.8593747483024596L13.49538828125,11.35937374830246C13.63338828125,11.59847374830246,13.55148828125,11.90427374830246,13.31238828125,12.04237374830246C13.23628828125,12.08627374830246,13.15008828125,12.10937374830246,13.06238828125,12.10937374830246L0.93798828125,12.10937374830246C0.66184628125,12.10937374830246,0.43798828125,11.88547374830246,0.43798828125,11.60937374830246C0.43798828125,11.52157374830246,0.46109138125,11.43537374830246,0.50497558125,11.35937374830246ZM12.19628828125,11.10937374830246L1.80401828125,11.10937374830246L7.00016828125,2.1093737483024597L12.19628828125,11.10937374830246Z"
                fill-rule="evenodd" fill="#FFFFFF" fill-opacity="1" />
        </g>
    </g>
</svg>