<svg xmlns="http://www.w3.org/2000/svg" xmlns:xlink="http://www.w3.org/1999/xlink" fill="none" version="1.1" width="32" height="32" viewBox="0 0 32 32"><defs><clipPath id="master_svg0_39_723"><rect x="0" y="0" width="32" height="32" rx="4"/></clipPath><clipPath id="master_svg1_39_740"><rect x="6" y="6" width="20" height="20" rx="0"/></clipPath></defs><g clip-path="url(#master_svg0_39_723)"><rect x="0" y="0" width="32" height="32" rx="4" fill="#FFFFFF" fill-opacity="0.10000000149011612"/><g clip-path="url(#master_svg1_39_740)"><g><path d="M22.01679609375,9.15L22.01679609375,10.55554Q22.01679609375,10.61956,22.02929609375,10.68235Q22.04179609375,10.74514,22.066296093749997,10.80429Q22.09079609375,10.863430000000001,22.12639609375,10.91666Q22.161896093750002,10.96989,22.20719609375,11.01516Q22.25249609375,11.06043,22.30569609375,11.096Q22.358896093749998,11.13156,22.418096093750002,11.15606Q22.477196093750003,11.18056,22.53999609375,11.19305Q22.60279609375,11.20554,22.66679609375,11.20554Q22.730896093749998,11.20554,22.79359609375,11.19305Q22.85639609375,11.18056,22.91559609375,11.15606Q22.974696093749998,11.13156,23.027996093749998,11.096Q23.081196093750002,11.06043,23.12649609375,11.01516Q23.17169609375,10.96989,23.20729609375,10.91666Q23.242896093749998,10.863430000000001,23.26739609375,10.80429Q23.291896093749997,10.74514,23.30429609375,10.68235Q23.31679609375,10.61956,23.31679609375,10.55554L23.31679609375,8.5Q23.31679609375,8.4359806,23.30429609375,8.373191Q23.291896093749997,8.310402,23.26739609375,8.251256Q23.242896093749998,8.19211,23.20729609375,8.138879Q23.17169609375,8.085649,23.12649609375,8.040381Q23.081196093750002,7.995112,23.027996093749998,7.959545Q22.974696093749998,7.923978,22.91559609375,7.899478Q22.85639609375,7.874979,22.79359609375,7.86249Q22.730896093749998,7.85,22.66679609375,7.85L9.33349609375,7.85Q9.26947669375,7.85,9.20668709375,7.86249Q9.14389809375,7.874979,9.08475209375,7.899478Q9.02560609375,7.923978,8.97237509375,7.959545Q8.91914509375,7.995112,8.87387709375,8.040381Q8.82860809375,8.085649,8.79304109375,8.138879Q8.75747409375,8.19211,8.73297409375,8.251256Q8.70847509375,8.310402,8.69598609375,8.373191Q8.68349609375,8.4359806,8.68349609375,8.5L8.68349609375,10.55554Q8.68349609375,10.61956,8.69598609375,10.68235Q8.70847509375,10.74514,8.73297409375,10.80429Q8.75747409375,10.863430000000001,8.79304109375,10.91666Q8.82860809375,10.96989,8.87387709375,11.01516Q8.91914509375,11.06043,8.97237509375,11.096Q9.02560609375,11.13156,9.08475209375,11.15606Q9.14389809375,11.18056,9.20668709375,11.19305Q9.26947669375,11.20554,9.33349609375,11.20554Q9.39751549375,11.20554,9.46030509375,11.19305Q9.52309409375,11.18056,9.58224009375,11.15606Q9.64138609375,11.13156,9.69461709375,11.096Q9.74784709375,11.06043,9.79311509375,11.01516Q9.83838409375,10.96989,9.87395109375,10.91666Q9.90951809375,10.863430000000001,9.93401809375,10.80429Q9.95851709375,10.74514,9.97100609375,10.68235Q9.98349609375,10.61956,9.98349609375,10.55554L9.98349609375,9.15L22.01679609375,9.15Z" fill-rule="evenodd" fill="#FFFFFF" fill-opacity="1"/></g><g><path d="M15.35,8.5L15.35,23.5Q15.35,23.564,15.36249,23.6268Q15.374979,23.6896,15.399478,23.7487Q15.423978,23.8079,15.459545,23.8611Q15.495112,23.9143,15.540381,23.959600000000002Q15.585649,24.0049,15.638879,24.0405Q15.69211,24.076,15.751256,24.1005Q15.810402,24.125,15.873191,24.1375Q15.9359806,24.15,16,24.15Q16.0640194,24.15,16.126809,24.1375Q16.189598,24.125,16.248744,24.1005Q16.30789,24.076,16.361121,24.0405Q16.414351,24.0049,16.459619,23.959600000000002Q16.504888,23.9143,16.540455,23.8611Q16.576022000000002,23.8079,16.600522,23.7487Q16.625021,23.6896,16.63751,23.6268Q16.65,23.564,16.65,23.5L16.65,8.5Q16.65,8.4359806,16.63751,8.373191Q16.625021,8.310402,16.600522,8.251256Q16.576022000000002,8.19211,16.540455,8.138879Q16.504888,8.085649,16.459619,8.040381Q16.414351,7.995112,16.361121,7.959545Q16.30789,7.923978,16.248744,7.899478Q16.189598,7.874979,16.126809,7.86249Q16.0640194,7.85,16,7.85Q15.9359806,7.85,15.873191,7.86249Q15.810402,7.874979,15.751256,7.899478Q15.69211,7.923978,15.638879,7.959545Q15.585649,7.995112,15.540381,8.040381Q15.495112,8.085649,15.459545,8.138879Q15.423978,8.19211,15.399478,8.251256Q15.374979,8.310402,15.36249,8.373191Q15.35,8.4359806,15.35,8.5Z" fill-rule="evenodd" fill="#FFFFFF" fill-opacity="1"/></g><g><path d="M12.66650390625,24.15L19.33317390625,24.15Q19.39719390625,24.15,19.45997390625,24.13751Q19.52276390625,24.125021,19.58191390625,24.100522Q19.64106390625,24.076022000000002,19.69429390625,24.040455Q19.74752390625,24.004888,19.79279390625,23.959619Q19.83805390625,23.914351,19.87362390625,23.861121Q19.90919390625,23.80789,19.93369390625,23.748744Q19.95819390625,23.689598,19.97068390625,23.626809Q19.983173906250002,23.5640194,19.983173906250002,23.5Q19.983173906250002,23.4359806,19.97068390625,23.373191Q19.95819390625,23.310402,19.93369390625,23.251256Q19.90919390625,23.19211,19.87362390625,23.138879Q19.83805390625,23.085649,19.79279390625,23.040381Q19.74752390625,22.995112,19.69429390625,22.959545Q19.64106390625,22.923977999999998,19.58191390625,22.899478Q19.52276390625,22.874979,19.45997390625,22.86249Q19.39719390625,22.85,19.33317390625,22.85L12.66650390625,22.85Q12.60248450625,22.85,12.53969490625,22.86249Q12.47690590625,22.874979,12.41775990625,22.899478Q12.35861390625,22.923977999999998,12.30538290625,22.959545Q12.25215290625,22.995112,12.20688490625,23.040381Q12.16161590625,23.085649,12.12604890625,23.138879Q12.09048190625,23.19211,12.06598190625,23.251256Q12.04148290625,23.310402,12.02899390625,23.373191Q12.01650390625,23.4359806,12.01650390625,23.5Q12.01650390625,23.5640194,12.02899390625,23.626809Q12.04148290625,23.689598,12.06598190625,23.748744Q12.09048190625,23.80789,12.12604890625,23.861121Q12.16161590625,23.914351,12.20688490625,23.959619Q12.25215290625,24.004888,12.30538290625,24.040455Q12.35861390625,24.076022000000002,12.41775990625,24.100522Q12.47690590625,24.125021,12.53969490625,24.13751Q12.60248450625,24.15,12.66650390625,24.15Z" fill-rule="evenodd" fill="#FFFFFF" fill-opacity="1"/></g></g></g></svg>