<svg xmlns="http://www.w3.org/2000/svg" xmlns:xlink="http://www.w3.org/1999/xlink" fill="none" version="1.1" width="14" height="14" viewBox="0 0 14 14"><defs><clipPath id="master_svg0_517_01269"><rect x="0" y="0" width="14" height="14" rx="0"/></clipPath></defs><g clip-path="url(#master_svg0_517_01269)"><g><path d="M1.400146484375,2.9L12.600146484375,2.9Q12.659246484375,2.9,12.717246484375,2.911529Q12.775146484375,2.923058,12.829746484375,2.945672Q12.884346484375,2.968287,12.933446484375,3.001118Q12.982646484375,3.03395,13.024446484375,3.075736Q13.066146484375,3.117522,13.099046484375,3.166658Q13.131846484375,3.215793,13.154446484375,3.27039Q13.177046484375,3.324986,13.188646484375,3.382946Q13.200146484375,3.4409052,13.200146484375,3.5Q13.200146484375,3.5590948,13.188646484375,3.617054Q13.177046484375,3.675014,13.154446484375,3.72961Q13.131846484375,3.784207,13.099046484375,3.833342Q13.066146484375,3.882478,13.024446484375,3.924264Q12.982646484375,3.96605,12.933446484375,3.998882Q12.884346484375,4.031713,12.829746484375,4.054328Q12.775146484375,4.076942,12.717246484375,4.088471Q12.659246484375,4.1,12.600146484375,4.1L1.400146484375,4.1Q1.341051684375,4.1,1.283092484375,4.088471Q1.225132484375,4.076942,1.170536484375,4.054328Q1.1159394843750001,4.031713,1.066804484375,3.998882Q1.0176684843750001,3.96605,0.975882484375,3.924264Q0.9340964843749999,3.882478,0.901264484375,3.833342Q0.868433484375,3.784207,0.845818484375,3.72961Q0.823204484375,3.675014,0.811675484375,3.617054Q0.800146484375,3.5590948,0.800146484375,3.5Q0.800146484375,3.4409052,0.811675484375,3.382946Q0.823204484375,3.324986,0.845818484375,3.27039Q0.868433484375,3.215793,0.901264484375,3.166658Q0.9340964843749999,3.117522,0.975882484375,3.075736Q1.0176684843750001,3.03395,1.066804484375,3.001118Q1.1159394843750001,2.968287,1.170536484375,2.945672Q1.225132484375,2.923058,1.283092484375,2.911529Q1.341051684375,2.9,1.400146484375,2.9Z" fill-rule="evenodd" fill="#595959" fill-opacity="1"/></g><g><path d="M1.400146484375,9.9L12.600146484375,9.9Q12.659246484375,9.9,12.717246484375,9.911529Q12.775146484375,9.923058,12.829746484375,9.945672Q12.884346484375,9.968287,12.933446484375,10.001118Q12.982646484375,10.03395,13.024446484375,10.075736Q13.066146484375,10.117522,13.099046484375,10.166658Q13.131846484375,10.215793,13.154446484375,10.27039Q13.177046484375,10.324985999999999,13.188646484375,10.382946Q13.200146484375,10.4409052,13.200146484375,10.5Q13.200146484375,10.5590948,13.188646484375,10.617054Q13.177046484375,10.675014000000001,13.154446484375,10.72961Q13.131846484375,10.784207,13.099046484375,10.833342Q13.066146484375,10.882478,13.024446484375,10.924264Q12.982646484375,10.96605,12.933446484375,10.998882Q12.884346484375,11.031713,12.829746484375,11.054328Q12.775146484375,11.076942,12.717246484375,11.088471Q12.659246484375,11.1,12.600146484375,11.1L1.400146484375,11.1Q1.341051684375,11.1,1.283092484375,11.088471Q1.225132484375,11.076942,1.170536484375,11.054328Q1.1159394843750001,11.031713,1.066804484375,10.998882Q1.0176684843750001,10.96605,0.975882484375,10.924264Q0.9340964843749999,10.882478,0.901264484375,10.833342Q0.868433484375,10.784207,0.845818484375,10.72961Q0.823204484375,10.675014000000001,0.811675484375,10.617054Q0.800146484375,10.5590948,0.800146484375,10.5Q0.800146484375,10.4409052,0.811675484375,10.382946Q0.823204484375,10.324985999999999,0.845818484375,10.27039Q0.868433484375,10.215793,0.901264484375,10.166658Q0.9340964843749999,10.117522,0.975882484375,10.075736Q1.0176684843750001,10.03395,1.066804484375,10.001118Q1.1159394843750001,9.968287,1.170536484375,9.945672Q1.225132484375,9.923058,1.283092484375,9.911529Q1.341051684375,9.9,1.400146484375,9.9Z" fill-rule="evenodd" fill="#595959" fill-opacity="1"/></g><g><path d="M2.9,1.4000244140625Q2.9,1.3409296140625,2.911529,1.2829704140625Q2.923058,1.2250104140625,2.945672,1.1704144140625Q2.968287,1.1158174140625001,3.001118,1.0666824140625Q3.03395,1.0175464140625001,3.075736,0.9757604140625Q3.117522,0.9339744140624999,3.166658,0.9011424140625Q3.215793,0.8683114140625,3.27039,0.8456964140625Q3.324986,0.8230824140625,3.382946,0.8115534140625Q3.4409052,0.8000244140625,3.5,0.8000244140625Q3.5590948,0.8000244140625,3.617054,0.8115534140625Q3.675014,0.8230824140625,3.72961,0.8456964140625Q3.784207,0.8683114140625,3.833342,0.9011424140625Q3.882478,0.9339744140624999,3.924264,0.9757604140625Q3.96605,1.0175464140625001,3.998882,1.0666824140625Q4.031713,1.1158174140625001,4.054328,1.1704144140625Q4.076942,1.2250104140625,4.088471,1.2829704140625Q4.1,1.3409296140625,4.1,1.4000244140625L4.1,12.6000244140625Q4.1,12.6591244140625,4.088471,12.7171244140625Q4.076942,12.7750244140625,4.054328,12.8296244140625Q4.031713,12.8842244140625,3.998882,12.9333244140625Q3.96605,12.9825244140625,3.924264,13.0243244140625Q3.882478,13.0660244140625,3.833342,13.0989244140625Q3.784207,13.1317244140625,3.72961,13.1543244140625Q3.675014,13.1769244140625,3.617054,13.1885244140625Q3.5590948,13.2000244140625,3.5,13.2000244140625Q3.4409052,13.2000244140625,3.382946,13.1885244140625Q3.324986,13.1769244140625,3.27039,13.1543244140625Q3.215793,13.1317244140625,3.166658,13.0989244140625Q3.117522,13.0660244140625,3.075736,13.0243244140625Q3.03395,12.9825244140625,3.001118,12.9333244140625Q2.968287,12.8842244140625,2.945672,12.8296244140625Q2.923058,12.7750244140625,2.911529,12.7171244140625Q2.9,12.6591244140625,2.9,12.6000244140625L2.9,1.4000244140625Z" fill-rule="evenodd" fill="#595959" fill-opacity="1"/></g><g><path d="M9.9,1.4000244140625Q9.9,1.3409296140625,9.911529,1.2829704140625Q9.923058,1.2250104140625,9.945672,1.1704144140625Q9.968287,1.1158174140625001,10.001118,1.0666824140625Q10.03395,1.0175464140625001,10.075736,0.9757604140625Q10.117522,0.9339744140624999,10.166658,0.9011424140625Q10.215793,0.8683114140625,10.27039,0.8456964140625Q10.324985999999999,0.8230824140625,10.382946,0.8115534140625Q10.4409052,0.8000244140625,10.5,0.8000244140625Q10.5590948,0.8000244140625,10.617054,0.8115534140625Q10.675014000000001,0.8230824140625,10.72961,0.8456964140625Q10.784207,0.8683114140625,10.833342,0.9011424140625Q10.882478,0.9339744140624999,10.924264,0.9757604140625Q10.96605,1.0175464140625001,10.998882,1.0666824140625Q11.031713,1.1158174140625001,11.054328,1.1704144140625Q11.076942,1.2250104140625,11.088471,1.2829704140625Q11.1,1.3409296140625,11.1,1.4000244140625L11.1,12.6000244140625Q11.1,12.6591244140625,11.088471,12.7171244140625Q11.076942,12.7750244140625,11.054328,12.8296244140625Q11.031713,12.8842244140625,10.998882,12.9333244140625Q10.96605,12.9825244140625,10.924264,13.0243244140625Q10.882478,13.0660244140625,10.833342,13.0989244140625Q10.784207,13.1317244140625,10.72961,13.1543244140625Q10.675014000000001,13.1769244140625,10.617054,13.1885244140625Q10.5590948,13.2000244140625,10.5,13.2000244140625Q10.4409052,13.2000244140625,10.382946,13.1885244140625Q10.324985999999999,13.1769244140625,10.27039,13.1543244140625Q10.215793,13.1317244140625,10.166658,13.0989244140625Q10.117522,13.0660244140625,10.075736,13.0243244140625Q10.03395,12.9825244140625,10.001118,12.9333244140625Q9.968287,12.8842244140625,9.945672,12.8296244140625Q9.923058,12.7750244140625,9.911529,12.7171244140625Q9.9,12.6591244140625,9.9,12.6000244140625L9.9,1.4000244140625Z" fill-rule="evenodd" fill="#595959" fill-opacity="1"/></g></g></svg>