<svg xmlns="http://www.w3.org/2000/svg" xmlns:xlink="http://www.w3.org/1999/xlink" fill="none" version="1.1" width="14" height="14" viewBox="0 0 14 14"><defs><clipPath id="master_svg0_517_01273"><rect x="0" y="0" width="14" height="14" rx="0"/></clipPath></defs><g clip-path="url(#master_svg0_517_01273)"><g><path d="M1.15,1.75L1.15,12.25Q1.15,12.3091,1.161529,12.3671Q1.1730580000000002,12.425,1.195672,12.4796Q1.2182870000000001,12.5342,1.251118,12.5833Q1.28395,12.6325,1.325736,12.6743Q1.3675220000000001,12.716,1.416658,12.7489Q1.4657930000000001,12.7817,1.52039,12.8043Q1.574986,12.8269,1.632946,12.8385Q1.6909052,12.85,1.75,12.85L12.25,12.85Q12.3091,12.85,12.3671,12.8385Q12.425,12.8269,12.4796,12.8043Q12.5342,12.7817,12.5833,12.7489Q12.6325,12.716,12.6743,12.6743Q12.716,12.6325,12.7489,12.5833Q12.7817,12.5342,12.8043,12.4796Q12.8269,12.425,12.8385,12.3671Q12.85,12.3091,12.85,12.25L12.85,1.75Q12.85,1.6909052,12.8385,1.632946Q12.8269,1.574986,12.8043,1.52039Q12.7817,1.4657930000000001,12.7489,1.416658Q12.716,1.3675220000000001,12.6743,1.325736Q12.6325,1.28395,12.5833,1.251118Q12.5342,1.2182870000000001,12.4796,1.195672Q12.425,1.1730580000000002,12.3671,1.161529Q12.3091,1.15,12.25,1.15L1.75,1.15Q1.6909052,1.15,1.632946,1.161529Q1.574986,1.1730580000000002,1.52039,1.195672Q1.4657930000000001,1.2182870000000001,1.416658,1.251118Q1.3675220000000001,1.28395,1.325736,1.325736Q1.28395,1.3675220000000001,1.251118,1.416658Q1.2182870000000001,1.4657930000000001,1.195672,1.52039Q1.1730580000000002,1.574986,1.161529,1.632946Q1.15,1.6909052,1.15,1.75ZM2.35,11.65L2.35,2.35L11.65,2.35L11.65,11.65L2.35,11.65Z" fill-rule="evenodd" fill="#595959" fill-opacity="1"/></g><g><path d="M1.75,9.025L12.25,9.025Q12.3091,9.025,12.3671,9.036529Q12.425,9.048058,12.4796,9.070672Q12.5342,9.093287,12.5833,9.126118Q12.6325,9.15895,12.6743,9.200736Q12.716,9.242522,12.7489,9.291658Q12.7817,9.340793,12.8043,9.39539Q12.8269,9.449985999999999,12.8385,9.507946Q12.85,9.5659052,12.85,9.625Q12.85,9.6840948,12.8385,9.742054Q12.8269,9.800014000000001,12.8043,9.85461Q12.7817,9.909207,12.7489,9.958342Q12.716,10.007478,12.6743,10.049264Q12.6325,10.09105,12.5833,10.123882Q12.5342,10.156713,12.4796,10.179328Q12.425,10.201942,12.3671,10.213471Q12.3091,10.225,12.25,10.225L1.75,10.225Q1.6909052,10.225,1.632946,10.213471Q1.574986,10.201942,1.52039,10.179328Q1.4657930000000001,10.156713,1.416658,10.123882Q1.3675220000000001,10.09105,1.325736,10.049264Q1.28395,10.007478,1.251118,9.958342Q1.2182870000000001,9.909207,1.195672,9.85461Q1.1730580000000002,9.800014000000001,1.161529,9.742054Q1.15,9.6840948,1.15,9.625Q1.15,9.5659052,1.161529,9.507946Q1.1730580000000002,9.449985999999999,1.195672,9.39539Q1.2182870000000001,9.340793,1.251118,9.291658Q1.28395,9.242522,1.325736,9.200736Q1.3675220000000001,9.15895,1.416658,9.126118Q1.4657930000000001,9.093287,1.52039,9.070672Q1.574986,9.048058,1.632946,9.036529Q1.6909052,9.025,1.75,9.025Z" fill-rule="evenodd" fill="#595959" fill-opacity="1"/></g><g><path d="M1.75,6.4L12.25,6.4Q12.3091,6.4,12.3671,6.411529Q12.425,6.423058,12.4796,6.445672Q12.5342,6.468287,12.5833,6.501118Q12.6325,6.53395,12.6743,6.575736Q12.716,6.617522,12.7489,6.666658Q12.7817,6.715793,12.8043,6.77039Q12.8269,6.824986,12.8385,6.882946Q12.85,6.9409051999999996,12.85,7Q12.85,7.0590948000000004,12.8385,7.117054Q12.8269,7.175014,12.8043,7.22961Q12.7817,7.284207,12.7489,7.333342Q12.716,7.382478,12.6743,7.424264Q12.6325,7.46605,12.5833,7.498882Q12.5342,7.531713,12.4796,7.554328Q12.425,7.576942,12.3671,7.588471Q12.3091,7.6,12.25,7.6L1.75,7.6Q1.6909052,7.6,1.632946,7.588471Q1.574986,7.576942,1.52039,7.554328Q1.4657930000000001,7.531713,1.416658,7.498882Q1.3675220000000001,7.46605,1.325736,7.424264Q1.28395,7.382478,1.251118,7.333342Q1.2182870000000001,7.284207,1.195672,7.22961Q1.1730580000000002,7.175014,1.161529,7.117054Q1.15,7.0590948000000004,1.15,7Q1.15,6.9409051999999996,1.161529,6.882946Q1.1730580000000002,6.824986,1.195672,6.77039Q1.2182870000000001,6.715793,1.251118,6.666658Q1.28395,6.617522,1.325736,6.575736Q1.3675220000000001,6.53395,1.416658,6.501118Q1.4657930000000001,6.468287,1.52039,6.445672Q1.574986,6.423058,1.632946,6.411529Q1.6909052,6.4,1.75,6.4Z" fill-rule="evenodd" fill="#595959" fill-opacity="1"/></g><g><path d="M1.75,3.775L12.25,3.775Q12.3091,3.775,12.3671,3.786529Q12.425,3.798058,12.4796,3.820672Q12.5342,3.843287,12.5833,3.876118Q12.6325,3.90895,12.6743,3.950736Q12.716,3.992522,12.7489,4.041658Q12.7817,4.090793,12.8043,4.14539Q12.8269,4.199986,12.8385,4.257946Q12.85,4.3159051999999996,12.85,4.375Q12.85,4.4340948000000004,12.8385,4.492054Q12.8269,4.550014,12.8043,4.60461Q12.7817,4.659207,12.7489,4.708342Q12.716,4.757478,12.6743,4.799264Q12.6325,4.84105,12.5833,4.873882Q12.5342,4.906713,12.4796,4.929328Q12.425,4.951942,12.3671,4.963471Q12.3091,4.975,12.25,4.975L1.75,4.975Q1.6909052,4.975,1.632946,4.963471Q1.574986,4.951942,1.52039,4.929328Q1.4657930000000001,4.906713,1.416658,4.873882Q1.3675220000000001,4.84105,1.325736,4.799264Q1.28395,4.757478,1.251118,4.708342Q1.2182870000000001,4.659207,1.195672,4.60461Q1.1730580000000002,4.550014,1.161529,4.492054Q1.15,4.4340948000000004,1.15,4.375Q1.15,4.3159051999999996,1.161529,4.257946Q1.1730580000000002,4.199986,1.195672,4.14539Q1.2182870000000001,4.090793,1.251118,4.041658Q1.28395,3.992522,1.325736,3.950736Q1.3675220000000001,3.90895,1.416658,3.876118Q1.4657930000000001,3.843287,1.52039,3.820672Q1.574986,3.798058,1.632946,3.786529Q1.6909052,3.775,1.75,3.775Z" fill-rule="evenodd" fill="#595959" fill-opacity="1"/></g><g><path d="M9.025,1.75Q9.025,1.6909052,9.036529,1.632946Q9.048058,1.574986,9.070672,1.52039Q9.093287,1.4657930000000001,9.126118,1.416658Q9.15895,1.3675220000000001,9.200736,1.325736Q9.242522,1.28395,9.291658,1.251118Q9.340793,1.2182870000000001,9.39539,1.195672Q9.449985999999999,1.1730580000000002,9.507946,1.161529Q9.5659052,1.15,9.625,1.15Q9.6840948,1.15,9.742054,1.161529Q9.800014000000001,1.1730580000000002,9.85461,1.195672Q9.909207,1.2182870000000001,9.958342,1.251118Q10.007478,1.28395,10.049264,1.325736Q10.09105,1.3675220000000001,10.123882,1.416658Q10.156713,1.4657930000000001,10.179328,1.52039Q10.201942,1.574986,10.213471,1.632946Q10.225,1.6909052,10.225,1.75L10.225,12.25Q10.225,12.3091,10.213471,12.3671Q10.201942,12.425,10.179328,12.4796Q10.156713,12.5342,10.123882,12.5833Q10.09105,12.6325,10.049264,12.6743Q10.007478,12.716,9.958342,12.7489Q9.909207,12.7817,9.85461,12.8043Q9.800014000000001,12.8269,9.742054,12.8385Q9.6840948,12.85,9.625,12.85Q9.5659052,12.85,9.507946,12.8385Q9.449985999999999,12.8269,9.39539,12.8043Q9.340793,12.7817,9.291658,12.7489Q9.242522,12.716,9.200736,12.6743Q9.15895,12.6325,9.126118,12.5833Q9.093287,12.5342,9.070672,12.4796Q9.048058,12.425,9.036529,12.3671Q9.025,12.3091,9.025,12.25L9.025,1.75Z" fill-rule="evenodd" fill="#595959" fill-opacity="1"/></g><g><path d="M6.4,1.75Q6.4,1.6909052,6.411529,1.632946Q6.423058,1.574986,6.445672,1.52039Q6.468287,1.4657930000000001,6.501118,1.416658Q6.53395,1.3675220000000001,6.575736,1.325736Q6.617522,1.28395,6.666658,1.251118Q6.715793,1.2182870000000001,6.77039,1.195672Q6.824986,1.1730580000000002,6.882946,1.161529Q6.9409051999999996,1.15,7,1.15Q7.0590948000000004,1.15,7.117054,1.161529Q7.175014,1.1730580000000002,7.22961,1.195672Q7.284207,1.2182870000000001,7.333342,1.251118Q7.382478,1.28395,7.424264,1.325736Q7.46605,1.3675220000000001,7.498882,1.416658Q7.531713,1.4657930000000001,7.554328,1.52039Q7.576942,1.574986,7.588471,1.632946Q7.6,1.6909052,7.6,1.75L7.6,12.25Q7.6,12.3091,7.588471,12.3671Q7.576942,12.425,7.554328,12.4796Q7.531713,12.5342,7.498882,12.5833Q7.46605,12.6325,7.424264,12.6743Q7.382478,12.716,7.333342,12.7489Q7.284207,12.7817,7.22961,12.8043Q7.175014,12.8269,7.117054,12.8385Q7.0590948000000004,12.85,7,12.85Q6.9409051999999996,12.85,6.882946,12.8385Q6.824986,12.8269,6.77039,12.8043Q6.715793,12.7817,6.666658,12.7489Q6.617522,12.716,6.575736,12.6743Q6.53395,12.6325,6.501118,12.5833Q6.468287,12.5342,6.445672,12.4796Q6.423058,12.425,6.411529,12.3671Q6.4,12.3091,6.4,12.25L6.4,1.75Z" fill-rule="evenodd" fill="#595959" fill-opacity="1"/></g><g><path d="M3.775,1.75Q3.775,1.6909052,3.786529,1.632946Q3.798058,1.574986,3.820672,1.52039Q3.843287,1.4657930000000001,3.876118,1.416658Q3.90895,1.3675220000000001,3.950736,1.325736Q3.992522,1.28395,4.041658,1.251118Q4.090793,1.2182870000000001,4.14539,1.195672Q4.199986,1.1730580000000002,4.257946,1.161529Q4.3159051999999996,1.15,4.375,1.15Q4.4340948000000004,1.15,4.492054,1.161529Q4.550014,1.1730580000000002,4.60461,1.195672Q4.659207,1.2182870000000001,4.708342,1.251118Q4.757478,1.28395,4.799264,1.325736Q4.84105,1.3675220000000001,4.873882,1.416658Q4.906713,1.4657930000000001,4.929328,1.52039Q4.951942,1.574986,4.963471,1.632946Q4.975,1.6909052,4.975,1.75L4.975,12.25Q4.975,12.3091,4.963471,12.3671Q4.951942,12.425,4.929328,12.4796Q4.906713,12.5342,4.873882,12.5833Q4.84105,12.6325,4.799264,12.6743Q4.757478,12.716,4.708342,12.7489Q4.659207,12.7817,4.60461,12.8043Q4.550014,12.8269,4.492054,12.8385Q4.4340948000000004,12.85,4.375,12.85Q4.3159051999999996,12.85,4.257946,12.8385Q4.199986,12.8269,4.14539,12.8043Q4.090793,12.7817,4.041658,12.7489Q3.992522,12.716,3.950736,12.6743Q3.90895,12.6325,3.876118,12.5833Q3.843287,12.5342,3.820672,12.4796Q3.798058,12.425,3.786529,12.3671Q3.775,12.3091,3.775,12.25L3.775,1.75Z" fill-rule="evenodd" fill="#595959" fill-opacity="1"/></g></g></svg>