<svg xmlns="http://www.w3.org/2000/svg" xmlns:xlink="http://www.w3.org/1999/xlink" fill="none" version="1.1" width="32" height="32" viewBox="0 0 32 32"><defs><clipPath id="master_svg0_11_0194"><rect x="0" y="0" width="32" height="32" rx="4"/></clipPath><clipPath id="master_svg1_39_775"><rect x="6" y="6" width="20" height="20" rx="0"/></clipPath></defs><g clip-path="url(#master_svg0_11_0194)"><g clip-path="url(#master_svg1_39_775)"><g transform="matrix(-0.7071067690849304,0.7071067690849304,-0.7071067690849304,-0.7071067690849304,44.394567864073906,0.8865585111198016)"><path d="M22.013671875,8.9376953125L40.013671875,8.9376953125Q40.082571875,8.9376953125,40.150271875,8.9511453125Q40.217871875,8.9645963125,40.281571875,8.9909793125Q40.345271875,9.0173633125,40.402571875,9.0556663125Q40.459871875000005,9.0939703125,40.508671875000005,9.1427203125Q40.557371875,9.1914713125,40.595671875,9.2487963125Q40.633971875,9.3061213125,40.660371874999996,9.3698173125Q40.686771875000005,9.4335133125,40.700171874999995,9.5011323125Q40.713671875,9.5687513125,40.713671875,9.6376953125Q40.713671875,9.7066393125,40.700171874999995,9.7742583125Q40.686771875000005,9.8418773125,40.660371874999996,9.9055733125Q40.633971875,9.9692693125,40.595671875,10.0265943125Q40.557371875,10.0839193125,40.508671875000005,10.1326703125Q40.459871875000005,10.1814203125,40.402571875,10.2197243125Q40.345271875,10.2580273125,40.281571875,10.2844113125Q40.217871875,10.3107943125,40.150271875,10.3242453125Q40.082571875,10.3376953125,40.013671875,10.3376953125L22.013671875,10.3376953125Q21.944727875,10.3376953125,21.877108875,10.3242453125Q21.809489875,10.3107943125,21.745793875,10.2844113125Q21.682097875,10.2580273125,21.624772875,10.2197243125Q21.567447875,10.1814203125,21.518696875,10.1326703125Q21.469946875,10.0839193125,21.431642875,10.0265943125Q21.393339875,9.9692693125,21.366955875,9.9055733125Q21.340572875,9.8418773125,21.327121875,9.7742583125Q21.313671875,9.7066393125,21.313671875,9.6376953125Q21.313671875,9.5687513125,21.327121875,9.5011323125Q21.340572875,9.4335133125,21.366955875,9.3698173125Q21.393339875,9.3061213125,21.431642875,9.2487963125Q21.469946875,9.1914713125,21.518696875,9.1427203125Q21.567447875,9.0939703125,21.624772875,9.0556663125Q21.682097875,9.0173633125,21.745793875,8.9909793125Q21.809489875,8.9645963125,21.877108875,8.9511453125Q21.944727875,8.9376953125,22.013671875,8.9376953125Z" fill-rule="evenodd" fill="#FFFFFF" fill-opacity="1"/></g><g><path d="M18,8.35L23,8.35Q23.06402,8.35,23.12681,8.36249Q23.1896,8.374979,23.248739999999998,8.399478Q23.30789,8.423978,23.36112,8.459545Q23.41435,8.495112,23.45962,8.540381Q23.50489,8.585649,23.54045,8.638879Q23.57602,8.69211,23.60052,8.751256Q23.62502,8.810402,23.63751,8.873191Q23.65,8.9359806,23.65,9L23.65,14Q23.65,14.06402,23.63751,14.126809999999999Q23.62502,14.1896,23.60052,14.24874Q23.57602,14.30789,23.54045,14.36112Q23.50489,14.414349999999999,23.45962,14.459620000000001Q23.41435,14.50489,23.36112,14.54045Q23.30789,14.57602,23.248739999999998,14.60052Q23.1896,14.62502,23.12681,14.637509999999999Q23.06402,14.65,23,14.65Q22.93598,14.65,22.87319,14.637509999999999Q22.8104,14.62502,22.751260000000002,14.60052Q22.69211,14.57602,22.63888,14.54045Q22.58565,14.50489,22.54038,14.459620000000001Q22.49511,14.414349999999999,22.45954,14.36112Q22.42398,14.30789,22.39948,14.24874Q22.37498,14.1896,22.36249,14.126809999999999Q22.35,14.06402,22.35,14L22.35,9.65L18,9.65Q17.9359806,9.65,17.873191,9.63751Q17.810402,9.625021,17.751256,9.600522Q17.69211,9.576022,17.638879,9.540455Q17.585649,9.504888,17.540381,9.459619Q17.495112,9.414351,17.459545,9.361121Q17.423977999999998,9.30789,17.399478,9.248744Q17.374979,9.189598,17.36249,9.126809Q17.35,9.0640194,17.35,9Q17.35,8.9359806,17.36249,8.873191Q17.374979,8.810402,17.399478,8.751256Q17.423977999999998,8.69211,17.459545,8.638879Q17.495112,8.585649,17.540381,8.540381Q17.585649,8.495112,17.638879,8.459545Q17.69211,8.423978,17.751256,8.399478Q17.810402,8.374979,17.873191,8.36249Q17.9359806,8.35,18,8.35Z" fill-rule="evenodd" fill="#FFFFFF" fill-opacity="1"/></g></g></g></svg>