<svg xmlns="http://www.w3.org/2000/svg" xmlns:xlink="http://www.w3.org/1999/xlink" fill="none" version="1.1" width="20" height="20" viewBox="0 0 20 20"><defs><clipPath id="master_svg0_39_739"><rect x="0" y="0" width="20" height="20" rx="0"/></clipPath></defs><g clip-path="url(#master_svg0_39_739)"><g><path d="M10.59277,5.47783203125L16.592599999999997,5.47783203125Q16.6615,5.47783203125,16.729100000000003,5.46438203125Q16.7967,5.45093103125,16.8604,5.42454803125Q16.9241,5.39816403125,16.9815,5.35986103125Q17.038800000000002,5.32155703125,17.0875,5.27280703125Q17.1363,5.22405603125,17.174599999999998,5.16673103125Q17.212899999999998,5.10940603125,17.2393,5.04571003125Q17.265700000000002,4.98201403125,17.2791,4.91439503125Q17.2926,4.84677603125,17.2926,4.77783203125Q17.2926,4.70888803125,17.2791,4.64126903125Q17.265700000000002,4.57365003125,17.2393,4.50995403125Q17.212899999999998,4.44625803125,17.174599999999998,4.38893303125Q17.1363,4.33160803125,17.0875,4.28285703125Q17.038800000000002,4.23410703125,16.9815,4.19580303125Q16.9241,4.15750003125,16.8604,4.13111603125Q16.7967,4.10473303125,16.729100000000003,4.09128203125Q16.6615,4.07783203125,16.592599999999997,4.07783203125L10.59277,4.07783203125Q9.19174,4.07783203125,8.43117,4.83839933125Q7.67061,5.59896703125,7.67061,7.00000203125L7.67061,14.77783203125Q7.67061,15.17813203125,7.38734,15.46133203125Q7.10404,15.74453203125,6.70361,15.74453203125L2,15.74453203125Q1.9310559999999999,15.74453203125,1.863437,15.75803203125Q1.795818,15.77143203125,1.732122,15.79783203125Q1.668426,15.82423203125,1.6111010000000001,15.86253203125Q1.553776,15.90083203125,1.505025,15.94963203125Q1.456275,15.99833203125,1.417971,16.05563203125Q1.3796680000000001,16.11303203125,1.353284,16.176732031249998Q1.3269009999999999,16.240432031250002,1.31345,16.30803203125Q1.3,16.37563203125,1.3,16.44453203125Q1.3,16.51353203125,1.31345,16.58113203125Q1.3269009999999999,16.64873203125,1.353284,16.71243203125Q1.3796680000000001,16.77613203125,1.417971,16.83343203125Q1.456275,16.89083203125,1.505025,16.93953203125Q1.553776,16.98833203125,1.6111010000000001,17.02663203125Q1.668426,17.064932031250002,1.732122,17.091332031249998Q1.795818,17.11763203125,1.863437,17.13113203125Q1.9310559999999999,17.14453203125,2,17.14453203125L6.70361,17.14453203125Q7.68386,17.14453203125,8.377189999999999,16.45143203125Q9.07061,15.75813203125,9.07061,14.77783203125L9.07061,7.00000203125Q9.07061,6.17886203125,9.42112,5.82835203125Q9.77164,5.47783203125,10.59277,5.47783203125Z" fill-rule="evenodd" fill="#FFFFFF" fill-opacity="1"/></g><g><path d="M14.83026546875,1.540421L14.83022646875,1.540383Q14.73880346875,1.448958,14.61935246875,1.399479Q14.49990146875,1.350001,14.37060840166,1.35L14.37060546875,1.35Q14.35498606875,1.35,14.33938476875,1.3507500000000001Q14.21833046875,1.356571,14.10750846875,1.405627Q13.99668546875,1.454682,13.91098846875,1.540379Q13.72060546875,2.0156194,13.72135546875,2.0312207Q13.72717646875,2.152275,13.776232468749999,2.263097Q13.82528746875,2.37392,13.91098446875,2.459617L13.91102246875,2.459655L16.22912546875,4.77778L13.91109646875,7.09583L13.91098346875,7.09594Q13.81956046875,7.18737,13.77008346875,7.30682Q13.72060546875,7.42627,13.72060546875,7.55556Q13.72060646875,7.68485,13.77008546875,7.80431Q13.81956446875,7.92376,13.91098846875,8.01518Q14.00241246875,8.1066,14.12186346875,8.15608Q14.24131346875,8.20556,14.37060546875,8.20556Q14.49990046875,8.20556,14.61935246875,8.15608Q14.73880446875,8.1066,14.83022746875,8.015170000000001L14.83034046875,8.01506L17.60797546875,5.2373899999999995Q17.65324546875,5.19212,17.68881546875,5.13889Q17.72437546875,5.08566,17.74887546875,5.02652Q17.77337546875,4.96737,17.78586546875,4.90458Q17.79835546875,4.84179,17.79835546875,4.77777Q17.79835546875,4.713760000000001,17.78586546875,4.65097Q17.77337546875,4.5881799999999995,17.74887546875,4.5290300000000006Q17.72437546875,4.4698899999999995,17.68881546875,4.41666Q17.65324546875,4.36343,17.60797546875,4.318160000000001L14.83026546875,1.540421ZM13.72060546875,1.99999706709Q13.72060646875,1.870704,13.77008446875,1.751253Q13.81956346875,1.631802,13.91098846875,1.540379Q13.81956346875,1.631802,13.77008546875,1.751253Q13.72060646875,1.870704,13.72060546875,1.99999706709Z" fill-rule="evenodd" fill="#FFFFFF" fill-opacity="1"/></g></g></svg>