<svg xmlns="http://www.w3.org/2000/svg" xmlns:xlink="http://www.w3.org/1999/xlink" fill="none" version="1.1" width="108" height="24" viewBox="0 0 108 24"><defs><linearGradient x1="0.5" y1="0" x2="0.5" y2="1" id="master_svg0_89_556"><stop offset="0%" stop-color="#1878F5" stop-opacity="1"/><stop offset="100%" stop-color="#47F6FF" stop-opacity="1"/></linearGradient><linearGradient x1="0.5" y1="1" x2="0.5" y2="0" id="master_svg1_89_561"><stop offset="0%" stop-color="#46F7F1" stop-opacity="1"/><stop offset="100%" stop-color="#1878F5" stop-opacity="1"/></linearGradient></defs><g><g><path d="M39.275999999999996,15.57L39.275999999999996,17.046L44.082,17.046L44.082,17.91L37.26,17.91L37.26,19.548L52.704,19.548L52.704,17.91L45.918,17.91L45.918,17.046L50.85,17.046L50.85,15.57L45.918,15.57L45.918,14.364L44.082,14.364L44.082,15.57L39.275999999999996,15.57ZM38.646,3.780001L38.646,8.693999999999999L44.082,8.693999999999999L44.082,9.378L38.124,9.378L38.124,10.674L44.082,10.674L44.082,11.43L36.972,11.43L36.972,12.906L53.064,12.906L53.064,11.43L45.918,11.43L45.918,10.674L51.966,10.674L51.966,9.378L45.918,9.378L45.918,8.693999999999999L51.39,8.693999999999999L51.39,3.780001L38.646,3.780001ZM49.644,7.29L47.897999999999996,7.29C48.257999999999996,6.894,48.635999999999996,6.444,49.013999999999996,5.904L48.006,5.148L49.644,5.148L49.644,7.29ZM47.141999999999996,7.29L45.774,7.29L45.774,5.148L47.934,5.148C47.574,5.688000000000001,47.106,6.21,46.566,6.732L47.141999999999996,7.29ZM44.226,7.29L42.84,7.29L43.416,6.714C43.056,6.192,42.624,5.67,42.102000000000004,5.148L44.226,5.148L44.226,7.29ZM42.246,7.29L40.392,7.29L40.392,5.148L41.814,5.148L41.04,5.886C41.508,6.354,41.903999999999996,6.822,42.246,7.29ZM38.952,12.978C38.376,13.806,37.71,14.526,36.936,15.138L38.268,16.11C39.096000000000004,15.426,39.798,14.616,40.41,13.698L38.952,12.978ZM43.002,12.996L41.562,13.392C41.868,14.04,42.138,14.706,42.354,15.39L43.794,14.832C43.596000000000004,14.274,43.326,13.662,43.002,12.996ZM47.448,12.996L46.025999999999996,13.392C46.385999999999996,14.076,46.71,14.778,46.962,15.498L48.366,14.94C48.15,14.364,47.844,13.716,47.448,12.996ZM50.67,12.96L49.554,14.058C50.562,14.832,51.336,15.57,51.876,16.253999999999998L53.010000000000005,15.102C52.379999999999995,14.4,51.606,13.68,50.67,12.96ZM55.206,5.67L55.206,15.282L57.006,15.282L57.006,5.67L55.206,5.67ZM58.212,3.240001L58.212,11.952C58.176,15.03,57.204,17.262,55.260000000000005,18.666L56.646,19.908C58.842,18.234,59.958,15.588,60.012,11.952L60.012,3.240001L58.212,3.240001ZM60.876000000000005,3.780001L60.876000000000005,5.5440000000000005L65.088,5.5440000000000005L65.088,7.416L61.29,7.416L61.29,18.036L63.09,18.036L63.09,9.18L65.088,9.18L65.088,19.872L66.888,19.872L66.888,9.18L68.868,9.18L68.868,15.768C68.868,16.092,68.74199999999999,16.272,68.49000000000001,16.272L67.338,16.182000000000002L67.824,17.982L69.084,17.982C70.128,17.982,70.668,17.369999999999997,70.668,16.182000000000002L70.668,7.416L66.888,7.416L66.888,5.5440000000000005L71.064,5.5440000000000005L71.064,3.780001L60.876000000000005,3.780001ZM75.096,3.456L73.818,4.68C75.06,5.616,76.032,6.516,76.73400000000001,7.344L78.012,6.048C77.22,5.184,76.24799999999999,4.32,75.096,3.456ZM72.702,8.568L72.702,10.368L75.024,10.368L75.024,16.686C75.024,17.082,74.862,17.424,74.556,17.694000000000003L75.27600000000001,19.386C76.608,18.522,77.868,17.567999999999998,79.056,16.488L78.53399999999999,14.508C77.94,15.066,77.382,15.57,76.86,16.038L76.86,8.568L72.702,8.568ZM79.146,10.728L79.146,12.528L80.172,12.528C80.604,13.932,81.414,15.192,82.566,16.344C81.27000000000001,17.172,79.70400000000001,17.856,77.85,18.396L78.894,19.98C80.946,19.386,82.656,18.594,84.06,17.604C85.24799999999999,18.486,86.74199999999999,19.278,88.506,19.998L89.51400000000001,18.378C87.912,17.82,86.562,17.189999999999998,85.446,16.47C86.598,15.336,87.426,13.986,87.93,12.438L87.93,10.728L79.146,10.728ZM81.936,12.528L86.03999999999999,12.528C85.536,13.572,84.834,14.49,83.916,15.318C82.97999999999999,14.49,82.332,13.554,81.936,12.528ZM80.37,3.762001L80.37,6.21C80.37,7.38,79.596,8.280000000000001,78.084,8.91L79.344,10.35C81.25200000000001,9.341999999999999,82.22399999999999,7.884,82.22399999999999,6.0120000000000005L82.22399999999999,5.526L84.99600000000001,5.526L84.99600000000001,7.92C84.99600000000001,9.18,85.662,9.809999999999999,87.012,9.809999999999999L89.064,9.809999999999999L89.064,8.1L87.51599999999999,8.1C87.066,8.1,86.85,7.884,86.85,7.488L86.85,3.762001L80.37,3.762001ZM96.372,8.405999999999999L96.372,10.277999999999999L101.016,10.277999999999999L101.016,19.926L102.96,19.926L102.96,10.277999999999999L107.37,10.277999999999999L107.37,8.405999999999999L102.96,8.405999999999999L102.96,3.186001L101.016,3.186001L101.016,8.405999999999999L96.372,8.405999999999999ZM93.20400000000001,3.330001L91.872,4.6259999999999994C93.15,5.561999999999999,94.14,6.444,94.824,7.272L96.12,5.958C95.31,5.093999999999999,94.338,4.212,93.20400000000001,3.330001ZM90.702,8.532L90.702,10.332L93.168,10.332L93.168,16.722C93.168,17.1,93.006,17.424,92.682,17.694000000000003L93.402,19.386C94.73400000000001,18.522,95.976,17.55,97.146,16.47L96.66,14.544C96.066,15.102,95.50800000000001,15.606,94.98599999999999,16.055999999999997L94.98599999999999,8.532L90.702,8.532Z" fill="#262626" fill-opacity="1"/></g><g><g><g><path d="M12.7506,8.6448332421875L12.7506,10.0785632421875C12.7506,12.6744732421875,14.855,14.7787732421875,17.4509,14.7787732421875L17.4509,8.6448332421875C17.4509,4.1962632421875,13.7021,0.3875732421875,9.22544,0.3875732421875C4.79401,0.3875748324575,1,4.1508632421875,1,8.6448332421875L1.00000052805,18.0826732421875C1.00000067329,20.6784732421875,3.10437,22.7828732421875,5.70025,22.7828732421875L5.70025,8.6448332421875C5.70025,4.3971232421875,12.7506,4.096173242187501,12.7506,8.6448332421875Z" fill-rule="evenodd" fill="url(#master_svg0_89_556)" fill-opacity="1"/></g><g><path d="M26.7917,2.8062952734375C24.044600000000003,0.04854727343749998,19.54023,-0.3898947265625,16.31619,1.8378052734375C17.42561,2.9857052734375,18.25847,4.3961152734375,18.71502,5.9289052734375Q19.11705,5.5901352734375,19.60401,5.3833652734375Q20.25669,5.1062352734375,20.975450000000002,5.1062352734375Q21.694200000000002,5.1062352734375,22.346890000000002,5.3833652734375Q22.979100000000003,5.6518052734375,23.4681,6.1427352734375Q23.9572,6.6336752734375,24.224600000000002,7.2683152734375Q24.5006,7.9235252734375,24.5006,8.6450652734375L24.5006,15.3100052734375C24.5006,17.2446052734375,22.985500000000002,18.6436052734375,21.36635,18.6436052734375C19.72444,18.6436052734375,17.97147,17.9547052734375,17.45025,16.2733052734375C15.80516,16.2733052734375,13.220025,15.0937052734375,12.75,13.4423052734375L12.75,15.3100052734375C12.75,19.7585052734375,16.49879,23.6127052734375,20.97544,23.6127052734375C25.374499999999998,23.6127052734375,29.1455,19.8586052734375,29.2003,15.4082052734375L29.2009,15.4082052734375L29.2009,8.6450652734375Q29.2009,6.9666952734375,28.5535,5.4302452734375Q27.929000000000002,3.9479952734375,26.7917,2.8062952734375Z" fill-rule="evenodd" fill="url(#master_svg1_89_561)" fill-opacity="1"/></g></g></g></g></svg>