<svg xmlns="http://www.w3.org/2000/svg" xmlns:xlink="http://www.w3.org/1999/xlink" fill="none" version="1.1" width="20" height="20" viewBox="0 0 20 20"><defs><clipPath id="master_svg0_39_741"><rect x="0" y="0" width="20" height="20" rx="0"/></clipPath></defs><g clip-path="url(#master_svg0_39_741)"><g><path d="M1.85,17.5L1.85,2.5Q1.85,2.4359806,1.86249,2.373191Q1.874979,2.310402,1.899478,2.251256Q1.923978,2.19211,1.9595449999999999,2.138879Q1.995112,2.085649,2.040381,2.040381Q2.085649,1.995112,2.138879,1.9595449999999999Q2.19211,1.923978,2.251256,1.899478Q2.310402,1.874979,2.373191,1.86249Q2.4359806,1.85,2.5,1.85L17.5,1.85Q17.564,1.85,17.6268,1.86249Q17.6896,1.874979,17.7487,1.899478Q17.8079,1.923978,17.8611,1.9595449999999999Q17.9143,1.995112,17.959600000000002,2.040381Q18.0049,2.085649,18.0405,2.138879Q18.076,2.19211,18.1005,2.251256Q18.125,2.310402,18.1375,2.373191Q18.15,2.4359806,18.15,2.5L18.15,17.5Q18.15,17.564,18.1375,17.6268Q18.125,17.6896,18.1005,17.7487Q18.076,17.8079,18.0405,17.8611Q18.0049,17.9143,17.959600000000002,17.959600000000002Q17.9143,18.0049,17.8611,18.0405Q17.8079,18.076,17.7487,18.1005Q17.6896,18.125,17.6268,18.1375Q17.564,18.15,17.5,18.15L2.5,18.15Q2.4359806,18.15,2.373191,18.1375Q2.310402,18.125,2.251256,18.1005Q2.19211,18.076,2.138879,18.0405Q2.085649,18.0049,2.040381,17.959600000000002Q1.995112,17.9143,1.9595449999999999,17.8611Q1.923978,17.8079,1.899478,17.7487Q1.874979,17.6896,1.86249,17.6268Q1.85,17.564,1.85,17.5ZM3.15,3.15L3.15,16.85L16.85,16.85L16.85,3.15L3.15,3.15Z" fill="#FFFFFF" fill-opacity="1"/></g><g><path d="M7.63786,8.057668390625L12.9103,12.576915390625Q12.9987,12.652655390625,13.1078,12.693025390625Q13.217,12.733405390625,13.3333,12.733405390625Q13.3583,12.733405390625,13.3832,12.731485390625Q13.5121,12.721575390625,13.6274,12.663075390625Q13.7427,12.604585390625001,13.8268,12.506415390625001Q13.9026,12.418065390625,13.943,12.308915390625Q13.9833,12.199775390625,13.9833,12.083405390625Q13.9833,12.058435390625,13.9814,12.033545390625001Q13.9715,11.904635390625,13.913,11.789335390625Q13.8545,11.674025390625001,13.7563,11.589885390625L8.483889999999999,7.070634390625Q8.05659,6.704352390625,7.49383,6.713731390625Q6.93109,6.723110390625,6.51622,7.103434390625L2.061061,11.187325390625L2.060779,11.187585390625Q1.9600469999999999,11.279925390625,1.905024,11.405005390625Q1.85,11.530085390625,1.85,11.666735390625L1.850022,11.672135390625Q1.851025,11.792705390624999,1.8952010000000001,11.904895390625Q1.939377,12.017075390625,2.02085,12.105955390624999Q2.108216,12.201265390625,2.225405,12.255885390625Q2.342594,12.310505390625,2.4717655,12.316125390625Q2.485876,12.316735390625,2.5,12.316735390625L2.50299221,12.316725390624999Q2.624185,12.316165390624999,2.737034,12.271975390625Q2.849882,12.227775390625,2.939221,12.145885390625L2.939503,12.145625390625L7.3947,8.061702390625Q7.51447,7.951900390625,7.63786,8.057668390625Z" fill-rule="evenodd" fill="#FFFFFF" fill-opacity="1"/></g><g><path d="M17.10935390625,10.51973984375L17.10983390625,10.52010984375Q17.28317390625,10.65010984375,17.49983390625,10.65010984375L17.50556390625,10.65007984375Q17.54887390625,10.64969984375,17.59176390625,10.64356984375Q17.71975390625,10.62528984375,17.83100390625,10.55940984375Q17.94226390625,10.49353984375,18.01983390625,10.39009984375Q18.14983390625,10.21676984375,18.14983390625,10.00010984375L18.14981390625,9.99437984375Q18.14943390625,9.95105984375,18.14330390625,9.90817984375Q18.12501390625,9.78018984375,18.05914390625,9.66892984375Q17.99327390625,9.55767984375,17.88983390625,9.48009984375L17.889423906250002,9.47978984375L15.13471390625,7.41377084375Q14.69178390625,7.08159284375,14.13955390625,7.12082884375Q13.58730390625,7.16006484375,13.19584390625,7.55152684375L11.20700790625,9.54035984375L11.20688490625,9.54048984375Q11.11546090625,9.63190984375,11.06598190625,9.75135984375Q11.01650390625,9.87080984375,11.01650390625,10.00010984375Q11.01650390625,10.12939984375,11.06598190625,10.24884984375Q11.11546090625,10.36829984375,11.20688490625,10.45972984375Q11.29830890625,10.55114984375,11.41775990625,10.60062984375Q11.53721090625,10.65010984375,11.66650390625,10.65010984375Q11.79579690625,10.65010984375,11.91524790625,10.60062984375Q12.03469890625,10.55114984375,12.12612290625,10.45971984375L12.12635590625,10.45948984375L14.11508390625,8.47076684375Q14.22749390625,8.35835884375,14.35471390625,8.45377284375L17.10935390625,10.51973984375Z" fill-rule="evenodd" fill="#FFFFFF" fill-opacity="1"/></g></g></svg>