<svg xmlns="http://www.w3.org/2000/svg" xmlns:xlink="http://www.w3.org/1999/xlink" fill="none" version="1.1" width="32" height="32" viewBox="0 0 32 32"><defs><clipPath id="master_svg0_39_720"><rect x="0" y="0" width="32" height="32" rx="4"/></clipPath><clipPath id="master_svg1_39_741"><rect x="6" y="6" width="20" height="20" rx="0"/></clipPath></defs><g clip-path="url(#master_svg0_39_720)"><g clip-path="url(#master_svg1_39_741)"><g><path d="M7.85,23.5L7.85,8.5Q7.85,8.4359806,7.86249,8.373191Q7.874979,8.310402,7.899478,8.251256Q7.923978,8.19211,7.959545,8.138879Q7.995112,8.085649,8.040381,8.040381Q8.085649,7.995112,8.138879,7.959545Q8.19211,7.923978,8.251256,7.899478Q8.310402,7.874979,8.373191,7.86249Q8.4359806,7.85,8.5,7.85L23.5,7.85Q23.564,7.85,23.6268,7.86249Q23.6896,7.874979,23.7487,7.899478Q23.8079,7.923978,23.8611,7.959545Q23.9143,7.995112,23.959600000000002,8.040381Q24.0049,8.085649,24.0405,8.138879Q24.076,8.19211,24.1005,8.251256Q24.125,8.310402,24.1375,8.373191Q24.15,8.4359806,24.15,8.5L24.15,23.5Q24.15,23.564,24.1375,23.6268Q24.125,23.6896,24.1005,23.7487Q24.076,23.8079,24.0405,23.8611Q24.0049,23.9143,23.959600000000002,23.959600000000002Q23.9143,24.0049,23.8611,24.0405Q23.8079,24.076,23.7487,24.1005Q23.6896,24.125,23.6268,24.1375Q23.564,24.15,23.5,24.15L8.5,24.15Q8.4359806,24.15,8.373191,24.1375Q8.310402,24.125,8.251256,24.1005Q8.19211,24.076,8.138879,24.0405Q8.085649,24.0049,8.040381,23.959600000000002Q7.995112,23.9143,7.959545,23.8611Q7.923978,23.8079,7.899478,23.7487Q7.874979,23.6896,7.86249,23.6268Q7.85,23.564,7.85,23.5ZM9.15,9.15L9.15,22.85L22.85,22.85L22.85,9.15L9.15,9.15Z" fill="#FFFFFF" fill-opacity="1"/></g><g><path d="M13.63786,14.057668390625L18.9103,18.576915390625Q18.9987,18.652655390625,19.107799999999997,18.693025390625Q19.217,18.733405390625002,19.3333,18.733405390625002Q19.3583,18.733405390625002,19.383200000000002,18.731485390625Q19.5121,18.721575390625,19.6274,18.663075390625Q19.7427,18.604585390625,19.8268,18.506415390625Q19.9026,18.418065390625,19.942999999999998,18.308915390625Q19.9833,18.199775390625,19.9833,18.083405390625Q19.9833,18.058435390625,19.9814,18.033545390625Q19.9715,17.904635390625,19.913,17.789335390625Q19.8545,17.674025390625,19.7563,17.589885390625L14.483889999999999,13.070634390624999Q14.05659,12.704352390625,13.493829999999999,12.713731390625Q12.931090000000001,12.723110390625,12.51622,13.103434390625L8.061061,17.187325390625L8.060779,17.187585390625Q7.960047,17.279925390625,7.905024,17.405005390625Q7.85,17.530085390625,7.85,17.666735390625L7.850022,17.672135390625Q7.851025,17.792705390625,7.895201,17.904895390625Q7.939377,18.017075390625,8.02085,18.105955390625Q8.108216,18.201265390625,8.225405,18.255885390625Q8.342594,18.310505390625,8.4717655,18.316125390625Q8.485876,18.316735390625,8.5,18.316735390625L8.50299221,18.316725390625Q8.624185,18.316165390625,8.737034,18.271975390625002Q8.849882000000001,18.227775390625,8.939221,18.145885390625L8.939503,18.145625390625L13.3947,14.061702390625Q13.51447,13.951900390625,13.63786,14.057668390625Z" fill-rule="evenodd" fill="#FFFFFF" fill-opacity="1"/></g><g><path d="M23.10935390625,16.51973984375L23.10983390625,16.52010984375Q23.28317390625,16.650109843750002,23.49983390625,16.650109843750002L23.50556390625,16.65007984375Q23.54887390625,16.64969984375,23.59176390625,16.64356984375Q23.71975390625,16.62528984375,23.83100390625,16.55940984375Q23.94226390625,16.49353984375,24.01983390625,16.39009984375Q24.14983390625,16.21676984375,24.14983390625,16.00010984375L24.14981390625,15.99437984375Q24.14943390625,15.95105984375,24.14330390625,15.90817984375Q24.12501390625,15.78018984375,24.05914390625,15.66892984375Q23.99327390625,15.55767984375,23.88983390625,15.48009984375L23.889423906250002,15.47978984375L21.13471390625,13.41377084375Q20.69178390625,13.08159284375,20.13955390625,13.120828843750001Q19.58730390625,13.16006484375,19.19584390625,13.55152684375L17.20700790625,15.54035984375L17.20688490625,15.54048984375Q17.11546090625,15.63190984375,17.06598190625,15.75135984375Q17.01650390625,15.87080984375,17.01650390625,16.00010984375Q17.01650390625,16.12939984375,17.06598190625,16.24884984375Q17.11546090625,16.368299843750002,17.20688490625,16.45972984375Q17.29830890625,16.55114984375,17.41775990625,16.60062984375Q17.53721090625,16.650109843750002,17.66650390625,16.650109843750002Q17.79579690625,16.650109843750002,17.91524790625,16.60062984375Q18.03469890625,16.55114984375,18.12612290625,16.45971984375L18.12635590625,16.45948984375L20.11508390625,14.47076684375Q20.22749390625,14.35835884375,20.35471390625,14.45377284375L23.10935390625,16.51973984375Z" fill-rule="evenodd" fill="#FFFFFF" fill-opacity="1"/></g></g></g></svg>