<svg xmlns="http://www.w3.org/2000/svg" xmlns:xlink="http://www.w3.org/1999/xlink"
    xmlns:xhtml="http://www.w3.org/1999/xhtml" data-v-46cf0610="" data-v-a9142392="" width="102"
    height="41" viewBox="63 30 102 41" version="1.1" preserveAspectRatio="xMinYMin meet"
    overflow="visible" style="background-color: transparent;">
    <g style="transform:matrix(0.9999999999999999,0,0,1,63,30);">
        <g clip-path="url(#clippath-artboard-3782)">
            <svg xmlns="http://www.w3.org/2000/svg" xmlns:xlink="http://www.w3.org/1999/xlink"
                xmlns:xhtml="http://www.w3.org/1999/xhtml" preserveAspectRatio="xMinYMin meet"
                overflow="hidden" width="102" height="41" viewBox="0 0 102 41">
                <clipPath id="clippath-artboard-3782">
                    <path d="M 0 0 l 102 0 l 0 41 l -102 0 z" clip-rule="evenodd" />
                </clipPath>
                <g style="transform:matrix(1,0,0,1,0,0);">
                    <g style="transform:matrix(1,0,0,1,60,0);">
                        <g>
                            <filter id="spread37840" x="-20%" y="-20%" height="142.5%" width="145%"
                                color-interpolation-filters="sRGB">
                                <feFlood flood-opacity="0" result="BackgroundImageFix" />
                                <feColorMatrix in="SourceAlpha" type="matrix"
                                    values="0 0 0 0 0 0 0 0 0 0 0 0 0 0 0 0 0 0 127 0" />
                                <feOffset dx="2" dy="1" />
                                <feGaussianBlur stdDeviation="0" />
                                <feColorMatrix type="matrix"
                                    values="0 0 0 0 0 0 0 0 0 0 0 0 0 0 0 0 0 0 0.1 0"
                                    result="color0" />
                                <feBlend mode="normal" in2="BackgroundImageFix"
                                    result="effect1_dropShadow" />
                            </filter>
                            <g filter="url(#spread37840)"
                                style="transform-origin: left top; transform: translate(20px, 20px) scale(1, 1) translate(-20px, -20px) ">
                                <path
                                    d="M 19.999999999999996 0 L 20.000000000000004 0 C 31.045694996615868 0 40 8.954305003384132 40 19.999999999999996 L 40 20.000000000000004 C 40 31.045694996615868 31.045694996615868 40 20.000000000000004 40 L 19.999999999999996 40 C 8.954305003384132 40 0 31.045694996615868 0 20.000000000000004 L 0 19.999999999999996 C 0 8.954305003384132 8.954305003384132 0 19.999999999999996 0 Z"
                                    fill="black" />
                                <g>
                                    <clipPath id="clippath-border33154732">
                                        <path
                                            d="M 19.999999999999996 0 L 20.000000000000004 0 C 31.045694996615868 0 40 8.954305003384132 40 19.999999999999996 L 40 20.000000000000004 C 40 31.045694996615868 31.045694996615868 40 20.000000000000004 40 L 19.999999999999996 40 C 8.954305003384132 40 0 31.045694996615868 0 20.000000000000004 L 0 19.999999999999996 C 0 8.954305003384132 8.954305003384132 0 19.999999999999996 0 Z"
                                            clip-rule="evenodd" />
                                    </clipPath>
                                    <path
                                        d="M 19.999999999999996 0 L 20.000000000000004 0 C 31.045694996615868 0 40 8.954305003384132 40 19.999999999999996 L 40 20.000000000000004 C 40 31.045694996615868 31.045694996615868 40 20.000000000000004 40 L 19.999999999999996 40 C 8.954305003384132 40 0 31.045694996615868 0 20.000000000000004 L 0 19.999999999999996 C 0 8.954305003384132 8.954305003384132 0 19.999999999999996 0 Z"
                                        fill="none" stroke="rgba(0,0,0,1)" stroke-width="2"
                                        stroke-linejoin="miter"
                                        clip-path="url(#clippath-border33154732)" />
                                </g>
                            </g>
                        </g>
                        <g clip-path="url(#clippath-artboard-3784)">
                            <svg xmlns="http://www.w3.org/2000/svg"
                                xmlns:xlink="http://www.w3.org/1999/xlink"
                                xmlns:xhtml="http://www.w3.org/1999/xhtml"
                                preserveAspectRatio="xMinYMin meet" overflow="hidden" width="40"
                                height="40" viewBox="0 0 40 40">
                                <clipPath id="clippath-artboard-3784">
                                    <path
                                        d="M 19.999999999999996 0 L 20.000000000000004 0 C 31.045694996615868 0 40 8.954305003384132 40 19.999999999999996 L 40 20.000000000000004 C 40 31.045694996615868 31.045694996615868 40 20.000000000000004 40 L 19.999999999999996 40 C 8.954305003384132 40 0 31.045694996615868 0 20.000000000000004 L 0 19.999999999999996 C 0 8.954305003384132 8.954305003384132 0 19.999999999999996 0 Z"
                                        clip-rule="evenodd" />
                                </clipPath>
                                <path
                                    d="M 19.999999999999996 0 L 20.000000000000004 0 C 31.045694996615868 0 40 8.954305003384132 40 19.999999999999996 L 40 20.000000000000004 C 40 31.045694996615868 31.045694996615868 40 20.000000000000004 40 L 19.999999999999996 40 C 8.954305003384132 40 0 31.045694996615868 0 20.000000000000004 L 0 19.999999999999996 C 0 8.954305003384132 8.954305003384132 0 19.999999999999996 0 Z"
                                    fill="rgb(255,255,255)" fill-opacity="1" stroke="none"
                                    stroke-width="0" fill-rule="evenodd" />
                                <g style="transform:matrix(1,0,0,1,15,13);">
                                    <text x="0" y="12"
                                        style="font:normal 14px PingFang SC;alignment-baseline:baseline;font-weight:500;fill:rgba(51,51,51,1);">
                                        C</text>
                                </g>
                            </svg>
                        </g>
                        <g>
                            <clipPath id="clippath-border33152334">
                                <path
                                    d="M 19.999999999999996 0 L 20.000000000000004 0 C 31.045694996615868 0 40 8.954305003384132 40 19.999999999999996 L 40 20.000000000000004 C 40 31.045694996615868 31.045694996615868 40 20.000000000000004 40 L 19.999999999999996 40 C 8.954305003384132 40 0 31.045694996615868 0 20.000000000000004 L 0 19.999999999999996 C 0 8.954305003384132 8.954305003384132 0 19.999999999999996 0 Z"
                                    clip-rule="evenodd" />
                            </clipPath>
                            <path
                                d="M 19.999999999999996 0 L 20.000000000000004 0 C 31.045694996615868 0 40 8.954305003384132 40 19.999999999999996 L 40 20.000000000000004 C 40 31.045694996615868 31.045694996615868 40 20.000000000000004 40 L 19.999999999999996 40 C 8.954305003384132 40 0 31.045694996615868 0 20.000000000000004 L 0 19.999999999999996 C 0 8.954305003384132 8.954305003384132 0 19.999999999999996 0 Z"
                                fill="none" stroke="rgba(0,0,0,1)" stroke-width="2"
                                stroke-linejoin="miter" clip-path="url(#clippath-border33152334)" />
                        </g>
                    </g>
                    <g style="transform:matrix(1,0,0,1,30,0);">
                        <g>
                            <filter id="spread37860" x="-20%" y="-20%" height="142.5%" width="145%"
                                color-interpolation-filters="sRGB">
                                <feFlood flood-opacity="0" result="BackgroundImageFix" />
                                <feColorMatrix in="SourceAlpha" type="matrix"
                                    values="0 0 0 0 0 0 0 0 0 0 0 0 0 0 0 0 0 0 127 0" />
                                <feOffset dx="2" dy="1" />
                                <feGaussianBlur stdDeviation="0" />
                                <feColorMatrix type="matrix"
                                    values="0 0 0 0 0 0 0 0 0 0 0 0 0 0 0 0 0 0 0.1 0"
                                    result="color0" />
                                <feBlend mode="normal" in2="BackgroundImageFix"
                                    result="effect1_dropShadow" />
                            </filter>
                            <g filter="url(#spread37860)"
                                style="transform-origin: left top; transform: translate(20px, 20px) scale(1, 1) translate(-20px, -20px) ">
                                <path
                                    d="M 19.999999999999996 0 L 20.000000000000004 0 C 31.045694996615868 0 40 8.954305003384132 40 19.999999999999996 L 40 20.000000000000004 C 40 31.045694996615868 31.045694996615868 40 20.000000000000004 40 L 19.999999999999996 40 C 8.954305003384132 40 0 31.045694996615868 0 20.000000000000004 L 0 19.999999999999996 C 0 8.954305003384132 8.954305003384132 0 19.999999999999996 0 Z"
                                    fill="black" />
                                <g>
                                    <clipPath id="clippath-border3317183">
                                        <path
                                            d="M 19.999999999999996 0 L 20.000000000000004 0 C 31.045694996615868 0 40 8.954305003384132 40 19.999999999999996 L 40 20.000000000000004 C 40 31.045694996615868 31.045694996615868 40 20.000000000000004 40 L 19.999999999999996 40 C 8.954305003384132 40 0 31.045694996615868 0 20.000000000000004 L 0 19.999999999999996 C 0 8.954305003384132 8.954305003384132 0 19.999999999999996 0 Z"
                                            clip-rule="evenodd" />
                                    </clipPath>
                                    <path
                                        d="M 19.999999999999996 0 L 20.000000000000004 0 C 31.045694996615868 0 40 8.954305003384132 40 19.999999999999996 L 40 20.000000000000004 C 40 31.045694996615868 31.045694996615868 40 20.000000000000004 40 L 19.999999999999996 40 C 8.954305003384132 40 0 31.045694996615868 0 20.000000000000004 L 0 19.999999999999996 C 0 8.954305003384132 8.954305003384132 0 19.999999999999996 0 Z"
                                        fill="none" stroke="rgba(0,0,0,1)" stroke-width="2"
                                        stroke-linejoin="miter"
                                        clip-path="url(#clippath-border3317183)" />
                                </g>
                            </g>
                        </g>
                        <g clip-path="url(#clippath-artboard-3786)">
                            <svg xmlns="http://www.w3.org/2000/svg"
                                xmlns:xlink="http://www.w3.org/1999/xlink"
                                xmlns:xhtml="http://www.w3.org/1999/xhtml"
                                preserveAspectRatio="xMinYMin meet" overflow="hidden" width="40"
                                height="40" viewBox="0 0 40 40">
                                <clipPath id="clippath-artboard-3786">
                                    <path
                                        d="M 19.999999999999996 0 L 20.000000000000004 0 C 31.045694996615868 0 40 8.954305003384132 40 19.999999999999996 L 40 20.000000000000004 C 40 31.045694996615868 31.045694996615868 40 20.000000000000004 40 L 19.999999999999996 40 C 8.954305003384132 40 0 31.045694996615868 0 20.000000000000004 L 0 19.999999999999996 C 0 8.954305003384132 8.954305003384132 0 19.999999999999996 0 Z"
                                        clip-rule="evenodd" />
                                </clipPath>
                                <path
                                    d="M 19.999999999999996 0 L 20.000000000000004 0 C 31.045694996615868 0 40 8.954305003384132 40 19.999999999999996 L 40 20.000000000000004 C 40 31.045694996615868 31.045694996615868 40 20.000000000000004 40 L 19.999999999999996 40 C 8.954305003384132 40 0 31.045694996615868 0 20.000000000000004 L 0 19.999999999999996 C 0 8.954305003384132 8.954305003384132 0 19.999999999999996 0 Z"
                                    fill="rgb(255,255,255)" fill-opacity="1" stroke="none"
                                    stroke-width="0" fill-rule="evenodd" />
                                <g style="transform:matrix(1,0,0,1,15,13);">
                                    <text x="0" y="12"
                                        style="font:normal 14px PingFang SC;alignment-baseline:baseline;font-weight:500;fill:rgba(51,51,51,1);">
                                        B</text>
                                </g>
                            </svg>
                        </g>
                        <g>
                            <clipPath id="clippath-border33173647">
                                <path
                                    d="M 19.999999999999996 0 L 20.000000000000004 0 C 31.045694996615868 0 40 8.954305003384132 40 19.999999999999996 L 40 20.000000000000004 C 40 31.045694996615868 31.045694996615868 40 20.000000000000004 40 L 19.999999999999996 40 C 8.954305003384132 40 0 31.045694996615868 0 20.000000000000004 L 0 19.999999999999996 C 0 8.954305003384132 8.954305003384132 0 19.999999999999996 0 Z"
                                    clip-rule="evenodd" />
                            </clipPath>
                            <path
                                d="M 19.999999999999996 0 L 20.000000000000004 0 C 31.045694996615868 0 40 8.954305003384132 40 19.999999999999996 L 40 20.000000000000004 C 40 31.045694996615868 31.045694996615868 40 20.000000000000004 40 L 19.999999999999996 40 C 8.954305003384132 40 0 31.045694996615868 0 20.000000000000004 L 0 19.999999999999996 C 0 8.954305003384132 8.954305003384132 0 19.999999999999996 0 Z"
                                fill="none" stroke="rgba(0,0,0,1)" stroke-width="2"
                                stroke-linejoin="miter" clip-path="url(#clippath-border33173647)" />
                        </g>
                    </g>
                    <g style="transform:matrix(1,0,0,1,0,0);">
                        <g>
                            <filter id="spread37880" x="-20%" y="-20%" height="142.5%" width="145%"
                                color-interpolation-filters="sRGB">
                                <feFlood flood-opacity="0" result="BackgroundImageFix" />
                                <feColorMatrix in="SourceAlpha" type="matrix"
                                    values="0 0 0 0 0 0 0 0 0 0 0 0 0 0 0 0 0 0 127 0" />
                                <feOffset dx="2" dy="1" />
                                <feGaussianBlur stdDeviation="0" />
                                <feColorMatrix type="matrix"
                                    values="0 0 0 0 0 0 0 0 0 0 0 0 0 0 0 0 0 0 0.1 0"
                                    result="color0" />
                                <feBlend mode="normal" in2="BackgroundImageFix"
                                    result="effect1_dropShadow" />
                            </filter>
                            <g filter="url(#spread37880)"
                                style="transform-origin: left top; transform: translate(20px, 20px) scale(1, 1) translate(-20px, -20px) ">
                                <path
                                    d="M 19.999999999999996 0 L 20.000000000000004 0 C 31.045694996615868 0 40 8.954305003384132 40 19.999999999999996 L 40 20.000000000000004 C 40 31.045694996615868 31.045694996615868 40 20.000000000000004 40 L 19.999999999999996 40 C 8.954305003384132 40 0 31.045694996615868 0 20.000000000000004 L 0 19.999999999999996 C 0 8.954305003384132 8.954305003384132 0 19.999999999999996 0 Z"
                                    fill="black" />
                                <g>
                                    <clipPath id="clippath-border33194371">
                                        <path
                                            d="M 19.999999999999996 0 L 20.000000000000004 0 C 31.045694996615868 0 40 8.954305003384132 40 19.999999999999996 L 40 20.000000000000004 C 40 31.045694996615868 31.045694996615868 40 20.000000000000004 40 L 19.999999999999996 40 C 8.954305003384132 40 0 31.045694996615868 0 20.000000000000004 L 0 19.999999999999996 C 0 8.954305003384132 8.954305003384132 0 19.999999999999996 0 Z"
                                            clip-rule="evenodd" />
                                    </clipPath>
                                    <path
                                        d="M 19.999999999999996 0 L 20.000000000000004 0 C 31.045694996615868 0 40 8.954305003384132 40 19.999999999999996 L 40 20.000000000000004 C 40 31.045694996615868 31.045694996615868 40 20.000000000000004 40 L 19.999999999999996 40 C 8.954305003384132 40 0 31.045694996615868 0 20.000000000000004 L 0 19.999999999999996 C 0 8.954305003384132 8.954305003384132 0 19.999999999999996 0 Z"
                                        fill="none" stroke="rgba(0,0,0,1)" stroke-width="2"
                                        stroke-linejoin="miter"
                                        clip-path="url(#clippath-border33194371)" />
                                </g>
                            </g>
                        </g>
                        <g clip-path="url(#clippath-artboard-3788)">
                            <svg xmlns="http://www.w3.org/2000/svg"
                                xmlns:xlink="http://www.w3.org/1999/xlink"
                                xmlns:xhtml="http://www.w3.org/1999/xhtml"
                                preserveAspectRatio="xMinYMin meet" overflow="hidden" width="40"
                                height="40" viewBox="0 0 40 40">
                                <clipPath id="clippath-artboard-3788">
                                    <path
                                        d="M 19.999999999999996 0 L 20.000000000000004 0 C 31.045694996615868 0 40 8.954305003384132 40 19.999999999999996 L 40 20.000000000000004 C 40 31.045694996615868 31.045694996615868 40 20.000000000000004 40 L 19.999999999999996 40 C 8.954305003384132 40 0 31.045694996615868 0 20.000000000000004 L 0 19.999999999999996 C 0 8.954305003384132 8.954305003384132 0 19.999999999999996 0 Z"
                                        clip-rule="evenodd" />
                                </clipPath>
                                <path
                                    d="M 19.999999999999996 0 L 20.000000000000004 0 C 31.045694996615868 0 40 8.954305003384132 40 19.999999999999996 L 40 20.000000000000004 C 40 31.045694996615868 31.045694996615868 40 20.000000000000004 40 L 19.999999999999996 40 C 8.954305003384132 40 0 31.045694996615868 0 20.000000000000004 L 0 19.999999999999996 C 0 8.954305003384132 8.954305003384132 0 19.999999999999996 0 Z"
                                    fill="rgb(255,255,255)" fill-opacity="1" stroke="none"
                                    stroke-width="0" fill-rule="evenodd" />
                                <g style="transform:matrix(1,0,0,1,15,13);">
                                    <text x="0" y="12"
                                        style="font:normal 14px PingFang SC;alignment-baseline:baseline;font-weight:500;fill:rgba(51,51,51,1);">
                                        A</text>
                                </g>
                            </svg>
                        </g>
                        <g>
                            <clipPath id="clippath-border33199915">
                                <path
                                    d="M 19.999999999999996 0 L 20.000000000000004 0 C 31.045694996615868 0 40 8.954305003384132 40 19.999999999999996 L 40 20.000000000000004 C 40 31.045694996615868 31.045694996615868 40 20.000000000000004 40 L 19.999999999999996 40 C 8.954305003384132 40 0 31.045694996615868 0 20.000000000000004 L 0 19.999999999999996 C 0 8.954305003384132 8.954305003384132 0 19.999999999999996 0 Z"
                                    clip-rule="evenodd" />
                            </clipPath>
                            <path
                                d="M 19.999999999999996 0 L 20.000000000000004 0 C 31.045694996615868 0 40 8.954305003384132 40 19.999999999999996 L 40 20.000000000000004 C 40 31.045694996615868 31.045694996615868 40 20.000000000000004 40 L 19.999999999999996 40 C 8.954305003384132 40 0 31.045694996615868 0 20.000000000000004 L 0 19.999999999999996 C 0 8.954305003384132 8.954305003384132 0 19.999999999999996 0 Z"
                                fill="none" stroke="rgba(0,0,0,1)" stroke-width="2"
                                stroke-linejoin="miter" clip-path="url(#clippath-border33199915)" />
                        </g>
                    </g>
                </g>
            </svg>
        </g>
    </g>
</svg>