<svg xmlns="http://www.w3.org/2000/svg" xmlns:xlink="http://www.w3.org/1999/xlink"
    xmlns:xhtml="http://www.w3.org/1999/xhtml" data-v-46cf0610="" data-v-a9142392="" width="14"
    height="14" viewBox="7 7 14.000000000000075 14" version="1.1"
    preserveAspectRatio="xMinYMin meet" overflow="visible" style="background-color: transparent;">
    <g style="transform:matrix(1,0,0,1,7,7);">
        <g clip-path="url(#clippath-artboard-4357)">
            <svg xmlns="http://www.w3.org/2000/svg" xmlns:xlink="http://www.w3.org/1999/xlink"
                xmlns:xhtml="http://www.w3.org/1999/xhtml" preserveAspectRatio="xMinYMin meet"
                overflow="hidden" width="14.000000000000075" height="14"
                viewBox="0 0 14.000000000000075 14">
                <clipPath id="clippath-artboard-4357">
                    <path d="M 0 0 l 14.000000000000075 0 l 0 14 l -14.000000000000075 0 z"
                        clip-rule="evenodd" />
                </clipPath>
                <g style="transform:matrix(1,0,0,1,2,6);">
                    <path
                        d="M 2 1 C 2 1.09849 2 1.09849 1.9807899999999998 1.1950900000000004 C 1.96157 1.29169 1.96157 1.29169 1.92388 1.3826799999999997 C 1.88619 1.4736799999999999 1.88619 1.4736799999999999 1.83147 1.5555699999999995 C 1.7767499999999998 1.63746 1.7767499999999998 1.63746 1.7071100000000001 1.7071100000000001 C 1.63746 1.7767499999999998 1.63746 1.7767499999999998 1.55557 1.8314699999999995 C 1.4736799999999999 1.88619 1.4736799999999999 1.88619 1.3826799999999997 1.9238800000000005 C 1.29169 1.96157 1.29169 1.96157 1.19509 1.9807899999999998 C 1.09849 2 1.09849 2 1 2 C 0.9015089999999999 2 0.9015089999999999 2 0.80491 1.9807899999999998 C 0.7083110000000001 1.96157 0.7083110000000001 1.96157 0.6173159999999998 1.9238800000000005 C 0.526322 1.88619 0.526322 1.88619 0.4444300000000001 1.8314699999999995 C 0.3625370000000001 1.7767499999999998 0.3625370000000001 1.7767499999999998 0.29289299999999985 1.7071100000000001 C 0.22324900000000003 1.63746 0.22324900000000003 1.63746 0.16853000000000007 1.5555699999999995 C 0.1138110000000001 1.4736799999999999 0.1138110000000001 1.4736799999999999 0.07612050000000004 1.3826799999999997 C 0.03842940000000006 1.29169 0.03842940000000006 1.29169 0.01921470000000003 1.1950900000000004 C 0 1.09849 0 1.09849 0 1 C 0 0.9015089999999999 0 0.9015089999999999 0.01921470000000003 0.8049099999999996 C 0.03842940000000006 0.7083110000000001 0.03842940000000006 0.7083110000000001 0.07612050000000004 0.6173159999999998 C 0.1138110000000001 0.5263220000000004 0.1138110000000001 0.5263220000000004 0.16853000000000007 0.44442999999999966 C 0.22324900000000003 0.36253699999999967 0.22324900000000003 0.36253699999999967 0.29289299999999985 0.2928930000000003 C 0.3625370000000001 0.22324900000000003 0.3625370000000001 0.22324900000000003 0.4444300000000001 0.16852999999999962 C 0.526322 0.1138110000000001 0.526322 0.1138110000000001 0.6173159999999998 0.07612050000000004 C 0.7083110000000001 0.03842940000000006 0.7083110000000001 0.03842940000000006 0.80491 0.01921470000000003 C 0.9015089999999999 0 0.9015089999999999 0 1 0 C 1.09849 0 1.09849 0 1.19509 0.01921470000000003 C 1.29169 0.03842940000000006 1.29169 0.03842940000000006 1.3826799999999997 0.07612050000000004 C 1.4736799999999999 0.1138110000000001 1.4736799999999999 0.1138110000000001 1.55557 0.16852999999999962 C 1.63746 0.22324900000000003 1.63746 0.22324900000000003 1.7071100000000001 0.2928930000000003 C 1.7767499999999998 0.36253699999999967 1.7767499999999998 0.36253699999999967 1.83147 0.44442999999999966 C 1.88619 0.5263220000000004 1.88619 0.5263220000000004 1.92388 0.6173159999999998 C 1.96157 0.7083110000000001 1.96157 0.7083110000000001 1.9807899999999998 0.8049099999999996 C 2 0.9015089999999999 2 0.9015089999999999 2 1 Z M 6 1 C 6 1.09849 6 1.09849 5.98078 1.1950900000000004 C 5.96157 1.29169 5.96157 1.29169 5.923879999999999 1.3826799999999997 C 5.88619 1.4736799999999999 5.88619 1.4736799999999999 5.831470000000001 1.5555699999999995 C 5.77675 1.63746 5.77675 1.63746 5.70711 1.7071100000000001 C 5.63746 1.7767499999999998 5.63746 1.7767499999999998 5.555570000000001 1.8314699999999995 C 5.47368 1.88619 5.47368 1.88619 5.38268 1.9238800000000005 C 5.29169 1.96157 5.29169 1.96157 5.19509 1.9807899999999998 C 5.09849 2 5.09849 2 5 2 C 4.90151 2 4.90151 2 4.80491 1.9807899999999998 C 4.70831 1.96157 4.70831 1.96157 4.61732 1.9238800000000005 C 4.52632 1.88619 4.52632 1.88619 4.44443 1.8314699999999995 C 4.36254 1.7767499999999998 4.36254 1.7767499999999998 4.29289 1.7071100000000001 C 4.22325 1.63746 4.22325 1.63746 4.16853 1.5555699999999995 C 4.11381 1.4736799999999999 4.11381 1.4736799999999999 4.07612 1.3826799999999997 C 4.03843 1.29169 4.03843 1.29169 4.01921 1.1950900000000004 C 4 1.09849 4 1.09849 4 1 C 4 0.9015089999999999 4 0.9015089999999999 4.01921 0.8049099999999996 C 4.03843 0.7083110000000001 4.03843 0.7083110000000001 4.07612 0.6173159999999998 C 4.11381 0.5263220000000004 4.11381 0.5263220000000004 4.16853 0.44442999999999966 C 4.22325 0.36253699999999967 4.22325 0.36253699999999967 4.29289 0.2928930000000003 C 4.36254 0.22324900000000003 4.36254 0.22324900000000003 4.44443 0.16852999999999962 C 4.52632 0.1138110000000001 4.52632 0.1138110000000001 4.61732 0.07612050000000004 C 4.70831 0.03842940000000006 4.70831 0.03842940000000006 4.80491 0.01921470000000003 C 4.90151 0 4.90151 0 5 0 C 5.09849 0 5.09849 0 5.19509 0.01921470000000003 C 5.29169 0.03842940000000006 5.29169 0.03842940000000006 5.38268 0.07612050000000004 C 5.47368 0.1138110000000001 5.47368 0.1138110000000001 5.555570000000001 0.16852999999999962 C 5.63746 0.22324900000000003 5.63746 0.22324900000000003 5.70711 0.2928930000000003 C 5.77675 0.36253699999999967 5.77675 0.36253699999999967 5.831470000000001 0.44442999999999966 C 5.88619 0.5263220000000004 5.88619 0.5263220000000004 5.923879999999999 0.6173159999999998 C 5.96157 0.7083110000000001 5.96157 0.7083110000000001 5.98078 0.8049099999999996 C 6 0.9015089999999999 6 0.9015089999999999 6 1 Z M 10 1 C 10 1.09849 10 1.09849 9.98078 1.1950900000000004 C 9.96157 1.29169 9.96157 1.29169 9.92388 1.3826799999999997 C 9.88619 1.4736799999999999 9.88619 1.4736799999999999 9.83147 1.5555699999999995 C 9.77675 1.63746 9.77675 1.63746 9.70711 1.7071100000000001 C 9.63746 1.7767499999999998 9.63746 1.7767499999999998 9.55557 1.8314699999999995 C 9.47368 1.88619 9.47368 1.88619 9.38268 1.9238800000000005 C 9.29169 1.96157 9.29169 1.96157 9.19509 1.9807899999999998 C 9.09849 2 9.09849 2 9 2 C 8.90151 2 8.90151 2 8.80491 1.9807899999999998 C 8.70831 1.96157 8.70831 1.96157 8.61732 1.9238800000000005 C 8.52632 1.88619 8.52632 1.88619 8.44443 1.8314699999999995 C 8.36254 1.7767499999999998 8.36254 1.7767499999999998 8.29289 1.7071100000000001 C 8.22325 1.63746 8.22325 1.63746 8.16853 1.5555699999999995 C 8.11381 1.4736799999999999 8.11381 1.4736799999999999 8.07612 1.3826799999999997 C 8.03843 1.29169 8.03843 1.29169 8.01921 1.1950900000000004 C 8 1.09849 8 1.09849 8 1 C 8 0.9015089999999999 8 0.9015089999999999 8.01921 0.8049099999999996 C 8.03843 0.7083110000000001 8.03843 0.7083110000000001 8.07612 0.6173159999999998 C 8.11381 0.5263220000000004 8.11381 0.5263220000000004 8.16853 0.44442999999999966 C 8.22325 0.36253699999999967 8.22325 0.36253699999999967 8.29289 0.2928930000000003 C 8.36254 0.22324900000000003 8.36254 0.22324900000000003 8.44443 0.16852999999999962 C 8.52632 0.1138110000000001 8.52632 0.1138110000000001 8.61732 0.07612050000000004 C 8.70831 0.03842940000000006 8.70831 0.03842940000000006 8.80491 0.01921470000000003 C 8.90151 0 8.90151 0 9 0 C 9.09849 0 9.09849 0 9.19509 0.01921470000000003 C 9.29169 0.03842940000000006 9.29169 0.03842940000000006 9.38268 0.07612050000000004 C 9.47368 0.1138110000000001 9.47368 0.1138110000000001 9.55557 0.16852999999999962 C 9.63746 0.22324900000000003 9.63746 0.22324900000000003 9.70711 0.2928930000000003 C 9.77675 0.36253699999999967 9.77675 0.36253699999999967 9.83147 0.44442999999999966 C 9.88619 0.5263220000000004 9.88619 0.5263220000000004 9.92388 0.6173159999999998 C 9.96157 0.7083110000000001 9.96157 0.7083110000000001 9.98078 0.8049099999999996 C 10 0.9015089999999999 10 0.9015089999999999 10 1 Z"
                        fill="rgb(38,38,38)" fill-opacity="1" stroke="none" stroke-width="0"
                        fill-rule="nonzero" />
                </g>
            </svg>
        </g>
    </g>
</svg>