<svg xmlns="http://www.w3.org/2000/svg" xmlns:xlink="http://www.w3.org/1999/xlink" fill="none" version="1.1" width="106" height="106" viewBox="0 0 106 106"><defs><clipPath id="master_svg0_55_1228"><rect x="0" y="0" width="106" height="106" rx="0"/></clipPath><clipPath id="master_svg1_55_1233"><rect x="46" y="79" width="14" height="14" rx="0"/></clipPath></defs><g clip-path="url(#master_svg0_55_1228)"><g><path d="M91.75,33.21119765625L91.75,42.04449765625Q91.75,42.14299765625,91.7692,42.23959765625Q91.7884,42.33619765625,91.8261,42.42719765625Q91.8638,42.518197656249995,91.9185,42.60009765625Q91.9732,42.681997656250005,92.0429,42.75159765625Q92.1125,42.821297656249996,92.1944,42.87599765625Q92.2763,42.930697656250004,92.3673,42.968397656250005Q92.4583,43.00609765625,92.5549,43.025297656250004Q92.6515,43.04449765625,92.75,43.04449765625Q92.8485,43.04449765625,92.9451,43.025297656250004Q93.0417,43.00609765625,93.1327,42.968397656250005Q93.2237,42.930697656250004,93.3056,42.87599765625Q93.3875,42.821297656249996,93.4571,42.75159765625Q93.5267,42.681997656250005,93.5815,42.60009765625Q93.6362,42.518197656249995,93.6739,42.42719765625Q93.7116,42.33619765625,93.7308,42.23959765625Q93.75,42.14299765625,93.75,42.04449765625L93.75,33.21119765625Q93.75,27.916597656249998,90.0084,24.17499765625Q86.2669,20.43343765625,80.9722,20.43342765625L49.7346,20.43342765625L46.4838,16.37940765625Q42.6442,11.60009765625,36.516999999999996,11.60009765625L25.0278,11.60009765625Q19.733150000000002,11.60009765625,15.99157,15.34166765625Q12.25,19.083247656250002,12.25,24.37789765625L12.25,42.04449765625Q12.25,42.14299765625,12.269214999999999,42.23959765625Q12.28843,42.33619765625,12.326121,42.42719765625Q12.363812,42.518197656249995,12.41853,42.60009765625Q12.473249,42.681997656250005,12.542893,42.75159765625Q12.612537,42.821297656249996,12.69443,42.87599765625Q12.776322,42.930697656250004,12.867317,42.968397656250005Q12.958311,43.00609765625,13.05491,43.025297656250004Q13.1515086,43.04449765625,13.25,43.04449765625Q13.3484914,43.04449765625,13.44509,43.025297656250004Q13.541689,43.00609765625,13.632683,42.968397656250005Q13.723678,42.930697656250004,13.80557,42.87599765625Q13.887463,42.821297656249996,13.957107,42.75159765625Q14.026751,42.681997656250005,14.08147,42.60009765625Q14.136188,42.518197656249995,14.173879,42.42719765625Q14.21157,42.33619765625,14.230785000000001,42.23959765625Q14.25,42.14299765625,14.25,42.04449765625L14.249999,24.37789765625Q14.249999,19.91166765625,17.40579,16.75588765625Q20.56157,13.60009765625,25.0278,13.60009765625L36.516999999999996,13.60009765625Q41.685500000000005,13.60009765625,44.923500000000004,17.63056765625L48.4745,22.05900765625Q48.5448,22.14664765625,48.6328,22.216517656249998Q48.7207,22.28637765625,48.822,22.33497765625Q48.9233,22.38358765625,49.0328,22.408507656250002Q49.1423,22.43342765625,49.2547,22.43342765625L80.9722,22.43342765625Q85.4384,22.43342765625,88.5942,25.58919765625Q91.75,28.74499765625,91.75,33.21119765625Z" fill-rule="evenodd" fill="#434343" fill-opacity="1"/></g><g><path d="M15.92099953125,41.044192453125L90.08921953125,41.044192453125Q94.93631953125,41.044192453125,97.88711953125,44.885939453125Q100.83741953125,48.727089453125004,99.58841953125,53.408389453125L93.10481953125,77.723489453125Q91.98871953125,81.919889453125,88.54541953125,84.565789453125Q85.10321953125,87.21088945312499,80.76121953125,87.21088945312499L25.24661953125,87.21088945312499Q20.90461953125,87.21088945312499,17.462519531250003,84.565789453125Q14.01924953125,81.919889453125,12.902929531249999,77.72288945312499L6.41942353125,53.408289453125Q5.17065953125,48.727899453125,8.12310953125,44.885759453125Q11.07318953125,41.046714453125,15.91229953125,41.044191453125L15.91276953125,41.044192453125L15.91818953125,41.044189453125L15.91865953125,41.044189453125L15.92099953125,41.044192453125ZM15.91324953125,43.044189453125L15.91276953125,43.044189453125L15.91181953125,43.044189453125Q12.05845953125,43.046899453125,9.70895953125,46.104399453125Q7.35720453125,49.164829453125,8.35189953125,52.892989453125L14.83572953125,77.20878945312501Q15.77720953125,80.748489453125,18.681119531249998,82.979889453125Q21.58431953125,85.21088945312499,25.24661953125,85.21088945312499L80.76121953125,85.21088945312499Q84.42351953125,85.21088945312499,87.32681953125,82.979889453125Q90.23071953125,80.748489453125,91.17231953125,77.208189453125L97.65601953125,52.892889453125Q98.65101953125,49.163759453125,96.30101953125,46.104219453125Q93.95061953125,43.044189453125,90.08921953125,43.044189453125L15.91324953125,43.044189453125Z" fill-rule="evenodd" fill="#434343" fill-opacity="1"/></g><g><g><ellipse cx="53" cy="86" rx="12" ry="12" fill="#1878F5" fill-opacity="1"/><ellipse cx="53" cy="86" rx="13" ry="13" fill-opacity="0" stroke-opacity="1" stroke="#FFFFFF" fill="none" stroke-width="2"/></g><g clip-path="url(#master_svg1_55_1233)"><g><path d="M53.599999976158145,81.24999997615814L53.599999976158145,85.39999997615814L57.74999997615814,85.39999997615814C58.08139997615814,85.39999997615814,58.349999976158145,85.66862997615814,58.349999976158145,85.99999997615814C58.349999976158145,86.33136997615814,58.08139997615814,86.59999997615814,57.74999997615814,86.59999997615814L53.599999976158145,86.59999997615814L53.599999976158145,90.74999997615814C53.599999976158145,91.08139997615814,53.33136997615814,91.34999997615814,52.99999997615814,91.34999997615814C52.668629976158144,91.34999997615814,52.39999997615814,91.08139997615814,52.39999997615814,90.74999997615814L52.39999997615814,86.59999997615814L48.24999997615814,86.59999997615814C47.91862897615814,86.59999997615814,47.64999997615814,86.33136997615814,47.64999997615814,85.99999997615814C47.64999997615814,85.66862997615814,47.91862897615814,85.39999997615814,48.24999997615814,85.39999997615814L52.39999997615814,85.39999997615814L52.39999997615814,81.24999997615814C52.39999997615814,80.91862897615815,52.668629976158144,80.64999997615814,52.99999997615814,80.64999997615814C53.33136997615814,80.64999997615814,53.599999976158145,80.91862897615815,53.599999976158145,81.24999997615814Z" fill-rule="evenodd" fill="#FFFFFF" fill-opacity="1"/></g></g></g></g></svg>