<svg t="1693797293220" class="icon" viewBox="0 0 1024 1024" version="1.1" xmlns="http://www.w3.org/2000/svg" p-id="4198" width="200" height="200"><path d="M878.351059 148.841412h-321.254902V469.835294h321.254902V148.841412z m-80.313726 80.313725V389.521569h-160.627451v-160.366432h160.627451zM476.782431 148.841412h-321.254902V469.835294h321.254902V148.841412z m-80.313725 80.313725V389.521569h-160.627451v-160.366432h160.627451zM476.782431 549.968314h-321.254902v320.993882h321.254902V549.968314z m-80.313725 80.313725v160.366432h-160.627451V630.261961h160.627451z" fill="#9775fa" p-id="4199"></path><path d="M557.096157 550.771451h80.313725v80.233412h-80.313725z" fill="#9775fa" p-id="4200"></path><path d="M637.409882 630.984784h80.313726v80.233412h-80.313726zM637.409882 711.218196h80.313726v80.233412h-80.313726z" fill="#9775fa" p-id="4201"></path><path d="M557.096157 791.431529h80.313725v80.233412h-80.313725zM717.723608 791.431529h80.313725v80.233412h-80.313725zM798.037333 791.431529h80.313726v80.233412h-80.313726zM798.037333 710.475294h80.313726v80.233412h-80.313726zM798.037333 550.771451h80.313726v80.233412h-80.313726zM677.566745 269.251765h80.313726v80.213333h-80.313726zM275.998118 269.251765h80.313725v80.213333h-80.313725zM275.998118 670.358588h80.313725v80.233412h-80.313725z" fill="#9775fa" p-id="4202"></path></svg>