<svg xmlns="http://www.w3.org/2000/svg" xmlns:xlink="http://www.w3.org/1999/xlink" fill="none" version="1.1" width="12"
     height="12" viewBox="0 0 12 12">
    <defs>
        <clipPath id="master_svg0_312_1399">
            <rect x="0" y="0" width="12" height="12" rx="0"/>
        </clipPath>
    </defs>
    <g clip-path="url(#master_svg0_312_1399)">
        <g transform="matrix(1,0,0,-1,0,20)">
            <path d="M6,18.6L10,18.6Q10.05909,18.6,10.11705,18.58847Q10.17501,18.57694,10.22961,18.55433Q10.28421,18.53171,10.33334,18.49888Q10.38248,18.46605,10.42426,18.42426Q10.46605,18.38248,10.49888,18.33334Q10.53171,18.28421,10.55433,18.22961Q10.57694,18.17501,10.58847,18.11705Q10.6,18.059089999999998,10.6,18Q10.6,17.9409,10.58847,17.88295Q10.57694,17.82499,10.55433,17.77039Q10.53171,17.71579,10.49888,17.66666Q10.46605,17.61752,10.42426,17.57574Q10.38248,17.53395,10.33334,17.50112Q10.28421,17.46829,10.22961,17.44567Q10.17501,17.42306,10.11705,17.41153Q10.05909,17.4,10,17.4L6,17.4Q4.591670000000001,17.4,3.59584,16.40416Q2.6,15.40833,2.6,14L2.6,10Q2.6,9.9409052,2.588471,9.882946Q2.576942,9.824985999999999,2.554328,9.77039Q2.531713,9.715793,2.498882,9.666658Q2.46605,9.617522,2.424264,9.575736Q2.382478,9.53395,2.333342,9.501118Q2.284207,9.468287,2.22961,9.445672Q2.175014,9.423058,2.117054,9.411529Q2.0590948,9.4,2,9.4Q1.9409052,9.4,1.882946,9.411529Q1.824986,9.423058,1.77039,9.445672Q1.7157930000000001,9.468287,1.666658,9.501118Q1.6175220000000001,9.53395,1.575736,9.575736Q1.53395,9.617522,1.501118,9.666658Q1.4682870000000001,9.715793,1.445672,9.77039Q1.4230580000000002,9.824985999999999,1.411529,9.882946Q1.4,9.9409052,1.4,10L1.4,14Q1.4,15.905380000000001,2.747309,17.25269Q4.09462,18.6,6,18.6Z"
                  fill-rule="evenodd" fill="#808080" fill-opacity="1"/>
        </g>
    </g>
</svg>