<svg xmlns="http://www.w3.org/2000/svg" xmlns:xlink="http://www.w3.org/1999/xlink" fill="none" version="1.1" width="9.200000047683716" height="9.200000047683716" viewBox="0 0 9.200000047683716 9.200000047683716"><g transform="matrix(1,0,0,-1,0,17.200000047683716)"><path d="M4.600000023841858,17.20000002384186L8.600000023841858,17.20000002384186Q8.659090023841857,17.20000002384186,8.717050023841859,17.18847002384186Q8.775010023841858,17.17694002384186,8.829610023841857,17.154330023841858Q8.884210023841858,17.13171002384186,8.933340023841858,17.098880023841858Q8.982480023841857,17.066050023841857,9.024260023841858,17.024260023841858Q9.066050023841857,16.98248002384186,9.098880023841858,16.933340023841858Q9.131710023841858,16.88421002384186,9.154330023841858,16.82961002384186Q9.176940023841858,16.77501002384186,9.188470023841857,16.717050023841857Q9.200000023841858,16.659090023841856,9.200000023841858,16.600000023841858Q9.200000023841858,16.540900023841857,9.188470023841857,16.48295002384186Q9.176940023841858,16.424990023841858,9.154330023841858,16.370390023841857Q9.131710023841858,16.315790023841856,9.098880023841858,16.266660023841858Q9.066050023841857,16.217520023841857,9.024260023841858,16.175740023841858Q8.982480023841857,16.13395002384186,8.933340023841858,16.101120023841858Q8.884210023841858,16.068290023841858,8.829610023841857,16.045670023841858Q8.775010023841858,16.023060023841857,8.717050023841859,16.011530023841857Q8.659090023841857,16.000000023841856,8.600000023841858,16.000000023841856L4.600000023841858,16.000000023841856Q3.191670023841858,16.000000023841856,2.195840023841858,15.004160023841859Q1.200000023841858,14.008330023841857,1.200000023841858,12.600000023841858L1.200000023841858,8.600000023841858Q1.200000023841858,8.540905223841857,1.1884710238418579,8.482946023841858Q1.1769420238418578,8.424986023841857,1.1543280238418578,8.370390023841859Q1.1317130238418578,8.315793023841858,1.098882023841858,8.266658023841858Q1.066050023841858,8.217522023841857,1.0242640238418579,8.175736023841857Q0.9824780238418579,8.133950023841859,0.9333420238418579,8.101118023841858Q0.8842070238418579,8.068287023841858,0.8296100238418579,8.045672023841858Q0.7750140238418579,8.023058023841857,0.7170540238418579,8.011529023841858Q0.6590948238418579,8.000000023841858,0.6000000238418579,8.000000023841858Q0.5409052238418579,8.000000023841858,0.4829460238418579,8.011529023841858Q0.4249860238418579,8.023058023841857,0.37039002384185793,8.045672023841858Q0.3157930238418579,8.068287023841858,0.2666580238418579,8.101118023841858Q0.21752202384185793,8.133950023841859,0.17573602384185794,8.175736023841857Q0.1339500238418579,8.217522023841857,0.10111802384185792,8.266658023841858Q0.06828702384185792,8.315793023841858,0.04567202384185787,8.370390023841859Q0.023058023841857955,8.424986023841857,0.011529023841857944,8.482946023841858Q2.384185793236071e-8,8.540905223841857,2.384185793236071e-8,8.600000023841858L2.384185793236071e-8,12.600000023841858Q2.384185793236071e-8,14.505380023841859,1.347309023841858,15.852690023841859Q2.694620023841858,17.20000002384186,4.600000023841858,17.20000002384186Z" fill-rule="evenodd" fill="#808080" fill-opacity="1"/></g></svg>