<svg t="1694674923074" class="icon" viewBox="0 0 1024 1024" version="1.1" xmlns="http://www.w3.org/2000/svg" p-id="4457" width="200" height="200"><path d="M918.4 169.6H473.6c-9.6-51.2-57.6-96-115.2-96h-256C44.8 73.6 0 118.4 0 169.6v684.8c0 51.2 44.8 96 102.4 96h812.8c57.6 0 102.4-44.8 102.4-96V265.6c0-51.2-41.6-96-99.2-96z m38.4 688c0 22.4-22.4 38.4-44.8 38.4H105.6c-25.6 0-44.8-22.4-44.8-44.8V169.6c0-9.6 3.2-25.6 12.8-32s16-9.6 32-12.8h256c22.4 0 48 22.4 51.2 44.8l9.6 57.6h492.8c25.6-3.2 44.8 16 44.8 38.4-3.2 0-3.2 592-3.2 592z" p-id="4458"></path><path d="M540.8 403.2l-6.4-6.4c-9.6-6.4-16-9.6-22.4-9.6-9.6 0-19.2 6.4-22.4 9.6l-172.8 195.2c-16 9.6-16 32 0 48 9.6 16 28.8 16 41.6 0l118.4-134.4v281.6c0 16 16 32 32 32s32-9.6 32-32V512l118.4 131.2c9.6 16 28.8 16 41.6 0 16-9.6 16-32 0-48l-160-192z" p-id="4459"></path></svg>