<svg xmlns="http://www.w3.org/2000/svg" xmlns:xlink="http://www.w3.org/1999/xlink" fill="none" version="1.1" width="20" height="20" viewBox="0 0 20 20"><defs><clipPath id="master_svg0_1_0282"><rect x="0" y="0" width="20" height="20" rx="0"/></clipPath></defs><g clip-path="url(#master_svg0_1_0282)"><g><path d="M9.999998247070312,2.8333740234375C6.041958247070312,2.8333740234375,2.8333282470703125,6.042004023437499,2.8333282470703125,10.0000440234375C2.8333282470703125,13.9580740234375,6.041958247070312,17.1666740234375,9.999998247070312,17.1666740234375C13.958028247070313,17.1666740234375,17.166628247070314,13.9580740234375,17.166628247070314,10.0000440234375C17.166628247070314,6.042004023437499,13.958028247070313,2.8333740234375,9.999998247070312,2.8333740234375ZM10.499998247070312,6.0000440234375C10.499998247070312,5.7239040234375,10.276128247070313,5.5000440234375,9.999998247070312,5.5000440234375C9.723858247070313,5.5000440234375,9.499998247070312,5.7239040234375,9.499998247070312,6.0000440234375L9.499998247070312,10.0000440234375C9.499998247070312,10.2761740234375,9.723858247070313,10.5000440234375,9.999998247070312,10.5000440234375L14.000028247070313,10.5000440234375C14.276128247070313,10.5000440234375,14.500028247070313,10.2761740234375,14.500028247070313,10.0000440234375C14.500028247070313,9.7239040234375,14.276128247070313,9.5000440234375,14.000028247070313,9.5000440234375L10.499998247070312,9.5000440234375L10.499998247070312,6.0000440234375Z" fill-rule="evenodd" fill="#1878F5" fill-opacity="1"/></g></g></svg>