<svg xmlns="http://www.w3.org/2000/svg" xmlns:xlink="http://www.w3.org/1999/xlink" fill="none" version="1.1" width="20" height="20" viewBox="0 0 20 20"><defs><clipPath id="master_svg0_1_0711"><rect x="0" y="0" width="20" height="20" rx="0"/></clipPath></defs><g clip-path="url(#master_svg0_1_0711)"><g><path d="M10,10.6L14,10.6Q14.059090000000001,10.6,14.117049999999999,10.588470000000001Q14.17501,10.57694,14.229610000000001,10.55433Q14.28421,10.53171,14.33334,10.49888Q14.382480000000001,10.46605,14.42426,10.42426Q14.46605,10.382480000000001,14.49888,10.33334Q14.53171,10.28421,14.55433,10.229610000000001Q14.57694,10.17501,14.588470000000001,10.117049999999999Q14.6,10.059090000000001,14.6,10Q14.6,9.9409,14.588470000000001,9.882950000000001Q14.57694,9.82499,14.55433,9.770389999999999Q14.53171,9.71579,14.49888,9.66666Q14.46605,9.617519999999999,14.42426,9.57574Q14.382480000000001,9.53395,14.33334,9.50112Q14.28421,9.46829,14.229610000000001,9.44567Q14.17501,9.42306,14.117049999999999,9.411529999999999Q14.059090000000001,9.4,14,9.4L10.6,9.4L10.6,6Q10.6,5.9409051999999996,10.588471,5.882946Q10.576942,5.824986,10.554328,5.77039Q10.531713,5.715793,10.498882,5.666658Q10.46605,5.617522,10.424264,5.575736Q10.382478,5.53395,10.333342,5.501118Q10.284207,5.468287,10.22961,5.445672Q10.175014000000001,5.423058,10.117054,5.411529Q10.0590948,5.4,10,5.4Q9.9409052,5.4,9.882946,5.411529Q9.824985999999999,5.423058,9.77039,5.445672Q9.715793,5.468287,9.666658,5.501118Q9.617522,5.53395,9.575736,5.575736Q9.53395,5.617522,9.501118,5.666658Q9.468287,5.715793,9.445672,5.77039Q9.423058,5.824986,9.411529,5.882946Q9.4,5.9409051999999996,9.4,6L9.4,10Q9.4,10.059090000000001,9.411529,10.117049999999999Q9.423058,10.17501,9.445672,10.229610000000001Q9.468287,10.28421,9.501118,10.33334Q9.53395,10.382480000000001,9.575736,10.42426Q9.617522,10.46605,9.666658,10.49888Q9.715793,10.53171,9.77039,10.55433Q9.824985999999999,10.57694,9.882946,10.588470000000001Q9.9409052,10.6,10,10.6Z" fill-rule="evenodd" fill="#333333" fill-opacity="1"/></g><g><path d="M4.861688247070313,4.8617340234375Q2.7333292470703126,6.9900840234375,2.7333282470703124,10.0000440234375Q2.7333282470703124,13.0099740234375,4.861688247070313,15.1383740234375Q6.9900482470703125,17.2666740234375,9.999998247070312,17.2666740234375Q13.009918247070312,17.2666740234375,15.138328247070312,15.1383740234375Q17.26662824707031,13.0099640234375,17.26662824707031,10.0000440234375Q17.26662824707031,6.9900940234375,15.138328247070312,4.8617340234375Q13.009928247070313,2.7333740234375,9.999998247070312,2.7333740234375Q6.990038247070313,2.7333740234375,4.861688247070313,4.8617340234375ZM5.710218247070312,14.2897740234375Q3.9333282470703126,12.5129140234375,3.9333282470703126,10.0000440234375Q3.9333282470703126,7.4871440234375,5.710208247070312,5.7102540234375Q7.487098247070312,3.9333740234375,9.999998247070312,3.9333740234375Q12.512878247070313,3.9333750234375,14.289728247070313,5.7102640234374995Q16.066628247070312,7.4871440234375,16.066628247070312,10.0000440234375Q16.066628247070312,12.5129140234375,14.289728247070313,14.2897740234375Q12.512868247070312,16.0666740234375,9.999998247070312,16.0666740234375Q7.487098247070312,16.0666740234375,5.710218247070312,14.2897740234375Z" fill-rule="evenodd" fill="#333333" fill-opacity="1"/></g></g></svg>