<svg xmlns="http://www.w3.org/2000/svg" xmlns:xlink="http://www.w3.org/1999/xlink" fill="none" version="1.1" width="24"
    height="24" viewBox="0 0 24 24">
    <defs>
        <clipPath id="master_svg0_1935_5583">
            <rect x="0" y="0" width="24" height="24" rx="6" />
        </clipPath>
        <clipPath id="master_svg1_1935_5585">
            <rect x="5" y="5" width="14" height="14" rx="0" />
        </clipPath>
    </defs>
    <g clip-path="url(#master_svg0_1935_5583)">
        <g clip-path="url(#master_svg1_1935_5585)">
            <g>
                <g>
                    <path
                        d="M10.388988,9.611171L12,11.22219L13.61097,9.611207L13.61108,9.611093Q13.68844,9.533734,13.78952,9.491867Q13.89059,9.45,13.99999,9.45Q14.05416,9.45,14.107289999999999,9.460568Q14.16042,9.471136,14.21047,9.491866Q14.26051,9.512596,14.30556,9.542692Q14.3506,9.572787,14.3889,9.611091Q14.427209999999999,9.649395,14.4573,9.694436Q14.487400000000001,9.739477,14.508130000000001,9.789524Q14.52886,9.839571,14.53942,9.8927Q14.549990000000001,9.9458297,14.549990000000001,10Q14.549990000000001,10.109401,14.508130000000001,10.210475Q14.46626,10.311548,14.3889,10.388907L14.38862,10.389187L12.77782,12.00001L14.38874,13.61093L14.3889,13.61109Q14.46626,13.68845,14.508130000000001,13.78952Q14.549990000000001,13.8906,14.549990000000001,14Q14.549990000000001,14.05417,14.53942,14.1073Q14.52886,14.16043,14.508130000000001,14.21047Q14.487400000000001,14.26052,14.4573,14.30556Q14.427209999999999,14.3506,14.3889,14.38891Q14.3506,14.427209999999999,14.30556,14.45731Q14.26051,14.487400000000001,14.21047,14.508130000000001Q14.16042,14.52886,14.107289999999999,14.53943Q14.05416,14.55,13.99999,14.55Q13.89059,14.55,13.78952,14.508130000000001Q13.68844,14.46627,13.61108,14.38891L12,12.77783L10.388907,14.38891Q10.311549,14.46627,10.210475,14.508130000000001Q10.109401,14.55,10,14.55Q9.9458297,14.55,9.8927,14.53943Q9.839571,14.52886,9.789524,14.508130000000001Q9.739477,14.487400000000001,9.694436,14.45731Q9.649395,14.427209999999999,9.611091,14.38891Q9.572787,14.3506,9.542692,14.30556Q9.512596,14.26052,9.491866,14.21048Q9.471136,14.16043,9.460568,14.1073Q9.45,14.05417,9.45,14Q9.45,13.8906,9.491867,13.78952Q9.533733,13.68845,9.611093,13.61109L9.611207,13.61098L11.22219,12.00001L9.611169,10.388987L9.611091,10.388908Q9.533732,10.311549,9.491866,10.210475Q9.45,10.109402,9.45,10Q9.45,9.9458297,9.460568,9.8927Q9.471136,9.839571,9.491866,9.789524Q9.512596,9.739477,9.542692,9.694436Q9.572787,9.649395,9.611091,9.611091Q9.649395,9.572787,9.694436,9.542692Q9.739477,9.512596,9.789524,9.491866Q9.839571,9.471136,9.8927,9.460568Q9.9458297,9.45,10,9.45Q10.109402,9.45,10.210476,9.491866Q10.311551,9.533733,10.388909,9.611092L10.388988,9.611171Z"
                        fill-rule="evenodd" fill="#595959" fill-opacity="1" />
                </g>
                <g>
                    <path
                        d="M7.4038,7.40381Q5.5,9.30761,5.499999,12Q5.5,14.69237,7.4038,16.5962Q9.30762,18.5,12,18.5Q14.69237,18.5,16.5962,16.5962Q18.5,14.69236,18.5,12Q18.5,9.30761,16.5962,7.4038Q14.69237,5.499999,12,5.499999Q9.30761,5.5,7.4038,7.40381ZM8.11091,15.88908Q6.5,14.27816,6.5,12Q6.5,9.721820000000001,8.11091,8.11091Q9.721820000000001,6.5,12,6.499999Q14.27816,6.5,15.88908,8.11091Q17.5,9.72183,17.5,12Q17.5,14.27815,15.88908,15.88908Q14.27815,17.5,12,17.5Q9.72183,17.5,8.11091,15.88908Z"
                        fill-rule="evenodd" fill="#595959" fill-opacity="1" />
                </g>
            </g>
        </g>
    </g>
</svg>