<svg xmlns="http://www.w3.org/2000/svg" xmlns:xlink="http://www.w3.org/1999/xlink"
    version="1.1" width="16" height="16" viewBox="0 0 16 16">
    <defs>
        <clipPath id="master_svg0_747_08346">
            <rect x="0" y="0" width="16" height="16" rx="0" />
        </clipPath>
    </defs>
    <g clip-path="url(#master_svg0_747_08346)">
        <g
            transform="matrix(0.7071067690849304,0.7071067690849304,-0.7071067690849304,0.7071067690849304,3.602418525146426,-5.437007352595323)">
            <path
                d="M7.7642578125,1.9299999952316285L7.7642578125,5.629999995231628Q7.7642578125,5.689089995231629,7.7757868125,5.747049995231628Q7.7873158125,5.805009995231629,7.8099298125,5.8596099952316285Q7.8325448125,5.914209995231628,7.8653758125,5.963339995231628Q7.8982078125,6.012479995231629,7.9399938125,6.054259995231629Q7.9817798125,6.0960499952316285,8.0309158125,6.128879995231628Q8.0800508125,6.161709995231629,8.1346478125,6.184329995231629Q8.189243812499999,6.206939995231628,8.2472038125,6.2184699952316285Q8.3051630125,6.229999995231628,8.3642578125,6.229999995231628Q8.4233526125,6.229999995231628,8.4813118125,6.2184699952316285Q8.539271812500001,6.206939995231628,8.5938678125,6.184329995231629Q8.6484648125,6.161709995231629,8.6975998125,6.128879995231628Q8.7467358125,6.0960499952316285,8.7885218125,6.054259995231629Q8.8303078125,6.012479995231629,8.8631398125,5.963339995231628Q8.8959708125,5.914209995231628,8.9185858125,5.8596099952316285Q8.9411998125,5.805009995231629,8.9527288125,5.747049995231628Q8.9642578125,5.689089995231629,8.9642578125,5.629999995231628L8.9642578125,2.2299999952316285L16.7642578125,2.2299999952316285L16.7642578125,10.029999995231629L13.3642578125,10.029999995231629Q13.305167812499999,10.029999995231629,13.247207812500001,10.04152999523163Q13.1892478125,10.053059995231628,13.134647812499999,10.075669995231628Q13.0800478125,10.098289995231628,13.0309178125,10.131119995231629Q12.981777812499999,10.16394999523163,12.9399978125,10.205739995231628Q12.8982078125,10.24751999523163,12.8653778125,10.296659995231629Q12.8325478125,10.345789995231629,12.8099278125,10.40038999523163Q12.7873178125,10.454979995231628,12.775787812499999,10.512949995231628Q12.7642578125,10.570899995231628,12.7642578125,10.629999995231628Q12.7642578125,10.68909999523163,12.775787812499999,10.74704999523163Q12.7873178125,10.805009995231629,12.8099278125,10.859609995231628Q12.8325478125,10.914209995231628,12.8653778125,10.963339995231628Q12.8982078125,11.012479995231628,12.9399978125,11.054259995231629Q12.981777812499999,11.096049995231628,13.0309178125,11.128879995231628Q13.0800478125,11.161709995231629,13.134647812499999,11.184329995231629Q13.1892478125,11.206939995231629,13.247207812500001,11.218469995231628Q13.305167812499999,11.229999995231628,13.3642578125,11.229999995231628L17.0642578125,11.229999995231628Q17.4370578125,11.229999995231628,17.700657812499998,10.966399995231628Q17.9642578125,10.70279999523163,17.9642578125,10.329999995231628L17.9642578125,1.9299999952316285Q17.9642578125,1.5572113952316284,17.7006678125,1.2936109952316284Q17.4370678125,1.0299999952316283,17.0642578125,1.0299999952316283L8.6642578125,1.0299999952316283Q8.2914659125,1.0299999952316283,8.0278618125,1.2936039952316285Q7.7642578125,1.5572080952316285,7.7642578125,1.9299999952316285Z"
                fill-rule="evenodd" fill="inherit" fill-opacity="1" />
        </g>
        <g>
            <ellipse cx="8.49999988079071" cy="7.9999998807907104" rx="1.4999998807907104"
                ry="1.4999998807907104" fill="inherit" fill-opacity="1" />
        </g>
        <g transform="matrix(-1,0,0,-1,18.5859375,16.009765625)">
            <path
                d="M9.29296875,7.4048828125L17.58593875,7.4048828125Q17.64502875,7.4048828125,17.70298875,7.4164118125Q17.76094875,7.4279408125,17.815548749999998,7.4505548125Q17.870138750000002,7.4731698125,17.91927875,7.5060008125Q17.968418749999998,7.5388328125,18.01019875,7.5806188125Q18.05198875,7.6224048125,18.08481875,7.6715408125Q18.11764875,7.7206758125,18.14026875,7.7752728125Q18.16287875,7.8298688125,18.174408749999998,7.8878288125Q18.18593875,7.9457880124999996,18.18593875,8.0048828125Q18.18593875,8.0639776125,18.174408749999998,8.1219368125Q18.16287875,8.179896812500001,18.14026875,8.2344928125Q18.11764875,8.2890898125,18.08481875,8.3382248125Q18.05198875,8.3873608125,18.01019875,8.4291468125Q17.968418749999998,8.4709328125,17.91927875,8.5037648125Q17.87014875,8.5365958125,17.815548749999998,8.5592108125Q17.76094875,8.5818248125,17.70298875,8.5933538125Q17.64502875,8.6048828125,17.58593875,8.6048828125L9.29296875,8.6048828125Q9.23387395,8.6048828125,9.17591475,8.5933538125Q9.117954749999999,8.5818248125,9.06335875,8.5592108125Q9.00876175,8.5365958125,8.95962675,8.5037648125Q8.91049075,8.4709328125,8.86870475,8.4291468125Q8.82691875,8.3873608125,8.79408675,8.3382248125Q8.76125575,8.2890898125,8.73864075,8.2344928125Q8.71602675,8.179896812500001,8.70449775,8.1219368125Q8.69296875,8.0639776125,8.69296875,8.0048828125Q8.69296875,7.9457880124999996,8.70449775,7.8878288125Q8.71602675,7.8298688125,8.73864075,7.7752728125Q8.76125575,7.7206758125,8.79408675,7.6715408125Q8.82691875,7.6224048125,8.86870475,7.5806188125Q8.91049075,7.5388328125,8.95962675,7.5060008125Q9.00876175,7.4731698125,9.06335875,7.4505548125Q9.117954749999999,7.4279408125,9.17591475,7.4164118125Q9.23387395,7.4048828125,9.29296875,7.4048828125Z"
                fill-rule="evenodd" fill="inherit" fill-opacity="1" />
        </g>
    </g>
</svg>