<svg xmlns="http://www.w3.org/2000/svg" xmlns:xlink="http://www.w3.org/1999/xlink" fill="none" version="1.1" width="19.465576171875" height="17.414306640625" viewBox="0 0 19.465576171875 17.414306640625"><g><g transform="matrix(0.7071067690849304,0.7071067690849304,-0.7071067690849304,0.7071067690849304,3.6511300605936867,-7.4003006372356595)"><path d="" fill="#080707" fill-opacity="0"/><path d="M10.25851821899414,2.7071533203125L10.25851821899414,6.3640033203125L11.25851821899414,6.3640033203125L11.25851821899414,2.7071533203125Q11.25851821899414,2.0858333203125,11.69785821899414,1.6464933203125Q12.13719821899414,1.2071533203125,12.75851821899414,1.2071533203125L20.07222821899414,1.2071533203125Q20.693548218994138,1.2071533203125,21.132918218994142,1.6464933203125Q21.57221821899414,2.0858333203125,21.57221821899414,2.7071533203125L21.57221821899414,10.0208633203125Q21.57221821899414,10.6421833203125,21.132918218994142,11.0815533203125Q20.693548218994138,11.5208533203125,20.07222821899414,11.5208533203125L16.41536821899414,11.5208533203125L16.41536821899414,12.5208533203125L20.07222821899414,12.5208533203125Q21.10771821899414,12.5208533203125,21.84001821899414,11.7886533203125Q22.57221821899414,11.0563533203125,22.57221821899414,10.0208633203125L22.57221821899414,2.7071533203125Q22.57221821899414,1.6716183203125001,21.84001821899414,0.9393863203125Q21.10771821899414,0.2071533203125,20.07222821899414,0.2071533203125L12.75851821899414,0.2071533203125Q11.72298421899414,0.2071533203125,10.990751218994141,0.9393863203125Q10.25851821899414,1.6716193203125,10.25851821899414,2.7071533203125Z" fill-rule="evenodd" fill="#000000" fill-opacity="1"/></g><g transform="matrix(1,-0.010525732301175594,0.010525732301175594,1,-0.1021748972560772,0.00011049963109144301)"><line x1="0.010498046875" y1="9.2071533203125" x2="10.759712219238281" y2="9.2071533203125" fill-opacity="0" stroke-opacity="1" stroke="#080707" fill="none" stroke-width="1"/></g><g><ellipse cx="11.51049792766571" cy="9.2071533203125" rx="1.4999998807907104" ry="1.5" fill="#080707" fill-opacity="1"/></g></g></svg>