<svg xmlns="http://www.w3.org/2000/svg" xmlns:xlink="http://www.w3.org/1999/xlink" fill="none" version="1.1" width="16" height="16" viewBox="0 0 16 16"><defs><clipPath id="master_svg0_1_1163"><rect x="0" y="0" width="16" height="16" rx="0"/></clipPath></defs><g clip-path="url(#master_svg0_1_1163)"><g><g><path d="M13.72261171875,12.22145344942093L13.72261171875,7.063703449420929Q13.72261171875,4.983963449420929,12.252021718750001,3.513369449420929Q10.78142171875,2.042773449420929,8.70169171875,2.042773449420929Q6.62195171875,2.042773449420929,5.15135771875,3.513369449420929Q3.68076171875,4.983963449420929,3.68076171875,7.063703449420929L3.68076171875,12.22145344942093Q3.68076171875,12.280543449420929,3.69229071875,12.338503449420928Q3.70381971875,12.39646344942093,3.72643371875,12.451053449420929Q3.74904871875,12.50565344942093,3.78187971875,12.554793449420929Q3.81471171875,12.603923449420929,3.85649771875,12.64567344942093Q3.89828371875,12.68747344942093,3.94741971875,12.72037344942093Q3.99655471875,12.75317344942093,4.05115171875,12.775773449420928Q4.10574771875,12.798373449420929,4.16370771875,12.809873449420929Q4.2216669187499996,12.821473449420928,4.28076171875,12.821473449420928L13.12261171875,12.821473449420928Q13.18171171875,12.821473449420928,13.23967171875,12.809873449420929Q13.29763171875,12.798373449420929,13.35222171875,12.775773449420928Q13.40682171875,12.75317344942093,13.45595171875,12.72037344942093Q13.50509171875,12.68747344942093,13.54688171875,12.64567344942093Q13.58866171875,12.603923449420929,13.62150171875,12.554793449420929Q13.65433171875,12.50565344942093,13.67694171875,12.451053449420929Q13.69956171875,12.39646344942093,13.71108171875,12.338503449420928Q13.72261171875,12.280543449420929,13.72261171875,12.22145344942093ZM11.40349171875,4.361893449420929Q12.52261171875,5.481023449420929,12.52261171875,7.063703449420929L12.52261171875,11.62145344942093L4.88076171875,11.62145344942093L4.88076171875,7.063703449420929Q4.88076171875,5.481023449420929,5.99988171875,4.361893449420929Q7.11901171875,3.242773449420929,8.70169171875,3.242773449420929Q10.28437171875,3.242773449420929,11.40349171875,4.361893449420929Z" fill-rule="evenodd" fill="#262626" fill-opacity="1"/></g><g><path d="M8.136762122802734,5.14086136711502Q8.185832122802735,5.1293743671150205,8.232302122802734,5.109861367115021Q8.278772122802735,5.090348367115021,8.321342122802735,5.063357367115021Q8.363902122802735,5.036365367115021,8.401362122802734,5.00265136711502Q8.438832122802735,4.9689373671150205,8.470142122802734,4.929446367115021Q8.501462122802735,4.8899543671150205,8.525752122802734,4.8457923671150205Q8.550032122802735,4.8016303671150204,8.566612122802734,4.754035367115021Q8.583192122802735,4.706440367115021,8.591602122802733,4.656746367115021Q8.600012122802735,4.6070526671150205,8.600012122802735,4.556652367115021Q8.600012122802735,4.49755756711502,8.588482122802734,4.43959836711502Q8.576952122802734,4.381638367115021,8.554342122802733,4.327042367115021Q8.531722122802734,4.27244536711502,8.498892122802735,4.223310367115021Q8.466062122802734,4.174174367115021,8.424272122802734,4.132388367115021Q8.382492122802734,4.090602367115021,8.333352122802735,4.057770367115021Q8.284222122802735,4.024939367115021,8.229622122802734,4.002324367115021Q8.175022122802734,3.979710367115021,8.117062122802734,3.9681813671150206Q8.059102122802734,3.9566523671150207,8.000012122802735,3.9566523671150207Q7.9307221228027345,3.9566523671150207,7.863262122802734,3.9724433671150208Q6.878147122802734,4.203035367115021,6.222035122802734,5.09623036711502Q5.666690122802734,5.8522423671150205,5.478851122802734,6.894152367115021Q5.469332122802735,6.946952367115021,5.469332122802735,7.000612367115021Q5.469332122802735,7.059702367115021,5.480861122802734,7.11766236711502Q5.4923901228027345,7.175622367115021,5.515004122802734,7.2302223671150205Q5.5376191228027345,7.284812367115021,5.570450122802734,7.333952367115021Q5.603282122802734,7.383082367115021,5.645068122802734,7.424872367115021Q5.6868541228027345,7.4666623671150205,5.735990122802734,7.499492367115021Q5.785125122802734,7.532322367115021,5.839722122802734,7.55493236711502Q5.894318122802734,7.577552367115021,5.952278122802734,7.5890823671150205Q6.010237322802734,7.600612367115021,6.069332122802734,7.600612367115021Q6.121680422802735,7.600612367115021,6.173238122802735,7.591542367115021Q6.2247951228027345,7.58247236711502,6.274004122802735,7.564622367115021Q6.323212122802734,7.54676236711502,6.368585122802735,7.520652367115021Q6.413957122802734,7.49454236711502,6.454123122802734,7.460972367115021Q6.494288122802734,7.427402367115021,6.528033122802734,7.387382367115021Q6.5617781228027345,7.3473623671150206,6.588082122802734,7.302102367115021Q6.614387122802734,7.256842367115021,6.6324561228027346,7.207712367115021Q6.650525122802734,7.15858236711502,6.659813122802735,7.10706236711502Q6.798341122802734,6.338672367115021,7.189152122802734,5.806642367115021Q7.582992122802734,5.270484367115021,8.136762122802734,5.14086136711502Z" fill-rule="evenodd" fill="#262626" fill-opacity="1"/></g><g><path d="M2.806640625,15.400000011920929L14.595740625,15.400000011920929Q14.654840625,15.400000011920929,14.712840625,15.38847101192093Q14.770840625,15.37694201192093,14.825340625,15.354328011920929Q14.879940625,15.331713011920929,14.929140625,15.298882011920929Q14.978240625,15.266050011920928,15.020040625,15.22426401192093Q15.061840625,15.18247801192093,15.094640625,15.133342011920929Q15.127540625,15.08420701192093,15.150140625,15.029610011920928Q15.172740625,14.97501401192093,15.184240625,14.917054011920929Q15.195740625,14.85909481192093,15.195740625,14.800000011920929Q15.195740625,14.740905211920929,15.184240625,14.68294601192093Q15.172740625,14.624986011920928,15.150140625,14.57039001192093Q15.127540625,14.515793011920929,15.094640625,14.466658011920929Q15.061840625,14.417522011920928,15.020040625,14.375736011920928Q14.978240625,14.33395001192093,14.929140625,14.301118011920929Q14.879940625,14.268287011920929,14.825340625,14.245672011920929Q14.770840625,14.223058011920928,14.712840625,14.211529011920929Q14.654840625,14.20000001192093,14.595740625,14.20000001192093L2.806640625,14.20000001192093Q2.747545825,14.20000001192093,2.689586625,14.211529011920929Q2.631626625,14.223058011920928,2.577030625,14.245672011920929Q2.522433625,14.268287011920929,2.473298625,14.301118011920929Q2.424162625,14.33395001192093,2.382376625,14.375736011920928Q2.340590625,14.417522011920928,2.307758625,14.466658011920929Q2.274927625,14.515793011920929,2.252312625,14.57039001192093Q2.229698625,14.624986011920928,2.218169625,14.68294601192093Q2.206640625,14.740905211920929,2.206640625,14.800000011920929Q2.206640625,14.85909481192093,2.218169625,14.917054011920929Q2.229698625,14.97501401192093,2.252312625,15.029610011920928Q2.274927625,15.08420701192093,2.307758625,15.133342011920929Q2.340590625,15.18247801192093,2.382376625,15.22426401192093Q2.424162625,15.266050011920928,2.473298625,15.298882011920929Q2.522433625,15.331713011920929,2.577030625,15.354328011920929Q2.631626625,15.37694201192093,2.689586625,15.38847101192093Q2.747545825,15.400000011920929,2.806640625,15.400000011920929Z" fill-rule="evenodd" fill="#262626" fill-opacity="1"/></g><g transform="matrix(0.7313537001609802,-0.6819983720779419,0.6819983720779419,0.7313536405563354,-2.448477563970563,2.015037371405562)"><path d="M0.80653109375,4.402323699420929L1.36359129375,5.425529699420929Q1.40227559375,5.496579699420929,1.45839809375,5.554859699420929Q1.51452109375,5.613129699420929,1.58407309375,5.654449699420929Q1.65362509375,5.695779699420929,1.7316390937500001,5.717209699420929Q1.80965309375,5.738629699420929,1.8905560937499999,5.738629699420929L1.90336709375,5.738499699420929Q2.0492740937500002,5.735379699420929,2.17745009375,5.665599699420929Q2.2822700937500002,5.608529699420929,2.35727609375,5.515699699420929Q2.43227609375,5.422859699420929,2.46603609375,5.308389699420929Q2.49055609375,5.225279699420929,2.49055609375,5.138639699420929L2.49054609375,5.134749699420929Q2.4895660937499997,4.984074699420929,2.4175260937500003,4.851740699420929L2.41734609375,4.851419699420929L1.8604610937500001,3.8285356994209288Q1.82177709375,3.757480699420929,1.76565409375,3.699208699420929Q1.70953109375,3.640937699420929,1.63997909375,3.599611699420929Q1.57042709375,3.558285699420929,1.49241309375,3.536857699420929Q1.41439919375,3.515429699420929,1.3334960372689,3.515429699420929L1.32068509375,3.515566699420929Q1.17477809375,3.518682699420929,1.04660209375,3.588464699420929Q0.9755470937499999,3.6271486994209288,0.91727509375,3.683271699420929Q0.85900409375,3.739394699420929,0.81767809375,3.808946699420929Q0.77635209375,3.8784986994209287,0.75492409375,3.9565126994209288Q0.73349609375,4.034526499420929,0.73349609375,4.115429699420929L0.73363309375,4.128240699420929Q0.73674909375,4.274147699420929,0.80653109375,4.402323699420929Z" fill-rule="evenodd" fill="#262626" fill-opacity="1"/></g><g transform="matrix(0.7313537001609802,-0.6819983720779419,0.6819983720779419,0.7313536405563354,0.3832345950665612,3.2330541113402447)"><path d="M3.74975215625,1.9401341369209288L3.74971615625,1.940213136920929Q3.69541015625,2.059019136920929,3.69541015625,2.189648136920929L3.69546615625,2.197858136920929Q3.69688715625,2.3017581369209292,3.73316915625,2.399138136920929Q3.77483815625,2.510968136920929,3.85613315625,2.598348136920929Q3.93742915625,2.685728136920929,4.04597415625,2.735338136920929Q4.16478115625,2.789648136920929,4.29541015625,2.789648136920929Q4.30995085625,2.789648136920929,4.32447475625,2.7889481369209292Q4.40691215625,2.784948136920929,4.48520815625,2.7588381369209287Q4.56350415625,2.7327281369209286,4.6318431562499995,2.686448136920929Q4.70018215625,2.640168136920929,4.75348715625,2.5771581369209287Q4.80679215625,2.514148136920929,4.84110415625,2.4390881369209287L4.84114015625,2.439008136920929L5.32543015625,1.379514136920929Q5.37974015625,1.260708136920929,5.37974015625,1.1300783960509289Q5.37974015625,1.115537336920929,5.37903015625,1.1010135369209288Q5.37504015625,1.018576136920929,5.34893015625,0.9402801369209289Q5.32282015625,0.8619841369209289,5.27654015625,0.793645136920929Q5.23026115625,0.7253061369209289,5.16725015625,0.6720011369209289Q5.10423815625,0.618696136920929,5.02917315625,0.5843841369209289Q4.91036715625,0.530078136920929,4.77973815625,0.530078136920929Q4.76519715625,0.530078136920929,4.75067315625,0.5307821369209289Q4.66823615625,0.534780136920929,4.58993915625,0.560889136920929Q4.51164315625,0.5869971369209289,4.44330415625,0.633276136920929Q4.37496585625,0.679554136920929,4.32166075625,0.7425661369209289Q4.26835565625,0.8055781369209289,4.23404395625,0.880642136920929L4.23398815625,0.8807641369209289L3.74975215625,1.9401341369209288Z" fill-rule="evenodd" fill="#262626" fill-opacity="1"/></g><g transform="matrix(-0.7313537001609802,-0.6819983720779419,-0.6819983720779419,0.7313537001609802,8.226886203831135,3.2406566927336833)"><path d="M3.6019943875,3.626059011920929L5.1640746875,3.571510011920929Q5.2218146875,3.5694930119209287,5.2781046875,3.556497011920929Q5.3344046875,3.543501011920929,5.3871746875,3.520002011920929Q5.4399546875,3.496504011920929,5.4872846875,3.463366011920929Q5.5346046875,3.430229011920929,5.5747446875,3.388670011920929Q5.6148746875,3.3471120119209288,5.6463346875,3.298659011920929Q5.6778046875,3.250206011920929,5.6994446875,3.196640011920929Q5.721084687499999,3.143073011920929,5.7321146875,3.086361011920929Q5.7431346875,3.029649611920929,5.7431346875,2.971876249740929L5.7431346875,2.970954046920929Q5.7431246875,2.960941611920929,5.7427746875,2.950935311920929Q5.7386046875000005,2.831661011920929,5.6891146875,2.723059011920929Q5.6396246875,2.614458011920929,5.5523346875,2.533063011920929Q5.4690246875,2.455374011920929,5.3630346875,2.413625011920929Q5.2570546875,2.371875011920929,5.1431346875,2.371875011920929L5.1419846875,2.371876011920929Q5.1320846875,2.371895011920929,5.1221946875,2.372240011920929L3.5601149875,2.4267900119209287Q3.5023767875,2.428806011920929,3.4460836875,2.441802011920929Q3.3897916875,2.454798011920929,3.3370126875,2.478297011920929Q3.2842336875,2.501795011920929,3.2369086875,2.534933011920929Q3.1895836875,2.5680700119209288,3.1494506875,2.609629011920929Q3.1093176875,2.651188011920929,3.0778526875,2.699641011920929Q3.0463866875,2.748094011920929,3.0247446875,2.801660011920929Q3.0031016875,2.855227011920929,2.9920786875,2.911938711920929Q2.9810546875,2.968650681920929,2.9810546875,3.026424111920929L2.9810556875,3.027345111920929Q2.9810706875,3.037357511920929,2.9814196875,3.047363811920929Q2.9834366875000002,3.105102011920929,2.9964326875,3.161395011920929Q3.0094286875,3.217687011920929,3.0329276875,3.270466011920929Q3.0564256875,3.323245011920929,3.0895636875,3.370570011920929Q3.1227006875,3.417895011920929,3.1642596875,3.458028011920929Q3.2058186875,3.4981610119209288,3.2542716875,3.529626011920929Q3.3027236875,3.561092011920929,3.3562906875,3.582734011920929Q3.4098576875,3.604377011920929,3.4665696875,3.615400011920929Q3.5232812875,3.6264240119209292,3.5810546875,3.6264240119209292L3.5819756525,3.626423011920929Q3.5919880875,3.6264080119209288,3.6019943875,3.626059011920929Z" fill-rule="evenodd" fill="#262626" fill-opacity="1"/></g></g></g></svg>