<svg xmlns="http://www.w3.org/2000/svg" xmlns:xlink="http://www.w3.org/1999/xlink" fill="none" version="1.1" width="32" height="32" viewBox="0 0 32 32"><defs><clipPath id="master_svg0_39_735"><rect x="0" y="0" width="32" height="32" rx="4"/></clipPath><clipPath id="master_svg1_39_742"><rect x="6" y="6" width="20" height="20" rx="0"/></clipPath></defs><g clip-path="url(#master_svg0_39_735)"><g clip-path="url(#master_svg1_39_742)"><g><path d="M7.35,13.8L7.35,8Q7.35,7.9359806,7.36249,7.873191Q7.374979,7.810402,7.399478,7.751256Q7.423978,7.69211,7.459545,7.638879Q7.495112,7.585649,7.540381,7.540381Q7.585649,7.495112,7.638879,7.459545Q7.69211,7.423978,7.751256,7.399478Q7.810402,7.374979,7.873191,7.36249Q7.9359806,7.35,8,7.35L13.8,7.35Q13.86402,7.35,13.92681,7.36249Q13.9896,7.374979,14.048739999999999,7.399478Q14.107890000000001,7.423978,14.16112,7.459545Q14.21435,7.495112,14.25962,7.540381Q14.30489,7.585649,14.34046,7.638879Q14.37602,7.69211,14.40052,7.751256Q14.42502,7.810402,14.43751,7.873191Q14.45,7.9359806,14.45,8L14.45,13.8Q14.45,13.86402,14.43751,13.92681Q14.42502,13.9896,14.40052,14.048739999999999Q14.37602,14.107890000000001,14.34045,14.16112Q14.30489,14.21435,14.25962,14.25962Q14.21435,14.30489,14.16112,14.34046Q14.107890000000001,14.37602,14.048739999999999,14.40052Q13.9896,14.42502,13.92681,14.43751Q13.86402,14.45,13.8,14.45L8,14.45Q7.9359806,14.45,7.873191,14.43751Q7.810402,14.42502,7.751256,14.40052Q7.69211,14.37602,7.638879,14.34045Q7.585649,14.30489,7.540381,14.25962Q7.495112,14.21435,7.459545,14.16112Q7.423978,14.107890000000001,7.399478,14.048739999999999Q7.374979,13.9896,7.36249,13.92681Q7.35,13.86402,7.35,13.8ZM8.65,8.65L8.65,13.15L13.15,13.15L13.15,8.65L8.65,8.65Z" fill="#FFFFFF" fill-opacity="1"/></g><g transform="matrix(0.7071067690849304,0.7071067690849304,-0.7071067690849304,0.7071067690849304,18.17157292366028,-9.870057225227356)"><path d="M20.4,22.3L20.4,17Q20.4,16.9409052,20.411529,16.882946Q20.423058,16.824986,20.445672,16.77039Q20.468287,16.715793,20.501118,16.666657999999998Q20.53395,16.617522,20.575736,16.575736Q20.617522,16.53395,20.666657999999998,16.501118Q20.715793,16.468287,20.77039,16.445672Q20.824986,16.423058,20.882946,16.411529Q20.9409052,16.4,21,16.4L26.3,16.4Q26.359090000000002,16.4,26.41705,16.411529Q26.47501,16.423058,26.529609999999998,16.445672Q26.58421,16.468287,26.63334,16.501118Q26.682479999999998,16.53395,26.72426,16.575736Q26.76605,16.617522,26.79888,16.666657999999998Q26.83171,16.715793,26.85433,16.77039Q26.87694,16.824986,26.888469999999998,16.882946Q26.9,16.9409052,26.9,17L26.9,22.3Q26.9,22.359090000000002,26.888469999999998,22.41705Q26.87694,22.47501,26.85433,22.529609999999998Q26.83171,22.58421,26.79888,22.63334Q26.76605,22.682479999999998,26.72426,22.72426Q26.682479999999998,22.76605,26.63334,22.79888Q26.58421,22.83171,26.529609999999998,22.85433Q26.47501,22.87694,26.41705,22.888469999999998Q26.359090000000002,22.9,26.3,22.9L21,22.9Q20.9409052,22.9,20.882946,22.888469999999998Q20.824986,22.87694,20.77039,22.85433Q20.715793,22.83171,20.666657999999998,22.79888Q20.617522,22.76605,20.575736,22.72426Q20.53395,22.682479999999998,20.501118,22.63334Q20.468287,22.58421,20.445672,22.529609999999998Q20.423058,22.47501,20.411529,22.41705Q20.4,22.359090000000002,20.4,22.3ZM21.6,17.6L21.6,21.7L25.7,21.7L25.7,17.6L21.6,17.6Z" fill="#FFFFFF" fill-opacity="1"/></g><g><ellipse cx="21.00000023841858" cy="11.200000286102295" rx="3.200000047683716" ry="3.200000286102295" fill-opacity="0" stroke-opacity="1" stroke="#FFFFFF" fill="none" stroke-width="1.2999999523162842" stroke-linecap="ROUND" stroke-linejoin="round"/></g><g><path d="M8,21.65L13.8,21.65Q13.86402,21.65,13.92681,21.63751Q13.9896,21.625021,14.048739999999999,21.600522Q14.107890000000001,21.576022000000002,14.16112,21.540455Q14.21435,21.504888,14.25962,21.459619Q14.30489,21.414351,14.34046,21.361121Q14.37602,21.30789,14.40052,21.248744Q14.42502,21.189598,14.43751,21.126809Q14.45,21.0640194,14.45,21Q14.45,20.9359806,14.43751,20.873191Q14.42502,20.810402,14.40052,20.751256Q14.37602,20.69211,14.34045,20.638879Q14.30489,20.585649,14.25962,20.540381Q14.21435,20.495112,14.16112,20.459545Q14.107890000000001,20.423977999999998,14.048739999999999,20.399478Q13.9896,20.374979,13.92681,20.36249Q13.86402,20.35,13.8,20.35L8,20.35Q7.9359806,20.35,7.873191,20.36249Q7.810402,20.374979,7.751256,20.399478Q7.69211,20.423977999999998,7.638879,20.459545Q7.585649,20.495112,7.540381,20.540381Q7.495112,20.585649,7.459545,20.638879Q7.423978,20.69211,7.399478,20.751256Q7.374979,20.810402,7.36249,20.873191Q7.35,20.9359806,7.35,21Q7.35,21.0640194,7.36249,21.126809Q7.374979,21.189598,7.399478,21.248744Q7.423978,21.30789,7.459545,21.361121Q7.495112,21.414351,7.540381,21.459619Q7.585649,21.504888,7.638879,21.540455Q7.69211,21.576022000000002,7.751256,21.600522Q7.810402,21.625021,7.873191,21.63751Q7.9359806,21.65,8,21.65Z" fill-rule="evenodd" fill="#FFFFFF" fill-opacity="1"/></g><g transform="matrix(0,1,-1,0,29.0009765625,6.9990234375)"><path d="M11.0009765625,18.65L16.8009765625,18.65Q16.8649965625,18.65,16.9277865625,18.63751Q16.9905765625,18.625021,17.0497165625,18.600522Q17.1088665625,18.576022000000002,17.1620965625,18.540455Q17.2153265625,18.504888,17.260596562499998,18.459619Q17.3058665625,18.414351,17.3414365625,18.361121Q17.3769965625,18.30789,17.4014965625,18.248744Q17.4259965625,18.189598,17.4384865625,18.126809Q17.4509765625,18.0640194,17.4509765625,18Q17.4509765625,17.9359806,17.4384865625,17.873191Q17.4259965625,17.810402,17.4014965625,17.751256Q17.3769965625,17.69211,17.3414265625,17.638879Q17.3058665625,17.585649,17.260596562499998,17.540381Q17.2153265625,17.495112,17.1620965625,17.459545Q17.1088665625,17.423977999999998,17.0497165625,17.399478Q16.9905765625,17.374979,16.9277865625,17.36249Q16.8649965625,17.35,16.8009765625,17.35L11.0009765625,17.35Q10.9369571625,17.35,10.8741675625,17.36249Q10.8113785625,17.374979,10.7522325625,17.399478Q10.6930865625,17.423977999999998,10.6398555625,17.459545Q10.5866255625,17.495112,10.5413575625,17.540381Q10.4960885625,17.585649,10.4605215625,17.638879Q10.4249545625,17.69211,10.4004545625,17.751256Q10.3759555625,17.810402,10.3634665625,17.873191Q10.3509765625,17.9359806,10.3509765625,18Q10.3509765625,18.0640194,10.3634665625,18.126809Q10.3759555625,18.189598,10.4004545625,18.248744Q10.4249545625,18.30789,10.4605215625,18.361121Q10.4960885625,18.414351,10.5413575625,18.459619Q10.5866255625,18.504888,10.6398555625,18.540455Q10.6930865625,18.576022000000002,10.7522325625,18.600522Q10.8113785625,18.625021,10.8741675625,18.63751Q10.9369571625,18.65,11.0009765625,18.65Z" fill-rule="evenodd" fill="#FFFFFF" fill-opacity="1"/></g></g></g></svg>