<svg xmlns="http://www.w3.org/2000/svg" xmlns:xlink="http://www.w3.org/1999/xlink" fill="none" version="1.1" width="20" height="20" viewBox="0 0 20 20"><defs><clipPath id="master_svg0_39_742"><rect x="0" y="0" width="20" height="20" rx="0"/></clipPath></defs><g clip-path="url(#master_svg0_39_742)"><g><path d="M1.35,7.8L1.35,2Q1.35,1.9359806,1.36249,1.873191Q1.374979,1.810402,1.399478,1.751256Q1.423978,1.69211,1.4595449999999999,1.638879Q1.495112,1.585649,1.540381,1.540381Q1.585649,1.495112,1.638879,1.4595449999999999Q1.69211,1.423978,1.751256,1.399478Q1.810402,1.374979,1.873191,1.36249Q1.9359806,1.35,2,1.35L7.8,1.35Q7.86402,1.35,7.92681,1.36249Q7.9896,1.374979,8.048739999999999,1.399478Q8.107890000000001,1.423978,8.16112,1.4595449999999999Q8.21435,1.495112,8.25962,1.540381Q8.30489,1.585649,8.34046,1.638879Q8.37602,1.69211,8.40052,1.751256Q8.42502,1.810402,8.43751,1.873191Q8.45,1.9359806,8.45,2L8.45,7.8Q8.45,7.86402,8.43751,7.92681Q8.42502,7.9896,8.40052,8.048739999999999Q8.37602,8.107890000000001,8.34045,8.16112Q8.30489,8.21435,8.25962,8.25962Q8.21435,8.30489,8.16112,8.34046Q8.107890000000001,8.37602,8.048739999999999,8.40052Q7.9896,8.42502,7.92681,8.43751Q7.86402,8.45,7.8,8.45L2,8.45Q1.9359806,8.45,1.873191,8.43751Q1.810402,8.42502,1.751256,8.40052Q1.69211,8.37602,1.638879,8.34045Q1.585649,8.30489,1.540381,8.25962Q1.495112,8.21435,1.4595449999999999,8.16112Q1.423978,8.107890000000001,1.399478,8.048739999999999Q1.374979,7.9896,1.36249,7.92681Q1.35,7.86402,1.35,7.8ZM2.65,2.65L2.65,7.15L7.15,7.15L7.15,2.65L2.65,2.65Z" fill="#FFFFFF" fill-opacity="1"/></g><g transform="matrix(0.7071067690849304,0.7071067690849304,-0.7071067690849304,0.7071067690849304,12.171572923660278,-7.384775996208191)"><path d="M14.4,16.3L14.4,11Q14.4,10.9409052,14.411529,10.882946Q14.423058,10.824985999999999,14.445672,10.77039Q14.468287,10.715793,14.501118,10.666658Q14.53395,10.617522,14.575736,10.575736Q14.617522,10.53395,14.666658,10.501118Q14.715793,10.468287,14.77039,10.445672Q14.824985999999999,10.423058,14.882946,10.411529Q14.9409052,10.4,15,10.4L20.3,10.4Q20.359090000000002,10.4,20.41705,10.411529Q20.47501,10.423058,20.529609999999998,10.445672Q20.58421,10.468287,20.63334,10.501118Q20.682479999999998,10.53395,20.72426,10.575736Q20.76605,10.617522,20.79888,10.666658Q20.83171,10.715793,20.85433,10.77039Q20.87694,10.824985999999999,20.888469999999998,10.882946Q20.9,10.9409052,20.9,11L20.9,16.3Q20.9,16.359090000000002,20.888469999999998,16.41705Q20.87694,16.47501,20.85433,16.529609999999998Q20.83171,16.58421,20.79888,16.63334Q20.76605,16.682479999999998,20.72426,16.72426Q20.682479999999998,16.76605,20.63334,16.79888Q20.58421,16.83171,20.529609999999998,16.85433Q20.47501,16.87694,20.41705,16.888469999999998Q20.359090000000002,16.9,20.3,16.9L15,16.9Q14.9409052,16.9,14.882946,16.888469999999998Q14.824985999999999,16.87694,14.77039,16.85433Q14.715793,16.83171,14.666658,16.79888Q14.617522,16.76605,14.575736,16.72426Q14.53395,16.682479999999998,14.501118,16.63334Q14.468287,16.58421,14.445672,16.529609999999998Q14.423058,16.47501,14.411529,16.41705Q14.4,16.359090000000002,14.4,16.3ZM15.6,11.6L15.6,15.7L19.7,15.7L19.7,11.6L15.6,11.6Z" fill="#FFFFFF" fill-opacity="1"/></g><g><ellipse cx="15.000000238418579" cy="5.200000286102295" rx="3.200000047683716" ry="3.200000286102295" fill-opacity="0" stroke-opacity="1" stroke="#FFFFFF" fill="none" stroke-width="1.2999999523162842" stroke-linecap="ROUND" stroke-linejoin="round"/></g><g><path d="M2,15.65L7.8,15.65Q7.86402,15.65,7.92681,15.63751Q7.9896,15.625021,8.048739999999999,15.600522Q8.107890000000001,15.576022,8.16112,15.540455Q8.21435,15.504888,8.25962,15.459619Q8.30489,15.414351,8.34046,15.361121Q8.37602,15.30789,8.40052,15.248744Q8.42502,15.189598,8.43751,15.126809Q8.45,15.0640194,8.45,15Q8.45,14.9359806,8.43751,14.873191Q8.42502,14.810402,8.40052,14.751256Q8.37602,14.69211,8.34045,14.638879Q8.30489,14.585649,8.25962,14.540381Q8.21435,14.495112,8.16112,14.459545Q8.107890000000001,14.423978,8.048739999999999,14.399478Q7.9896,14.374979,7.92681,14.36249Q7.86402,14.35,7.8,14.35L2,14.35Q1.9359806,14.35,1.873191,14.36249Q1.810402,14.374979,1.751256,14.399478Q1.69211,14.423978,1.638879,14.459545Q1.585649,14.495112,1.540381,14.540381Q1.495112,14.585649,1.4595449999999999,14.638879Q1.423978,14.69211,1.399478,14.751256Q1.374979,14.810402,1.36249,14.873191Q1.35,14.9359806,1.35,15Q1.35,15.0640194,1.36249,15.126809Q1.374979,15.189598,1.399478,15.248744Q1.423978,15.30789,1.4595449999999999,15.361121Q1.495112,15.414351,1.540381,15.459619Q1.585649,15.504888,1.638879,15.540455Q1.69211,15.576022,1.751256,15.600522Q1.810402,15.625021,1.873191,15.63751Q1.9359806,15.65,2,15.65Z" fill-rule="evenodd" fill="#FFFFFF" fill-opacity="1"/></g><g transform="matrix(0,1,-1,0,17.0009765625,6.9990234375)"><path d="M5.0009765625,12.65L10.8009765625,12.65Q10.8649965625,12.65,10.9277865625,12.63751Q10.9905765625,12.625021,11.049716562499999,12.600522Q11.108866562500001,12.576022,11.1620965625,12.540455Q11.2153265625,12.504888,11.2605965625,12.459619Q11.3058665625,12.414351,11.3414365625,12.361121Q11.3769965625,12.30789,11.4014965625,12.248744Q11.4259965625,12.189598,11.4384865625,12.126809Q11.4509765625,12.0640194,11.4509765625,12Q11.4509765625,11.9359806,11.4384865625,11.873191Q11.4259965625,11.810402,11.4014965625,11.751256Q11.3769965625,11.69211,11.3414265625,11.638879Q11.3058665625,11.585649,11.2605965625,11.540381Q11.2153265625,11.495112,11.1620965625,11.459545Q11.108866562500001,11.423978,11.049716562499999,11.399478Q10.9905765625,11.374979,10.9277865625,11.36249Q10.8649965625,11.35,10.8009765625,11.35L5.0009765625,11.35Q4.9369571625,11.35,4.8741675625,11.36249Q4.8113785625,11.374979,4.7522325625,11.399478Q4.6930865625,11.423978,4.6398555625,11.459545Q4.5866255625,11.495112,4.5413575625,11.540381Q4.4960885625,11.585649,4.4605215625,11.638879Q4.4249545625,11.69211,4.4004545625,11.751256Q4.3759555625,11.810402,4.3634665625,11.873191Q4.3509765625,11.9359806,4.3509765625,12Q4.3509765625,12.0640194,4.3634665625,12.126809Q4.3759555625,12.189598,4.4004545625,12.248744Q4.4249545625,12.30789,4.4605215625,12.361121Q4.4960885625,12.414351,4.5413575625,12.459619Q4.5866255625,12.504888,4.6398555625,12.540455Q4.6930865625,12.576022,4.7522325625,12.600522Q4.8113785625,12.625021,4.8741675625,12.63751Q4.9369571625,12.65,5.0009765625,12.65Z" fill-rule="evenodd" fill="#FFFFFF" fill-opacity="1"/></g></g></svg>