<svg xmlns="http://www.w3.org/2000/svg" xmlns:xlink="http://www.w3.org/1999/xlink" fill="none" version="1.1" width="16" height="16" viewBox="0 0 16 16"><defs><clipPath id="master_svg0_342_5480"><rect x="16" y="0" width="16" height="16" rx="0"/></clipPath></defs><g transform="matrix(-1,0,0,1,32,0)" clip-path="url(#master_svg0_342_5480)"><g><path d="M29.56199609375,5.5728940234375L29.56229609375,5.5735940234375Q29.59729609375,5.6538040234375,29.65379609375,5.7206540234375Q29.71029609375,5.7875040234375,29.78359609375,5.8354340234375Q29.85679609375,5.8833640234375,29.94069609375,5.9083640234375Q30.02459609375,5.9333740234375,30.11209609375,5.9333740234375Q30.171196093749998,5.9333740234375,30.229196093749998,5.9218440234375Q30.28709609375,5.9103140234375,30.341696093750002,5.8877040234375Q30.39629609375,5.8650840234375,30.44539609375,5.8322540234375Q30.494596093749998,5.7994240234375,30.53639609375,5.7576340234375Q30.57809609375,5.7158540234375,30.61099609375,5.6667140234375Q30.643796093749998,5.6175840234375,30.666396093750002,5.5629840234375Q30.68899609375,5.5083840234375,30.70059609375,5.4504240234375Q30.71209609375,5.3924640234375,30.71209609375,5.3333740234375Q30.71209609375,5.2079940234375,30.661896093750002,5.0931140234375L30.66129609375,5.0918240234375Q29.80729609375,3.1381240234375003,28.02849609375,1.9513150234375Q26.20306609375,0.7333740234375,24.00016609375,0.7333740234375Q20.99020609375,0.7333740234375,18.86185609375,2.8617340234375Q16.73349609375,4.9900840234375,16.73349509375,8.0000440234375Q16.73349609375,11.0099740234375,18.86185609375,13.1383740234375Q20.99021609375,15.2666740234375,24.00016609375,15.2666740234375Q26.71453609375,15.2666740234375,28.76189609375,13.4892740234375Q30.78749609375,11.7307740234375,31.18529609375,9.091844023437499L31.18559609375,9.0896740234375L31.18569609375,9.0893040234375L29.99899609375,8.9107840234375L29.99899609375,8.9108340234375L29.998896093749998,8.911704023437501Q29.66729609375,11.1141740234375,27.97519609375,12.5830740234375Q26.26631609375,14.0666740234375,24.00016609375,14.0666740234375Q21.48726609375,14.0666740234375,19.71038609375,12.2897740234375Q17.93349609375,10.5129240234375,17.93349609375,8.0000440234375Q17.93349609375,5.4871440234375,19.71037609375,3.7102540234375Q21.48726609375,1.9333740234375,24.00016609375,1.9333740234375Q25.83948609375,1.9333740234375,27.36249609375,2.9495240234375Q28.84889609375,3.9412240234375,29.56199609375,5.5728940234375Z" fill-rule="evenodd" fill="#333333" fill-opacity="1"/></g><g><path d="M31.26682609375,2L31.26682609375,4.93333Q31.26682609375,5.34754,30.97394609375,5.64043Q30.68105609375,5.93333,30.26682609375,5.93333L27.33349609375,5.93333Q27.27440129375,5.93333,27.21644209375,5.9218Q27.15848209375,5.91028,27.10388609375,5.88766Q27.04928909375,5.86505,27.000154093749998,5.83221Q26.95101809375,5.79938,26.90923209375,5.7576Q26.86744609375,5.715809999999999,26.83461409375,5.6666799999999995Q26.80178309375,5.61754,26.77916809375,5.56294Q26.75655409375,5.50835,26.74502509375,5.4503900000000005Q26.73349609375,5.39243,26.73349609375,5.33333Q26.73349609375,5.27424,26.74502509375,5.216279999999999Q26.75655409375,5.15832,26.77916809375,5.10372Q26.80178309375,5.04913,26.83461409375,4.99999Q26.86744609375,4.9508600000000005,26.90923209375,4.90907Q26.95101809375,4.86728,27.000154093749998,4.83445Q27.04928909375,4.80162,27.10388609375,4.7790099999999995Q27.15848209375,4.75639,27.21644209375,4.74486Q27.27440129375,4.7333300000000005,27.33349609375,4.7333300000000005L30.06682609375,4.7333300000000005L30.06682609375,2Q30.06682609375,1.9409052,30.07835609375,1.882946Q30.08988609375,1.824986,30.11250609375,1.77039Q30.13511609375,1.7157930000000001,30.16794609375,1.666658Q30.20077609375,1.6175220000000001,30.24256609375,1.575736Q30.28435609375,1.53395,30.33348609375,1.501118Q30.382626093749998,1.4682870000000001,30.43721609375,1.445672Q30.49181609375,1.4230580000000002,30.54977609375,1.411529Q30.60773609375,1.4,30.66682609375,1.4Q30.72592609375,1.4,30.78388609375,1.411529Q30.84184609375,1.4230580000000002,30.89643609375,1.445672Q30.951036093749998,1.4682870000000001,31.00017609375,1.501118Q31.04930609375,1.53395,31.09109609375,1.575736Q31.13287609375,1.6175220000000001,31.16570609375,1.666658Q31.19854609375,1.7157930000000001,31.22115609375,1.77039Q31.24377609375,1.824986,31.25529609375,1.882946Q31.26682609375,1.9409052,31.26682609375,2Z" fill-rule="evenodd" fill="#333333" fill-opacity="1"/></g></g></svg>