<svg data-v-cb91088a="" data-v-3844b174="" width="12" height="12" viewBox="28 10 12 12" version="1.1" xmlns="http://www.w3.org/2000/svg" xmlns:xlink="http://www.w3.org/1999/xlink" xmlns:xhtml="http://www.w3.org/1999/xhtml" preserveAspectRatio="xMinYMin meet" overflow="visible" style="background-color: transparent;"><g transform="translate(28,10)"><svg version="1.1" xmlns="http://www.w3.org/2000/svg" xmlns:xlink="http://www.w3.org/1999/xlink" xmlns:xhtml="http://www.w3.org/1999/xhtml" preserveAspectRatio="xMinYMin meet" overflow="hidden" width="12" height="12" x="0" y="0" viewBox="0 0 12 12"><clipPath id="clippath-artboard-5046"><path d="M 0 0 l 12 0 l 0 12 l -12 0 z" clip-rule="evenodd"/></clipPath><g clip-path="url(#clippath-artboard-5046)"><g transform="translate(1.5,2)"><path d="M 2.5495486682639132 0.8075833865574386 C 2.635337897900553 0.7188654288082211 2.6835394403201156 0.5985377721164685 2.6835394403201156 0.47307161157973715 C 2.6835394403201156 0.2118017296500335 2.478719484537672 0 2.226045681592297 0 C 2.104718336777679 0 1.988350224307672 0.04984131116688406 1.9024328964185875 0.13867905064815367 L 1.0182713084260302 1.0529438701897158 L 0.13399717696882577 1.967334526779958 C -0.044665207163348805 2.1520784525340773 -0.04466566465710739 2.4516084741219037 0.13399534699379081 2.636361861308254 L 1.0182804583012048 3.550761979330728 L 1.9025518447958567 4.465133713056506 C 1.988350224307672 4.55385356309217 2.104718336777679 4.6036963880882125 2.226045681592297 4.6036963880882125 C 2.478719484537672 4.6036963880882125 2.6835394403201156 4.391892766151732 2.6835394403201156 4.130624776508475 C 2.6835394403201156 4.005156723685297 2.635337897900553 3.8848262285638744 2.5494663193873417 3.796030687070358 L 1.665277281769261 2.881744106234664 L 1.5619843409236938 2.7749245363399586 L 6.015997177894947 2.7749245363399586 C 7.09781436940827 2.7749245363399586 7.09781436940827 2.7749245363399586 7.597324354937652 3.2610623858315284 C 8.085012701741507 3.7356856722972474 8.085012701741507 3.7356856722972474 8.085012701741507 4.760718317403758 C 8.085012701741507 5.955735053983101 8.085012701741507 5.955735053983101 7.578274314824224 6.510553440043816 C 7.082049134482509 7.053857263078681 7.082049134482509 7.053857263078681 6.015988028019771 7.053857263078681 L 1.6126471997652125 7.053857263078681 C 1.3599825466950128 7.053857263078681 1.1551534410373934 7.26565142358293 1.1551534410373934 7.526928874658418 C 1.1551534410373934 7.788196864301676 1.3599825466950128 8.000000486238156 1.6126471997652125 8.000000486238156 L 6.015988028019771 8.000000486238156 C 7.476445354006587 8.000000486238156 7.476445354006587 8.000000486238156 8.243479389889648 7.160194299929574 C 9.000000219197144 6.331902676646845 9.000000219197144 6.331902676646845 9.000000219197144 4.760718317403758 C 8.99999106932197 3.326885569866733 8.99999106932197 3.326885569866733 8.224429349776221 2.572080890726799 C 7.460680119080826 1.8287813131804846 7.460680119080826 1.8287813131804846 6.015997177894947 1.8287813131804846 L 1.5619751910485193 1.8287813131804846 L 1.665268131894086 1.7219712047180114 L 2.5495486682639132 0.8075833865574386 Z" fill="currentColor" fill-opacity="1" stroke="none" stroke-width="0" fill-rule="evenodd"/></g></g></svg></g></svg>