<svg t="1701500074766" class="icon" viewBox="0 0 1024 1024" version="1.1"
    xmlns="http://www.w3.org/2000/svg" p-id="7989" xmlns:xlink="http://www.w3.org/1999/xlink"
    width="200" height="200">
    <path
        d="M900.437333 466.090667a2829.824 2829.824 0 0 0-33.792-69.546667c-15.36-30.848-32.853333-59.008-52.437333-84.565333-62.208-88.874667-188.16-170.368-305.152-170.368-189.653333 0-368.896 179.285333-368.896 370.389333 0 191.146667 177.749333 370.346667 368.896 370.346667 132.608 0 247.381333-86.272 305.194667-202.965334 8.106667-16.298667 22.954667-26.88 39.978666-21.674666 17.024 5.248 26.922667 21.674667 17.024 43.989333C808.832 842.112 676.864 938.666667 510.506667 938.666667 274.986667 937.173333 85.333333 747.52 85.333333 512S274.944 85.333333 509.013333 85.333333c142.250667 0 268.16 71.125333 345.173334 177.792l56.32 88.874667c0 16.298667-8.106667 60.586667-10.069334 114.090667z m23.808 29.098666c-11.093333 0-20.309333-20.778667-22.058666-24.917333-32.426667-76.970667-63.914667-131.072-78.506667-153.429333a3904.682667 3904.682667 0 0 0 47.573333-103.893334c9.941333-23.637333 18.901333-34.730667 37.76-34.730666s29.653333 13.952 29.653334 34.730666v251.733334c0 4.522667-1.237333 30.506667-14.421334 30.506666zM307.925333 584.106667a37.12 37.12 0 0 0 18.176 21.504c6.741333 3.712 14.378667 5.546667 22.869334 5.546666 15.786667 0 29.312-6.570667 40.448-19.84 11.136-13.141333 19.072-31.146667 23.722666-71.509333a61.696 61.696 0 0 1-27.306666 24.576 86.314667 86.314667 0 0 1-35.072 7.04c-25.429333 0-45.44-7.893333-60.288-23.722667-14.762667-15.786667-22.186667-36.096-22.186667-61.013333 0-23.893333 7.338667-44.885333 21.888-63.061333 14.592-18.090667 36.096-27.264 64.597333-27.264 38.4 0 64.853333 17.237333 79.402667 51.84 8.106667 18.944 12.117333 42.752 12.117333 71.338666 0 32.170667-4.864 60.757333-14.592 85.589334-16.085333 41.429333-43.306667 62.122667-81.706666 62.122666-25.728 0-45.312-6.784-58.666667-20.224a66.986667 66.986667 0 0 1-18.346667-34.090666 17.664 17.664 0 0 1 12.8-20.565334l0.853334 0.085334a17.706667 17.706667 0 0 1 21.290666 11.648z m90.282667-119.893334c0-16.042667-4.010667-27.946667-12.117333-35.754666a42.410667 42.410667 0 0 0-30.72-11.690667c-13.354667 0-24.021333 4.48-31.829334 13.44-7.808 8.96-11.818667 20.906667-11.818666 35.882667 0 14.208 3.413333 25.429333 10.368 33.834666 6.826667 8.362667 17.92 12.458667 32.938666 12.458667 10.88 0 20.778667-3.626667 29.738667-10.752 8.96-7.168 13.44-19.626667 13.44-37.461333z m259.584 44.074667c0 35.84-5.333333 65.408-16 88.874667-15.402667 33.578667-40.746667 50.346667-75.776 50.346666-31.616 0-55.168-13.696-70.698667-41.216-12.842667-22.954667-19.328-53.76-19.328-92.373333 0-29.909333 3.925333-55.637333 11.648-77.056 14.464-40.021333 40.661333-59.989333 78.549334-59.989333 34.176 0 58.88 14.08 73.984 42.154666 11.818667 21.76 17.621333 51.456 17.621333 89.258667z m-42.538667 1.536c0-26.112-3.242667-47.616-9.642666-64.469333-6.485333-16.896-18.944-25.344-37.546667-25.344-17.024 0-29.482667 7.978667-37.418667 23.978666-7.893333 16-11.776 39.637333-11.776 70.784 0 23.424 2.474667 42.24 7.509334 56.576 7.68 21.717333 20.949333 32.64 39.637333 32.64 14.933333 0 26.922667-6.656 35.882667-19.882666 8.96-13.226667 13.354667-37.973333 13.354666-74.282667z m174.165334-116.693333c10.666667 10.794667 16 23.808 16 39.253333 0 15.914667-5.546667 29.226667-16.64 39.808-11.093333 10.666667-24.021333 16-38.698667 16-16.256 0-29.696-5.546667-40.106667-16.554667a54.698667 54.698667 0 0 1-15.573333-38.698666c0-15.701333 5.504-28.928 16.469333-39.68a54.186667 54.186667 0 0 1 39.253334-16.213334c15.488 0 28.629333 5.418667 39.296 16.085334z m-60.757334 60.757333a29.184 29.184 0 0 0 21.418667 8.874667c8.021333 0 15.061333-2.986667 21.077333-8.874667a29.013333 29.013333 0 0 0 8.96-21.504c0-8.106667-2.986667-15.146667-8.874666-21.034667a28.842667 28.842667 0 0 0-21.162667-8.874666 29.44 29.44 0 0 0-21.333333 8.874666 29.013333 29.013333 0 0 0-8.96 21.504 28.373333 28.373333 0 0 0 8.874666 21.034667z"
        fill="#2c2c2c" p-id="7990"></path>
</svg>