<svg xmlns="http://www.w3.org/2000/svg" xmlns:xlink="http://www.w3.org/1999/xlink" fill="none"
    version="1.1" width="14.000000756118837" height="14.000001709793104"
    viewBox="0 0 14.000000756118837 14.000001709793104">
    <defs>
        <clipPath id="master_svg0_1402_03286/1402_02599/1394_04910">
            <rect x="0" y="7.561187871374386e-7" width="14" height="14.000000953674316" rx="0" />
        </clipPath>
    </defs>
    <g transform="matrix(1,-5.400848479553133e-8,5.400848479553133e-8,1,-4.0836830018727945e-14,0)"
        clip-path="url(#master_svg0_1402_03286/1402_02599/1394_04910)">
        <g transform="matrix(1,0,0,-1,0,25.000001512237574)">
            <g>
                <path
                    d="M3.57053,14.570530756118787Q4.99106,13.150000756118787,7,13.150000756118787Q7.06402,13.150000756118787,7.12681,13.137510756118788Q7.1896,13.125021756118787,7.24874,13.100522756118787Q7.30789,13.076022756118787,7.36112,13.040455756118787Q7.41435,13.004888756118786,7.45962,12.959619756118787Q7.50489,12.914351756118787,7.54045,12.861121756118788Q7.57602,12.807890756118788,7.60052,12.748744756118787Q7.62502,12.689598756118787,7.63751,12.626809756118787Q7.65,12.564020156118787,7.65,12.500000756118787Q7.65,12.435981356118788,7.63751,12.373191756118787Q7.62502,12.310402756118787,7.60052,12.251256756118787Q7.57602,12.192110756118787,7.54045,12.138879756118786Q7.50489,12.085649756118787,7.45962,12.040381756118787Q7.41435,11.995112756118788,7.36112,11.959545756118787Q7.30789,11.923978756118787,7.24874,11.899478756118787Q7.1896,11.874979756118787,7.12681,11.862490756118786Q7.06402,11.850000756118787,7,11.850000756118787Q4.45259,11.850000756118787,2.65129,13.651290756118787Q0.85,15.452590756118788,0.850001,18.000000756118787Q0.85,20.547400756118787,2.65129,22.348700756118788Q4.45259,24.150000756118786,7,24.150000756118786Q8.86436,24.150000756118786,10.40941,23.119100756118787Q11.9152,22.114450756118785,12.638,20.460240756118786Q12.6923,20.335800756118786,12.6923,20.200000756118786L12.6923,20.196330756118787Q12.6917,20.07542075611879,12.6475,19.962840756118787Q12.6004,19.842460756118786,12.5107,19.749300756118785Q12.4211,19.656140756118788,12.3026,19.604370756118787Q12.1781,19.550000756118788,12.0423,19.550000756118788Q12.0211,19.550000756118788,11.9999,19.55138075611879Q11.9107,19.557220756118788,11.8264,19.586920756118786Q11.7421,19.616630756118788,11.6689,19.668000756118786Q11.5957,19.719380756118788,11.5391,19.788600756118786Q11.48251,19.857830756118787,11.44672,19.939760756118787Q10.87659,21.244640756118788,9.6879,22.037730756118787Q8.47048,22.85000075611879,7,22.85000075611879Q4.991070000000001,22.85000075611879,3.57053,21.429460756118786Q2.15,20.008920756118787,2.15,18.000000756118787Q2.150001,15.991060756118788,3.57053,14.570530756118787Z"
                    fill-rule="evenodd" fill="#262626" fill-opacity="1" />
            </g>
            <g>
                <path
                    d="M7,11.850000756118787Q7.440325,11.850000756118787,7.873348,11.911620756118786L7.690201,13.198654756118787Q7.348292,13.150000756118787,7,13.150000756118787Q6.9359806,13.150000756118787,6.873191,13.137510756118788Q6.810402,13.125021756118787,6.751256,13.100522756118787Q6.69211,13.076022756118787,6.638879,13.040455756118787Q6.585649,13.004888756118786,6.540381,12.959619756118787Q6.495112,12.914351756118787,6.459545,12.861121756118788Q6.423978,12.807890756118788,6.399478,12.748744756118787Q6.374979,12.689598756118787,6.36249,12.626809756118787Q6.35,12.564020156118787,6.35,12.500000756118787Q6.35,12.435981356118788,6.36249,12.373191756118787Q6.374979,12.310402756118787,6.399478,12.251256756118787Q6.423978,12.192110756118787,6.459545,12.138879756118786Q6.495112,12.085649756118787,6.540381,12.040381756118787Q6.585649,11.995112756118788,6.638879,11.959545756118787Q6.69211,11.923978756118787,6.751256,11.899478756118787Q6.810402,11.874979756118787,6.873191,11.862490756118786Q6.9359806,11.850000756118787,7,11.850000756118787ZM10.55182,12.978799756118788Q9.83315,12.469604756118787,9.00316,12.183796756118786L8.5799,13.412961756118786Q9.23367,13.638090756118787,9.80027,14.039540756118788L10.55182,12.978799756118788ZM12.4499,15.147820756118787Q12.04241,14.370640756118787,11.43225,13.736470756118788L10.49545,14.637810756118787Q10.97712,15.138430756118787,11.29856,15.751490756118788L12.4499,15.147820756118787ZM13.081199999999999,17.077430756118787Q13.01585,16.64345075611879,12.88951,16.224010756118787L11.64475,16.598920756118787Q11.74417,16.929010756118785,11.79565,17.270700756118785L11.7958,17.271700756118786Q11.80441,17.328950756118786,11.82301,17.38379075611879Q11.84161,17.438620756118787,11.8696,17.489300756118787Q11.8976,17.539980756118787,11.93411,17.584910756118788Q11.97063,17.62985075611879,12.01451,17.667620756118787Q12.05839,17.705400756118788,12.10826,17.734820756118786Q12.15812,17.764240756118788,12.21241,17.78439075611879Q12.26669,17.804530756118787,12.32368,17.814770756118786Q12.38067,17.825000756118786,12.438559999999999,17.825000756118786Q12.50258,17.825000756118786,12.56537,17.812510756118787Q12.628160000000001,17.800020756118787,12.68731,17.775520756118787Q12.74645,17.751020756118788,12.79968,17.715460756118787Q12.85291,17.679890756118787,12.89818,17.634620756118785Q12.94345,17.589350756118787,12.97902,17.536120756118788Q13.01459,17.48289075611879,13.03909,17.423740756118786Q13.06358,17.364600756118787,13.076080000000001,17.301810756118787Q13.088560000000001,17.239020756118787,13.088560000000001,17.175000756118788Q13.088560000000001,17.126380756118788,13.081330000000001,17.078300756118786L13.08127,17.077890756118787L13.081199999999999,17.077430756118787Z"
                    fill-rule="evenodd" fill="#262626" fill-opacity="1" />
            </g>
            <g>
                <path
                    d="M11.85,20.850073998306286L11.85,22.950073998306287Q11.85,23.014093998306286,11.862490000000001,23.076883998306286Q11.87498,23.139673998306286,11.89948,23.19881399830629Q11.92398,23.257963998306288,11.95954,23.311193998306287Q11.99511,23.364423998306286,12.040379999999999,23.409693998306288Q12.08565,23.454963998306287,12.13888,23.490533998306287Q12.19211,23.526093998306287,12.25126,23.550593998306287Q12.3104,23.575093998306286,12.373190000000001,23.587583998306286Q12.43598,23.600073998306286,12.5,23.600073998306286Q12.56402,23.600073998306286,12.626809999999999,23.587583998306286Q12.6896,23.575093998306286,12.74874,23.550593998306287Q12.80789,23.526093998306287,12.86112,23.490533998306287Q12.91435,23.454963998306287,12.959620000000001,23.409693998306288Q13.00489,23.364423998306286,13.04046,23.311193998306287Q13.07602,23.257963998306288,13.10052,23.19881399830629Q13.12502,23.139673998306286,13.137509999999999,23.076883998306286Q13.15,23.014093998306286,13.15,22.950073998306287L13.15,20.530073998306285Q13.15,20.124132798306288,12.86297,19.837102998306285Q12.57594,19.55007399830629,12.17,19.55007399830629L9.75,19.55007399830629Q9.6859806,19.55007399830629,9.623191,19.56256399830629Q9.560402,19.575052998306287,9.501256,19.599551998306286Q9.44211,19.624051998306285,9.388879,19.659618998306286Q9.335649,19.695185998306286,9.290381,19.740454998306287Q9.245112,19.785722998306287,9.209545,19.838952998306286Q9.173978,19.892183998306287,9.149478,19.95132999830629Q9.124979,20.010475998306287,9.11249,20.073264998306286Q9.1,20.136054598306288,9.1,20.200073998306287Q9.1,20.264093398306287,9.11249,20.32688299830629Q9.124979,20.389671998306287,9.149478,20.448817998306286Q9.173978,20.507963998306288,9.209545,20.561194998306288Q9.245112,20.614424998306287,9.290381,20.659692998306287Q9.335649,20.70496199830629,9.388879,20.74052899830629Q9.44211,20.77609599830629,9.501256,20.80059599830629Q9.560402,20.825094998306287,9.623191,20.837583998306286Q9.6859806,20.850073998306286,9.75,20.850073998306286L11.85,20.850073998306286Z"
                    fill-rule="evenodd" fill="#262626" fill-opacity="1" />
            </g>
        </g>
    </g>
</svg>