<svg xmlns="http://www.w3.org/2000/svg" xmlns:xlink="http://www.w3.org/1999/xlink" fill="none" version="1.1" width="36" height="32" viewBox="0 0 36 32"><g><g><path d="M7,11C4.23858,11,2,13.238579999999999,2,16C2,18.76142,4.23858,21,7,21L18,21L18,20L7,20Q6.80349,20,6.60793,19.98074Q6.41237,19.96148,6.21964,19.92314Q6.02691,19.8848,5.83886,19.827759999999998Q5.6508199999999995,19.77072,5.46927,19.695520000000002Q5.28772,19.62032,5.1144099999999995,19.52768Q4.94111,19.43505,4.77772,19.325879999999998Q4.61433,19.2167,4.4624299999999995,19.09204Q4.31052,18.96738,4.17157,18.82843Q4.03262,18.68948,3.90796,18.53757Q3.7833,18.38567,3.6741200000000003,18.222279999999998Q3.56495,18.058889999999998,3.4723100000000002,17.88559Q3.37968,17.71228,3.30448,17.53073Q3.22928,17.34918,3.17224,17.16114Q3.1151999999999997,16.97309,3.07686,16.78036Q3.03852,16.58763,3.01926,16.39207Q3,16.19651,3,16Q3,15.80349,3.01926,15.60793Q3.03852,15.41237,3.07686,15.21964Q3.1151999999999997,15.02691,3.17224,14.83886Q3.22928,14.65082,3.30448,14.46927Q3.37968,14.28772,3.4723100000000002,14.11441Q3.56495,13.94111,3.6741200000000003,13.77772Q3.7833,13.614329999999999,3.90796,13.46243Q4.03262,13.31052,4.17157,13.17157Q4.31052,13.03262,4.4624299999999995,12.90796Q4.61433,12.7833,4.77772,12.67412Q4.94111,12.56495,5.1144099999999995,12.47231Q5.28772,12.37968,5.46927,12.30448Q5.6508199999999995,12.22928,5.83886,12.17224Q6.02691,12.1152,6.21964,12.07686Q6.41237,12.03852,6.60793,12.01926Q6.80349,12,7,12L18,12L18,11L7,11Z" fill-rule="evenodd" fill="#333333" fill-opacity="1"/></g><g><path d="M18,16.65L34,16.65Q34.064,16.65,34.1268,16.63751Q34.1896,16.625021,34.2487,16.600522Q34.307900000000004,16.576022000000002,34.3611,16.540455Q34.4143,16.504888,34.459599999999995,16.459619Q34.5049,16.414351,34.5405,16.361121Q34.576,16.30789,34.6005,16.248744Q34.625,16.189598,34.6375,16.126809Q34.65,16.0640194,34.65,16Q34.65,15.9359806,34.6375,15.873191Q34.625,15.810402,34.6005,15.751256Q34.576,15.69211,34.5405,15.638879Q34.5049,15.585649,34.459599999999995,15.540381Q34.4143,15.495112,34.3611,15.459545Q34.307900000000004,15.423978,34.2487,15.399478Q34.1896,15.374979,34.1268,15.36249Q34.064,15.35,34,15.35L7,15.35Q6.9359806,15.35,6.873191,15.36249Q6.810402,15.374979,6.751256,15.399478Q6.69211,15.423978,6.638879,15.459545Q6.585649,15.495112,6.540381,15.540381Q6.495112,15.585649,6.459545,15.638879Q6.423978,15.69211,6.399478,15.751256Q6.374979,15.810402,6.36249,15.873191Q6.35,15.9359806,6.35,16Q6.35,16.0640194,6.36249,16.126809Q6.374979,16.189598,6.399478,16.248744Q6.423978,16.30789,6.459545,16.361121Q6.495112,16.414351,6.540381,16.459619Q6.585649,16.504888,6.638879,16.540455Q6.69211,16.576022000000002,6.751256,16.600522Q6.810402,16.625021,6.873191,16.63751Q6.9359806,16.65,7,16.65L18,16.65Z" fill-rule="evenodd" fill="#333333" fill-opacity="1"/></g><g><ellipse cx="7.5" cy="16" rx="1.5" ry="1.5" fill="#333333" fill-opacity="1"/></g></g></svg>