<svg xmlns="http://www.w3.org/2000/svg" xmlns:xlink="http://www.w3.org/1999/xlink" fill="none" version="1.1" width="14" height="14" viewBox="0 0 14 14"><defs><clipPath id="master_svg0_2002_24444/2002_21816/2002_21645"><rect x="0" y="0" width="14" height="14" rx="0"/></clipPath></defs><g clip-path="url(#master_svg0_2002_24444/2002_21816/2002_21645)"><g transform="matrix(0,1,-1,0,2.333740234375,-0.000244140625)"><path d="M1.1669921875,0.566748046875L12.8336921875,0.566748046875Q12.8927921875,0.566748046875,12.9506921875,0.578277046875Q13.0086921875,0.589806046875,13.0632921875,0.612420046875Q13.1178921875,0.635035046875,13.1669921875,0.667866046875Q13.2160921875,0.7006980468749999,13.2578921875,0.742484046875Q13.2996921875,0.784270046875,13.3324921875,0.833406046875Q13.3653921875,0.882541046875,13.3879921875,0.937138046875Q13.4105921875,0.991734046875,13.4220921875,1.049694046875Q13.4336921875,1.107653246875,13.4336921875,1.166748046875Q13.4336921875,1.225842846875,13.4220921875,1.283802046875Q13.4105921875,1.341762046875,13.3879921875,1.396358046875Q13.3653921875,1.4509550468749999,13.3324921875,1.500090046875Q13.2996921875,1.5492260468749999,13.2578921875,1.591012046875Q13.2160921875,1.632798046875,13.1669921875,1.665630046875Q13.1178921875,1.6984610468749999,13.0632921875,1.721076046875Q13.0086921875,1.7436900468749998,12.9506921875,1.755219046875Q12.8927921875,1.766748046875,12.8336921875,1.766748046875L1.1669921875,1.766748046875Q1.1078973875,1.766748046875,1.0499381875,1.755219046875Q0.9919781875,1.7436900468749998,0.9373821875,1.721076046875Q0.8827851875,1.6984610468749999,0.8336501875,1.665630046875Q0.7845141875,1.632798046875,0.7427281875,1.591012046875Q0.7009421874999999,1.5492260468749999,0.6681101875,1.500090046875Q0.6352791875,1.4509550468749999,0.6126641875,1.396358046875Q0.5900501875,1.341762046875,0.5785211875,1.283802046875Q0.5669921875,1.225842846875,0.5669921875,1.166748046875Q0.5669921875,1.107653246875,0.5785211875,1.049694046875Q0.5900501875,0.991734046875,0.6126641875,0.937138046875Q0.6352791875,0.882541046875,0.6681101875,0.833406046875Q0.7009421874999999,0.784270046875,0.7427281875,0.742484046875Q0.7845141875,0.7006980468749999,0.8336501875,0.667866046875Q0.8827851875,0.635035046875,0.9373821875,0.612420046875Q0.9919781875,0.589806046875,1.0499381875,0.578277046875Q1.1078973875,0.566748046875,1.1669921875,0.566748046875Z" fill-rule="evenodd" fill="#8C8C8C" fill-opacity="1"/></g><g transform="matrix(0,1,-1,0,14.001220703125,-11.667724609375)"><path d="M12.83447265625,0.566748046875L24.50117265625,0.566748046875Q24.56027265625,0.566748046875,24.61817265625,0.578277046875Q24.67617265625,0.589806046875,24.73077265625,0.612420046875Q24.78537265625,0.635035046875,24.83447265625,0.667866046875Q24.88357265625,0.7006980468749999,24.925372656249998,0.742484046875Q24.96717265625,0.784270046875,24.99997265625,0.833406046875Q25.03287265625,0.882541046875,25.05547265625,0.937138046875Q25.07807265625,0.991734046875,25.08957265625,1.049694046875Q25.10117265625,1.107653246875,25.10117265625,1.166748046875Q25.10117265625,1.225842846875,25.08957265625,1.283802046875Q25.07807265625,1.341762046875,25.05547265625,1.396358046875Q25.03287265625,1.4509550468749999,24.99997265625,1.500090046875Q24.96717265625,1.5492260468749999,24.925372656249998,1.591012046875Q24.88357265625,1.632798046875,24.83447265625,1.665630046875Q24.78537265625,1.6984610468749999,24.73077265625,1.721076046875Q24.67617265625,1.7436900468749998,24.61817265625,1.755219046875Q24.56027265625,1.766748046875,24.50117265625,1.766748046875L12.83447265625,1.766748046875Q12.77537785625,1.766748046875,12.71741865625,1.755219046875Q12.659458656249999,1.7436900468749998,12.60486265625,1.721076046875Q12.55026565625,1.6984610468749999,12.50113065625,1.665630046875Q12.45199465625,1.632798046875,12.41020865625,1.591012046875Q12.36842265625,1.5492260468749999,12.33559065625,1.500090046875Q12.30275965625,1.4509550468749999,12.28014465625,1.396358046875Q12.25753065625,1.341762046875,12.24600165625,1.283802046875Q12.23447265625,1.225842846875,12.23447265625,1.166748046875Q12.23447265625,1.107653246875,12.24600165625,1.049694046875Q12.25753065625,0.991734046875,12.28014465625,0.937138046875Q12.30275965625,0.882541046875,12.33559065625,0.833406046875Q12.36842265625,0.784270046875,12.41020865625,0.742484046875Q12.45199465625,0.7006980468749999,12.50113065625,0.667866046875Q12.55026565625,0.635035046875,12.60486265625,0.612420046875Q12.659458656249999,0.589806046875,12.71741865625,0.578277046875Q12.77537785625,0.566748046875,12.83447265625,0.566748046875Z" fill-rule="evenodd" fill="#8C8C8C" fill-opacity="1"/></g><g><path d="M7.5458978125,4.040030046875Q7.5996778124999995,3.921714046875,7.5996778124999995,3.791748046875Q7.5996778124999995,3.732653246875,7.5881478125,3.674694046875Q7.5766178125,3.616734046875,7.5539978125000005,3.562138046875Q7.5313878125,3.507541046875,7.4985578125,3.458406046875Q7.4657278125,3.409270046875,7.4239378125,3.367484046875Q7.3821478124999995,3.325698046875,7.3330178125,3.292866046875Q7.2838778125,3.260035046875,7.2292878125,3.237420046875Q7.1746878125,3.214806046875,7.116727812500001,3.203277046875Q7.0587678125,3.191748046875,6.9996778125,3.191748046875Q6.9132678125,3.191748046875,6.8303778125,3.216127046875Q6.7474878125,3.2405060468749998,6.6748478124999995,3.287283046875Q6.6021978125,3.334061046875,6.5457078125,3.399434046875Q6.4892078125,3.464808046875,6.4534578125,3.543466046875L3.5367878125,9.960128046874999Q3.4830078125,10.078448046875,3.4830078125,10.208418046875Q3.4830078125,10.267508046875001,3.4945368125,10.325468046874999Q3.5060658125,10.383428046875,3.5286798125,10.438028046875Q3.5512948125,10.492618046875,3.5841258125,10.541758046875Q3.6169578125,10.590888046875001,3.6587438125,10.632678046875Q3.7005298125,10.674468046874999,3.7496658125,10.707298046875Q3.7988008125,10.740128046875,3.8533978125,10.762738046875Q3.9079938125,10.785358046875,3.9659538125,10.796888046875Q4.0239130124999996,10.808418046875001,4.0830078125,10.808418046875001Q4.1694104124999996,10.808418046875001,4.2523018125,10.784038046875Q4.3351938125,10.759658046875,4.4078388125,10.712878046875Q4.4804838125,10.666098046875,4.5369788125,10.600728046875Q4.5934738125,10.535358046875,4.6292278125,10.456698046875001L7.5458978125,4.040030046875L7.5458978125,4.040030046875Z" fill-rule="evenodd" fill="#8C8C8C" fill-opacity="1"/></g><g><path d="M5.25,7.566748046875L8.75,7.566748046875Q8.80909,7.566748046875,8.867049999999999,7.578277046875Q8.92501,7.589806046875,8.979610000000001,7.612420046875Q9.03421,7.635035046875,9.08334,7.667866046875Q9.132480000000001,7.700698046875,9.17426,7.742484046875Q9.21605,7.784270046875,9.24888,7.833406046875Q9.28171,7.882541046875,9.30433,7.937138046875Q9.32694,7.991734046875,9.338470000000001,8.049694046875Q9.35,8.107653246875,9.35,8.166748046875Q9.35,8.225842846875,9.338470000000001,8.283802046875Q9.32694,8.341762046875001,9.30433,8.396358046875Q9.28171,8.450955046875,9.24888,8.500090046875Q9.21605,8.549226046875,9.17426,8.591012046875Q9.132480000000001,8.632798046875,9.08334,8.665630046875Q9.03421,8.698461046875,8.979610000000001,8.721076046875Q8.92501,8.743690046875,8.867049999999999,8.755219046875Q8.80909,8.766748046875,8.75,8.766748046875L5.25,8.766748046875Q5.1909051999999996,8.766748046875,5.132946,8.755219046875Q5.074986,8.743690046875,5.02039,8.721076046875Q4.965793,8.698461046875,4.916658,8.665630046875Q4.867522,8.632798046875,4.825736,8.591012046875Q4.78395,8.549226046875,4.751118,8.500090046875Q4.718287,8.450955046875,4.695672,8.396358046875Q4.673058,8.341762046875001,4.661529,8.283802046875Q4.65,8.225842846875,4.65,8.166748046875Q4.65,8.107653246875,4.661529,8.049694046875Q4.673058,7.991734046875,4.695672,7.937138046875Q4.718287,7.882541046875,4.751118,7.833406046875Q4.78395,7.784270046875,4.825736,7.742484046875Q4.867522,7.700698046875,4.916658,7.667866046875Q4.965793,7.635035046875,5.02039,7.612420046875Q5.074986,7.589806046875,5.132946,7.578277046875Q5.1909051999999996,7.566748046875,5.25,7.566748046875Z" fill-rule="evenodd" fill="#8C8C8C" fill-opacity="1"/></g><g><path d="M7.546293,3.543626046875L10.46289,9.960128046874999Q10.51667,10.078448046875,10.51667,10.208418046875Q10.51667,10.267508046875001,10.50514,10.325468046874999Q10.49361,10.383428046875,10.47099,10.438028046875Q10.44838,10.492618046875,10.41555,10.541758046875Q10.382719999999999,10.590888046875001,10.34093,10.632678046875Q10.29914,10.674468046874999,10.25001,10.707298046875Q10.20087,10.740128046875,10.14628,10.762738046875Q10.09168,10.785358046875,10.03372,10.796888046875Q9.975760000000001,10.808418046875001,9.91667,10.808418046875001Q9.830259999999999,10.808418046875001,9.74737,10.784038046875Q9.664480000000001,10.759658046875,9.59184,10.712878046875Q9.51919,10.666098046875,9.4627,10.600728046875Q9.4062,10.535358046875,9.37045,10.456698046875001L6.453853,4.040190046875L6.45378,4.040030046875Q6.4,3.921714046875,6.4,3.791748046875Q6.4,3.732653246875,6.411529,3.674694046875Q6.423058,3.616734046875,6.445672,3.562138046875Q6.468287,3.507541046875,6.501118,3.458406046875Q6.53395,3.409270046875,6.575736,3.367484046875Q6.617522,3.325698046875,6.666658,3.292866046875Q6.715793,3.260035046875,6.77039,3.237420046875Q6.824986,3.214806046875,6.882946,3.203277046875Q6.9409051999999996,3.191748046875,7,3.191748046875Q7.0864025999999996,3.191748046875,7.169294,3.216127046875Q7.252186,3.2405060468749998,7.324831,3.287283046875Q7.397477,3.334060046875,7.453971,3.399434046875Q7.510466,3.464808046875,7.54622,3.543466046875L7.546293,3.543626046875Z" fill-rule="evenodd" fill="#8C8C8C" fill-opacity="1"/></g></g></svg>