<svg xmlns="http://www.w3.org/2000/svg" xmlns:xlink="http://www.w3.org/1999/xlink" fill="none" version="1.1" width="32" height="32" viewBox="0 0 32 32"><defs><clipPath id="master_svg0_190_0051"><rect x="0" y="0" width="32" height="32" rx="0"/></clipPath><clipPath id="master_svg1_190_0285"><rect x="6" y="6" width="20" height="20" rx="0"/></clipPath></defs><g clip-path="url(#master_svg0_190_0051)"><g clip-path="url(#master_svg1_190_0285)"><g><g><path d="M18.5,7.9L23.5,7.9Q23.55909,7.9,23.61705,7.911529Q23.67501,7.923058,23.72961,7.945672Q23.78421,7.968287,23.83334,8.001118Q23.88248,8.03395,23.92426,8.075736Q23.96605,8.117522,23.99888,8.166658Q24.03171,8.215793,24.05433,8.27039Q24.07694,8.324985999999999,24.08847,8.382946Q24.1,8.4409052,24.1,8.5L24.1,13.5Q24.1,13.559090000000001,24.08847,13.617049999999999Q24.07694,13.67501,24.05433,13.729610000000001Q24.03171,13.78421,23.99888,13.83334Q23.96605,13.882480000000001,23.92426,13.92426Q23.88248,13.96605,23.83334,13.99888Q23.78421,14.03171,23.72961,14.05433Q23.67501,14.07694,23.61705,14.088470000000001Q23.55909,14.1,23.5,14.1Q23.44091,14.1,23.38295,14.088470000000001Q23.32499,14.07694,23.27039,14.05433Q23.21579,14.03171,23.16666,13.99888Q23.11752,13.96605,23.07574,13.92426Q23.03395,13.882480000000001,23.00112,13.83334Q22.96829,13.78421,22.94567,13.729610000000001Q22.92306,13.67501,22.91153,13.617049999999999Q22.9,13.559090000000001,22.9,13.5L22.9,9.1L18.5,9.1Q18.4409052,9.1,18.382946,9.088471Q18.324986,9.076942,18.27039,9.054328Q18.215793,9.031713,18.166657999999998,8.998882Q18.117522,8.96605,18.075736,8.924264Q18.03395,8.882478,18.001118,8.833342Q17.968287,8.784207,17.945672,8.72961Q17.923058,8.675014000000001,17.911529,8.617054Q17.9,8.5590948,17.9,8.5Q17.9,8.4409052,17.911529,8.382946Q17.923058,8.324985999999999,17.945672,8.27039Q17.968287,8.215793,18.001118,8.166658Q18.03395,8.117522,18.075736,8.075736Q18.117522,8.03395,18.166657999999998,8.001118Q18.215793,7.968287,18.27039,7.945672Q18.324986,7.923058,18.382946,7.911529Q18.4409052,7.9,18.5,7.9Z" fill-rule="evenodd" fill="#FFFFFF" fill-opacity="1"/></g><g><path d="M13.31668701171875,13.0833740234375Q13.31668701171875,13.0242792234375,13.32821601171875,12.9663200234375Q13.33974501171875,12.908360023437499,13.36235901171875,12.8537640234375Q13.38497401171875,12.7991670234375,13.41780501171875,12.7500320234375Q13.45063701171875,12.7008960234375,13.49242301171875,12.6591100234375Q13.53420901171875,12.6173240234375,13.58334501171875,12.5844920234375Q13.63248001171875,12.5516610234375,13.68707701171875,12.5290460234375Q13.741673011718749,12.5064320234375,13.79963301171875,12.4949030234375Q13.85759221171875,12.4833740234375,13.91668701171875,12.4833740234375Q13.97578181171875,12.4833740234375,14.03374101171875,12.4949030234375Q14.091701011718751,12.5064320234375,14.14629701171875,12.5290460234375Q14.20089401171875,12.5516610234375,14.25002901171875,12.5844920234375Q14.29916501171875,12.6173240234375,14.34095101171875,12.6591100234375Q14.38273701171875,12.7008960234375,14.41556901171875,12.7500320234375Q14.44840001171875,12.7991670234375,14.47101501171875,12.8537640234375Q14.49362901171875,12.908360023437499,14.50515801171875,12.9663200234375Q14.51668701171875,13.0242792234375,14.51668701171875,13.0833740234375L14.51668701171875,17.4833740234375L18.91668701171875,17.4833740234375Q18.97577701171875,17.4833740234375,19.03373701171875,17.4949040234375Q19.09169701171875,17.5064340234375,19.14629701171875,17.5290440234375Q19.20089701171875,17.5516640234375,19.25002701171875,17.5844940234375Q19.29916701171875,17.6173240234375,19.34094701171875,17.6591140234375Q19.38273701171875,17.7008940234375,19.41556701171875,17.7500340234375Q19.44839701171875,17.7991640234375,19.47101701171875,17.8537640234375Q19.49362701171875,17.9083640234375,19.50515701171875,17.9663240234375Q19.51668701171875,18.0242840234375,19.51668701171875,18.0833740234375Q19.51668701171875,18.1424640234375,19.50515701171875,18.2004240234375Q19.49362701171875,18.2583840234375,19.47101701171875,18.3129840234375Q19.44839701171875,18.3675840234375,19.41556701171875,18.4167140234375Q19.38273701171875,18.4658540234375,19.34094701171875,18.5076340234375Q19.29916701171875,18.5494240234375,19.25002701171875,18.5822540234375Q19.20089701171875,18.6150840234375,19.14629701171875,18.6377040234375Q19.09169701171875,18.6603140234375,19.03373701171875,18.6718440234375Q18.97577701171875,18.6833740234375,18.91668701171875,18.6833740234375L13.91668701171875,18.6833740234375Q13.85759221171875,18.6833740234375,13.79963301171875,18.6718440234375Q13.741673011718749,18.6603140234375,13.68707701171875,18.6377040234375Q13.63248001171875,18.6150840234375,13.58334501171875,18.5822540234375Q13.53420901171875,18.5494240234375,13.49242301171875,18.5076340234375Q13.45063701171875,18.4658540234375,13.41780501171875,18.4167140234375Q13.38497401171875,18.3675840234375,13.36235901171875,18.3129840234375Q13.33974501171875,18.2583840234375,13.32821601171875,18.2004240234375Q13.31668701171875,18.1424640234375,13.31668701171875,18.0833740234375L13.31668701171875,13.0833740234375Z" fill-rule="evenodd" fill="#FFFFFF" fill-opacity="1"/></g><g><path d="M23.92428701171875,8.924264Q24.00868701171875,8.839873,24.054387011718752,8.72961Q24.09998701171875,8.619347,24.09998701171875,8.5Q24.09998701171875,8.4409052,24.088487011718748,8.382946Q24.07698701171875,8.324985999999999,24.054387011718752,8.27039Q24.031687011718752,8.215793,23.99888701171875,8.166658Q23.96608701171875,8.117522,23.92428701171875,8.075736Q23.882497011718748,8.03395,23.83335701171875,8.001118Q23.784227011718748,7.968287,23.729627011718748,7.945672Q23.67503701171875,7.923058,23.61707701171875,7.911529Q23.559117011718747,7.9,23.50001701171875,7.9Q23.380677011718753,7.9,23.27040701171875,7.945672Q23.16014701171875,7.991344,23.07575701171875,8.075736L23.075347011718748,8.076145L13.49283201171875,17.658659999999998L13.49242301171875,17.65907Q13.40803201171875,17.74346,13.36235901171875,17.85372Q13.31668701171875,17.963990000000003,13.31668701171875,18.08333Q13.31668701171875,18.142429999999997,13.32821601171875,18.20039Q13.33974501171875,18.25835,13.36235901171875,18.312939999999998Q13.38497401171875,18.367539999999998,13.41780501171875,18.41667Q13.45063701171875,18.465809999999998,13.49242301171875,18.5076Q13.53420901171875,18.5494,13.58334501171875,18.5822Q13.63248001171875,18.615000000000002,13.68707701171875,18.637700000000002Q13.741673011718749,18.6603,13.79963301171875,18.671799999999998Q13.85759221171875,18.6833,13.91668701171875,18.6833Q14.03603401171875,18.6833,14.14629701171875,18.637700000000002Q14.25656001171875,18.592,14.34095101171875,18.5076L14.34136001171875,18.507199999999997L23.923887011718747,8.924673L23.92428701171875,8.924264L23.92428701171875,8.924264Z" fill-rule="evenodd" fill="#FFFFFF" fill-opacity="1"/></g><g><path d="M24.1,22.6667L24.1,16.83333Q24.1,16.77424,24.0885,16.716279999999998Q24.076900000000002,16.65832,24.054299999999998,16.60372Q24.0317,16.549129999999998,23.9989,16.49999Q23.966,16.45085,23.924300000000002,16.40907Q23.8825,16.36728,23.8333,16.33445Q23.7842,16.30162,23.729599999999998,16.27901Q23.675,16.25639,23.6171,16.24486Q23.5591,16.23333,23.5,16.23333Q23.4409,16.23333,23.3829,16.24486Q23.325,16.25639,23.270400000000002,16.27901Q23.2158,16.30162,23.1667,16.33445Q23.1175,16.36728,23.075699999999998,16.40907Q23.0339,16.45085,23.0011,16.49999Q22.9683,16.549129999999998,22.945700000000002,16.60372Q22.923099999999998,16.65832,22.9115,16.716279999999998Q22.9,16.77424,22.9,16.83333L22.9,22.6667Q22.9,22.9,22.6667,22.9L9.333333,22.9Q9.1,22.9,9.1,22.6667L9.1,9.333333Q9.1,9.1,9.333333,9.1L15.16667,9.1Q15.225760000000001,9.1,15.283719999999999,9.088471Q15.34168,9.076942,15.39628,9.054328Q15.45087,9.031713,15.50001,8.998882Q15.549140000000001,8.96605,15.59093,8.924264Q15.632719999999999,8.882478,15.66555,8.833342Q15.69838,8.784207,15.72099,8.72961Q15.74361,8.675014000000001,15.75514,8.617054Q15.766670000000001,8.5590948,15.766670000000001,8.5Q15.766670000000001,8.4409052,15.75514,8.382946Q15.74361,8.324985999999999,15.72099,8.27039Q15.69838,8.215793,15.66555,8.166658Q15.632719999999999,8.117522,15.59093,8.075736Q15.549140000000001,8.03395,15.50001,8.001118Q15.45087,7.968287,15.39628,7.945672Q15.34168,7.923058,15.283719999999999,7.911529Q15.225760000000001,7.9,15.16667,7.9L9.333333,7.9Q8.739627,7.9,8.319814,8.319814Q7.9,8.739627,7.9,9.333333L7.9,22.6667Q7.9,23.2604,8.319816,23.6802Q8.739627,24.1,9.333333,24.1L22.6667,24.1Q23.2604,24.1,23.6802,23.6802Q24.1,23.2604,24.1,22.6667Z" fill-rule="evenodd" fill="#FFFFFF" fill-opacity="1"/></g></g></g></g></svg>