<svg xmlns="http://www.w3.org/2000/svg" xmlns:xlink="http://www.w3.org/1999/xlink" fill="none"
    version="1.1" width="20" height="20" viewBox="0 0 20 20">
    <defs>
        <clipPath id="master_svg0_190_0285">
            <rect x="0" y="0" width="20" height="20" rx="0" />
        </clipPath>
    </defs>
    <g clip-path="url(#master_svg0_190_0285)">
        <g>
            <g>
                <path
                    d="M12.5,1.9L17.5,1.9Q17.55909,1.9,17.61705,1.911529Q17.67501,1.9230580000000002,17.72961,1.945672Q17.78421,1.9682870000000001,17.83334,2.001118Q17.88248,2.03395,17.92426,2.075736Q17.96605,2.117522,17.99888,2.166658Q18.03171,2.215793,18.05433,2.27039Q18.07694,2.324986,18.08847,2.382946Q18.1,2.4409052,18.1,2.5L18.1,7.5Q18.1,7.55909,18.08847,7.61705Q18.07694,7.67501,18.05433,7.72961Q18.03171,7.78421,17.99888,7.83334Q17.96605,7.88248,17.92426,7.92426Q17.88248,7.96605,17.83334,7.99888Q17.78421,8.03171,17.72961,8.05433Q17.67501,8.07694,17.61705,8.088470000000001Q17.55909,8.1,17.5,8.1Q17.44091,8.1,17.38295,8.088470000000001Q17.32499,8.07694,17.27039,8.05433Q17.21579,8.03171,17.16666,7.99888Q17.11752,7.96605,17.07574,7.92426Q17.03395,7.88248,17.00112,7.83334Q16.96829,7.78421,16.94567,7.72961Q16.92306,7.67501,16.91153,7.61705Q16.9,7.55909,16.9,7.5L16.9,3.1L12.5,3.1Q12.4409052,3.1,12.382946,3.088471Q12.324985999999999,3.076942,12.27039,3.054328Q12.215793,3.031713,12.166658,2.998882Q12.117522,2.96605,12.075736,2.924264Q12.03395,2.882478,12.001118,2.833342Q11.968287,2.784207,11.945672,2.72961Q11.923058,2.675014,11.911529,2.617054Q11.9,2.5590948,11.9,2.5Q11.9,2.4409052,11.911529,2.382946Q11.923058,2.324986,11.945672,2.27039Q11.968287,2.215793,12.001118,2.166658Q12.03395,2.117522,12.075736,2.075736Q12.117522,2.03395,12.166658,2.001118Q12.215793,1.9682870000000001,12.27039,1.945672Q12.324985999999999,1.9230580000000002,12.382946,1.911529Q12.4409052,1.9,12.5,1.9Z"
                    fill-rule="evenodd" fill="#FFFFFF" fill-opacity="1" />
            </g>
            <g>
                <path
                    d="M7.31668701171875,7.0833740234375Q7.31668701171875,7.0242792234374996,7.32821601171875,6.9663200234375Q7.33974501171875,6.9083600234375,7.36235901171875,6.8537640234375Q7.38497401171875,6.7991670234375,7.41780501171875,6.7500320234375Q7.45063701171875,6.7008960234375,7.49242301171875,6.6591100234375Q7.53420901171875,6.6173240234375,7.58334501171875,6.5844920234375Q7.63248001171875,6.5516610234375,7.68707701171875,6.5290460234375Q7.74167301171875,6.5064320234375,7.79963301171875,6.4949030234375Q7.8575922117187496,6.4833740234375,7.91668701171875,6.4833740234375Q7.9757818117187504,6.4833740234375,8.03374101171875,6.4949030234375Q8.091701011718751,6.5064320234375,8.14629701171875,6.5290460234375Q8.20089401171875,6.5516610234375,8.25002901171875,6.5844920234375Q8.29916501171875,6.6173240234375,8.34095101171875,6.6591100234375Q8.38273701171875,6.7008960234375,8.41556901171875,6.7500320234375Q8.44840001171875,6.7991670234375,8.47101501171875,6.8537640234375Q8.49362901171875,6.9083600234375,8.50515801171875,6.9663200234375Q8.51668701171875,7.0242792234374996,8.51668701171875,7.0833740234375L8.51668701171875,11.4833740234375L12.91668701171875,11.4833740234375Q12.975777011718751,11.4833740234375,13.033737011718749,11.494904023437499Q13.09169701171875,11.5064340234375,13.146297011718751,11.5290440234375Q13.20089701171875,11.5516640234375,13.25002701171875,11.5844940234375Q13.299167011718751,11.6173240234375,13.34094701171875,11.6591140234375Q13.38273701171875,11.700894023437499,13.41556701171875,11.7500340234375Q13.44839701171875,11.7991640234375,13.47101701171875,11.853764023437499Q13.49362701171875,11.9083640234375,13.505157011718751,11.966324023437501Q13.51668701171875,12.024284023437499,13.51668701171875,12.0833740234375Q13.51668701171875,12.142464023437501,13.505157011718751,12.200424023437499Q13.49362701171875,12.2583840234375,13.47101701171875,12.312984023437501Q13.44839701171875,12.3675840234375,13.41556701171875,12.4167140234375Q13.38273701171875,12.465854023437501,13.34094701171875,12.5076340234375Q13.299167011718751,12.5494240234375,13.25002701171875,12.5822540234375Q13.20089701171875,12.6150840234375,13.146297011718751,12.6377040234375Q13.09169701171875,12.6603140234375,13.033737011718749,12.671844023437501Q12.975777011718751,12.6833740234375,12.91668701171875,12.6833740234375L7.91668701171875,12.6833740234375Q7.8575922117187496,12.6833740234375,7.79963301171875,12.671844023437501Q7.74167301171875,12.6603140234375,7.68707701171875,12.6377040234375Q7.63248001171875,12.6150840234375,7.58334501171875,12.5822540234375Q7.53420901171875,12.5494240234375,7.49242301171875,12.5076340234375Q7.45063701171875,12.465854023437501,7.41780501171875,12.4167140234375Q7.38497401171875,12.3675840234375,7.36235901171875,12.312984023437501Q7.33974501171875,12.2583840234375,7.32821601171875,12.200424023437499Q7.31668701171875,12.142464023437501,7.31668701171875,12.0833740234375L7.31668701171875,7.0833740234375Z"
                    fill-rule="evenodd" fill="#FFFFFF" fill-opacity="1" />
            </g>
            <g>
                <path
                    d="M17.92428701171875,2.924264Q18.00868701171875,2.839873,18.054387011718752,2.72961Q18.09998701171875,2.619347,18.09998701171875,2.5Q18.09998701171875,2.4409052,18.088487011718748,2.382946Q18.07698701171875,2.324986,18.054387011718752,2.27039Q18.031687011718752,2.215793,17.99888701171875,2.166658Q17.96608701171875,2.117522,17.92428701171875,2.075736Q17.882497011718748,2.03395,17.83335701171875,2.001118Q17.784227011718748,1.9682870000000001,17.729627011718748,1.945672Q17.67503701171875,1.9230580000000002,17.61707701171875,1.911529Q17.559117011718747,1.9,17.50001701171875,1.9Q17.380677011718753,1.9,17.27040701171875,1.945672Q17.16014701171875,1.991344,17.07575701171875,2.075736L17.075347011718748,2.076145L7.49283201171875,11.65866L7.49242301171875,11.65907Q7.40803201171875,11.74346,7.36235901171875,11.85372Q7.31668701171875,11.96399,7.31668701171875,12.08333Q7.31668701171875,12.14243,7.32821601171875,12.20039Q7.33974501171875,12.25835,7.36235901171875,12.31294Q7.38497401171875,12.36754,7.41780501171875,12.41667Q7.45063701171875,12.46581,7.49242301171875,12.5076Q7.53420901171875,12.5494,7.58334501171875,12.5822Q7.63248001171875,12.615,7.68707701171875,12.6377Q7.74167301171875,12.6603,7.79963301171875,12.6718Q7.8575922117187496,12.6833,7.91668701171875,12.6833Q8.03603401171875,12.6833,8.14629701171875,12.6377Q8.25656001171875,12.592,8.34095101171875,12.5076L8.34136001171875,12.5072L17.923887011718747,2.924673L17.92428701171875,2.924264L17.92428701171875,2.924264Z"
                    fill-rule="evenodd" fill="#FFFFFF" fill-opacity="1" />
            </g>
            <g>
                <path
                    d="M18.1,16.6667L18.1,10.83333Q18.1,10.77424,18.0885,10.71628Q18.076900000000002,10.65832,18.054299999999998,10.60372Q18.0317,10.54913,17.9989,10.49999Q17.966,10.450849999999999,17.924300000000002,10.40907Q17.8825,10.367280000000001,17.8333,10.33445Q17.7842,10.30162,17.729599999999998,10.27901Q17.675,10.25639,17.6171,10.24486Q17.5591,10.233329999999999,17.5,10.233329999999999Q17.4409,10.233329999999999,17.3829,10.24486Q17.325,10.25639,17.270400000000002,10.27901Q17.2158,10.30162,17.1667,10.33445Q17.1175,10.367280000000001,17.075699999999998,10.40907Q17.0339,10.450849999999999,17.0011,10.49999Q16.9683,10.54913,16.945700000000002,10.60372Q16.923099999999998,10.65832,16.9115,10.71628Q16.9,10.77424,16.9,10.83333L16.9,16.6667Q16.9,16.9,16.6667,16.9L3.333333,16.9Q3.1,16.9,3.1,16.6667L3.1,3.333333Q3.1,3.1,3.333333,3.1L9.16667,3.1Q9.225760000000001,3.1,9.283719999999999,3.088471Q9.34168,3.076942,9.39628,3.054328Q9.45087,3.031713,9.50001,2.998882Q9.549140000000001,2.96605,9.59093,2.924264Q9.632719999999999,2.882478,9.66555,2.833342Q9.69838,2.784207,9.72099,2.72961Q9.74361,2.675014,9.75514,2.617054Q9.766670000000001,2.5590948,9.766670000000001,2.5Q9.766670000000001,2.4409052,9.75514,2.382946Q9.74361,2.324986,9.72099,2.27039Q9.69838,2.215793,9.66555,2.166658Q9.632719999999999,2.117522,9.59093,2.075736Q9.549140000000001,2.03395,9.50001,2.001118Q9.45087,1.9682870000000001,9.39628,1.945672Q9.34168,1.9230580000000002,9.283719999999999,1.911529Q9.225760000000001,1.9,9.16667,1.9L3.333333,1.9Q2.739627,1.9,2.319814,2.319814Q1.9,2.739627,1.9,3.333333L1.9,16.6667Q1.9,17.2604,2.319816,17.6802Q2.739627,18.1,3.333333,18.1L16.6667,18.1Q17.2604,18.1,17.6802,17.6802Q18.1,17.2604,18.1,16.6667Z"
                    fill-rule="evenodd" fill="#FFFFFF" fill-opacity="1" />
            </g>
        </g>
    </g>
</svg>