<svg data-v-cb91088a="" data-v-3844b174="" width="12" height="12" viewBox="28 10 12 12" version="1.1" xmlns="http://www.w3.org/2000/svg" xmlns:xlink="http://www.w3.org/1999/xlink" xmlns:xhtml="http://www.w3.org/1999/xhtml" preserveAspectRatio="xMinYMin meet" overflow="visible" style="background-color: transparent;"><g transform="translate(28,10)"><svg version="1.1" xmlns="http://www.w3.org/2000/svg" xmlns:xlink="http://www.w3.org/1999/xlink" xmlns:xhtml="http://www.w3.org/1999/xhtml" preserveAspectRatio="xMinYMin meet" overflow="hidden" width="12" height="12" x="0" y="0" viewBox="0 0 12 12"><clipPath id="clippath-artboard-5063"><path d="M 0 0 l 12 0 l 0 12 l -12 0 z" clip-rule="evenodd"/></clipPath><g clip-path="url(#clippath-artboard-5063)"><g style="transform:translate(5.999999968414306px,7.67047355725775px) rotate(-270deg) translate(-4.32952640681718px,-3.075995px);"><path d="M 5.229507869701031 0.853553 C 5.135737869701033 0.7597849999999999 5.083057869701032 0.6326079999999998 5.083057869701032 0.49999999999999994 C 5.083057869701032 0.22385799999999997 5.306917869701033 0 5.583057869701033 0 C 5.715667869701033 0 5.842847869701033 0.0526784 5.9366078697010325 0.14644699999999997 L 8.512607869701034 2.72244 C 8.565127869701033 2.7749599999999996 8.603527869701033 2.8362699999999994 8.627787869701033 2.90162 C 8.643537869701033 2.94393 8.653717869701033 2.98895 8.657447869701032 3.03579 C 8.659587869701033 3.0625499999999994 8.659587869701033 3.08945 8.657447869701032 3.1161999999999996 C 8.653717869701033 3.1630399999999996 8.643537869701033 3.20806 8.627787869701033 3.2503700000000006 C 8.603527869701033 3.31572 8.565127869701033 3.3770199999999995 8.512607869701034 3.4295499999999994 L 5.9366078697010325 6.00554 C 5.842847869701033 6.09931 5.715667869701033 6.15199 5.583057869701033 6.15199 C 5.306917869701033 6.15199 5.083057869701032 5.9281299999999995 5.083057869701032 5.651989999999999 C 5.083057869701032 5.51938 5.135737869701033 5.392200000000001 5.229727869701032 5.29821 L 6.951947869701033 3.576 L 0.5000000000000143 3.5759386584625528 C 0.22385800000001435 3.5759386584625528 1.430005121014889e-14 3.352078658462553 1.430005121014889e-14 3.075938658462553 C 1.430005121014889e-14 2.7997886584625533 0.22385800000001435 2.575938658462553 0.5000000000000143 2.575938658462553 L 6.951947869701033 2.576 L 5.229507869701031 0.853553 Z" fill="currentColor" fill-opacity="1" stroke="none" stroke-width="0" fill-rule="evenodd"/></g><g transform="translate(4,0)"><g><clipPath id="clippath-border28621588"><path d="M 2 4 C 3.103569555558028 4 4 3.103569555558028 4 2 C 4 0.896430444441972 3.103569555558028 0 2 0 C 0.896430444441972 0 0 0.896430444441972 0 2 C 0 3.103569555558028 0.896430444441972 4 2 4 Z" clip-rule="evenodd"/></clipPath><path d="M 2 4 C 3.103569555558028 4 4 3.103569555558028 4 2 C 4 0.896430444441972 3.103569555558028 0 2 0 C 0.896430444441972 0 0 0.896430444441972 0 2 C 0 3.103569555558028 0.896430444441972 4 2 4 Z" fill="none" stroke="currentColor" stroke-width="2" stroke-linejoin="miter" clip-path="url(#clippath-border28621588)"/></g></g></g></svg></g></svg>