<svg width="1em" height="1em" viewBox="0 0 14 14" fill="none" xmlns="http://www.w3.org/2000/svg" style="font-size: inherit; transform: rotate(0deg);"><path fill-rule="evenodd" clip-rule="evenodd" d="M10.2676 6.13428C10.2676 8.41767 8.41678 10.2686 6.13382 10.2686C3.85086 10.2686 2 8.41767 2 6.13428C2 3.8509 3.85086 2 6.13382 2C8.41678 2 10.2676 3.8509 10.2676 6.13428ZM9.3626 10.1262C8.48062 10.8406 7.35719 11.2686 6.13382 11.2686C3.29849 11.2686 1 8.96987 1 6.13428C1 3.2987 3.29849 1 6.13382 1C8.96915 1 11.2676 3.2987 11.2676 6.13428C11.2676 7.35756 10.8399 8.48092 10.1258 9.36291L12.9111 12.1485C13.0282 12.2657 13.0282 12.4556 12.9111 12.5728L12.5721 12.9118C12.455 13.029 12.265 13.029 12.1479 12.9118L9.3626 10.1262Z" fill="currentcolor"></path></svg>