<svg xmlns="http://www.w3.org/2000/svg" xmlns:xlink="http://www.w3.org/1999/xlink" fill="none" version="1.1" width="12" height="12" viewBox="0 0 12 12"><defs><clipPath id="master_svg0_747_3711"><rect x="0" y="0" width="12" height="12" rx="0"/></clipPath></defs><g clip-path="url(#master_svg0_747_3711)"><g><path d="M2.320536,2.320536Q0.9,3.74107,0.9,5.75Q0.9,7.75893,2.320536,9.179459999999999Q3.74107,10.6,5.75,10.6Q7.75893,10.6,9.179459999999999,9.179459999999999Q10.6,7.75893,10.6,5.75Q10.6,3.74107,9.179459999999999,2.320536Q7.75893,0.9,5.75,0.9Q3.74107,0.9,2.320536,2.320536ZM3.16906,8.33094Q2.1,7.26187,2.1,5.75Q2.1,4.23813,3.16906,3.16906Q4.23813,2.1,5.75,2.1Q7.26187,2.1,8.33094,3.16906Q9.4,4.23813,9.4,5.75Q9.4,7.26187,8.33094,8.33094Q7.26187,9.4,5.75,9.4Q4.23813,9.4,3.16906,8.33094Z" fill-rule="evenodd" fill="#333333" fill-opacity="1"/></g><g><path d="M10.501597499999999,11.35060578125L10.5017475,11.35076578125Q10.5861375,11.43515578125,10.6964075,11.480825781250001Q10.8066675,11.52650578125,10.9260175,11.52650578125Q11.0453575,11.52650578125,11.1556275,11.480825781250001Q11.2658875,11.43515578125,11.3502775,11.35076578125Q11.4346675,11.26637578125,11.480337500000001,11.15611578125Q11.5260175,11.04584578125,11.5260175,10.92650578125Q11.5260175,10.80715578125,11.480337500000001,10.69689578125Q11.4346675,10.58662578125,11.3502775,10.50223578125L11.3501175,10.502085781249999L9.2289515,8.38091178125Q9.1445605,8.29652078125,9.0342975,8.25084778125Q8.9240345,8.20517578125,8.8046875,8.20517578125Q8.6853405,8.20517578125,8.5750775,8.25084778125Q8.4648145,8.29652078125,8.3804235,8.38091178125Q8.2960325,8.46530278125,8.2503595,8.57556578125Q8.2046875,8.68582878125,8.2046875,8.80517578125Q8.2046875,8.92452278125,8.2503595,9.03478578125Q8.2960325,9.14504878125,8.3804235,9.22943978125L10.501597499999999,11.35060578125Z" fill-rule="evenodd" fill="#333333" fill-opacity="1"/></g></g></svg>