<svg xmlns="http://www.w3.org/2000/svg" xmlns:xlink="http://www.w3.org/1999/xlink" fill="none" version="1.1" width="18" height="18" viewBox="0 0 18 18"><defs><clipPath id="master_svg0_1_698"><rect x="0" y="0" width="18" height="18" rx="0"/></clipPath></defs><g clip-path="url(#master_svg0_1_698)"><g><path d="M2.94300103515625,2.943184140625Q0.90006103515625,4.986114140625,0.90006003515625,7.875244140625Q0.90006103515625,10.764374140625,2.94300103515625,12.807344140625Q4.98593103515625,14.850244140625,7.87506103515625,14.850244140625Q10.76419103515625,14.850244140625,12.80716103515625,12.807344140625Q14.85006103515625,10.764374140625,14.85006103515625,7.875244140625Q14.85006103515625,4.986114140625,12.80716103515625,2.943184140625Q10.76419103515625,0.900244140625,7.87506103515625,0.900243140625Q4.98593103515625,0.900244140625,2.94300103515625,2.943184140625ZM3.79152103515625,11.958744140625Q2.10006103515625,10.267314140625,2.10006103515625,7.875244140625Q2.10006103515625,5.483174140625,3.79152103515625,3.791704140625Q5.48299103515625,2.100244140625,7.87506103515625,2.100244140625Q10.26713103515625,2.100244140625,11.95856103515625,3.791704140625Q13.65006103515625,5.483174140625,13.65006103515625,7.875244140625Q13.65006103515625,10.267314140625,11.95856103515625,11.958744140625Q10.26713103515625,13.650244140625,7.87506103515625,13.650244140625Q5.48299103515625,13.650244140625,3.79152103515625,11.958744140625Z" fill-rule="evenodd" fill="#333333" fill-opacity="1"/></g><g><path d="M7.875053662109375,3.9Q6.383888662109375,3.9,5.329489662109375,4.954398Q5.245098662109375,5.0387889999999995,5.199425662109375,5.149052Q5.153753662109375,5.259315,5.153753662109375,5.378662Q5.153753662109375,5.394195,5.154557662109375,5.409707Q5.160315662109375,5.52085,5.205553662109375,5.62254Q5.250791662109375,5.72423,5.329489662109375,5.80293Q5.413880662109375,5.88732,5.524143662109375,5.93299Q5.634406662109375,5.97866,5.753753662109375,5.97866Q5.873100662109375,5.97866,5.983363662109375,5.93299Q6.093626662109375,5.88732,6.178017662109375,5.80293Q6.880943662109375,5.1,7.875053662109375,5.1Q8.869203662109374,5.1,9.572123662109375,5.80293Q9.656513662109376,5.88732,9.766783662109376,5.93299Q9.877043662109376,5.97866,9.996393662109375,5.97866Q10.115743662109374,5.97866,10.226003662109374,5.93299Q10.336263662109374,5.88732,10.420653662109375,5.80293Q10.505043662109376,5.7185299999999994,10.550723662109375,5.60827Q10.596393662109374,5.49801,10.596393662109374,5.378662Q10.596393662109374,5.259315,10.550723662109375,5.149052Q10.505043662109376,5.03879,10.420653662109375,4.954398Q9.366253662109376,3.9,7.875053662109375,3.9Z" fill-rule="evenodd" fill="#333333" fill-opacity="1"/></g><g><path d="M15.21559884765625,16.0640678125L15.215788847656249,16.0642578125Q15.30018884765625,16.148647812500002,15.41044884765625,16.1943278125Q15.52070884765625,16.2399978125,15.640058847656249,16.2399978125Q15.75940884765625,16.2399978125,15.86966884765625,16.1943278125Q15.97992884765625,16.148647812500002,16.06431884765625,16.0642578125Q16.148708847656252,15.9798678125,16.19438884765625,15.8696078125Q16.24005884765625,15.7593478125,16.24005884765625,15.639997812499999Q16.24005884765625,15.5206478125,16.19438884765625,15.4103878125Q16.148708847656252,15.3001278125,16.06431884765625,15.215727812499999L12.88233284765625,12.0337438125Q12.79794184765625,11.9493528125,12.68767884765625,11.9036798125Q12.57741584765625,11.8580078125,12.45806884765625,11.8580078125Q12.33872184765625,11.8580078125,12.22845884765625,11.9036798125Q12.11819584765625,11.9493528125,12.03380484765625,12.0337438125Q11.94941384765625,12.1181348125,11.90374084765625,12.2283978125Q11.85806884765625,12.3386608125,11.85806884765625,12.4580078125Q11.85806884765625,12.5773548125,11.90374084765625,12.6876178125Q11.94941384765625,12.7978808125,12.03380484765625,12.8822718125L12.03390084765625,12.8823678125L15.21559884765625,16.0640678125Z" fill-rule="evenodd" fill="#333333" fill-opacity="1"/></g></g></svg>