<svg xmlns="http://www.w3.org/2000/svg" xmlns:xlink="http://www.w3.org/1999/xlink" fill="none" version="1.1" width="16" height="16" viewBox="0 0 16 16"><defs><clipPath id="master_svg0_1_0073"><rect x="0" y="0" width="16" height="16" rx="0"/></clipPath></defs><g clip-path="url(#master_svg0_1_0073)"><g><g><path d="M2.9510461718750003,2.9511377246093753Q1.115576171875,4.786607724609375,1.115576171875,7.382337724609375Q1.115576171875,9.978067724609375,2.9510461718750003,11.813567724609374Q4.786516171875,13.648967724609374,7.382246171875,13.648967724609374Q9.977966171875,13.648967724609374,11.813476171875,11.813567724609374Q13.648876171875,9.978057724609375,13.648876171875,7.382337724609375Q13.648876171875,4.786607724609375,11.813476171875,2.9511377246093753Q9.977966171875,1.115667724609375,7.382246171875,1.115667724609375Q4.786516171875,1.115667724609375,2.9510461718750003,2.9511377246093753ZM3.799576171875,10.965007724609375Q2.315576171875,9.481007724609375,2.315576171875,7.382337724609375Q2.315576171875,5.283657724609375,3.799576171875,3.799667724609375Q5.283576171875,2.315667724609375,7.382246171875,2.315668724609375Q9.480916171875,2.315668724609375,10.964916171875,3.799667724609375Q12.448876171875,5.283667724609375,12.448876171875,7.382337724609375Q12.448876171875,9.481007724609375,10.964916171875,10.965007724609375Q9.480916171875,12.448967724609375,7.382246171875,12.448967724609375Q5.283576171875,12.448967724609375,3.799576171875,10.965007724609375Z" fill-rule="evenodd" fill="#262626" fill-opacity="1"/></g><g><path d="M7.38218203125,3.782110595703125Q6.02908803125,3.782110595703125,5.07231803125,4.738879595703125Q4.98792703125,4.823270595703125,4.94225403125,4.933533595703125Q4.89658203125,5.0437965957031246,4.89658203125,5.163143595703125Q4.89658203125,5.282491595703125,4.94225403125,5.392750595703125Q4.98792603125,5.503020595703125,5.07231803125,5.587410595703125Q5.15670903125,5.671800595703125,5.26697203125,5.717470595703125Q5.37723503125,5.763140595703125,5.49658203125,5.763140595703125Q5.61592903125,5.763140595703125,5.72619203125,5.717470595703125Q5.83645503125,5.671800595703125,5.92084603125,5.587410595703125Q6.52614203125,4.982110595703125,7.38218203125,4.982110595703125Q8.23825203125,4.982110595703125,8.843552031249999,5.587410595703125Q8.92794203125,5.671800595703125,9.03820203125,5.717470595703125Q9.14847203125,5.763140595703125,9.26781203125,5.763140595703125Q9.38716203125,5.763140595703125,9.49742203125,5.717470595703125Q9.60769203125,5.671800595703125,9.69208203125,5.587410595703125Q9.77647203125,5.503020595703125,9.82214203125,5.392750595703125Q9.86781203125,5.282490595703125,9.86781203125,5.163143595703125Q9.86781203125,5.148724595703125,9.86712203125,5.134321595703125Q9.861752031249999,5.0225795957031245,9.816472031250001,4.920282595703125Q9.77118203125,4.817984595703125,9.69208203125,4.738879595703125Q8.73531203125,3.782110595703125,7.38218203125,3.782110595703125Z" fill-rule="evenodd" fill="#8C8C8C" fill-opacity="1"/></g><g><path d="M13.860024687500001,14.708402099609375L13.8602246875,14.708602099609376Q13.9446146875,14.792992099609375,14.0548746875,14.838662099609376Q14.1651446875,14.884332099609376,14.2844846875,14.884332099609376Q14.4038346875,14.884332099609376,14.5140946875,14.838662099609376Q14.6243646875,14.792992099609375,14.7087546875,14.708602099609376Q14.7931446875,14.624212099609375,14.838814687500001,14.513942099609375Q14.8844846875,14.403682099609375,14.8844846875,14.284332099609376Q14.8844846875,14.164992099609375,14.838814687500001,14.054722099609375Q14.7931446875,13.944462099609375,14.7087546875,13.860072099609376L11.8803186875,11.031638099609374Q11.7959276875,10.947247099609376,11.6856646875,10.901574099609375Q11.5754016875,10.855902099609375,11.4560546875,10.855902099609375Q11.3367076875,10.855902099609375,11.2264446875,10.901574099609375Q11.1161816875,10.947247099609376,11.0317906875,11.031638099609374Q10.9473996875,11.116029099609374,10.9017266875,11.226292099609376Q10.8560546875,11.336555099609376,10.8560546875,11.455902099609375Q10.8560546875,11.575249099609374,10.9017266875,11.685512099609374Q10.9473996875,11.795775099609376,11.0317906875,11.880166099609376L13.860024687500001,14.708402099609375Z" fill-rule="evenodd" fill="#262626" fill-opacity="1"/></g></g></g></svg>