<svg xmlns="http://www.w3.org/2000/svg" xmlns:xlink="http://www.w3.org/1999/xlink" fill="none" version="1.1" width="14" height="14.000000953674316" viewBox="0 0 14 14.000000953674316"><defs><clipPath id="master_svg0_1605_10666/1605_09753/1564_08859"><rect x="0" y="0" width="14" height="14.000000953674316" rx="0"/></clipPath></defs><g clip-path="url(#master_svg0_1605_10666/1605_09753/1564_08859)"><g><path d="M4,7Q4,7.09849,3.98079,7.19509Q3.96157,7.29169,3.92388,7.38268Q3.88619,7.47368,3.83147,7.5555699999999995Q3.77675,7.63746,3.70711,7.70711Q3.63746,7.77675,3.55557,7.8314699999999995Q3.47368,7.88619,3.3826799999999997,7.9238800000000005Q3.29169,7.96157,3.19509,7.98079Q3.09849,8,3,8Q2.901509,8,2.80491,7.98079Q2.708311,7.96157,2.6173159999999998,7.9238800000000005Q2.526322,7.88619,2.44443,7.8314699999999995Q2.362537,7.77675,2.292893,7.70711Q2.223249,7.63746,2.16853,7.5555699999999995Q2.113811,7.47368,2.0761205,7.38268Q2.0384294,7.29169,2.0192147,7.19509Q2,7.09849,2,7Q2,6.901509,2.0192147,6.80491Q2.0384294,6.708311,2.0761205,6.617316Q2.113811,6.526322,2.16853,6.44443Q2.223249,6.362537,2.292893,6.292893Q2.362537,6.223249,2.44443,6.16853Q2.526322,6.113811,2.6173159999999998,6.0761205Q2.708311,6.0384294,2.80491,6.0192147Q2.901509,6,3,6Q3.09849,6,3.19509,6.0192147Q3.29169,6.0384294,3.3826799999999997,6.0761205Q3.47368,6.113811,3.55557,6.16853Q3.63746,6.223249,3.70711,6.292893Q3.77675,6.362537,3.83147,6.44443Q3.88619,6.526322,3.92388,6.617316Q3.96157,6.708311,3.98079,6.80491Q4,6.901509,4,7ZM8,7Q8,7.09849,7.98078,7.19509Q7.96157,7.29169,7.92388,7.38268Q7.88619,7.47368,7.83147,7.5555699999999995Q7.77675,7.63746,7.70711,7.70711Q7.63746,7.77675,7.55557,7.8314699999999995Q7.47368,7.88619,7.38268,7.9238800000000005Q7.29169,7.96157,7.19509,7.98079Q7.09849,8,7,8Q6.90151,8,6.80491,7.98079Q6.70831,7.96157,6.61732,7.9238800000000005Q6.52632,7.88619,6.44443,7.8314699999999995Q6.36254,7.77675,6.29289,7.70711Q6.22325,7.63746,6.16853,7.5555699999999995Q6.11381,7.47368,6.07612,7.38268Q6.03843,7.29169,6.01921,7.19509Q6,7.09849,6,7Q6,6.901509,6.01921,6.80491Q6.03843,6.708311,6.07612,6.617316Q6.11381,6.526322,6.16853,6.44443Q6.22325,6.362537,6.29289,6.292893Q6.36254,6.223249,6.44443,6.16853Q6.52632,6.113811,6.61732,6.0761205Q6.70831,6.0384294,6.80491,6.0192147Q6.90151,6,7,6Q7.09849,6,7.19509,6.0192147Q7.29169,6.0384294,7.38268,6.0761205Q7.47368,6.113811,7.55557,6.16853Q7.63746,6.223249,7.70711,6.292893Q7.77675,6.362537,7.83147,6.44443Q7.88619,6.526322,7.92388,6.617316Q7.96157,6.708311,7.98078,6.80491Q8,6.901509,8,7ZM12,7Q12,7.09849,11.98078,7.19509Q11.96157,7.29169,11.92388,7.38268Q11.88619,7.47368,11.83147,7.5555699999999995Q11.77675,7.63746,11.70711,7.70711Q11.63746,7.77675,11.55557,7.8314699999999995Q11.47368,7.88619,11.38268,7.9238800000000005Q11.29169,7.96157,11.19509,7.98079Q11.09849,8,11,8Q10.90151,8,10.80491,7.98079Q10.70831,7.96157,10.61732,7.9238800000000005Q10.52632,7.88619,10.44443,7.8314699999999995Q10.36254,7.77675,10.29289,7.70711Q10.22325,7.63746,10.16853,7.5555699999999995Q10.11381,7.47368,10.07612,7.38268Q10.03843,7.29169,10.01921,7.19509Q10,7.09849,10,7Q10,6.901509,10.01921,6.80491Q10.03843,6.708311,10.07612,6.617316Q10.11381,6.526322,10.16853,6.44443Q10.22325,6.362537,10.29289,6.292893Q10.36254,6.223249,10.44443,6.16853Q10.52632,6.113811,10.61732,6.0761205Q10.70831,6.0384294,10.80491,6.0192147Q10.90151,6,11,6Q11.09849,6,11.19509,6.0192147Q11.29169,6.0384294,11.38268,6.0761205Q11.47368,6.113811,11.55557,6.16853Q11.63746,6.223249,11.70711,6.292893Q11.77675,6.362537,11.83147,6.44443Q11.88619,6.526322,11.92388,6.617316Q11.96157,6.708311,11.98078,6.80491Q12,6.901509,12,7Z" fill="#262626" fill-opacity="1"/></g></g></svg>