<svg xmlns="http://www.w3.org/2000/svg" xmlns:xlink="http://www.w3.org/1999/xlink" fill="none" version="1.1" width="15" height="10.833333969116211" viewBox="0 0 15 10.833333969116211"><g style="mix-blend-mode:passthrough"><path d="M14.7559,0.244078C15.0813,0.569514,15.0813,1.09715,14.7559,1.42259C14.7559,1.42259,5.58926,10.5893,5.58926,10.5893C5.26382,10.9147,4.73618,10.9147,4.41074,10.5893C4.41074,10.5893,0.244077,6.42259,0.244077,6.42259C-0.0813592,6.09715,-0.0813592,5.56952,0.244077,5.24408C0.569514,4.91864,1.09715,4.91864,1.42259,5.24408C1.42259,5.24408,5,8.8215,5,8.8215C5,8.8215,13.5774,0.244078,13.5774,0.244078C13.9028,-0.0813593,14.4305,-0.0813593,14.7559,0.244078C14.7559,0.244078,14.7559,0.244078,14.7559,0.244078Z" fill-rule="evenodd" fill="#FFFFFF" fill-opacity="1"/></g></svg>