<svg xmlns="http://www.w3.org/2000/svg" xmlns:xlink="http://www.w3.org/1999/xlink" fill="none" version="1.1" width="14" height="14" viewBox="0 0 14 14"><defs><clipPath id="master_svg0_97_1313/97_1258"><rect x="0" y="0" width="14" height="14" rx="0"/></clipPath></defs><g clip-path="url(#master_svg0_97_1313/97_1258)"><g transform="matrix(-1,0,0,1,24.5,0)"><path d="M13.25,3.225L14.875,3.225Q14.93409,3.225,14.992049999999999,3.213471Q15.05001,3.201942,15.104610000000001,3.179328Q15.15921,3.156713,15.20834,3.123882Q15.257480000000001,3.09105,15.29926,3.049264Q15.34105,3.007478,15.37388,2.958342Q15.40671,2.909207,15.42933,2.85461Q15.45194,2.800014,15.463470000000001,2.742054Q15.475,2.6840948,15.475,2.625Q15.475,2.5659052,15.463470000000001,2.507946Q15.45194,2.449986,15.42933,2.39539Q15.40671,2.340793,15.37388,2.291658Q15.34105,2.242522,15.29926,2.200736Q15.257480000000001,2.15895,15.20834,2.126118Q15.15921,2.093287,15.104610000000001,2.070672Q15.05001,2.048058,14.992049999999999,2.036529Q14.93409,2.025,14.875,2.025L13.25,2.025Q12.587258,2.025,12.118629,2.493629Q11.65,2.962258,11.65,3.625L11.65,7.87502Q11.65,8.537759999999999,12.11863,9.00639Q12.58726,9.47502,13.25,9.47502L21.3245,9.475L19.87778,10.95509L19.87728,10.9556Q19.795099999999998,11.03968,19.75073,11.14855Q19.70636,11.25743,19.70635,11.375L19.70635,11.37556L19.70638,11.38005L19.70639,11.38184Q19.70775,11.50118,19.75468,11.61091Q19.80161,11.72065,19.88695,11.80407Q19.97103,11.88625,20.079909999999998,11.93063Q20.18878,11.975,20.306350000000002,11.975L20.31319,11.97496Q20.43253,11.9736,20.542270000000002,11.92667Q20.652,11.87975,20.73543,11.7944L20.736060000000002,11.79376L23.178800000000003,9.29466L23.1791,9.2944Q23.1969,9.27613,23.2132,9.2564Q23.2275,9.23901,23.2405,9.22059Q23.35,9.06515,23.35,8.875L23.35,8.869119999999999Q23.349899999999998,8.860420000000001,23.3495,8.85172Q23.3452,8.740269999999999,23.301099999999998,8.63781Q23.256999999999998,8.53536,23.1791,8.4556L23.178800000000003,8.45534L20.73583,5.95601L20.73543,5.9556000000000004Q20.65076,5.8689800000000005,20.53912,5.8219899999999996Q20.42748,5.775,20.306359999999998,5.775Q20.294240000000002,5.775,20.28214,5.77549Q20.17094,5.77998,20.06874,5.824059999999999Q19.966540000000002,5.86813,19.88695,5.945930000000001Q19.80033,6.03059,19.75334,6.14223Q19.70635,6.25387,19.70635,6.375Q19.70635,6.38711,19.70684,6.39921Q19.71133,6.51042,19.75541,6.61261Q19.79949,6.71481,19.87728,6.7944L21.32451,8.275L13.25,8.27502Q13.084315,8.27502,12.967157,8.15786Q12.85,8.040700000000001,12.85,7.87502L12.85,3.625Q12.85,3.225,13.25,3.225Z" fill-rule="evenodd" fill="#FFFFFF" fill-opacity="1"/></g></g></svg>