<svg xmlns="http://www.w3.org/2000/svg" xmlns:xlink="http://www.w3.org/1999/xlink" fill="none" version="1.1" width="18" height="18" viewBox="0 0 18 18"><defs><clipPath id="master_svg0_342_2265"><rect x="0" y="0" width="18" height="18" rx="0"/></clipPath></defs><g clip-path="url(#master_svg0_342_2265)"><g><path d="M14.25,13.0833740234375Q14.25,13.1693440234375,14.24157,13.2549040234375Q14.23315,13.3404640234375,14.21637,13.4247840234375Q14.1996,13.5091040234375,14.17465,13.5913740234375Q14.14969,13.6736440234375,14.11679,13.7530740234375Q14.08389,13.8324940234375,14.04336,13.9083140234375Q14.002839999999999,13.9841340234375,13.95507,14.055624023437499Q13.907309999999999,14.1271040234375,13.85277,14.1935640234375Q13.79823,14.2600240234375,13.73744,14.3208140234375Q13.67665,14.3816040234375,13.61019,14.4361440234375Q13.54373,14.490684023437499,13.472249999999999,14.5384440234375Q13.40076,14.586214023437499,13.32494,14.6267340234375Q13.24912,14.6672640234375,13.1697,14.7001640234375Q13.09027,14.7330640234375,13.008,14.7580240234375Q12.92573,14.7829740234375,12.84141,14.7997440234375Q12.75709,14.8165240234375,12.67153,14.8249440234375Q12.58597,14.8333740234375,12.5,14.8333740234375Q12.41403,14.8333740234375,12.32847,14.8249440234375Q12.24291,14.8165240234375,12.15859,14.7997440234375Q12.07427,14.7829740234375,11.992,14.7580240234375Q11.90973,14.7330640234375,11.8303,14.7001640234375Q11.75088,14.6672640234375,11.675056,14.6267340234375Q11.599235,14.586214023437499,11.527752,14.5384440234375Q11.456269,14.490684023437499,11.389812,14.4361440234375Q11.323354,14.3816040234375,11.262563,14.3208140234375Q11.201772,14.2600240234375,11.147232,14.1935640234375Q11.092692,14.1271040234375,11.044928,14.055624023437499Q10.997165,13.9841340234375,10.956638,13.9083140234375Q10.916111,13.8324940234375,10.883211,13.7530740234375Q10.850311,13.6736440234375,10.8253544,13.5913740234375Q10.8003981,13.5091040234375,10.7836258,13.4247840234375Q10.7668535,13.3404640234375,10.75842673,13.2549040234375Q10.75,13.1693440234375,10.75,13.0833740234375Q10.75,12.9974040234375,10.75842673,12.9118440234375Q10.7668535,12.8262840234375,10.7836258,12.7419640234375Q10.8003981,12.6576440234375,10.8253544,12.5753740234375Q10.850311,12.4931040234375,10.883211,12.4136740234375Q10.916111,12.3342540234375,10.956638,12.2584300234375Q10.997165,12.1826090234375,11.044928,12.1111260234375Q11.092692,12.0396430234375,11.147232,11.9731860234375Q11.201772,11.9067280234375,11.262563,11.8459370234375Q11.323354,11.7851460234375,11.389812,11.7306060234375Q11.456269,11.6760660234375,11.527752,11.6283020234375Q11.599235,11.5805390234375,11.675056,11.5400120234375Q11.75088,11.4994850234375,11.8303,11.4665850234375Q11.90973,11.4336850234375,11.992,11.4087284234375Q12.07427,11.3837721234375,12.15859,11.3669998234375Q12.24291,11.3502275234375,12.32847,11.3418007534375Q12.41403,11.3333740234375,12.5,11.3333740234375Q12.58597,11.3333740234375,12.67153,11.3418007534375Q12.75709,11.3502275234375,12.84141,11.3669998234375Q12.92573,11.3837721234375,13.008,11.4087284234375Q13.09027,11.4336850234375,13.1697,11.4665850234375Q13.24912,11.4994850234375,13.32494,11.5400120234375Q13.40076,11.5805390234375,13.472249999999999,11.6283020234375Q13.54373,11.6760660234375,13.61019,11.7306060234375Q13.67665,11.7851460234375,13.73744,11.8459370234375Q13.79823,11.9067280234375,13.85277,11.9731860234375Q13.907309999999999,12.0396430234375,13.95507,12.1111260234375Q14.002839999999999,12.1826090234375,14.04336,12.2584300234375Q14.08389,12.3342540234375,14.11679,12.4136740234375Q14.14969,12.4931040234375,14.17465,12.5753740234375Q14.1996,12.6576440234375,14.21637,12.7419640234375Q14.23315,12.8262840234375,14.24157,12.9118440234375Q14.25,12.9974040234375,14.25,13.0833740234375Z" fill="#333333" fill-opacity="1"/><path d="M10.909,11.4923740234375Q10.25,12.1513740234375,10.25,13.0833740234375Q10.25,14.0153740234375,10.909,14.674374023437501Q11.568,15.3333740234375,12.5,15.3333740234375Q13.432,15.3333740234375,14.091000000000001,14.674374023437501Q14.75,14.0153740234375,14.75,13.0833740234375Q14.75,12.1513740234375,14.091000000000001,11.4923740234375Q13.432,10.8333740234375,12.5,10.8333740234375Q11.567999,10.8333740234375,10.909,11.4923740234375ZM11.616107,13.967264023437501Q11.25,13.6011640234375,11.25,13.0833740234375Q11.25,12.5655840234375,11.616107,12.1994810234375Q11.98221,11.8333740234375,12.5,11.8333740234375Q13.01779,11.8333740234375,13.383890000000001,12.1994810234375Q13.75,12.5655840234375,13.75,13.0833740234375Q13.75,13.6011640234375,13.383890000000001,13.967264023437501Q13.01779,14.3333740234375,12.5,14.3333740234375Q11.98221,14.3333740234375,11.616107,13.967264023437501Z" fill-rule="evenodd" fill="#333333" fill-opacity="1"/></g><g><path d="M14.25,4.9166259765625Q14.25,5.0025959765625,14.24157,5.0881559765625Q14.23315,5.1737159765625,14.21637,5.2580359765625Q14.1996,5.3423559765625,14.17465,5.4246259765625Q14.14969,5.5068959765625,14.11679,5.586325976562501Q14.08389,5.6657459765625,14.04336,5.7415659765625Q14.002839999999999,5.8173859765625,13.95507,5.8888759765625Q13.907309999999999,5.9603559765625,13.85277,6.026815976562499Q13.79823,6.0932759765625,13.73744,6.154065976562499Q13.67665,6.2148559765625,13.61019,6.2693959765625Q13.54373,6.3239359765625,13.472249999999999,6.3716959765625Q13.40076,6.4194659765625,13.32494,6.4599859765625Q13.24912,6.5005159765625,13.1697,6.5334159765625Q13.09027,6.5663159765625,13.008,6.5912759765625Q12.92573,6.6162259765625,12.84141,6.6329959765624995Q12.75709,6.6497759765625,12.67153,6.658195976562499Q12.58597,6.6666259765625,12.5,6.6666259765625Q12.41403,6.6666259765625,12.32847,6.658195976562499Q12.24291,6.6497759765625,12.15859,6.6329959765624995Q12.07427,6.6162259765625,11.992,6.5912759765625Q11.90973,6.5663159765625,11.8303,6.5334159765625Q11.75088,6.5005159765625,11.675056,6.4599859765625Q11.599235,6.4194659765625,11.527752,6.3716959765625Q11.456269,6.3239359765625,11.389812,6.2693959765625Q11.323354,6.2148559765625,11.262563,6.154065976562499Q11.201772,6.0932759765625,11.147232,6.026815976562499Q11.092692,5.9603559765625,11.044928,5.8888759765625Q10.997165,5.8173859765625,10.956638,5.7415659765625Q10.916111,5.6657459765625,10.883211,5.586325976562501Q10.850311,5.5068959765625,10.8253544,5.4246259765625Q10.8003981,5.3423559765625,10.7836258,5.2580359765625Q10.7668535,5.1737159765625,10.75842673,5.0881559765625Q10.75,5.0025959765625,10.75,4.9166259765625Q10.75,4.8306559765625,10.75842673,4.7450959765625Q10.7668535,4.6595359765625,10.7836258,4.5752159765625Q10.8003981,4.4908959765625,10.8253544,4.4086259765625Q10.850311,4.3263559765625,10.883211,4.2469259765625Q10.916111,4.1675059765625,10.956638,4.0916819765625Q10.997165,4.0158609765625,11.044928,3.9443779765625Q11.092692,3.8728949765625,11.147232,3.8064379765625Q11.201772,3.7399799765625,11.262563,3.6791889765625Q11.323354,3.6183979765625,11.389812,3.5638579765625Q11.456269,3.5093179765625,11.527752,3.4615539765625Q11.599235,3.4137909765625,11.675056,3.3732639765625Q11.75088,3.3327369765625,11.8303,3.2998369765625Q11.90973,3.2669369765625,11.992,3.2419803765625Q12.07427,3.2170240765625,12.15859,3.2002517765625Q12.24291,3.1834794765625,12.32847,3.1750527065625Q12.41403,3.1666259765625,12.5,3.1666259765625Q12.58597,3.1666259765625,12.67153,3.1750527065625Q12.75709,3.1834794765625,12.84141,3.2002517765625Q12.92573,3.2170240765625,13.008,3.2419803765625Q13.09027,3.2669369765625,13.1697,3.2998369765625Q13.24912,3.3327369765625,13.32494,3.3732639765625Q13.40076,3.4137909765625,13.472249999999999,3.4615539765625Q13.54373,3.5093179765625,13.61019,3.5638579765625Q13.67665,3.6183979765625,13.73744,3.6791889765625Q13.79823,3.7399799765625,13.85277,3.8064379765625Q13.907309999999999,3.8728949765625,13.95507,3.9443779765625Q14.002839999999999,4.0158609765625,14.04336,4.0916819765625Q14.08389,4.1675059765625,14.11679,4.2469259765625Q14.14969,4.3263559765625,14.17465,4.4086259765625Q14.1996,4.4908959765625,14.21637,4.5752159765625Q14.23315,4.6595359765625,14.24157,4.7450959765625Q14.25,4.8306559765625,14.25,4.9166259765625Z" fill="#333333" fill-opacity="1"/><path d="M10.908998,3.3256389765625Q10.25,3.9846439765625,10.25,4.9166259765625Q10.25,5.848605976562499,10.908998,6.5076159765625Q11.568003000000001,7.1666259765625,12.5,7.1666259765625Q13.432,7.1666259765625,14.091000000000001,6.5076159765625Q14.75,5.848605976562499,14.75,4.9166259765625Q14.75,3.9846439765625,14.091000000000001,3.3256389765625Q13.432,2.6666259765625,12.5,2.6666259765625Q11.568003000000001,2.6666259765625,10.908998,3.3256389765625ZM11.616109,5.8005059765624996Q11.25,5.4343959765625005,11.25,4.9166259765625Q11.25,4.3988559765624995,11.616109,4.0327409765625Q11.98222,3.6666259765625,12.5,3.6666259765625Q13.01778,3.6666259765625,13.383890000000001,4.0327409765625Q13.75,4.3988559765624995,13.75,4.9166259765625Q13.75,5.4343959765625005,13.383890000000001,5.8005059765624996Q13.01778,6.1666259765625,12.5,6.1666259765625Q11.98222,6.1666259765625,11.616109,5.8005059765624996Z" fill-rule="evenodd" fill="#333333" fill-opacity="1"/></g><g><path d="M7.25,9Q7.25,9.08597,7.241569999999999,9.17153Q7.23315,9.25709,7.2163699999999995,9.34141Q7.1996,9.42573,7.17465,9.508Q7.14969,9.59027,7.11679,9.6697Q7.08389,9.74912,7.04336,9.82494Q7.00284,9.90076,6.95507,9.972249999999999Q6.90731,10.04373,6.85277,10.11019Q6.79823,10.17665,6.737439999999999,10.23744Q6.67665,10.29823,6.610189999999999,10.35277Q6.54373,10.407309999999999,6.47225,10.45507Q6.40076,10.502839999999999,6.32494,10.54336Q6.24912,10.58389,6.169700000000001,10.61679Q6.09027,10.64969,6.008,10.67465Q5.92573,10.6996,5.84141,10.71637Q5.75709,10.73315,5.67153,10.74157Q5.58597,10.75,5.5,10.75Q5.41403,10.75,5.32847,10.74157Q5.24291,10.73315,5.15859,10.71637Q5.07427,10.6996,4.992,10.67465Q4.90973,10.64969,4.8303,10.61679Q4.75088,10.58389,4.675056,10.54336Q4.599235,10.502839999999999,4.5277519999999996,10.45507Q4.456269,10.407309999999999,4.389812,10.35277Q4.323354,10.29823,4.262563,10.23744Q4.201772,10.17665,4.147232,10.11019Q4.0926919999999996,10.04373,4.044928,9.972249999999999Q3.997165,9.90076,3.956638,9.82494Q3.916111,9.74912,3.883211,9.6697Q3.850311,9.59027,3.8253544,9.508Q3.8003981,9.42573,3.7836258,9.34141Q3.7668535,9.25709,3.75842673,9.17153Q3.75,9.08597,3.75,9Q3.75,8.91403,3.75842673,8.82847Q3.7668535,8.74291,3.7836258,8.65859Q3.8003981,8.57427,3.8253544,8.492Q3.850311,8.40973,3.883211,8.3303Q3.916111,8.25088,3.956638,8.175056Q3.997165,8.099235,4.044928,8.027752Q4.0926919999999996,7.956269,4.147232,7.889812Q4.201772,7.823354,4.262563,7.762563Q4.323354,7.701772,4.389812,7.647232Q4.456269,7.5926919999999996,4.5277519999999996,7.544928Q4.599235,7.497165,4.675056,7.456638Q4.75088,7.416111,4.8303,7.383211Q4.90973,7.350311,4.992,7.3253544Q5.07427,7.3003981,5.15859,7.2836258Q5.24291,7.2668535,5.32847,7.25842673Q5.41403,7.25,5.5,7.25Q5.58597,7.25,5.67153,7.25842673Q5.75709,7.2668535,5.84141,7.2836258Q5.92573,7.3003981,6.008,7.3253544Q6.09027,7.350311,6.169700000000001,7.383211Q6.24912,7.416111,6.32494,7.456638Q6.40076,7.497165,6.47225,7.544928Q6.54373,7.5926919999999996,6.610189999999999,7.647232Q6.67665,7.701772,6.737439999999999,7.762563Q6.79823,7.823354,6.85277,7.889812Q6.90731,7.956269,6.95507,8.027752Q7.00284,8.099235,7.04336,8.175056Q7.08389,8.25088,7.11679,8.3303Q7.14969,8.40973,7.17465,8.492Q7.1996,8.57427,7.2163699999999995,8.65859Q7.23315,8.74291,7.241569999999999,8.82847Q7.25,8.91403,7.25,9Z" fill="#333333" fill-opacity="1"/><path d="M3.909013,7.408998Q3.25,8.068003000000001,3.25,9Q3.25,9.932,3.909013,10.591000000000001Q4.568018,11.25,5.5,11.25Q6.431979999999999,11.25,7.09099,10.591000000000001Q7.75,9.932,7.75,9Q7.75,8.068003000000001,7.09099,7.408998Q6.431979999999999,6.75,5.5,6.75Q4.568018,6.75,3.909013,7.408998ZM4.616115,9.883890000000001Q4.25,9.51778,4.25,9Q4.25,8.48222,4.616115,8.116109Q4.9822299999999995,7.75,5.5,7.75Q6.0177700000000005,7.75,6.3838799999999996,8.116109Q6.75,8.48222,6.75,9Q6.75,9.51778,6.3838799999999996,9.883890000000001Q6.0177700000000005,10.25,5.5,10.25Q4.9822299999999995,10.25,4.616115,9.883890000000001Z" fill-rule="evenodd" fill="#333333" fill-opacity="1"/></g><g><path d="M6.6606910234375,7.6040159765625L10.7440240234375,5.2706799765625L11.3393940234375,6.3125719765625L7.2560570234375,8.6459059765625L6.6606910234375,7.6040159765625Z" fill-rule="evenodd" fill="#333333" fill-opacity="1"/></g><g><path d="M10.7440240234375,12.72928L6.6606910234375,10.395946L7.2560570234375,9.354054L11.3393940234375,11.68739L10.7440240234375,12.72928Z" fill-rule="evenodd" fill="#333333" fill-opacity="1"/></g></g></svg>