<svg xmlns="http://www.w3.org/2000/svg" xmlns:xlink="http://www.w3.org/1999/xlink" fill="none" version="1.1" width="20" height="20" viewBox="0 0 20 20"><defs><clipPath id="master_svg0_1_0336"><rect x="0" y="0" width="20" height="20" rx="0"/></clipPath></defs><g clip-path="url(#master_svg0_1_0336)"><g><path d="M12.161511,12.8281369765625Q11.4,13.5896479765625,11.4,14.6666259765625Q11.4,15.743605976562499,12.161511,16.5051159765625Q12.923022,17.2666259765625,14,17.2666259765625Q15.076979999999999,17.2666259765625,15.83849,16.5051159765625Q16.6,15.743605976562499,16.6,14.6666259765625Q16.6,13.5896479765625,15.83849,12.8281369765625Q15.076979999999999,12.0666259765625,14,12.0666259765625Q12.923022,12.0666259765625,12.161511,12.8281369765625ZM13.01004,15.6565859765625Q12.6,15.2465459765625,12.6,14.6666259765625Q12.6,14.0867059765625,13.01004,13.6766659765625Q13.42008,13.2666259765625,14,13.2666259765625Q14.57992,13.2666259765625,14.98996,13.6766659765625Q15.4,14.0867059765625,15.4,14.6666259765625Q15.4,15.2465459765625,14.98996,15.6565859765625Q14.57992,16.0666259765625,14,16.0666259765625Q13.42008,16.0666259765625,13.01004,15.6565859765625Z" fill-rule="evenodd" fill="#333333" fill-opacity="1"/></g><g><path d="M12.161509,3.4949000234375Q11.4,4.2564170234375,11.4,5.3333740234375Q11.4,6.4103340234375,12.161509,7.1718440234375Q12.923026,7.9333740234375,14,7.9333740234375Q15.07697,7.9333740234375,15.83849,7.1718440234375Q16.6,6.4103340234375,16.6,5.3333740234375Q16.6,4.2564170234375,15.83849,3.4949000234375Q15.07697,2.7333740234375,14,2.7333740234375Q12.923026,2.7333740234375,12.161509,3.4949000234375ZM13.01004,6.3233240234375Q12.6,5.9132840234375,12.6,5.3333740234375Q12.6,4.7534740234375,13.01004,4.3434240234375Q13.42009,3.9333740234375,14,3.9333740234375Q14.57991,3.9333740234375,14.98996,4.3434240234375Q15.4,4.7534740234375,15.4,5.3333740234375Q15.4,5.9132740234375,14.98996,6.3233240234375Q14.57991,6.7333740234375,14,6.7333740234375Q13.42009,6.7333740234375,13.01004,6.3233240234375Z" fill-rule="evenodd" fill="#333333" fill-opacity="1"/></g><g><path d="M4.161526,8.161509Q3.4,8.923026,3.4,10Q3.4,11.07697,4.161526,11.83849Q4.923043,12.6,6,12.6Q7.07696,12.6,7.83847,11.83849Q8.6,11.07697,8.6,10Q8.6,8.923026,7.83847,8.161509Q7.07696,7.4,6,7.4Q4.923043,7.4,4.161526,8.161509ZM5.01005,10.98996Q4.6,10.57991,4.6,10Q4.6,9.42009,5.01005,9.01004Q5.4201,8.6,6,8.6Q6.5799,8.6,6.98995,9.01004Q7.4,9.42009,7.4,10Q7.4,10.57991,6.98995,10.98996Q6.5799,11.4,6,11.4Q5.4201,11.4,5.01005,10.98996Z" fill-rule="evenodd" fill="#333333" fill-opacity="1"/></g><g><path d="M7.368988752929687,8.4790940234375L12.035651752929688,5.8124280234375L12.631021752929687,6.8543200234375L7.964354752929688,9.5209840234375L7.368988752929687,8.4790940234375Z" fill-rule="evenodd" fill="#333333" fill-opacity="1"/></g><g><path d="M12.035651752929688,14.18761L7.368988752929687,11.520946L7.964354752929688,10.479054L12.631021752929687,13.14572L12.035651752929688,14.18761Z" fill-rule="evenodd" fill="#333333" fill-opacity="1"/></g></g></svg>