<svg xmlns="http://www.w3.org/2000/svg" xmlns:xlink="http://www.w3.org/1999/xlink" fill="none" version="1.1" width="20" height="20" viewBox="0 0 20 20"><defs><clipPath id="master_svg0_1_659"><rect x="0" y="0" width="20" height="20" rx="0"/></clipPath></defs><g clip-path="url(#master_svg0_1_659)"><g><path d="M16,14.6666259765625Q16,14.7648759765625,15.99037,14.8626559765625Q15.98074,14.9604359765625,15.96157,15.0568059765625Q15.9424,15.1531759765625,15.913879999999999,15.2471959765625Q15.88536,15.3412159765625,15.847760000000001,15.4319959765625Q15.81016,15.5227659765625,15.76384,15.6094159765625Q15.71753,15.6960759765625,15.662939999999999,15.777765976562499Q15.60835,15.8594659765625,15.54602,15.9354159765625Q15.48369,16.0113659765625,15.41421,16.0808359765625Q15.34474,16.1503159765625,15.26879,16.2126459765625Q15.19284,16.2749759765625,15.111139999999999,16.3295659765625Q15.02945,16.3841559765625,14.94279,16.430465976562502Q14.85614,16.4767859765625,14.76537,16.5143859765625Q14.67459,16.5519859765625,14.58057,16.5805059765625Q14.48655,16.6090259765625,14.39018,16.628195976562502Q14.29381,16.6473659765625,14.19603,16.6569959765625Q14.09825,16.6666259765625,14,16.6666259765625Q13.90175,16.6666259765625,13.80397,16.6569959765625Q13.70619,16.6473659765625,13.60982,16.628195976562502Q13.51345,16.6090259765625,13.41943,16.5805059765625Q13.32541,16.5519859765625,13.23463,16.5143859765625Q13.14386,16.4767859765625,13.05721,16.430465976562502Q12.970554,16.3841559765625,12.888859,16.3295659765625Q12.807164,16.2749759765625,12.731213,16.2126459765625Q12.655262,16.1503159765625,12.585786,16.0808359765625Q12.516311,16.0113659765625,12.453979,15.9354159765625Q12.391648,15.8594659765625,12.337061,15.777765976562499Q12.282474,15.6960759765625,12.236157,15.6094159765625Q12.189841,15.5227659765625,12.152241,15.4319959765625Q12.114641,15.3412159765625,12.0861193,15.2471959765625Q12.0575978,15.1531759765625,12.0384294,15.0568059765625Q12.0192611,14.9604359765625,12.00963055,14.8626559765625Q12,14.7648759765625,12,14.6666259765625Q12,14.5683759765625,12.00963055,14.4705959765625Q12.0192611,14.3728159765625,12.0384294,14.2764459765625Q12.0575978,14.1800759765625,12.0861193,14.0860559765625Q12.114641,13.9920359765625,12.152241,13.9012559765625Q12.189841,13.8104859765625,12.236157,13.7238359765625Q12.282474,13.6371799765625,12.337061,13.5554849765625Q12.391648,13.4737899765625,12.453979,13.3978389765625Q12.516311,13.3218879765625,12.585786,13.2524119765625Q12.655262,13.1829369765625,12.731213,13.1206049765625Q12.807164,13.0582739765625,12.888859,13.0036869765625Q12.970554,12.9490999765625,13.05721,12.9027829765625Q13.14386,12.8564669765625,13.23463,12.8188669765625Q13.32541,12.7812669765625,13.41943,12.7527452765625Q13.51345,12.7242237765625,13.60982,12.7050553765625Q13.70619,12.6858870765625,13.80397,12.6762565265625Q13.90175,12.6666259765625,14,12.6666259765625Q14.09825,12.6666259765625,14.19603,12.6762565265625Q14.29381,12.6858870765625,14.39018,12.7050553765625Q14.48655,12.7242237765625,14.58057,12.7527452765625Q14.67459,12.7812669765625,14.76537,12.8188669765625Q14.85614,12.8564669765625,14.94279,12.9027829765625Q15.02945,12.9490999765625,15.111139999999999,13.0036869765625Q15.19284,13.0582739765625,15.26879,13.1206049765625Q15.34474,13.1829369765625,15.41421,13.2524119765625Q15.48369,13.3218879765625,15.54602,13.3978389765625Q15.60835,13.4737899765625,15.662939999999999,13.5554849765625Q15.71753,13.6371799765625,15.76384,13.7238359765625Q15.81016,13.8104859765625,15.847760000000001,13.9012559765625Q15.88536,13.9920359765625,15.913879999999999,14.0860559765625Q15.9424,14.1800759765625,15.96157,14.2764459765625Q15.98074,14.3728159765625,15.99037,14.4705959765625Q16,14.5683759765625,16,14.6666259765625Z" fill="#1878F5" fill-opacity="1"/><path d="M12.161511,12.8281369765625Q11.4,13.5896479765625,11.4,14.6666259765625Q11.4,15.743605976562499,12.161511,16.5051159765625Q12.923022,17.2666259765625,14,17.2666259765625Q15.076979999999999,17.2666259765625,15.83849,16.5051159765625Q16.6,15.743605976562499,16.6,14.6666259765625Q16.6,13.5896479765625,15.83849,12.8281369765625Q15.076979999999999,12.0666259765625,14,12.0666259765625Q12.923022,12.0666259765625,12.161511,12.8281369765625ZM13.01004,15.6565859765625Q12.6,15.2465459765625,12.6,14.6666259765625Q12.6,14.0867059765625,13.01004,13.6766659765625Q13.42008,13.2666259765625,14,13.2666259765625Q14.57992,13.2666259765625,14.98996,13.6766659765625Q15.4,14.0867059765625,15.4,14.6666259765625Q15.4,15.2465459765625,14.98996,15.6565859765625Q14.57992,16.0666259765625,14,16.0666259765625Q13.42008,16.0666259765625,13.01004,15.6565859765625Z" fill-rule="evenodd" fill="#1878F5" fill-opacity="1"/></g><g><path d="M16,5.3333740234375Q16,5.4316240234375,15.99037,5.5294040234375Q15.98074,5.627184023437501,15.96157,5.7235540234375Q15.9424,5.819924023437499,15.913879999999999,5.9139440234375Q15.88536,6.0079640234375,15.847760000000001,6.0987440234375Q15.81016,6.1895140234375,15.76384,6.2761640234375005Q15.71753,6.362824023437501,15.662939999999999,6.4445140234375Q15.60835,6.5262140234375,15.54602,6.6021640234375Q15.48369,6.6781140234375,15.41421,6.747584023437501Q15.34474,6.8170640234375,15.26879,6.8793940234375Q15.19284,6.9417240234375,15.111139999999999,6.9963140234375Q15.02945,7.0509040234375,14.94279,7.0972140234375Q14.85614,7.1435340234375,14.76537,7.1811340234375Q14.67459,7.2187340234375,14.58057,7.2472540234375Q14.48655,7.2757740234375,14.39018,7.2949440234375Q14.29381,7.3141140234375,14.19603,7.3237440234375Q14.09825,7.3333740234375,14,7.3333740234375Q13.90175,7.3333740234375,13.80397,7.3237440234375Q13.70619,7.3141140234375,13.60982,7.2949440234375Q13.51345,7.2757740234375,13.41943,7.2472540234375Q13.32541,7.2187340234375,13.23463,7.1811340234375Q13.14386,7.1435340234375,13.05721,7.0972140234375Q12.970554,7.0509040234375,12.888859,6.9963140234375Q12.807164,6.9417240234375,12.731213,6.8793940234375Q12.655262,6.8170640234375,12.585786,6.747584023437501Q12.516311,6.6781140234375,12.453979,6.6021640234375Q12.391648,6.5262140234375,12.337061,6.4445140234375Q12.282474,6.362824023437501,12.236157,6.2761640234375005Q12.189841,6.1895140234375,12.152241,6.0987440234375Q12.114641,6.0079640234375,12.0861193,5.9139440234375Q12.0575978,5.819924023437499,12.0384294,5.7235540234375Q12.0192611,5.627184023437501,12.00963055,5.5294040234375Q12,5.4316240234375,12,5.3333740234375Q12,5.2351240234375,12.00963055,5.1373440234375Q12.0192611,5.0395640234375,12.0384294,4.9431940234375Q12.0575978,4.8468240234375,12.0861193,4.7528040234375Q12.114641,4.6587840234375,12.152241,4.5680040234375Q12.189841,4.4772340234375,12.236157,4.3905840234374995Q12.282474,4.3039280234375,12.337061,4.2222330234375Q12.391648,4.1405380234375,12.453979,4.0645870234375Q12.516311,3.9886360234375,12.585786,3.9191600234375Q12.655262,3.8496850234375,12.731213,3.7873530234375Q12.807164,3.7250220234375,12.888859,3.6704350234375Q12.970554,3.6158480234375,13.05721,3.5695310234375Q13.14386,3.5232150234375,13.23463,3.4856150234375Q13.32541,3.4480150234375,13.41943,3.4194933234375Q13.51345,3.3909718234375,13.60982,3.3718034234375Q13.70619,3.3526351234375,13.80397,3.3430045734375Q13.90175,3.3333740234375,14,3.3333740234375Q14.09825,3.3333740234375,14.19603,3.3430045734375Q14.29381,3.3526351234375,14.39018,3.3718034234375Q14.48655,3.3909718234375,14.58057,3.4194933234375Q14.67459,3.4480150234375,14.76537,3.4856150234375Q14.85614,3.5232150234375,14.94279,3.5695310234375Q15.02945,3.6158480234375,15.111139999999999,3.6704350234375Q15.19284,3.7250220234375,15.26879,3.7873530234375Q15.34474,3.8496850234375,15.41421,3.9191600234375Q15.48369,3.9886360234375,15.54602,4.0645870234375Q15.60835,4.1405380234375,15.662939999999999,4.2222330234375Q15.71753,4.3039280234375,15.76384,4.3905840234374995Q15.81016,4.4772340234375,15.847760000000001,4.5680040234375Q15.88536,4.6587840234375,15.913879999999999,4.7528040234375Q15.9424,4.8468240234375,15.96157,4.9431940234375Q15.98074,5.0395640234375,15.99037,5.1373440234375Q16,5.2351240234375,16,5.3333740234375Z" fill="#1878F5" fill-opacity="1"/><path d="M12.161509,3.4949000234375Q11.4,4.2564170234375,11.4,5.3333740234375Q11.4,6.4103340234375,12.161509,7.1718440234375Q12.923026,7.9333740234375,14,7.9333740234375Q15.07697,7.9333740234375,15.83849,7.1718440234375Q16.6,6.4103340234375,16.6,5.3333740234375Q16.6,4.2564170234375,15.83849,3.4949000234375Q15.07697,2.7333740234375,14,2.7333740234375Q12.923026,2.7333740234375,12.161509,3.4949000234375ZM13.01004,6.3233240234375Q12.6,5.9132840234375,12.6,5.3333740234375Q12.6,4.7534740234375,13.01004,4.3434240234375Q13.42009,3.9333740234375,14,3.9333740234375Q14.57991,3.9333740234375,14.98996,4.3434240234375Q15.4,4.7534740234375,15.4,5.3333740234375Q15.4,5.9132740234375,14.98996,6.3233240234375Q14.57991,6.7333740234375,14,6.7333740234375Q13.42009,6.7333740234375,13.01004,6.3233240234375Z" fill-rule="evenodd" fill="#1878F5" fill-opacity="1"/></g><g><path d="M8,10Q8,10.09825,7.99037,10.19603Q7.98074,10.29381,7.96157,10.39018Q7.9424,10.48655,7.91388,10.58057Q7.88536,10.67459,7.84776,10.76537Q7.81016,10.85614,7.76384,10.94279Q7.71753,11.02945,7.66294,11.111139999999999Q7.60835,11.19284,7.54602,11.26879Q7.48369,11.34474,7.414210000000001,11.41421Q7.34474,11.48369,7.26879,11.54602Q7.19284,11.60835,7.11114,11.662939999999999Q7.029450000000001,11.71753,6.9427900000000005,11.76384Q6.85614,11.81016,6.76537,11.847760000000001Q6.67459,11.88536,6.58057,11.913879999999999Q6.486549999999999,11.9424,6.39018,11.96157Q6.293810000000001,11.98074,6.19603,11.99037Q6.09825,12,6,12Q5.90175,12,5.80397,11.99037Q5.70619,11.98074,5.60982,11.96157Q5.51345,11.9424,5.41943,11.913879999999999Q5.32541,11.88536,5.23463,11.847760000000001Q5.14386,11.81016,5.0572099999999995,11.76384Q4.970554,11.71753,4.888859,11.662939999999999Q4.807164,11.60835,4.731213,11.54602Q4.6552620000000005,11.48369,4.585786,11.41421Q4.516311,11.34474,4.453979,11.26879Q4.391648,11.19284,4.337061,11.111139999999999Q4.282474,11.02945,4.236157,10.94279Q4.189841,10.85614,4.152241,10.76537Q4.114641,10.67459,4.0861193,10.58057Q4.0575978,10.48655,4.0384294,10.39018Q4.0192611,10.29381,4.00963055,10.19603Q4,10.09825,4,10Q4,9.90175,4.00963055,9.80397Q4.0192611,9.70619,4.0384294,9.60982Q4.0575978,9.51345,4.0861193,9.41943Q4.114641,9.32541,4.152241,9.23463Q4.189841,9.14386,4.236157,9.05721Q4.282474,8.970554,4.337061,8.888859Q4.391648,8.807164,4.453979,8.731213Q4.516311,8.655262,4.585786,8.585786Q4.6552620000000005,8.516311,4.731213,8.453979Q4.807164,8.391648,4.888859,8.337061Q4.970554,8.282474,5.0572099999999995,8.236157Q5.14386,8.189841,5.23463,8.152241Q5.32541,8.114641,5.41943,8.0861193Q5.51345,8.0575978,5.60982,8.0384294Q5.70619,8.0192611,5.80397,8.00963055Q5.90175,8,6,8Q6.09825,8,6.19603,8.00963055Q6.293810000000001,8.0192611,6.39018,8.0384294Q6.486549999999999,8.0575978,6.58057,8.0861193Q6.67459,8.114641,6.76537,8.152241Q6.85614,8.189841,6.9427900000000005,8.236157Q7.029450000000001,8.282474,7.11114,8.337061Q7.19284,8.391648,7.26879,8.453979Q7.34474,8.516311,7.414210000000001,8.585786Q7.48369,8.655262,7.54602,8.731213Q7.60835,8.807164,7.66294,8.888859Q7.71753,8.970554,7.76384,9.05721Q7.81016,9.14386,7.84776,9.23463Q7.88536,9.32541,7.91388,9.41943Q7.9424,9.51345,7.96157,9.60982Q7.98074,9.70619,7.99037,9.80397Q8,9.90175,8,10Z" fill="#1878F5" fill-opacity="1"/><path d="M4.161526,8.161509Q3.4,8.923026,3.4,10Q3.4,11.07697,4.161526,11.83849Q4.923043,12.6,6,12.6Q7.07696,12.6,7.83847,11.83849Q8.6,11.07697,8.6,10Q8.6,8.923026,7.83847,8.161509Q7.07696,7.4,6,7.4Q4.923043,7.4,4.161526,8.161509ZM5.01005,10.98996Q4.6,10.57991,4.6,10Q4.6,9.42009,5.01005,9.01004Q5.4201,8.6,6,8.6Q6.5799,8.6,6.98995,9.01004Q7.4,9.42009,7.4,10Q7.4,10.57991,6.98995,10.98996Q6.5799,11.4,6,11.4Q5.4201,11.4,5.01005,10.98996Z" fill-rule="evenodd" fill="#1878F5" fill-opacity="1"/></g><g><path d="M7.368988752929687,8.4790940234375L12.035651752929688,5.8124280234375L12.631021752929687,6.8543200234375L7.964354752929688,9.5209840234375L7.368988752929687,8.4790940234375Z" fill-rule="evenodd" fill="#1878F5" fill-opacity="1"/></g><g><path d="M12.035651752929688,14.18761L7.368988752929687,11.520946L7.964354752929688,10.479054L12.631021752929687,13.14572L12.035651752929688,14.18761Z" fill-rule="evenodd" fill="#1878F5" fill-opacity="1"/></g></g></svg>