<svg width="20" height="20" viewBox="0 0 20 20" fill="none" xmlns="http://www.w3.org/2000/svg">
<path d="M5.95397 8.84429L13.8157 4.12765M6.23424 11.3697L14.0285 15.5685M3.7 7.45973C5.19117 7.45973 6.4 8.76119 6.4 10.3666C6.4 11.972 5.19117 13.2735 3.7 13.2735C2.20883 13.2735 1 11.972 1 10.3666C1 8.76119 2.20883 7.45973 3.7 7.45973ZM16.3 1C17.7912 1 19 2.30145 19 3.90688C19 5.5123 17.7912 6.81376 16.3 6.81376C14.8088 6.81376 13.6 5.5123 13.6 3.90688C13.6 2.30145 14.8088 1 16.3 1ZM16.3 13.1862C17.7912 13.1862 19 14.4877 19 16.0931C19 17.6985 17.7912 19 16.3 19C14.8088 19 13.6 17.6985 13.6 16.0931C13.6 14.4877 14.8088 13.1862 16.3 13.1862Z" stroke="black" stroke-width="1"/>
</svg>
