<svg xmlns="http://www.w3.org/2000/svg" xmlns:xlink="http://www.w3.org/1999/xlink" fill="none" version="1.1" width="16" height="16" viewBox="0 0 16 16"><defs><clipPath id="master_svg0_1_1129"><rect x="0" y="0" width="16" height="16" rx="0"/></clipPath></defs><g clip-path="url(#master_svg0_1_1129)"><g><g><path d="M0.4,12L0.4,4Q0.4,3.337258,0.868629,2.868629Q1.337258,2.4,2,2.4L14,2.4Q14.6627,2.4,15.1314,2.868629Q15.6,3.33726,15.6,4L15.6,12Q15.6,12.66274,15.1314,13.1314Q14.6627,13.6,14,13.6L2,13.6Q1.337259,13.6,0.868629,13.1314Q0.4,12.66274,0.4,12ZM1.6,12Q1.6,12.4,2,12.4L14,12.4Q14.4,12.4,14.4,12L14.4,4Q14.4,3.6,14,3.6L2,3.6Q1.6,3.6,1.6,4L1.6,12Z" fill="#262626" fill-opacity="1"/></g><g><ellipse cx="4.666666686534882" cy="5.911783874034882" rx="0.6666666865348816" ry="0.6666666865348816" fill="#262626" fill-opacity="1"/></g><g><ellipse cx="2.6476237177848816" cy="5.911783874034882" rx="0.6666666865348816" ry="0.6666666865348816" fill="#262626" fill-opacity="1"/></g><g><ellipse cx="5.333170592784882" cy="7.911783874034882" rx="0.6666666865348816" ry="0.6666666865348816" fill="#262626" fill-opacity="1"/></g><g><ellipse cx="3.3331705927848816" cy="7.911783874034882" rx="0.6666666865348816" ry="0.6666666865348816" fill="#262626" fill-opacity="1"/></g><g><ellipse cx="6.666666686534882" cy="5.911783874034882" rx="0.6666666865348816" ry="0.6666666865348816" fill="#262626" fill-opacity="1"/></g><g><ellipse cx="7.333170592784882" cy="7.911783874034882" rx="0.6666666865348816" ry="0.6666666865348816" fill="#262626" fill-opacity="1"/></g><g><ellipse cx="8.666666686534882" cy="5.911783874034882" rx="0.6666666865348816" ry="0.6666666865348816" fill="#262626" fill-opacity="1"/></g><g><ellipse cx="9.333170592784882" cy="7.911783874034882" rx="0.6666666865348816" ry="0.6666666865348816" fill="#262626" fill-opacity="1"/></g><g><ellipse cx="10.666666686534882" cy="5.911783874034882" rx="0.6666666865348816" ry="0.6666666865348816" fill="#262626" fill-opacity="1"/></g><g><ellipse cx="11.333170592784882" cy="7.911783874034882" rx="0.6666666865348816" ry="0.6666666865348816" fill="#262626" fill-opacity="1"/></g><g><ellipse cx="13.246666610240936" cy="7.911783874034882" rx="0.6666666865348816" ry="0.6666666865348816" fill="#262626" fill-opacity="1"/></g><g><ellipse cx="12.666666686534882" cy="5.911783874034882" rx="0.6666666865348816" ry="0.6666666865348816" fill="#262626" fill-opacity="1"/></g><g><path d="M5.66650390625,11.512109375L10.33317390625,11.512109375Q10.392263906250001,11.512109375,10.450223906249999,11.500580375Q10.50818390625,11.489051375,10.56278390625,11.466437375Q10.61737390625,11.443822375,10.66651390625,11.410991375Q10.715643906250001,11.378159375,10.75743390625,11.336373375Q10.799223906249999,11.294587375,10.83205390625,11.245451375Q10.86488390625,11.196316375,10.88749390625,11.141719375Q10.91011390625,11.087123375000001,10.92164390625,11.029163375Q10.933173906250001,10.971204175,10.933173906250001,10.912109375Q10.933173906250001,10.853014575,10.92164390625,10.795055375Q10.91011390625,10.737095374999999,10.88749390625,10.682499375Q10.86488390625,10.627902375,10.83205390625,10.578767375Q10.799223906249999,10.529631375,10.75743390625,10.487845375Q10.715643906250001,10.446059375,10.66651390625,10.413227375Q10.61737390625,10.380396375,10.56278390625,10.357781375Q10.50818390625,10.335167375,10.450223906249999,10.323638375Q10.392263906250001,10.312109375,10.33317390625,10.312109375L5.66650390625,10.312109375Q5.6074091062499996,10.312109375,5.54944990625,10.323638375Q5.49148990625,10.335167375,5.43689390625,10.357781375Q5.38229690625,10.380396375,5.33316190625,10.413227375Q5.28402590625,10.446059375,5.24223990625,10.487845375Q5.20045390625,10.529631375,5.16762190625,10.578767375Q5.13479090625,10.627902375,5.11217590625,10.682499375Q5.08956190625,10.737095374999999,5.07803290625,10.795055375Q5.06650390625,10.853014575,5.06650390625,10.912109375Q5.06650390625,10.971204175,5.07803290625,11.029163375Q5.08956190625,11.087123375000001,5.11217590625,11.141719375Q5.13479090625,11.196316375,5.16762190625,11.245451375Q5.20045390625,11.294587375,5.24223990625,11.336373375Q5.28402590625,11.378159375,5.33316190625,11.410991375Q5.38229690625,11.443822375,5.43689390625,11.466437375Q5.49148990625,11.489051375,5.54944990625,11.500580375Q5.6074091062499996,11.512109375,5.66650390625,11.512109375Z" fill-rule="evenodd" fill="#262626" fill-opacity="1"/></g></g></g></svg>