<svg xmlns="http://www.w3.org/2000/svg" xmlns:xlink="http://www.w3.org/1999/xlink" fill="none" version="1.1" width="16" height="16" viewBox="0 0 16 16"><defs><clipPath id="master_svg0_747_3155"><rect x="0" y="0" width="16" height="16" rx="0"/></clipPath></defs><g clip-path="url(#master_svg0_747_3155)"><g><path d="M7.31667,6L7.31667,2.666667Q7.31667,2.121285,6.93103,1.7356449999999999Q6.54539,1.35,6,1.35L2.666667,1.35Q2.121285,1.35,1.735643,1.735643Q1.35,2.121285,1.35,2.666667L1.35,6Q1.35,6.54539,1.7356449999999999,6.93103Q2.121285,7.31667,2.666667,7.31667L6,7.31667Q6.54539,7.31667,6.93103,6.93103Q7.31667,6.54539,7.31667,6ZM6,2.65Q6.01667,2.65,6.01667,2.666667L6.01667,6Q6.01667,6.01667,6,6.01667L2.666667,6.01667Q2.65,6.01667,2.65,6L2.65,2.666667Q2.65,2.65,2.666667,2.65L6,2.65Z" fill-rule="evenodd" fill="#262626" fill-opacity="1"/></g><g><path d="M7.31667,13.3333740234375L7.31667,10.0000410234375Q7.31667,9.4546520234375,6.93103,9.0690130234375Q6.54539,8.6833740234375,6,8.6833740234375L2.666667,8.6833740234375Q2.121286,8.6833740234375,1.7356449999999999,9.0690100234375Q1.35,9.4546510234375,1.35,10.0000410234375L1.35,13.3333740234375Q1.35,13.878764023437501,1.7356449999999999,14.2644040234375Q2.121286,14.6500440234375,2.666667,14.6500440234375L6,14.6500440234375Q6.54539,14.6500440234375,6.93103,14.2644040234375Q7.31667,13.878764023437501,7.31667,13.3333740234375ZM6,9.9833740234375Q6.01667,9.9833740234375,6.01667,10.0000410234375L6.01667,13.3333740234375Q6.01667,13.350044023437501,6,13.350044023437501L2.666667,13.350044023437501Q2.65,13.350044023437501,2.65,13.3333740234375L2.65,10.0000410234375Q2.65,9.9833740234375,2.666667,9.9833740234375L6,9.9833740234375Z" fill-rule="evenodd" fill="#262626" fill-opacity="1"/></g><g><path d="M14.650654375,6L14.650654375,2.666667Q14.650654375,2.121286,14.265014375,1.7356449999999999Q13.879374375000001,1.35,13.333984375,1.35L10.000651375,1.35Q9.455261375,1.35,9.069620375,1.7356449999999999Q8.683984375,2.121286,8.683984375,2.666667L8.683984375,6Q8.683984375,6.54539,9.069623375,6.93103Q9.455262375,7.31667,10.000651375,7.31667L13.333984375,7.31667Q13.879374375000001,7.31667,14.265014375,6.93103Q14.650654375,6.54539,14.650654375,6ZM13.333984375,2.65Q13.350654375000001,2.65,13.350654375000001,2.666667L13.350654375000001,6Q13.350654375000001,6.01667,13.333984375,6.01667L10.000651375,6.01667Q9.983984375,6.01667,9.983984375,6L9.983984375,2.666667Q9.983984375,2.65,10.000651375,2.65L13.333984375,2.65Z" fill-rule="evenodd" fill="#262626" fill-opacity="1"/></g><g><path d="M14.650654375,13.3333740234375L14.650654375,10.0000410234375Q14.650654375,9.4546520234375,14.265014375,9.0690130234375Q13.879374375000001,8.6833740234375,13.333984375,8.6833740234375L10.000651375,8.6833740234375Q9.455262375,8.6833740234375,9.069623375,9.0690130234375Q8.683984375,9.4546520234375,8.683984375,10.0000410234375L8.683984375,13.3333740234375Q8.683984375,13.878764023437501,9.069623375,14.2644040234375Q9.455262375,14.6500440234375,10.000651375,14.6500440234375L13.333984375,14.6500440234375Q13.879374375000001,14.6500440234375,14.265014375,14.2644040234375Q14.650654375,13.878764023437501,14.650654375,13.3333740234375ZM13.333984375,9.9833740234375Q13.350654375000001,9.9833740234375,13.350654375000001,10.0000410234375L13.350654375000001,13.3333740234375Q13.350654375000001,13.350044023437501,13.333984375,13.350044023437501L10.000651375,13.350044023437501Q9.983984375,13.350044023437501,9.983984375,13.3333740234375L9.983984375,10.0000410234375Q9.983984375,9.9833740234375,10.000651375,9.9833740234375L13.333984375,9.9833740234375Z" fill-rule="evenodd" fill="#262626" fill-opacity="1"/></g></g></svg>