<svg xmlns="http://www.w3.org/2000/svg" xmlns:xlink="http://www.w3.org/1999/xlink" fill="none" version="1.1" width="28" height="28" viewBox="0 0 28 28"><defs><clipPath id="master_svg0_53_0121"><rect x="0" y="0" width="28" height="28" rx="0"/></clipPath><clipPath id="master_svg1_53_0281"><rect x="5" y="5" width="18" height="18" rx="0"/></clipPath></defs><g style="opacity:0.30000001192092896;" clip-path="url(#master_svg0_53_0121)"><g clip-path="url(#master_svg1_53_0281)"><g><path d="M8.6,20L8.6,8Q8.6,7.9409051999999996,8.588471,7.882946Q8.576942,7.824986,8.554328,7.77039Q8.531713,7.715793,8.498882,7.666658Q8.46605,7.617522,8.424264,7.575736Q8.382478,7.53395,8.333342,7.501118Q8.284207,7.468287,8.22961,7.445672Q8.175014000000001,7.423058,8.117054,7.411529Q8.0590948,7.4,8,7.4Q7.9409051999999996,7.4,7.882946,7.411529Q7.824986,7.423058,7.77039,7.445672Q7.715793,7.468287,7.666658,7.501118Q7.617522,7.53395,7.575736,7.575736Q7.53395,7.617522,7.501118,7.666658Q7.468287,7.715793,7.445672,7.77039Q7.423058,7.824986,7.411529,7.882946Q7.4,7.9409051999999996,7.4,8L7.4,20Q7.4,20.0591,7.411529,20.1171Q7.423058,20.175,7.445672,20.229599999999998Q7.468287,20.2842,7.501118,20.3333Q7.53395,20.3825,7.575736,20.424300000000002Q7.617522,20.466,7.666658,20.4989Q7.715793,20.5317,7.77039,20.554299999999998Q7.824986,20.576900000000002,7.882946,20.5885Q7.9409051999999996,20.6,8,20.6Q8.0590948,20.6,8.117054,20.5885Q8.175014000000001,20.576900000000002,8.22961,20.554299999999998Q8.284207,20.5317,8.333342,20.4989Q8.382478,20.466,8.424264,20.424300000000002Q8.46605,20.3825,8.498882,20.3333Q8.531713,20.2842,8.554328,20.229599999999998Q8.576942,20.175,8.588471,20.1171Q8.6,20.0591,8.6,20Z" fill-rule="evenodd" fill="#404040" fill-opacity="1"/></g><g><path d="M19.5990234375,20L19.5990234375,8Q19.5990234375,7.9409051999999996,19.5874944375,7.882946Q19.5759654375,7.824986,19.5533514375,7.77039Q19.5307364375,7.715793,19.4979054375,7.666658Q19.4650734375,7.617522,19.4232874375,7.575736Q19.3815014375,7.53395,19.332365437500002,7.501118Q19.2832304375,7.468287,19.2286334375,7.445672Q19.1740374375,7.423058,19.1160774375,7.411529Q19.0581182375,7.4,18.9990234375,7.4Q18.9399286375,7.4,18.8819694375,7.411529Q18.8240094375,7.423058,18.7694134375,7.445672Q18.7148164375,7.468287,18.665681437499998,7.501118Q18.6165454375,7.53395,18.5747594375,7.575736Q18.5329734375,7.617522,18.5001414375,7.666658Q18.4673104375,7.715793,18.4446954375,7.77039Q18.4220814375,7.824986,18.4105524375,7.882946Q18.3990234375,7.9409051999999996,18.3990234375,8L18.3990234375,20Q18.3990234375,20.0591,18.4105524375,20.1171Q18.4220814375,20.175,18.4446954375,20.229599999999998Q18.4673104375,20.2842,18.5001414375,20.3333Q18.5329734375,20.3825,18.5747594375,20.424300000000002Q18.6165454375,20.466,18.665681437499998,20.4989Q18.7148164375,20.5317,18.7694134375,20.554299999999998Q18.8240094375,20.576900000000002,18.8819694375,20.5885Q18.9399286375,20.6,18.9990234375,20.6Q19.0581182375,20.6,19.1160774375,20.5885Q19.1740374375,20.576900000000002,19.2286334375,20.554299999999998Q19.2832304375,20.5317,19.332365437500002,20.4989Q19.3815014375,20.466,19.4232874375,20.424300000000002Q19.4650734375,20.3825,19.4979054375,20.3333Q19.5307364375,20.2842,19.5533514375,20.229599999999998Q19.5759654375,20.175,19.5874944375,20.1171Q19.5990234375,20.0591,19.5990234375,20Z" fill-rule="evenodd" fill="#404040" fill-opacity="1"/></g><g transform="matrix(0,-1,1,0,-5,29)"><rect x="12" y="17" width="6" height="3" rx="1" fill="#404040" fill-opacity="1"/></g></g></g></svg>