<svg xmlns="http://www.w3.org/2000/svg" xmlns:xlink="http://www.w3.org/1999/xlink" fill="none" version="1.1" width="36" height="32" viewBox="0 0 36 32"><g><g><path d="M18,11L2,11L2,21L18,21L18,20L3,20L3,12L18,12L18,11Z" fill-rule="evenodd" fill="#333333" fill-opacity="1"/></g><g><path d="M18,16.65L34,16.65Q34.064,16.65,34.1268,16.63751Q34.1896,16.625021,34.2487,16.600522Q34.307900000000004,16.576022000000002,34.3611,16.540455Q34.4143,16.504888,34.459599999999995,16.459619Q34.5049,16.414351,34.5405,16.361121Q34.576,16.30789,34.6005,16.248744Q34.625,16.189598,34.6375,16.126809Q34.65,16.0640194,34.65,16Q34.65,15.9359806,34.6375,15.873191Q34.625,15.810402,34.6005,15.751256Q34.576,15.69211,34.5405,15.638879Q34.5049,15.585649,34.459599999999995,15.540381Q34.4143,15.495112,34.3611,15.459545Q34.307900000000004,15.423978,34.2487,15.399478Q34.1896,15.374979,34.1268,15.36249Q34.064,15.35,34,15.35L7,15.35Q6.9359806,15.35,6.873191,15.36249Q6.810402,15.374979,6.751256,15.399478Q6.69211,15.423978,6.638879,15.459545Q6.585649,15.495112,6.540381,15.540381Q6.495112,15.585649,6.459545,15.638879Q6.423978,15.69211,6.399478,15.751256Q6.374979,15.810402,6.36249,15.873191Q6.35,15.9359806,6.35,16Q6.35,16.0640194,6.36249,16.126809Q6.374979,16.189598,6.399478,16.248744Q6.423978,16.30789,6.459545,16.361121Q6.495112,16.414351,6.540381,16.459619Q6.585649,16.504888,6.638879,16.540455Q6.69211,16.576022000000002,6.751256,16.600522Q6.810402,16.625021,6.873191,16.63751Q6.9359806,16.65,7,16.65L18,16.65Z" fill-rule="evenodd" fill="#333333" fill-opacity="1"/></g><g><ellipse cx="7.5" cy="16" rx="1.5" ry="1.5" fill="#333333" fill-opacity="1"/></g></g></svg>