<?xml version="1.0" encoding="UTF-8" standalone="no"?>
<svg
   viewBox="0 0 1024 1024"
   version="1.1"
   id="svg2753"
   sodipodi:docname="stared.svg"
   inkscape:version="1.2.2 (732a01da63, 2022-12-09)"
   xmlns:inkscape="http://www.inkscape.org/namespaces/inkscape"
   xmlns:sodipodi="http://sodipodi.sourceforge.net/DTD/sodipodi-0.dtd"
   xmlns="http://www.w3.org/2000/svg"
   xmlns:svg="http://www.w3.org/2000/svg">
  <defs
     id="defs2757" />
  <sodipodi:namedview
     id="namedview2755"
     pagecolor="#ffffff"
     bordercolor="#000000"
     borderopacity="0.25"
     inkscape:showpageshadow="2"
     inkscape:pageopacity="0.0"
     inkscape:pagecheckerboard="0"
     inkscape:deskcolor="#d1d1d1"
     showgrid="false"
     inkscape:zoom="1.0029297"
     inkscape:cx="306.60175"
     inkscape:cy="511.50146"
     inkscape:window-width="3840"
     inkscape:window-height="2054"
     inkscape:window-x="-11"
     inkscape:window-y="-11"
     inkscape:window-maximized="1"
     inkscape:current-layer="svg2753" />
  <path
     fill="#008000"
     d="m 494.05258,560.38917 5.81141,-87.4564 c 4.68129,2.44886 97.88893,46.35144 97.02294,41.13978 L 705.92,606.976 506.55663,518.80326 c 3.74359,-3.69517 256.93078,-97.82084 232.7877,-28.82742 l -78.62104,24.69889 -32.28754,-24.77268 c -2.3314,-4.81374 -234.52842,383.04994 -235.86274,-9.97079 L 392.192,379.072 449.17369,556.78012 c -5.19859,0.80211 16.6663,38.09428 20.40989,41.78945 L 318.08,606.976 464.93806,541.99076 c -0.86599,5.21166 60.43514,-10.77271 65.11642,-13.22158 z M 313.6,924.48 c -23.72338,12.47298 -52.47126,10.39305 -74.15211,-5.36496 C 217.76704,903.35703 206.91492,876.65501 211.456,850.24 L 249.344,629.312 88.96,472.96 C 69.780128,454.25085 62.883183,426.27624 71.168411,400.79577 79.45364,375.31529 101.48452,356.74685 128,352.896 l 221.76,-32.256 99.2,-200.96 c 11.87027,-24.000924 36.32812,-39.190303 63.104,-39.190303 26.77588,0 51.23373,15.189379 63.104,39.190303 l 99.2,200.96 221.824,32.256 c 26.51548,3.85085 48.54636,22.41929 56.83159,47.89977 8.28523,25.48047 1.38828,53.45508 -17.79159,72.16423 L 774.72,629.376 812.608,850.304 c 4.54108,26.41501 -6.31104,53.11703 -27.99189,68.87504 -21.68085,15.75801 -50.42873,17.83794 -74.15211,5.36496 L 512,820.096 313.6,924.416 Z"
     id="path2751"
     sodipodi:nodetypes="cccccccccccccccccscccscccscccscccscccc"
     style="fill:#ffd42a" />
</svg>
