<svg xmlns="http://www.w3.org/2000/svg" xmlns:xlink="http://www.w3.org/1999/xlink" fill="none" version="1.1" width="20" height="20" viewBox="0 0 20 20"><defs><clipPath id="master_svg0_1_0400"><rect x="0" y="0" width="20" height="20" rx="0"/></clipPath></defs><g clip-path="url(#master_svg0_1_0400)"><g><path d="M7.327358247070313,6.9420759765625L3.7660512470703127,7.4596459765625Q3.0247542470703124,7.5673759765625,2.7930972470703126,8.2777459765625Q2.5607372470703123,8.9902859765625,3.0997532470703124,9.5122359765625L5.673668247070312,12.0049359765625L5.066358247070313,15.5256259765625Q4.939018247070313,16.2638259765625,5.547438247070312,16.7033259765625Q6.152898247070313,17.1406259765625,6.814988247070312,16.7944259765625L9.999998247070312,15.1290259765625L13.184988247070313,16.7944259765625Q13.847128247070312,17.1406259765625,14.452528247070312,16.7033259765625Q15.060928247070313,16.2638259765625,14.933628247070313,15.5255259765625L14.326328247070313,12.0049359765625L16.900328247070313,9.512225976562501Q17.43922824707031,8.9902459765625,17.206928247070312,8.2777559765625Q16.975228247070312,7.5673759765625,16.233928247070313,7.4596459765625L12.672618247070313,6.9420759765625L11.080828247070311,3.7357007765625Q10.748728247070312,3.0666259765625,9.999998247070312,3.0666259765625Q9.251268247070312,3.0666259765625,8.919178247070313,3.7356652765625L7.327358247070313,6.9420759765625ZM3.9339672470703126,8.6497859765625Q3.9346332470703125,8.6477459765625,3.9386302470703125,8.647165976562501L7.811198247070313,8.0843659765625Q7.883218247070313,8.0739059765625,7.950658247070312,8.0465159765625Q8.018088247070313,8.019135976562499,8.077018247070313,7.9764259765625Q8.135948247070313,7.9337159765625,8.182958247070314,7.8781559765625Q8.229968247070312,7.8225959765625,8.262328247070313,7.7574059765625L9.994018247070311,4.2692669765625Q9.995328247070312,4.2666259765625,9.999998247070312,4.2666259765625Q10.004668247070313,4.2666259765625,10.005958247070312,4.2692309765625L11.737648247070313,7.7574059765625Q11.770008247070313,7.8225959765625,11.817018247070312,7.8781559765625Q11.864028247070312,7.9337159765625,11.922958247070312,7.9764259765625Q11.981888247070312,8.019135976562499,12.049318247070312,8.0465159765625Q12.116748247070312,8.0739059765625,12.188768247070312,8.0843659765625L16.061328247070314,8.647165976562501Q16.065328247070312,8.6477459765625,16.066028247070314,8.6497859765625L16.065428247070315,8.6502259765625L13.263728247070313,11.363475976562501Q13.211088247070313,11.4144559765625,13.172258247070312,11.4766059765625Q13.133438247070313,11.5387559765625,13.110708247070313,11.6084259765625Q13.087988247070312,11.6780959765625,13.082698247070313,11.7511859765625Q13.077408247070313,11.8242759765625,13.089858247070312,11.8964859765625L13.751028247070312,15.7295259765625L13.749928247070313,15.7305259765625Q13.745828247070312,15.7335259765625,13.741028247070313,15.7310259765625L10.278008247070312,13.9202259765625Q10.213658247070313,13.8866259765625,10.143138247070311,13.8693259765625Q10.072618247070313,13.8519259765625,9.999998247070312,13.8519259765625Q9.927378247070312,13.8519259765625,9.856858247070313,13.8693259765625Q9.786338247070312,13.8866259765625,9.721978247070313,13.9202259765625L6.2589582470703125,15.7310259765625Q6.254188247070312,15.7335259765625,6.250058247070312,15.7305259765625Q6.248878247070312,15.7296259765625,6.248898247070313,15.7295259765625L6.910098247070312,11.8964859765625Q6.922558247070313,11.8242759765625,6.917268247070313,11.7511859765625Q6.911978247070312,11.6780959765625,6.889248247070313,11.6084259765625Q6.866528247070312,11.5387659765625,6.8276982470703125,11.476615976562499Q6.788878247070313,11.4144659765625,6.736238247070313,11.363485976562501L3.9345722470703124,8.6502159765625L3.9339672470703126,8.6497859765625Z" fill-rule="evenodd" fill="#333333" fill-opacity="1"/></g></g></svg>