<svg xmlns="http://www.w3.org/2000/svg" xmlns:xlink="http://www.w3.org/1999/xlink" fill="none" version="1.1" width="20" height="20" viewBox="0 0 20 20"><defs><clipPath id="master_svg0_1_0796"><rect x="0" y="0" width="20" height="20" rx="0"/></clipPath></defs><g clip-path="url(#master_svg0_1_0796)"><g><path d="M3.766054000091553,7.459646071929932L7.327354000091553,6.9420760719299315L8.919174000091552,3.735665071929932Q9.251264000091552,3.0666260719299316,9.999994000091553,3.0666260719299316Q10.748724000091553,3.0666260719299316,11.080834000091553,3.7357010719299315L12.672614000091553,6.9420760719299315L16.233904000091552,7.459646071929932Q16.97520400009155,7.567376071929932,17.206904000091555,8.277756071929932Q17.439204000091554,8.990246071929931,16.900304000091552,9.51222607192993L14.326304000091552,12.004936071929931L14.933604000091552,15.525526071929932Q15.061004000091552,16.263826071929934,14.452504000091553,16.70332607192993Q13.847104000091553,17.14062607192993,13.185004000091553,16.794426071929934L9.999994000091553,15.129026071929932L6.814994000091553,16.794426071929934Q6.152894000091553,17.14062607192993,5.5474340000915525,16.70332607192993Q4.939024000091553,16.263826071929934,5.066364000091553,15.525626071929931L5.673664000091552,12.004936071929931L3.0997530000915527,9.512236071929932Q2.5607370000915526,8.990286071929932,2.7930977000915527,8.277746071929933Q3.0247540000915527,7.567376071929932,3.766054000091553,7.459646071929932Z" fill-rule="evenodd" fill="#1878F5" fill-opacity="1"/></g></g></svg>