<svg xmlns="http://www.w3.org/2000/svg" xmlns:xlink="http://www.w3.org/1999/xlink" fill="none"
    version="1.1" width="16" height="16" viewBox="0 0 16 16">
    <defs>
        <clipPath id="master_svg0_737_8683">
            <rect x="0" y="0" width="16" height="16" rx="0" />
        </clipPath>
    </defs>
    <g clip-path="url(#master_svg0_737_8683)">
        <g>
            <path
                d="M6.3846081640625,7.319499Q6.4999981640625,7.180589,6.4999981640625,7Q6.4999981640625,6.9507543,6.4903881640625,6.9024549Q6.4807881640625,6.854155,6.4619381640625,6.808658Q6.4430981640625,6.763161,6.4157381640625,6.722215Q6.3883781640625,6.681269,6.3535481640625,6.646447Q6.3187281640625,6.611625,6.2777881640625,6.584265Q6.2368381640625,6.556906,6.1913381640625,6.53806Q6.1458481640625,6.519215,6.0975481640625,6.509607Q6.0492481640625,6.5,5.9999981640625,6.5Q5.8885081640625,6.5,5.7875681640625,6.547369Q5.6866381640625,6.5947379999999995,5.6153981640625,6.680501L1.0428401640625,12.1848L1.0427641640625,12.184899999999999Q0.9273681640625,12.32381,0.9273681640625,12.50439Q0.9273681640625,12.55364,0.9369751640624999,12.601939999999999Q0.9465831640625,12.65024,0.9654281640625,12.69574Q0.9842741640625,12.74123,1.0116331640625,12.78218Q1.0389931640625,12.823129999999999,1.0738151640625,12.857949999999999Q1.1086371640625,12.892769999999999,1.1495831640625,12.92013Q1.1905291640625,12.94749,1.2360261640624999,12.96633Q1.2815231640625,12.98518,1.3298230640625,12.99479Q1.3781224640625,13.00439,1.4273681640625,13.00439Q1.5388631640625,13.00439,1.6397951640625,12.95703Q1.7407271640625,12.909659999999999,1.8119721640625,12.823889999999999L1.8120471640625,12.8238L6.3846081640625,7.3195L6.3846081640625,7.319499Z"
                fill-rule="evenodd" fill="#BFBFBF" fill-opacity="1" />
        </g>
        <g transform="matrix(-1,0,0,1,29.1455078125,0)">
            <path
                d="M19.52999390625,7.319499Q19.64538390625,7.180589,19.64538390625,7Q19.64538390625,6.9507543,19.63577390625,6.9024549Q19.62617390625,6.854155,19.607323906250002,6.808658Q19.588483906249998,6.763161,19.56112390625,6.722215Q19.53376390625,6.681269,19.49893390625,6.646447Q19.46411390625,6.611625,19.42317390625,6.584265Q19.38222390625,6.556906,19.33672390625,6.53806Q19.29123390625,6.519215,19.242933906250002,6.509607Q19.19463390625,6.5,19.14538390625,6.5Q19.03389390625,6.5,18.93295390625,6.547369Q18.83202390625,6.5947379999999995,18.76078390625,6.680501L14.18822590625,12.1848L14.18814990625,12.184899999999999Q14.07275390625,12.32381,14.07275390625,12.50439Q14.07275390625,12.55364,14.08236090625,12.601939999999999Q14.091968906249999,12.65024,14.11081390625,12.69574Q14.12965990625,12.74123,14.15701890625,12.78218Q14.18437890625,12.823129999999999,14.21920090625,12.857949999999999Q14.25402290625,12.892769999999999,14.29496890625,12.92013Q14.33591490625,12.94749,14.38141190625,12.96633Q14.42690890625,12.98518,14.47520880625,12.99479Q14.52350820625,13.00439,14.57275390625,13.00439Q14.68424890625,13.00439,14.78518090625,12.95703Q14.88611290625,12.909659999999999,14.95735790625,12.823889999999999L14.95743290625,12.8238L19.52999390625,7.3195L19.52999390625,7.319499Z"
                fill-rule="evenodd" fill="#BFBFBF" fill-opacity="1" />
        </g>
        <g>
            <ellipse cx="8" cy="6" rx="2" ry="2" fill-opacity="0" stroke-opacity="1"
                stroke="#141414" fill="none" stroke-width="1" stroke-linecap="ROUND"
                stroke-linejoin="round" />
        </g>
    </g>
</svg>