<svg t="1731313869603" class="icon" viewBox="0 0 1024 1024" version="1.1" xmlns="http://www.w3.org/2000/svg"
    p-id="34622" width="200" height="200">
    <path
        d="M631.466667 477.866667H768c123.733333 0 221.866667-98.133333 221.866667-221.866667 0-123.733333-98.133333-221.866667-221.866667-221.866667-123.733333 0-221.866667 98.133333-221.866667 221.866667v140.8c0 42.666667 38.4 81.066667 85.333334 81.066667zM627.2 256c0-76.8 64-140.8 140.8-140.8 76.8 0 140.8 64 140.8 140.8 0 76.8-64 140.8-140.8 140.8h-140.8s-4.266667 0-4.266667-4.266667V256zM256 34.133333C132.266667 34.133333 29.866667 132.266667 29.866667 256c0 123.733333 98.133333 221.866667 221.866666 221.866667h140.8c46.933333 0 81.066667-38.4 81.066667-81.066667V256C477.866667 132.266667 375.466667 34.133333 256 34.133333z m140.8 358.4c0 4.266667 0 4.266667 0 0L256 396.8C174.933333 396.8 110.933333 332.8 110.933333 256c0-76.8 64-140.8 140.8-140.8 76.8 0 140.8 64 140.8 140.8v136.533333z m371.2 153.6h-140.8c-46.933333 0-81.066667 38.4-81.066667 81.066667V768c0 123.733333 98.133333 221.866667 221.866667 221.866667 123.733333 0 221.866667-98.133333 221.866667-221.866667 0-119.466667-98.133333-221.866667-221.866667-221.866667z m0 366.933334c-76.8 0-140.8-64-140.8-140.8v-140.8s0-4.266667 4.266667-4.266667H768c76.8 0 140.8 64 140.8 140.8 4.266667 81.066667-59.733333 145.066667-140.8 145.066667z m-375.466667-366.933334H256C132.266667 546.133333 34.133333 644.266667 34.133333 768c0 123.733333 98.133333 221.866667 221.866667 221.866667 123.733333 0 221.866667-98.133333 221.866667-221.866667v-140.8c0-21.333333-8.533333-42.666667-25.6-59.733333-12.8-12.8-34.133333-21.333333-59.733334-21.333334z m4.266667 221.866667c0 76.8-64 140.8-140.8 140.8-76.8 0-140.8-64-140.8-140.8 0-76.8 64-140.8 140.8-140.8h140.8l4.266667 4.266667V768z"
        fill="currentColor" p-id="34623"></path>
</svg>