<svg xmlns="http://www.w3.org/2000/svg" xmlns:xlink="http://www.w3.org/1999/xlink" fill="none" version="1.1" width="32" height="32" viewBox="0 0 32 32"><defs><clipPath id="master_svg0_1_0766"><rect x="0" y="0" width="32" height="32" rx="4"/></clipPath><clipPath id="master_svg1_39_781"><rect x="6" y="6" width="20" height="20" rx="0"/></clipPath></defs><g clip-path="url(#master_svg0_1_0766)"><g clip-path="url(#master_svg1_39_781)"><g><path d="M18.5,13.5L18.5,9C18.5,8.723858,18.27617,8.5,18,8.5L9,8.5C8.723858,8.5,8.5,8.723858,8.5,9L8.5,18C8.5,18.27617,8.723858,18.5,9,18.5L13.5,18.5L13.5,14C13.5,13.72386,13.72386,13.5,14,13.5L18.5,13.5Z" fill-rule="evenodd" fill="#CCCCCC" fill-opacity="1"/><path d="M17.9,13.5L17.9,9Q17.9,9.1,18,9.1L9,9.1Q9.1,9.1,9.1,9L9.1,18Q9.1,17.9,9,17.9L13.5,17.9L13.5,18.5L12.9,18.5L12.9,14Q12.9,13.54437,13.22218,13.22218Q13.54437,12.9,14,12.9L18.5,12.9L18.5,13.5L17.9,13.5ZM19.1,13.5Q19.1,13.559090000000001,19.0885,13.617049999999999Q19.076900000000002,13.67501,19.054299999999998,13.729610000000001Q19.0317,13.78421,18.9989,13.83334Q18.9661,13.882480000000001,18.924300000000002,13.92426Q18.8825,13.96605,18.8333,13.99888Q18.7842,14.03171,18.729599999999998,14.05433Q18.675,14.07694,18.6171,14.088470000000001Q18.5591,14.1,18.5,14.1L14,14.1Q14.1,14.1,14.1,14L14.1,18.5Q14.1,18.5591,14.088470000000001,18.6171Q14.07694,18.675,14.05433,18.729599999999998Q14.03171,18.7842,13.99888,18.8333Q13.96605,18.8825,13.92426,18.924300000000002Q13.882480000000001,18.9661,13.83334,18.9989Q13.78421,19.0317,13.729610000000001,19.054299999999998Q13.67501,19.076900000000002,13.617049999999999,19.0885Q13.559090000000001,19.1,13.5,19.1L9,19.1Q8.5443681,19.1,8.22219,18.7778Q7.9,18.45566,7.9,18L7.9,9Q7.9,8.5443656,8.222183,8.222183Q8.5443655,7.9,9,7.9L18,7.9Q18.45566,7.9,18.7778,8.22219Q19.1,8.5443681,19.1,9L19.1,13.5Z" fill="#FFFFFF" fill-opacity="1"/></g><g><path d="M17.25,22.9L19.75,22.9Q19.80909,22.9,19.86705,22.911529Q19.92501,22.923058,19.97961,22.945672Q20.03421,22.968287,20.08334,23.001118Q20.13248,23.03395,20.17426,23.075736Q20.21605,23.117522,20.24888,23.166657999999998Q20.28171,23.215793,20.30433,23.27039Q20.32694,23.324986,20.33847,23.382946Q20.35,23.4409052,20.35,23.5Q20.35,23.5590948,20.33847,23.617054Q20.32694,23.675014,20.30433,23.72961Q20.28171,23.784207,20.24888,23.833342000000002Q20.21605,23.882478,20.17426,23.924264Q20.13248,23.96605,20.08334,23.998882Q20.03421,24.031713,19.97961,24.054328Q19.92501,24.076942,19.86705,24.088471Q19.80909,24.1,19.75,24.1L17.25,24.1Q17.1909052,24.1,17.132946,24.088471Q17.074986,24.076942,17.02039,24.054328Q16.965793,24.031713,16.916657999999998,23.998882Q16.867522,23.96605,16.825736,23.924264Q16.78395,23.882478,16.751118,23.833342000000002Q16.718287,23.784207,16.695672,23.72961Q16.673058,23.675014,16.661529,23.617054Q16.65,23.5590948,16.65,23.5Q16.65,23.4409052,16.661529,23.382946Q16.673058,23.324986,16.695672,23.27039Q16.718287,23.215793,16.751118,23.166657999999998Q16.78395,23.117522,16.825736,23.075736Q16.867522,23.03395,16.916657999999998,23.001118Q16.965793,22.968287,17.02039,22.945672Q17.074986,22.923058,17.132946,22.911529Q17.1909052,22.9,17.25,22.9Z" fill-rule="evenodd" fill="#FFFFFF" fill-opacity="1"/></g><g><path d="M22.9,17.25Q22.9,17.1909052,22.911529,17.132946Q22.923058,17.074986,22.945672,17.02039Q22.968287,16.965793,23.001118,16.916657999999998Q23.03395,16.867522,23.075736,16.825736Q23.117522,16.78395,23.166657999999998,16.751118Q23.215793,16.718287,23.27039,16.695672Q23.324986,16.673058,23.382946,16.661529Q23.4409052,16.65,23.5,16.65Q23.5590948,16.65,23.617054,16.661529Q23.675014,16.673058,23.72961,16.695672Q23.784207,16.718287,23.833342000000002,16.751118Q23.882478,16.78395,23.924264,16.825736Q23.96605,16.867522,23.998882,16.916657999999998Q24.031713,16.965793,24.054328,17.02039Q24.076942,17.074986,24.088471,17.132946Q24.1,17.1909052,24.1,17.25L24.1,19.75Q24.1,19.80909,24.088471,19.86705Q24.076942,19.92501,24.054328,19.97961Q24.031713,20.03421,23.998882,20.08334Q23.96605,20.13248,23.924264,20.17426Q23.882478,20.21605,23.833342000000002,20.24888Q23.784207,20.28171,23.72961,20.30433Q23.675014,20.32694,23.617054,20.33847Q23.5590948,20.35,23.5,20.35Q23.4409052,20.35,23.382946,20.33847Q23.324986,20.32694,23.27039,20.30433Q23.215793,20.28171,23.166657999999998,20.24888Q23.117522,20.21605,23.075736,20.17426Q23.03395,20.13248,23.001118,20.08334Q22.968287,20.03421,22.945672,19.97961Q22.923058,19.92501,22.911529,19.86705Q22.9,19.80909,22.9,19.75L22.9,17.25Z" fill-rule="evenodd" fill="#FFFFFF" fill-opacity="1"/></g><g><path d="M22.9,22.25Q22.9,22.1909052,22.911529,22.132946Q22.923058,22.074986,22.945672,22.02039Q22.968287,21.965793,23.001117999999998,21.916657999999998Q23.033949,21.867522,23.075736,21.825736Q23.117522,21.78395,23.166657999999998,21.751118Q23.215793,21.718287,23.27039,21.695672Q23.32499,21.673058,23.38295,21.661529Q23.44091,21.65,23.5,21.65Q23.55909,21.65,23.61705,21.661529Q23.67501,21.673058,23.72961,21.695672Q23.78421,21.718287,23.83334,21.751118Q23.88248,21.78395,23.92426,21.825736Q23.96605,21.867522,23.99888,21.916657999999998Q24.03171,21.965793,24.05433,22.02039Q24.07694,22.074986,24.08847,22.132946Q24.1,22.1909052,24.1,22.25L24.1,23Q24.1,23.45565,23.77783,23.77783Q23.45565,24.1,23,24.1L22.25,24.1Q22.1909052,24.1,22.132946,24.08847Q22.074986,24.07694,22.02039,24.05433Q21.965793,24.03171,21.916657999999998,23.99888Q21.867522,23.96605,21.825736,23.92426Q21.78395,23.88248,21.751118,23.83334Q21.718287,23.78421,21.695672,23.72961Q21.673058,23.67501,21.661529,23.61705Q21.65,23.55909,21.65,23.5Q21.65,23.44091,21.661529,23.38295Q21.673058,23.32499,21.695672,23.27039Q21.718287,23.215793,21.751118,23.166657999999998Q21.78395,23.117522,21.825736,23.075736Q21.867522,23.033949,21.916657999999998,23.001117999999998Q21.965793,22.968287,22.02039,22.945672Q22.074986,22.923058,22.132946,22.911529Q22.1909052,22.9,22.25,22.9L22.9,22.9L22.9,22.25Z" fill-rule="evenodd" fill="#FFFFFF" fill-opacity="1"/></g><g><path d="M12.9,22.25Q12.9,22.1909052,12.911529,22.132946Q12.923058,22.074986,12.945672,22.02039Q12.968287,21.965793,13.001118,21.916657999999998Q13.03395,21.867522,13.075736,21.825736Q13.117522,21.78395,13.166658,21.751118Q13.215793,21.718287,13.27039,21.695672Q13.324985999999999,21.673058,13.382946,21.661529Q13.4409052,21.65,13.5,21.65Q13.5590948,21.65,13.617054,21.661529Q13.675014000000001,21.673058,13.72961,21.695672Q13.784207,21.718287,13.833342,21.751118Q13.882478,21.78395,13.924264,21.825736Q13.96605,21.867522,13.998882,21.916657999999998Q14.031713,21.965793,14.054328,22.02039Q14.076942,22.074986,14.088471,22.132946Q14.1,22.1909052,14.1,22.25L14.1,22.9L14.75,22.9Q14.80909,22.9,14.86705,22.911529Q14.92501,22.923058,14.979610000000001,22.945672Q15.03421,22.968287,15.08334,23.001117999999998Q15.13248,23.033949,15.17426,23.075736Q15.21605,23.117522,15.24888,23.166657999999998Q15.28171,23.215793,15.30433,23.27039Q15.32694,23.32499,15.338470000000001,23.38295Q15.35,23.44091,15.35,23.5Q15.35,23.55909,15.338470000000001,23.61705Q15.32694,23.67501,15.30433,23.72961Q15.28171,23.78421,15.24888,23.83334Q15.21605,23.88248,15.17426,23.92426Q15.13248,23.96605,15.08334,23.99888Q15.03421,24.03171,14.979610000000001,24.05433Q14.92501,24.07694,14.86705,24.08847Q14.80909,24.1,14.75,24.1L14,24.1Q13.5443675,24.1,13.22219,23.77783Q12.9,23.45565,12.9,23L12.9,22.25Z" fill-rule="evenodd" fill="#FFFFFF" fill-opacity="1"/></g><g><path d="M22.25,12.9L23,12.9Q23.45565,12.9,23.77783,13.22219Q24.1,13.5443675,24.1,14L24.1,14.75Q24.1,14.80909,24.08847,14.86705Q24.07694,14.92501,24.05433,14.979610000000001Q24.03171,15.03421,23.99888,15.08334Q23.96605,15.13248,23.92426,15.17426Q23.88248,15.21605,23.83334,15.24888Q23.78421,15.28171,23.72961,15.30433Q23.67501,15.32694,23.61705,15.338470000000001Q23.55909,15.35,23.5,15.35Q23.44091,15.35,23.38295,15.338470000000001Q23.32499,15.32694,23.27039,15.30433Q23.215793,15.28171,23.166657999999998,15.24888Q23.117522,15.21605,23.075736,15.17426Q23.033949,15.13248,23.001117999999998,15.08334Q22.968287,15.03421,22.945672,14.979610000000001Q22.923058,14.92501,22.911529,14.86705Q22.9,14.80909,22.9,14.75L22.9,14.1L22.25,14.1Q22.1909052,14.1,22.132946,14.088471Q22.074986,14.076942,22.02039,14.054328Q21.965793,14.031713,21.916657999999998,13.998882Q21.867522,13.96605,21.825736,13.924264Q21.78395,13.882478,21.751118,13.833342Q21.718287,13.784207,21.695672,13.72961Q21.673058,13.675014000000001,21.661529,13.617054Q21.65,13.5590948,21.65,13.5Q21.65,13.4409052,21.661529,13.382946Q21.673058,13.324985999999999,21.695672,13.27039Q21.718287,13.215793,21.751118,13.166658Q21.78395,13.117522,21.825736,13.075736Q21.867522,13.03395,21.916657999999998,13.001118Q21.965793,12.968287,22.02039,12.945672Q22.074986,12.923058,22.132946,12.911529Q22.1909052,12.9,22.25,12.9Z" fill-rule="evenodd" fill="#FFFFFF" fill-opacity="1"/></g><g><path d="M12.9,14L12.9,19.75Q12.9,19.80909,12.911529,19.86705Q12.923058,19.92501,12.945672,19.97961Q12.968287,20.03421,13.001118,20.08334Q13.03395,20.13248,13.075736,20.17426Q13.117522,20.21605,13.166658,20.24888Q13.215793,20.28171,13.27039,20.30433Q13.324985999999999,20.32694,13.382946,20.33847Q13.4409052,20.35,13.5,20.35Q13.5590948,20.35,13.617054,20.33847Q13.675014000000001,20.32694,13.72961,20.30433Q13.784207,20.28171,13.833342,20.24888Q13.882478,20.21605,13.924264,20.17426Q13.96605,20.13248,13.998882,20.08334Q14.031713,20.03421,14.054328,19.97961Q14.076942,19.92501,14.088471,19.86705Q14.1,19.80909,14.1,19.75L14.1,14.1L19.75,14.1Q19.80909,14.1,19.86705,14.088471Q19.92501,14.076942,19.97961,14.054328Q20.03421,14.031713,20.08334,13.998882Q20.13248,13.96605,20.17426,13.924264Q20.21605,13.882478,20.24888,13.833342Q20.28171,13.784207,20.30433,13.72961Q20.32694,13.675014000000001,20.33847,13.617054Q20.35,13.5590948,20.35,13.5Q20.35,13.4409052,20.33847,13.382946Q20.32694,13.324985999999999,20.30433,13.27039Q20.28171,13.215793,20.24888,13.166658Q20.21605,13.117522,20.17426,13.075736Q20.13248,13.03395,20.08334,13.001118Q20.03421,12.968287,19.97961,12.945672Q19.92501,12.923058,19.86705,12.911529Q19.80909,12.9,19.75,12.9L14,12.9Q13.5443658,12.9,13.222183,13.222183Q12.9,13.5443657,12.9,14Z" fill-rule="evenodd" fill="#FFFFFF" fill-opacity="1"/></g></g></g></svg>