<svg xmlns="http://www.w3.org/2000/svg" xmlns:xlink="http://www.w3.org/1999/xlink" fill="none" version="1.1" width="20" height="20" viewBox="0 0 20 20"><defs><clipPath id="master_svg0_39_781"><rect x="0" y="0" width="20" height="20" rx="0"/></clipPath></defs><g clip-path="url(#master_svg0_39_781)"><g><path d="M12.5,7.5L12.5,3C12.5,2.723858,12.27617,2.5,12,2.5L3,2.5C2.723858,2.5,2.5,2.723858,2.5,3L2.5,12C2.5,12.27617,2.723858,12.5,3,12.5L7.5,12.5L7.5,8C7.5,7.72386,7.72386,7.5,8,7.5L12.5,7.5Z" fill-rule="evenodd" fill="#CCCCCC" fill-opacity="1"/><path d="M11.9,7.5L11.9,3Q11.9,3.1,12,3.1L3,3.1Q3.1,3.1,3.1,3L3.1,12Q3.1,11.9,3,11.9L7.5,11.9L7.5,12.5L6.9,12.5L6.9,8Q6.9,7.54437,7.22218,7.22218Q7.54437,6.9,8,6.9L12.5,6.9L12.5,7.5L11.9,7.5ZM13.1,7.5Q13.1,7.55909,13.0885,7.61705Q13.0769,7.67501,13.0543,7.72961Q13.0317,7.78421,12.9989,7.83334Q12.9661,7.88248,12.9243,7.92426Q12.8825,7.96605,12.8333,7.99888Q12.7842,8.03171,12.7296,8.05433Q12.675,8.07694,12.6171,8.088470000000001Q12.5591,8.1,12.5,8.1L8,8.1Q8.1,8.1,8.1,8L8.1,12.5Q8.1,12.5591,8.088470000000001,12.6171Q8.07694,12.675,8.05433,12.7296Q8.03171,12.7842,7.99888,12.8333Q7.96605,12.8825,7.92426,12.9243Q7.88248,12.9661,7.83334,12.9989Q7.78421,13.0317,7.72961,13.0543Q7.67501,13.0769,7.61705,13.0885Q7.55909,13.1,7.5,13.1L3,13.1Q2.5443681,13.1,2.22219,12.7778Q1.9,12.45566,1.9,12L1.9,3Q1.9,2.5443656,2.2221830000000002,2.2221830000000002Q2.5443655,1.9,3,1.9L12,1.9Q12.45566,1.9,12.7778,2.22219Q13.1,2.5443681,13.1,3L13.1,7.5Z" fill="#FFFFFF" fill-opacity="1"/></g><g><path d="M11.25,16.9L13.75,16.9Q13.80909,16.9,13.867049999999999,16.911529Q13.92501,16.923058,13.979610000000001,16.945672Q14.03421,16.968287,14.08334,17.001118Q14.132480000000001,17.03395,14.17426,17.075736Q14.21605,17.117522,14.24888,17.166657999999998Q14.28171,17.215793,14.30433,17.27039Q14.32694,17.324986,14.338470000000001,17.382946Q14.35,17.4409052,14.35,17.5Q14.35,17.5590948,14.338470000000001,17.617054Q14.32694,17.675014,14.30433,17.72961Q14.28171,17.784207,14.24888,17.833342000000002Q14.21605,17.882478,14.17426,17.924264Q14.132480000000001,17.96605,14.08334,17.998882Q14.03421,18.031713,13.979610000000001,18.054328Q13.92501,18.076942,13.867049999999999,18.088471Q13.80909,18.1,13.75,18.1L11.25,18.1Q11.1909052,18.1,11.132946,18.088471Q11.074985999999999,18.076942,11.02039,18.054328Q10.965793,18.031713,10.916658,17.998882Q10.867522,17.96605,10.825736,17.924264Q10.78395,17.882478,10.751118,17.833342000000002Q10.718287,17.784207,10.695672,17.72961Q10.673058,17.675014,10.661529,17.617054Q10.65,17.5590948,10.65,17.5Q10.65,17.4409052,10.661529,17.382946Q10.673058,17.324986,10.695672,17.27039Q10.718287,17.215793,10.751118,17.166657999999998Q10.78395,17.117522,10.825736,17.075736Q10.867522,17.03395,10.916658,17.001118Q10.965793,16.968287,11.02039,16.945672Q11.074985999999999,16.923058,11.132946,16.911529Q11.1909052,16.9,11.25,16.9Z" fill-rule="evenodd" fill="#FFFFFF" fill-opacity="1"/></g><g><path d="M16.9,11.25Q16.9,11.1909052,16.911529,11.132946Q16.923058,11.074985999999999,16.945672,11.02039Q16.968287,10.965793,17.001118,10.916658Q17.03395,10.867522,17.075736,10.825736Q17.117522,10.78395,17.166657999999998,10.751118Q17.215793,10.718287,17.27039,10.695672Q17.324986,10.673058,17.382946,10.661529Q17.4409052,10.65,17.5,10.65Q17.5590948,10.65,17.617054,10.661529Q17.675014,10.673058,17.72961,10.695672Q17.784207,10.718287,17.833342000000002,10.751118Q17.882478,10.78395,17.924264,10.825736Q17.96605,10.867522,17.998882,10.916658Q18.031713,10.965793,18.054328,11.02039Q18.076942,11.074985999999999,18.088471,11.132946Q18.1,11.1909052,18.1,11.25L18.1,13.75Q18.1,13.80909,18.088471,13.867049999999999Q18.076942,13.92501,18.054328,13.979610000000001Q18.031713,14.03421,17.998882,14.08334Q17.96605,14.132480000000001,17.924264,14.17426Q17.882478,14.21605,17.833342000000002,14.24888Q17.784207,14.28171,17.72961,14.30433Q17.675014,14.32694,17.617054,14.338470000000001Q17.5590948,14.35,17.5,14.35Q17.4409052,14.35,17.382946,14.338470000000001Q17.324986,14.32694,17.27039,14.30433Q17.215793,14.28171,17.166657999999998,14.24888Q17.117522,14.21605,17.075736,14.17426Q17.03395,14.132480000000001,17.001118,14.08334Q16.968287,14.03421,16.945672,13.979610000000001Q16.923058,13.92501,16.911529,13.867049999999999Q16.9,13.80909,16.9,13.75L16.9,11.25Z" fill-rule="evenodd" fill="#FFFFFF" fill-opacity="1"/></g><g><path d="M16.9,16.25Q16.9,16.1909052,16.911529,16.132946Q16.923058,16.074986,16.945672,16.02039Q16.968287,15.965793,17.001117999999998,15.916658Q17.033949,15.867522,17.075736,15.825736Q17.117522,15.78395,17.166657999999998,15.751118Q17.215793,15.718287,17.27039,15.695672Q17.32499,15.673058,17.38295,15.661529Q17.44091,15.65,17.5,15.65Q17.55909,15.65,17.61705,15.661529Q17.67501,15.673058,17.72961,15.695672Q17.78421,15.718287,17.83334,15.751118Q17.88248,15.78395,17.92426,15.825736Q17.96605,15.867522,17.99888,15.916658Q18.03171,15.965793,18.05433,16.02039Q18.07694,16.074986,18.08847,16.132946Q18.1,16.1909052,18.1,16.25L18.1,17Q18.1,17.45565,17.77783,17.77783Q17.45565,18.1,17,18.1L16.25,18.1Q16.1909052,18.1,16.132946,18.08847Q16.074986,18.07694,16.02039,18.05433Q15.965793,18.03171,15.916658,17.99888Q15.867522,17.96605,15.825736,17.92426Q15.78395,17.88248,15.751118,17.83334Q15.718287,17.78421,15.695672,17.72961Q15.673058,17.67501,15.661529,17.61705Q15.65,17.55909,15.65,17.5Q15.65,17.44091,15.661529,17.38295Q15.673058,17.32499,15.695672,17.27039Q15.718287,17.215793,15.751118,17.166657999999998Q15.78395,17.117522,15.825736,17.075736Q15.867522,17.033949,15.916658,17.001117999999998Q15.965793,16.968287,16.02039,16.945672Q16.074986,16.923058,16.132946,16.911529Q16.1909052,16.9,16.25,16.9L16.9,16.9L16.9,16.25Z" fill-rule="evenodd" fill="#FFFFFF" fill-opacity="1"/></g><g><path d="M6.9,16.25Q6.9,16.1909052,6.911529,16.132946Q6.923058,16.074986,6.945672,16.02039Q6.968287,15.965793,7.001118,15.916658Q7.03395,15.867522,7.075736,15.825736Q7.117522,15.78395,7.166658,15.751118Q7.215793,15.718287,7.27039,15.695672Q7.324986,15.673058,7.382946,15.661529Q7.4409051999999996,15.65,7.5,15.65Q7.5590948000000004,15.65,7.617054,15.661529Q7.675014,15.673058,7.72961,15.695672Q7.784207,15.718287,7.833342,15.751118Q7.882478,15.78395,7.924264,15.825736Q7.96605,15.867522,7.998882,15.916658Q8.031713,15.965793,8.054328,16.02039Q8.076942,16.074986,8.088471,16.132946Q8.1,16.1909052,8.1,16.25L8.1,16.9L8.75,16.9Q8.80909,16.9,8.86705,16.911529Q8.92501,16.923058,8.979610000000001,16.945672Q9.03421,16.968287,9.08334,17.001117999999998Q9.13248,17.033949,9.17426,17.075736Q9.21605,17.117522,9.24888,17.166657999999998Q9.28171,17.215793,9.30433,17.27039Q9.32694,17.32499,9.338470000000001,17.38295Q9.35,17.44091,9.35,17.5Q9.35,17.55909,9.338470000000001,17.61705Q9.32694,17.67501,9.30433,17.72961Q9.28171,17.78421,9.24888,17.83334Q9.21605,17.88248,9.17426,17.92426Q9.13248,17.96605,9.08334,17.99888Q9.03421,18.03171,8.979610000000001,18.05433Q8.92501,18.07694,8.86705,18.08847Q8.80909,18.1,8.75,18.1L8,18.1Q7.5443675,18.1,7.22219,17.77783Q6.9,17.45565,6.9,17L6.9,16.25Z" fill-rule="evenodd" fill="#FFFFFF" fill-opacity="1"/></g><g><path d="M16.25,6.9L17,6.9Q17.45565,6.9,17.77783,7.22219Q18.1,7.5443675,18.1,8L18.1,8.75Q18.1,8.80909,18.08847,8.86705Q18.07694,8.92501,18.05433,8.979610000000001Q18.03171,9.03421,17.99888,9.08334Q17.96605,9.13248,17.92426,9.17426Q17.88248,9.21605,17.83334,9.24888Q17.78421,9.28171,17.72961,9.30433Q17.67501,9.32694,17.61705,9.338470000000001Q17.55909,9.35,17.5,9.35Q17.44091,9.35,17.38295,9.338470000000001Q17.32499,9.32694,17.27039,9.30433Q17.215793,9.28171,17.166657999999998,9.24888Q17.117522,9.21605,17.075736,9.17426Q17.033949,9.13248,17.001117999999998,9.08334Q16.968287,9.03421,16.945672,8.979610000000001Q16.923058,8.92501,16.911529,8.86705Q16.9,8.80909,16.9,8.75L16.9,8.1L16.25,8.1Q16.1909052,8.1,16.132946,8.088471Q16.074986,8.076942,16.02039,8.054328Q15.965793,8.031713,15.916658,7.998882Q15.867522,7.96605,15.825736,7.924264Q15.78395,7.882478,15.751118,7.833342Q15.718287,7.784207,15.695672,7.72961Q15.673058,7.675014,15.661529,7.617054Q15.65,7.5590948000000004,15.65,7.5Q15.65,7.4409051999999996,15.661529,7.382946Q15.673058,7.324986,15.695672,7.27039Q15.718287,7.215793,15.751118,7.166658Q15.78395,7.117522,15.825736,7.075736Q15.867522,7.03395,15.916658,7.001118Q15.965793,6.968287,16.02039,6.945672Q16.074986,6.923058,16.132946,6.911529Q16.1909052,6.9,16.25,6.9Z" fill-rule="evenodd" fill="#FFFFFF" fill-opacity="1"/></g><g><path d="M6.9,8L6.9,13.75Q6.9,13.809090000000001,6.911529,13.867049999999999Q6.923058,13.92501,6.945672,13.979610000000001Q6.968287,14.03421,7.001118,14.08334Q7.03395,14.132480000000001,7.075736,14.17426Q7.117522,14.21605,7.166658,14.24888Q7.215793,14.28171,7.27039,14.30433Q7.324986,14.32694,7.382946,14.338470000000001Q7.4409051999999996,14.35,7.5,14.35Q7.5590948000000004,14.35,7.617054,14.338470000000001Q7.675014,14.32694,7.72961,14.30433Q7.784207,14.28171,7.833342,14.24888Q7.882478,14.21605,7.924264,14.17426Q7.96605,14.132480000000001,7.998882,14.08334Q8.031713,14.03421,8.054328,13.979610000000001Q8.076942,13.92501,8.088471,13.867049999999999Q8.1,13.809090000000001,8.1,13.75L8.1,8.1L13.75,8.1Q13.809090000000001,8.1,13.867049999999999,8.088471Q13.92501,8.076942,13.979610000000001,8.054328Q14.03421,8.031713,14.08334,7.998882Q14.132480000000001,7.96605,14.17426,7.924264Q14.21605,7.882478,14.24888,7.833342Q14.28171,7.784207,14.30433,7.72961Q14.32694,7.675014,14.338470000000001,7.617054Q14.35,7.5590948000000004,14.35,7.5Q14.35,7.4409051999999996,14.338470000000001,7.382946Q14.32694,7.324986,14.30433,7.27039Q14.28171,7.215793,14.24888,7.166658Q14.21605,7.117522,14.17426,7.075736Q14.132480000000001,7.03395,14.08334,7.001118Q14.03421,6.968287,13.979610000000001,6.945672Q13.92501,6.923058,13.867049999999999,6.911529Q13.809090000000001,6.9,13.75,6.9L8,6.9Q7.5443658,6.9,7.222183,7.222183Q6.9,7.5443657,6.9,8Z" fill-rule="evenodd" fill="#FFFFFF" fill-opacity="1"/></g></g></svg>