<svg xmlns="http://www.w3.org/2000/svg" xmlns:xlink="http://www.w3.org/1999/xlink" fill="none" version="1.1" width="16" height="16" viewBox="0 0 16 16"><defs><clipPath id="master_svg0_1058_8807"><rect x="0" y="0" width="16" height="16" rx="0"/></clipPath></defs><g clip-path="url(#master_svg0_1058_8807)"><g><path d="M6.0889619765625,12.17115L6.0888479765625,12.17156Q6.0666259765625,12.25092,6.0666259765625,12.33333L6.0667499765625,12.34552Q6.0698109765625,12.49617,6.1436809765625,12.62749Q6.2021919765625,12.73151,6.2960569765625,12.80522Q6.3899209765625,12.87893,6.5048479765625,12.91111Q6.5842108765625,12.93333,6.6666259765625,12.93333L6.6700732865625,12.93332Q6.7678259765625,12.93276,6.8603459765625,12.9012Q6.9528649765625,12.86964,7.0305809765625,12.81034Q7.1082969765625,12.75105,7.1631719765625,12.67015Q7.2180469765625,12.58925,7.2444039765625,12.49511L7.2445309765625,12.49466L9.5777359765625,4.161778Q9.5999559765625,4.0824157,9.5999559765625,4.00000107374L9.5999459765625,3.99655269Q9.5993859765625,3.8988,9.5678259765625,3.80628Q9.5362659765625,3.713761,9.4769659765625,3.636045Q9.4176659765625,3.558329,9.3367759765625,3.503454Q9.2558759765625,3.448579,9.1617359765625,3.422222Q9.0823759765625,3.4,8.9999559765625,3.4L8.9877659765625,3.400124Q8.8371259765625,3.403185,8.7058059765625,3.477055Q8.6017859765625,3.535566,8.5280759765625,3.62943Q8.4543559765625,3.7232950000000002,8.4221859765625,3.838222L8.4220959765625,3.838542L6.0889619765625,12.17115Z" fill-rule="evenodd" fill="#FFFFFF" fill-opacity="1"/></g><g><path d="M3.90891,10.757446984558104L3.90907,10.757596984558106Q3.99346,10.841986984558105,4.10372,10.887656984558106Q4.21399,10.933336984558107,4.33333,10.933336984558107Q4.45268,10.933336984558107,4.56294,10.887656984558106Q4.67321,10.841986984558105,4.7576,10.757596984558106Q4.84199,10.673206984558107,4.88766,10.562946984558106Q4.93333,10.452676984558106,4.93333,10.333336984558105Q4.93333,10.213986984558105,4.88766,10.103726984558104Q4.84199,9.993456984558104,4.7576,9.909066984558105L4.7574000000000005,9.908876984558106L2.848528,7.999996984558106L4.75744,6.091085984558106L4.7576,6.090930984558105Q4.84199,6.006539984558105,4.88766,5.896276984558106Q4.93333,5.786013984558106,4.93333,5.6666669845581055Q4.93333,5.547319984558105,4.88766,5.437056984558105Q4.84199,5.326793984558106,4.7576,5.2424029845581055Q4.67321,5.158011984558105,4.56294,5.1123389845581055Q4.45268,5.066666984558106,4.33333,5.066666984558106Q4.21399,5.066666984558106,4.10372,5.1123389845581055Q3.99346,5.158011984558105,3.90907,5.2424029845581055L3.90897,5.242498984558106L1.575736,7.575736984558105Q1.491345,7.660126984558105,1.445672,7.7703869845581055Q1.4,7.880656984558105,1.4,7.999996984558106Q1.4,8.119346984558106,1.445672,8.229606984558107Q1.491345,8.339876984558106,1.575736,8.424266984558106L3.90891,10.757446984558104Z" fill-rule="evenodd" fill="#FFFFFF" fill-opacity="1"/></g><g><path d="M11.2425169765625,9.908916984558106L11.2423619765625,9.909066984558105Q11.1579709765625,9.993456984558104,11.1122979765625,10.103726984558104Q11.0666259765625,10.213986984558105,11.0666259765625,10.333336984558105Q11.0666259765625,10.347756984558107,11.0673189765625,10.362156984558105Q11.0726919765625,10.473896984558106,11.1179749765625,10.576196984558106Q11.1632569765625,10.678496984558105,11.2423619765625,10.757596984558106Q11.3267529765625,10.841986984558105,11.4370159765625,10.887656984558106Q11.5472789765625,10.933336984558107,11.6666259765625,10.933336984558107Q11.7859729765625,10.933336984558107,11.8962359765625,10.887656984558106Q12.0064989765625,10.841986984558105,12.0908899765625,10.757596984558106L12.0910449765625,10.757446984558104L14.4242259765625,8.424266984558106Q14.5086159765625,8.339876984558106,14.5542859765625,8.229606984558107Q14.5999559765625,8.119346984558106,14.5999559765625,7.999996984558106Q14.5999559765625,7.880656984558105,14.5542859765625,7.7703869845581055Q14.5086159765625,7.660126984558105,14.4242259765625,7.575736984558105L12.0909859765625,5.242498984558106L12.0908899765625,5.2424029845581055Q12.0064989765625,5.158011984558105,11.8962359765625,5.1123389845581055Q11.7859729765625,5.066666984558106,11.6666259765625,5.066666984558106Q11.5472789765625,5.066666984558106,11.4370159765625,5.1123389845581055Q11.3267529765625,5.158011984558105,11.2423619765625,5.2424029845581055Q11.1579709765625,5.326793984558106,11.1122979765625,5.437056984558105Q11.0666259765625,5.547319984558105,11.0666259765625,5.6666669845581055Q11.0666259765625,5.786013984558106,11.1122979765625,5.896276984558106Q11.1579709765625,6.006539984558105,11.2423619765625,6.090930984558105L13.1514359765625,7.999996984558106L11.2425169765625,9.908916984558106Z" fill-rule="evenodd" fill="#FFFFFF" fill-opacity="1"/></g></g></svg>