<svg width="21" height="22" viewBox="0 0 21 22" fill="none" xmlns="http://www.w3.org/2000/svg">
<path d="M7.35355 11.3536C7.54882 11.1583 7.54882 10.8417 7.35355 10.6464L4.17157 7.46447C3.97631 7.2692 3.65973 7.2692 3.46447 7.46447C3.2692 7.65973 3.2692 7.97631 3.46447 8.17157L6.29289 11L3.46447 13.8284C3.2692 14.0237 3.2692 14.3403 3.46447 14.5355C3.65973 14.7308 3.97631 14.7308 4.17157 14.5355L7.35355 11.3536ZM0 11.5H7V10.5H0V11.5Z" fill="#6243ED"/>
<path d="M8.5 1L0.5 1L0.5 21H8.5" stroke="black"/>
<path d="M12.1464 11.3536C11.9512 11.1583 11.9512 10.8417 12.1464 10.6464L15.3284 7.46447C15.5237 7.2692 15.8403 7.2692 16.0355 7.46447C16.2308 7.65973 16.2308 7.97631 16.0355 8.17157L13.2071 11L16.0355 13.8284C16.2308 14.0237 16.2308 14.3403 16.0355 14.5355C15.8403 14.7308 15.5237 14.7308 15.3284 14.5355L12.1464 11.3536ZM19.5 11.5H12.5V10.5H19.5V11.5Z" fill="#6243ED"/>
<path d="M12 1L20 1V21H12" stroke="black"/>
</svg>
