<svg xmlns="http://www.w3.org/2000/svg" xmlns:xlink="http://www.w3.org/1999/xlink" fill="none" version="1.1" width="110.00000762939453" height="110" viewBox="0 0 110.00000762939453 110"><defs><clipPath id="master_svg0_55_617"><rect x="0" y="0" width="110.00000762939453" height="110" rx="0"/></clipPath><clipPath id="master_svg1_55_679"><rect x="71" y="79" width="14" height="14" rx="0"/></clipPath></defs><g clip-path="url(#master_svg0_55_617)"><g><path d="M76.91655195312501,71.31660234374999L76.91655195312501,88.12210234375Q76.91655195312501,88.22060234375,76.93575195312499,88.31720234375Q76.95505195312501,88.41380234375,76.99275195312501,88.50480234375Q77.030351953125,88.59580234375,77.085151953125,88.67770234375Q77.139851953125,88.75960234375,77.209451953125,88.82920234375Q77.279151953125,88.89890234375,77.361051953125,88.95360234374999Q77.442951953125,89.00830234375,77.53385195312501,89.04600234374999Q77.624851953125,89.08370234374999,77.721451953125,89.10290234375Q77.818051953125,89.12210234375,77.91655195312501,89.12210234375Q78.01505195312501,89.12210234375,78.111651953125,89.10290234375Q78.208251953125,89.08370234374999,78.29925195312501,89.04600234374999Q78.390251953125,89.00830234375,78.472151953125,88.95360234374999Q78.554051953125,88.89890234375,78.623651953125,88.82920234375Q78.693351953125,88.75960234375,78.748051953125,88.67770234375Q78.802751953125,88.59580234375,78.840451953125,88.50480234375Q78.878151953125,88.41380234375,78.897351953125,88.31720234375Q78.91655195312501,88.22060234375,78.91655195312501,88.12210234375L78.91655195312501,71.31660234374999Q78.91655195312501,61.41000234375,71.911551953125,54.40497234375Q64.906451953125,47.39990234375,54.999951953125,47.39990234375Q45.093351953125,47.39990234375,38.088291953125,54.40497234375Q31.083251953125,61.41000234375,31.083251953125,71.31660234374999L31.083251953125,88.12210234375Q31.083251953125,88.22060234375,31.102466953125,88.31720234375Q31.121681953124998,88.41380234375,31.159372953125,88.50480234375Q31.197063953125,88.59580234375,31.251781953125,88.67770234375Q31.306500953125,88.75960234375,31.376144953125,88.82920234375Q31.445788953125,88.89890234375,31.527681953125,88.95360234374999Q31.609573953125,89.00830234375,31.700568953125,89.04600234374999Q31.791562953125,89.08370234374999,31.888161953125,89.10290234375Q31.984760553125,89.12210234375,32.083251953125,89.12210234375Q32.181743353125,89.12210234375,32.278341953125,89.10290234375Q32.374940953125,89.08370234374999,32.465934953125,89.04600234374999Q32.556929953125,89.00830234375,32.638821953125,88.95360234374999Q32.720714953125,88.89890234375,32.790358953125,88.82920234375Q32.860002953125,88.75960234375,32.914721953125,88.67770234375Q32.969439953125,88.59580234375,33.007130953125,88.50480234375Q33.044821953125,88.41380234375,33.064036953125,88.31720234375Q33.083251953125,88.22060234375,33.083251953125,88.12210234375L33.083251953125,71.31660234374999Q33.083251953125,62.23850234375,39.502501953125,55.81918234375Q45.921751953124996,49.39990234375,54.999951953125,49.39990234375Q64.078051953125,49.39990234375,70.49735195312499,55.81918234375Q76.91655195312501,62.23850234375,76.91655195312501,71.31660234374999Z" fill-rule="evenodd" fill="#434343" fill-opacity="1"/></g><g><path d="M33.156262890625,62.815244296875Q33.157562890625,62.816984296875,33.158862890625,62.818724296875Q33.228462890624996,62.914354296875,33.318362890625,62.991114296875Q33.408362890625,63.067864296875,33.513762890625,63.121514296875Q33.619162890625,63.175164296874996,33.734162890625,63.202754296875Q33.849162890624996,63.230344296875,33.967462890625,63.230344296875Q34.065962890625,63.230344296875,34.162562890625,63.211124296875Q34.259062890625,63.191914296875,34.350062890625,63.154224296875Q34.441062890625,63.116534296875,34.522962890624996,63.061814296875Q34.604862890625,63.007094296874996,34.674562890625,62.937454296875Q34.744162890625,62.867804296875,34.798862890625,62.785914296875Q34.853562890625,62.704024296875,34.891262890625,62.613024296875Q34.928962890625,62.522034296875,34.948162890625,62.425434296875Q34.967462890625,62.328834296875,34.967462890625,62.230344296875Q34.967462890625,62.071764296875,34.918362890625,61.920974296875Q34.869262890625,61.770174296875,34.775962890625,61.641954296875Q29.271162890625,54.076904296875,19.927062890625,54.076905296875Q12.325202890625,54.076904296875,6.949822890625,59.452294296875Q1.574462890625,64.827674296875,1.574462890625,72.429504296875L1.574462890625,88.122304296875Q1.574462890625,88.220704296875,1.593677890625,88.317304296875Q1.612892890625,88.413904296875,1.650583890625,88.504904296875Q1.688274890625,88.595904296875,1.742992890625,88.677804296875Q1.797711890625,88.759704296875,1.8673558906249998,88.829404296875Q1.936999890625,88.899004296875,2.018892890625,88.953704296875Q2.100784890625,89.008404296875,2.191779890625,89.046104296875Q2.282773890625,89.083804296875,2.379372890625,89.103004296875Q2.475971490625,89.122304296875,2.574462890625,89.122304296875Q2.672954290625,89.122304296875,2.769552890625,89.103004296875Q2.866151890625,89.083804296875,2.957145890625,89.046104296875Q3.048140890625,89.008404296875,3.130032890625,88.953704296875Q3.211925890625,88.899004296875,3.281569890625,88.829404296875Q3.351213890625,88.759704296875,3.405932890625,88.677804296875Q3.4606508906249998,88.595904296875,3.498341890625,88.504904296875Q3.536032890625,88.41400429687499,3.555247890625,88.317304296875Q3.574462890625,88.220704296875,3.574462890625,88.122304296875L3.574462890625,72.429504296875Q3.574462890625,65.656104296875,8.364042890625,60.866504296875Q13.153662890625,56.076904296875,19.927062890625,56.076904296875Q28.250862890625,56.076904296875,33.156262890625,62.815244296875Z" fill-rule="evenodd" fill="#434343" fill-opacity="1"/></g><g><path d="M106.5555828125,72.429504296875L106.5553828125,88.122204296875Q106.5553828125,88.220704296875,106.5745828125,88.317304296875Q106.5937828125,88.413904296875,106.6314828125,88.504904296875Q106.6691828125,88.595904296875,106.7238828125,88.677804296875Q106.7785828125,88.759704296875,106.8481828125,88.829404296875Q106.9178828125,88.899004296875,106.9997828125,88.953704296875Q107.08168281249999,89.008404296875,107.1726828125,89.046104296875Q107.26368281250001,89.083804296875,107.3602828125,89.103004296875Q107.4568828125,89.122304296875,107.5553828125,89.122304296875Q107.6537828125,89.122304296875,107.75038281249999,89.103004296875Q107.8469828125,89.083804296875,107.9379828125,89.046104296875Q108.0289828125,89.008404296875,108.1108828125,88.953704296875Q108.1927828125,88.899004296875,108.2624828125,88.829404296875Q108.3320828125,88.759704296875,108.3867828125,88.677804296875Q108.4414828125,88.595904296875,108.4791828125,88.504904296875Q108.5168828125,88.41400429687499,108.5360828125,88.317304296875Q108.5552828125,88.220704296875,108.5553828125,88.122304296875L108.5555828125,72.429504296875Q108.5555828125,64.827674296875,103.1801828125,59.452294296875Q97.80478281250001,54.076904296875,90.20288281250001,54.076905296875Q80.8924528125,54.076904296875,75.3855118125,61.598754296875Q75.2913988125,61.727304296875,75.2418908125,61.878734296875Q75.1923828125,62.030164296875,75.1923828125,62.189484296875Q75.1923828125,62.287974296875,75.2115978125,62.384574296875Q75.2308128125,62.481174296875,75.2685038125,62.572174296875Q75.3061948125,62.663164296875,75.3609128125,62.745054296875Q75.4156318125,62.826944296875,75.4852758125,62.896594296875Q75.5549198125,62.966234296875,75.6368128125,63.020954296875Q75.7187048125,63.075674296875,75.8096998125,63.113364296875Q75.9006938125,63.151054296875,75.9972928125,63.170274296875Q76.0938914125,63.189484296875,76.1923828125,63.189484296875Q76.3102788125,63.189484296875,76.4249418125,63.162074296875Q76.5396058125,63.134654296875,76.6447488125,63.081324296874996Q76.7498928125,63.027984296875,76.8397498125,62.951664296875Q76.9296078125,62.875344296875,76.9992528125,62.780214296875L77.0001868125,62.778934296875Q81.9077128125,56.076904296875,90.20288281250001,56.076904296875Q96.97638281249999,56.076904296875,101.7659828125,60.866504296875Q106.5555828125,65.656104296875,106.5555828125,72.429504296875Z" fill-rule="evenodd" fill="#434343" fill-opacity="1"/></g><g><path d="M44.57009,24.22009234375Q40.25,28.54023234375,40.25,34.64990234375Q40.25,40.75970234375,44.5701,45.07980234375Q48.89019,49.39990234375,55,49.39990234375Q61.1098,49.39990234375,65.4299,45.07980234375Q69.75,40.75970234375,69.75,34.64990234375Q69.75,28.54023234375,65.4299,24.22009234375Q61.1098,19.89990234375,55,19.89990234375Q48.89023,19.89990234375,44.57009,24.22009234375ZM45.98431,43.665602343749995Q42.25,39.931302343750005,42.25,34.64990234375Q42.25,29.36865234375,45.98431,25.63429234375Q49.71867,21.89990234375,55,21.89990234375Q60.2813,21.89990234375,64.0157,25.63429234375Q67.75,29.36866234375,67.75,34.64990234375Q67.75,39.931302343750005,64.0157,43.665602343749995Q60.281400000000005,47.39990234375,55,47.39990234375Q49.71862,47.39990234375,45.98431,43.665602343749995Z" fill-rule="evenodd" fill="#434343" fill-opacity="1"/></g><g><path d="M12.31828390625,37.706651640625Q9.16650390625,40.858401640625,9.16650390625,45.315781640625Q9.16650390625,49.773131640624996,12.31828390625,52.924931640625005Q15.47003390625,56.076631640624996,19.927353906249998,56.076631640624996Q24.38470390625,56.076631640624996,27.53640390625,52.924931640625005Q30.68820390625,49.773131640624996,30.68820390625,45.315781640625Q30.68820390625,40.858401640625,27.53640390625,37.706651640625Q24.38470390625,34.554931640625,19.92734390625,34.554931640625Q15.47003390625,34.554931640625,12.31828390625,37.706651640625ZM13.73249390625,51.510731640624996Q11.16650390625,48.944731640625,11.16650390625,45.315781640625Q11.16650290625,41.686831640625,13.73249390625,39.120871640625Q16.29846390625,36.554931640625,19.92734390625,36.554931640625Q23.556203906249998,36.554931640625,26.12220390625,39.120871640625Q28.68820390625,41.686831640625,28.68820390625,45.315781640625Q28.68820390625,48.944731640625,26.12220390625,51.510731640624996Q23.556203906249998,54.076631640624996,19.927353906249998,54.076631640624996Q16.29845390625,54.076631640624996,13.73249390625,51.510731640624996Z" fill-rule="evenodd" fill="#434343" fill-opacity="1"/></g><g><path d="M82.5941628125,37.706651640625Q79.4423828125,40.858401640625,79.4423828125,45.315781640625Q79.4423828125,49.773131640624996,82.5941628125,52.924931640625005Q85.7459128125,56.076631640624996,90.2032328125,56.076631640624996Q94.6605828125,56.076631640624996,97.8122828125,52.924931640625005Q100.9640828125,49.773131640624996,100.9640828125,45.315781640625Q100.9640828125,40.858401640625,97.8122828125,37.706651640625Q94.6605828125,34.554931640625,90.2032228125,34.554931640625Q85.7459128125,34.554931640625,82.5941628125,37.706651640625ZM84.0083728125,51.510731640624996Q81.4423828125,48.944731640625,81.4423828125,45.315781640625Q81.4423818125,41.686831640625,84.0083728125,39.120871640625Q86.5743428125,36.554931640625,90.2032228125,36.554931640625Q93.8320828125,36.554931640625,96.39808281250001,39.120871640625Q98.9640828125,41.686831640625,98.9640828125,45.315781640625Q98.9640828125,48.944731640625,96.39808281250001,51.510731640624996Q93.8320828125,54.076631640624996,90.2032328125,54.076631640624996Q86.5743328125,54.076631640624996,84.0083728125,51.510731640624996Z" fill-rule="evenodd" fill="#434343" fill-opacity="1"/></g><g><g><ellipse cx="78" cy="86" rx="12" ry="12" fill="#1878F5" fill-opacity="1"/><ellipse cx="78" cy="86" rx="13" ry="13" fill-opacity="0" stroke-opacity="1" stroke="#FFFFFF" fill="none" stroke-width="2"/></g><g clip-path="url(#master_svg1_55_679)"><g><path d="M78.59999997615814,81.24999997615814L78.59999997615814,85.39999997615814L82.74999997615814,85.39999997615814C83.08139997615814,85.39999997615814,83.34999997615814,85.66862997615814,83.34999997615814,85.99999997615814C83.34999997615814,86.33136997615814,83.08139997615814,86.59999997615814,82.74999997615814,86.59999997615814L78.59999997615814,86.59999997615814L78.59999997615814,90.74999997615814C78.59999997615814,91.08139997615814,78.33136997615814,91.34999997615814,77.99999997615814,91.34999997615814C77.66862997615814,91.34999997615814,77.39999997615814,91.08139997615814,77.39999997615814,90.74999997615814L77.39999997615814,86.59999997615814L73.24999997615814,86.59999997615814C72.91862897615815,86.59999997615814,72.64999997615814,86.33136997615814,72.64999997615814,85.99999997615814C72.64999997615814,85.66862997615814,72.91862897615815,85.39999997615814,73.24999997615814,85.39999997615814L77.39999997615814,85.39999997615814L77.39999997615814,81.24999997615814C77.39999997615814,80.91862897615815,77.66862997615814,80.64999997615814,77.99999997615814,80.64999997615814C78.33136997615814,80.64999997615814,78.59999997615814,80.91862897615815,78.59999997615814,81.24999997615814Z" fill-rule="evenodd" fill="#FFFFFF" fill-opacity="1"/></g></g></g></g></svg>