<svg data-v-5059ea24="" width="14" height="14" viewBox="0 0 14 14" fill="none" xmlns="http://www.w3.org/2000/svg" tabindex="-1" opacity="0.7" class="mas-filter-item-icon transition" style="font-size: 14px; transform: rotate(0deg);"><path fill-rule="evenodd" clip-rule="evenodd" d="M3.17127 3C2.92493 3 2.70362 3.15057 2.61318 3.3797L0.107931 9.72646C0.0561236 9.85771 0.152859 9.9999 0.293963 9.9999H0.655973C0.898462 9.9999 1.11711 9.85393 1.2101 9.62998L1.67768 8.50391H5.34093L5.77 9.61589C5.85928 9.84729 6.08175 9.9999 6.32977 9.9999H6.70604C6.84714 9.9999 6.94388 9.85771 6.89207 9.72646L4.38682 3.3797C4.29638 3.15057 4.07507 3 3.82873 3H3.17127ZM4.93912 7.50391L3.5 3.83652L2.0625 7.50391H4.93912Z" fill="currentcolor"></path><path fill-rule="evenodd" clip-rule="evenodd" d="M10.1713 3C9.92493 3 9.70362 3.15057 9.61318 3.3797L7.10793 9.72646C7.05612 9.85771 7.15286 9.9999 7.29396 9.9999H7.65597C7.89846 9.9999 8.11711 9.85393 8.2101 9.62998L8.67768 8.50391H12.3409L12.77 9.61589C12.8593 9.84729 13.0817 9.9999 13.3298 9.9999H13.706C13.8471 9.9999 13.9439 9.85771 13.8921 9.72646L11.3868 3.3797C11.2964 3.15057 11.0751 3 10.8287 3H10.1713ZM11.9391 7.50391L10.5 3.83652L9.0625 7.50391H11.9391Z" fill="currentcolor"></path></svg>