<svg xmlns="http://www.w3.org/2000/svg" xmlns:xlink="http://www.w3.org/1999/xlink"
    version="1.1" width="16" height="16" viewBox="0 0 16 16">
    <defs>
        <clipPath id="master_svg0_57_907">
            <rect x="0" y="0" width="16" height="16" rx="0" />
        </clipPath>
    </defs>
    <g clip-path="url(#master_svg0_57_907)">
        <g>
            <path
                d="M2,3.35L14,3.35Q14.064,3.35,14.1268,3.36249Q14.1896,3.3749789999999997,14.2487,3.399478Q14.3079,3.423978,14.3611,3.459545Q14.4143,3.4951119999999998,14.4596,3.540381Q14.5049,3.585649,14.5405,3.638879Q14.576,3.69211,14.6005,3.751256Q14.625,3.810402,14.6375,3.873191Q14.65,3.9359806,14.65,4Q14.65,4.0640194,14.6375,4.126809Q14.625,4.189598,14.6005,4.248744Q14.576,4.30789,14.5405,4.361121Q14.5049,4.414351,14.4596,4.459619Q14.4143,4.504888,14.3611,4.540455Q14.3079,4.576022,14.2487,4.600522Q14.1896,4.625021,14.1268,4.63751Q14.064,4.65,14,4.65L2,4.65Q1.9359806,4.65,1.873191,4.63751Q1.810402,4.625021,1.751256,4.600522Q1.69211,4.576022,1.638879,4.540455Q1.585649,4.504888,1.540381,4.459619Q1.495112,4.414351,1.4595449999999999,4.361121Q1.423978,4.30789,1.399478,4.248744Q1.374979,4.189598,1.36249,4.126809Q1.35,4.0640194,1.35,4Q1.35,3.9359806,1.36249,3.873191Q1.374979,3.810402,1.399478,3.751256Q1.423978,3.69211,1.4595449999999999,3.638879Q1.495112,3.585649,1.540381,3.540381Q1.585649,3.4951119999999998,1.638879,3.459545Q1.69211,3.423978,1.751256,3.399478Q1.810402,3.3749789999999997,1.873191,3.36249Q1.9359806,3.35,2,3.35Z"
                fill-rule="evenodd" fill="inherit" fill-opacity="1" />
        </g>
        <g>
            <path
                d="M2,8.683251953125L14,8.683251953125Q14.064,8.683251953125,14.1268,8.695741953125Q14.1896,8.708230953125,14.2487,8.732729953125Q14.3079,8.757229953125,14.3611,8.792796953125Q14.4143,8.828363953125,14.4596,8.873632953125Q14.5049,8.918900953125,14.5405,8.972130953125Q14.576,9.025361953125,14.6005,9.084507953125Q14.625,9.143653953125,14.6375,9.206442953125Q14.65,9.269232553125,14.65,9.333251953125Q14.65,9.397271353125,14.6375,9.460060953125Q14.625,9.522849953125,14.6005,9.581995953125Q14.576,9.641141953125,14.5405,9.694372953125Q14.5049,9.747602953125,14.4596,9.792870953125Q14.4143,9.838139953125,14.3611,9.873706953125Q14.3079,9.909273953125,14.2487,9.933773953125Q14.1896,9.958272953125,14.1268,9.970761953125Q14.064,9.983251953125,14,9.983251953125L2,9.983251953125Q1.9359806,9.983251953125,1.873191,9.970761953125Q1.810402,9.958272953125,1.751256,9.933773953125Q1.69211,9.909273953125,1.638879,9.873706953125Q1.585649,9.838139953125,1.540381,9.792870953125Q1.495112,9.747602953125,1.4595449999999999,9.694372953125Q1.423978,9.641141953125,1.399478,9.581995953125Q1.374979,9.522849953125,1.36249,9.460060953125Q1.35,9.397271353125,1.35,9.333251953125Q1.35,9.269232553125,1.36249,9.206442953125Q1.374979,9.143653953125,1.399478,9.084507953125Q1.423978,9.025361953125,1.4595449999999999,8.972130953125Q1.495112,8.918900953125,1.540381,8.873632953125Q1.585649,8.828363953125,1.638879,8.792796953125Q1.69211,8.757229953125,1.751256,8.732729953125Q1.810402,8.708230953125,1.873191,8.695741953125Q1.9359806,8.683251953125,2,8.683251953125Z"
                fill-rule="evenodd" fill="inherit" fill-opacity="1" />
        </g>
        <g>
            <path
                d="M4,6.016748046875L12,6.016748046875Q12.06402,6.016748046875,12.12681,6.029238046875Q12.1896,6.041727046875,12.24874,6.066226046875Q12.30789,6.090726046875,12.36112,6.126293046875Q12.41435,6.161860046875,12.45962,6.207129046875Q12.50489,6.252397046875,12.54045,6.305627046875Q12.57602,6.358858046875,12.60052,6.418004046875Q12.62502,6.477150046875,12.63751,6.539939046875Q12.65,6.602728646875,12.65,6.666748046875Q12.65,6.730767446875,12.63751,6.793557046875Q12.62502,6.856346046875,12.60052,6.915492046875Q12.57602,6.974638046875,12.54045,7.027869046875Q12.50489,7.081099046875,12.45962,7.126367046875Q12.41435,7.171636046875,12.36112,7.207203046875Q12.30789,7.242770046875,12.24874,7.267270046875Q12.1896,7.291769046875,12.12681,7.304258046875Q12.06402,7.316748046875,12,7.316748046875L4,7.316748046875Q3.9359806,7.316748046875,3.873191,7.304258046875Q3.810402,7.291769046875,3.751256,7.267270046875Q3.69211,7.242770046875,3.638879,7.207203046875Q3.585649,7.171636046875,3.540381,7.126367046875Q3.4951119999999998,7.081099046875,3.459545,7.027869046875Q3.423978,6.974638046875,3.399478,6.915492046875Q3.3749789999999997,6.856346046875,3.36249,6.793557046875Q3.35,6.730767446875,3.35,6.666748046875Q3.35,6.602728646875,3.36249,6.539939046875Q3.3749789999999997,6.477150046875,3.399478,6.418004046875Q3.423978,6.358858046875,3.459545,6.305627046875Q3.4951119999999998,6.252397046875,3.540381,6.207129046875Q3.585649,6.161860046875,3.638879,6.126293046875Q3.69211,6.090726046875,3.751256,6.066226046875Q3.810402,6.041727046875,3.873191,6.029238046875Q3.9359806,6.016748046875,4,6.016748046875Z"
                fill-rule="evenodd" fill="inherit" fill-opacity="1" />
        </g>
        <g>
            <path
                d="M4,11.35L12,11.35Q12.06402,11.35,12.12681,11.36249Q12.1896,11.374979,12.24874,11.399478Q12.30789,11.423978,12.36112,11.459545Q12.41435,11.495112,12.45962,11.540381Q12.50489,11.585649,12.54045,11.638879Q12.57602,11.69211,12.60052,11.751256Q12.62502,11.810402,12.63751,11.873191Q12.65,11.9359806,12.65,12Q12.65,12.0640194,12.63751,12.126809Q12.62502,12.189598,12.60052,12.248744Q12.57602,12.30789,12.54045,12.361121Q12.50489,12.414351,12.45962,12.459619Q12.41435,12.504888,12.36112,12.540455Q12.30789,12.576022,12.24874,12.600522Q12.1896,12.625021,12.12681,12.63751Q12.06402,12.65,12,12.65L4,12.65Q3.9359806,12.65,3.873191,12.63751Q3.810402,12.625021,3.751256,12.600522Q3.69211,12.576022,3.638879,12.540455Q3.585649,12.504888,3.540381,12.459619Q3.4951119999999998,12.414351,3.459545,12.361121Q3.423978,12.30789,3.399478,12.248744Q3.3749789999999997,12.189598,3.36249,12.126809Q3.35,12.0640194,3.35,12Q3.35,11.9359806,3.36249,11.873191Q3.3749789999999997,11.810402,3.399478,11.751256Q3.423978,11.69211,3.459545,11.638879Q3.4951119999999998,11.585649,3.540381,11.540381Q3.585649,11.495112,3.638879,11.459545Q3.69211,11.423978,3.751256,11.399478Q3.810402,11.374979,3.873191,11.36249Q3.9359806,11.35,4,11.35Z"
                fill-rule="evenodd" fill="inherit" fill-opacity="1" />
        </g>
    </g>
</svg>