<svg xmlns="http://www.w3.org/2000/svg" xmlns:xlink="http://www.w3.org/1999/xlink" fill="none" version="1.1" width="16" height="16" viewBox="0 0 16 16"><defs><clipPath id="master_svg0_403_2923"><rect x="0" y="0" width="16" height="16" rx="0"/></clipPath></defs><g clip-path="url(#master_svg0_403_2923)"><g><path d="M2.5,7.35L13.5,7.35Q13.564,7.35,13.6268,7.36249Q13.6896,7.374979,13.7487,7.399478Q13.8079,7.423978,13.8611,7.459545Q13.9143,7.495112,13.9596,7.540381Q14.0049,7.585649,14.0405,7.638879Q14.076,7.69211,14.1005,7.751256Q14.125,7.810402,14.1375,7.873191Q14.15,7.9359806,14.15,8Q14.15,8.0640194,14.1375,8.126809Q14.125,8.189598,14.1005,8.248744Q14.076,8.30789,14.0405,8.361121Q14.0049,8.414351,13.9596,8.459619Q13.9143,8.504888,13.8611,8.540455Q13.8079,8.576022,13.7487,8.600522Q13.6896,8.625021,13.6268,8.63751Q13.564,8.65,13.5,8.65L2.5,8.65Q2.4359806,8.65,2.373191,8.63751Q2.310402,8.625021,2.251256,8.600522Q2.19211,8.576022,2.138879,8.540455Q2.085649,8.504888,2.040381,8.459619Q1.995112,8.414351,1.9595449999999999,8.361121Q1.923978,8.30789,1.899478,8.248744Q1.874979,8.189598,1.86249,8.126809Q1.85,8.0640194,1.85,8Q1.85,7.9359806,1.86249,7.873191Q1.874979,7.810402,1.899478,7.751256Q1.923978,7.69211,1.9595449999999999,7.638879Q1.995112,7.585649,2.040381,7.540381Q2.085649,7.495112,2.138879,7.459545Q2.19211,7.423978,2.251256,7.399478Q2.310402,7.374979,2.373191,7.36249Q2.4359806,7.35,2.5,7.35Z" fill-rule="evenodd" fill="#000000" fill-opacity="1"/></g><g transform="matrix(1,-5.400848479553133e-8,5.400848479553133e-8,1,-3.24050908773188e-7,1.0801696959106266e-7)"><path d="M4.45962,6.459619Q4.55104,6.368196,4.6005199999999995,6.248744Q4.65,6.129293,4.65,6Q4.65,5.9359806,4.63751,5.873191Q4.62502,5.810402,4.6005199999999995,5.751256Q4.57602,5.69211,4.5404599999999995,5.638879Q4.50489,5.585649,4.45962,5.540381Q4.414350000000001,5.495112,4.36112,5.459545Q4.30789,5.423978,4.24874,5.399478Q4.1896,5.374979,4.12681,5.36249Q4.06402,5.35,4,5.35Q3.87071,5.35,3.7512600000000003,5.399478Q3.6318,5.448957,3.54038,5.540381L3.54034,5.540419L1.540381,7.54038Q1.448957,7.6318,1.399478,7.75126Q1.35,7.87071,1.35,8Q1.35,8.129290000000001,1.399478,8.24874Q1.448957,8.3682,1.540381,8.459620000000001L3.54038,10.459620000000001Q3.6318,10.55104,3.7512600000000003,10.60052Q3.87071,10.65,4,10.65Q4.06402,10.65,4.12681,10.637509999999999Q4.1896,10.62502,4.24874,10.60052Q4.30789,10.57602,4.36112,10.54045Q4.414350000000001,10.50489,4.45962,10.459620000000001Q4.50489,10.414349999999999,4.5404599999999995,10.36112Q4.57602,10.30789,4.6005199999999995,10.24874Q4.62502,10.1896,4.63751,10.126809999999999Q4.65,10.06402,4.65,10Q4.65,9.870709999999999,4.6005199999999995,9.75126Q4.55104,9.6318,4.45962,9.540379999999999L4.4592,9.53996L2.919239,8L4.45931,6.459927L4.45962,6.459619L4.45962,6.459619Z" fill-rule="evenodd" fill="#000000" fill-opacity="1"/></g><g transform="matrix(-1,-5.400848479553133e-8,5.400848479553133e-8,1,27.99999967594909,7.561187871374386e-7)"><path d="M16.45962,6.459619Q16.55104,6.368196,16.60052,6.248744Q16.65,6.129293,16.65,6Q16.65,5.9359806,16.63751,5.873191Q16.62502,5.810402,16.60052,5.751256Q16.57602,5.69211,16.54046,5.638879Q16.50489,5.585649,16.45962,5.540381Q16.41435,5.495112,16.36112,5.459545Q16.30789,5.423978,16.24874,5.399478Q16.1896,5.374979,16.12681,5.36249Q16.06402,5.35,16,5.35Q15.87071,5.35,15.75126,5.399478Q15.6318,5.448957,15.54038,5.540381L15.54034,5.540419L13.540381,7.54038Q13.448957,7.6318,13.399478,7.75126Q13.35,7.87071,13.35,8Q13.35,8.129290000000001,13.399478,8.24874Q13.448957,8.3682,13.540381,8.459620000000001L15.54038,10.459620000000001Q15.6318,10.55104,15.75126,10.60052Q15.87071,10.65,16,10.65Q16.06402,10.65,16.12681,10.637509999999999Q16.1896,10.62502,16.24874,10.60052Q16.30789,10.57602,16.36112,10.54045Q16.41435,10.50489,16.45962,10.459620000000001Q16.50489,10.414349999999999,16.54046,10.36112Q16.57602,10.30789,16.60052,10.24874Q16.62502,10.1896,16.63751,10.126809999999999Q16.65,10.06402,16.65,10Q16.65,9.870709999999999,16.60052,9.75126Q16.55104,9.6318,16.45962,9.540379999999999L16.4592,9.53996L14.919239,8L16.45931,6.459927L16.45962,6.459619L16.45962,6.459619Z" fill-rule="evenodd" fill="#000000" fill-opacity="1"/></g></g></svg>