<svg data-v-5059ea24="" width="1em" height="1em" viewBox="0 0 14 14" fill="none" xmlns="http://www.w3.org/2000/svg" tabindex="-1" opacity="0.7" class="mas-filter-item-icon transition" style="font-size: 14px; transform: rotate(0deg);"><path fill-rule="evenodd" clip-rule="evenodd" d="M2 2H12V12H2V2ZM1 1.6C1 1.26863 1.26863 1 1.6 1H12.4C12.7314 1 13 1.26863 13 1.6V12.4C13 12.7314 12.7314 13 12.4 13H1.6C1.26863 13 1 12.7314 1 12.4V1.6ZM4.3 3.5C4.13431 3.5 4 3.63431 4 3.8V4.2C4 4.36569 4.13431 4.5 4.3 4.5H6.7C6.86569 4.5 7 4.36569 7 4.2V3.8C7 3.63431 6.86569 3.5 6.7 3.5H4.3ZM10 6.8C10 6.63431 9.86569 6.5 9.7 6.5H4.3C4.13431 6.5 4 6.63431 4 6.8V7.2C4 7.36569 4.13431 7.5 4.3 7.5H9.7C9.86569 7.5 10 7.36569 10 7.2V6.8ZM8.7 9.5C8.86568 9.5 9 9.63431 9 9.8V10.2C9 10.3657 8.86569 10.5 8.7 10.5H4.3C4.13431 10.5 4 10.3657 4 10.2V9.8C4 9.63431 4.13431 9.5 4.3 9.5H8.7Z" fill="currentcolor"></path></svg>