<svg xmlns="http://www.w3.org/2000/svg" xmlns:xlink="http://www.w3.org/1999/xlink" fill="none" version="1.1" width="8.520000457763672" height="10.979999542236328" viewBox="0 0 8.520000457763672 10.979999542236328"><g><path d="M6.705,5.28Q8.52,5.925,8.52,7.815Q8.52,9.3,7.4325,10.14Q6.345,10.98,4.38,10.98L0,10.98L0,0L3.975,0Q5.73,0,6.8325,0.8025Q7.935,1.605,7.935,3.06Q7.935,4.575,6.705,5.28ZM2.13,1.89L2.13,4.485L3.765,4.485Q4.65,4.485,5.1675,4.1175Q5.685,3.75,5.685,3.135Q5.685,2.535,5.175,2.2125Q4.665,1.89,3.765,1.89L2.13,1.89ZM4.2,9.09Q5.19,9.09,5.7225,8.73Q6.255,8.37,6.255,7.71Q6.255,7.05,5.7225,6.675Q5.19,6.3,4.185,6.3L2.13,6.3L2.13,9.09L4.2,9.09Z" fill="#000000" fill-opacity="1"/></g></svg>