<svg xmlns="http://www.w3.org/2000/svg" xmlns:xlink="http://www.w3.org/1999/xlink" fill="none" version="1.1" width="16" height="16" viewBox="0 0 16 16"><defs><clipPath id="master_svg0_403_2845"><rect x="0" y="0" width="16" height="16" rx="0"/></clipPath></defs><g clip-path="url(#master_svg0_403_2845)"><g><path d="M3.8338221875,2.3330078125L3.1452121875000003,2.3330078125L2.1669921875,2.5951208125L2.1669921875,3.6302178124999998L2.8336721875,3.4515578125L2.8337791875000002,5.6663378125L2.0003254875,5.6663378125L2.0003254875,6.6663378125L4.6669921875,6.6663378125L4.6669921875,5.6663378125L3.8338221875,5.6663378125L3.8338221875,2.3330078125ZM6.6669921875,2.6663408125L14.0002921875,2.6663408125L14.0002921875,3.9996778125L6.6669921875,3.9996778125L6.6669921875,2.6663408125ZM6.6669921875,7.3330078125L14.0002921875,7.3330078125L14.0002921875,8.6663378125L6.6669921875,8.6663378125L6.6669921875,7.3330078125ZM6.6669921875,11.9996778125L14.0002921875,11.9996778125L14.0002921875,13.3330078125L6.6669921875,13.3330078125L6.6669921875,11.9996778125ZM1.9169921875,10.4163378125C1.9169921875,9.633937812500001,2.5512521875000003,8.9996778125,3.3336621875,8.9996778125C4.1160621875,8.9996778125,4.7503221875,9.633937812500001,4.7503221875,10.4163378125C4.7503221875,10.7400778125,4.6415421875,11.0388078125,4.458642187500001,11.2774778125L4.4554621875,11.2816078125L3.5442421875,12.3330078125L4.6669921875,12.3330078125L4.6669921875,13.3330078125L2.0004054875,13.3330078125L2.0000521875,12.5854078125L3.6481221875000003,10.6896778125C3.7118621875,10.6164778125,3.7503221875,10.5210778125,3.7503221875,10.4163378125C3.7503221875,10.186207812500001,3.5637821875,9.9996778125,3.3336621875,9.9996778125C3.1161821874999998,9.9996778125,2.9374821874999997,10.166407812500001,2.9186421874999997,10.3788778125L2.9103921875,10.5830078125L1.9169921875,10.5830078125L1.9169921875,10.4163378125Z" fill="#000000" fill-opacity="1"/></g></g></svg>