<svg class="svg" width="12" height="12" viewBox="0 0 12 12" xmlns="http://www.w3.org/2000/svg"><path d="M3.904 1.297C4.556.77 5.428.5 6.349.5c.907 0 1.756.228 2.407.742.661.523 1.069 1.301 1.149 2.295l-.997.08c-.06-.75-.353-1.26-.772-1.59C7.707 1.69 7.097 1.5 6.349 1.5c-.735 0-1.373.215-1.816.574-.434.352-.703.855-.703 1.503 0 .615.285 1.013.639 1.292.06.048.122.091.184.131h-1.41c-.246-.373-.413-.842-.413-1.423 0-.96.412-1.745 1.074-2.28zM8.824 8h1.069c.069.24.107.507.107.801 0 .972-.373 1.793-1.065 2.361-.68.56-1.622.838-2.707.838-1.1 0-1.986-.31-2.628-.879-.64-.567-.99-1.347-1.096-2.2l.992-.124c.083.66.343 1.2.767 1.575.422.374 1.055.628 1.965.628.925 0 1.619-.237 2.072-.61.442-.363.7-.891.7-1.589 0-.324-.066-.586-.177-.801zM0 7h12V6H0v1z" fill-rule="evenodd" fill-opacity="1" fill="#000" stroke="none"></path></svg>