<svg xmlns="http://www.w3.org/2000/svg" xmlns:xlink="http://www.w3.org/1999/xlink" fill="none" version="1.1" width="16" height="16" viewBox="0 0 16 16"><defs><clipPath id="master_svg0_318_1712"><rect x="0" y="0" width="16" height="16" rx="0"/></clipPath></defs><g clip-path="url(#master_svg0_318_1712)"><g><g><path d="M5.2712890625,7.2142L5.2712890625,2.5Q5.2712890625,2.431056,5.2578390625,2.3634370000000002Q5.2443880625,2.295818,5.2180050625,2.232122Q5.1916210625,2.168426,5.1533180625,2.111101Q5.1150140625,2.053776,5.0662640625,2.005025Q5.0175130625,1.956275,4.9601880625,1.917971Q4.9028630625,1.8796680000000001,4.8391670625,1.853284Q4.7754710625,1.8269009999999999,4.7078520625,1.81345Q4.6402330625,1.8,4.5712890625,1.8Q4.5023450625,1.8,4.4347260625,1.81345Q4.3671070625,1.8269009999999999,4.3034110625,1.853284Q4.2397150625,1.8796680000000001,4.1823900625,1.917971Q4.1250650625,1.956275,4.0763140625,2.005025Q4.0275640625,2.053776,3.9892600625,2.111101Q3.9509570625,2.168426,3.9245730625,2.232122Q3.8981900625,2.295818,3.8847390625,2.3634370000000002Q3.8712890625,2.431056,3.8712890625,2.5L3.8712890625,7.2142Q3.8712890625,8.80593,4.9968180625,9.931460000000001Q6.1223590625,11.05701,7.714089062499999,11.05701Q9.3058090625,11.05701,10.4313490625,9.931460000000001Q11.556899062500001,8.80592,11.556899062500001,7.2142L11.556899062500001,2.5Q11.5568890625,2.431056,11.5434390625,2.3634370000000002Q11.5299890625,2.295818,11.5036090625,2.232122Q11.477229062500001,2.168426,11.4389190625,2.111101Q11.400619062499999,2.053776,11.3518690625,2.005025Q11.3031190625,1.956275,11.2457890625,1.917971Q11.188469062500001,1.8796680000000001,11.1247690625,1.853284Q11.0610790625,1.8269009999999999,10.993459062500001,1.81345Q10.9258390625,1.8,10.8568990625,1.8Q10.787949062500001,1.8,10.7203290625,1.81345Q10.6527090625,1.8269009999999999,10.5890190625,1.853284Q10.5253190625,1.8796680000000001,10.467999062499999,1.917971Q10.4106690625,1.956275,10.3619190625,2.005025Q10.3131690625,2.053776,10.274869062499999,2.111101Q10.2365590625,2.168426,10.2101790625,2.232122Q10.1837990625,2.295818,10.1703490625,2.3634370000000002Q10.156899062499999,2.431056,10.156899062499999,2.5L10.156899062499999,7.2142Q10.156899062499999,8.22602,9.4413990625,8.94152Q8.725909062500001,9.65701,7.714089062499999,9.65701Q6.7022590625,9.65701,5.9867690625000005,8.94152Q5.2712890625,8.22603,5.2712890625,7.2142Z" fill-rule="evenodd" fill="#000000" fill-opacity="1"/></g><g><path d="M3,14.2L12.42841,14.2Q12.49735,14.2,12.56497,14.18655Q12.63259,14.173099,12.69629,14.146716Q12.75998,14.120332,12.81731,14.082029Q12.87463,14.043725,12.92338,13.994975Q12.97213,13.946224,13.0104,13.888899Q13.0487,13.831574,13.0751,13.767878Q13.1015,13.704182,13.115,13.636563Q13.1284,13.568944,13.1284,13.5Q13.1284,13.431056,13.115,13.363437Q13.1015,13.295818,13.0751,13.232122Q13.0487,13.168426,13.0104,13.111101Q12.97213,13.053776,12.92338,13.005025Q12.87463,12.956275,12.81731,12.917971Q12.75998,12.879668,12.69629,12.853284Q12.63259,12.826901,12.56497,12.81345Q12.49735,12.8,12.42841,12.8L3,12.8Q2.931056,12.8,2.8634370000000002,12.81345Q2.795818,12.826901,2.732122,12.853284Q2.668426,12.879668,2.611101,12.917971Q2.553776,12.956275,2.505025,13.005025Q2.4562749999999998,13.053776,2.417971,13.111101Q2.379668,13.168426,2.353284,13.232122Q2.326901,13.295818,2.31345,13.363437Q2.3,13.431056,2.3,13.5Q2.3,13.568944,2.31345,13.636563Q2.326901,13.704182,2.353284,13.767878Q2.379668,13.831574,2.417971,13.888899Q2.4562749999999998,13.946224,2.505025,13.994975Q2.553776,14.043725,2.611101,14.082029Q2.668426,14.120332,2.732122,14.146716Q2.795818,14.173099,2.8634370000000002,14.18655Q2.931056,14.2,3,14.2Z" fill-rule="evenodd" fill="#000000" fill-opacity="1"/></g></g></g></svg>