<svg xmlns="http://www.w3.org/2000/svg" data-v-1f3f5f87="" width="16" height="16" overflow="visible" viewBox="0 0 16 16" style="background-color: transparent;"><g style="transform: matrix(1, 0, 0, 1, 0, 0);"><svg xmlns="http://www.w3.org/2000/svg" xmlns:xlink="http://www.w3.org/1999/xlink" xmlns:xhtml="http://www.w3.org/1999/xhtml" preserveAspectRatio="xMinYMin meet" overflow="hidden" width="16" height="16" viewBox="0 0 16 16" clip-path="url(#clip-board-9808)"><clipPath id="clip-board-9808"><path d="M0 0L16 0L16 16L0 16L0 0Z" clip-rule="evenodd"/></clipPath><g style="transform:matrix(1,0,0,1,0.7029799392175846,3.375);"><path class="fill-f3abca35-4560-441c-af63-3ced7b34a998" d="M3.259452890969765 0.10937499999999989C3.139552677633507 0.3376641084525703 1.1102230246251565e-15 8.49008223339504 4.4408920985006257e-16 8.573135781923709C2.2204460492503128e-16 8.60166110186567 0.3194532288712122 8.625000000000002 0.7098960641582492 8.625000000000002L1.4197921283164985 8.624999999999996L1.8192710641582488 7.531348414624913L2.21875 6.437696829249825L4.040964168717599 6.437598414624912L5.863178337435198 6.437500000000001L6.060189310496486 6.984375000000002C6.168545345680193 7.285156250000001 6.345868342587216 7.777343750000001 6.454240414734314 8.078125L6.651280545910856 8.625000000000002L7.3876032241930565 8.625000000000002L8.123925902475257 8.625000000000002L7.9754232658885815 8.234375C7.735179503013518 7.6024318774393675 5.347143051036365 1.4050202469895179 5.061379993477074 0.6718750000000001L4.799498660840685 6.204299848711972e-16L4.058198315325843 6.204299848711972e-16C3.4157484924893193 6.204299848711972e-16 3.309237814108779 0.014584879102453917 3.259452890969765 0.10937499999999989ZM4.396869147065385 2.437500000000001C4.550516892735027 2.8671875000000004 4.846642429125987 3.6813410514750946 5.054925894600853 4.246730114389099C5.263209360075718 4.812119177303103 5.424571284715294 5.283762048618047 5.4135079493554645 5.294825383977867C5.402444613995635 5.305888719337684 4.7742396737603645 5.307360167862589 4.017496971054863 5.298095269588767L2.6416011479539527 5.28125L3.2271297781350032 3.687500000000001C3.5491705247345813 2.8109375 3.858048092576794 1.9718315761318523 3.913524373339922 1.8228201691818942C3.9690006541030476 1.673808762231936 4.037592174365885 1.5753712622319358 4.065949973924004 1.6040701691818944C4.094307773482124 1.6327690761318527 4.243221401395744 2.0078125 4.396869147065385 2.437500000000001ZM10.72869464581787 2.282278679578864C10.513890610929806 2.328941339780933 10.197521080553813 2.4436552970569987 10.025651244982328 2.5371985846367875C9.610585211317472 2.7631058313773864 9.057637062703957 3.352192441953238 8.864340350307412 3.774408077939601C8.373962474591409 4.845534452010172 8.447013977749478 6.3372277434703905 9.035151370227906 7.2623260742543545C9.645821930217016 8.222867476534867 10.903652820652704 8.7055936051746 12.021007350804211 8.40822788755784C12.3809998526336 8.312421743890411 12.990044215152526 7.933027268330514 13.093164956473958 7.740344400650127C13.127116703897222 7.676904980292556 13.185649234897031 7.625 13.223237247584644 7.625C13.271185318942383 7.625 13.278777637916322 7.834818307398903 13.2486799715525 8.328125C13.177692482175711 9.491623962916435 12.879664179646692 9.911259255459738 12.012059156843524 10.069334586277495C11.677586765495892 10.130274567630828 11.502000744563949 10.129650633624804 11.147297942673852 10.066261711080784C10.621082068792544 9.972221694782206 10.34225741145724 9.766661571038416 10.21407032269972 9.378250877044993L10.13048999611315 9.125000000000002L9.462149141759017 9.125000000000002L8.79380828740488 9.125000000000002L8.87292911536811 9.43001868671249C9.168130936528645 10.568051163412163 9.94625017690858 11.096864621675588 11.432998518717486 11.169853771523584C12.812843048133997 11.237594677157949 13.768157382578755 10.800036213818528 14.23990104378579 9.884220434590281C14.550455755157328 9.281327532415354 14.548805601722837 9.301941165780566 14.572102629754824 5.734375000000001L14.594040121565246 2.3750000000000004L13.93476877904434 2.3750000000000004L13.275497436523438 2.3750000000000004L13.275497436523438 2.718750000000001C13.275497436523438 2.9078125000000004 13.266012749040772 3.0625000000000004 13.254420353228625 3.0625000000000004C13.242827957416479 3.0625000000000004 13.119224400122453 2.953941327136737 12.979745781464128 2.8212585047483043C12.6709118678961 2.527471860632976 12.28789758753782 2.3353218102719415 11.842907676003472 2.2509312077810173C11.420065257553587 2.170740791039511 11.215669848776278 2.176491288600277 10.72869464581787 2.282278679578864ZM12.179525388120906 3.41516162859173C12.85955948768235 3.6468725343528017 13.221470063944285 4.300276237546162 13.230432843962255 5.3125C13.242457927928093 6.670569227552589 12.671264596773733 7.372841254913669 11.553393956748547 7.374389442768501C10.54414917158806 7.375787189934403 10.001093584328467 6.761049886074058 9.917939807296733 5.52306022710825C9.832692892527765 4.2539080284962605 10.517785664308176 3.3125000000000004 11.526635279754284 3.3125000000000004C11.720012421283633 3.3125000000000004 12.01381297004861 3.358697732866279 12.179525388120906 3.41516162859173Z" fill="rgb(51,51,51)" fill-opacity="1" stroke="none" stroke-width="0" fill-rule="evenodd"/></g></svg></g></svg>