<svg xmlns="http://www.w3.org/2000/svg" xmlns:xlink="http://www.w3.org/1999/xlink"
    version="1.1" width="16" height="16" viewBox="0 0 16 16">
    <defs>
        <clipPath id="master_svg0_57_905/53_0242">
            <rect x="0" y="0" width="16" height="16" rx="0" />
        </clipPath>
    </defs>
    <g clip-path="url(#master_svg0_57_905/53_0242)">
        <g>
            <path
                d="M4.6666259765625,6.016748046875L13.9999559765625,6.016748046875Q14.0639759765625,6.016748046875,14.1267659765625,6.029238046875Q14.1895559765625,6.041727046875,14.2487059765625,6.066226046875Q14.3078459765625,6.090726046875,14.3610759765625,6.126293046875Q14.4143059765625,6.161860046875,14.4595759765625,6.207129046875Q14.5048459765625,6.252397046875,14.5404159765625,6.305627046875Q14.5759759765625,6.358858046875,14.6004759765625,6.418004046875Q14.6249759765625,6.477150046875,14.6374659765625,6.539939046875Q14.6499559765625,6.602728646875,14.6499559765625,6.666748046875Q14.6499559765625,6.730767446875,14.6374659765625,6.793557046875Q14.6249759765625,6.856346046875,14.6004759765625,6.915492046875Q14.5759759765625,6.974638046875,14.5404159765625,7.027869046875Q14.5048459765625,7.081099046875,14.4595759765625,7.126367046875Q14.4143059765625,7.171636046875,14.3610759765625,7.207203046875Q14.3078459765625,7.242770046875,14.2487059765625,7.267270046875Q14.1895559765625,7.291769046875,14.1267659765625,7.304258046875Q14.0639759765625,7.316748046875,13.9999559765625,7.316748046875L4.6666259765625,7.316748046875Q4.6026065765625,7.316748046875,4.5398169765625,7.304258046875Q4.4770279765625,7.291769046875,4.4178819765625,7.267270046875Q4.3587359765625,7.242770046875,4.3055049765625,7.207203046875Q4.2522749765625,7.171636046875,4.2070069765625,7.126367046875Q4.1617379765625,7.081099046875,4.1261709765625,7.027869046875Q4.0906039765625,6.974638046875,4.0661039765625,6.915492046875Q4.0416049765625,6.856346046875,4.0291159765625,6.793557046875Q4.0166259765625,6.730767446875,4.0166259765625,6.666748046875Q4.0166259765625,6.602728646875,4.0291159765625,6.539939046875Q4.0416049765625,6.477150046875,4.0661039765625,6.418004046875Q4.0906039765625,6.358858046875,4.1261709765625,6.305627046875Q4.1617379765625,6.252397046875,4.2070069765625,6.207129046875Q4.2522749765625,6.161860046875,4.3055049765625,6.126293046875Q4.3587359765625,6.090726046875,4.4178819765625,6.066226046875Q4.4770279765625,6.041727046875,4.5398169765625,6.029238046875Q4.6026065765625,6.016748046875,4.6666259765625,6.016748046875Z"
                fill-rule="evenodd" fill="inherit" fill-opacity="1" />
        </g>
        <g>
            <path
                d="M2,3.35L14,3.35Q14.064,3.35,14.1268,3.36249Q14.1896,3.3749789999999997,14.2487,3.399478Q14.3079,3.423978,14.3611,3.459545Q14.4143,3.4951119999999998,14.4596,3.540381Q14.5049,3.585649,14.5405,3.638879Q14.576,3.69211,14.6005,3.751256Q14.625,3.810402,14.6375,3.873191Q14.65,3.9359806,14.65,4Q14.65,4.0640194,14.6375,4.126809Q14.625,4.189598,14.6005,4.248744Q14.576,4.30789,14.5405,4.361121Q14.5049,4.414351,14.4596,4.459619Q14.4143,4.504888,14.3611,4.540455Q14.3079,4.576022,14.2487,4.600522Q14.1896,4.625021,14.1268,4.63751Q14.064,4.65,14,4.65L2,4.65Q1.9359806,4.65,1.873191,4.63751Q1.810402,4.625021,1.751256,4.600522Q1.69211,4.576022,1.638879,4.540455Q1.585649,4.504888,1.540381,4.459619Q1.495112,4.414351,1.4595449999999999,4.361121Q1.423978,4.30789,1.399478,4.248744Q1.374979,4.189598,1.36249,4.126809Q1.35,4.0640194,1.35,4Q1.35,3.9359806,1.36249,3.873191Q1.374979,3.810402,1.399478,3.751256Q1.423978,3.69211,1.4595449999999999,3.638879Q1.495112,3.585649,1.540381,3.540381Q1.585649,3.4951119999999998,1.638879,3.459545Q1.69211,3.423978,1.751256,3.399478Q1.810402,3.3749789999999997,1.873191,3.36249Q1.9359806,3.35,2,3.35Z"
                fill-rule="evenodd" fill="inherit" fill-opacity="1" />
        </g>
        <g>
            <path
                d="M4.6666259765625,11.35L13.9999559765625,11.35Q14.0639759765625,11.35,14.1267659765625,11.36249Q14.1895559765625,11.374979,14.2487059765625,11.399478Q14.3078459765625,11.423978,14.3610759765625,11.459545Q14.4143059765625,11.495112,14.4595759765625,11.540381Q14.5048459765625,11.585649,14.5404159765625,11.638879Q14.5759759765625,11.69211,14.6004759765625,11.751256Q14.6249759765625,11.810402,14.6374659765625,11.873191Q14.6499559765625,11.9359806,14.6499559765625,12Q14.6499559765625,12.0640194,14.6374659765625,12.126809Q14.6249759765625,12.189598,14.6004759765625,12.248744Q14.5759759765625,12.30789,14.5404159765625,12.361121Q14.5048459765625,12.414351,14.4595759765625,12.459619Q14.4143059765625,12.504888,14.3610759765625,12.540455Q14.3078459765625,12.576022,14.2487059765625,12.600522Q14.1895559765625,12.625021,14.1267659765625,12.63751Q14.0639759765625,12.65,13.9999559765625,12.65L4.6666259765625,12.65Q4.6026065765625,12.65,4.5398169765625,12.63751Q4.4770279765625,12.625021,4.4178819765625,12.600522Q4.3587359765625,12.576022,4.3055049765625,12.540455Q4.2522749765625,12.504888,4.2070069765625,12.459619Q4.1617379765625,12.414351,4.1261709765625,12.361121Q4.0906039765625,12.30789,4.0661039765625,12.248744Q4.0416049765625,12.189598,4.0291159765625,12.126809Q4.0166259765625,12.0640194,4.0166259765625,12Q4.0166259765625,11.9359806,4.0291159765625,11.873191Q4.0416049765625,11.810402,4.0661039765625,11.751256Q4.0906039765625,11.69211,4.1261709765625,11.638879Q4.1617379765625,11.585649,4.2070069765625,11.540381Q4.2522749765625,11.495112,4.3055049765625,11.459545Q4.3587359765625,11.423978,4.4178819765625,11.399478Q4.4770279765625,11.374979,4.5398169765625,11.36249Q4.6026065765625,11.35,4.6666259765625,11.35Z"
                fill-rule="evenodd" fill="inherit" fill-opacity="1" />
        </g>
        <g>
            <path
                d="M2,8.683251953125L14,8.683251953125Q14.064,8.683251953125,14.1268,8.695741953125Q14.1896,8.708230953125,14.2487,8.732729953125Q14.3079,8.757229953125,14.3611,8.792796953125Q14.4143,8.828363953125,14.4596,8.873632953125Q14.5049,8.918900953125,14.5405,8.972130953125Q14.576,9.025361953125,14.6005,9.084507953125Q14.625,9.143653953125,14.6375,9.206442953125Q14.65,9.269232553125,14.65,9.333251953125Q14.65,9.397271353125,14.6375,9.460060953125Q14.625,9.522849953125,14.6005,9.581995953125Q14.576,9.641141953125,14.5405,9.694372953125Q14.5049,9.747602953125,14.4596,9.792870953125Q14.4143,9.838139953125,14.3611,9.873706953125Q14.3079,9.909273953125,14.2487,9.933773953125Q14.1896,9.958272953125,14.1268,9.970761953125Q14.064,9.983251953125,14,9.983251953125L2,9.983251953125Q1.9359806,9.983251953125,1.873191,9.970761953125Q1.810402,9.958272953125,1.751256,9.933773953125Q1.69211,9.909273953125,1.638879,9.873706953125Q1.585649,9.838139953125,1.540381,9.792870953125Q1.495112,9.747602953125,1.4595449999999999,9.694372953125Q1.423978,9.641141953125,1.399478,9.581995953125Q1.374979,9.522849953125,1.36249,9.460060953125Q1.35,9.397271353125,1.35,9.333251953125Q1.35,9.269232553125,1.36249,9.206442953125Q1.374979,9.143653953125,1.399478,9.084507953125Q1.423978,9.025361953125,1.4595449999999999,8.972130953125Q1.495112,8.918900953125,1.540381,8.873632953125Q1.585649,8.828363953125,1.638879,8.792796953125Q1.69211,8.757229953125,1.751256,8.732729953125Q1.810402,8.708230953125,1.873191,8.695741953125Q1.9359806,8.683251953125,2,8.683251953125Z"
                fill-rule="evenodd" fill="inherit" fill-opacity="1" />
        </g>
    </g>
</svg>