<svg xmlns="http://www.w3.org/2000/svg" xmlns:xlink="http://www.w3.org/1999/xlink" fill="none" version="1.1" width="16" height="16" viewBox="0 0 16 16"><defs><clipPath id="master_svg0_318_1728"><rect x="0" y="0" width="16" height="16" rx="0"/></clipPath></defs><g clip-path="url(#master_svg0_318_1728)"><g><path d="M10.859999732971191,7.300000457763672Q12.674999732971191,7.945000457763672,12.674999732971191,9.835000457763673Q12.674999732971191,11.320000457763673,11.587499732971192,12.160000457763672Q10.49999973297119,13.000000457763672,8.53499973297119,13.000000457763672L4.154999732971191,13.000000457763672L4.154999732971191,2.020000457763672L8.129999732971191,2.020000457763672Q9.884999732971192,2.020000457763672,10.987499732971191,2.822500457763672Q12.08999973297119,3.625000457763672,12.08999973297119,5.080000457763672Q12.08999973297119,6.595000457763672,10.859999732971191,7.300000457763672ZM6.284999732971191,3.9100004577636716L6.284999732971191,6.505000457763672L7.919999732971192,6.505000457763672Q8.804999732971192,6.505000457763672,9.322499732971192,6.137500457763672Q9.83999973297119,5.770000457763672,9.83999973297119,5.155000457763672Q9.83999973297119,4.555000457763672,9.329999732971192,4.232500457763672Q8.81999973297119,3.9100004577636716,7.919999732971192,3.9100004577636716L6.284999732971191,3.9100004577636716ZM8.35499973297119,11.110000457763672Q9.344999732971193,11.110000457763672,9.877499732971192,10.750000457763672Q10.40999973297119,10.390000457763671,10.40999973297119,9.730000457763673Q10.40999973297119,9.070000457763673,9.877499732971192,8.695000457763673Q9.344999732971193,8.320000457763673,8.33999973297119,8.320000457763673L6.284999732971191,8.320000457763673L6.284999732971191,11.110000457763672L8.35499973297119,11.110000457763672Z" fill="#000000" fill-opacity="1"/></g></g></svg>