<svg xmlns="http://www.w3.org/2000/svg" xmlns:xlink="http://www.w3.org/1999/xlink" fill="none" version="1.1" width="16" height="16" viewBox="0 0 16 16"><defs><clipPath id="master_svg0_318_1722"><rect x="0" y="0" width="16" height="16" rx="0"/></clipPath></defs><g clip-path="url(#master_svg0_318_1722)"><g><path d="M6.14206,13.7L4,13.7Q3.931056,13.7,3.8634370000000002,13.6865Q3.795818,13.6731,3.732122,13.6467Q3.668426,13.6203,3.611101,13.582Q3.553776,13.5437,3.505025,13.495Q3.4562749999999998,13.4462,3.417971,13.3889Q3.379668,13.3316,3.353284,13.2679Q3.326901,13.2042,3.31345,13.1366Q3.3,13.0689,3.3,13Q3.3,12.93106,3.31345,12.86344Q3.326901,12.79582,3.353284,12.73212Q3.379668,12.66842,3.417971,12.6111Q3.4562749999999998,12.55377,3.505025,12.50502Q3.553776,12.45627,3.611101,12.41797Q3.668426,12.37967,3.732122,12.35328Q3.795818,12.3269,3.8634370000000002,12.31345Q3.931056,12.3,4,12.3L5.61485,12.3L8.07199,3.7L6.857139999999999,3.7Q6.7882,3.7,6.72058,3.68655Q6.65296,3.673099,6.5892599999999995,3.646716Q6.52557,3.620332,6.46824,3.582029Q6.41092,3.5437250000000002,6.36217,3.494975Q6.31342,3.446224,6.27511,3.388899Q6.23681,3.331574,6.210430000000001,3.267878Q6.1840399999999995,3.204182,6.17059,3.1365629999999998Q6.15714,3.068944,6.15714,3Q6.15714,2.931056,6.17059,2.8634370000000002Q6.1840399999999995,2.795818,6.210430000000001,2.732122Q6.23681,2.668426,6.27511,2.611101Q6.31342,2.553776,6.36217,2.505025Q6.41092,2.4562749999999998,6.46824,2.417971Q6.52557,2.379668,6.5892599999999995,2.353284Q6.65296,2.326901,6.72058,2.31345Q6.7882,2.3,6.857139999999999,2.3L11.142859999999999,2.3Q11.2118,2.3,11.27942,2.31345Q11.34704,2.326901,11.410730000000001,2.353284Q11.47443,2.379668,11.531749999999999,2.417971Q11.58908,2.4562749999999998,11.637830000000001,2.505025Q11.68658,2.553776,11.724879999999999,2.611101Q11.76319,2.668426,11.789570000000001,2.732122Q11.81595,2.795818,11.82941,2.8634370000000002Q11.84286,2.931056,11.84286,3Q11.84286,3.068944,11.82941,3.1365629999999998Q11.81595,3.204182,11.789570000000001,3.267878Q11.76319,3.331574,11.724879999999999,3.388899Q11.68658,3.446224,11.637830000000001,3.494975Q11.58908,3.5437250000000002,11.531749999999999,3.582029Q11.47443,3.620332,11.410730000000001,3.646716Q11.34704,3.673099,11.27942,3.68655Q11.2118,3.7,11.142859999999999,3.7L9.52801,3.7L7.07087,12.3L8.28571,12.3Q8.354659999999999,12.3,8.42228,12.31345Q8.489899999999999,12.3269,8.55359,12.35328Q8.61729,12.37967,8.674610000000001,12.41797Q8.73194,12.45627,8.78069,12.50502Q8.82944,12.55377,8.867740000000001,12.6111Q8.90604,12.66842,8.93243,12.73212Q8.95881,12.79582,8.97226,12.86344Q8.985710000000001,12.93106,8.985710000000001,13Q8.985710000000001,13.0689,8.97226,13.1366Q8.95881,13.2042,8.93243,13.2679Q8.90604,13.3316,8.867740000000001,13.3889Q8.82944,13.4462,8.78069,13.495Q8.73194,13.5437,8.674610000000001,13.582Q8.61729,13.6203,8.55359,13.6467Q8.489899999999999,13.6731,8.42228,13.6865Q8.354659999999999,13.7,8.28571,13.7L6.14206,13.7Z" fill-rule="evenodd" fill="#000000" fill-opacity="1"/></g></g></svg>