<svg data-v-5059ea24="" width="14" height="14" viewBox="0 0 14 14" fill="none" xmlns="http://www.w3.org/2000/svg" tabindex="-1" opacity="0.7" class="mas-filter-item-icon transition" style="font-size: 14px; transform: rotate(0deg);"><path fill-rule="evenodd" clip-rule="evenodd" d="M3.17127 3C2.92493 3 2.70362 3.15057 2.61318 3.3797L0.107931 9.72646C0.0561236 9.85771 0.152859 9.9999 0.293963 9.9999H0.655973C0.898462 9.9999 1.11711 9.85393 1.2101 9.62998L1.67768 8.50391H5.34093L5.77 9.61589C5.85928 9.84729 6.08175 9.9999 6.32977 9.9999H6.70604C6.84714 9.9999 6.94388 9.85771 6.89207 9.72646L4.38682 3.3797C4.29638 3.15057 4.07507 3 3.82873 3H3.17127ZM4.93912 7.50391L3.5 3.83652L2.0625 7.50391H4.93912Z" fill="currentcolor"></path><path fill-rule="evenodd" clip-rule="evenodd" d="M12.5 7C12.5 8.10457 11.6046 9 10.5 9C9.39543 9 8.5 8.10457 8.5 7C8.5 5.89543 9.39543 5 10.5 5C11.6046 5 12.5 5.89543 12.5 7ZM12.5 4.76389C11.9692 4.28885 11.2684 4 10.5 4C8.84315 4 7.5 5.34315 7.5 7C7.5 8.65685 8.84315 10 10.5 10C11.2684 10 11.9692 9.71115 12.5 9.23611V9.4C12.5 9.73137 12.7686 10 13.1 10H13.3C13.4105 10 13.5 9.91046 13.5 9.8V7V4.2C13.5 4.08954 13.4105 4 13.3 4H13.1C12.7686 4 12.5 4.26863 12.5 4.6V4.76389Z" fill="currentcolor"></path></svg>