<svg xmlns="http://www.w3.org/2000/svg" xmlns:xlink="http://www.w3.org/1999/xlink" fill="none" version="1.1" width="16" height="16" viewBox="0 0 16 16"><defs><clipPath id="master_svg0_388_02013"><rect x="0" y="0" width="16" height="16" rx="0"/></clipPath></defs><g clip-path="url(#master_svg0_388_02013)"><g><path d="M10.8602734375,7.300000457763672Q12.6752734375,7.945000457763672,12.6752734375,9.835000457763673Q12.6752734375,11.320000457763673,11.587773437500001,12.160000457763672Q10.500273437499999,13.000000457763672,8.535273437499999,13.000000457763672L4.1552734375,13.000000457763672L4.1552734375,2.020000457763672L8.1302734375,2.020000457763672Q9.8852734375,2.020000457763672,10.9877734375,2.822500457763672Q12.090273437499999,3.625000457763672,12.090273437499999,5.080000457763672Q12.090273437499999,6.595000457763672,10.8602734375,7.300000457763672ZM6.2852734375,3.9100004577636716L6.2852734375,6.505000457763672L7.920273437500001,6.505000457763672Q8.8052734375,6.505000457763672,9.3227734375,6.137500457763672Q9.840273437499999,5.770000457763672,9.840273437499999,5.155000457763672Q9.840273437499999,4.555000457763672,9.3302734375,4.232500457763672Q8.8202734375,3.9100004577636716,7.920273437500001,3.9100004577636716L6.2852734375,3.9100004577636716ZM8.3552734375,11.110000457763672Q9.345273437500001,11.110000457763672,9.8777734375,10.750000457763672Q10.410273437499999,10.390000457763671,10.410273437499999,9.730000457763673Q10.410273437499999,9.070000457763673,9.8777734375,8.695000457763673Q9.345273437500001,8.320000457763673,8.340273437499999,8.320000457763673L6.2852734375,8.320000457763673L6.2852734375,11.110000457763672L8.3552734375,11.110000457763672Z" fill="#FFFFFF" fill-opacity="1"/></g></g></svg>