<svg xmlns="http://www.w3.org/2000/svg" xmlns:xlink="http://www.w3.org/1999/xlink" fill="none" version="1.1" width="16" height="16" viewBox="0 0 16 16"><defs><clipPath id="master_svg0_388_02169"><rect x="0" y="0" width="16" height="16" rx="0"/></clipPath></defs><g clip-path="url(#master_svg0_388_02169)"><g><g><path d="M3,8.7L14,8.7Q14.0689,8.7,14.1366,8.68655Q14.2042,8.673099,14.2679,8.646716Q14.3316,8.620332,14.3889,8.582029Q14.4462,8.543725,14.495,8.494975Q14.5437,8.446224,14.582,8.388899Q14.6203,8.331574,14.6467,8.267878Q14.6731,8.204182,14.6865,8.136563Q14.7,8.068944,14.7,8Q14.7,7.931056,14.6865,7.863437Q14.6731,7.795818,14.6467,7.732122Q14.6203,7.668426,14.582,7.611101Q14.5437,7.553776,14.495,7.505025Q14.4462,7.456275,14.3889,7.417971Q14.3316,7.379668,14.2679,7.353284Q14.2042,7.326901,14.1366,7.31345Q14.0689,7.3,14,7.3L3,7.3Q2.931056,7.3,2.8634370000000002,7.31345Q2.795818,7.326901,2.732122,7.353284Q2.668426,7.379668,2.611101,7.417971Q2.553776,7.456275,2.505025,7.505025Q2.4562749999999998,7.553776,2.417971,7.611101Q2.379668,7.668426,2.353284,7.732122Q2.326901,7.795818,2.31345,7.863437Q2.3,7.931056,2.3,8Q2.3,8.068944,2.31345,8.136563Q2.326901,8.204182,2.353284,8.267878Q2.379668,8.331574,2.417971,8.388899Q2.4562749999999998,8.446224,2.505025,8.494975Q2.553776,8.543725,2.611101,8.582029Q2.668426,8.620332,2.732122,8.646716Q2.795818,8.673099,2.8634370000000002,8.68655Q2.931056,8.7,3,8.7Z" fill-rule="evenodd" fill="#FFFFFF" fill-opacity="1"/></g><g><path d="M8.2781078125,8.664010000000001L8.2783178125,8.66408Q8.3860778125,8.7,8.4996778125,8.7Q8.5189978125,8.7,8.5382978125,8.69893Q8.6433878125,8.69313,8.7421178125,8.65668Q8.8408478125,8.62023,8.9244878125,8.55636Q9.0081378125,8.49249,9.0693078125,8.406839999999999Q9.130467812500001,8.321200000000001,9.1637578125,8.22136Q9.1996778125,8.11359,9.1996778125,8Q9.1996778125,7.99257,9.1995178125,7.98514Q9.1961778125,7.82775,9.125767812500001,7.68695Q9.0634978125,7.56241,8.958317812499999,7.47118Q8.8531278125,7.37995,8.721027812500001,7.33592L8.7208178125,7.33585L6.7542178125,6.68032Q6.2072478125,6.498,5.8701278125,6.03027Q5.5330078125,5.56254,5.5330078125,4.98598Q5.5330078125,4.2462,6.0561078125000005,3.7231Q6.5792178125,3.2,7.319007812500001,3.2L11.1187178125,3.2Q11.1876578125,3.2,11.255277812500001,3.18655Q11.322897812499999,3.173099,11.3865878125,3.146716Q11.450287812500001,3.120332,11.5076078125,3.082029Q11.5649378125,3.0437250000000002,11.6136878125,2.994975Q11.6624378125,2.946224,11.7007378125,2.888899Q11.7390478125,2.831574,11.7654278125,2.767878Q11.7918078125,2.704182,11.805257812499999,2.6365629999999998Q11.8187078125,2.568944,11.8187078125,2.5Q11.8187078125,2.431056,11.805257812499999,2.3634370000000002Q11.7918078125,2.295818,11.7654278125,2.232122Q11.7390478125,2.168426,11.7007378125,2.111101Q11.6624378125,2.053776,11.6136878125,2.005025Q11.5649378125,1.956275,11.5076078125,1.917971Q11.450287812500001,1.8796680000000001,11.3865878125,1.853284Q11.322897812499999,1.8269009999999999,11.255277812500001,1.81345Q11.1876578125,1.8,11.1187178125,1.8L7.319007812500001,1.8Q5.9993178125,1.8,5.0661628125,2.733151Q4.1330078125,3.6662999999999997,4.1330078125,4.98598Q4.1330078125,6.01449,4.7343855125,6.84886Q5.3357678125,7.68324,6.3114978125,8.008479999999999L8.2781078125,8.664010000000001ZM12.8663378125,11.014Q12.8663378125,10.20848,12.4840178125,9.50066Q12.439017812500001,9.417349999999999,12.3735078125,9.34899Q12.3079978125,9.28064,12.2266778125,9.232140000000001Q12.1453578125,9.18364,12.054077812500001,9.15849Q11.9627978125,9.13333,11.8681178125,9.13333L11.8554878125,9.13345Q11.6852478125,9.13652,11.5354478125,9.21744Q11.4521378125,9.26243,11.3837778125,9.32794Q11.3154178125,9.393460000000001,11.2669278125,9.47477Q11.2184278125,9.556090000000001,11.1932678125,9.647369999999999Q11.1681178125,9.73865,11.1681178125,9.83333L11.1682278125,9.84596Q11.1713078125,10.016200000000001,11.2522178125,10.16601L11.252237812499999,10.166039999999999L11.2525378125,10.16659Q11.4663378125,10.56275,11.4663378125,11.014Q11.4663378125,11.75379,10.9432378125,12.27689Q10.420127812499999,12.8,9.680347812499999,12.8L4.8330078125,12.8Q4.7640638125,12.8,4.6964448125,12.8134Q4.6288258125,12.8269,4.5651298125,12.8533Q4.5014338125,12.8797,4.4441088125,12.918Q4.3867838125,12.9563,4.3380328125,13.005Q4.2892828125,13.0538,4.2509788125,13.1111Q4.2126758125,13.1684,4.1862918125,13.2321Q4.1599088125,13.2958,4.1464578125,13.3634Q4.1330078125,13.4311,4.1330078125,13.5Q4.1330078125,13.5689,4.1464578125,13.6366Q4.1599088125,13.7042,4.1862918125,13.7679Q4.2126758125,13.8316,4.2509788125,13.8889Q4.2892828125,13.9462,4.3380328125,13.995Q4.3867838125,14.0437,4.4441088125,14.082Q4.5014338125,14.1203,4.5651298125,14.1467Q4.6288258125,14.1731,4.6964448125,14.1865Q4.7640638125,14.2,4.8330078125,14.2L9.680347812499999,14.2Q11.0000278125,14.2,11.9331878125,13.2668Q12.8663378125,12.33369,12.8663378125,11.014Z" fill-rule="evenodd" fill="#FFFFFF" fill-opacity="1"/></g></g></g></svg>