<svg class="svg" width="16" height="16" viewBox="0 0 16 16" xmlns="http://www.w3.org/2000/svg"><path d="M3.81 12.653c1.142 0 1.738-.613 1.943-1.04h.05v.887H6.81V8.187c0-2.079-1.585-2.318-2.42-2.318-.989 0-2.114.341-2.625 1.534l.955.341c.221-.477.745-.988 1.704-.988.925 0 1.38.49 1.38 1.33v.033c0 .486-.494.444-1.687.597-1.214.158-2.54.426-2.54 1.926 0 1.279.99 2.011 2.233 2.011zm.153-.903c-.801 0-1.38-.358-1.38-1.057 0-.767.698-1.005 1.482-1.108.426-.05 1.568-.17 1.739-.375v.92c0 .819-.648 1.62-1.841 1.62zm7.324 3.34c1.568 0 2.83-.715 2.83-2.402V5.955h-.972v1.04h-.102c-.222-.342-.63-1.126-1.91-1.126-1.653 0-2.795 1.313-2.795 3.324 0 2.046 1.193 3.205 2.779 3.205 1.278 0 1.687-.75 1.909-1.108h.085v1.33c0 1.09-.767 1.585-1.824 1.585-1.189 0-1.606-.627-1.875-.99l-.801.563c.41.686 1.214 1.313 2.676 1.313zm-.034-3.596c-1.261 0-1.91-.954-1.91-2.318 0-1.33.632-2.403 1.91-2.403 1.227 0 1.875.988 1.875 2.403 0 1.449-.665 2.318-1.875 2.318z" fill-rule="nonzero" fill-opacity="1" fill="#333" stroke="none"></path></svg>