<svg xmlns="http://www.w3.org/2000/svg" xmlns:xlink="http://www.w3.org/1999/xlink" fill="none" version="1.1" width="16" height="16" viewBox="0 0 16 16"><defs><clipPath id="master_svg0_318_1702"><rect x="0" y="0" width="16" height="16" rx="0"/></clipPath></defs><g clip-path="url(#master_svg0_318_1702)"><g><g><path d="M3,8.7L14,8.7Q14.0689,8.7,14.1366,8.68655Q14.2042,8.673099,14.2679,8.646716Q14.3316,8.620332,14.3889,8.582029Q14.4462,8.543725,14.495,8.494975Q14.5437,8.446224,14.582,8.388899Q14.6203,8.331574,14.6467,8.267878Q14.6731,8.204182,14.6865,8.136563Q14.7,8.068944,14.7,8Q14.7,7.931056,14.6865,7.863437Q14.6731,7.795818,14.6467,7.732122Q14.6203,7.668426,14.582,7.611101Q14.5437,7.553776,14.495,7.505025Q14.4462,7.456275,14.3889,7.417971Q14.3316,7.379668,14.2679,7.353284Q14.2042,7.326901,14.1366,7.31345Q14.0689,7.3,14,7.3L3,7.3Q2.931056,7.3,2.8634370000000002,7.31345Q2.795818,7.326901,2.732122,7.353284Q2.668426,7.379668,2.611101,7.417971Q2.553776,7.456275,2.505025,7.505025Q2.4562749999999998,7.553776,2.417971,7.611101Q2.379668,7.668426,2.353284,7.732122Q2.326901,7.795818,2.31345,7.863437Q2.3,7.931056,2.3,8Q2.3,8.068944,2.31345,8.136563Q2.326901,8.204182,2.353284,8.267878Q2.379668,8.331574,2.417971,8.388899Q2.4562749999999998,8.446224,2.505025,8.494975Q2.553776,8.543725,2.611101,8.582029Q2.668426,8.620332,2.732122,8.646716Q2.795818,8.673099,2.8634370000000002,8.68655Q2.931056,8.7,3,8.7Z" fill-rule="evenodd" fill="#000000" fill-opacity="1"/></g><g><path d="M8.278351953125,8.664010000000001L8.278561953125,8.66408Q8.386321953125,8.7,8.499921953125,8.7Q8.519241953125,8.7,8.538541953125,8.69893Q8.643631953125,8.69313,8.742361953125,8.65668Q8.841091953125,8.62023,8.924731953125,8.55636Q9.008381953125,8.49249,9.069551953125,8.406839999999999Q9.130711953125001,8.321200000000001,9.164001953125,8.22136Q9.199921953125,8.11359,9.199921953125,8Q9.199921953125,7.99257,9.199761953125,7.98514Q9.196421953125,7.82775,9.126011953125001,7.68695Q9.063741953125,7.56241,8.958561953124999,7.47118Q8.853371953125,7.37995,8.721271953125001,7.33592L8.721061953125,7.33585L6.754461953125,6.68032Q6.207491953125,6.498,5.870371953125,6.03027Q5.533251953125,5.56254,5.533251953125,4.98598Q5.533251953125,4.2462,6.0563519531250005,3.7231Q6.579461953125,3.2,7.319251953125001,3.2L11.118961953125,3.2Q11.187901953125,3.2,11.255521953125001,3.18655Q11.323141953124999,3.173099,11.386831953125,3.146716Q11.450531953125001,3.120332,11.507851953125,3.082029Q11.565181953125,3.0437250000000002,11.613931953125,2.994975Q11.662681953125,2.946224,11.700981953125,2.888899Q11.739291953125,2.831574,11.765671953125,2.767878Q11.792051953125,2.704182,11.805501953124999,2.6365629999999998Q11.818951953125,2.568944,11.818951953125,2.5Q11.818951953125,2.431056,11.805501953124999,2.3634370000000002Q11.792051953125,2.295818,11.765671953125,2.232122Q11.739291953125,2.168426,11.700981953125,2.111101Q11.662681953125,2.053776,11.613931953125,2.005025Q11.565181953125,1.956275,11.507851953125,1.917971Q11.450531953125001,1.8796680000000001,11.386831953125,1.853284Q11.323141953124999,1.8269009999999999,11.255521953125001,1.81345Q11.187901953125,1.8,11.118961953125,1.8L7.319251953125001,1.8Q5.999561953125,1.8,5.066406953125,2.733151Q4.133251953125,3.6662999999999997,4.133251953125,4.98598Q4.133251953125,6.01449,4.734629653125,6.84886Q5.336011953125,7.68324,6.311741953125,8.008479999999999L8.278351953125,8.664010000000001ZM12.866581953125,11.014Q12.866581953125,10.20848,12.484261953125,9.50066Q12.439261953125001,9.417349999999999,12.373751953125,9.34899Q12.308241953125,9.28064,12.226921953125,9.232140000000001Q12.145601953125,9.18364,12.054321953125001,9.15849Q11.963041953125,9.13333,11.868361953125,9.13333L11.855731953125,9.13345Q11.685491953125,9.13652,11.535691953125,9.21744Q11.452381953125,9.26243,11.384021953125,9.32794Q11.315661953125,9.393460000000001,11.267171953125,9.47477Q11.218671953125,9.556090000000001,11.193511953125,9.647369999999999Q11.168361953125,9.73865,11.168361953125,9.83333L11.168471953125,9.84596Q11.171551953125,10.016200000000001,11.252461953125,10.16601L11.252481953124999,10.166039999999999L11.252781953125,10.16659Q11.466581953125,10.56275,11.466581953125,11.014Q11.466581953125,11.75379,10.943481953125,12.27689Q10.420371953124999,12.8,9.680591953124999,12.8L4.833251953125,12.8Q4.764307953125,12.8,4.696688953125,12.8134Q4.629069953125,12.8269,4.565373953125,12.8533Q4.501677953125,12.8797,4.444352953125,12.918Q4.387027953125,12.9563,4.338276953125,13.005Q4.289526953125,13.0538,4.251222953125,13.1111Q4.212919953125,13.1684,4.186535953125,13.2321Q4.160152953125,13.2958,4.146701953125,13.3634Q4.133251953125,13.4311,4.133251953125,13.5Q4.133251953125,13.5689,4.146701953125,13.6366Q4.160152953125,13.7042,4.186535953125,13.7679Q4.212919953125,13.8316,4.251222953125,13.8889Q4.289526953125,13.9462,4.338276953125,13.995Q4.387027953125,14.0437,4.444352953125,14.082Q4.501677953125,14.1203,4.565373953125,14.1467Q4.629069953125,14.1731,4.696688953125,14.1865Q4.764307953125,14.2,4.833251953125,14.2L9.680591953124999,14.2Q11.000271953125,14.2,11.933431953125,13.2668Q12.866581953125,12.33369,12.866581953125,11.014Z" fill-rule="evenodd" fill="#000000" fill-opacity="1"/></g></g></g></svg>