<svg xmlns="http://www.w3.org/2000/svg" xmlns:xlink="http://www.w3.org/1999/xlink" fill="none" version="1.1" width="14" height="14" viewBox="0 0 14 14"><g><path d="M3.724,4.628Q4.84,4.628,5.53,5.288Q6.22,5.948,6.22,7.184L6.22,11L5.14,11Q5.14,10.46,5.092,10.232Q4.516,11.132,3.244,11.132Q2.62,11.132,2.098,10.904Q1.576,10.676,1.264,10.244Q0.952,9.812,0.952,9.2Q0.952,8.276,1.708,7.736Q2.464,7.196,3.64,7.196Q4.3,7.196,4.996,7.376L4.996,7.352Q4.996,6.5,4.66,6.098Q4.324,5.696,3.652,5.696Q3.112,5.696,2.746,5.93Q2.38,6.164,2.128,6.608L1.216,6.08Q1.516,5.42,2.188,5.024Q2.86,4.628,3.724,4.628ZM4.996,8.312Q4.276,8.132,3.736,8.132Q3.016,8.132,2.62,8.408Q2.224,8.684,2.224,9.176Q2.224,9.62,2.548,9.878Q2.872,10.136,3.4,10.136Q4.06,10.136,4.528,9.758Q4.996,9.38,4.996,8.708L4.996,8.312ZM10.348,4.628Q11.464,4.628,12.154,5.288Q12.844,5.948,12.844,7.184L12.844,11L11.764,11Q11.764,10.46,11.716,10.232Q11.14,11.132,9.868,11.132Q9.244,11.132,8.722,10.904Q8.2,10.676,7.888,10.244Q7.576,9.812,7.576,9.2Q7.576,8.276,8.332,7.736Q9.088,7.196,10.264,7.196Q10.924,7.196,11.62,7.376L11.62,7.352Q11.62,6.5,11.284,6.098Q10.948,5.696,10.276,5.696Q9.736,5.696,9.37,5.93Q9.004,6.164,8.752,6.608L7.84,6.08Q8.14,5.42,8.812,5.024Q9.484,4.628,10.348,4.628ZM11.62,8.312Q10.9,8.132,10.36,8.132Q9.64,8.132,9.244,8.408Q8.848,8.684,8.848,9.176Q8.848,9.62,9.172,9.878Q9.496,10.136,10.024,10.136Q10.684,10.136,11.152,9.758Q11.62,9.38,11.62,8.708L11.62,8.312Z" fill="#000000" fill-opacity="1"/></g></svg>