<svg xmlns="http://www.w3.org/2000/svg" xmlns:xlink="http://www.w3.org/1999/xlink" fill="none" version="1.1" width="16" height="16" viewBox="0 0 16 16"><defs><clipPath id="master_svg0_747_12615"><rect x="0" y="0" width="16" height="16" rx="0"/></clipPath></defs><g clip-path="url(#master_svg0_747_12615)"><g><path d="M2.6494140625,4.6332763671875L13.3161140625,4.6332763671875Q13.3801140625,4.6332763671875,13.4429140625,4.6207863671875Q13.5057140625,4.6082973671875,13.5648140625,4.5837983671875Q13.6240140625,4.5592983671875,13.6772140625,4.5237313671875Q13.7304140625,4.4881643671875,13.7757140625,4.4428953671875Q13.8210140625,4.3976273671875,13.8565140625,4.3443973671875Q13.8921140625,4.2911663671875,13.9166140625,4.2320203671875Q13.9411140625,4.1728743671875,13.9536140625,4.1100853671875Q13.9661140625,4.0472957671875,13.9661140625,3.9832763671875Q13.9661140625,3.9192569671875,13.9536140625,3.8564673671875Q13.9411140625,3.7936783671875,13.9166140625,3.7345323671875Q13.8921140625,3.6753863671875,13.8565140625,3.6221553671875Q13.8210140625,3.5689253671875,13.7757140625,3.5236573671875Q13.7304140625,3.4783883671874998,13.6772140625,3.4428213671875Q13.6240140625,3.4072543671875,13.5648140625,3.3827543671875Q13.5057140625,3.3582553671874997,13.4429140625,3.3457663671875Q13.3801140625,3.3332763671875,13.3161140625,3.3332763671875L2.6494140625,3.3332763671875Q2.5853946625,3.3332763671875,2.5226050625,3.3457663671875Q2.4598160625,3.3582553671874997,2.4006700625,3.3827543671875Q2.3415240625,3.4072543671875,2.2882930625,3.4428213671875Q2.2350630625,3.4783883671874998,2.1897950625,3.5236573671875Q2.1445260624999998,3.5689253671875,2.1089590625,3.6221553671875Q2.0733920625,3.6753863671875,2.0488920625,3.7345323671875Q2.0243930624999997,3.7936783671875,2.0119040625,3.8564673671875Q1.9994140625,3.9192569671875,1.9994140625,3.9832763671875Q1.9994140625,4.0472957671875,2.0119040625,4.1100853671875Q2.0243930624999997,4.1728743671875,2.0488920625,4.2320203671875Q2.0733920625,4.2911663671875,2.1089590625,4.3443973671875Q2.1445260624999998,4.3976273671875,2.1897950625,4.4428953671875Q2.2350630625,4.4881643671875,2.2882930625,4.5237313671875Q2.3415240625,4.5592983671875,2.4006700625,4.5837983671875Q2.4598160625,4.6082973671875,2.5226050625,4.6207863671875Q2.5853946625,4.6332763671875,2.6494140625,4.6332763671875Z" fill-rule="evenodd" fill="#262626" fill-opacity="1"/></g><g><path d="M2.6494140625,8.6332763671875L13.3161140625,8.6332763671875Q13.3801140625,8.6332763671875,13.4429140625,8.6207863671875Q13.5057140625,8.6082973671875,13.5648140625,8.5837983671875Q13.6240140625,8.5592983671875,13.6772140625,8.5237313671875Q13.7304140625,8.4881643671875,13.7757140625,8.4428953671875Q13.8210140625,8.3976273671875,13.8565140625,8.3443973671875Q13.8921140625,8.2911663671875,13.9166140625,8.2320203671875Q13.9411140625,8.1728743671875,13.9536140625,8.1100853671875Q13.9661140625,8.0472957671875,13.9661140625,7.9832763671875Q13.9661140625,7.9192569671875,13.9536140625,7.8564673671875Q13.9411140625,7.7936783671875,13.9166140625,7.7345323671875Q13.8921140625,7.6753863671875,13.8565140625,7.6221553671875Q13.8210140625,7.5689253671875,13.7757140625,7.5236573671875Q13.7304140625,7.4783883671875,13.6772140625,7.4428213671875Q13.6240140625,7.4072543671875,13.5648140625,7.3827543671875Q13.5057140625,7.3582553671875,13.4429140625,7.3457663671875Q13.3801140625,7.3332763671875,13.3161140625,7.3332763671875L2.6494140625,7.3332763671875Q2.5853946625,7.3332763671875,2.5226050625,7.3457663671875Q2.4598160625,7.3582553671875,2.4006700625,7.3827543671875Q2.3415240625,7.4072543671875,2.2882930625,7.4428213671875Q2.2350630625,7.4783883671875,2.1897950625,7.5236573671875Q2.1445260624999998,7.5689253671875,2.1089590625,7.6221553671875Q2.0733920625,7.6753863671875,2.0488920625,7.7345323671875Q2.0243930624999997,7.7936783671875,2.0119040625,7.8564673671875Q1.9994140625,7.9192569671875,1.9994140625,7.9832763671875Q1.9994140625,8.0472957671875,2.0119040625,8.1100853671875Q2.0243930624999997,8.1728743671875,2.0488920625,8.2320203671875Q2.0733920625,8.2911663671875,2.1089590625,8.3443973671875Q2.1445260624999998,8.3976273671875,2.1897950625,8.4428953671875Q2.2350630625,8.4881643671875,2.2882930625,8.5237313671875Q2.3415240625,8.5592983671875,2.4006700625,8.5837983671875Q2.4598160625,8.6082973671875,2.5226050625,8.6207863671875Q2.5853946625,8.6332763671875,2.6494140625,8.6332763671875Z" fill-rule="evenodd" fill="#262626" fill-opacity="1"/></g><g><path d="M2.6494140625,12.6332763671875L13.3161140625,12.6332763671875Q13.3801140625,12.6332763671875,13.4429140625,12.6207863671875Q13.5057140625,12.6082973671875,13.5648140625,12.5837983671875Q13.6240140625,12.5592983671875,13.6772140625,12.5237313671875Q13.7304140625,12.4881643671875,13.7757140625,12.4428953671875Q13.8210140625,12.3976273671875,13.8565140625,12.3443973671875Q13.8921140625,12.2911663671875,13.9166140625,12.2320203671875Q13.9411140625,12.1728743671875,13.9536140625,12.1100853671875Q13.9661140625,12.0472957671875,13.9661140625,11.9832763671875Q13.9661140625,11.9192569671875,13.9536140625,11.8564673671875Q13.9411140625,11.7936783671875,13.9166140625,11.7345323671875Q13.8921140625,11.6753863671875,13.8565140625,11.6221553671875Q13.8210140625,11.5689253671875,13.7757140625,11.5236573671875Q13.7304140625,11.4783883671875,13.6772140625,11.4428213671875Q13.6240140625,11.4072543671875,13.5648140625,11.3827543671875Q13.5057140625,11.3582553671875,13.4429140625,11.3457663671875Q13.3801140625,11.3332763671875,13.3161140625,11.3332763671875L2.6494140625,11.3332763671875Q2.5853946625,11.3332763671875,2.5226050625,11.3457663671875Q2.4598160625,11.3582553671875,2.4006700625,11.3827543671875Q2.3415240625,11.4072543671875,2.2882930625,11.4428213671875Q2.2350630625,11.4783883671875,2.1897950625,11.5236573671875Q2.1445260624999998,11.5689253671875,2.1089590625,11.6221553671875Q2.0733920625,11.6753863671875,2.0488920625,11.7345323671875Q2.0243930624999997,11.7936783671875,2.0119040625,11.8564673671875Q1.9994140625,11.9192569671875,1.9994140625,11.9832763671875Q1.9994140625,12.0472957671875,2.0119040625,12.1100853671875Q2.0243930624999997,12.1728743671875,2.0488920625,12.2320203671875Q2.0733920625,12.2911663671875,2.1089590625,12.3443973671875Q2.1445260624999998,12.3976273671875,2.1897950625,12.4428953671875Q2.2350630625,12.4881643671875,2.2882930625,12.5237313671875Q2.3415240625,12.5592983671875,2.4006700625,12.5837983671875Q2.4598160625,12.6082973671875,2.5226050625,12.6207863671875Q2.5853946625,12.6332763671875,2.6494140625,12.6332763671875Z" fill-rule="evenodd" fill="#262626" fill-opacity="1"/></g></g></svg>