<svg xmlns="http://www.w3.org/2000/svg" xmlns:xlink="http://www.w3.org/1999/xlink"
    version="1.1" width="16" height="16" viewBox="0 0 16 16">
    <defs>
        <clipPath id="master_svg0_57_893">
            <rect x="0" y="0" width="16" height="16" rx="0" />
        </clipPath>
    </defs>
    <g clip-path="url(#master_svg0_57_893)">
        <g>
            <path
                d="M2,3.35L14,3.35Q14.064,3.35,14.1268,3.36249Q14.1896,3.3749789999999997,14.2487,3.399478Q14.3079,3.423978,14.3611,3.459545Q14.4143,3.4951119999999998,14.4596,3.540381Q14.5049,3.585649,14.5405,3.638879Q14.576,3.69211,14.6005,3.751256Q14.625,3.810402,14.6375,3.873191Q14.65,3.9359806,14.65,4Q14.65,4.0640194,14.6375,4.126809Q14.625,4.189598,14.6005,4.248744Q14.576,4.30789,14.5405,4.361121Q14.5049,4.414351,14.4596,4.459619Q14.4143,4.504888,14.3611,4.540455Q14.3079,4.576022,14.2487,4.600522Q14.1896,4.625021,14.1268,4.63751Q14.064,4.65,14,4.65L2,4.65Q1.9359806,4.65,1.873191,4.63751Q1.810402,4.625021,1.751256,4.600522Q1.69211,4.576022,1.638879,4.540455Q1.585649,4.504888,1.540381,4.459619Q1.495112,4.414351,1.4595449999999999,4.361121Q1.423978,4.30789,1.399478,4.248744Q1.374979,4.189598,1.36249,4.126809Q1.35,4.0640194,1.35,4Q1.35,3.9359806,1.36249,3.873191Q1.374979,3.810402,1.399478,3.751256Q1.423978,3.69211,1.4595449999999999,3.638879Q1.495112,3.585649,1.540381,3.540381Q1.585649,3.4951119999999998,1.638879,3.459545Q1.69211,3.423978,1.751256,3.399478Q1.810402,3.3749789999999997,1.873191,3.36249Q1.9359806,3.35,2,3.35Z"
                fill-rule="evenodd" fill="inherit" fill-opacity="1" />
        </g>
        <g>
            <path
                d="M2,6.016748046875L14,6.016748046875Q14.064,6.016748046875,14.1268,6.029238046875Q14.1896,6.041727046875,14.2487,6.066226046875Q14.3079,6.090726046875,14.3611,6.126293046875Q14.4143,6.161860046875,14.4596,6.207129046875Q14.5049,6.252397046875,14.5405,6.305627046875Q14.576,6.358858046875,14.6005,6.418004046875Q14.625,6.477150046875,14.6375,6.539939046875Q14.65,6.602728646875,14.65,6.666748046875Q14.65,6.730767446875,14.6375,6.793557046875Q14.625,6.856346046875,14.6005,6.915492046875Q14.576,6.974638046875,14.5405,7.027869046875Q14.5049,7.081099046875,14.4596,7.126367046875Q14.4143,7.171636046875,14.3611,7.207203046875Q14.3079,7.242770046875,14.2487,7.267270046875Q14.1896,7.291769046875,14.1268,7.304258046875Q14.064,7.316748046875,14,7.316748046875L2,7.316748046875Q1.9359806,7.316748046875,1.873191,7.304258046875Q1.810402,7.291769046875,1.751256,7.267270046875Q1.69211,7.242770046875,1.638879,7.207203046875Q1.585649,7.171636046875,1.540381,7.126367046875Q1.495112,7.081099046875,1.4595449999999999,7.027869046875Q1.423978,6.974638046875,1.399478,6.915492046875Q1.374979,6.856346046875,1.36249,6.793557046875Q1.35,6.730767446875,1.35,6.666748046875Q1.35,6.602728646875,1.36249,6.539939046875Q1.374979,6.477150046875,1.399478,6.418004046875Q1.423978,6.358858046875,1.4595449999999999,6.305627046875Q1.495112,6.252397046875,1.540381,6.207129046875Q1.585649,6.161860046875,1.638879,6.126293046875Q1.69211,6.090726046875,1.751256,6.066226046875Q1.810402,6.041727046875,1.873191,6.029238046875Q1.9359806,6.016748046875,2,6.016748046875Z"
                fill-rule="evenodd" fill="inherit" fill-opacity="1" />
        </g>
        <g>
            <path
                d="M2,8.683251953125L14,8.683251953125Q14.064,8.683251953125,14.1268,8.695741953125Q14.1896,8.708230953125,14.2487,8.732729953125Q14.3079,8.757229953125,14.3611,8.792796953125Q14.4143,8.828363953125,14.4596,8.873632953125Q14.5049,8.918900953125,14.5405,8.972130953125Q14.576,9.025361953125,14.6005,9.084507953125Q14.625,9.143653953125,14.6375,9.206442953125Q14.65,9.269232553125,14.65,9.333251953125Q14.65,9.397271353125,14.6375,9.460060953125Q14.625,9.522849953125,14.6005,9.581995953125Q14.576,9.641141953125,14.5405,9.694372953125Q14.5049,9.747602953125,14.4596,9.792870953125Q14.4143,9.838139953125,14.3611,9.873706953125Q14.3079,9.909273953125,14.2487,9.933773953125Q14.1896,9.958272953125,14.1268,9.970761953125Q14.064,9.983251953125,14,9.983251953125L2,9.983251953125Q1.9359806,9.983251953125,1.873191,9.970761953125Q1.810402,9.958272953125,1.751256,9.933773953125Q1.69211,9.909273953125,1.638879,9.873706953125Q1.585649,9.838139953125,1.540381,9.792870953125Q1.495112,9.747602953125,1.4595449999999999,9.694372953125Q1.423978,9.641141953125,1.399478,9.581995953125Q1.374979,9.522849953125,1.36249,9.460060953125Q1.35,9.397271353125,1.35,9.333251953125Q1.35,9.269232553125,1.36249,9.206442953125Q1.374979,9.143653953125,1.399478,9.084507953125Q1.423978,9.025361953125,1.4595449999999999,8.972130953125Q1.495112,8.918900953125,1.540381,8.873632953125Q1.585649,8.828363953125,1.638879,8.792796953125Q1.69211,8.757229953125,1.751256,8.732729953125Q1.810402,8.708230953125,1.873191,8.695741953125Q1.9359806,8.683251953125,2,8.683251953125Z"
                fill-rule="evenodd" fill="inherit" fill-opacity="1" />
        </g>
        <g>
            <path
                d="M2,11.35L14,11.35Q14.064,11.35,14.1268,11.36249Q14.1896,11.374979,14.2487,11.399478Q14.3079,11.423978,14.3611,11.459545Q14.4143,11.495112,14.4596,11.540381Q14.5049,11.585649,14.5405,11.638879Q14.576,11.69211,14.6005,11.751256Q14.625,11.810402,14.6375,11.873191Q14.65,11.9359806,14.65,12Q14.65,12.0640194,14.6375,12.126809Q14.625,12.189598,14.6005,12.248744Q14.576,12.30789,14.5405,12.361121Q14.5049,12.414351,14.4596,12.459619Q14.4143,12.504888,14.3611,12.540455Q14.3079,12.576022,14.2487,12.600522Q14.1896,12.625021,14.1268,12.63751Q14.064,12.65,14,12.65L2,12.65Q1.9359806,12.65,1.873191,12.63751Q1.810402,12.625021,1.751256,12.600522Q1.69211,12.576022,1.638879,12.540455Q1.585649,12.504888,1.540381,12.459619Q1.495112,12.414351,1.4595449999999999,12.361121Q1.423978,12.30789,1.399478,12.248744Q1.374979,12.189598,1.36249,12.126809Q1.35,12.0640194,1.35,12Q1.35,11.9359806,1.36249,11.873191Q1.374979,11.810402,1.399478,11.751256Q1.423978,11.69211,1.4595449999999999,11.638879Q1.495112,11.585649,1.540381,11.540381Q1.585649,11.495112,1.638879,11.459545Q1.69211,11.423978,1.751256,11.399478Q1.810402,11.374979,1.873191,11.36249Q1.9359806,11.35,2,11.35Z"
                fill-rule="evenodd" fill="inherit" fill-opacity="1" />
        </g>
    </g>
</svg>