<svg width="14" height="14" viewBox="0 0 14 14" fill="none" xmlns="http://www.w3.org/2000/svg">
<path d="M2.76731 12L4.45765 1.81818H8.35538C9.09118 1.81818 9.68445 1.93419 10.1352 2.16619C10.586 2.39489 10.8992 2.7081 11.0748 3.10582C11.2538 3.50355 11.3002 3.95431 11.214 4.4581C11.1444 4.86908 11.0052 5.22206 10.7964 5.51705C10.5909 5.80871 10.339 6.04735 10.0407 6.23295C9.74245 6.41525 9.42261 6.54616 9.08123 6.62571L9.06135 6.72514C9.4193 6.74171 9.74743 6.85109 10.0457 7.05327C10.344 7.25544 10.5694 7.54048 10.7219 7.90838C10.8743 8.27296 10.9091 8.71212 10.8263 9.22585C10.7368 9.75284 10.5296 10.2268 10.2048 10.6477C9.88 11.0653 9.43919 11.3951 8.88237 11.6371C8.32886 11.879 7.66433 12 6.88876 12H2.76731ZM4.87029 10.4588H6.85396C7.52015 10.4588 8.02394 10.3312 8.36532 10.076C8.70671 9.81747 8.91054 9.48603 8.97683 9.08168C9.02654 8.78007 8.99672 8.50829 8.88734 8.26634C8.77797 8.02107 8.59733 7.82884 8.34544 7.68963C8.09354 7.54711 7.77868 7.47585 7.40083 7.47585H5.36248L4.87029 10.4588ZM5.59118 6.14844H7.41575C7.73393 6.14844 8.02891 6.09044 8.30069 5.97443C8.57579 5.85511 8.80448 5.68774 8.98677 5.4723C9.17238 5.25355 9.28672 4.99503 9.32981 4.69673C9.39941 4.30232 9.31655 3.97751 9.08123 3.7223C8.84591 3.46709 8.45813 3.33949 7.91788 3.33949H6.04856L5.59118 6.14844Z" fill="black"/>
</svg>
