<svg xmlns="http://www.w3.org/2000/svg" xmlns:xlink="http://www.w3.org/1999/xlink" fill="none" version="1.1" width="16" height="16" viewBox="0 0 16 16"><defs><clipPath id="master_svg0_403_2851"><rect x="0" y="0" width="16" height="16" rx="0"/></clipPath></defs><g clip-path="url(#master_svg0_403_2851)"><g><path d="M5.33333,2.6663408125L14,2.6663408125L14,3.9996778125L5.33333,3.9996778125L5.33333,2.6663408125ZM3,4.3330078125C2.4477130000000002,4.3330078125,2,3.8852978125,2,3.3330078125C2,2.7807208125000002,2.4477130000000002,2.3330078125,3,2.3330078125C3.55229,2.3330078125,4,2.7807208125000002,4,3.3330078125C4,3.8852978125,3.55229,4.3330078125,3,4.3330078125ZM3,8.9996778125C2.4477130000000002,8.9996778125,2,8.5519378125,2,7.9996778125C2,7.4474078125,2.4477130000000002,6.9996778125,3,6.9996778125C3.55229,6.9996778125,4,7.4474078125,4,7.9996778125C4,8.5519378125,3.55229,8.9996778125,3,8.9996778125ZM3,13.5997078125C2.4477130000000002,13.5997078125,2,13.1519078125,2,12.5997078125C2,12.0474078125,2.4477130000000002,11.5996778125,3,11.5996778125C3.55229,11.5996778125,4,12.0474078125,4,12.5997078125C4,13.1519078125,3.55229,13.5997078125,3,13.5997078125ZM5.33333,7.3330078125L14,7.3330078125L14,8.6663378125L5.33333,8.6663378125L5.33333,7.3330078125ZM5.33333,11.9996778125L14,11.9996778125L14,13.3330078125L5.33333,13.3330078125L5.33333,11.9996778125Z" fill="#000000" fill-opacity="1"/></g></g></svg>