<svg xmlns="http://www.w3.org/2000/svg" xmlns:xlink="http://www.w3.org/1999/xlink" fill="none" version="1.1" width="20" height="20" viewBox="0 0 20 20"><defs><clipPath id="master_svg0_39_740"><rect x="0" y="0" width="20" height="20" rx="0"/></clipPath></defs><g clip-path="url(#master_svg0_39_740)"><g><path d="M16.01679609375,3.15L16.01679609375,4.555540000000001Q16.01679609375,4.61956,16.02929609375,4.68235Q16.04179609375,4.74514,16.066296093749997,4.80429Q16.09079609375,4.86343,16.12639609375,4.91666Q16.161896093750002,4.9698899999999995,16.20719609375,5.01516Q16.25249609375,5.06043,16.30569609375,5.096Q16.358896093749998,5.13156,16.418096093750002,5.15606Q16.477196093750003,5.18056,16.53999609375,5.1930499999999995Q16.60279609375,5.20554,16.66679609375,5.20554Q16.730896093749998,5.20554,16.79359609375,5.1930499999999995Q16.85639609375,5.18056,16.91559609375,5.15606Q16.974696093749998,5.13156,17.027996093749998,5.096Q17.081196093750002,5.06043,17.12649609375,5.01516Q17.17169609375,4.9698899999999995,17.20729609375,4.91666Q17.242896093749998,4.86343,17.26739609375,4.80429Q17.291896093749997,4.74514,17.30429609375,4.68235Q17.31679609375,4.61956,17.31679609375,4.555540000000001L17.31679609375,2.5Q17.31679609375,2.4359806,17.30429609375,2.373191Q17.291896093749997,2.310402,17.26739609375,2.251256Q17.242896093749998,2.19211,17.20729609375,2.138879Q17.17169609375,2.085649,17.12649609375,2.040381Q17.081196093750002,1.995112,17.027996093749998,1.9595449999999999Q16.974696093749998,1.923978,16.91559609375,1.899478Q16.85639609375,1.874979,16.79359609375,1.86249Q16.730896093749998,1.85,16.66679609375,1.85L3.33349609375,1.85Q3.26947669375,1.85,3.20668709375,1.86249Q3.14389809375,1.874979,3.08475209375,1.899478Q3.02560609375,1.923978,2.97237509375,1.9595449999999999Q2.91914509375,1.995112,2.87387709375,2.040381Q2.8286080937499998,2.085649,2.79304109375,2.138879Q2.75747409375,2.19211,2.73297409375,2.251256Q2.7084750937499997,2.310402,2.69598609375,2.373191Q2.68349609375,2.4359806,2.68349609375,2.5L2.68349609375,4.555540000000001Q2.68349609375,4.61956,2.69598609375,4.68235Q2.7084750937499997,4.74514,2.73297409375,4.80429Q2.75747409375,4.86343,2.79304109375,4.91666Q2.8286080937499998,4.9698899999999995,2.87387709375,5.01516Q2.91914509375,5.06043,2.97237509375,5.096Q3.02560609375,5.13156,3.08475209375,5.15606Q3.14389809375,5.18056,3.20668709375,5.1930499999999995Q3.26947669375,5.20554,3.33349609375,5.20554Q3.39751549375,5.20554,3.46030509375,5.1930499999999995Q3.52309409375,5.18056,3.58224009375,5.15606Q3.64138609375,5.13156,3.69461709375,5.096Q3.74784709375,5.06043,3.79311509375,5.01516Q3.8383840937500002,4.9698899999999995,3.87395109375,4.91666Q3.90951809375,4.86343,3.93401809375,4.80429Q3.9585170937500003,4.74514,3.97100609375,4.68235Q3.98349609375,4.61956,3.98349609375,4.555540000000001L3.98349609375,3.15L16.01679609375,3.15Z" fill-rule="evenodd" fill="#FFFFFF" fill-opacity="1"/></g><g><path d="M9.35,2.5L9.35,17.5Q9.35,17.564,9.36249,17.6268Q9.374979,17.6896,9.399478,17.7487Q9.423978,17.8079,9.459545,17.8611Q9.495112,17.9143,9.540381,17.959600000000002Q9.585649,18.0049,9.638879,18.0405Q9.69211,18.076,9.751256,18.1005Q9.810402,18.125,9.873191,18.1375Q9.9359806,18.15,10,18.15Q10.0640194,18.15,10.126809,18.1375Q10.189598,18.125,10.248744,18.1005Q10.30789,18.076,10.361121,18.0405Q10.414351,18.0049,10.459619,17.959600000000002Q10.504888,17.9143,10.540455,17.8611Q10.576022,17.8079,10.600522,17.7487Q10.625021,17.6896,10.63751,17.6268Q10.65,17.564,10.65,17.5L10.65,2.5Q10.65,2.4359806,10.63751,2.373191Q10.625021,2.310402,10.600522,2.251256Q10.576022,2.19211,10.540455,2.138879Q10.504888,2.085649,10.459619,2.040381Q10.414351,1.995112,10.361121,1.9595449999999999Q10.30789,1.923978,10.248744,1.899478Q10.189598,1.874979,10.126809,1.86249Q10.0640194,1.85,10,1.85Q9.9359806,1.85,9.873191,1.86249Q9.810402,1.874979,9.751256,1.899478Q9.69211,1.923978,9.638879,1.9595449999999999Q9.585649,1.995112,9.540381,2.040381Q9.495112,2.085649,9.459545,2.138879Q9.423978,2.19211,9.399478,2.251256Q9.374979,2.310402,9.36249,2.373191Q9.35,2.4359806,9.35,2.5Z" fill-rule="evenodd" fill="#FFFFFF" fill-opacity="1"/></g><g><path d="M6.66650390625,18.15L13.33317390625,18.15Q13.39719390625,18.15,13.45997390625,18.13751Q13.522763906249999,18.125021,13.58191390625,18.100522Q13.64106390625,18.076022000000002,13.69429390625,18.040455Q13.747523906249999,18.004888,13.792793906250001,17.959619Q13.83805390625,17.914351,13.87362390625,17.861121Q13.90919390625,17.80789,13.93369390625,17.748744Q13.95819390625,17.689598,13.970683906249999,17.626809Q13.98317390625,17.5640194,13.98317390625,17.5Q13.98317390625,17.4359806,13.970683906249999,17.373191Q13.95819390625,17.310402,13.93369390625,17.251256Q13.90919390625,17.19211,13.87362390625,17.138879Q13.83805390625,17.085649,13.792793906250001,17.040381Q13.747523906249999,16.995112,13.69429390625,16.959545Q13.64106390625,16.923977999999998,13.58191390625,16.899478Q13.522763906249999,16.874979,13.45997390625,16.86249Q13.39719390625,16.85,13.33317390625,16.85L6.66650390625,16.85Q6.60248450625,16.85,6.53969490625,16.86249Q6.47690590625,16.874979,6.41775990625,16.899478Q6.35861390625,16.923977999999998,6.30538290625,16.959545Q6.25215290625,16.995112,6.20688490625,17.040381Q6.16161590625,17.085649,6.12604890625,17.138879Q6.09048190625,17.19211,6.06598190625,17.251256Q6.04148290625,17.310402,6.02899390625,17.373191Q6.01650390625,17.4359806,6.01650390625,17.5Q6.01650390625,17.5640194,6.02899390625,17.626809Q6.04148290625,17.689598,6.06598190625,17.748744Q6.09048190625,17.80789,6.12604890625,17.861121Q6.16161590625,17.914351,6.20688490625,17.959619Q6.25215290625,18.004888,6.30538290625,18.040455Q6.35861390625,18.076022000000002,6.41775990625,18.100522Q6.47690590625,18.125021,6.53969490625,18.13751Q6.60248450625,18.15,6.66650390625,18.15Z" fill-rule="evenodd" fill="#FFFFFF" fill-opacity="1"/></g></g></svg>