<svg xmlns="http://www.w3.org/2000/svg" xmlns:xlink="http://www.w3.org/1999/xlink" fill="none" version="1.1" width="14" height="14" viewBox="0 0 14 14"><defs><clipPath id="master_svg0_747_6107"><rect x="0" y="0" width="14" height="14" rx="0"/></clipPath></defs><g clip-path="url(#master_svg0_747_6107)"><g><path d="M11.06682609375,2.35L11.06682609375,3.18888Q11.06682609375,3.24797,11.07835609375,3.30593Q11.08988609375,3.36389,11.11250609375,3.4184900000000003Q11.13511609375,3.47309,11.16794609375,3.52222Q11.20077609375,3.5713600000000003,11.24256609375,3.61314Q11.28434609375,3.6549300000000002,11.33348609375,3.68776Q11.38262609375,3.72059,11.43721609375,3.74321Q11.49181609375,3.76582,11.54977609375,3.77735Q11.60773609375,3.78888,11.66682609375,3.78888Q11.72592609375,3.78888,11.78388609375,3.77735Q11.84184609375,3.76582,11.89643609375,3.74321Q11.95103609375,3.72059,12.00017609375,3.68776Q12.04930609375,3.6549300000000002,12.09109609375,3.61314Q12.13287609375,3.5713600000000003,12.16571609375,3.52222Q12.19854609375,3.47309,12.22115609375,3.4184900000000003Q12.24377609375,3.36389,12.25530609375,3.30593Q12.26682609375,3.24797,12.26682609375,3.18888L12.26682609375,1.75Q12.26682609375,1.6909052,12.25530609375,1.632946Q12.24377609375,1.574986,12.22115609375,1.52039Q12.19854609375,1.4657930000000001,12.16570609375,1.416658Q12.13287609375,1.3675220000000001,12.09109609375,1.325736Q12.04930609375,1.28395,12.00016609375,1.251118Q11.95103609375,1.2182870000000001,11.89643609375,1.195672Q11.84184609375,1.1730580000000002,11.78388609375,1.161529Q11.72592609375,1.15,11.66682609375,1.15L2.33349609375,1.15Q2.27440129375,1.15,2.21644209375,1.161529Q2.15848209375,1.1730580000000002,2.10388609375,1.195672Q2.04928909375,1.2182870000000001,2.00015409375,1.251118Q1.9510180937500001,1.28395,1.90923209375,1.325736Q1.86744609375,1.3675220000000001,1.83461409375,1.416658Q1.8017830937500001,1.4657930000000001,1.77916809375,1.52039Q1.7565540937500002,1.574986,1.74502509375,1.632946Q1.73349609375,1.6909052,1.73349609375,1.75L1.73349609375,3.18888Q1.73349609375,3.24797,1.74502509375,3.30593Q1.7565540937500002,3.36389,1.77916809375,3.4184900000000003Q1.8017830937500001,3.47309,1.83461409375,3.52222Q1.86744609375,3.5713600000000003,1.90923209375,3.61314Q1.9510180937500001,3.6549300000000002,2.00015409375,3.68776Q2.04928909375,3.72059,2.10388609375,3.74321Q2.15848209375,3.76582,2.21644209375,3.77735Q2.27440129375,3.78888,2.33349609375,3.78888Q2.39259089375,3.78888,2.45055009375,3.77735Q2.50851009375,3.76582,2.56310609375,3.74321Q2.61770309375,3.72059,2.66683809375,3.68776Q2.71597409375,3.6549300000000002,2.75776009375,3.61314Q2.79954609375,3.5713600000000003,2.83237809375,3.52222Q2.86520909375,3.47309,2.88782409375,3.4184900000000003Q2.91043809375,3.36389,2.92196709375,3.30593Q2.93349609375,3.24797,2.93349609375,3.18888L2.93349609375,2.35L11.06682609375,2.35Z" fill-rule="evenodd" fill="#595959" fill-opacity="1"/></g><g><path d="M6.4,1.75Q6.4,1.6909052,6.411529,1.632946Q6.423058,1.574986,6.445672,1.52039Q6.468287,1.4657930000000001,6.501118,1.416658Q6.53395,1.3675220000000001,6.575736,1.325736Q6.617522,1.28395,6.666658,1.251118Q6.715793,1.2182870000000001,6.77039,1.195672Q6.824986,1.1730580000000002,6.882946,1.161529Q6.9409051999999996,1.15,7,1.15Q7.0590948000000004,1.15,7.117054,1.161529Q7.175014,1.1730580000000002,7.22961,1.195672Q7.284207,1.2182870000000001,7.333342,1.251118Q7.382478,1.28395,7.424264,1.325736Q7.46605,1.3675220000000001,7.498882,1.416658Q7.531713,1.4657930000000001,7.554328,1.52039Q7.576942,1.574986,7.588471,1.632946Q7.6,1.6909052,7.6,1.75L7.6,12.25Q7.6,12.3091,7.588471,12.3671Q7.576942,12.425,7.554328,12.4796Q7.531713,12.5342,7.498882,12.5833Q7.46605,12.6325,7.424264,12.6743Q7.382478,12.716,7.333342,12.7489Q7.284207,12.7817,7.22961,12.8043Q7.175014,12.8269,7.117054,12.8385Q7.0590948000000004,12.85,7,12.85Q6.9409051999999996,12.85,6.882946,12.8385Q6.824986,12.8269,6.77039,12.8043Q6.715793,12.7817,6.666658,12.7489Q6.617522,12.716,6.575736,12.6743Q6.53395,12.6325,6.501118,12.5833Q6.468287,12.5342,6.445672,12.4796Q6.423058,12.425,6.411529,12.3671Q6.4,12.3091,6.4,12.25L6.4,1.75Z" fill-rule="evenodd" fill="#595959" fill-opacity="1"/></g><g><path d="M4.66650390625,11.65L9.33317390625,11.65Q9.392263906250001,11.65,9.450223906249999,11.661529Q9.50818390625,11.673058,9.56278390625,11.695672Q9.61737390625,11.718287,9.66651390625,11.751118Q9.715643906250001,11.78395,9.75743390625,11.825736Q9.799223906249999,11.867522,9.83205390625,11.916658Q9.86488390625,11.965793,9.88749390625,12.02039Q9.91011390625,12.074985999999999,9.92164390625,12.132946Q9.933173906250001,12.1909052,9.933173906250001,12.25Q9.933173906250001,12.3090948,9.92164390625,12.367054Q9.91011390625,12.425014000000001,9.88749390625,12.47961Q9.86488390625,12.534207,9.83205390625,12.583342Q9.799223906249999,12.632478,9.75743390625,12.674264Q9.715643906250001,12.71605,9.66651390625,12.748882Q9.61737390625,12.781713,9.56278390625,12.804328Q9.50818390625,12.826942,9.450223906249999,12.838471Q9.392263906250001,12.85,9.33317390625,12.85L4.66650390625,12.85Q4.6074091062499996,12.85,4.54944990625,12.838471Q4.49148990625,12.826942,4.43689390625,12.804328Q4.38229690625,12.781713,4.33316190625,12.748882Q4.28402590625,12.71605,4.24223990625,12.674264Q4.20045390625,12.632478,4.16762190625,12.583342Q4.13479090625,12.534207,4.11217590625,12.47961Q4.08956190625,12.425014000000001,4.07803290625,12.367054Q4.06650390625,12.3090948,4.06650390625,12.25Q4.06650390625,12.1909052,4.07803290625,12.132946Q4.08956190625,12.074985999999999,4.11217590625,12.02039Q4.13479090625,11.965793,4.16762190625,11.916658Q4.20045390625,11.867522,4.24223990625,11.825736Q4.28402590625,11.78395,4.33316190625,11.751118Q4.38229690625,11.718287,4.43689390625,11.695672Q4.49148990625,11.673058,4.54944990625,11.661529Q4.6074091062499996,11.65,4.66650390625,11.65Z" fill-rule="evenodd" fill="#595959" fill-opacity="1"/></g></g></svg>