<svg data-v-5059ea24="" width="1em" height="1em" viewBox="0 0 14 14" fill="none" xmlns="http://www.w3.org/2000/svg" tabindex="-1" opacity="1" class="mas-filter-item-icon transition" style="font-size: 14px; transform: rotate(0deg);"><path fill-rule="evenodd" clip-rule="evenodd" d="M10.2188 9.11366L10.472 9.36821C10.5889 9.48568 10.7783 9.48568 10.8952 9.36821L12.8257 7.42747C13.0594 7.19254 13.0594 6.81164 12.8257 6.57671L10.8952 4.63595C10.7783 4.51848 10.5889 4.51848 10.472 4.63595L10.2188 4.89055C10.1019 5.00802 10.1019 5.19847 10.2188 5.31593L11.4178 6.52128L6.51859 6.52088C6.50319 6.51842 6.48741 6.51715 6.47133 6.51715L2.58343 6.51712L3.78248 5.31173C3.89932 5.19426 3.89932 5.00381 3.78248 4.88635L3.52927 4.6318C3.41242 4.51433 3.22297 4.51433 3.10613 4.6318L1.17561 6.57254C0.941917 6.80747 0.941917 7.18837 1.17561 7.4233L3.10615 9.36407C3.223 9.48153 3.41245 9.48153 3.52929 9.36407L3.78256 9.10946C3.89941 8.99199 3.89941 8.80154 3.78256 8.68408L2.58356 7.47873L5.92558 7.47875C5.94088 7.48118 5.95657 7.48244 5.97255 7.48244L11.4179 7.48289L10.2188 8.68828C10.102 8.80575 10.102 8.9962 10.2188 9.11366Z" fill="currentcolor"></path></svg>