<svg xmlns="http://www.w3.org/2000/svg" xmlns:xlink="http://www.w3.org/1999/xlink" fill="none" version="1.1" width="16" height="16" viewBox="0 0 16 16"><defs><clipPath id="master_svg0_403_2848"><rect x="0" y="0" width="16" height="16" rx="0"/></clipPath></defs><g clip-path="url(#master_svg0_403_2848)"><g><path d="M3,7.35L12.33333,7.35Q12.39735,7.35,12.46014,7.36249Q12.52293,7.374979,12.58208,7.399478Q12.64122,7.423978,12.69445,7.459545Q12.74768,7.495112,12.79295,7.540381Q12.83822,7.585649,12.87379,7.638879Q12.90935,7.69211,12.93385,7.751256Q12.95835,7.810402,12.97084,7.873191Q12.98333,7.9359806,12.98333,8Q12.98333,8.0640194,12.97084,8.126809Q12.95835,8.189598,12.93385,8.248744Q12.90935,8.30789,12.87379,8.361121Q12.83822,8.414351,12.79295,8.459619Q12.74768,8.504888,12.69445,8.540455Q12.64122,8.576022,12.58208,8.600522Q12.52293,8.625021,12.46014,8.63751Q12.39735,8.65,12.33333,8.65L3,8.65Q2.9359806,8.65,2.873191,8.63751Q2.810402,8.625021,2.751256,8.600522Q2.69211,8.576022,2.638879,8.540455Q2.585649,8.504888,2.540381,8.459619Q2.4951119999999998,8.414351,2.459545,8.361121Q2.423978,8.30789,2.399478,8.248744Q2.3749789999999997,8.189598,2.36249,8.126809Q2.35,8.0640194,2.35,8Q2.35,7.9359806,2.36249,7.873191Q2.3749789999999997,7.810402,2.399478,7.751256Q2.423978,7.69211,2.459545,7.638879Q2.4951119999999998,7.585649,2.540381,7.540381Q2.585649,7.495112,2.638879,7.459545Q2.69211,7.423978,2.751256,7.399478Q2.810402,7.374979,2.873191,7.36249Q2.9359806,7.35,3,7.35Z" fill-rule="evenodd" fill="#000000" fill-opacity="1"/></g></g></svg>