<svg xmlns="http://www.w3.org/2000/svg" xmlns:xlink="http://www.w3.org/1999/xlink" fill="none" version="1.1" width="16" height="16" viewBox="0 0 16 16"><defs><clipPath id="master_svg0_403_2934"><rect x="0" y="0" width="16" height="16" rx="0"/></clipPath></defs><g clip-path="url(#master_svg0_403_2934)"><g><path d="M1.35,13L1.35,3Q1.35,2.316548,1.833274,1.833274Q2.316548,1.35,3,1.35L13,1.35Q13.6835,1.35,14.1667,1.833274Q14.65,2.316547,14.65,3L14.65,13Q14.65,13.6835,14.1667,14.1667Q13.6835,14.65,13,14.65L3,14.65Q2.316547,14.65,1.833274,14.1667Q1.35,13.6835,1.35,13ZM2.65,13Q2.65,13.35,3,13.35L13,13.35Q13.35,13.35,13.35,13L13.35,3Q13.35,2.65,13,2.65L3,2.65Q2.65,2.65,2.65,3L2.65,13Z" fill="#000000" fill-opacity="1"/></g></g></svg>