<svg xmlns="http://www.w3.org/2000/svg" xmlns:xlink="http://www.w3.org/1999/xlink" fill="none" version="1.1" width="16" height="16" viewBox="0 0 16 16"><defs><clipPath id="master_svg0_403_2928"><rect x="0" y="0" width="16" height="16" rx="0"/></clipPath></defs><g clip-path="url(#master_svg0_403_2928)"><g><path d="M1.35,13L1.35,3Q1.35,2.316548,1.833274,1.833274Q2.316548,1.35,3,1.35L13,1.35Q13.6835,1.35,14.1667,1.833274Q14.65,2.316547,14.65,3L14.65,13Q14.65,13.6835,14.1667,14.1667Q13.6835,14.65,13,14.65L3,14.65Q2.316547,14.65,1.833274,14.1667Q1.35,13.6835,1.35,13ZM2.65,13Q2.65,13.35,3,13.35L13,13.35Q13.35,13.35,13.35,13L13.35,3Q13.35,2.65,13,2.65L3,2.65Q2.65,2.65,2.65,3L2.65,13Z" fill="#000000" fill-opacity="1"/></g><g><path d="M4.6669921875,4.0169921875L8.5000021875,4.0169921875Q8.5640221875,4.0169921875,8.6268121875,4.0294821875Q8.6896021875,4.0419711875,8.7487421875,4.0664701875Q8.8078921875,4.0909701875,8.861122187500001,4.1265371875Q8.9143521875,4.1621041875,8.959622187499999,4.2073731875Q9.004892187500001,4.2526411875,9.0404521875,4.3058711875Q9.0760221875,4.3591021875,9.100522187500001,4.4182481875Q9.1250221875,4.4773941875,9.1375121875,4.5401831875Q9.1500021875,4.6029727875,9.1500021875,4.6669921875Q9.1500021875,4.7310115875,9.1375121875,4.7938011875Q9.1250221875,4.8565901875,9.100522187500001,4.9157361875Q9.0760221875,4.9748821875,9.0404521875,5.0281131875Q9.004892187500001,5.0813431875,8.959622187499999,5.1266111875Q8.9143521875,5.1718801875,8.861122187500001,5.2074471875Q8.8078921875,5.2430141875,8.7487421875,5.2675141875Q8.6896021875,5.2920131875,8.6268121875,5.3045021875Q8.5640221875,5.3169921875,8.5000021875,5.3169921875L4.6669921875,5.3169921875Q4.6029727875,5.3169921875,4.5401831875,5.3045021875Q4.4773941875,5.2920131875,4.4182481875,5.2675141875Q4.3591021875,5.2430141875,4.3058711875,5.2074471875Q4.2526411875,5.1718801875,4.2073731875,5.1266111875Q4.1621041875,5.0813431875,4.1265371875,5.0281131875Q4.0909701875,4.9748821875,4.0664701875,4.9157361875Q4.0419711875,4.8565901875,4.0294821875,4.7938011875Q4.0169921875,4.7310115875,4.0169921875,4.6669921875Q4.0169921875,4.6029727875,4.0294821875,4.5401831875Q4.0419711875,4.4773941875,4.0664701875,4.4182481875Q4.0909701875,4.3591021875,4.1265371875,4.3058711875Q4.1621041875,4.2526411875,4.2073731875,4.2073731875Q4.2526411875,4.1621041875,4.3058711875,4.1265371875Q4.3591021875,4.0909701875,4.4182481875,4.0664701875Q4.4773941875,4.0419711875,4.5401831875,4.0294821875Q4.6029727875,4.0169921875,4.6669921875,4.0169921875Z" fill-rule="evenodd" fill="#000000" fill-opacity="1"/></g><g><path d="M4.6669921875,7.35L11.3336621875,7.35Q11.3976821875,7.35,11.4604621875,7.36249Q11.523252187499999,7.374979,11.5824021875,7.399478Q11.6415521875,7.423978,11.6947821875,7.459545Q11.748012187499999,7.495112,11.793282187500001,7.540381Q11.8385421875,7.585649,11.8741121875,7.638879Q11.9096821875,7.69211,11.9341821875,7.751256Q11.9586821875,7.810402,11.971172187499999,7.873191Q11.9836621875,7.9359806,11.9836621875,8Q11.9836621875,8.0640194,11.971172187499999,8.126809Q11.9586821875,8.189598,11.9341821875,8.248744Q11.9096821875,8.30789,11.8741121875,8.361121Q11.8385421875,8.414351,11.793282187500001,8.459619Q11.748012187499999,8.504888,11.6947821875,8.540455Q11.6415521875,8.576022,11.5824021875,8.600522Q11.523252187499999,8.625021,11.4604621875,8.63751Q11.3976821875,8.65,11.3336621875,8.65L4.6669921875,8.65Q4.6029727875,8.65,4.5401831875,8.63751Q4.4773941875,8.625021,4.4182481875,8.600522Q4.3591021875,8.576022,4.3058711875,8.540455Q4.2526411875,8.504888,4.2073731875,8.459619Q4.1621041875,8.414351,4.1265371875,8.361121Q4.0909701875,8.30789,4.0664701875,8.248744Q4.0419711875,8.189598,4.0294821875,8.126809Q4.0169921875,8.0640194,4.0169921875,8Q4.0169921875,7.9359806,4.0294821875,7.873191Q4.0419711875,7.810402,4.0664701875,7.751256Q4.0909701875,7.69211,4.1265371875,7.638879Q4.1621041875,7.585649,4.2073731875,7.540381Q4.2526411875,7.495112,4.3058711875,7.459545Q4.3591021875,7.423978,4.4182481875,7.399478Q4.4773941875,7.374979,4.5401831875,7.36249Q4.6029727875,7.35,4.6669921875,7.35Z" fill-rule="evenodd" fill="#000000" fill-opacity="1"/></g><g><path d="M4.6669921875,10.6830078125L10.0000021875,10.6830078125Q10.0640221875,10.6830078125,10.1268121875,10.6954978125Q10.1895921875,10.7079868125,10.2487421875,10.7324858125Q10.3078921875,10.7569858125,10.361122187500001,10.7925528125Q10.4143521875,10.8281198125,10.459622187499999,10.8733888125Q10.504892187500001,10.9186568125,10.5404521875,10.9718868125Q10.5760221875,11.0251178125,10.600522187500001,11.0842638125Q10.6250221875,11.1434098125,10.6375121875,11.2061988125Q10.6500021875,11.2689884125,10.6500021875,11.3330078125Q10.6500021875,11.3970272125,10.6375121875,11.4598168125Q10.6250221875,11.5226058125,10.600522187500001,11.5817518125Q10.5760221875,11.6408978125,10.5404521875,11.6941288125Q10.504892187500001,11.7473588125,10.459622187499999,11.7926268125Q10.4143521875,11.8378958125,10.361122187500001,11.8734628125Q10.3078921875,11.9090298125,10.2487421875,11.9335298125Q10.1895921875,11.9580288125,10.1268121875,11.9705178125Q10.0640221875,11.9830078125,10.0000021875,11.9830078125L4.6669921875,11.9830078125Q4.6029727875,11.9830078125,4.5401831875,11.9705178125Q4.4773941875,11.9580288125,4.4182481875,11.9335298125Q4.3591021875,11.9090298125,4.3058711875,11.8734628125Q4.2526411875,11.8378958125,4.2073731875,11.7926268125Q4.1621041875,11.7473588125,4.1265371875,11.6941288125Q4.0909701875,11.6408978125,4.0664701875,11.5817518125Q4.0419711875,11.5226058125,4.0294821875,11.4598168125Q4.0169921875,11.3970272125,4.0169921875,11.3330078125Q4.0169921875,11.2689884125,4.0294821875,11.2061988125Q4.0419711875,11.1434098125,4.0664701875,11.0842638125Q4.0909701875,11.0251178125,4.1265371875,10.9718868125Q4.1621041875,10.9186568125,4.2073731875,10.8733888125Q4.2526411875,10.8281198125,4.3058711875,10.7925528125Q4.3591021875,10.7569858125,4.4182481875,10.7324858125Q4.4773941875,10.7079868125,4.5401831875,10.6954978125Q4.6029727875,10.6830078125,4.6669921875,10.6830078125Z" fill-rule="evenodd" fill="#000000" fill-opacity="1"/></g></g></svg>