<svg xmlns="http://www.w3.org/2000/svg" xmlns:xlink="http://www.w3.org/1999/xlink" fill="none"
    version="1.1" width="14" height="14.000000953674316" viewBox="0 0 14 14.000000953674316">
    <defs>
        <clipPath id="master_svg0_3013_18082/1661_09771">
            <rect x="0" y="0" width="14" height="14.000000953674316" rx="0" />
        </clipPath>
    </defs>
    <g clip-path="url(#master_svg0_3013_18082/1661_09771)">
        <g>
            <path
                d="M3.4,2.2Q3.4,2.25895,3.39422,2.31762Q3.38844,2.37629,3.37694,2.43411Q3.36544,2.49193,3.34833,2.54834Q3.33122,2.6047599999999997,3.30866,2.65922Q3.2861,2.71368,3.25831,2.7656799999999997Q3.23052,2.8176699999999997,3.19776,2.8666799999999997Q3.16501,2.9157,3.12761,2.96127Q3.09021,3.00684,3.04853,3.04853Q3.00684,3.09021,2.96127,3.12761Q2.9157,3.16501,2.8666799999999997,3.19776Q2.8176699999999997,3.23052,2.7656799999999997,3.25831Q2.71368,3.2861,2.65922,3.30866Q2.6047599999999997,3.33122,2.54834,3.34833Q2.49193,3.36544,2.43411,3.37694Q2.37629,3.38844,2.31762,3.39422Q2.25895,3.4,2.2,3.4Q2.14105,3.4,2.0823799999999997,3.39422Q2.02371,3.38844,1.965892,3.37694Q1.908072,3.36544,1.851658,3.34833Q1.795245,3.33122,1.74078,3.30866Q1.686315,3.2861,1.6343239999999999,3.25831Q1.582333,3.23052,1.5333160000000001,3.19776Q1.484299,3.16501,1.438728,3.12761Q1.393157,3.09021,1.351472,3.04853Q1.309786,3.00684,1.272387,2.96127Q1.2349890000000001,2.9157,1.202236,2.8666799999999997Q1.169484,2.8176699999999997,1.141694,2.7656799999999997Q1.113905,2.71368,1.0913446,2.65922Q1.0687845,2.6047599999999997,1.0516716,2.54834Q1.0345587,2.49193,1.0230577,2.43411Q1.0115567,2.37629,1.00577833,2.31762Q1,2.25895,1,2.2Q1,2.14105,1.00577833,2.0823799999999997Q1.0115567,2.02371,1.0230577,1.965892Q1.0345587,1.908072,1.0516716,1.851658Q1.0687845,1.795245,1.0913446,1.74078Q1.113905,1.686315,1.141694,1.6343239999999999Q1.169484,1.582333,1.202236,1.5333160000000001Q1.2349890000000001,1.484299,1.272387,1.438728Q1.309786,1.393157,1.351472,1.351472Q1.393157,1.309786,1.438728,1.272387Q1.484299,1.2349890000000001,1.5333160000000001,1.202236Q1.582333,1.169484,1.6343239999999999,1.141694Q1.686315,1.113905,1.74078,1.0913446Q1.795245,1.0687845,1.851658,1.0516716Q1.908072,1.0345587,1.965892,1.0230577Q2.02371,1.0115567,2.0823799999999997,1.00577833Q2.14105,1,2.2,1Q2.25895,1,2.31762,1.00577833Q2.37629,1.0115567,2.43411,1.0230577Q2.49193,1.0345587,2.54834,1.0516716Q2.6047599999999997,1.0687845,2.65922,1.0913446Q2.71368,1.113905,2.7656799999999997,1.141694Q2.8176699999999997,1.169484,2.8666799999999997,1.202236Q2.9157,1.2349890000000001,2.96127,1.272387Q3.00684,1.309786,3.04853,1.351472Q3.09021,1.393157,3.12761,1.438728Q3.16501,1.484299,3.19776,1.5333160000000001Q3.23052,1.582333,3.25831,1.6343239999999999Q3.2861,1.686315,3.30866,1.74078Q3.33122,1.795245,3.34833,1.851658Q3.36544,1.908072,3.37694,1.965892Q3.38844,2.02371,3.39422,2.0823799999999997Q3.4,2.14105,3.4,2.2ZM3.4,7.00005Q3.4,7.059,3.39422,7.11767Q3.38844,7.17634,3.37694,7.23416Q3.36544,7.29198,3.34833,7.34839Q3.33122,7.4048,3.30866,7.45927Q3.2861,7.51373,3.25831,7.56572Q3.23052,7.61772,3.19776,7.66673Q3.16501,7.71575,3.12761,7.76132Q3.09021,7.80689,3.04853,7.84858Q3.00684,7.89026,2.96127,7.92766Q2.9157,7.96506,2.8666799999999997,7.99781Q2.8176699999999997,8.030560000000001,2.7656799999999997,8.05835Q2.71368,8.08614,2.65922,8.108699999999999Q2.6047599999999997,8.131260000000001,2.54834,8.14838Q2.49193,8.16549,2.43411,8.17699Q2.37629,8.18849,2.31762,8.19427Q2.25895,8.200050000000001,2.2,8.200050000000001Q2.14105,8.200050000000001,2.0823799999999997,8.19427Q2.02371,8.18849,1.965892,8.17699Q1.908072,8.16549,1.851658,8.14838Q1.795245,8.131260000000001,1.74078,8.108699999999999Q1.686315,8.08614,1.6343239999999999,8.05835Q1.582333,8.030560000000001,1.5333160000000001,7.99781Q1.484299,7.96506,1.438728,7.92766Q1.393157,7.89026,1.351472,7.84858Q1.309786,7.80689,1.272387,7.76132Q1.2349890000000001,7.71575,1.202236,7.66673Q1.169484,7.61772,1.141694,7.56572Q1.113905,7.51373,1.0913446,7.45927Q1.0687845,7.4048,1.0516716,7.34839Q1.0345587,7.29198,1.0230577,7.23416Q1.0115567,7.17634,1.00577833,7.11767Q1,7.059,1,7.00005Q1,6.9411,1.00577833,6.88243Q1.0115567,6.82376,1.0230577,6.76594Q1.0345587,6.70812,1.0516716,6.65171Q1.0687845,6.59529,1.0913446,6.54083Q1.113905,6.48636,1.141694,6.43437Q1.169484,6.38238,1.202236,6.33336Q1.2349890000000001,6.28435,1.272387,6.23878Q1.309786,6.19321,1.351472,6.15152Q1.393157,6.10983,1.438728,6.07244Q1.484299,6.03504,1.5333160000000001,6.00228Q1.582333,5.96953,1.6343239999999999,5.94174Q1.686315,5.91395,1.74078,5.89139Q1.795245,5.86883,1.851658,5.85172Q1.908072,5.83461,1.965892,5.82311Q2.02371,5.81161,2.0823799999999997,5.80583Q2.14105,5.80005,2.2,5.80005Q2.25895,5.80005,2.31762,5.80583Q2.37629,5.81161,2.43411,5.82311Q2.49193,5.83461,2.54834,5.85172Q2.6047599999999997,5.86883,2.65922,5.89139Q2.71368,5.91395,2.7656799999999997,5.94174Q2.8176699999999997,5.96953,2.8666799999999997,6.00228Q2.9157,6.03504,2.96127,6.07244Q3.00684,6.10983,3.04853,6.15152Q3.09021,6.19321,3.12761,6.23878Q3.16501,6.28435,3.19776,6.33336Q3.23052,6.38238,3.25831,6.43437Q3.2861,6.48636,3.30866,6.54083Q3.33122,6.59529,3.34833,6.65171Q3.36544,6.70812,3.37694,6.76594Q3.38844,6.82376,3.39422,6.88243Q3.4,6.9411,3.4,7.00005ZM3.4,11.8Q3.4,11.8589,3.39422,11.9176Q3.38844,11.9763,3.37694,12.0341Q3.36544,12.0919,3.34833,12.1483Q3.33122,12.2047,3.30866,12.2592Q3.2861,12.3137,3.25831,12.3657Q3.23052,12.4176,3.19776,12.4667Q3.16501,12.5157,3.12761,12.5612Q3.09021,12.6068,3.04853,12.6485Q3.00684,12.6902,2.96127,12.7276Q2.9157,12.765,2.8666799999999997,12.7977Q2.8176699999999997,12.8305,2.7656799999999997,12.8583Q2.71368,12.8861,2.65922,12.9086Q2.6047599999999997,12.9312,2.54834,12.9483Q2.49193,12.9654,2.43411,12.9769Q2.37629,12.9884,2.31762,12.9942Q2.25895,13,2.2,13Q2.14105,13,2.0823799999999997,12.9942Q2.02371,12.9884,1.965892,12.9769Q1.908072,12.9654,1.851658,12.9483Q1.795245,12.9312,1.74078,12.9086Q1.686315,12.8861,1.6343239999999999,12.8583Q1.582333,12.8305,1.5333160000000001,12.7977Q1.484299,12.765,1.438728,12.7276Q1.393157,12.6902,1.351472,12.6485Q1.309786,12.6068,1.272387,12.5612Q1.2349890000000001,12.5157,1.202236,12.4667Q1.169484,12.4176,1.141694,12.3657Q1.113905,12.3137,1.0913446,12.2592Q1.0687845,12.2047,1.0516716,12.1483Q1.0345587,12.0919,1.0230577,12.0341Q1.0115567,11.9763,1.00577833,11.9176Q1,11.8589,1,11.8Q1,11.741,1.00577833,11.6824Q1.0115567,11.6237,1.0230577,11.5659Q1.0345587,11.508,1.0516716,11.4516Q1.0687845,11.3952,1.0913446,11.3408Q1.113905,11.2863,1.141694,11.2343Q1.169484,11.1823,1.202236,11.1333Q1.2349890000000001,11.0843,1.272387,11.0387Q1.309786,10.99313,1.351472,10.95145Q1.393157,10.90976,1.438728,10.87236Q1.484299,10.83496,1.5333160000000001,10.80221Q1.582333,10.76946,1.6343239999999999,10.74167Q1.686315,10.71388,1.74078,10.69132Q1.795245,10.66876,1.851658,10.65165Q1.908072,10.63453,1.965892,10.62303Q2.02371,10.61153,2.0823799999999997,10.60575Q2.14105,10.59998,2.2,10.59998Q2.25895,10.59998,2.31762,10.60575Q2.37629,10.61153,2.43411,10.62303Q2.49193,10.63453,2.54834,10.65165Q2.6047599999999997,10.66876,2.65922,10.69132Q2.71368,10.71388,2.7656799999999997,10.74167Q2.8176699999999997,10.76946,2.8666799999999997,10.80221Q2.9157,10.83496,2.96127,10.87236Q3.00684,10.90976,3.04853,10.95145Q3.09021,10.99313,3.12761,11.0387Q3.16501,11.0843,3.19776,11.1333Q3.23052,11.1823,3.25831,11.2343Q3.2861,11.2863,3.30866,11.3408Q3.33122,11.3952,3.34833,11.4516Q3.36544,11.508,3.37694,11.5659Q3.38844,11.6237,3.39422,11.6824Q3.4,11.741,3.4,11.8ZM8.1998,2.2Q8.19981,2.25895,8.19403,2.31762Q8.18825,2.37629,8.17675,2.43411Q8.16525,2.49193,8.14813,2.54834Q8.13102,2.6047599999999997,8.108460000000001,2.65922Q8.085899999999999,2.71368,8.05811,2.7656799999999997Q8.03032,2.8176699999999997,7.99757,2.8666799999999997Q7.96482,2.9157,7.92742,2.96127Q7.89002,3.00684,7.84833,3.04853Q7.80665,3.09021,7.76108,3.12761Q7.71551,3.16501,7.66649,3.19776Q7.61747,3.23052,7.56548,3.25831Q7.51349,3.2861,7.45902,3.30866Q7.40456,3.33122,7.34815,3.34833Q7.29173,3.36544,7.23391,3.37694Q7.17609,3.38844,7.11743,3.39422Q7.05876,3.4,6.9998,3.4Q6.94085,3.4,6.88218,3.39422Q6.82352,3.38844,6.7657,3.37694Q6.70788,3.36544,6.65146,3.34833Q6.59505,3.33122,6.54058,3.30866Q6.48612,3.2861,6.43413,3.25831Q6.38214,3.23052,6.33312,3.19776Q6.2841,3.16501,6.23853,3.12761Q6.19296,3.09021,6.15128,3.04853Q6.10959,3.00684,6.07219,2.96127Q6.03479,2.9157,6.00204,2.8666799999999997Q5.96929,2.8176699999999997,5.9415,2.7656799999999997Q5.91371,2.71368,5.89115,2.65922Q5.86859,2.6047599999999997,5.85148,2.54834Q5.83436,2.49193,5.82286,2.43411Q5.81136,2.37629,5.80558,2.31762Q5.7998,2.25895,5.7998,2.2Q5.7998,2.14105,5.80558,2.0823799999999997Q5.81136,2.02371,5.82286,1.965892Q5.83436,1.908072,5.85148,1.851658Q5.86859,1.795245,5.89115,1.74078Q5.91371,1.686315,5.9415,1.6343239999999999Q5.96929,1.582333,6.00204,1.5333160000000001Q6.03479,1.484299,6.07219,1.438728Q6.10959,1.393157,6.15128,1.351472Q6.19296,1.309786,6.23853,1.272387Q6.2841,1.2349890000000001,6.33312,1.202236Q6.38214,1.169484,6.43413,1.141694Q6.48612,1.113905,6.54058,1.0913446Q6.59505,1.0687845,6.65146,1.0516716Q6.70788,1.0345587,6.7657,1.0230577Q6.82352,1.0115567,6.88218,1.00577833Q6.94085,1,6.9998,1Q7.05876,1,7.11742,1.00577833Q7.17609,1.0115567,7.23391,1.0230577Q7.29173,1.0345587,7.34815,1.0516716Q7.40456,1.0687845,7.45902,1.0913446Q7.51349,1.113905,7.56548,1.141694Q7.61747,1.169484,7.66649,1.202236Q7.71551,1.2349890000000001,7.76108,1.272387Q7.80665,1.309786,7.84833,1.351472Q7.89002,1.393157,7.92742,1.438728Q7.96482,1.484299,7.99757,1.5333160000000001Q8.03032,1.582333,8.05811,1.6343239999999999Q8.085899999999999,1.686315,8.108460000000001,1.74078Q8.13102,1.795245,8.14813,1.851658Q8.16525,1.908072,8.17675,1.965892Q8.18825,2.02371,8.19403,2.0823799999999997Q8.19981,2.14105,8.1998,2.2ZM8.1998,7.00005Q8.19981,7.059,8.19403,7.11767Q8.18825,7.17634,8.17675,7.23416Q8.16525,7.29198,8.14813,7.34839Q8.13102,7.4048,8.108460000000001,7.45927Q8.085899999999999,7.51373,8.05811,7.56572Q8.03032,7.61772,7.99757,7.66673Q7.96482,7.71575,7.92742,7.76132Q7.89002,7.80689,7.84833,7.84858Q7.80665,7.89026,7.76108,7.92766Q7.71551,7.96506,7.66649,7.99781Q7.61747,8.030560000000001,7.56548,8.05835Q7.51349,8.08614,7.45902,8.108699999999999Q7.40456,8.131260000000001,7.34815,8.14838Q7.29173,8.16549,7.23391,8.17699Q7.17609,8.18849,7.11743,8.19427Q7.05876,8.200050000000001,6.9998,8.200050000000001Q6.94085,8.200050000000001,6.88218,8.19427Q6.82352,8.18849,6.7657,8.17699Q6.70788,8.16549,6.65146,8.14838Q6.59505,8.131260000000001,6.54058,8.108699999999999Q6.48612,8.08614,6.43413,8.05835Q6.38214,8.030560000000001,6.33312,7.99781Q6.2841,7.96506,6.23853,7.92766Q6.19296,7.89026,6.15128,7.84858Q6.10959,7.80689,6.07219,7.76132Q6.03479,7.71575,6.00204,7.66673Q5.96929,7.61772,5.9415,7.56572Q5.91371,7.51373,5.89115,7.45927Q5.86859,7.4048,5.85148,7.34839Q5.83436,7.29198,5.82286,7.23416Q5.81136,7.17634,5.80558,7.11767Q5.7998,7.059,5.7998,7.00005Q5.7998,6.9411,5.80558,6.88243Q5.81136,6.82376,5.82286,6.76594Q5.83436,6.70812,5.85148,6.65171Q5.86859,6.59529,5.89115,6.54083Q5.91371,6.48636,5.9415,6.43437Q5.96929,6.38238,6.00204,6.33336Q6.03479,6.28435,6.07219,6.23878Q6.10959,6.19321,6.15128,6.15152Q6.19296,6.10983,6.23853,6.07244Q6.2841,6.03504,6.33312,6.00228Q6.38214,5.96953,6.43413,5.94174Q6.48612,5.91395,6.54058,5.89139Q6.59505,5.86883,6.65146,5.85172Q6.70788,5.83461,6.7657,5.82311Q6.82352,5.81161,6.88218,5.80583Q6.94085,5.80005,6.9998,5.80005Q7.05876,5.80005,7.11742,5.80583Q7.17609,5.81161,7.23391,5.82311Q7.29173,5.83461,7.34815,5.85172Q7.40456,5.86883,7.45902,5.89139Q7.51349,5.91395,7.56548,5.94174Q7.61747,5.96953,7.66649,6.00228Q7.71551,6.03504,7.76108,6.07244Q7.80665,6.10983,7.84833,6.15152Q7.89002,6.19321,7.92742,6.23878Q7.96482,6.28435,7.99757,6.33336Q8.03032,6.38238,8.05811,6.43437Q8.085899999999999,6.48636,8.108460000000001,6.54083Q8.13102,6.59529,8.14813,6.65171Q8.16525,6.70812,8.17675,6.76594Q8.18825,6.82376,8.19403,6.88243Q8.19981,6.9411,8.1998,7.00005ZM8.1998,11.8Q8.19981,11.8589,8.19403,11.9176Q8.18825,11.9763,8.17675,12.0341Q8.16525,12.0919,8.14813,12.1483Q8.13102,12.2047,8.108460000000001,12.2592Q8.085899999999999,12.3137,8.05811,12.3657Q8.03032,12.4176,7.99757,12.4667Q7.96482,12.5157,7.92742,12.5612Q7.89002,12.6068,7.84833,12.6485Q7.80665,12.6902,7.76108,12.7276Q7.71551,12.765,7.66649,12.7977Q7.61747,12.8305,7.56548,12.8583Q7.51349,12.8861,7.45902,12.9086Q7.40456,12.9312,7.34815,12.9483Q7.29173,12.9654,7.23391,12.9769Q7.17609,12.9884,7.11743,12.9942Q7.05876,13,6.9998,13Q6.94085,13,6.88218,12.9942Q6.82352,12.9884,6.7657,12.9769Q6.70788,12.9654,6.65146,12.9483Q6.59505,12.9312,6.54058,12.9086Q6.48612,12.8861,6.43413,12.8583Q6.38214,12.8305,6.33312,12.7977Q6.2841,12.765,6.23853,12.7276Q6.19296,12.6902,6.15128,12.6485Q6.10959,12.6068,6.07219,12.5612Q6.03479,12.5157,6.00204,12.4667Q5.96929,12.4176,5.9415,12.3657Q5.91371,12.3137,5.89115,12.2592Q5.86859,12.2047,5.85148,12.1483Q5.83436,12.0919,5.82286,12.0341Q5.81136,11.9763,5.80558,11.9176Q5.7998,11.8589,5.7998,11.8Q5.7998,11.741,5.80558,11.6824Q5.81136,11.6237,5.82286,11.5659Q5.83436,11.508,5.85148,11.4516Q5.86859,11.3952,5.89115,11.3408Q5.91371,11.2863,5.9415,11.2343Q5.96929,11.1823,6.00204,11.1333Q6.03479,11.0843,6.07219,11.0387Q6.10959,10.99313,6.15128,10.95145Q6.19296,10.90976,6.23853,10.87236Q6.2841,10.83496,6.33312,10.80221Q6.38214,10.76946,6.43413,10.74167Q6.48612,10.71388,6.54058,10.69132Q6.59505,10.66876,6.65146,10.65165Q6.70788,10.63453,6.7657,10.62303Q6.82352,10.61153,6.88218,10.60575Q6.94085,10.59998,6.9998,10.59998Q7.05876,10.59998,7.11742,10.60575Q7.17609,10.61153,7.23391,10.62303Q7.29173,10.63453,7.34815,10.65165Q7.40456,10.66876,7.45902,10.69132Q7.51349,10.71388,7.56548,10.74167Q7.61747,10.76946,7.66649,10.80221Q7.71551,10.83496,7.76108,10.87236Q7.80665,10.90976,7.84833,10.95145Q7.89002,10.99313,7.92742,11.0387Q7.96482,11.0843,7.99757,11.1333Q8.03032,11.1823,8.05811,11.2343Q8.085899999999999,11.2863,8.108460000000001,11.3408Q8.13102,11.3952,8.14813,11.4516Q8.16525,11.508,8.17675,11.5659Q8.18825,11.6237,8.19403,11.6824Q8.19981,11.741,8.1998,11.8ZM12.9996,2.2Q12.9996,2.25895,12.9938,2.31762Q12.9881,2.37629,12.9766,2.43411Q12.9651,2.49193,12.9479,2.54834Q12.9308,2.6047599999999997,12.9083,2.65922Q12.8857,2.71368,12.8579,2.7656799999999997Q12.8301,2.8176699999999997,12.7974,2.8666799999999997Q12.7646,2.9157,12.7272,2.96127Q12.6898,3.00684,12.6481,3.04853Q12.6065,3.09021,12.5609,3.12761Q12.5153,3.16501,12.4663,3.19776Q12.4173,3.23052,12.3653,3.25831Q12.3133,3.2861,12.2588,3.30866Q12.2044,3.33122,12.148,3.34833Q12.0915,3.36544,12.0337,3.37694Q11.9759,3.38844,11.9172,3.39422Q11.8586,3.4,11.7996,3.4Q11.7407,3.4,11.682,3.39422Q11.6233,3.38844,11.5655,3.37694Q11.5077,3.36544,11.4513,3.34833Q11.3949,3.33122,11.3404,3.30866Q11.2859,3.2861,11.2339,3.25831Q11.1819,3.23052,11.1329,3.19776Q11.0839,3.16501,11.0383,3.12761Q10.99277,3.09021,10.95108,3.04853Q10.9094,3.00684,10.872,2.96127Q10.8346,2.9157,10.80184,2.8666799999999997Q10.76909,2.8176699999999997,10.7413,2.7656799999999997Q10.71351,2.71368,10.69095,2.65922Q10.66839,2.6047599999999997,10.65128,2.54834Q10.63417,2.49193,10.62267,2.43411Q10.61117,2.37629,10.60539,2.31762Q10.59961,2.25895,10.59961,2.2Q10.59961,2.14105,10.60539,2.0823799999999997Q10.61117,2.02371,10.62267,1.965892Q10.63417,1.908072,10.65128,1.851658Q10.66839,1.795245,10.69095,1.74078Q10.71351,1.686315,10.7413,1.6343239999999999Q10.76909,1.582333,10.80184,1.5333160000000001Q10.8346,1.484299,10.872,1.438728Q10.9094,1.393157,10.95108,1.351472Q10.99277,1.309786,11.0383,1.272387Q11.0839,1.2349890000000001,11.1329,1.202236Q11.1819,1.169484,11.2339,1.141694Q11.2859,1.113905,11.3404,1.0913446Q11.3949,1.0687845,11.4513,1.0516716Q11.5077,1.0345587,11.5655,1.0230577Q11.6233,1.0115567,11.682,1.00577833Q11.7407,1,11.7996,1Q11.8586,1,11.9172,1.00577833Q11.9759,1.0115567,12.0337,1.0230577Q12.0915,1.0345587,12.148,1.0516716Q12.2044,1.0687845,12.2588,1.0913446Q12.3133,1.113905,12.3653,1.141694Q12.4173,1.169484,12.4663,1.202236Q12.5153,1.2349890000000001,12.5609,1.272387Q12.6065,1.309786,12.6481,1.351472Q12.6898,1.393157,12.7272,1.438728Q12.7646,1.484299,12.7974,1.5333160000000001Q12.8301,1.582333,12.8579,1.6343239999999999Q12.8857,1.686315,12.9083,1.74078Q12.9308,1.795245,12.9479,1.851658Q12.9651,1.908072,12.9766,1.965892Q12.9881,2.02371,12.9938,2.0823799999999997Q12.9996,2.14105,12.9996,2.2ZM12.9996,7.00005Q12.9996,7.059,12.9938,7.11767Q12.9881,7.17634,12.9766,7.23416Q12.9651,7.29198,12.9479,7.34839Q12.9308,7.4048,12.9083,7.45927Q12.8857,7.51373,12.8579,7.56572Q12.8301,7.61772,12.7974,7.66673Q12.7646,7.71575,12.7272,7.76132Q12.6898,7.80689,12.6481,7.84858Q12.6065,7.89026,12.5609,7.92766Q12.5153,7.96506,12.4663,7.99781Q12.4173,8.030560000000001,12.3653,8.05835Q12.3133,8.08614,12.2588,8.108699999999999Q12.2044,8.131260000000001,12.148,8.14838Q12.0915,8.16549,12.0337,8.17699Q11.9759,8.18849,11.9172,8.19427Q11.8586,8.200050000000001,11.7996,8.200050000000001Q11.7407,8.200050000000001,11.682,8.19427Q11.6233,8.18849,11.5655,8.17699Q11.5077,8.16549,11.4513,8.14838Q11.3949,8.131260000000001,11.3404,8.108699999999999Q11.2859,8.08614,11.2339,8.05835Q11.1819,8.030560000000001,11.1329,7.99781Q11.0839,7.96506,11.0383,7.92766Q10.99277,7.89026,10.95108,7.84858Q10.9094,7.80689,10.872,7.76132Q10.8346,7.71575,10.80184,7.66673Q10.76909,7.61772,10.7413,7.56572Q10.71351,7.51373,10.69095,7.45927Q10.66839,7.4048,10.65128,7.34839Q10.63417,7.29198,10.62267,7.23416Q10.61117,7.17634,10.60539,7.11767Q10.59961,7.059,10.59961,7.00005Q10.59961,6.9411,10.60539,6.88243Q10.61117,6.82376,10.62267,6.76594Q10.63417,6.70812,10.65128,6.65171Q10.66839,6.59529,10.69095,6.54083Q10.71351,6.48636,10.7413,6.43437Q10.76909,6.38238,10.80184,6.33336Q10.8346,6.28435,10.872,6.23878Q10.9094,6.19321,10.95108,6.15152Q10.99277,6.10983,11.0383,6.07244Q11.0839,6.03504,11.1329,6.00228Q11.1819,5.96953,11.2339,5.94174Q11.2859,5.91395,11.3404,5.89139Q11.3949,5.86883,11.4513,5.85172Q11.5077,5.83461,11.5655,5.82311Q11.6233,5.81161,11.682,5.80583Q11.7407,5.80005,11.7996,5.80005Q11.8586,5.80005,11.9172,5.80583Q11.9759,5.81161,12.0337,5.82311Q12.0915,5.83461,12.148,5.85172Q12.2044,5.86883,12.2588,5.89139Q12.3133,5.91395,12.3653,5.94174Q12.4173,5.96953,12.4663,6.00228Q12.5153,6.03504,12.5609,6.07244Q12.6065,6.10983,12.6481,6.15152Q12.6898,6.19321,12.7272,6.23878Q12.7646,6.28435,12.7974,6.33336Q12.8301,6.38238,12.8579,6.43437Q12.8857,6.48636,12.9083,6.54083Q12.9308,6.59529,12.9479,6.65171Q12.9651,6.70812,12.9766,6.76594Q12.9881,6.82376,12.9938,6.88243Q12.9996,6.9411,12.9996,7.00005ZM12.9996,11.8Q12.9996,11.8589,12.9938,11.9176Q12.9881,11.9763,12.9766,12.0341Q12.9651,12.0919,12.9479,12.1483Q12.9308,12.2047,12.9083,12.2592Q12.8857,12.3137,12.8579,12.3657Q12.8301,12.4176,12.7974,12.4667Q12.7646,12.5157,12.7272,12.5612Q12.6898,12.6068,12.6481,12.6485Q12.6065,12.6902,12.5609,12.7276Q12.5153,12.765,12.4663,12.7977Q12.4173,12.8305,12.3653,12.8583Q12.3133,12.8861,12.2588,12.9086Q12.2044,12.9312,12.148,12.9483Q12.0915,12.9654,12.0337,12.9769Q11.9759,12.9884,11.9172,12.9942Q11.8586,13,11.7996,13Q11.7407,13,11.682,12.9942Q11.6233,12.9884,11.5655,12.9769Q11.5077,12.9654,11.4513,12.9483Q11.3949,12.9312,11.3404,12.9086Q11.2859,12.8861,11.2339,12.8583Q11.1819,12.8305,11.1329,12.7977Q11.0839,12.765,11.0383,12.7276Q10.99277,12.6902,10.95108,12.6485Q10.9094,12.6068,10.872,12.5612Q10.8346,12.5157,10.80184,12.4667Q10.76909,12.4176,10.7413,12.3657Q10.71351,12.3137,10.69095,12.2592Q10.66839,12.2047,10.65128,12.1483Q10.63417,12.0919,10.62267,12.0341Q10.61117,11.9763,10.60539,11.9176Q10.59961,11.8589,10.59961,11.8Q10.59961,11.741,10.60539,11.6824Q10.61117,11.6237,10.62267,11.5659Q10.63417,11.508,10.65128,11.4516Q10.66839,11.3952,10.69095,11.3408Q10.71351,11.2863,10.7413,11.2343Q10.76909,11.1823,10.80184,11.1333Q10.8346,11.0843,10.872,11.0387Q10.9094,10.99313,10.95108,10.95145Q10.99277,10.90976,11.0383,10.87236Q11.0839,10.83496,11.1329,10.80221Q11.1819,10.76946,11.2339,10.74167Q11.2859,10.71388,11.3404,10.69132Q11.3949,10.66876,11.4513,10.65165Q11.5077,10.63453,11.5655,10.62303Q11.6233,10.61153,11.682,10.60575Q11.7407,10.59998,11.7996,10.59998Q11.8586,10.59998,11.9172,10.60575Q11.9759,10.61153,12.0337,10.62303Q12.0915,10.63453,12.148,10.65165Q12.2044,10.66876,12.2588,10.69132Q12.3133,10.71388,12.3653,10.74167Q12.4173,10.76946,12.4663,10.80221Q12.5153,10.83496,12.5609,10.87236Q12.6065,10.90976,12.6481,10.95145Q12.6898,10.99313,12.7272,11.0387Q12.7646,11.0843,12.7974,11.1333Q12.8301,11.1823,12.8579,11.2343Q12.8857,11.2863,12.9083,11.3408Q12.9308,11.3952,12.9479,11.4516Q12.9651,11.508,12.9766,11.5659Q12.9881,11.6237,12.9938,11.6824Q12.9996,11.741,12.9996,11.8Z"
                fill="#8C8C8C" fill-opacity="1" />
        </g>
    </g>
</svg>