<svg class="icon" viewBox="0 0 1024 1024" version="1.1" xmlns="http://www.w3.org/2000/svg"
     width="200" height="200">
    <path d="M810.666667 42.666667c-42.666667 0-81.066667 17.066667-110.933334 42.666666-174.933333-81.066667-384-42.666667-520.533333 98.133334C42.666667 320 4.266667 524.8 85.333333 699.733333c-25.6 29.866667-42.666667 68.266667-42.666666 110.933334 0 93.866667 76.8 170.666667 170.666666 170.666666s170.666667-76.8 170.666667-170.666666-76.8-170.666667-170.666667-170.666667c-21.333333 0-38.4 4.266667-59.733333 12.8-55.466667-140.8-25.6-302.933333 85.333333-409.6 110.933333-110.933333 268.8-140.8 409.6-85.333333-4.266667 17.066667-8.533333 34.133333-8.533333 55.466666 0 93.866667 76.8 170.666667 170.666667 170.666667s170.666667-76.8 170.666666-170.666667-76.8-170.666667-170.666666-170.666666zM298.666667 810.666667c0 46.933333-38.4 85.333333-85.333334 85.333333s-85.333333-38.4-85.333333-85.333333 38.4-85.333333 85.333333-85.333334 85.333333 38.4 85.333334 85.333334zM810.666667 298.666667c-46.933333 0-85.333333-38.4-85.333334-85.333334s38.4-85.333333 85.333334-85.333333 85.333333 38.4 85.333333 85.333333-38.4 85.333333-85.333333 85.333334z"
          fill="#ffffff"></path>
</svg>