<svg class="icon" viewBox="0 0 1024 1024" version="1.1" xmlns="http://www.w3.org/2000/svg"
     width="200" height="200">
    <path d="M551.008752 436.680407 740.259214 644.634249C765.943159 632.556538 794.627658 625.805767 824.888889 625.805767 934.854918 625.805767 1024 714.950844 1024 824.916878 1024 934.882907 934.854918 1024.027989 824.888889 1024.027989 714.92286 1024.027989 625.777778 934.882907 625.777778 824.916878 625.777778 765.894753 651.458657 712.870724 692.256068 676.409139L512.607477 479.006105 332.714999 677.282714C372.948429 713.71499 398.222222 766.364427 398.222222 824.916878 398.222222 934.882907 309.077141 1024.027989 199.111111 1024.027989 89.145081 1024.027989 0 934.882907 0 824.916878 0 714.950844 89.145081 625.805767 199.111111 625.805767 229.86242 625.805767 258.985518 632.776966 284.986272 645.225227L474.141807 436.738921 120.011576 47.610449C109.438106 35.992016 110.285215 18.001923 121.903648 7.428452 133.522082-3.145019 151.512175-2.297909 162.085646 9.320524L512.543082 394.413224 861.919954 9.331742C872.475722-2.302776 890.464506-3.177274 902.099024 7.378495 913.733541 17.934265 914.608037 35.923047 904.05227 47.557565L551.008752 436.680407ZM967.111111 824.916878C967.111111 746.369712 903.436055 682.694656 824.888889 682.694656 746.341723 682.694656 682.666667 746.369712 682.666667 824.916878 682.666667 903.464038 746.341723 967.1391 824.888889 967.1391 903.436055 967.1391 967.111111 903.464038 967.111111 824.916878ZM341.333333 824.916878C341.333333 746.369712 277.658275 682.694656 199.111111 682.694656 120.563947 682.694656 56.888889 746.369712 56.888889 824.916878 56.888889 903.464038 120.563947 967.1391 199.111111 967.1391 277.658275 967.1391 341.333333 903.464038 341.333333 824.916878ZM692.256068 676.409139C706.5524 663.632179 722.704976 652.88902 740.259214 644.634249L752.613422 658.209411C763.186893 669.827846 762.339783 687.817938 750.721354 698.39141 739.102919 708.964881 721.112826 708.117771 710.539355 696.499337L692.256068 676.409139Z"
          fill="#ffffff"></path>
</svg>