<svg xmlns="http://www.w3.org/2000/svg" version="1.1" width="14" height="14" viewBox="0 0 14 14" fill="#FFFFFF"><g><path d="M12.250117265625,1.283355712890625L8.750114265625,1.283355712890625C8.492381265625,1.283355712890625,8.283447265625,1.492289712890625,8.283447265625,1.750022712890625C8.283447265625,2.007755712890625,8.492381265625,2.216688712890625,8.750114265625,2.216688712890625L11.783447265625,2.216688712890625L11.783447265625,5.250025712890626C11.783447265625,5.507755712890625,11.992377265625,5.716685712890625,12.250117265625,5.716685712890625C12.507847265625,5.716685712890625,12.716777265625,5.507755712890625,12.716777265625,5.250025712890626L12.716777265625,1.750022712890625C12.716777265625,1.492289712890625,12.507847265625,1.283355712890625,12.250117265625,1.283355712890625Z" fill-rule="evenodd" fill="inherit" fill-opacity="1"/></g><g><path d="M5.541618171875,4.49169921875C5.283885171875,4.49169921875,5.074951171875,4.70063321875,5.074951171875,4.95836621875L5.074951171875,8.45836921875C5.074951171875,8.71609921875,5.283885171875,8.92502921875,5.541618171875,8.92502921875L9.041621171875,8.92502921875C9.299351171875,8.92502921875,9.508281171875,8.71609921875,9.508281171875,8.45836921875C9.508281171875,8.20062921875,9.299351171875,7.99169921875,9.041621171875,7.99169921875L6.008284171875,7.99169921875L6.008284171875,4.95836621875C6.008284171875,4.70063321875,5.799351171875,4.49169921875,5.541618171875,4.49169921875Z" fill-rule="evenodd" fill="inherit" fill-opacity="1"/></g><g><path d="M12.716621171875001,1.750022712890625C12.716621171875001,1.8737897128906251,12.667451171875001,1.992488712890625,12.579931171875,2.080005712890625L12.579931171875,2.080005712890625L5.871919171875,8.788025712890626L5.871919171875,8.788025712890626C5.784084171875,8.875855712890626,5.665385171875,8.925025712890626,5.541618171875,8.925025712890626C5.283885171875,8.925025712890626,5.074951171875,8.716085712890624,5.074951171875,8.458355712890626C5.074951171875,8.334585712890625,5.124117671875,8.215885712890625,5.211635171875,8.128375712890625L5.211635171875,8.128375712890625L11.919651171875,1.420357712890625L11.919651171875,1.420357712890625C12.007481171875,1.3325222128906251,12.126181171875,1.283355712890625,12.249951171875,1.283355712890625C12.507681171875,1.283355712890625,12.716621171875001,1.492289712890625,12.716621171875001,1.750022712890625Z" fill-rule="evenodd" fill="inherit" fill-opacity="1"/></g><g><path d="M12.716747265625,7.583355712890625L12.716747265625,11.666655712890625Q12.716747265625,12.101655712890626,12.409247265625,12.409155712890625Q12.101747265625,12.716655712890624,11.666747265625,12.716655712890624L2.333447265625,12.716655712890624Q1.898523265625,12.716655712890624,1.590986265625,12.409155712890625Q1.2834473119842,12.101655712890626,1.283447265625,11.666655712890625L1.2834473119842,2.333355712890625Q1.2834473119842,1.898431712890625,1.590985265625,1.590893712890625Q1.898523265625,1.283355759249825,2.333447265625,1.283355712890625L6.416777265625,1.283355759249825C6.674517265625,1.283355759249825,6.883447265625,1.492289712890625,6.883447265625,1.750022712890625C6.883447265625,2.007755712890625,6.674517265625,2.216688712890625,6.416777265625,2.216688712890625L2.333447265625,2.216688712890625Q2.216780265625,2.216688712890625,2.216780265625,2.333355712890625L2.216780265625,11.666655712890625Q2.216780265625,11.783355712890625,2.333447265625,11.783355712890625L11.666747265625,11.783355712890625Q11.783447265625,11.783355712890625,11.783447265625,11.666655712890625L11.783447265625,7.583355712890625C11.783447265625,7.325625712890625,11.992347265625,7.116685712890625,12.250147265625,7.116685712890625C12.507847265625,7.116685712890625,12.716747265625,7.325625712890625,12.716747265625,7.583355712890625Z" fill-rule="evenodd" fill="inherit" fill-opacity="1"/></g></svg>