<?xml version="1.0" standalone="no"?>
<!DOCTYPE svg PUBLIC "-//W3C//DTD SVG 1.1//EN" "http://www.w3.org/Graphics/SVG/1.1/DTD/svg11.dtd"><svg t="1733457480702"
    class="icon" viewBox="0 0 1024 1024" version="1.1" xmlns="http://www.w3.org/2000/svg" p-id="6393"
    xmlns:xlink="http://www.w3.org/1999/xlink" width="200" height="200">
    <path
        d="M211.5 465.6l81.3 6c0.6 0 1.2 0.1 1.9 0.1 12.8 0 23.7-9.9 24.6-22.9 1-13.6-9.2-25.5-22.8-26.5l-81.3-6c-13.6-1-25.5 9.2-26.5 22.8-1 13.6 9.2 25.5 22.8 26.5zM228.4 355.6l67.4 45.9c4.3 2.9 9.1 4.3 13.9 4.3 7.9 0 15.7-3.8 20.5-10.8 7.7-11.3 4.8-26.7-6.5-34.4l-67.4-45.9c-11.3-7.7-26.7-4.8-34.4 6.5-7.7 11.3-4.8 26.7 6.5 34.4zM346.9 362.2c4.3 8.8 13.1 14 22.3 14 3.6 0 7.3-0.8 10.7-2.5 12.3-5.9 17.5-20.7 11.5-33L356 267.2c-5.9-12.3-20.7-17.5-33-11.5-12.3 5.9-17.5 20.7-11.5 33l35.4 73.5zM510.5 672.6l-42.8 42.8-94.8 94.8c-37.4 37.4-98.2 37.4-135.6 0l-8.7-8.8c-18.1-18.1-28.1-42.2-28.1-67.8 0-25.6 10-49.7 28.1-67.8l95.7-95.7 41.1-41.1c12.1-12.1 12.1-31.7 0-43.7s-31.7-12.1-43.7 0l-41.1 41.1-95.7 95.7c-29.8 29.8-46.2 69.4-46.2 111.5 0 42.1 16.4 81.7 46.2 111.5l8.7 8.8c30.7 30.7 71.1 46.1 111.5 46.1 40.4 0 80.8-15.4 111.5-46.1l94.8-94.8 42.8-42.8c12.1-12.1 12.1-31.7 0-43.7-12.1-12.1-31.6-12.1-43.7 0zM838.7 208.8l-8.7-8.7c-29.8-29.8-69.4-46.2-111.5-46.2-42.1 0-81.7 16.4-111.5 46.2L496.1 310.8 448 358.9c-12.1 12.1-12.1 31.7 0 43.7 6 6 14 9.1 21.9 9.1 7.9 0 15.8-3 21.9-9.1l48.1-48.1 110.8-110.8c18.1-18.1 42.2-28.1 67.8-28.1s49.7 10 67.8 28.1l8.7 8.7c37.4 37.4 37.4 98.2 0 135.6L686.7 496.3l-49.9 49.9c-12.1 12.1-12.1 31.7 0 43.7 6 6 14 9.1 21.9 9.1 7.9 0 15.8-3 21.9-9.1l49.9-49.9 108.2-108.2c61.5-61.4 61.5-161.5 0-223zM636.5 709.7c-1-13.6-12.9-23.9-26.5-22.8-13.6 1-23.9 12.9-22.8 26.5l6 81.3c1 13 11.8 22.9 24.6 22.9 0.6 0 1.2 0 1.9-0.1 13.6-1 23.9-12.9 22.8-26.5l-6-81.3zM698.2 682.5c-7.7-11.3-23.1-14.2-34.4-6.5-11.3 7.7-14.2 23.1-6.5 34.4l45.9 67.4c4.8 7 12.6 10.8 20.5 10.8 4.8 0 9.6-1.4 13.9-4.3 11.3-7.7 14.2-23.1 6.5-34.4l-45.9-67.4zM791.6 650.2l-73.5-35.4c-12.3-5.9-27.1-0.8-33 11.5-5.9 12.3-0.8 27.1 11.5 33l73.5 35.4c3.5 1.7 7.1 2.5 10.7 2.5 9.2 0 18-5.2 22.3-14 5.9-12.2 0.8-27-11.5-33z"
        fill="currentColor" p-id="6394"></path>
</svg>