<svg xmlns="http://www.w3.org/2000/svg" xmlns:xlink="http://www.w3.org/1999/xlink" fill="none" version="1.1" width="20" height="20" viewBox="0 0 20 20"><defs><clipPath id="master_svg0_39_681"><rect x="0" y="0" width="20" height="20" rx="0"/></clipPath></defs><g clip-path="url(#master_svg0_39_681)"><g><path d="M6.849999904632568,13.149609375L2.9999999046325683,13.149609375Q2.5236579046325684,13.149609375,2.186834904632568,12.812809375Q1.8499999046325684,12.476009375,1.8499999046325684,11.999609375L1.8499999046325684,2.999609375Q1.8499999046325684,2.523264375,2.1868269046325683,2.186436375Q2.5236549046325685,1.849609375,2.9999999046325683,1.849609375L11.999999904632569,1.849609375Q12.476399904632569,1.849609375,12.813199904632569,2.1864443749999998Q13.149999904632569,2.523267375,13.149999904632569,2.999609375L13.149999904632569,6.849609375L16.999999904632567,6.849609375Q17.47639990463257,6.849609375,17.81319990463257,7.186449375Q18.14999990463257,7.523269375,18.14999990463257,7.999609375L18.14999990463257,16.999609375Q18.14999990463257,17.476009375,17.81319990463257,17.812809375Q17.47639990463257,18.149609375,16.999999904632567,18.149609375L7.999999904632569,18.149609375Q7.523659904632568,18.149609375,7.186839904632568,17.812809375Q6.849999904632568,17.476009375,6.849999904632568,16.999609375L6.849999904632568,13.149609375Z" fill-rule="evenodd" fill="#CCCCCC" fill-opacity="1"/></g><g><path d="M8.1,16.9L8.1,12.5Q8.1,12.440909999999999,8.088471,12.382950000000001Q8.076942,12.32499,8.054328,12.270389999999999Q8.031713,12.21579,7.998882,12.16666Q7.96605,12.117519999999999,7.924264,12.07574Q7.882478,12.03395,7.833342,12.00112Q7.784207,11.96829,7.72961,11.94567Q7.675014,11.92306,7.617054,11.911529999999999Q7.5590948000000004,11.9,7.5,11.9Q7.4409051999999996,11.9,7.382946,11.911529999999999Q7.324986,11.92306,7.27039,11.94567Q7.215793,11.96829,7.166658,12.00112Q7.117522,12.03395,7.075736,12.07574Q7.03395,12.117519999999999,7.001118,12.16666Q6.968287,12.21579,6.945672,12.270389999999999Q6.923058,12.32499,6.911529,12.382950000000001Q6.9,12.440909999999999,6.9,12.5L6.9,17Q6.9,17.45566,7.22219,17.7778Q7.5443683,18.1,8,18.1L17,18.1Q17.45565,18.1,17.7778,17.7778Q18.1,17.45565,18.1,17L18.1,8Q18.1,7.5443682,17.7778,7.22219Q17.45566,6.9,17,6.9L12.5,6.9Q12.440909999999999,6.9,12.382950000000001,6.911529Q12.32499,6.923058,12.270389999999999,6.945672Q12.21579,6.968287,12.16666,7.001118Q12.117519999999999,7.03395,12.07574,7.075736Q12.03395,7.117522,12.00112,7.166658Q11.96829,7.215793,11.94567,7.27039Q11.92306,7.324986,11.911529999999999,7.382946Q11.9,7.4409051999999996,11.9,7.5Q11.9,7.5590948000000004,11.911529999999999,7.617054Q11.92306,7.675014,11.94567,7.72961Q11.96829,7.784207,12.00112,7.833342Q12.03395,7.882478,12.07574,7.924264Q12.117519999999999,7.96605,12.16666,7.998882Q12.21579,8.031713,12.270389999999999,8.054328Q12.32499,8.076942,12.382950000000001,8.088471Q12.440909999999999,8.1,12.5,8.1L16.9,8.1L16.9,16.9L8.1,16.9Z" fill-rule="evenodd" fill="#FFFFFF" fill-opacity="1"/></g><g><path d="M3,13.1L7.5,13.1Q7.55909,13.1,7.61705,13.0885Q7.67501,13.0769,7.72961,13.0543Q7.78421,13.0317,7.83334,12.9989Q7.88248,12.9661,7.92426,12.9243Q7.96605,12.8825,7.99888,12.8333Q8.03171,12.7842,8.05433,12.7296Q8.07694,12.675,8.088470000000001,12.6171Q8.1,12.5591,8.1,12.5Q8.1,12.44091,8.088470000000001,12.38295Q8.07694,12.32499,8.05433,12.27039Q8.03171,12.21579,7.99888,12.16666Q7.96605,12.11752,7.92426,12.07573Q7.88248,12.03395,7.83334,12.00112Q7.78421,11.96828,7.72961,11.94567Q7.67501,11.92306,7.61705,11.91153Q7.55909,11.9,7.5,11.9L3.1,11.9L3.1,3.1L11.9,3.1L11.9,7.5Q11.9,7.55909,11.91153,7.61705Q11.92306,7.67501,11.94567,7.72961Q11.96828,7.78421,12.00112,7.83334Q12.03395,7.88248,12.07574,7.92426Q12.11752,7.96605,12.16666,7.99888Q12.21579,8.03171,12.27039,8.05433Q12.32499,8.07694,12.38295,8.088470000000001Q12.44091,8.1,12.5,8.1Q12.5591,8.1,12.6171,8.088470000000001Q12.675,8.07694,12.7296,8.05433Q12.7842,8.03171,12.8333,7.99888Q12.8825,7.96605,12.9243,7.92426Q12.9661,7.88248,12.9989,7.83334Q13.0317,7.78421,13.0543,7.72961Q13.0769,7.67501,13.0885,7.61705Q13.1,7.55909,13.1,7.5L13.1,3Q13.1,2.5443681,12.7778,2.22219Q12.45566,1.9,12,1.9L3,1.9Q2.5443656,1.9,2.2221830000000002,2.2221830000000002Q1.9,2.5443655,1.9,3L1.9,12Q1.9,12.45566,2.22219,12.7778Q2.5443681,13.1,3,13.1Z" fill-rule="evenodd" fill="#FFFFFF" fill-opacity="1"/></g></g></svg>