<svg width="200" height="200" viewBox="0 0 200 200" fill="none" xmlns="http://www.w3.org/2000/svg">
<rect x="39.5" y="93.5" width="121" height="70" rx="6.5" fill="#D9D9D9" stroke="#D9D9D9" stroke-width="7"/>
<path d="M63 55C63 50.1411 63.957 45.3298 65.8165 40.8407C67.6759 36.3517 70.4013 32.2728 73.8371 28.837C77.2728 25.4013 81.3517 22.6759 85.8407 20.8165C90.3298 18.957 95.1411 18 100 18C104.859 18 109.67 18.957 114.159 20.8165C118.648 22.6759 122.727 25.4013 126.163 28.8371C129.599 32.2728 132.324 36.3517 134.184 40.8407C136.043 45.3298 137 50.1411 137 55L114.826 55C114.826 53.0531 114.442 51.1252 113.697 49.3265C112.952 47.5277 111.86 45.8934 110.483 44.5167C109.107 43.14 107.472 42.0479 105.674 41.3029C103.875 40.5578 101.947 40.1743 100 40.1743C98.0531 40.1743 96.1252 40.5578 94.3265 41.3029C92.5277 42.0479 90.8934 43.14 89.5167 44.5167C88.14 45.8934 87.0479 47.5277 86.3029 49.3265C85.5578 51.1252 85.1743 53.0531 85.1743 55L63 55Z" fill="#D9D9D9"/>
<rect x="63" y="55" width="22.2" height="48.7167" fill="#D9D9D9"/>
</svg>
