<svg xmlns="http://www.w3.org/2000/svg" xmlns:xlink="http://www.w3.org/1999/xlink" fill="none" version="1.1" width="14" height="14" viewBox="0 0 14 14"><defs><clipPath id="master_svg0_53_0362"><rect x="0" y="0" width="14" height="14" rx="0"/></clipPath></defs><g clip-path="url(#master_svg0_53_0362)"><g><path d="M1.4416259765625,11.847089921875L1.4416259765625,7.430419921875Q1.4416259765625,6.767677921875,1.9102549765625,6.299048921875Q2.3788839765625,5.830419921875,3.0416259765625,5.830419921875L10.9582959765625,5.830419921875Q11.6210359765625,5.830419921875,12.0896259765625,6.299048921875Q12.5583259765625,6.7676789218749995,12.5583259765625,7.430419921875L12.5583259765625,11.847089921875Q12.5583259765625,12.509829921875,12.0896259765625,12.978459921875Q11.6210359765625,13.447089921875001,10.9582959765625,13.447089921875001L3.0416259765625,13.447089921875001Q2.3788849765625,13.447089921875001,1.9102549765625,12.978459921875Q1.4416259765625,12.509829921875,1.4416259765625,11.847089921875ZM2.6416259765625,11.847089921875Q2.6416259765625,12.247089921875,3.0416259765625,12.247089921875L10.9582959765625,12.247089921875Q11.3582959765625,12.247089921875,11.3582959765625,11.847089921875L11.3582959765625,7.430419921875Q11.3582959765625,7.030419921875,10.9582959765625,7.030419921875L3.0416259765625,7.030419921875Q2.6416259765625,7.030419921875,2.6416259765625,7.430419921875L2.6416259765625,11.847089921875Z" fill="#808080" fill-opacity="1"/></g><g><path d="M8.4234240234375,2.219818046875Q9.1497440234375,2.7491980468749997,9.3289540234375,3.622428046875Q9.3393040234375,3.672818046875,9.3580640234375,3.720708046875Q9.3768340234375,3.768608046875,9.4034840234375,3.812608046875Q9.4301240234375,3.856608046875,9.4638740234375,3.895428046875Q9.4976240234375,3.934248046875,9.5374840234375,3.966758046875Q9.577344023437501,3.999278046875,9.622164023437499,4.024528046875Q9.6669740234375,4.049778046875,9.7154340234375,4.067038046875Q9.7638940234375,4.084288046875,9.8145840234375,4.0930480468749995Q9.8652740234375,4.101798046875,9.9167040234375,4.101798046875Q9.975804023437501,4.101798046875,10.033764023437499,4.090268046875Q10.0917240234375,4.078748046875,10.146314023437501,4.056128046875Q10.2009140234375,4.033518046875,10.2500540234375,4.000688046875Q10.299184023437501,3.967848046875,10.3409740234375,3.926068046875Q10.3827540234375,3.884278046875,10.4155940234375,3.835148046875Q10.4484240234375,3.786008046875,10.4710340234375,3.731408046875Q10.4936540234375,3.676818046875,10.5051840234375,3.618858046875Q10.5167040234375,3.560898046875,10.5167040234375,3.501798046875Q10.5167040234375,3.440868046875,10.5044540234375,3.381178046875Q10.2318740234375,2.052991046875,9.130234023437499,1.250065546875Q8.0311340234375,0.44898804687500005,6.6737640234375,0.584647046875Q5.3157240234375,0.7203690468749999,4.3999700234375,1.723574046875Q3.4820020234375,2.7292080468749997,3.4833760234374997,4.0853980468749995L3.4833750234375,6.416748046875Q3.4833750234375,6.475838046875,3.4949040234375,6.533798046875Q3.5064330234375,6.591758046875,3.5290480234375,6.646358046875Q3.5516620234375003,6.700958046875,3.5844930234375,6.750088046875Q3.6173250234375,6.799228046875,3.6591110234375,6.841008046875Q3.7008970234375,6.882798046875,3.7500330234375,6.915628046875Q3.7991680234375,6.948458046875,3.8537640234375,6.971078046875Q3.9083610234375,6.993688046875,3.9663200234375,7.005218046875Q4.0242793234375,7.016748046875,4.0833740234375,7.016748046875Q4.1424690234375,7.016748046875,4.2004280234375,7.005218046875Q4.2583880234375,6.993688046875,4.3129850234375,6.971078046875Q4.3675810234375,6.948458046875,4.4167170234375,6.915628046875Q4.4658530234375,6.882798046875,4.5076390234375,6.841008046875Q4.5494250234375,6.799228046875,4.5822570234375,6.750088046875Q4.6150880234375,6.700958046875,4.6377030234375,6.646358046875Q4.6603180234375,6.591758046875,4.6718470234375005,6.533798046875Q4.6833750234375,6.475838046875,4.6833750234375,6.416748046875L4.6833750234375,4.0841780468749995Q4.6824740234375,3.194028046875,5.2862440234375,2.532598046875Q5.8922440234375,1.868730046875,6.7930940234375,1.778699046875Q7.6945840234375,1.688602046875,8.4234240234375,2.219818046875Z" fill-rule="evenodd" fill="#808080" fill-opacity="1"/></g></g></svg>