<svg xmlns="http://www.w3.org/2000/svg" xmlns:xlink="http://www.w3.org/1999/xlink" fill="none" version="1.1" width="19.0740966796875" height="17.5927734375" viewBox="0 0 19.0740966796875 17.5927734375"><g style="mix-blend-mode:passthrough"><g style="mix-blend-mode:passthrough"><rect x="3.074075698852539" y="6.925926208496094" width="16" height="10.666666984558105" rx="0" fill="#FFFFFF" fill-opacity="0"/><rect x="4.074075698852539" y="7.925926208496094" width="14" height="8.666666984558105" rx="0" fill-opacity="0" stroke-opacity="0.4699999988079071" stroke="#3D3D3D" fill="none" stroke-width="2"/></g><g style="mix-blend-mode:passthrough" transform="matrix(-1,0,0,1,15.03703784942627,0)"><path d="" fill="#FFFFFF" fill-opacity="0"/><path d="M6.518518924713135,7.51852L6.518518924713135,5.43006L6.518518924713135,4.259259999999999Q6.518518924713135,2.4950200000000002,7.766026924713135,1.247508Q9.013538924713135,0,10.777778924713134,0Q12.542018924713135,0,13.789528924713135,1.247508Q15.037038924713134,2.4950200000000002,15.037038924713134,4.259259999999999L15.037038924713134,5.43006L13.037038924713134,5.43006L13.037038924713134,4.259259999999999Q13.037038924713134,3.32344,12.375318924713135,2.66172Q11.713598924713136,2,10.777778924713134,2Q9.841958924713134,2,9.180238924713136,2.66172Q8.518518924713135,3.32344,8.518518924713135,4.259259999999999L8.518518924713135,5.43006L8.518518924713135,7.51852L6.518518924713135,7.51852Z" fill="#3D3D3D" fill-opacity="0.4699999988079071"/></g></g></svg>