<svg xmlns="http://www.w3.org/2000/svg" xmlns:xlink="http://www.w3.org/1999/xlink" fill="none" version="1.1" width="16" height="16" viewBox="0 0 16 16"><defs><clipPath id="master_svg0_27_728"><rect x="0" y="0" width="16" height="16" rx="0"/></clipPath></defs><g clip-path="url(#master_svg0_27_728)"><g><g><path d="M13.4,13.857177734375L13.4,14.714317734375001Q13.4,14.773417734375,13.4115,14.831377734375Q13.4231,14.889337734375001,13.4457,14.943927734375Q13.4683,14.998527734375,13.5011,15.047667734375Q13.5339,15.096797734375,13.5757,15.138587734375001Q13.6175,15.180367734375,13.6667,15.213207734375Q13.7158,15.246037734375001,13.7704,15.268647734375Q13.825,15.291257734375,13.8829,15.302787734375Q13.9409,15.314317734374999,14,15.314317734374999Q14.0591,15.314317734374999,14.1171,15.302787734375Q14.175,15.291257734375,14.2296,15.268647734375Q14.2842,15.246037734375001,14.3333,15.213197734375001Q14.3825,15.180367734375,14.4243,15.138587734375001Q14.4661,15.096797734375,14.4989,15.047667734375Q14.5317,14.998527734375,14.5543,14.943927734375Q14.5769,14.889337734375001,14.5885,14.831377734375Q14.6,14.773417734375,14.6,14.714317734375001L14.6,13.857177734375Q14.6,11.123367734375,12.6669,9.190267734375Q10.73382,7.257177734375,8,7.257177734375Q5.26619,7.257177734375,3.3331,9.190267734375Q1.4,11.123367734375,1.4,13.857177734375L1.4,14.714317734375001Q1.4,14.773417734375,1.411529,14.831377734375Q1.4230580000000002,14.889337734375001,1.445672,14.943927734375Q1.4682870000000001,14.998527734375,1.501118,15.047667734375Q1.53395,15.096797734375,1.575736,15.138587734375001Q1.6175220000000001,15.180367734375,1.666658,15.213207734375Q1.7157930000000001,15.246037734375001,1.77039,15.268647734375Q1.824986,15.291257734375,1.882946,15.302787734375Q1.9409052,15.314317734374999,2,15.314317734374999Q2.0590948,15.314317734374999,2.117054,15.302787734375Q2.175014,15.291257734375,2.22961,15.268647734375Q2.284207,15.246037734375001,2.333342,15.213197734375001Q2.382478,15.180367734375,2.424264,15.138587734375001Q2.46605,15.096797734375,2.498882,15.047667734375Q2.531713,14.998527734375,2.554328,14.943927734375Q2.576942,14.889337734375001,2.588471,14.831377734375Q2.6,14.773417734375,2.6,14.714317734375001L2.6,13.857177734375Q2.6,11.620427734375,4.181620000000001,10.038797734375Q5.76325,8.457177734375,8,8.457178734375Q10.23676,8.457177734375,11.81838,10.038797734375Q13.4,11.620417734375,13.4,13.857177734375Z" fill-rule="evenodd" fill="currentColor" fill-opacity="1"/></g><g><path d="M4.8657076015625,1.579941Q3.6857666015625,2.75988,3.6857666015625,4.428570000000001Q3.6857666015625,6.09724,4.8657066015625,7.27719Q6.0456566015625,8.457139999999999,7.714336601562501,8.457139999999999Q9.3830066015625,8.457139999999999,10.562956601562501,7.27719Q11.742906601562499,6.09724,11.742906601562499,4.428570000000001Q11.742906601562499,2.75989,10.562956601562501,1.5799400000000001Q9.3830066015625,0.4,7.714336601562501,0.4Q6.0456466015625,0.4,4.8657076015625,1.579941ZM5.7142366015625,6.42866Q4.8857666015625,5.60019,4.8857666015625,4.428570000000001Q4.8857666015625,3.25694,5.7142366015625,2.42847Q6.5427066015625,1.6,7.714336601562501,1.600001Q8.8859566015625,1.6,9.7144266015625,2.42847Q10.5429066015625,3.25695,10.5429066015625,4.428570000000001Q10.5429066015625,5.60018,9.7144266015625,6.42866Q8.8859466015625,7.25714,7.714336601562501,7.25714Q6.5427166015625,7.25714,5.7142366015625,6.42866Z" fill-rule="evenodd" fill="currentColor" fill-opacity="1"/></g></g></g></svg>