<svg xmlns="http://www.w3.org/2000/svg" xmlns:xlink="http://www.w3.org/1999/xlink"
    xmlns:xhtml="http://www.w3.org/1999/xhtml" data-v-46cf0610="" data-v-a9142392="" width="16"
    height="16" viewBox="6.090153743533445 6 16 16" version="1.1"
    preserveAspectRatio="xMinYMin meet" overflow="visible" style="background-color: transparent;">
    <g style="transform:matrix(1,0,0,1,6.090153743533445,6);">
        <g clip-path="url(#clippath-artboard-4737)">
            <svg xmlns="http://www.w3.org/2000/svg" xmlns:xlink="http://www.w3.org/1999/xlink"
                xmlns:xhtml="http://www.w3.org/1999/xhtml" preserveAspectRatio="xMinYMin meet"
                overflow="hidden" width="16" height="16" viewBox="0 0 16 16">
                <clipPath id="clippath-artboard-4737">
                    <path d="M 0 0 l 16 0 l 0 16 l -16 0 z" clip-rule="evenodd" />
                </clipPath>
                <g
                    style="transform:matrix(6.123233995736766e-17,1,-1,6.123233995736766e-17,11.99999999999998,1.8465471647132485);">
                    <path
                        d="M 7.847151977769058 1.1099537011791818 C 7.725214197034211 0.9880185212288219 7.656709533611881 0.822638536793333 7.656709533611881 0.6501961220798133 C 7.656709533611881 0.2911032069930857 7.947815341389456 0 8.306905655691695 0 C 8.479350671189701 0 8.644734556801923 0.06850258279473848 8.766659333614331 0.19043854298044482 L 12.11646975456953 3.540239861189934 C 12.184766355232794 3.6085364618531974 12.234701417408521 3.688263510342624 12.266248933251834 3.773244143498456 C 12.286730111097349 3.8282637393488494 12.299968104142895 3.886807398180916 12.304818567213609 3.947717770897353 C 12.307601406616111 3.9825162673510643 12.307601406616111 4.017496818718958 12.304818567213609 4.052282311250228 C 12.299968104142895 4.113192683966665 12.286730111097349 4.171736342798732 12.266248933251834 4.226755938649126 C 12.234701417408521 4.311736571804957 12.184766355232794 4.391450616371942 12.11646975456953 4.459760220957647 L 8.766659333614331 7.8095576379904035 C 8.644734556801923 7.931495418725253 8.479350671189701 8.000000082147581 8.306905655691695 8.000000082147581 C 7.947815341389456 8.000000082147581 7.656709533611881 7.7088942743700075 7.656709533611881 7.349803960067767 C 7.656709533611881 7.17735894456976 7.725214197034211 7.011975058957539 7.847438064062773 6.889751191928975 L 10.086999594799366 4.650202665114825 L 0.6501961220798134 4.650202665114825 C 0.29110320699308573 4.650202665114825 0 4.359096857337251 0 4.000006543035012 C 0 3.640903224810331 0.29110320699308573 3.3498104209551984 0.6501961220798134 3.3498104209551984 L 10.086999594799366 3.3498104209551984 L 7.847151977769058 1.1099537011791818 Z"
                        fill="rgb(38,38,38)" fill-opacity="1" stroke="none" stroke-width="0"
                        fill-rule="evenodd" />
                </g>
            </svg>
        </g>
    </g>
</svg>