<svg xmlns="http://www.w3.org/2000/svg" xmlns:xlink="http://www.w3.org/1999/xlink" fill="none"
    version="1.1" width="12" height="12" viewBox="0 0 12 12">
    <defs>
        <clipPath id="master_svg0_3013_18045">
            <rect x="0" y="0" width="12" height="12" rx="0" />
        </clipPath>
    </defs>
    <g clip-path="url(#master_svg0_3013_18045)">
        <g transform="matrix(0,1,1,0,0.5999755859375,-0.5999755859375)">
            <path
                d="M1,1.0521984140625L1,9.7478544140625C1,10.1080344140625,1.268629,10.4000244140625,1.6,10.4000244140625C1.931371,10.4000244140625,2.2,10.1080344140625,2.2,9.7478544140625L2.2,1.0521984140625C2.2,0.6920124140625,1.931371,0.4000244140625,1.6,0.4000244140625C1.268629,0.4000244140625,1,0.6920124140625,1,1.0521984140625Z"
                fill-rule="evenodd" fill="#8C8C8C" fill-opacity="1" />
        </g>
        <g transform="matrix(0,1,1,0,-9.4000244140625,9.4000244140625)">
            <path
                d="M1,11.0521984140625L1,19.747854414062502C1,20.1080344140625,1.268629,20.4000244140625,1.6,20.4000244140625C1.931371,20.4000244140625,2.2,20.1080344140625,2.2,19.747854414062502L2.2,11.0521984140625C2.2,10.6920124140625,1.931371,10.4000244140625,1.6,10.4000244140625C1.268629,10.4000244140625,1,10.6920124140625,1,11.0521984140625Z"
                fill-rule="evenodd" fill="#8C8C8C" fill-opacity="1" />
        </g>
        <g transform="matrix(0,1,-1,0,10.000091552734375,-6.000091552734375)">
            <path
                d="M9.880951552734375,2.128168L8.106534552734376,3.72662C8.038452352734375,3.79864,8.000091552734375,3.89717,8.000091552734375,4.00002C8.000091552734375,4.10288,8.038452352734375,4.20141,8.106534552734376,4.27342L9.880951552734375,5.871840000000001C10.010901552734374,6.02954,10.234761552734374,6.04362,10.380951552734375,5.903449999999999C10.456561552734374,5.83095,10.500091552734375,5.7271,10.500091552734375,5.61798L10.500091552734375,4.5999L13.500091552734375,4.5999L13.500091552734375,5.61798C13.500091552734375,5.7271,13.543621552734376,5.83095,13.619231552734375,5.903449999999999C13.765421552734374,6.04362,13.989281552734376,6.02954,14.119231552734375,5.871840000000001L15.893651552734376,4.27342C15.961731552734374,4.20141,16.000091552734375,4.10288,16.000091552734375,4.00002C16.000091552734375,3.89717,15.961731552734374,3.79864,15.893651552734376,3.72662L14.119231552734375,2.128168C14.052021552734374,2.0466108,13.955421552734375,2.00000858307,13.854261552734375,2.00000858307C13.658661552734376,2.00000858307,13.500091552734375,2.171045,13.500091552734375,2.38203L13.500091552734375,3.3998999999999997L10.500091552734375,3.3998999999999997L10.500091552734375,2.38203C10.500091552734375,2.171045,10.341521552734374,2.00000858307,10.145921552734375,2.00000858307C10.044761552734375,2.00000858307,9.948161552734375,2.0466108,9.880951552734375,2.128168Z"
                fill-rule="evenodd" fill="#8C8C8C" fill-opacity="1" />
        </g>
    </g>
</svg>