<svg xmlns="http://www.w3.org/2000/svg" xmlns:xlink="http://www.w3.org/1999/xlink" fill="none" version="1.1" width="9.281767845153809" height="35" viewBox="0 0 9.281767845153809 35"><g style="mix-blend-mode:passthrough"><path d="M4.34375,28L6.98438,28L9.59375,17.4453C9.88281,16.0781,10.2188,14.8125,10.4844,13.4766L10.5781,13.4766C10.8672,14.8125,11.1328,16.0781,11.4453,17.4609L14.1094,28L16.7969,28L20.4219,10.5L18.3125,10.5L16.4141,20.0312C16.1016,21.9141,15.7656,23.7969,15.4531,25.7031L15.3125,25.7031C14.875,23.7969,14.4922,21.8906,14.0625,20.0312L11.6094,10.5L9.57031,10.5L7.14844,20.0312C6.71875,21.9141,6.28125,23.7969,5.89844,25.7031L5.80469,25.7031C5.44531,23.7969,5.10938,21.9141,4.75,20.0312L2.89844,10.5L0.617188,10.5L4.34375,28Z" fill="#3D3D3D" fill-opacity="1"/></g></svg>