<svg data-v-1f6b1094="" data-v-9a1717a6="" width="14" height="14" viewBox="2529 262 14.000000000000002 14.000000000000002" version="1.1" xmlns="http://www.w3.org/2000/svg" xmlns:xlink="http://www.w3.org/1999/xlink" xmlns:xhtml="http://www.w3.org/1999/xhtml" preserveAspectRatio="xMinYMin meet" overflow="visible" style="background-color: transparent;"><g style="transform:matrix(1,0,0,1,2529,262);"><g style="transform:matrix(1,-1.1102230246251565e-16,-1.1102230246251565e-16,-1,0,14);"><g clip-path="url(#clippath-artboard-564)"><svg xmlns="http://www.w3.org/2000/svg" xmlns:xlink="http://www.w3.org/1999/xlink" xmlns:xhtml="http://www.w3.org/1999/xhtml" preserveAspectRatio="xMinYMin meet" overflow="hidden" width="14" height="14" viewBox="0 0 14 14"><clipPath id="clippath-artboard-564"><path d="M 0 0 l 14 0 l 0 14 l -14 0 z" clip-rule="evenodd"/></clipPath><g style="transform:matrix(1,0,0,1,0.6666666666665151,0.6666666666669698);"><path d="M 1.8549900000001511 10.811699999999696 C 3.7100100000001515 12.666699999999697 6.333330000000151 12.666699999999697 6.333330000000151 12.666699999999697 C 8.95666000000015 12.666699999999697 10.811700000000153 10.811699999999696 10.811700000000153 10.811699999999696 C 12.666700000000153 8.956659999999696 12.666700000000153 6.333329999999696 12.666700000000153 6.333329999999696 C 12.666700000000153 3.7100099999996967 10.811700000000153 1.8549899999996962 10.811700000000153 1.8549899999996962 C 8.956670000000152 -3.034941402357827e-13 6.333330000000151 -3.034941402357827e-13 6.333330000000151 -3.034941402357827e-13 C 3.7100100000001515 -3.034941402357827e-13 1.8549900000001511 1.8549899999996962 1.8549900000001511 1.8549899999996962 C 1.5135155212453456e-13 3.7100099999996967 1.5135155212453456e-13 6.333329999999696 1.5135155212453456e-13 6.333329999999696 C 1.5135155212453456e-13 8.956669999999697 1.8549900000001511 10.811699999999696 1.8549900000001511 10.811699999999696 Z M 10.10456000000015 10.104559999999696 C 8.542450000000153 11.666699999999697 6.333330000000151 11.666699999999697 6.333330000000151 11.666699999999697 C 4.124220000000152 11.666699999999697 2.5621000000001515 10.104559999999696 2.5621000000001515 10.104559999999696 C 1.0000000000001514 8.542449999999697 1.0000000000001514 6.333329999999696 1.0000000000001514 6.333329999999696 C 1.0000000000001514 4.124219999999697 2.5620900000001514 2.5620999999996967 2.5620900000001514 2.5620999999996967 C 4.124220000000152 0.9999999999996966 6.333330000000151 0.9999999999996966 6.333330000000151 0.9999999999996966 C 8.542450000000153 0.9999999999996966 10.10456000000015 2.5620899999996967 10.10456000000015 2.5620899999996967 C 11.666700000000153 4.124219999999697 11.666700000000153 6.333329999999696 11.666700000000153 6.333329999999696 C 11.666700000000153 8.542449999999697 10.10456000000015 10.104559999999696 10.10456000000015 10.104559999999696 Z" fill="currentColor" fill-opacity="1" stroke="none" stroke-width="0" fill-rule="evenodd"/></g><g style="transform:matrix(1,0,0,1,6.270833333333333,9.333333333333332);"><path d="M 0.7291666666666666 1.4583333333333333 C 1.1318708333333336 1.4583333333333333 1.4583333333333333 1.1318708333333325 1.4583333333333333 0.7291666666666666 C 1.4583333333333333 0.32646250000000077 1.1318708333333336 0 0.7291666666666666 0 C 0.3264624999999997 0 0 0.32646250000000077 0 0.7291666666666666 C 0 1.1318708333333325 0.3264624999999997 1.4583333333333333 0.7291666666666666 1.4583333333333333 Z" fill="currentColor" fill-opacity="1" stroke="none" stroke-width="0" fill-rule="evenodd"/></g><g style="transform:matrix(1,0,0,1,6.5,3);"><path d="M 1 5.16667 C 1 5.215909999999999 0.9903930000000001 5.264209999999999 0.9903930000000001 5.264209999999999 C 0.980785 5.312509999999999 0.96194 5.358009999999999 0.96194 5.358009999999999 C 0.943094 5.403499999999999 0.915735 5.444449999999999 0.915735 5.444449999999999 C 0.888375 5.4854 0.853553 5.52022 0.853553 5.52022 C 0.818731 5.55504 0.777785 5.5824 0.777785 5.5824 C 0.736839 5.609759999999999 0.691342 5.62861 0.691342 5.62861 C 0.645845 5.64745 0.5975451 5.6570599999999995 0.5975451 5.6570599999999995 C 0.5492457 5.666669999999999 0.5 5.666669999999999 0.5 5.666669999999999 C 0.4507543 5.666669999999999 0.4024549 5.6570599999999995 0.4024549 5.6570599999999995 C 0.354155 5.64745 0.308658 5.62861 0.308658 5.62861 C 0.263161 5.609759999999999 0.222215 5.5824 0.222215 5.5824 C 0.181269 5.55504 0.146447 5.52022 0.146447 5.52022 C 0.11162499999999997 5.4854 0.08426499999999998 5.444449999999999 0.08426499999999998 5.444449999999999 C 0.05690600000000001 5.403499999999999 0.03805999999999998 5.358009999999999 0.03805999999999998 5.358009999999999 C 0.019214999999999982 5.312509999999999 0.009606999999999977 5.264209999999999 0.009606999999999977 5.264209999999999 C 0 5.215909999999999 0 5.16667 0 5.16667 L 0 0.4999999999999997 C 0 0.4507542999999997 0.009606999999999977 0.4024548999999997 0.009606999999999977 0.4024548999999997 C 0.019214999999999982 0.3541549999999998 0.03805999999999998 0.3086579999999997 0.03805999999999998 0.3086579999999997 C 0.05690600000000001 0.26316099999999976 0.08426499999999998 0.22221499999999975 0.08426499999999998 0.22221499999999975 C 0.11162499999999997 0.18126899999999976 0.146447 0.14644699999999972 0.146447 0.14644699999999972 C 0.181269 0.1116249999999997 0.222215 0.08426499999999969 0.222215 0.08426499999999969 C 0.263161 0.05690599999999979 0.308658 0.03805999999999974 0.308658 0.03805999999999974 C 0.354155 0.019214999999999788 0.4024549 0.009606999999999723 0.4024549 0.009606999999999723 C 0.4507543 -2.3592253151072384e-16 0.5 -2.3592253151072384e-16 0.5 -2.3592253151072384e-16 C 0.5492457 -2.3592253151072384e-16 0.5975451 0.009606999999999723 0.5975451 0.009606999999999723 C 0.645845 0.019214999999999788 0.691342 0.03805999999999974 0.691342 0.03805999999999974 C 0.736839 0.05690599999999979 0.777785 0.08426499999999969 0.777785 0.08426499999999969 C 0.818731 0.1116249999999997 0.853553 0.14644699999999972 0.853553 0.14644699999999972 C 0.888375 0.18126899999999976 0.915735 0.22221499999999975 0.915735 0.22221499999999975 C 0.943094 0.26316099999999976 0.96194 0.3086579999999997 0.96194 0.3086579999999997 C 0.980785 0.3541549999999998 0.9903930000000001 0.4024548999999997 0.9903930000000001 0.4024548999999997 C 1 0.4507542999999997 1 0.4999999999999997 1 0.4999999999999997 L 1 5.16667 Z" fill="currentColor" fill-opacity="1" stroke="none" stroke-width="0" fill-rule="evenodd"/></g></svg></g></g></g></svg>