<svg xmlns="http://www.w3.org/2000/svg" xmlns:xlink="http://www.w3.org/1999/xlink" fill="none" version="1.1" width="20" height="20" viewBox="0 0 20 20"><defs><clipPath id="master_svg0_186_407"><rect x="0" y="0" width="20" height="20" rx="0"/></clipPath></defs><g clip-path="url(#master_svg0_186_407)"><g><g><path d="M7.25375,1.917487382888794C3.14438,1.917487382888794,0,4.705607382888794,0,7.745607382888794Q0,10.785607382888793,2.715,12.546187382888794L2.27375,14.218687382888794C2.21563,14.439387382888794,2.45125,14.621187382888793,2.65,14.508687382888795L4.63312,13.384987382888793C5.51,13.664387382888794,7.37125,13.753687382888794,7.5525,13.761887382888794C7.4225,13.311187382888795,7.35812,12.866887382888795,7.35812,12.452487382888794C7.35812,10.106237382888795,9.40062,6.802487382888794,13.9406,6.802487382888794C14.0438,6.802487382888794,14.1475,6.804987382888794,14.2506,6.8093673828887935C13.6475,3.917487382888794,10.645,1.917488127946794,7.25375,1.917487382888794ZM4.54938,6.759987382888794C4.05125,6.759987382888794,3.64812,6.356237382888794,3.64812,5.858737382888794C3.64812,5.361237382888794,4.05187,4.957487382888794,4.54938,4.957487382888794C5.04687,4.957487382888794,5.45062,5.361237382888794,5.45062,5.858737382888794C5.45062,6.356237382888794,5.04687,6.759987382888794,4.54938,6.759987382888794ZM9.79062,6.759987382888794C9.2925,6.759987382888794,8.88937,6.356237382888794,8.88937,5.858737382888794C8.88937,5.361237382888794,9.29312,4.957487382888794,9.79062,4.957487382888794C10.2881,4.957487382888794,10.6919,5.361237382888794,10.6919,5.858737382888794C10.6919,6.356237382888794,10.2881,6.759987382888794,9.79062,6.759987382888794Z" fill="#000000" fill-opacity="1"/></g><g><path d="M19.999988427734372,12.085021445388794C19.999988427734372,9.422521445388794,16.876258427734374,7.473151445388794,13.941258427734375,7.473151445388794C9.790008427734374,7.473151445388794,8.029388427734375,10.471281445388794,8.029388427734375,12.451901445388794C8.029388427734375,14.432521445388794,9.790638427734375,17.430651445388794,13.941258427734375,17.430651445388794C14.859388427734375,17.430651445388794,15.667518427734375,17.298771445388795,16.370008427734376,17.065651445388795L17.931258427734377,18.056251445388796C18.054388427734374,18.134351445388795,18.210588427734375,18.023751445388793,18.177488427734374,17.881851445388794L17.823138427734374,16.344401445388794C19.298088427734378,15.317521445388794,19.999988427734372,13.698151445388794,19.999988427734372,12.085021445388794ZM12.043768427734374,11.578781445388794C11.603758427734375,11.578781445388794,11.246888427734374,11.221901445388793,11.246888427734374,10.781901445388794C11.246888427734374,10.341901445388794,11.603758427734375,9.985031445388794,12.043768427734374,9.985031445388794C12.483768427734375,9.985031445388794,12.840638427734376,10.341901445388794,12.840638427734376,10.781901445388794C12.840638427734376,11.222531445388794,12.483768427734375,11.578781445388794,12.043768427734374,11.578781445388794ZM16.026888427734374,11.578781445388794C15.586888427734376,11.578781445388794,15.230018427734375,11.221901445388793,15.230018427734375,10.781901445388794C15.230018427734375,10.341901445388794,15.586888427734376,9.985031445388794,16.026888427734374,9.985031445388794C16.466888427734375,9.985031445388794,16.823768427734375,10.341901445388794,16.823768427734375,10.781901445388794C16.823768427734375,11.221901445388793,16.466888427734375,11.578781445388794,16.026888427734374,11.578781445388794Z" fill="#000000" fill-opacity="1"/></g></g></g></svg>