<svg xmlns="http://www.w3.org/2000/svg" xmlns:xlink="http://www.w3.org/1999/xlink" fill="none" version="1.1" width="14" height="14" viewBox="0 0 14 14"><defs><clipPath id="master_svg0_388_02043"><rect x="0" y="0" width="14" height="14" rx="0"/></clipPath></defs><g clip-path="url(#master_svg0_388_02043)"><g transform="matrix(1,0,0,-1,0,10)"><path d="M3,9.6L5,9.6Q5.05909,9.6,5.11705,9.588470000000001Q5.17501,9.57694,5.22961,9.55433Q5.28421,9.53171,5.33334,9.49888Q5.38248,9.46605,5.42426,9.42426Q5.46605,9.382480000000001,5.49888,9.33334Q5.53171,9.28421,5.55433,9.229610000000001Q5.57694,9.17501,5.58847,9.117049999999999Q5.6,9.059090000000001,5.6,9Q5.6,8.9409,5.58847,8.882950000000001Q5.57694,8.82499,5.55433,8.770389999999999Q5.53171,8.71579,5.49888,8.66666Q5.46605,8.617519999999999,5.42426,8.57574Q5.38248,8.53395,5.33334,8.50112Q5.28421,8.46829,5.22961,8.44567Q5.17501,8.42306,5.11705,8.411529999999999Q5.05909,8.4,5,8.4L3,8.4Q2.4200999999999997,8.4,2.0100499999999997,7.98995Q1.6,7.5799,1.6,7L1.6,5Q1.6,4.9409051999999996,1.588471,4.882946Q1.5769419999999998,4.824986,1.554328,4.77039Q1.5317129999999999,4.715793,1.498882,4.666658Q1.46605,4.617522,1.424264,4.575736Q1.3824779999999999,4.53395,1.333342,4.501118Q1.2842069999999999,4.468287,1.22961,4.445672Q1.175014,4.423058,1.117054,4.411529Q1.0590948,4.4,1,4.4Q0.9409052,4.4,0.882946,4.411529Q0.824986,4.423058,0.77039,4.445672Q0.715793,4.468287,0.666658,4.501118Q0.617522,4.53395,0.575736,4.575736Q0.5339499999999999,4.617522,0.501118,4.666658Q0.468287,4.715793,0.44567199999999996,4.77039Q0.42305800000000005,4.824986,0.41152900000000003,4.882946Q0.4,4.9409051999999996,0.4,5L0.4,7Q0.4,8.07696,1.161522,8.83848Q1.923044,9.6,3,9.6Z" fill-rule="evenodd" fill="#FFFFFF" fill-opacity="1"/></g><g><path d="M3,13.6L5,13.6Q5.05909,13.6,5.11705,13.588470000000001Q5.17501,13.57694,5.22961,13.55433Q5.28421,13.53171,5.33334,13.49888Q5.38248,13.46605,5.42426,13.42426Q5.46605,13.382480000000001,5.49888,13.33334Q5.53171,13.28421,5.55433,13.229610000000001Q5.57694,13.17501,5.58847,13.117049999999999Q5.6,13.059090000000001,5.6,13Q5.6,12.9409,5.58847,12.882950000000001Q5.57694,12.82499,5.55433,12.770389999999999Q5.53171,12.71579,5.49888,12.66666Q5.46605,12.617519999999999,5.42426,12.57574Q5.38248,12.53395,5.33334,12.50112Q5.28421,12.46829,5.22961,12.44567Q5.17501,12.42306,5.11705,12.411529999999999Q5.05909,12.4,5,12.4L3,12.4Q2.4200999999999997,12.4,2.0100499999999997,11.98995Q1.6,11.5799,1.6,11L1.6,9Q1.6,8.9409052,1.588471,8.882946Q1.5769419999999998,8.824985999999999,1.554328,8.77039Q1.5317129999999999,8.715793,1.498882,8.666658Q1.46605,8.617522,1.424264,8.575736Q1.3824779999999999,8.53395,1.333342,8.501118Q1.2842069999999999,8.468287,1.22961,8.445672Q1.175014,8.423058,1.117054,8.411529Q1.0590948,8.4,1,8.4Q0.9409052,8.4,0.882946,8.411529Q0.824986,8.423058,0.77039,8.445672Q0.715793,8.468287,0.666658,8.501118Q0.617522,8.53395,0.575736,8.575736Q0.5339499999999999,8.617522,0.501118,8.666658Q0.468287,8.715793,0.44567199999999996,8.77039Q0.42305800000000005,8.824985999999999,0.41152900000000003,8.882946Q0.4,8.9409052,0.4,9L0.4,11Q0.4,12.07696,1.161522,12.83848Q1.923044,13.6,3,13.6Z" fill-rule="evenodd" fill="#FFFFFF" fill-opacity="1"/></g><g transform="matrix(-1,0,0,-1,26,10)"><path d="M15,9.6L17,9.6Q17.05909,9.6,17.11705,9.588470000000001Q17.17501,9.57694,17.22961,9.55433Q17.28421,9.53171,17.33334,9.49888Q17.38248,9.46605,17.42426,9.42426Q17.46605,9.382480000000001,17.49888,9.33334Q17.53171,9.28421,17.55433,9.229610000000001Q17.57694,9.17501,17.58847,9.117049999999999Q17.6,9.059090000000001,17.6,9Q17.6,8.9409,17.58847,8.882950000000001Q17.57694,8.82499,17.55433,8.770389999999999Q17.53171,8.71579,17.49888,8.66666Q17.46605,8.617519999999999,17.42426,8.57574Q17.38248,8.53395,17.33334,8.50112Q17.28421,8.46829,17.22961,8.44567Q17.17501,8.42306,17.11705,8.411529999999999Q17.05909,8.4,17,8.4L15,8.4Q14.4201,8.4,14.01005,7.98995Q13.6,7.5799,13.6,7L13.6,5Q13.6,4.9409051999999996,13.588471,4.882946Q13.576942,4.824986,13.554328,4.77039Q13.531713,4.715793,13.498882,4.666658Q13.46605,4.617522,13.424264,4.575736Q13.382478,4.53395,13.333342,4.501118Q13.284207,4.468287,13.22961,4.445672Q13.175014000000001,4.423058,13.117054,4.411529Q13.0590948,4.4,13,4.4Q12.9409052,4.4,12.882946,4.411529Q12.824985999999999,4.423058,12.77039,4.445672Q12.715793,4.468287,12.666658,4.501118Q12.617522,4.53395,12.575736,4.575736Q12.53395,4.617522,12.501118,4.666658Q12.468287,4.715793,12.445672,4.77039Q12.423058,4.824986,12.411529,4.882946Q12.4,4.9409051999999996,12.4,5L12.4,7Q12.4,8.07696,13.161522,8.83848Q13.923044,9.6,15,9.6Z" fill-rule="evenodd" fill="#FFFFFF" fill-opacity="1"/></g><g transform="matrix(-1,0,0,1,26,0)"><path d="M15,13.6L17,13.6Q17.05909,13.6,17.11705,13.588470000000001Q17.17501,13.57694,17.22961,13.55433Q17.28421,13.53171,17.33334,13.49888Q17.38248,13.46605,17.42426,13.42426Q17.46605,13.382480000000001,17.49888,13.33334Q17.53171,13.28421,17.55433,13.229610000000001Q17.57694,13.17501,17.58847,13.117049999999999Q17.6,13.059090000000001,17.6,13Q17.6,12.9409,17.58847,12.882950000000001Q17.57694,12.82499,17.55433,12.770389999999999Q17.53171,12.71579,17.49888,12.66666Q17.46605,12.617519999999999,17.42426,12.57574Q17.38248,12.53395,17.33334,12.50112Q17.28421,12.46829,17.22961,12.44567Q17.17501,12.42306,17.11705,12.411529999999999Q17.05909,12.4,17,12.4L15,12.4Q14.4201,12.4,14.01005,11.98995Q13.6,11.5799,13.6,11L13.6,9Q13.6,8.9409052,13.588471,8.882946Q13.576942,8.824985999999999,13.554328,8.77039Q13.531713,8.715793,13.498882,8.666658Q13.46605,8.617522,13.424264,8.575736Q13.382478,8.53395,13.333342,8.501118Q13.284207,8.468287,13.22961,8.445672Q13.175014000000001,8.423058,13.117054,8.411529Q13.0590948,8.4,13,8.4Q12.9409052,8.4,12.882946,8.411529Q12.824985999999999,8.423058,12.77039,8.445672Q12.715793,8.468287,12.666658,8.501118Q12.617522,8.53395,12.575736,8.575736Q12.53395,8.617522,12.501118,8.666658Q12.468287,8.715793,12.445672,8.77039Q12.423058,8.824985999999999,12.411529,8.882946Q12.4,8.9409052,12.4,9L12.4,11Q12.4,12.07696,13.161522,12.83848Q13.923044,13.6,15,13.6Z" fill-rule="evenodd" fill="#FFFFFF" fill-opacity="1"/></g></g></svg>