<svg xmlns="http://www.w3.org/2000/svg" xmlns:xlink="http://www.w3.org/1999/xlink" fill="none"
    version="1.1" width="36" height="32" viewBox="0 0 36 32">
    <g>
        <g>
            <path
                d="M18,16.65L34,16.65Q34.064,16.65,34.1268,16.63751Q34.1896,16.625021,34.2487,16.600522Q34.3079,16.576022000000002,34.3611,16.540455Q34.4143,16.504888,34.4596,16.459619Q34.5049,16.414351,34.5405,16.361121Q34.576,16.30789,34.6005,16.248744Q34.625,16.189598,34.6375,16.126809Q34.65,16.0640194,34.65,16Q34.65,15.9359806,34.6375,15.873191Q34.625,15.810402,34.6005,15.751256Q34.576,15.69211,34.5405,15.638879Q34.5049,15.585649,34.4596,15.540381Q34.4144,15.495112,34.3611,15.459545Q34.3079,15.423978,34.2487,15.399478Q34.1896,15.374979,34.1268,15.36249Q34.064,15.35,34,15.35L2,15.35Q1.9359806,15.35,1.873191,15.36249Q1.810402,15.374979,1.751256,15.399478Q1.69211,15.423978,1.638879,15.459545Q1.585649,15.495112,1.540381,15.540381Q1.495112,15.585649,1.4595449999999999,15.638879Q1.423978,15.69211,1.399478,15.751256Q1.374979,15.810402,1.36249,15.873191Q1.35,15.9359806,1.35,16Q1.35,16.0640194,1.36249,16.126809Q1.374979,16.189598,1.399478,16.248744Q1.423978,16.30789,1.4595449999999999,16.361121Q1.495112,16.414351,1.540381,16.459619Q1.585649,16.504888,1.638879,16.540455Q1.69211,16.576022000000002,1.751256,16.600522Q1.810402,16.625021,1.873191,16.63751Q1.9359806,16.65,2,16.65L18,16.65Z"
                fill-rule="evenodd" fill="#ffffff" fill-opacity="1" />
        </g>
        <g
            transform="matrix(1,-5.400848479553133e-8,5.400848479553133e-8,1,-7.021103023419073e-7,5.400848479553133e-8)">
            <path
                d="M3.57554,19.42407L3.57574,19.42426Q3.66013,19.50866,3.77039,19.55433Q3.88065,19.6,4,19.6Q4.11935,19.6,4.22961,19.55433Q4.3398699999999995,19.50866,4.42426,19.42426Q4.50866,19.33987,4.55433,19.22961Q4.6,19.11935,4.6,19Q4.6,18.88065,4.55433,18.77039Q4.50866,18.66013,4.42426,18.57574L4.42407,18.57554L1.848528,16L4.424110000000001,13.424419L4.42426,13.424264Q4.50866,13.339873,4.55433,13.22961Q4.6,13.119347,4.6,13Q4.6,12.880653,4.55433,12.77039Q4.50866,12.660127,4.42426,12.575736Q4.3398699999999995,12.491345,4.22961,12.445672Q4.11935,12.4,4,12.4Q3.88065,12.4,3.77039,12.445672Q3.66013,12.491345,3.57574,12.575736L3.57558,12.575891L0.575736,15.57574Q0.49134500000000003,15.66013,0.44567199999999996,15.770389999999999Q0.4,15.88065,0.4,16Q0.4,16.11935,0.44567199999999996,16.22961Q0.49134500000000003,16.33987,0.575736,16.42426L3.57554,19.42407Z"
                fill-rule="evenodd" fill="#ffffff" fill-opacity="1" />
        </g>
    </g>
</svg>