<svg xmlns="http://www.w3.org/2000/svg" xmlns:xlink="http://www.w3.org/1999/xlink" fill="none" version="1.1" width="14" height="14" viewBox="0 0 14 14"><defs><clipPath id="master_svg0_2002_24444/2002_21816/2002_21633"><rect x="0" y="0" width="14" height="14" rx="0"/></clipPath></defs><g clip-path="url(#master_svg0_2002_24444/2002_21816/2002_21633)"><g><path d="M1,0.4L13,0.4Q13.0591,0.4,13.1171,0.41152900000000003Q13.175,0.42305800000000005,13.2296,0.44567199999999996Q13.2842,0.468287,13.3333,0.501118Q13.3825,0.5339499999999999,13.4243,0.575736Q13.466,0.617522,13.4989,0.666658Q13.5317,0.715793,13.5543,0.77039Q13.5769,0.824986,13.5885,0.882946Q13.6,0.9409052,13.6,1Q13.6,1.0590948,13.5885,1.117054Q13.5769,1.175014,13.5543,1.22961Q13.5317,1.2842069999999999,13.4989,1.333342Q13.466,1.3824779999999999,13.4243,1.424264Q13.3825,1.46605,13.3333,1.498882Q13.2842,1.5317129999999999,13.2296,1.554328Q13.175,1.5769419999999998,13.1171,1.588471Q13.0591,1.6,13,1.6L1,1.6Q0.9409052,1.6,0.882946,1.588471Q0.824986,1.5769419999999998,0.77039,1.554328Q0.715793,1.5317129999999999,0.666658,1.498882Q0.617522,1.46605,0.575736,1.424264Q0.5339499999999999,1.3824779999999999,0.501118,1.333342Q0.468287,1.2842069999999999,0.44567199999999996,1.22961Q0.42305800000000005,1.175014,0.41152900000000003,1.117054Q0.4,1.0590948,0.4,1Q0.4,0.9409052,0.41152900000000003,0.882946Q0.42305800000000005,0.824986,0.44567199999999996,0.77039Q0.468287,0.715793,0.501118,0.666658Q0.5339499999999999,0.617522,0.575736,0.575736Q0.617522,0.5339499999999999,0.666658,0.501118Q0.715793,0.468287,0.77039,0.44567199999999996Q0.824986,0.42305800000000005,0.882946,0.41152900000000003Q0.9409052,0.4,1,0.4Z" fill-rule="evenodd" fill="#8C8C8C" fill-opacity="1"/></g><g><path d="M1,12.233251953125L13,12.233251953125Q13.0591,12.233251953125,13.1171,12.244780953125Q13.175,12.256309953125,13.2296,12.278923953125Q13.2842,12.301538953125,13.3333,12.334369953125Q13.3825,12.367201953125,13.4243,12.408987953125Q13.466,12.450773953125,13.4989,12.499909953125Q13.5317,12.549044953125,13.5543,12.603641953125Q13.5769,12.658237953124999,13.5885,12.716197953125Q13.6,12.774157153125,13.6,12.833251953125Q13.6,12.892346753125,13.5885,12.950305953125Q13.5769,13.008265953125001,13.5543,13.062861953125Q13.5317,13.117458953125,13.4989,13.166593953125Q13.466,13.215729953125,13.4243,13.257515953125Q13.3825,13.299301953125,13.3333,13.332133953125Q13.2842,13.364964953125,13.2296,13.387579953125Q13.175,13.410193953125,13.1171,13.421722953125Q13.0591,13.433251953125,13,13.433251953125L1,13.433251953125Q0.9409052,13.433251953125,0.882946,13.421722953125Q0.824986,13.410193953125,0.77039,13.387579953125Q0.715793,13.364964953125,0.666658,13.332133953125Q0.617522,13.299301953125,0.575736,13.257515953125Q0.5339499999999999,13.215729953125,0.501118,13.166593953125Q0.468287,13.117458953125,0.44567199999999996,13.062861953125Q0.42305800000000005,13.008265953125001,0.41152900000000003,12.950305953125Q0.4,12.892346753125,0.4,12.833251953125Q0.4,12.774157153125,0.41152900000000003,12.716197953125Q0.42305800000000005,12.658237953124999,0.44567199999999996,12.603641953125Q0.468287,12.549044953125,0.501118,12.499909953125Q0.5339499999999999,12.450773953125,0.575736,12.408987953125Q0.617522,12.367201953125,0.666658,12.334369953125Q0.715793,12.301538953125,0.77039,12.278923953125Q0.824986,12.256309953125,0.882946,12.244780953125Q0.9409052,12.233251953125,1,12.233251953125Z" fill-rule="evenodd" fill="#8C8C8C" fill-opacity="1"/></g><g><path d="M7.5458978125,4.040030046875Q7.5996778124999995,3.921714046875,7.5996778124999995,3.791748046875Q7.5996778124999995,3.732653246875,7.5881478125,3.674694046875Q7.5766178125,3.616734046875,7.5539978125000005,3.562138046875Q7.5313878125,3.507541046875,7.4985578125,3.458406046875Q7.4657278125,3.409270046875,7.4239378125,3.367484046875Q7.3821478124999995,3.325698046875,7.3330178125,3.292866046875Q7.2838778125,3.260035046875,7.2292878125,3.237420046875Q7.1746878125,3.214806046875,7.116727812500001,3.203277046875Q7.0587678125,3.191748046875,6.9996778125,3.191748046875Q6.9132678125,3.191748046875,6.8303778125,3.216127046875Q6.7474878125,3.2405060468749998,6.6748478124999995,3.287283046875Q6.6021978125,3.334061046875,6.5457078125,3.399434046875Q6.4892078125,3.464808046875,6.4534578125,3.543466046875L3.5367878125,9.960128046874999Q3.4830078125,10.078448046875,3.4830078125,10.208418046875Q3.4830078125,10.267508046875001,3.4945368125,10.325468046874999Q3.5060658125,10.383428046875,3.5286798125,10.438028046875Q3.5512948125,10.492618046875,3.5841258125,10.541758046875Q3.6169578125,10.590888046875001,3.6587438125,10.632678046875Q3.7005298125,10.674468046874999,3.7496658125,10.707298046875Q3.7988008125,10.740128046875,3.8533978125,10.762738046875Q3.9079938125,10.785358046875,3.9659538125,10.796888046875Q4.0239130124999996,10.808418046875001,4.0830078125,10.808418046875001Q4.1694104124999996,10.808418046875001,4.2523018125,10.784038046875Q4.3351938125,10.759658046875,4.4078388125,10.712878046875Q4.4804838125,10.666098046875,4.5369788125,10.600728046875Q4.5934738125,10.535358046875,4.6292278125,10.456698046875001L7.5458978125,4.040030046875L7.5458978125,4.040030046875Z" fill-rule="evenodd" fill="#8C8C8C" fill-opacity="1"/></g><g><path d="M5.25,7.566748046875L8.75,7.566748046875Q8.80909,7.566748046875,8.867049999999999,7.578277046875Q8.92501,7.589806046875,8.979610000000001,7.612420046875Q9.03421,7.635035046875,9.08334,7.667866046875Q9.132480000000001,7.700698046875,9.17426,7.742484046875Q9.21605,7.784270046875,9.24888,7.833406046875Q9.28171,7.882541046875,9.30433,7.937138046875Q9.32694,7.991734046875,9.338470000000001,8.049694046875Q9.35,8.107653246875,9.35,8.166748046875Q9.35,8.225842846875,9.338470000000001,8.283802046875Q9.32694,8.341762046875001,9.30433,8.396358046875Q9.28171,8.450955046875,9.24888,8.500090046875Q9.21605,8.549226046875,9.17426,8.591012046875Q9.132480000000001,8.632798046875,9.08334,8.665630046875Q9.03421,8.698461046875,8.979610000000001,8.721076046875Q8.92501,8.743690046875,8.867049999999999,8.755219046875Q8.80909,8.766748046875,8.75,8.766748046875L5.25,8.766748046875Q5.1909051999999996,8.766748046875,5.132946,8.755219046875Q5.074986,8.743690046875,5.02039,8.721076046875Q4.965793,8.698461046875,4.916658,8.665630046875Q4.867522,8.632798046875,4.825736,8.591012046875Q4.78395,8.549226046875,4.751118,8.500090046875Q4.718287,8.450955046875,4.695672,8.396358046875Q4.673058,8.341762046875001,4.661529,8.283802046875Q4.65,8.225842846875,4.65,8.166748046875Q4.65,8.107653246875,4.661529,8.049694046875Q4.673058,7.991734046875,4.695672,7.937138046875Q4.718287,7.882541046875,4.751118,7.833406046875Q4.78395,7.784270046875,4.825736,7.742484046875Q4.867522,7.700698046875,4.916658,7.667866046875Q4.965793,7.635035046875,5.02039,7.612420046875Q5.074986,7.589806046875,5.132946,7.578277046875Q5.1909051999999996,7.566748046875,5.25,7.566748046875Z" fill-rule="evenodd" fill="#8C8C8C" fill-opacity="1"/></g><g><path d="M7.546293,3.543626046875L10.46289,9.960128046874999Q10.51667,10.078448046875,10.51667,10.208418046875Q10.51667,10.267508046875001,10.50514,10.325468046874999Q10.49361,10.383428046875,10.47099,10.438028046875Q10.44838,10.492618046875,10.41555,10.541758046875Q10.382719999999999,10.590888046875001,10.34093,10.632678046875Q10.29914,10.674468046874999,10.25001,10.707298046875Q10.20087,10.740128046875,10.14628,10.762738046875Q10.09168,10.785358046875,10.03372,10.796888046875Q9.975760000000001,10.808418046875001,9.91667,10.808418046875001Q9.830259999999999,10.808418046875001,9.74737,10.784038046875Q9.664480000000001,10.759658046875,9.59184,10.712878046875Q9.51919,10.666098046875,9.4627,10.600728046875Q9.4062,10.535358046875,9.37045,10.456698046875001L6.453853,4.040190046875L6.45378,4.040030046875Q6.4,3.921714046875,6.4,3.791748046875Q6.4,3.732653246875,6.411529,3.674694046875Q6.423058,3.616734046875,6.445672,3.562138046875Q6.468287,3.507541046875,6.501118,3.458406046875Q6.53395,3.409270046875,6.575736,3.367484046875Q6.617522,3.325698046875,6.666658,3.292866046875Q6.715793,3.260035046875,6.77039,3.237420046875Q6.824986,3.214806046875,6.882946,3.203277046875Q6.9409051999999996,3.191748046875,7,3.191748046875Q7.0864025999999996,3.191748046875,7.169294,3.216127046875Q7.252186,3.2405060468749998,7.324831,3.287283046875Q7.397477,3.334060046875,7.453971,3.399434046875Q7.510466,3.464808046875,7.54622,3.543466046875L7.546293,3.543626046875Z" fill-rule="evenodd" fill="#8C8C8C" fill-opacity="1"/></g></g></svg>