<svg xmlns="http://www.w3.org/2000/svg" xmlns:xlink="http://www.w3.org/1999/xlink"
    xmlns:xhtml="http://www.w3.org/1999/xhtml" data-v-46cf0610="" data-v-a9142392="" width="16"
    height="16" viewBox="6 6 16 16" version="1.1" preserveAspectRatio="xMinYMin meet"
    overflow="visible" style="background-color: transparent;">
    <g style="transform:matrix(1,0,0,1,6,6);">
        <g clip-path="url(#clippath-artboard-4756)">
            <svg xmlns="http://www.w3.org/2000/svg" xmlns:xlink="http://www.w3.org/1999/xlink"
                xmlns:xhtml="http://www.w3.org/1999/xhtml" preserveAspectRatio="xMinYMin meet"
                overflow="hidden" width="16" height="16" viewBox="0 0 16 16">
                <clipPath id="clippath-artboard-4756">
                    <path d="M 0 0 l 16 0 l 0 16 l -16 0 z" clip-rule="evenodd" />
                </clipPath>
                <g style="transform:matrix(1,0,0,1,1.3999999999999393,6.0666666666666815);">
                    <path
                        d="M 0.1757360000000605 2.8423999999999836 C 0.09134466666672723 2.926793333333317 0.04567266666672716 3.0370533333333167 0.04567266666672716 3.0370533333333167 C 6.052935930256354e-14 3.1473199999999837 6.052935930256354e-14 3.26666666666665 6.052935930256354e-14 3.26666666666665 C 6.052935930256354e-14 3.3860133333333176 0.04567200000006049 3.496273333333317 0.04567200000006049 3.496273333333317 C 0.09134466666672723 3.606539999999983 0.1757360000000605 3.6909333333333167 0.1757360000000605 3.6909333333333167 L 2.8424000000000604 6.357599999999984 C 2.926793333333394 6.44198666666665 3.037053333333394 6.487659999999984 3.037053333333394 6.487659999999984 C 3.1473200000000605 6.533333333333316 3.2666666666667274 6.533333333333316 3.2666666666667274 6.533333333333316 C 3.3860133333333944 6.533333333333316 3.4962733333333937 6.487659999999984 3.4962733333333937 6.487659999999984 C 3.6065400000000603 6.44198666666665 3.690933333333394 6.357599999999984 3.690933333333394 6.357599999999984 C 3.7327133333333937 6.315813333333317 3.7655466666667268 6.266673333333316 3.7655466666667268 6.266673333333316 C 3.7983800000000607 6.2175399999999845 3.8209933333333934 6.162939999999984 3.8209933333333934 6.162939999999984 C 3.843606666666727 6.108346666666651 3.855140000000061 6.05038666666665 3.855140000000061 6.05038666666665 C 3.866666666666727 5.99242666666665 3.866666666666727 5.933333333333317 3.866666666666727 5.933333333333317 C 3.866666666666727 5.8742399999999835 3.855140000000061 5.816279999999983 3.855140000000061 5.816279999999983 C 3.843606666666727 5.758319999999983 3.8209933333333934 5.703719999999983 3.8209933333333934 5.703719999999983 C 3.7983800000000607 5.64912666666665 3.7655466666667268 5.599993333333317 3.7655466666667268 5.599993333333317 C 3.7327133333333937 5.5508533333333165 3.690933333333394 5.50906666666665 3.690933333333394 5.50906666666665 L 1.4485266666667274 3.26666666666665 L 3.690933333333394 1.0242639999999839 C 3.7327133333333937 0.9824773333333172 3.7655466666667268 0.933341999999984 3.7655466666667268 0.933341999999984 C 3.7983800000000607 0.8842066666666506 3.8209933333333934 0.829609999999984 3.8209933333333934 0.829609999999984 C 3.843606666666727 0.7750133333333173 3.855140000000061 0.717053999999984 3.855140000000061 0.717053999999984 C 3.866666666666727 0.659094799999984 3.866666666666727 0.599999999999984 3.866666666666727 0.599999999999984 C 3.866666666666727 0.540905199999984 3.855140000000061 0.482945999999984 3.855140000000061 0.482945999999984 C 3.843606666666727 0.42498666666665064 3.8209933333333934 0.37038999999998395 3.8209933333333934 0.37038999999998395 C 3.7983800000000607 0.3157933333333173 3.7655466666667268 0.26665799999998396 3.7655466666667268 0.26665799999998396 C 3.7327133333333937 0.2175226666666507 3.690933333333394 0.17573599999998404 3.690933333333394 0.17573599999998404 C 3.6065400000000603 0.09134466666665074 3.4962733333333937 0.04567266666665076 3.4962733333333937 0.04567266666665076 C 3.3860133333333944 -1.5957605607278915e-14 3.2666666666667274 -1.5957605607278915e-14 3.2666666666667274 -1.5957605607278915e-14 C 3.1473200000000605 -1.5957605607278915e-14 3.037053333333394 0.045671999999984024 3.037053333333394 0.045671999999984024 C 2.926793333333394 0.09134466666665074 2.8424000000000604 0.17573599999998404 2.8424000000000604 0.17573599999998404 L 0.1757360000000605 2.8423999999999836 Z"
                        fill="rgb(38,38,38)" fill-opacity="1" stroke="none" stroke-width="0"
                        fill-rule="evenodd" />
                </g>
                <g opacity="1"
                    style="transform:matrix(1,0,0,1,1.3999999999999393,2.7333333333333485);mix-blend-mode:normal;">
                    <path
                        d="M 6.072642388943449e-14 6.5999999999999845 C 6.072642388943449e-14 6.540906666666651 0.011528666666727411 6.48294666666665 0.011528666666727411 6.48294666666665 C 0.023058000000060825 6.424986666666651 0.04567266666672751 6.3703866666666515 0.04567266666672751 6.3703866666666515 C 0.06828666666672746 6.315793333333317 0.10111866666672736 6.266659999999985 0.10111866666672736 6.266659999999985 C 0.13394933333339407 6.217519999999984 0.17573600000006084 6.1757333333333175 0.17573600000006084 6.1757333333333175 C 0.21752266666672745 6.13394666666665 0.26665800000006074 6.101119999999984 0.26665800000006074 6.101119999999984 C 0.31579333333339404 6.068286666666651 0.3703900000000607 6.045673333333317 0.3703900000000607 6.045673333333317 C 0.4249866666667274 6.023059999999984 0.48294600000006066 6.011526666666651 0.48294600000006066 6.011526666666651 C 0.5409052000000607 5.999999999999984 0.6000000000000607 5.999999999999984 0.6000000000000607 5.999999999999984 L 9.933333333333394 5.999999999999984 C 10.789533333333393 5.999999999999984 11.394866666666726 5.395173333333318 11.394866666666726 5.395173333333318 C 12.00000000000006 4.790559999999985 12.00000000000006 3.935613333333318 12.00000000000006 3.935613333333318 L 12.00000000000006 3.2666533333333176 C 12.00000000000006 1.1999999999999846 9.933333333333394 1.1999993333333179 9.933333333333394 1.1999993333333179 L 6.59876000000006 1.1999999999999846 C 6.539666666666727 1.1999999999999846 6.481706666666727 1.188471333333318 6.481706666666727 1.188471333333318 C 6.423746666666728 1.1769419999999846 6.369153333333394 1.1543273333333182 6.369153333333394 1.1543273333333182 C 6.314553333333394 1.131713333333318 6.26542000000006 1.098881333333318 6.26542000000006 1.098881333333318 C 6.2162866666667265 1.0660506666666514 6.1745000000000605 1.0242639999999845 6.1745000000000605 1.0242639999999845 C 6.1327133333333945 0.9824773333333179 6.09988000000006 0.9333419999999847 6.09988000000006 0.9333419999999847 C 6.0670466666667275 0.8842066666666514 6.044433333333394 0.8296099999999847 6.044433333333394 0.8296099999999847 C 6.021820000000061 0.775013333333318 6.010293333333393 0.7170539999999846 6.010293333333393 0.7170539999999846 C 5.998760000000061 0.6590947999999847 5.998760000000061 0.5999999999999847 5.998760000000061 0.5999999999999847 C 5.998760000000061 0.5409051999999847 6.010293333333393 0.4829459999999847 6.010293333333393 0.4829459999999847 C 6.021820000000061 0.4249866666666514 6.044433333333394 0.37038999999998473 6.044433333333394 0.37038999999998473 C 6.0670466666667275 0.31579333333331805 6.09988000000006 0.2666579999999847 6.09988000000006 0.2666579999999847 C 6.1327133333333945 0.2175226666666514 6.1745000000000605 0.17573599999998477 6.1745000000000605 0.17573599999998477 C 6.2162866666667265 0.13394933333331807 6.26542000000006 0.10111799999998469 6.26542000000006 0.10111799999998469 C 6.314553333333394 0.0682866666666514 6.369153333333394 0.04567266666665143 6.369153333333394 0.04567266666665143 C 6.423746666666728 0.023057999999984792 6.481706666666727 0.011528666666651366 6.481706666666727 0.011528666666651366 C 6.539666666666727 -1.5287771049088407e-14 6.59876000000006 -1.5287771049088407e-14 6.59876000000006 -1.5287771049088407e-14 L 9.933333333333394 -1.5287771049088407e-14 C 11.286400000000059 -1.5287771049088407e-14 12.24320000000006 0.9567766666666514 12.24320000000006 0.9567766666666514 C 13.200000000000056 1.913553333333318 13.200000000000056 3.266646666666651 13.200000000000056 3.266646666666651 L 13.200000000000056 3.935613333333318 C 13.200000000000056 5.287919999999984 12.243066666666728 6.244066666666652 12.243066666666728 6.244066666666652 C 11.286266666666727 7.199999999999984 9.933333333333394 7.199999999999984 9.933333333333394 7.199999999999984 L 0.6000000000000607 7.199999999999984 C 0.5409052000000607 7.199999999999984 0.48294600000006066 7.1884733333333175 0.48294600000006066 7.1884733333333175 C 0.4249866666667274 7.176939999999985 0.3703900000000607 7.154326666666651 0.3703900000000607 7.154326666666651 C 0.31579333333339404 7.131713333333318 0.26665800000006074 7.098879999999985 0.26665800000006074 7.098879999999985 C 0.21752266666672745 7.066046666666653 0.17573600000006084 7.024259999999984 0.17573600000006084 7.024259999999984 C 0.13394933333339407 6.982479999999984 0.10111800000006081 6.933339999999984 0.10111800000006081 6.933339999999984 C 0.06828666666672746 6.884206666666652 0.04567266666672751 6.829606666666651 0.04567266666672751 6.829606666666651 C 0.023058000000060825 6.775013333333319 0.011528666666727411 6.717053333333317 0.011528666666727411 6.717053333333317 C 6.072642388943449e-14 6.659093333333317 6.072642388943449e-14 6.5999999999999845 6.072642388943449e-14 6.5999999999999845 Z"
                        fill="rgb(38,38,38)" fill-opacity="1" stroke="none" stroke-width="0"
                        fill-rule="evenodd" />
                </g>
            </svg>
        </g>
    </g>
</svg>