<svg xmlns="http://www.w3.org/2000/svg" xmlns:xlink="http://www.w3.org/1999/xlink" fill="none" version="1.1" width="20" height="20" viewBox="0 0 20 20"><defs><clipPath id="master_svg0_1_177"><rect x="0" y="0" width="20" height="20" rx="0"/></clipPath></defs><g clip-path="url(#master_svg0_1_177)"><g><path d="M16.836934765625,4.3505925976562505C14.341034765625,4.24726259765625,11.947824765625,3.32863259765625,10.023844765625,1.73541259765625C8.101154765625001,3.32793259765625,5.709574765625,4.24652259765625,3.215175765625,4.3505925976562505C3.009247765625,4.354062597656251,2.842813105625,4.51953259765625,2.838134765625,4.72544259765625L2.838134765625,9.67812259765625C2.838134765625,11.78691259765625,3.701822765625,13.75541259765625,5.207064765625001,15.07801259765625C6.624024765625,16.31991259765625,8.199834765624999,17.36791259765625,9.893044765625,18.19441259765625C9.950674765625,18.22241259765625,10.013844765624999,18.23721259765625,10.077914765625,18.23751259765625C10.141564765624999,18.23761259765625,10.204364765625,18.22281259765625,10.261324765625,18.19441259765625C11.855484765625,17.41851259765625,13.346434765625,16.446512597656252,14.699634765625,15.30091259765625C16.297634765625,13.94911259765625,17.213934765624998,11.93091259765625,17.213934765624998,9.76289259765625L17.213934765624998,4.72544259765625C17.211134765624998,4.51872259765625,17.043634765625,4.35216259765625,16.836934765625,4.3505925976562505ZM15.704334765625,9.76142259765625C15.704334765625,11.49318259765625,14.979434765625,13.10141259765625,13.715334765625,14.17341259765625C12.609534765625,15.10881259765625,11.404464765625,15.92011259765625,10.121754765624999,16.592712597656252L10.077914765625,16.615412597656253L10.034074765625,16.592712597656252C8.660834765625001,15.87111259765625,7.377604765625,14.98991259765625,6.211044765625,13.96731259765625C5.0258547656250006,12.92751259765625,4.345564765625,11.36458259765625,4.345564765625,9.678852597656249L4.345564765625,5.74915259765625L4.428864765625,5.73892259765625C6.415174765625,5.48405259765625,8.313854765624999,4.76623259765625,9.971964765625,3.64327259765625L10.025304765625,3.6074625976562498L10.078644765625,3.64327259765625C11.736754765625,4.76623259765625,13.635434765625,5.48405259765625,15.621734765625,5.73892259765625L15.705034765625,5.74915259765625L15.704334765625,9.76142259765625Z" fill="#1878F5" fill-opacity="1"/></g><g><path d="M13.956309765625,7.57517027734375L9.510729765625,12.32471927734375C9.503899765625,12.332749277343751,9.496319765625,12.34008927734375,9.488079765625,12.346639277343751C9.438429765625,12.38918927734375,9.375169765625,12.412519277343751,9.309779765625,12.41240927734375C9.229799765625,12.41254927734375,9.153639765625,12.37819927734375,9.100799765625,12.31814927734375L6.671225765625,9.54367927734375C6.581271365625,9.44322927734375,6.581271365625,9.29119927734375,6.671225765625,9.19074927734375C6.762086765625,9.08980927734375,6.912627765625,9.06940927734375,7.027076765625,9.14251927734375L9.176799765625,10.522089277343749C9.250499765625,10.56965927734375,9.346319765625001,10.56494927734375,9.415009765625,10.51038927734375L13.579999765625,7.18059157734375C13.692849765624999,7.09337157734375,13.853179765625,7.10468897734375,13.952649765625,7.20689697734375C14.051669765625,7.30912727734375,14.053279765625,7.47099627734375,13.956309765625,7.57517027734375Z" fill="#1878F5" fill-opacity="1"/></g></g></svg>