<svg xmlns="http://www.w3.org/2000/svg" xmlns:xlink="http://www.w3.org/1999/xlink" fill="none" version="1.1" width="2035.75830078125" height="940" viewBox="0 0 2035.75830078125 940"><defs><linearGradient x1="0.5" y1="0.20877113938331604" x2="0.5" y2="0.901705265045166" id="master_svg0_3_2239"><stop offset="0%" stop-color="#E8F0FA" stop-opacity="1"/><stop offset="100%" stop-color="#E8F0FA" stop-opacity="0"/></linearGradient></defs><g><g style="opacity:0.8999999761581421;"><path d="M166.66193896484376,769.932L131.41193896484376,842.124Q126.89993896484376,851.148,121.82393896484375,854.955Q116.74793896484375,858.762,109.69793896484374,858.762Q100.67393896484376,858.762,94.46993896484375,852.417Q88.26593896484376,846.072,78.39593896484375,829.434L45.68393896484375,769.932L45.68393896484375,849.738Q45.68393896484375,861.864,40.18493896484375,867.504Q34.68593896484375,873.144,23.68793896484375,873.144Q11.27993896484375,873.144,5.63993896484375,867.645Q-0.00006103515625,862.146,-0.00006103515625,846.072L-0.00006103515625,723.12Q-0.00006103515625,701.406,9.86993896484375,690.408Q19.73993896484375,679.40999,43.14593896484375,679.40999Q51.88793896484375,679.40999,58.37393896484375,682.37099Q64.85993896484375,685.332,68.10293896484374,689.139Q71.34593896484375,692.946,74.44793896484374,698.586L112.23593896484375,781.212L152.18293896484374,699.996Q162.59493896484375,679.69199,189.60093896484375,679.69199Q202.25993896484374,679.69199,211.26193896484375,684.06299Q220.26793896484375,688.434,225.47193896484376,698.163Q230.67593896484374,707.892,230.67593896484374,722.556L230.67593896484374,845.226Q230.67593896484374,873.144,195.55393896484375,873.144Q182.80693896484374,873.144,174.73393896484376,866.235Q166.66193896484376,859.326,166.66193896484376,843.816L166.66193896484376,769.932ZM362.36993896484375,833.664Q371.9579389648438,833.664,378.86693896484377,825.204Q385.77593896484376,816.744,388.7369389648438,804.336Q391.69793896484373,791.928,391.69793896484373,777.828Q391.69793896484373,763.446,388.59593896484375,750.615Q385.4939389648438,737.784,378.58493896484373,728.76Q371.67593896484374,719.736,362.36993896484375,719.736Q353.34593896484375,719.736,346.5779389648437,728.76Q339.80993896484375,737.784,336.42593896484374,750.756Q333.0419389648437,763.728,333.0419389648437,777.828Q333.0419389648437,791.928,336.2849389648438,804.336Q339.52793896484377,816.744,346.43693896484376,825.204Q353.34593896484375,833.664,362.36993896484375,833.664ZM412.28393896484374,863.697Q390.0059389648437,874.836,362.22893896484373,874.836Q334.45193896484375,874.836,312.31493896484375,863.697Q290.17793896484375,852.558,276.9239389648437,830.28Q263.66993896484377,808.002,263.66993896484377,777.828Q263.66993896484377,732.144,291.16493896484377,705.213Q318.6599389648438,678.281998,362.36993896484375,678.281998Q406.07993896484373,678.281998,433.71593896484376,705.213Q461.3519389648437,732.144,461.3519389648437,777.828Q461.3519389648437,808.002,447.95693896484374,830.28Q434.56193896484376,852.558,412.28393896484374,863.697ZM565.4099389648437,678Q598.9679389648437,678,622.6559389648437,691.818Q646.3439389648438,705.636,646.3439389648438,721.146Q646.3439389648438,725.376,644.5109389648437,728.337Q642.6779389648437,731.298,639.9989389648438,732.567Q637.3199389648438,733.836,634.2179389648437,733.836Q629.1419389648438,733.836,618.9899389648438,728.619Q608.8379389648437,723.402,596.4299389648437,718.185Q584.0219389648438,712.968,573.5879389648437,712.968Q556.9499389648438,712.968,556.9499389648438,726.504Q556.9499389648438,730.734,559.6289389648438,734.5409999999999Q562.3079389648437,738.348,568.2299389648438,742.437Q574.1519389648438,746.526,579.7919389648438,749.628Q585.4319389648438,752.73,595.3019389648438,757.947Q605.1719389648438,763.164,611.9399389648438,767.112Q633.6539389648437,779.52,642.3959389648437,790.8Q651.1379389648438,802.08,651.1379389648438,816.744Q651.1379389648438,875.1179999999999,572.4599389648438,875.1179999999999Q556.9499389648438,875.1179999999999,542.4269389648438,872.016Q527.9039389648437,868.914,517.0469389648438,863.838Q506.18993896484375,858.762,497.87093896484373,852.558Q489.55193896484377,846.354,485.32193896484375,839.8679999999999Q481.09193896484373,833.3820000000001,481.09193896484373,827.742Q481.09193896484373,821.538,485.18093896484373,817.167Q489.26993896484373,812.796,497.16593896484375,812.796Q503.0879389648438,812.796,525.6479389648438,820.269Q548.2079389648437,827.742,562.0259389648437,827.742Q574.7159389648438,827.742,574.7159389648438,819Q574.7159389648438,816.462,573.7289389648438,814.347Q572.7419389648437,812.232,570.3449389648438,810.117Q567.9479389648437,808.002,564.9869389648437,806.169Q562.0259389648437,804.336,556.8089389648437,801.516Q551.5919389648437,798.696,546.3749389648438,795.876Q541.1579389648438,793.056,532.6979389648437,788.544Q524.2379389648438,784.032,516.3419389648437,779.52Q505.90793896484377,773.598,498.43493896484375,764.856Q490.96193896484374,756.114,487.5779389648437,747.513Q484.19393896484377,738.912,484.19393896484377,731.58Q484.19393896484377,707.892,505.34393896484374,692.946Q526.4939389648438,678,565.4099389648437,678ZM761.1179389648438,678Q794.6759389648438,678,818.3639389648438,691.818Q842.0519389648438,705.636,842.0519389648438,721.146Q842.0519389648438,725.376,840.2189389648438,728.337Q838.3859389648437,731.298,835.7069389648437,732.567Q833.0279389648438,733.836,829.9259389648438,733.836Q824.8499389648438,733.836,814.6979389648437,728.619Q804.5459389648438,723.402,792.1379389648438,718.185Q779.7299389648438,712.968,769.2959389648438,712.968Q752.6579389648438,712.968,752.6579389648438,726.504Q752.6579389648438,730.734,755.3369389648437,734.5409999999999Q758.0159389648437,738.348,763.9379389648437,742.437Q769.8599389648438,746.526,775.4999389648438,749.628Q781.1399389648437,752.73,791.0099389648437,757.947Q800.8799389648437,763.164,807.6479389648438,767.112Q829.3619389648437,779.52,838.1039389648438,790.8Q846.8459389648438,802.08,846.8459389648438,816.744Q846.8459389648438,875.1179999999999,768.1679389648438,875.1179999999999Q752.6579389648438,875.1179999999999,738.1349389648437,872.016Q723.6119389648437,868.914,712.7549389648437,863.838Q701.8979389648438,858.762,693.5789389648437,852.558Q685.2599389648437,846.354,681.0299389648437,839.8679999999999Q676.7999389648437,833.3820000000001,676.7999389648437,827.742Q676.7999389648437,821.538,680.8889389648438,817.167Q684.9779389648437,812.796,692.8739389648438,812.796Q698.7959389648438,812.796,721.3559389648437,820.269Q743.9159389648438,827.742,757.7339389648438,827.742Q770.4239389648437,827.742,770.4239389648437,819Q770.4239389648437,816.462,769.4369389648438,814.347Q768.4499389648438,812.232,766.0529389648437,810.117Q763.6559389648437,808.002,760.6949389648438,806.169Q757.7339389648438,804.336,752.5169389648438,801.516Q747.2999389648437,798.696,742.0829389648437,795.876Q736.8659389648437,793.056,728.4059389648437,788.544Q719.9459389648438,784.032,712.0499389648437,779.52Q701.6159389648437,773.598,694.1429389648438,764.856Q686.6699389648437,756.114,683.2859389648437,747.513Q679.9019389648438,738.912,679.9019389648438,731.58Q679.9019389648438,707.892,701.0519389648438,692.946Q722.2019389648437,678,761.1179389648438,678ZM1020.8399389648438,834.792Q1028.1699389648438,834.792,1033.6699389648438,833.241Q1039.1699389648438,831.69,1044.0999389648437,827.601Q1049.0399389648437,823.512,1052.1399389648439,816.744Q1055.2399389648438,809.976,1057.0799389648437,799.401Q1058.9099389648438,788.826,1058.9099389648438,774.444Q1058.9099389648438,758.37,1056.0899389648437,747.231Q1053.2699389648437,736.092,1047.9099389648438,730.311Q1042.5499389648437,724.53,1036.2099389648438,722.133Q1029.8599389648436,719.736,1020.8399389648438,719.736L1020.8399389648438,834.792ZM1029.2999389648437,680.256Q1073.2899389648437,680.256,1099.9399389648438,705.636Q1126.5899389648437,731.016,1126.5899389648437,775.572Q1126.5899389648437,789.954,1123.9099389648438,803.49Q1121.2299389648438,817.0260000000001,1115.0299389648437,829.857Q1108.8199389648437,842.688,1099.5199389648437,852.135Q1090.2099389648438,861.582,1075.8299389648437,867.363Q1061.4499389648438,873.144,1043.3999389648438,873.144L987.8459389648438,873.144Q970.6439389648438,873.144,963.1709389648438,864.402Q955.6979389648437,855.66,955.6979389648437,832.818L955.6979389648437,713.814Q955.6979389648437,680.256,987.8459389648438,680.256L1029.2999389648437,680.256ZM1272.3799389648439,758.652Q1287.3299389648437,758.652,1293.3899389648439,763.446Q1299.4599389648438,768.24,1299.4599389648438,779.802Q1299.4599389648438,789.39,1292.2699389648437,793.479Q1285.0699389648437,797.568,1269.8499389648437,797.568L1224.1599389648438,797.568L1224.1599389648438,827.742L1285.3599389648436,827.742Q1301.1499389648438,827.742,1308.0599389648437,832.395Q1314.9699389648438,837.048,1314.9699389648438,848.892Q1314.9699389648438,862.428,1306.9299389648438,867.7860000000001Q1298.8899389648439,873.144,1282.5399389648437,873.144L1191.1699389648438,873.144Q1174.5299389648437,873.144,1166.7799389648437,864.261Q1159.0199389648437,855.3779999999999,1159.0199389648437,832.818L1159.0199389648437,713.814Q1159.0199389648437,679.974,1191.1699389648438,679.974L1282.5399389648437,679.974Q1298.8899389648439,679.974,1306.9299389648438,685.04999Q1314.9699389648438,690.126,1314.9699389648438,703.38Q1314.9699389648438,715.788,1308.0599389648437,720.723Q1301.1499389648438,725.658,1285.3599389648436,725.658L1223.8799389648439,725.658L1223.8799389648439,758.652L1272.3799389648439,758.652ZM1419.8699389648436,678Q1453.4299389648438,678,1477.1199389648436,691.818Q1500.7999389648437,705.636,1500.7999389648437,721.146Q1500.7999389648437,725.376,1498.9699389648438,728.337Q1497.1399389648439,731.298,1494.4599389648438,732.567Q1491.7799389648437,733.836,1488.6799389648438,733.836Q1483.5999389648437,733.836,1473.4499389648438,728.619Q1463.2999389648437,723.402,1450.8899389648439,718.185Q1438.4799389648438,712.968,1428.0499389648437,712.968Q1411.4099389648438,712.968,1411.4099389648438,726.504Q1411.4099389648438,730.734,1414.0899389648437,734.5409999999999Q1416.7699389648437,738.348,1422.6899389648438,742.437Q1428.6099389648436,746.526,1434.2499389648438,749.628Q1439.8899389648439,752.73,1449.7599389648437,757.947Q1459.6299389648439,763.164,1466.3999389648438,767.112Q1488.1099389648436,779.52,1496.8599389648436,790.8Q1505.5999389648437,802.08,1505.5999389648437,816.744Q1505.5999389648437,875.1179999999999,1426.9199389648438,875.1179999999999Q1411.4099389648438,875.1179999999999,1396.8899389648439,872.016Q1382.3599389648436,868.914,1371.5099389648437,863.838Q1360.6499389648438,858.762,1352.3299389648437,852.558Q1344.0099389648437,846.354,1339.7799389648437,839.8679999999999Q1335.5499389648437,833.3820000000001,1335.5499389648437,827.742Q1335.5499389648437,821.538,1339.6399389648439,817.167Q1343.7299389648438,812.796,1351.6299389648439,812.796Q1357.5499389648437,812.796,1380.1099389648436,820.269Q1402.6699389648438,827.742,1416.4899389648438,827.742Q1429.1799389648438,827.742,1429.1799389648438,819Q1429.1799389648438,816.462,1428.1899389648438,814.347Q1427.1999389648438,812.232,1424.8099389648437,810.117Q1422.4099389648438,808.002,1419.4499389648438,806.169Q1416.4899389648438,804.336,1411.2699389648437,801.516Q1406.0499389648437,798.696,1400.8399389648437,795.876Q1395.6199389648436,793.056,1387.1599389648438,788.544Q1378.6999389648438,784.032,1370.7999389648437,779.52Q1360.3699389648436,773.598,1352.8999389648438,764.856Q1345.4199389648438,756.114,1342.0399389648437,747.513Q1338.6499389648438,738.912,1338.6499389648438,731.58Q1338.6499389648438,707.892,1359.7999389648437,692.946Q1380.9499389648438,678,1419.8699389648436,678ZM1603.7299389648438,830.844Q1603.7299389648438,852.84,1595.5599389648437,862.992Q1587.3799389648439,873.144,1570.7399389648438,873.144Q1554.3799389648439,873.144,1546.6299389648439,864.402Q1538.8699389648436,855.66,1538.8699389648436,833.1L1538.8699389648436,713.814Q1538.8699389648436,679.974,1570.7399389648438,679.974Q1587.0999389648437,679.974,1595.4199389648438,686.17799Q1603.7299389648438,692.382,1603.7299389648438,711.276L1603.7299389648438,830.844ZM1743.6099389648436,727.35Q1743.6099389648436,718.608,1732.0399389648437,718.608Q1720.1999389648438,718.608,1711.7399389648438,731.862Q1703.2799389648437,745.116,1703.2799389648437,776.136Q1703.2799389648437,804.9,1713.0099389648437,818.013Q1722.7399389648438,831.126,1735.9899389648438,831.126Q1740.2199389648438,831.126,1743.7499389648438,829.434Q1747.2699389648437,827.742,1749.5299389648437,824.358Q1751.7799389648437,820.9739999999999,1751.7799389648437,816.1800000000001Q1745.0199389648437,816.1800000000001,1740.0799389648437,813.642Q1735.1499389648438,811.104,1732.8899389648439,807.297Q1730.6299389648439,803.49,1730.6299389648439,798.978Q1730.6299389648439,788.826,1735.9899389648438,783.75Q1741.3499389648437,778.674,1754.3199389648437,778.674L1788.4399389648438,778.674Q1804.7999389648437,778.674,1813.8199389648437,785.724Q1822.8499389648437,792.774,1822.8499389648437,810.54Q1822.8499389648437,836.484,1798.0299389648437,855.8009999999999Q1773.2199389648438,875.1179999999999,1739.0899389648437,875.1179999999999Q1707.7899389648437,875.1179999999999,1683.3999389648438,863.838Q1659.0099389648437,852.558,1644.7699389648437,830.139Q1630.5199389648437,807.72,1630.5199389648437,776.982Q1630.5199389648437,731.298,1658.1599389648438,704.79Q1685.7999389648437,678.281998,1731.4799389648438,678.281998Q1749.5299389648437,678.281998,1763.9099389648438,680.961Q1778.2899389648437,683.64,1787.7399389648438,688.152Q1797.1899389648438,692.664,1803.5299389648437,699.009Q1809.8799389648439,705.354,1812.5599389648437,712.404Q1815.2299389648438,719.454,1815.2299389648438,727.068Q1815.2299389648438,732.426,1813.5399389648437,737.361Q1811.8499389648437,742.296,1807.4799389648438,747.231Q1803.1099389648436,752.1659999999999,1794.0799389648437,755.268Q1785.0599389648437,758.37,1772.3699389648436,758.37Q1753.7599389648437,758.37,1748.6799389648438,752.871Q1743.6099389648436,747.372,1743.6099389648436,727.35ZM2035.7599389648437,846.354Q2035.7599389648437,858.762,2028.4299389648438,865.953Q2021.0899389648437,873.144,2006.9899389648438,873.144Q2003.3299389648437,873.144,1999.6599389648438,872.298Q1995.9999389648438,871.452,1991.9099389648438,869.196Q1987.8199389648437,866.94,1984.7199389648438,864.966Q1981.6099389648436,862.992,1976.9599389648438,858.903Q1972.3099389648437,854.814,1969.6299389648439,852.417Q1966.9499389648438,850.02,1961.3099389648437,844.662Q1955.6699389648438,839.304,1953.1299389648439,836.766L1901.5299389648437,787.98L1901.5299389648437,849.174Q1901.5299389648437,862.992,1896.3099389648437,868.068Q1891.0899389648437,873.144,1879.8099389648437,873.144Q1867.3999389648438,873.144,1861.4799389648438,867.504Q1855.5599389648437,861.864,1855.5599389648437,848.61L1855.5599389648437,712.404Q1855.5599389648437,696.33,1863.7399389648438,688.152Q1871.9199389648438,679.974,1887.1399389648439,679.974Q1897.5799389648437,679.974,1903.9199389648438,683.217Q1910.2699389648437,686.45999,1919.0099389648437,694.92L1990.3599389648436,765.984L1990.3599389648436,704.508Q1990.3599389648436,692.382,1996.4199389648438,686.319Q2002.4799389648438,680.256,2012.9199389648438,680.256Q2025.0399389648437,680.256,2030.3999389648438,685.896Q2035.7599389648437,691.536,2035.7599389648437,704.226L2035.7599389648437,846.354Z" fill="url(#master_svg0_3_2239)" fill-opacity="1"/></g></g></svg>