<svg xmlns="http://www.w3.org/2000/svg" xmlns:xlink="http://www.w3.org/1999/xlink" fill="none" version="1.1" width="1920" height="1080" viewBox="0 0 1920 1080"><defs><clipPath id="master_svg0_105_1067"><rect x="0" y="0" width="1920" height="1080" rx="0"/></clipPath><filter id="master_svg1_105_1091" filterUnits="objectBoundingBox" color-interpolation-filters="sRGB" x="-776" y="-776" width="3014" height="2261"><feFlood flood-opacity="0" result="BackgroundImageFix"/><feBlend mode="normal" in="SourceGraphic" in2="BackgroundImageFix" result="shape"/><feGaussianBlur stdDeviation="194" result="effect1_foregroundBlur"/></filter><filter id="master_svg2_105_1113" filterUnits="objectBoundingBox" color-interpolation-filters="sRGB" x="-388" y="-388" width="1249.8905639648438" height="1702.5833740234375"><feFlood flood-opacity="0" result="BackgroundImageFix"/><feBlend mode="normal" in="SourceGraphic" in2="BackgroundImageFix" result="shape"/><feGaussianBlur stdDeviation="97" result="effect1_foregroundBlur"/></filter><filter id="master_svg3_105_1069" filterUnits="objectBoundingBox" color-interpolation-filters="sRGB" x="-800" y="-800" width="2250" height="2151"><feFlood flood-opacity="0" result="BackgroundImageFix"/><feBlend mode="normal" in="SourceGraphic" in2="BackgroundImageFix" result="shape"/><feGaussianBlur stdDeviation="200" result="effect1_foregroundBlur"/></filter><clipPath id="master_svg4_105_1092"><rect x="-398" y="1133.731201171875" width="1920" height="1187.731201171875" rx="0"/></clipPath><clipPath id="master_svg5_105_1070"><rect x="3268.60693359375" y="0" width="1746.6068115234375" height="1080" rx="0"/></clipPath><filter id="master_svg6_105_1115" filterUnits="objectBoundingBox" color-interpolation-filters="sRGB" x="0" y="0" width="1920" height="1080"><feFlood flood-opacity="0" result="BackgroundImageFix"/><feBlend mode="normal" in="SourceGraphic" in2="BackgroundImageFix" result="shape"/><feGaussianBlur in="BackgroundImage" stdDeviation="25.5"/><feComposite in2="SourceAlpha" operator="in" result="effect1_foregroundBlur"/><feBlend mode="normal" in="SourceGraphic" in2="effect1_foregroundBlur" result="shape"/></filter></defs><g clip-path="url(#master_svg0_105_1067)"><rect x="0" y="0" width="1920" height="1080" rx="0" fill="#FFFFFF" fill-opacity="1"/><g filter="url(#master_svg1_105_1091)"><ellipse cx="-213" cy="1046.5" rx="731" ry="354.5" fill="#1878F5" fill-opacity="0.30000001192092896"/></g><g transform="matrix(0.7480005025863647,-0.6636980772018433,0.6636980772018433,0.7480005025863647,-133.722613506754,860.4942437501086)" filter="url(#master_svg2_105_1113)"><ellipse cx="1303.2380065917969" cy="1069.6334228515625" rx="236.94528198242188" ry="463.29168701171875" fill="#1878F5" fill-opacity="0.15000000596046448"/></g><g filter="url(#master_svg3_105_1069)"><ellipse cx="1757" cy="-53.5" rx="325" ry="275.5" fill="#46CDF7" fill-opacity="0.3499999940395355"/></g><g transform="matrix(1,0,0,-1,0,2267.46240234375)" style="opacity:0.15000000596046448;" clip-path="url(#master_svg4_105_1092)"><g><rect x="-397.259033203125" y="1134.472900390625" width="1185.73388671875" height="1186.2484130859375" rx="0" fill-opacity="0" stroke-opacity="1" stroke="#A5A9AD" fill="none" stroke-width="1.2000000476837158"/></g><g><rect x="788.47509765625" y="1587.619140625" width="732.78369140625" height="733.1015625" rx="0" fill-opacity="0" stroke-opacity="1" stroke="#A5A9AD" fill="none" stroke-width="1.2000000476837158"/></g><g><rect x="1068.30859375" y="1134.472900390625" width="452.9504089355469" height="453.1468811035156" rx="0" fill-opacity="0" stroke-opacity="1" stroke="#A5A9AD" fill="none" stroke-width="1.2000000476837158"/></g><g><rect x="788.47509765625" y="1134.472900390625" width="279.8332214355469" height="279.95458984375" rx="0" fill-opacity="0" stroke-opacity="1" stroke="#A5A9AD" fill="none" stroke-width="1.2000000476837158"/></g><g><rect x="788.47509765625" y="1414.4267578125" width="173.1171875" height="173.1922607421875" rx="0" fill-opacity="0" stroke-opacity="1" stroke="#A5A9AD" fill="none" stroke-width="1.2000000476837158"/></g><g><rect x="961.592529296875" y="1480.85595703125" width="106.71607971191406" height="106.76235961914062" rx="0" fill-opacity="0" stroke-opacity="1" stroke="#A5A9AD" fill="none" stroke-width="1.2000000476837158"/></g><g><rect x="1001.9072265625" y="1414.4267578125" width="66.40110778808594" height="66.4299087524414" rx="0" fill-opacity="0" stroke-opacity="1" stroke="#A5A9AD" fill="none" stroke-width="1.2000000476837158"/></g><g><rect x="961.592529296875" y="1414.4267578125" width="40.31496047973633" height="40.33244705200195" rx="0" fill-opacity="0" stroke-opacity="1" stroke="#A5A9AD" fill="none" stroke-width="1.2000000476837158"/></g><g><rect x="961.65185546875" y="1454.759033203125" width="26.086151123046875" height="26.097463607788086" rx="0" fill-opacity="0" stroke-opacity="1" stroke="#A5A9AD" fill="none" stroke-width="1.2000000476837158"/></g><g><ellipse cx="195.60791015625" cy="1727.5971069335938" rx="592.866943359375" ry="593.1242065429688" fill-opacity="0" stroke-opacity="1" stroke="#A5A9AD" fill="none" stroke-width="1.2000000476837158"/></g><g><ellipse cx="1154.866943359375" cy="1954.169921875" rx="366.391845703125" ry="366.55078125" fill-opacity="0" stroke-opacity="1" stroke="#A5A9AD" fill="none" stroke-width="1.2000000476837158"/></g><g><ellipse cx="1294.7837982177734" cy="1361.0463409423828" rx="226.47520446777344" ry="226.5734405517578" fill-opacity="0" stroke-opacity="1" stroke="#A5A9AD" fill="none" stroke-width="1.2000000476837158"/></g><g><ellipse cx="928.3917083740234" cy="1274.4501953125" rx="139.91661071777344" ry="139.977294921875" fill-opacity="0" stroke-opacity="1" stroke="#A5A9AD" fill="none" stroke-width="1.2000000476837158"/></g><g><ellipse cx="875.03369140625" cy="1501.0228881835938" rx="86.55859375" ry="86.59613037109375" fill-opacity="0" stroke-opacity="1" stroke="#A5A9AD" fill="none" stroke-width="1.2000000476837158"/></g><g><ellipse cx="1014.950569152832" cy="1534.2371368408203" rx="53.35803985595703" ry="53.38117980957031" fill-opacity="0" stroke-opacity="1" stroke="#A5A9AD" fill="none" stroke-width="1.2000000476837158"/></g><g><ellipse cx="1035.107780456543" cy="1447.6417121887207" rx="33.20055389404297" ry="33.2149543762207" fill-opacity="0" stroke-opacity="1" stroke="#A5A9AD" fill="none" stroke-width="1.2000000476837158"/></g><g><ellipse cx="981.7500095367432" cy="1434.564661026001" rx="20.157480239868164" ry="20.166223526000977" fill-opacity="0" stroke-opacity="1" stroke="#A5A9AD" fill="none" stroke-width="1.2000000476837158"/></g><g><ellipse cx="974.6949310302734" cy="1467.807765007019" rx="13.043075561523438" ry="13.048731803894043" fill-opacity="0" stroke-opacity="1" stroke="#A5A9AD" fill="none" stroke-width="1.2000000476837158"/></g><g><ellipse cx="994.8223104476929" cy="1473.7697191238403" rx="7.084761619567871" ry="7.087834358215332" fill-opacity="0" stroke-opacity="1" stroke="#A5A9AD" fill="none" stroke-width="1.2000000476837158"/></g><g><rect x="987.737548828125" y="1466.681884765625" width="14.169523239135742" height="14.175668716430664" rx="0" fill-opacity="0" stroke-opacity="1" stroke="#A5A9AD" fill="none" stroke-width="1.2000000476837158"/></g></g><g transform="matrix(-1,0,0,1,6537.2138671875,0)" clip-path="url(#master_svg5_105_1070)"><g><path d="M3291.78385,217.937072265625Q3269.881256,110.905072265625,3269.88125,0.674072265625L3268.68125,0.674072265625Q3268.681252,111.027072265625,3290.60825,218.177072265625Q3311.97755,322.600072265625,3353.49595,420.763072265625Q3394.25525,517.127072265625,3453.00325,604.090072265625Q3511.18525,690.213072265625,3584.79025,763.816072265625Q3658.39425,837.424072265625,3744.51725,895.603072265625Q3831.45325,954.346072265625,3927.84325,995.111072265625Q4026.02325,1036.644072265625,4130.43025,1057.994072265625Q4237.62525,1079.924072265625,4347.93125,1079.924072265625L4347.93125,1078.724072265625Q4237.75025,1078.724072265625,4130.67025,1056.824072265625Q4026.38325,1035.484072265625,3928.3112499999997,994.006072265625Q3832.02325,953.268072265625,3745.18925,894.609072265625Q3659.16025,836.486072265625,3585.63925,762.968072265625Q3512.11525,689.440072265625,3453.99825,603.418072265625Q3395.31425,516.557072265625,3354.60115,420.296072265625Q3313.12935,322.244072265625,3291.78385,217.937072265625Z" fill-rule="evenodd" fill="#A5A9AD" fill-opacity="0.15000000596046448"/></g><g><path d="M4482.1536171875,1065.193505859375Q4416.0352171875,1078.726505859375,4347.9326171875,1078.725505859375L4347.9326171875,1079.9255058593749Q4416.1571171875,1079.929505859375,4482.3936171875,1066.3695058593748Q4546.9666171875,1053.156505859375,4607.6346171875,1027.490505859375Q4667.2216171875,1002.288505859375,4720.9686171875,965.973505859375Q4774.2136171875,930.003505859375,4819.7146171875,884.5005058593749Q4865.2176171875,838.999505859375,4901.1876171875,785.7545058593751Q4937.4946171875,732.007505859375,4962.7046171875,672.420505859375Q4988.3626171875,611.753505859375,5001.5836171875,547.179505859375Q5015.1436171875,480.943105859375,5015.1396171875,412.718444824175L5013.9396171875,412.718444824175Q5013.9406171875,480.821005859375,5000.4076171875,546.938505859375Q4987.2216171875,611.3945058593749,4961.5996171875,671.9525058593749Q4936.4406171875,731.4335058593749,4900.1926171875,785.083505859375Q4864.2876171875,838.226505859375,4818.8656171875,883.651505859375Q4773.4406171875,929.073505859375,4720.2976171875,964.978505859375Q4666.6476171875,1001.226505859375,4607.1666171875,1026.385505859375Q4546.6106171875,1051.999505859375,4482.1536171875,1065.193505859375Z" fill-rule="evenodd" fill="#A5A9AD" fill-opacity="0.15000000596046448"/></g><g><path d="M5005.58062890625,329.797072265625Q5013.93962890625,370.653072265625,5013.93962890625,412.719072265625L5015.13962890625,412.719072265625Q5015.13962890625,370.531072265625,5006.75662890625,329.557072265625Q4998.58862890625,289.629072265625,4982.71162890625,252.098072265625Q4967.12562890625,215.248072265625,4944.6666289062505,182.004072265625Q4922.42262890625,149.078072265625,4894.27962890625,120.934072265625Q4866.13962890625,92.794172265625,4833.20962890625,70.547072265625Q4799.96462890625,48.087672265625,4763.11562890625,32.501672265625004Q4725.58562890625,16.627972265625,4685.65692890625,8.457442265625Q4644.68752890625,0.07403526562499996,4602.49456791135,0.07407226562500002L4602.49456783085,1.274072265625Q4644.56642890625,1.274109265625,4685.41642890625,9.633082265625Q4725.22862890625,17.779572265625,4762.64862890625,33.606872265625Q4799.39062890625,49.147672265625,4832.53762890625,71.541472265625Q4865.37362890625,93.723872265625,4893.43062890625,121.783072265625Q4921.49262890625,149.845072265625,4943.67262890625,182.676072265625Q4966.06662890625,215.824072265625,4981.60662890625,252.565072265625Q4997.43562890625,289.988072265625,5005.58062890625,329.797072265625Z" fill-rule="evenodd" fill="#A5A9AD" fill-opacity="0.15000000596046448"/></g><g><path d="M4551.3086171875,6.433212265625Q4576.5246171875,1.274072265625,4602.4946171875,1.274072265625L4602.4946171875,0.07407226562500002Q4576.4026171875,0.07407226562500002,4551.0676171875,5.257562265625Q4526.3766171875,10.309292265625,4503.1686171875,20.124572265625Q4480.3826171875,29.761372265625,4459.8256171875,43.648972265625Q4439.4638171875,57.404672265625,4422.0634171875,74.804872265625Q4404.6631171875,92.205072265625,4390.9075171875,112.567072265625Q4377.0199171875,133.124072265625,4367.3831171875,155.910072265625Q4357.5678071875,179.118072265625,4352.5161071875,203.809072265625Q4347.3326111875,229.144072265625,4347.3326171875,255.236072265625L4348.5326171875,255.236072265625Q4348.5326231875,229.265072265625,4353.6917471875,204.050072265625Q4358.7195171875,179.476072265625,4368.4883171875,156.378072265625Q4378.0797171875,133.699072265625,4391.9019171875,113.239072265625Q4405.5930171875,92.972372265625,4422.9119171875,75.653372265625Q4440.2309171875,58.334472265625,4460.4976171875,44.643372265625Q4480.9576171875,30.821072265625,4503.6366171875,21.229772265625Q4526.7346171875,11.460972265625,4551.3086171875,6.433212265625Z" fill-rule="evenodd" fill="#A5A9AD" fill-opacity="0.15000000596046448"/></g><g><path d="M4351.7203071875,286.850995703125Q4348.5326171875,271.275795703125,4348.5326171875,255.235595703125L4347.3326171875,255.235595703125Q4347.3326161875,271.397295703125,4350.5446771875,287.091595703125Q4353.6751671875,302.387295703125,4359.7571171875,316.764995703125Q4365.7287171875,330.881595703125,4374.3335171875,343.617795703125Q4382.8568171875,356.232595703125,4393.6375171875,367.013595703125Q4404.4187171875,377.79459570312497,4417.0336171875,386.317595703125Q4429.7706171875,394.923595703125,4443.8863171875,400.894595703125Q4458.2646171875,406.976595703125,4473.5596171875,410.106595703125Q4489.2546171875,413.31859570312497,4505.4156171875,413.31859570312497L4505.4156171875,412.11859570312504Q4489.3756171875,412.11859570312504,4473.8006171875,408.930595703125Q4458.6226171875,405.824595703125,4444.3538171875,399.788595703125Q4430.3456171875,393.863595703125,4417.7054171875,385.32359570312497Q4405.1859171875,376.865595703125,4394.4861171875,366.165595703125Q4383.7867171875,355.465595703125,4375.3279171875,342.945995703125Q4366.7884171875,330.306595703125,4360.8623171875,316.297495703125Q4354.8268571875,302.029695703125,4351.7203071875,286.850995703125Z" fill-rule="evenodd" fill="#A5A9AD" fill-opacity="0.15000000596046448"/></g><g><path d="M4542.966871484375,404.53643671875Q4525.042371484375,412.11893671875,4505.415771484375,412.11883671875L4505.415771484375,413.31883671875Q4525.285771484375,413.31863671875,4543.434371484375,405.64163671874996Q4560.963271484375,398.22653671875,4574.482771484375,384.70713671875Q4588.002171484375,371.18773671875,4595.417271484375,353.65873671875Q4603.094471484375,335.51013671875,4603.094371484375,315.64015193485L4601.894471484375,315.64015202025Q4601.894271484375,335.26673671875,4594.312071484375,353.19123671875Q4586.988071484375,370.50463671875,4573.634171484375,383.85853671875Q4560.280271484375,397.21243671875,4542.966871484375,404.53643671875Z" fill-rule="evenodd" fill="#A5A9AD" fill-opacity="0.15000000596046448"/></g><g><path d="M4597.19444375,292.362995703125Q4601.89424375,303.473795703125,4601.89434375,315.640095703125L4603.09434375,315.640095703125Q4603.09434375,303.230395703125,4598.29954375,291.895495703125Q4593.66854375,280.947895703125,4585.22534375,272.504595703125Q4576.78204375,264.061275703125,4565.83444375,259.430335703125Q4554.49954375,254.635597703125,4542.08984375,254.635595703125L4542.08984375,255.835595703125Q4554.25614375,255.835593703125,4565.36694375,260.535515703125Q4576.09904375,265.075285703125,4584.37684375,273.353095703125Q4592.65454375,281.630995703125,4597.19444375,292.362995703125Z" fill-rule="evenodd" fill="#A5A9AD" fill-opacity="0.15000000596046448"/></g><g><path d="M4528.13831484375,258.675255703125Q4534.85001484375,255.835595703125,4542.19831484375,255.835595703125L4542.19831484375,254.635595703125Q4534.60661484375,254.635595703125,4527.67071484375,257.570095703125Q4520.97221484375,260.404165703125,4515.80551484375,265.570895703125Q4510.63878484375,270.737595703125,4507.80471484375,277.436095703125Q4504.87021484375,284.371995703125,4504.87021484375,291.963695703125L4506.07021484375,291.963695703125Q4506.07021284375,284.615395703125,4508.90987484375,277.903695703125Q4511.65276484375,271.420695703125,4516.65401484375,266.419395703125Q4521.65531484375,261.418145703125,4528.13831484375,258.675255703125Z" fill-rule="evenodd" fill="#A5A9AD" fill-opacity="0.15000000596046448"/></g><g><path d="M4507.88770484375,300.91321625Q4506.07021484375,296.61629625,4506.07021484375,291.91015625L4504.87021484375,291.91015625Q4504.87021484375,296.85963625,4506.78250484375,301.38069625Q4508.62935484375,305.74705625,4511.99651484375,309.11415625Q4515.36366484375,312.48135625,4519.73001484375,314.32825625Q4524.25101484375,316.24045625,4529.20051484375,316.24045625L4529.20051484375,315.04045625Q4524.49441484375,315.04045625,4520.19751484375,313.22305625Q4516.04671484375,311.46735625,4512.84504484375,308.26565625Q4509.64337484375,305.06395625,4507.88770484375,300.91321625Z" fill-rule="evenodd" fill="#A5A9AD" fill-opacity="0.15000000596046448"/></g><g><path d="M4533.9838653125,314.075132421875Q4531.7010453125,315.040632421875,4529.2001953125,315.040632421875L4529.2001953125,316.240632421875Q4531.9443753125,316.240632421875,4534.4513153125,315.180332421875Q4536.8723053125,314.156332421875,4538.7390453125,312.289602421875Q4540.6057953125,310.422862421875,4541.6297953125,308.001872421875Q4542.6900953125,305.494922421875,4542.6900953125,302.750732421875L4541.4900953125,302.750734409595Q4541.4900953125,305.251582421875,4540.5245953125,307.534422421875Q4539.5917953125,309.739832421875,4537.8905153125,311.441072421875Q4536.1892853125,313.142332421875,4533.9838653125,314.075132421875Z" fill-rule="evenodd" fill="#A5A9AD" fill-opacity="0.15000000596046448"/></g><g><rect x="4529.2001953125" y="302.750732421875" width="12.889888763427734" height="12.889888763427734" rx="0" fill-opacity="0" stroke-opacity="0.15000000596046448" stroke="#A5A9AD" fill="none" stroke-width="1.2000000476837158"/></g></g><g style="opacity:0.44999998807907104;" filter="url(#master_svg6_105_1115)"><rect x="0" y="0" width="1920" height="1080" rx="0" fill="#FFFFFF" fill-opacity="1"/></g></g></svg>