<svg xmlns="http://www.w3.org/2000/svg" xmlns:xlink="http://www.w3.org/1999/xlink" fill="none" version="1.1" width="462.318359375" height="294.12744140625" viewBox="0 0 462.318359375 294.12744140625"><g><g transform="matrix(0.9710580706596375,0.23919831216335297,-0.23848901689052582,0.9710580706596375,36.33803876621823,-102.69671077243038)"><path d="M452.220712890625,98.814453125C454.882412890625,99.190401125,457.070012890625,103.751773125,453.659712890625,107.369123125C452.932312890625,108.119973125,452.089812890625,108.74893312500001,451.164332890625,109.232153125C446.240222890625,111.938853125,443.179282890625,111.345753125,442.073004890625,109.94225312500001C441.197668090625,108.961653125,441.043638890625,107.529053125,441.690368890625,106.38333312500001C443.486982890625,105.940563125,445.907492890625,104.453523125,448.976752890625,102.406743125C450.339352890625,101.512043125,451.443712890625,100.273193125,452.179112890625,98.814453125L452.220712890625,98.814453125Z" fill="#FECBB0" fill-opacity="1"/></g><g transform="matrix(0.9710580706596375,0.23919831216335297,-0.238489031791687,0.9710580706596375,33.780584923079005,-102.80210694729612)"><path d="M453.62403046875,88.193359375C455.94473046875,90.148229375,456.57683046875,94.642779375,454.68873046875,98.301959375C453.95343046875,99.760659375,452.84903046875,100.999459375,451.48643046875,101.894159375C448.41718046875,103.940959375,445.99673046875,105.428059375,444.20006046875,105.870759375C442.87751046875,106.196659375,441.89602046875,105.954359375,441.23060346875,104.960159375Q439.66685746875,102.604359375,441.23060346875,99.713759375C444.62579046875,97.761729375,447.70998046875,95.308909375,450.38016046875,92.437299375C451.65743046875,91.185319375,452.74993046875,89.756199375,453.62403046875,88.193359375Z" fill="#FECBB0" fill-opacity="1"/></g><g transform="matrix(0.9710580706596375,0.23919834196567535,-0.238489031791687,0.9710580706596375,28.935701618072926,-96.09814800427921)"><path d="M444.083729296875,81.6915140625C443.642829296875,82.0256140625,435.491429296875,88.2662140625,438.161429296875,91.9420140625C439.417429296875,93.67141406249999,441.721529296875,93.3789140625,444.341529296875,92.0423140625Q442.777829296875,94.9328140625,444.341529296875,97.28871406249999C445.006929296875,98.2828140625,446.005129296875,98.5251140625,447.311029296875,98.19931406250001C446.664329296875,99.3450140625,446.818329296875,100.77761406249999,447.693629296875,101.7582140625C448.799929296875,103.1617140625,451.852529296875,103.7549140625,456.784929296875,101.0481140625C457.710429296875,100.56491406250001,458.552929296875,99.93601406249999,459.280329296875,99.18511406249999C457.134329296875,105.7013140625,447.427429296875,108.73391406249999,442.603129296875,113.2535140625C439.543029296875,116.1598140625,436.638829296875,119.2273140625,433.902729296875,122.4431140625C426.283729296875,114.3145140625,419.296739296875,110.04551406249999,413.108309296875,107.3137140625C409.365309296875,98.0406140625,410.213736296875,90.4884140625,411.486329296875,80.4633940625C412.492799296875,72.5102260625,418.914099296875,71.6246860625,428.670829296875,71.5244140625C430.841729296875,71.5244140625,433.187429296875,71.5244140625,435.674429296875,71.5244140625C437.936829296875,71.5244140625,439.874829296875,71.5244140625,441.546729296875,71.6330220625C449.382129296875,72.0173070625,451.053929296875,73.5127140625,451.053929296875,76.5954040625C451.053929296875,78.9679840625,448.325729296875,80.5719940625,444.150229296875,81.7081140625L444.083729296875,81.6915140625Z" fill="#FECBB0" fill-opacity="1"/></g><g transform="matrix(0.9710580706596375,0.23919831216335297,-0.238489031791687,0.9710580706596375,30.441948992287507,-102.54692500129022)"><path d="M457.19522734375,80.2297140625C458.14342734375,82.0843440625,458.27652734375,84.4068040625,456.80432734375,87.1470140625C455.94032734375,88.7076140625,454.85922734375,90.1366140625,453.59362734375,91.3909140625C450.92342734375,94.2625140625,447.83922734375,96.7153140625,444.44408734375,98.6673140625C441.82396734375,100.0040140625,439.51997734375,100.29641406249999,438.26398234375,98.5671140625C435.59395734375,94.8913140625,443.74541734375,88.6507140625,444.18623734375,88.3165140625C448.34512734375,87.1804140625,451.09002734375,85.57641406249999,451.09002734375,83.2038040625C451.09002734375,80.1211140625,449.42642734375,78.6257040625,441.58276734375,78.2414240625L441.58276734375,78.1328140625C442.41454734375,77.1470240625,443.17143734375,76.1946340625,443.91173734375,75.2589740625C448.95382734375,73.2801640625,454.67142734375,75.4197190625,457.19522734375,80.2297140625Z" fill="#FECBB0" fill-opacity="1"/></g><g transform="matrix(0.9710580706596375,0.23919831216335297,-0.2384890615940094,0.9710580706596375,23.803135381022003,-102.73525707369845)"><path d="M460.7284703125,47.22220775C465.7190703125,49.34417375,463.2237703125,57.78189375,450.3894703125,73.88039375C449.6491703125,74.81609375,448.8755703125,75.76839375,448.0604703125,76.75419375L448.0604703125,76.86279375000001C446.3969703125,76.77099375,444.4505403125,76.73749375,442.1881303125,76.75419375C439.6927903125,76.75419375,437.3555003125,76.75419375,435.1845703125,76.75419375C446.9375703125,64.89969375,454.7479703125,44.63240375,460.7284703125,47.22220775Z" fill="#FECBB0" fill-opacity="1"/></g><g><path d="M430.035151171875,125.0982328125C431.932351171875,127.2660328125,432.07075117187503,130.4688328125,430.367751171875,132.7937328125C427.868651171875,136.0846328125,425.021651171875,139.0935328125,421.876751171875,141.76763281249998C406.000851171875,127.2289328125,399.605551171875,122.1487328125,384.012451171875,113.4087228125C385.806351171875,111.3171628125,387.752171171875,109.3621628125,389.833891171875,107.5597928125C393.008691171875,104.7851868125,397.417751171875,103.9278748125,401.393651171875,105.3121298125C403.214851171875,105.9471628125,405.119351171875,106.6657328125,407.106951171875,107.5430928125C413.319251171875,110.2753628125,420.304951171875,114.5450928125,427.89775117187503,122.6751328125C428.57145117187497,123.4438328125,429.303251171875,124.2543328125,430.035151171875,125.0982328125Z" fill="#1878F5" fill-opacity="1"/></g><g><ellipse cx="199.2236304283142" cy="145.6799373626709" rx="5.738278865814209" ry="6.734624862670898" fill="#006BE0" fill-opacity="1"/></g><g><ellipse cx="227.0017066001892" cy="141.5598201751709" rx="5.738278865814209" ry="6.734624862670898" fill="#006BE0" fill-opacity="1"/></g><g><path d="M104.426081171875,89.913984225C98.712761171875,89.387576125,96.151321171875,92.779958125,97.773005171875,101.327728125L113.790301171875,106.090428125L126.647401171875,98.620518125L105.573741171875,92.186688125" fill="#006BE0" fill-opacity="1"/></g><g><path d="M256.8797615625,254.7294921875C256.8049175625,254.9049781875,256.7466970625,255.0720501875,256.6884765625,255.2224961875L256.8797615625,254.7294921875Z" fill="#6079FF" fill-opacity="1"/></g><g><path d="M256.597823015625,255.4541015625L256.373291015625,256.0306405625L256.597823015625,255.4541015625Z" fill="#6079FF" fill-opacity="1"/></g><g><path d="M251.095,270.05029687499996L255.55,258.204296875L256.273,256.307296875C256.115,255.421296875,255.972,254.532296875,255.845,253.641296875C254.06,237.791296875,256.004,221.741296875,261.521,206.78329687500002Q258.777,234.532296875,262.353,240.431296875L261.978,241.425296875L284.432,182.819496875C285.649,179.64359687500001,288.688,177.549996875,292.075,177.55549687500002L406.175,177.55549687500002Q416.155,166.158396875,424.471,156.056496875C427.602,152.276896875,427.217,146.691296875,423.598,143.380996875L421.877,141.776796875C406.001,127.237996875,399.605,122.157796875,384.012,113.417796875L381.958,112.273096875C376.151,109.076666875,369.154,108.942406875,363.23,111.913796875C347.213,119.92679687500001,332.518,136.211896875,321.981,150.667096875L320.8,150.366296875C299.784,137.34829687500002,298.254,116.59289687500001,279.218,116.59289687500001C276.515,116.59289687500001,274.178,116.659796875,272.116,116.776696875C269.905,116.901696875,267.929,116.927796875,266.139,116.951396875C262.542,116.998996875,259.697,117.036596875,257.213,117.84629687500001C253.494,119.058896875,250.585,122.003196875,244.206,123.461196875C242.138,124.298896875,239.981,124.89599687500001,237.778,125.24099687500001C234.85,125.714896875,232.017,126.65709687500001,229.387,128.031796875C218.675,133.663396875,214.417,145.177496875,212.92,150.33289687500002C210.5,134.365296875,195.863,127.722596875,182.474,123.828896875Q179.622,122.993296875,177.127,122.032396875C171.638,119.935196875,167.488,117.46189687500001,164.902,115.047196875C152.286,111.195196875,133.574,101.143396875,115.627,99.530770875C109.636,98.873321875,103.574,99.508586875,97.8469,101.394086875C92.4768,103.300286875,87.6597,106.512456875,83.8256,110.743996875C60.5814,135.693796875,9.39432,210.00829687499998,2.32542,245.394296875C-4.74347,280.780296875,5.65196,288.334296875,15.4736,293.999296875L182.449,293.999296875Q184.57,270.08529687500004,183.114,255.563296875C182.69,251.385296875,181.975,247.951296875,180.811,246.121296875C175.38,238.133296875,166.124,233.855296875,155.263,231.917296875Q155.279,231.889296875,155.289,231.870296875C166.143,233.810296875,175.391,238.088296875,180.819,246.071296875C181.983,247.901296875,182.699,251.335296875,183.123,255.513296875C184.869,272.163296875,213.698,273.579296875,226.917,277.445296875C240.136,281.310296875,244.219,266.156296875,251.095,270.05029687499996ZM225.145,144.67619687500002C225.299,144.719996875,225.459,144.742396875,225.619,144.74299687500002L225.611,144.759696875C226.867,144.759696875,227.873,143.439496875,227.873,141.835196875C227.873,140.23099687500002,226.858,138.927496875,225.619,138.927496875C224.38,138.927496875,223.374,140.23099687500002,223.374,141.835196875C223.283,143.069296875,224.001,144.219596875,225.145,144.67619687500002ZM199.406,147.366596875C200.082,147.341196875,200.703,146.985496875,201.069,146.41409687499998C201.46,145.841596875,201.663,145.161196875,201.652,144.467296875C201.652,142.854596875,200.654,141.559496875,199.406,141.559496875C198.159,141.559496875,197.152,142.862996875,197.152,144.467296875C197.152,146.071596875,198.159,147.366596875,199.406,147.366596875ZM104.35,201.44429687500002C99.3926,212.640296875,95.9065,224.43729687500002,93.9799,236.537296875C98.7035,235.451296875,104.001,234.357296875,109.606,233.396296875Q108.849,213.417296875,104.35,201.44429687500002Z" fill-rule="evenodd" fill="#1878F5" fill-opacity="1"/></g><g style="mix-blend-mode:multiply"><path d="M44.313729296875,293.965615625C48.467229296875,268.721415625,25.945129296875,247.237475625,1.068739296875,252.713989625C-3.172600703125,281.833315625,6.357929296875,288.718315625,15.497629296875,293.965615625L44.313729296875,293.965615625Z" fill="#262626" fill-opacity="0.11999999731779099" style="mix-blend-mode:multiply"/></g><g><path d="M256.298583984375,256.2314453125L256.298583984375,256.3065302125L256.298583984375,256.2314453125Z" fill="#6079FF" fill-opacity="1"/></g><g><path d="M260.763954171875,244.6015625C260.672486171875,244.8438825,260.580993271875,245.0861765,260.481201171875,245.3368605L260.763954171875,244.6015625Z" fill="#6079FF" fill-opacity="1"/></g><g><path d="M257.211501234375,253.943359375C257.153281234375,254.102118375,257.095060334375,254.244149375,257.036865234375,254.386231375L257.211501234375,253.943359375Z" fill="#6079FF" fill-opacity="1"/></g><g><path d="M260.138954171875,246.2216796875C260.047486171875,246.4639996875,259.955993271875,246.7146576875,259.856201171875,246.9569776875L260.138954171875,246.2216796875Z" fill="#6079FF" fill-opacity="1"/></g><g><path d="M261.15382253125,243.6005859375L260.87939453125,244.3275199375L261.15382253125,243.6005859375Z" fill="#6079FF" fill-opacity="1"/></g><g><path d="M258.11187975,251.51171875L258.01171875,251.77910475L258.11187975,251.51171875Z" fill="#6079FF" fill-opacity="1"/></g><g><path d="M257.555495375,252.95703125L257.380859375,253.42494325L257.555495375,252.95703125Z" fill="#6079FF" fill-opacity="1"/></g><g><path d="M350.21434765625,231.06640625C354.24699765625,231.06640625,357.51609765625,234.35094625,357.51609765625,238.40263625C357.51609765625,242.45430625,354.24699765625,245.73890625,350.21434765625,245.73890625C346.18169765625,245.73890625,342.91259765625,242.45430625,342.91259765625,238.40263625C342.90797859625,234.34903625,346.17979765625,231.06176538,350.21434765625,231.06640625Z" fill="#FFF7E9" fill-opacity="1"/></g><g><path d="M270.15459921875,110.534958125C271.52989921875,112.308678125,272.21839921875,114.523378125,272.09229921875,116.768278125C258.78609921875,117.520278125,255.00199921875,121.19677812500001,242.24469921875,124.11287812500001C247.65039921875,121.869378125,249.63169921875,117.922378125,247.65039921875,114.921678125C245.66899921875,111.920978125,237.25493921875,110.743858125,229.65399131875,108.922338125L229.55419921875,108.922338125Q229.61241971875,106.332088125,229.65399131875,104.560708125C236.81434921875,105.145608125,243.22629921875,103.808708125,247.65059921875,100.892578125C253.60509921875,102.388238125,266.36229921875,105.463098125,270.15459921875,110.534958125Z" fill="#006BE0" fill-opacity="1"/></g><g><path d="M284.82400156250003,258.20465C264.3990215625,270.61275,252.6729715625,239.66355,262.3199315625,204.41125Q265.5716315625,192.52125,272.1083015625,179.09375Q265.1890615625,222.65155,283.8094015625,236.53855Q291.8014015625,242.49615,284.82400156250003,258.20465Z" fill="#006BE0" fill-opacity="1"/></g><g><path d="M446.2861015625,177.53125C450.3011015625,177.532065978,453.0671015625,181.57881,451.6251015625,185.34375L411.9731015625,288.71925C410.7551015625,291.89625,407.71710156250003,293.99225,404.3301015625,293.99225L241.8291015625,293.99225L246.3531915625,282.19325000000003L253.4720015625,263.65255L255.5511015625,258.22974999999997L256.2746015625,256.33305L284.4836015625,182.80364C285.69990156250003,179.6277,288.7394015625,177.53418242,292.1263015625,177.53961377L446.2861015625,177.53961377L446.2861015625,177.53125ZM357.5091015625,238.36845C357.5141015625,234.31465,354.2451015625,231.02545,350.2101015625,231.02385C346.1761015625,231.02235000000002,342.9041015625,234.30905,342.9061015625,238.36295C342.9071015625,242.41674999999998,346.1811015625,245.70095,350.2161015625,245.69635C354.2441015625,245.69635,357.5091015625,242.41555,357.5091015625,238.36845Z" fill="#AEDAFF" fill-opacity="1"/></g><g><path d="M334.213623046875,293.96553125L404.328723046875,293.96553125C407.716323046875,293.96553125,410.754023046875,291.86953125,411.971523046875,288.69353125L451.62362304687497,185.34274125C452.345623046875,183.46782125,452.02962304687503,181.34921125,450.792623046875,179.76953125C433.71872304687497,215.69033124999999,398.973023046875,267.75413125,334.213623046875,293.96553125Z" fill="#8FD2FF" fill-opacity="1"/></g><g><path d="M243.81359453125,45.2787C248.01329453124998,57.6951,252.40439453125,74.6905,253.83479453125,88.2433C254.41689453125,93.75800000000001,251.97189453125,98.0946,247.64739453125,100.9355C243.32289453125,103.7764,236.83619453125,105.1885,229.65079453125,104.6036C220.43629453124998,103.8599,209.99099453125,99.9328,200.90955453125,92.11189999999999C197.04646453125,88.79079999999999,195.09514053125,83.7467,195.71183653125,78.67609999999999C196.31061453125,73.74629999999999,197.18382453125,68.09790000000001,197.18382453125,62.2907C197.18382453125,62.065200000000004,197.18382453125,61.847899999999996,197.18382453125,61.622299999999996L195.60372013125,55.564499999999995C196.55603353125,53.968900000000005,196.65580453125,52.0018,195.86984953125,50.3172C193.86560453125,46.214600000000004,202.36491453125,47.2005,204.97625453125,43.9251C205.61659453125,43.089600000000004,206.24029453125002,42.3208,206.76429453125,41.527100000000004C209.40059453125,37.52473,205.59169453125,33.80647,203.76207453125,31.884693C205.81389453125,32.145882,207.79309453125,32.81631,209.58349453125,33.85662C215.57959453125,36.96491,220.65259453125,34.62533,224.46979453125,31.4585612L225.02699453125,31.4585612C229.19509453125,33.51568,234.08309453125,33.48472,238.22499453125,31.375L238.27489453125,31.4585612C239.53289453125,33.93312,240.64369453125,36.48048,241.60139453125,39.08724C242.31659453125,40.97557,243.07339453125002,43.0645,243.81359453125,45.2787ZM240.07959453125,50.960499999999996C240.07959453125,49.4983,239.24789453124998,48.311800000000005,238.20839453125,48.311800000000005C237.16889453125,48.311800000000005,236.33719453125,49.4983,236.33719453125,50.960499999999996C236.33719453125,52.4227,237.16889453125,53.609300000000005,238.20839453125,53.609300000000005C239.24789453124998,53.609300000000005,240.07949453125,52.422799999999995,240.07959453125,50.960499999999996ZM225.35129453125,52.071799999999996C225.35129453125,50.475899999999996,224.43649453125,49.172399999999996,223.30549453125,49.172399999999996C222.17449453125,49.172399999999996,221.25969453125,50.475899999999996,221.25969453125,52.071799999999996C221.25969453125,53.667699999999996,222.17449453125,54.971199999999996,223.30549453125,54.971199999999996C224.43649453125,54.971199999999996,225.35129453125,53.676100000000005,225.35129453125,52.071799999999996Z" fill="#FECBB0" fill-opacity="1"/></g><g><path d="M222.55521921875,45.8190875Q218.28191921875,45.458687499999996,215.77891921875,47.7903375Q215.67660321875,47.8922175,215.55642221875,47.9722375Q215.43624221875,48.0522675,215.30278921875,48.1073775Q215.16933521875,48.1624875,215.02771021875,48.1905775Q214.88608421875,48.2186675,214.74169921875,48.2186675Q214.66948271875,48.2186675,214.59761421875,48.2115875Q214.52574521875,48.2045075,214.45491621875,48.1904275Q214.38408721875,48.1763375,214.31498121875,48.1553675Q214.24587421875,48.1344075,214.17915421875,48.106767500000004Q214.11243521875,48.0791375,214.04874621875,48.0450975Q213.98505721875,48.011047500000004,213.92501121875,47.9709275Q213.86496521875,47.9308075,213.80914121875,47.8849975Q213.75331721875,47.8391775,213.70224921875,47.7881175Q213.65118921875,47.7370475,213.60536921875,47.6812275Q213.55955921875,47.6254075,213.51943921875,47.5653575Q213.47931921875,47.5053075,213.44527921875,47.4416175Q213.41122921875,47.3779375,213.38359921875,47.3112175Q213.35595921875,47.2444975,213.33499921875,47.1753875Q213.31402921875,47.1062775,213.29994921875,47.035447500000004Q213.28585921875,46.9646175,213.27877921875,46.8927575Q213.27169921875,46.8208875,213.27169921875,46.748667499999996Q213.27169921875,46.5922075,213.30462921875,46.4392575Q213.33755921875,46.2863075,213.40194921875,46.1437175Q213.46633921875,46.0011175,213.55929921875,45.8752775Q213.65224921875,45.7494275,213.76961721875,45.6459675Q215.21799721875,44.29527945,217.17975921875,43.5707545Q219.72449921875,42.6309175,222.80655921875,42.8912175Q222.87611921875,42.8950675,222.94500921875,42.9054775Q223.01389921875,42.9158875,223.08149921875,42.9327575Q223.14909921875,42.9496375,223.21479921875,42.9728375Q223.28049921875,42.9960275,223.34370921875,43.0253375Q223.40691921875,43.0546475,223.46706921875,43.0897975Q223.52721921875,43.1249475,223.58377921875,43.1656375Q223.64034921875,43.2063175,223.69279921875,43.2521675Q223.74525921875,43.2980275,223.79314921875,43.3486305Q223.84103921875,43.3992385,223.88391921875,43.4541495Q223.92680921875,43.5090595,223.96430921875,43.5677795Q224.00180921875,43.6265005,224.03358921875,43.6885045Q224.06535921875,43.7505075,224.09113921875,43.8152395Q224.11690921875,43.8799705,224.13643921875,43.9468495Q224.15596921875,44.0137285,224.16908921875,44.0821545Q224.18220921875,44.1505815,224.18879921875,44.2199419Q224.19538921875,44.2893026,224.19539921875,44.3589755Q224.19539921875,44.4311915,224.18831921875,44.5030605Q224.18123921875,44.5749295,224.16714921875,44.6457585Q224.15305921875,44.7165875,224.13209921875,44.7856935Q224.11112921875,44.8548005,224.08349921875,44.9215205Q224.05585921875,44.9882395,224.02181921875,45.0519285Q223.98777921875,45.1156175,223.94764921875,45.1756635Q223.90752921875,45.2357095,223.86171921875,45.2915335Q223.81590921875,45.3473575,223.76483921875,45.3984175Q223.71377921875,45.449487500000004,223.65794921875,45.4952975Q223.60212921875,45.5411175,223.54207921875,45.5812375Q223.48203921875,45.6213575,223.41834921875,45.6553975Q223.35465921875,45.6894375,223.28793921875,45.7170775Q223.22121921875,45.7447175,223.15210921875,45.7656775Q223.08300921875,45.7866375,223.01217921875,45.8007275Q222.94134921875,45.8148175,222.86947921875,45.8218975Q222.79760921875,45.8289775,222.72539921875,45.8289775Q222.64001921875,45.8289775,222.55521921875,45.8190875Z" fill-rule="evenodd" fill="#190C3A" fill-opacity="1"/></g><g><path d="M242.816709609375,46.3480034375Q240.888729609375,44.6435534375,239.581419609375,44.2061334375Q238.45783960937501,43.8301734375,236.579266609375,44.0792434375Q236.460239609375,44.0989134375,236.339599609375,44.0989134375Q236.267383109375,44.0989134375,236.195514609375,44.0918434375Q236.123645609375,44.0847634375,236.052816609375,44.0706734375Q235.981987609375,44.0565834375,235.912881609375,44.0356234375Q235.843774609375,44.0146534375,235.777054609375,43.9870234375Q235.710335609375,43.9593834375,235.646646609375,43.9253434375Q235.582957609375,43.8913034375,235.522911609375,43.8511734375Q235.462865609375,43.8110534375,235.407041609375,43.7652434375Q235.351217609375,43.7194334375,235.300149609375,43.6683634375Q235.249089609375,43.6173034375,235.203269609375,43.5614734375Q235.157459609375,43.5056534375,235.117339609375,43.4456054375Q235.077219609375,43.3855594375,235.043179609375,43.3218704375Q235.009129609375,43.2581814375,234.981499609375,43.1914614375Q234.953859609375,43.1247424375,234.932899609375,43.0556354375Q234.911929609375,42.9865284375,234.897849609375,42.9156994375Q234.883759609375,42.8448704375,234.876679609375,42.7730024375Q234.869599609375,42.7011334375,234.869599609375,42.6289174375Q234.869599609375,42.5614433375,234.875779609375,42.4942533675Q234.881959609375,42.4270634375,234.894269609375,42.3607224375Q234.906579609375,42.2943814375,234.924919609375,42.2294464375Q234.943249609375,42.1645124375,234.967459609375,42.1015304375Q234.991669609375,42.0385484375,235.021539609375,41.9780494375Q235.051419609375,41.9175494375,235.086709609375,41.8600414375Q235.121999609375,41.8025334375,235.162409609375,41.7485004375Q235.202829609375,41.6944664375,235.248019609375,41.6443624375Q235.293209609375,41.5942584375,235.342799609375,41.5485054375Q235.392391609375,41.5027514375,235.445965609375,41.4617334375Q235.499539609375,41.4207134375,235.556646609375,41.3847734375Q235.613752609375,41.3488434375,235.673911609375,41.3182834375Q235.734070609375,41.2877334375,235.796775609375,41.2628134375Q235.859479609375,41.2378934375,235.924203609375,41.2188334375Q235.988927609375,41.1997634375,236.055125609375,41.1867034375Q236.121323609375,41.1736434375,236.188439609375,41.1667134375Q238.744559609375,40.8273334375,240.513889609375,41.4193534375Q242.387599609375,42.0463014375,244.765009609375,44.1480634375Q244.88924960937499,44.2515334375,244.988039609375,44.3795234375Q245.086819609375,44.5075234375,245.155419609375,44.6539334375Q245.224029609375,44.8003334375,245.259169609375,44.9581534375Q245.294309609375,45.1159734375,245.294309609375,45.2776534375Q245.294309609375,45.3498734375,245.287229609375,45.4217434375Q245.280149609375,45.4936134375,245.266059609375,45.5644434375Q245.251979609375,45.6352734375,245.231009609375,45.7043734375Q245.210049609375,45.7734834375,245.182409609375,45.8402034375Q245.154779609375,45.9069234375,245.120729609375,45.9706134375Q245.08668960937501,46.0343034375,245.046569609375,46.0943434375Q245.006449609375,46.1543934375,244.960639609375,46.2102134375Q244.914819609375,46.2660434375,244.863759609375,46.3171034375Q244.812689609375,46.3681734375,244.756869609375,46.4139834375Q244.701039609375,46.4597934375,244.640999609375,46.4999134375Q244.580949609375,46.5400434375,244.517259609375,46.5740834375Q244.453569609375,46.6081234375,244.386849609375,46.6357634375Q244.320139609375,46.6633934375,244.251029609375,46.6843634375Q244.181919609375,46.7053234375,244.111089609375,46.7194134375Q244.040259609375,46.7335034375,243.968399609375,46.7405834375Q243.896529609375,46.7476534375,243.824309609375,46.7476534375Q243.685129609375,46.7476534375,243.548419609375,46.7215334375Q243.411709609375,46.6954134375,243.282329609375,46.6440934375Q243.152949609375,46.5927834375,243.035499609375,46.5180934375Q242.918059609375,46.4434134375,242.816709609375,46.3480034375Z" fill-rule="evenodd" fill="#190C3A" fill-opacity="1"/></g><g><path d="M228.53352178125,49.336907Q228.51705078125,49.2552129,228.51705078125,49.171875Q228.51705078125,49.0896347,228.53309478124999,49.008975Q228.54913978125,48.928315,228.58061178125,48.852334Q228.61208378125,48.776354,228.65777378125,48.707974Q228.70346378125,48.639594,228.76161678125,48.581441Q228.81976978125,48.523288,228.88814978125,48.477598Q228.95652978125,48.431908,229.03250978125,48.400436Q229.10849078125,48.368964,229.18915078125,48.352919Q229.26981048125,48.336875,229.35205078125,48.336875Q229.42586748125,48.336875,229.49853978125,48.349825Q229.57121078125,48.362775,229.64048378125,48.388273Q229.70975678125,48.413772,229.77348178125,48.451028Q229.83720678125,48.488284,229.89340778125,48.536141Q229.94960878125,48.583999,229.99654278125,48.640974Q230.04347578125,48.697949,230.07968578125,48.762275Q230.11589578125,48.8266,230.14025878125,48.89628Q230.16462278125,48.96596,230.17638378125,49.038834Q230.72332078125,52.045615,232.13412078125,53.839394999999996Q233.56799078125,55.662505,236.08285078125,56.455985Q236.50020078125,56.588335,237.48306078125,56.797055Q238.99523078125,57.118175,239.69015078125,57.406025Q241.01085078124999,57.953095,241.55755078125,58.972675Q242.80095078125,61.291475,239.84825078125,66.458875Q239.79435078125,66.557475,239.71625078125,66.638475Q239.63825078125,66.719375,239.54155078125,66.776675Q239.44475078125,66.834075,239.33635078125,66.86387500000001Q239.22791078125,66.893575,239.11546078125,66.893575Q239.03322078125,66.893575,238.95256078124999,66.87757500000001Q238.87190078125,66.861475,238.79592078125,66.829975Q238.71993078125,66.798575,238.65155078125,66.752875Q238.58317078125,66.707175,238.52502078125,66.64897500000001Q238.46687078125,66.590875,238.42118078125,66.522475Q238.37549078125,66.454075,238.34402078125,66.378175Q238.31254078125,66.302175,238.29650078125,66.221475Q238.28046078124999,66.140875,238.28046078124999,66.058575Q238.28046078124999,65.827975,238.39881078125,65.630075Q240.89275078125,61.266075,240.08615078125,59.761675Q239.82115078125,59.267575,239.05118078125,58.948605Q238.49816078125,58.719525000000004,237.13622078125,58.430315Q236.07339078125,58.204615000000004,235.57811078125,58.047545Q232.57415078125,57.099755,230.82171078125,54.871595Q229.15458778125,52.751895,228.53352178125,49.336907Z" fill-rule="evenodd" fill="#FFB18F" fill-opacity="1"/></g><g><path d="M243.22225078125,71.9136705625Q243.30555078125,71.8045445625,243.34945078125,71.6745125625Q243.39345078125,71.5444805625,243.39345078125,71.4072265625Q243.39345078125,71.3249862625,243.37735078125,71.2443265625Q243.36135078125,71.1636665625,243.32985078125,71.0876855625Q243.29835078125,71.0117055625,243.25265078125,70.9433255625Q243.20695078125,70.8749455625,243.14885078125,70.8167925625Q243.09065078125,70.7586395625,243.02235078125,70.7129495625Q242.95395078125,70.66725956249999,242.87795078125,70.6357875625Q242.80195078125,70.6043155625,242.72135078125,70.5882705625Q242.64065078125,70.5722265625,242.55845078125,70.5722265625Q242.45795078125,70.5722265625,242.36035078125,70.5960645625Q242.26275078125,70.6199015625,242.17355078125001,70.6662155625Q242.08435078125,70.7125305625,242.00875078125,70.7786765625Q241.93305078125,70.8448225625,241.87535078125,70.9270245625Q239.52305078125,74.1355765625,236.96355078125,74.8362165625Q234.26597078125,75.57464656249999,229.62278078125,74.0849065625Q229.49117378125,74.0397965625,229.35205078125,74.0397965625Q229.26981048125,74.0397965625,229.18915078125,74.0558465625Q229.10849078125,74.0718865625,229.03250978125,74.1033565625Q228.95652978125,74.1348365625,228.88814978125,74.1805265625Q228.81976978125,74.2262165625,228.76161678125,74.2843665625Q228.70346378125,74.3425165625,228.65777378125,74.4108965625Q228.61208378125,74.4792765625,228.58061178125,74.5552565625Q228.54913978125,74.63123656249999,228.53309478124999,74.7118965625Q228.51705078125,74.7925565625,228.51705078125,74.8747965625Q228.51705078125,74.9417165625,228.52770878125,75.0077865625Q228.53836578125,75.0738465625,228.55940878125,75.1373765625Q228.58045178125,75.2008965625,228.61134378125,75.2602565625Q228.64223478125,75.3196165625,228.68218578125,75.3733065625Q228.72213778125,75.4269865625,228.77012878125,75.4736265625Q228.81811978125,75.5202665625,228.87292578125,75.5586565625Q228.92773178125,75.5970565625,228.98795378125,75.6262365625Q229.04817578125,75.6554165625,229.11227578125,75.6746365625Q234.22827078125,77.3160765625,237.40439078125,76.4466565625Q240.52565078125,75.5922465625,243.22225078125,71.9136705625Z" fill-rule="evenodd" fill="#FF947B" fill-opacity="1"/></g><g><path d="M253.47105820312498,263.6508046875L246.352258203125,282.1919046875L200.712158203125,282.1919046875C201.543792203125,273.3015046875,201.053131203125,261.6204046875,200.828599203125,257.5094146875C205.660398203125,257.2837946875,210.325878203125,256.4315546875,213.469458203125,254.3760546875C222.99165820312498,248.1761746875,222.975058203125,248.5772586875,229.877558203125,251.3513246875C234.469358203125,253.3049846875,238.947858203125,255.5171546875,243.291858203125,257.9773246875C246.668358203125,259.8490046875,249.87005820312498,261.7206046875,252.381658203125,263.2330046875L253.47105820312498,263.6508046875Z" fill="#FECBB0" fill-opacity="1"/></g><g><path d="M246.3505828125,282.16796875L241.8264828125,293.96606875L189.1923828125,293.96606875L191.5625328125,287.79964875C192.8631028125,284.40578875,196.1095428125,282.167101773,199.7291828125,282.16796875L246.3505828125,282.16796875Z" fill="#8FD2FF" fill-opacity="1"/></g><g><path d="M229.6509725,108.96484375C253.6685375,109.53301975,254.97423750000002,118.99154375,244.1796375,123.49524375C242.1113375,124.33294375,239.9544375,124.93004375,237.7510875,125.27504375C234.8235875,125.74894375,231.9906075,126.69114375,229.3598957,128.06574375L229.3598957,128.00724375C229.2684281,124.53974375,229.4596875,114.72187375,229.5844275,108.96484375L229.6509725,108.96484375Z" fill="#0060B7" fill-opacity="1"/></g><g><ellipse cx="238.21077716350555" cy="50.96122932434082" rx="1.8711775541305542" ry="2.6487293243408203" fill="#190C3A" fill-opacity="1"/></g><g><path d="M187.734985546875,74.1634953125C181.763885546875,74.2136953125,178.528835546875,68.4148953125,179.551735546875,63.5435453125C179.885335546875,61.9476753125,180.557615546875,60.442885312499996,181.522705546875,59.1317853125C183.793065546875,56.0067953125,187.285885546875,54.3273053125,189.414885546875,54.1184153125C192.392185546875,53.8008983125,194.895385546875,53.6421393125,197.182385546875,62.2985653125C197.182385546875,68.1056953125,196.309185546875,73.7540953125,195.710385546875,78.6838953125C195.093685546875,83.7544953125,197.044985546875,88.7984953125,200.908085546875,92.1196953125C209.989585546875,99.9405953125,220.434885546875,103.86769531249999,229.649385546875,104.61139531250001Q229.607785546875,106.38279531250001,229.549585546875,108.97299531249999C229.424885546875,114.7299953125,229.233585546875,124.5478953125,229.32508554687502,128.01549531249998L229.32508554687502,128.07399531250002C218.61358554687502,133.7055953125,214.355685546875,145.2196953125,212.858685546875,150.37509531249998C210.438685546875,134.4074953125,195.80188554687498,127.7647953125,182.412585546875,123.8710953125Q179.560085546875,123.0354953125,177.065185546875,122.0745953125L177.131717846875,121.9074953125L180.965555546875,104.61139531250001L186.870165546875,77.9402953125L187.734985546875,74.1634953125Z" fill="#FECBB0" fill-opacity="1"/></g><g><path d="M196.50390625,85.6787109375C200.40427625,102.1810109375,221.16190625000002,114.0878109375,229.37840625,118.2656109375C229.43660625,114.9819109375,229.50310625,111.5811109375,229.56140625,108.9825109375Q229.61960625,106.3839109375,229.66120625,104.6209109375C220.44670625,103.8772109375,210.00130625,99.9501109375,200.91988625,92.1292409375C198.91594625,90.4002609375,197.39414225,88.1773109375,196.50390625,85.6787109375Z" fill="#FF947B" fill-opacity="1"/></g><g><path d="M186.2486908125,61.3974821875Q186.1955998125,61.2557971875,186.1955998125,61.1044921875Q186.1955998125,61.0222518875,186.2116438125,60.9415921875Q186.2276878125,60.8609321875,186.2591598125,60.7849511875Q186.2906318125,60.7089711875,186.3363218125,60.6405911875Q186.3820128125,60.5722111875,186.4401648125,60.5140581875Q186.4983178125,60.4559051875,186.5666982125,60.4102151875Q186.6350785225,60.3645251875,186.7110586125,60.3330531875Q186.7870388125,60.3015811875,186.8676988125,60.2855361875Q186.9483588125,60.2694921875,187.0305988125,60.2694921875Q187.0960318125,60.2694921875,187.1606658125,60.2796841875Q187.2252998125,60.2898771875,187.2875578125,60.3100131875Q187.3498148125,60.3301491875,187.4081758125,60.3597361875Q187.4665368125,60.3893241875,187.5195758125,60.4276421875Q187.5726158125,60.4659591875,187.6190398125,60.5120711875Q187.6654628125,60.5581821875,187.7041328125,60.6109631875Q187.7428128125,60.6637431875,187.7727928125,60.7219031875Q187.8027728125,60.7800631875,187.8233328125,60.8421831875Q188.3529028125,62.3397621875,189.0795828125,62.7004521875Q189.7379928125,63.0272521875,191.0317528125,62.5939621875Q191.1009428125,62.5707821875,191.1731028125,62.5599721875Q191.2452728125,62.5491521875,191.3182128125,62.5510121875Q191.3911628125,62.5528821875,191.4626728125,62.5673721875Q191.5341928125,62.5818621875,191.6021028125,62.6085421875Q191.6700228125,62.6352221875,191.7322828125,62.6732721875Q191.7945428125,62.7113321875,191.8492528125,62.7596121875Q191.9039628125,62.8078921875,191.9494728125,62.8649321875Q191.9949828125,62.9219721875,192.0299028125,62.9860421875Q192.0692528125,63.0582321875,192.0937628125,63.1367221875Q192.1182728125,63.2152121875,192.1270028125,63.2969721875Q192.1357328125,63.3787321875,192.1283428125,63.4606221875Q192.1209528125,63.5425121875,192.0977228125,63.6213921875Q192.0745028125,63.7002621875,192.0363328125,63.7730921875Q191.9981628125,63.8459221875,191.9465228125,63.9099121875Q191.8948828125,63.9738921875,191.8317528125,64.0265721875Q191.7686228125,64.0792621875,191.6964228125,64.1186121875Q189.0708428125,65.5497221875,188.0852628125,66.8700221875Q187.0689288125,68.2315421875,187.7478628125,69.7041221875Q187.8323228125,69.8773521875,187.8323228125,70.0700721875Q187.8323228125,70.1523121875,187.8162828125,70.2329721875Q187.8002428125,70.3136321875,187.7687628125,70.3896121875Q187.7372928125,70.4655921875,187.6916028125,70.5339721875Q187.6459128125,70.6023521875,187.5877608125,70.6605121875Q187.5296078125,70.7186621875,187.4612278125,70.7643521875Q187.3928478125,70.8100421875,187.3168678125,70.8415121875Q187.2408868125,70.8729821875,187.1602268125,70.88903218749999Q187.0795668125,70.9050721875,186.9973268125,70.9050721875Q186.8758528125,70.9050721875,186.7594148125,70.8704621875Q186.6429764125,70.8358521875,186.5412258125,70.7695021875Q186.4394748125,70.7031521875,186.3608478125,70.6105521875Q186.2822198125,70.5179621875,186.2332338125,70.4068021875Q185.1348228125,68.0313021875,186.7472578125,65.8712421875Q187.3586148125,65.0522421875,188.4191928125,64.2350721875Q188.3778828125,64.2162021875,188.3372528125,64.1960421875Q187.0043008125,63.5344321875,186.2486908125,61.3974821875Z" fill-rule="evenodd" fill="#FFB18F" fill-opacity="1"/></g><g><ellipse cx="223.3092486858368" cy="52.0712730884552" rx="2.045820951461792" ry="2.8993980884552" fill="#190C3A" fill-opacity="1"/></g><g><path d="M179.088823359375,48.2663C179.053623359375,48.2981,179.018293359375,48.3299,178.982833359375,48.3617C175.864203359375,51.1441,171.789202359375,53.5004,171.340113359375,49.9409Q169.843173359375,38.101,180.022373359375,36.2544C179.481823359375,21.6321,189.652693359375,15.1815,201.644893359375,14.5966C207.108693359375,5.22165,218.801493359375,-0.234568,222.901393359375,0.00773904C227.516993359375,0.275125,231.043193359375,5.27178,229.945393359375,9.90914C251.39329335937498,7.23535,250.736293359375,30.9068,241.588293359375,39.0869C240.630493359375,36.4802,239.519793359375,33.9328,238.261693359375,31.4583L238.211793359375,31.3747C234.069893359375,33.4844,229.181793359375,33.5154,225.013793359375,31.4583L224.456593359375,31.4583C220.639393359375,34.625,215.566393359375,36.9646,209.570393359375,33.8563C207.779993359375,32.816,205.800693359375,32.1456,203.74889335937502,31.8844C203.817093359375,31.956,203.887993359375,32.0301,203.961193359375,32.1066C205.853393359375,34.0836,209.289193359375,37.6735,206.751093359375,41.5268C206.228393359375,42.3187,205.606393359375,43.119,204.967593359375,43.9192L204.971093359375,43.9248C204.260393359375,44.8162,203.382193359375,45.6358,202.521193359375,46.4394C200.218493359375,48.5885,198.038593359375,50.6229,199.515593359375,53.609C199.607093359375,53.7928,199.698493359375,53.9766,199.798293359375,54.1605C201.340093359375,57.1141,200.180293359375,60.7641,197.220293359375,62.2738C197.161993359375,62.0649,197.103793359375,61.8643,197.053893359375,61.6638C194.808493359375,53.6257,192.355193359375,53.7845,189.452793359375,54.0936C187.323793359375,54.3109,183.830893359375,55.9903,181.560593359375,59.107Q178.965873359375,52.5896,179.015773359375,48.3366C179.040913359375,48.3141,179.065263359375,48.2906,179.088823359375,48.2663Z" fill-rule="evenodd" fill="#190C3A" fill-opacity="1"/></g><g><path d="M200.829051171875,257.4849515625C201.053651171875,261.5959015625,201.552551171875,273.2770515625,200.712651171875,282.1674515625L199.731351171875,282.1674515625C196.111651171875,282.1665515625,192.865251171875,284.4052515625,191.564661171875,287.7990515625L189.194491171875,293.9655515625L182.449951171875,293.9655515625Q184.570621171875,270.0517515625,183.115261171875,255.5297115625C186.574861171875,253.4575145625,197.253051171875,253.1650885625,200.745951171875,255.9892615625C200.745951171875,255.97259156249999,200.77915117187501,256.5240315625,200.829051171875,257.4849515625Z" fill="#1878F5" fill-opacity="1"/></g><g><path d="M200.208244140625,256.6292615625Q199.161744140625,255.7898415625,197.022544140625,255.2947415625Q194.974844140625,254.8208045625,192.377804140625,254.7646185625Q189.884674140625,254.7106815625,187.598614140625,255.0516315625Q185.324864140625,255.3907515625,183.992764140625,256.0099115625Q183.818887140625,256.0951415625,183.625244140625,256.0951415625Q183.543003840625,256.0951415625,183.462344140625,256.0791015625Q183.381684140625,256.0630615625,183.305703140625,256.0315815625Q183.229723140625,256.0001115625,183.161343140625,255.9544215625Q183.092963140625,255.9087315625,183.034810140625,255.8505815625Q182.976657140625,255.7924315625,182.930967140625,255.7240515625Q182.885277140625,255.6556615625,182.853805140625,255.5796815625Q182.822333140625,255.5037015625,182.80628814062499,255.4230415625Q182.790244140625,255.3423815625,182.790244140625,255.2601415625Q182.790244140625,255.1388615625,182.824750140625,255.0225915625Q182.859256140625,254.9063135625,182.925416140625,254.8046615625Q182.991576140625,254.7030095625,183.083922140625,254.6243815625Q183.176268140625,254.5457535625,183.287168140625,254.4966475625Q184.838714140625,253.7751105625,187.352314140625,253.4002185625Q189.778814140625,253.0383165625,192.413914140625,253.0953265625Q195.183344140625,253.1552415625,197.399044140625,253.6680525625Q199.911544140625,254.2495465625,201.255744140625,255.3290015625Q201.331344140625,255.3875315625,201.391744140625,255.4616315625Q201.452144140625,255.5357315625,201.494244140625,255.6215715625Q201.536344140625,255.7074115625,201.557944140625,255.8005515625Q201.579644140625,255.8936915625,201.579644140625,255.9893015625Q201.579644140625,256.0715415625,201.563544140625,256.1522015625Q201.547544140625,256.2328615625,201.516044140625,256.3088415625Q201.484544140625,256.3848215625,201.438844140625,256.4532015625Q201.393144140625,256.5215815625,201.335044140625,256.5797415625Q201.276844140625,256.6378915625,201.208544140625,256.6835815625Q201.140144140625,256.7292715625,201.064144140625,256.7607415625Q200.988144140625,256.7922115625,200.907544140625,256.8082615625Q200.82684414062498,256.8243015625,200.74464414062498,256.8243015625Q200.597544140625,256.8243015625,200.459244140625,256.7740315625Q200.320944140625,256.7237515625,200.208244140625,256.6292615625Z" fill-rule="evenodd" fill="#006BE0" fill-opacity="1"/></g><g><path d="M186.90605390625,77.9323390625L181.00145390625,104.6034390625C165.31645390625,104.6034390625,163.58665390625,105.23843906249999,163.23735390625,109.4914390625C163.09595390625,111.1626390625,162.72215390625,113.0844390625,164.87605390625,115.08143906250001C152.26015390625,111.2294390625,133.54835390625,101.17763906249999,115.60175390625,99.5650390625C113.53927390625,98.5205390625,109.78028390625,96.6154390625,107.11073390625,94.0001390625C103.13551890625,90.06463906249999,101.68015390625,84.5416390625,112.24191390625,77.9323090625C129.85595390625,66.9196190625,174.93885390625002,73.1361990625,186.89775390625,77.9323090625L186.90605390625,77.9323390625Z" fill="#006BE0" fill-opacity="1"/></g><g><path d="M227.101593671875,142.1082690625Q227.128033671875,141.9817710625,227.128033671875,141.8525390625Q227.128033671875,141.7911304625,227.122013671875,141.7300180625Q227.115993671875,141.6689050625,227.104013671875,141.6086760625Q227.092033671875,141.5484480625,227.074213671875,141.4896830625Q227.056383671875,141.4309190625,227.032883671875,141.3741850625Q227.009383671875,141.3174510625,226.980433671875,141.2632930625Q226.951493671875,141.2091360625,226.917373671875,141.1580760625Q226.883253671875,141.1070170625,226.844293671875,141.0595470625Q226.805343671875,141.0120780625,226.761913671875,140.9686560625Q226.718493671875,140.9252330625,226.671023671875,140.8862760625Q226.623553671875,140.8473190625,226.572493671875,140.8131990625Q226.521433671875,140.7790890625,226.467283671875,140.7501390625Q226.413123671875,140.7211890625,226.356393671875,140.6976890625Q226.299653671875,140.6741890625,226.240893671875,140.6563590625Q226.182123671875,140.6385390625,226.121893671875,140.6265590625Q226.061673671875,140.6145790625,226.000553671875,140.6085590625Q225.939443671875,140.6025390625,225.878033671875,140.6025390625Q225.771153671875,140.6025390625,225.665823671875,140.6206890625Q225.560493671875,140.6388290625,225.459773671875,140.6745890625Q225.359053671875,140.7103590625,225.265863671875,140.7626990625Q225.172683671875,140.8150390625,225.089733671875,140.8824460625Q225.006783671875,140.9498490625,224.936483671875,141.0303560625Q224.866184671875,141.1108630625,224.810572671875,141.2021360625Q224.754959671875,141.2934100625,224.715649671875,141.3927990625Q224.676339671875,141.4921890625,224.654473671875,141.5968090625L224.652258671875,141.5963460625Q224.533856671875,142.1628530625,224.170099671875,143.5018090625Q224.015375671875,144.0713390625,223.936235071875,144.3706990625Q222.737643671875,148.8641790625,222.651193671875,151.7509190625Q222.508363671875,156.5207390625,224.889702671875,159.6085390625Q225.300423671875,160.13633906249999,226.130933671875,161.1486390625Q227.906583671875,163.3129390625,228.637753671875,164.4863390625Q229.813593671875,166.3733390625,230.265343671875,168.3690390625Q231.424453671875,173.4898390625,228.343123671875,182.0011390625L228.345253671875,182.00183906249998Q228.270593671875,182.2081390625,228.270593671875,182.4274390625Q228.270593671875,182.4888390625,228.276613671875,182.54993906250002Q228.282633671875,182.6110390625,228.294613671875,182.6712390625Q228.306593671875,182.7314390625,228.324423671875,182.7902390625Q228.342253671875,182.8490390625,228.365753671875,182.9057390625Q228.389253671875,182.9624390625,228.418193671875,183.0166390625Q228.447143671875,183.0708390625,228.481263671875,183.1218390625Q228.515373671875,183.1729390625,228.55433367187499,183.2204390625Q228.593293671875,183.2678390625,228.636713671875,183.3112390625Q228.680133671875,183.35473906250002,228.727603671875,183.3936390625Q228.775073671875,183.43263906250002,228.826133671875,183.46673906249998Q228.877193671875,183.5008390625,228.931353671875,183.5298390625Q228.985513671875,183.5587390625,229.042243671875,183.5822390625Q229.098973671875,183.6057390625,229.157743671875,183.62353906250002Q229.216503671875,183.6414390625,229.276733671875,183.6533390625Q229.336963671875,183.6653390625,229.398073671875,183.6713390625Q229.459193671875,183.6774390625,229.520593671875,183.6774390625Q229.616363671875,183.6774390625,229.711013671875,183.66283906249998Q229.805663671875,183.6482390625,229.896993671875,183.6193390625Q229.988313671875,183.5905390625,230.074183671875,183.5481390625Q230.160043671875,183.5057390625,230.238443671875,183.4507390625Q230.316843671875,183.3957390625,230.385953671875,183.3294390625Q230.455063671875,183.2631390625,230.513263671875,183.1870390625Q230.571473671875,183.1110390625,230.617403671875,183.0269390625Q230.663343671875,182.9429390625,230.695943671875,182.8529390625L230.698073671875,182.8536390625Q234.029163671875,173.6524390625,232.708073671875,167.81613906249999Q232.162933671875,165.4078390625,230.763373671875,163.1618390625Q229.946113671875,161.8502390625,228.067203671875,159.5601390625Q227.257193671875,158.5728390625,226.866363671875,158.0705390625Q225.038573671875,155.7004390625,225.154603671875,151.8258890625Q225.232363671875,149.2292390625,226.356153671875,145.0161890625Q226.434533671875,144.7197090625,226.587023671875,144.1584190625Q226.970233671875,142.7478630625,227.103813671875,142.1087320625L227.101593671875,142.1082690625Z" fill-rule="evenodd" fill="#006BE0" fill-opacity="1"/></g><g><path d="M198.8356838125,145.966237625Q198.6761528125,145.793124625,198.5905128125,145.573838625Q198.5048828125,145.354553625,198.5048828125,145.119140625Q198.5048828125,145.057732025,198.5109028125,144.996619625Q198.5169228125,144.935506625,198.5289028125,144.875277625Q198.5408828125,144.815049625,198.5587028125,144.756284625Q198.5765328125,144.697520625,198.6000328125,144.640786625Q198.6235328125,144.584052625,198.6524828125,144.529894625Q198.6814328125,144.475737625,198.7155428125,144.424677625Q198.7496628125,144.373618625,198.7886198125,144.326148625Q198.8275768125,144.278679625,198.8709998125,144.235257625Q198.9144218125,144.191834625,198.9618908125,144.152877625Q199.0093608125,144.113920625,199.0604198125,144.079800625Q199.1114798125,144.045690625,199.1656368125,144.016740625Q199.2197948125,143.987790625,199.2765288125,143.964290625Q199.3332628125,143.940790625,199.3920268125,143.922960625Q199.4507918125,143.905140625,199.5110198125,143.893160625Q199.5712488125,143.881180625,199.6323618125,143.875160625Q199.6934742125,143.869140625,199.7548828125,143.869140625Q199.8844368125,143.869140625,200.0112378125,143.895710625Q200.1380378125,143.922280625,200.2566938125,143.974290625Q200.3753508125,144.026300625,200.4808188125,144.101540625Q200.5862858125,144.176775625,200.6740818125,144.272043625L200.6757458125,144.270510625Q201.3450428125,144.996777625,201.8887228125,145.467692625Q201.9007628125,145.478120625,201.9125328125,145.488850625Q202.0436228125,145.608358625,202.3094628125,145.848474625Q203.6539428125,147.062850625,204.2995428125,147.780420625Q205.4206328125,149.026480625,206.0956128125,150.389650625Q207.7606228125,153.752210625,207.2298328125,159.005740625Q206.9711928125,161.58534062500001,206.1474328125,166.049840625Q205.6648028125,168.665640625,205.5012828125,169.853040625Q205.2406228125,171.745740625,205.2732328125,173.108040625Q205.3469028125,176.185940625,207.0775128125,178.299840625L207.0757628125,178.301240625Q207.2129128125,178.468740625,207.2857328125,178.67264062499999Q207.3585528125,178.876540625,207.3585528125,179.09304062500001Q207.3585528125,179.154440625,207.3525328125,179.21554062500002Q207.3465128125,179.276740625,207.3345328125,179.336940625Q207.3225528125,179.397140625,207.3047328125,179.45594062499998Q207.2869028125,179.514640625,207.2634028125,179.571440625Q207.2399028125,179.62814062500001,207.2109528125,179.682340625Q207.1820128125,179.736440625,207.1478928125,179.787540625Q207.1137728125,179.83864062499998,207.0748228125,179.886040625Q207.0358628125,179.933540625,206.9924428125,179.976940625Q206.9490128125,180.02034062500002,206.9015428125,180.059340625Q206.8540728125,180.09824062500002,206.8030128125,180.13244062500002Q206.7519628125,180.166540625,206.6978028125,180.195440625Q206.6436428125,180.224440625,206.5869128125,180.247940625Q206.5301728125,180.271440625,206.4714128125,180.289240625Q206.4126428125,180.307040625,206.3524128125,180.319040625Q206.2921928125,180.331040625,206.2310728125,180.337040625Q206.1699628125,180.34304062500001,206.1085528125,180.34304062500001Q205.9697428125,180.34304062500001,205.8343128125,180.312640625Q205.6988928125,180.282140625,205.5734428125,180.222740625Q205.4479928125,180.163340625,205.3386328125,180.077840625Q205.2292828125,179.992340625,205.1413528125,179.884940625L205.1396028125,179.886340625Q202.8637028125,177.106440625,202.76943281249999,173.168040625Q202.7319928125,171.603940625,203.0201728125,169.511340625Q203.1914828125,168.267340625,203.6844828125,165.595440625Q204.4894828125,161.232540625,204.7378028125,158.755940625Q205.1963328125,154.217610625,203.8511728125,151.501010625Q203.3287728125,150.445990625,202.4376728125,149.455550625Q201.8788828125,148.834470625,200.6307128125,147.707090625Q200.3719088125,147.473330625,200.2367668125,147.350210625Q199.5916208125,146.789860625,198.8340198125,145.967770625L198.8356838125,145.966237625Z" fill-rule="evenodd" fill="#006BE0" fill-opacity="1"/></g><g><path d="M181.0014203125,104.6043521875L177.1676203125,121.9005171875L177.1011203125,122.0676171875C171.6122903125,119.9703171875,167.4624503125,117.4971171875,164.8760603125,115.0823171875C162.7221323125,113.0853171875,161.6493163125,111.1301071875,161.7906928125,109.4757171875C162.1399783125,105.2226851875,166.4811103125,103.5766281875,181.0014203125,104.6043521875Z" fill="#0060B7" fill-opacity="1"/></g><g transform="matrix(0.9710580706596375,0.23919831216335297,-0.2384890466928482,0.9710580706596375,32.87176746640762,-98.5311630601791)"><path d="M423.5819709375,86.6859551875C426.6365609375,88.4699921875,428.8509009375,91.4102421875,429.7288209375,94.8479821875C430.1715709375,96.4795021875,430.3485409375,98.1722421875,430.2528509375,99.8604421875C430.1514109375,101.5337421875,429.8498009375,103.1886421875,429.3545109375,104.7894421875C429.7094309375,103.17144218749999,429.8713809375,101.5168421875,429.8369609375,99.8604421875C429.7957809375,98.2239421875,429.4924509375,96.6048421875,428.9386209375,95.0651921875C428.3977509375,93.5523221875,427.5827209375,92.1531121875,426.5347709375,90.9382321875C425.5145509375,89.7556721875,424.2557109375,88.8045621875,422.8416779375,88.1479321875C422.4528485375,87.9421921875,422.2904929375,87.4681141875,422.4710233375,87.0656511875C422.6515529375,86.6631882875,423.1126759375,86.4712621875,423.5237409375,86.6274698875L423.5819709375,86.6859551875Z" fill="#FF947B" fill-opacity="1"/></g><g transform="matrix(0.9710580706596375,0.23919831216335297,-0.238489031791687,0.9710580706596375,32.58747826468607,-98.84955608153905)"><path d="M441.393438671875,86.0497138125Q441.460838671875,86.0329998125,441.524638671875,86.0053778125Q441.588338671875,85.9777558125,441.646638671875,85.9399868125Q441.70493867187497,85.9022168125,441.756138671875,85.8553378125Q441.807338671875,85.8084588125,441.850138671875,85.7537588125Q441.892938671875,85.6990578125,441.926138671875,85.6380398125Q441.959338671875,85.5770208125,441.981938671875,85.5113618125Q442.004538671875,85.4457018125,442.016038671875,85.3772048125Q442.027538671875,85.3087086125,442.027538671875,85.2392578125Q442.027538671875,85.1570175125,442.011438671875,85.0763578125Q441.995438671875,84.9956978125,441.963938671875,84.9197168125Q441.932438671875,84.8437368125,441.886838671875,84.7753568125Q441.841138671875,84.7069768125,441.782938671875,84.6488238125Q441.724838671875,84.5906708125,441.656438671875,84.5449808125Q441.588038671875,84.49929081249999,441.512038671875,84.4678188125Q441.436038671875,84.4363468125,441.355438671875,84.4203018125Q441.274738671875,84.4042578125,441.192538671875,84.4042578125Q441.074038671875,84.4042578125,440.96013867187503,84.4372368125Q435.455438671875,85.9149738125,423.519101371875,86.8367078125Q423.440024671875,86.8412678125,423.363214671875,86.8606078125Q423.286404671875,86.8799578125,423.214602671875,86.9133978125Q423.142799671875,86.94683781250001,423.078565671875,86.9931878125Q423.014331671875,87.0395278125,422.959958671875,87.0971278125Q422.905584671875,87.1547278125,422.863010671875,87.2215178125Q422.820436671875,87.2883078125,422.791180671875,87.3619178125Q422.761925671875,87.4355278125,422.747031671875,87.5133178125Q422.732138671875,87.5911178125,422.732138671875,87.6703278125Q422.732138671875,87.7525678125,422.748182671875,87.8332278125Q422.764227671875,87.9138878125,422.795699671875,87.9898678125Q422.827171671875,88.0658478125,422.872861671875,88.1342278125Q422.918551671875,88.2026078125,422.976704671875,88.2607578125Q423.034857671875,88.3189078125,423.103237671875,88.3645978125Q423.171617671875,88.4102978125,423.247597671875,88.4417678125Q423.323578671875,88.4732378125,423.404238671875,88.4892778125Q423.484898371875,88.5053278125,423.567138671875,88.5053278125Q423.607465471875,88.5053278125,423.647604471875,88.5014378125Q435.738738671875,87.5677378125,441.393438671875,86.0497138125Z" fill-rule="evenodd" fill="#FF947B" fill-opacity="1"/></g><g transform="matrix(0.9710580706596375,0.23919831216335297,-0.2384890466928482,0.9710580706596375,30.44105047589983,-100.21722601359943)"><path d="M428.12890625,75.886038875C430.96524625,75.819216875,433.80163625,75.693883715,436.64630625,75.685546875L440.91330625,75.685546875C442.34820625,75.704234675,443.78100625,75.801854875,445.20530625,75.977947875C446.70200625,76.099176875,448.15070625,76.565121875,449.43900625,77.339686875C450.12960625,77.815336875,450.63740625,78.514026875,450.87800625,79.319616875C450.99010625,79.703806875,451.06250625,80.098516875,451.09430625,80.497556875C451.13480625,80.907266875,451.11800625,81.320616875,451.04440625,81.725626875C450.86050625,82.556856875,450.42810625,83.311816875,449.80500625,83.889356875C449.24510625,84.423446875,448.61550625,84.878736875,447.93350625,85.242726875C446.62240625,85.935046875,445.24590625,86.494746875,443.82450625,86.913546875C443.38350625,87.047346875,442.91800625,86.796746875,442.78480625,86.353846875C442.65160625,85.91094687500001,442.90110625,85.443346875,443.34210625000003,85.309546875L443.39200625,85.309546875C444.72170625,84.999606875,446.01740625,84.557446875,447.25980625,83.989596875C448.43260625,83.404796875,449.56380624999997,82.602806875,449.82170625,81.483346875C449.94180625,80.880236875,449.92470625,80.257706875,449.77180625,79.662146875C449.63680625,79.077896875,449.30110625,78.560226875,448.82350625,78.200166875C447.69080625,77.467466875,446.40890625,76.999276875,445.07220625,76.830066875C443.69530625,76.591763875,442.30730625,76.424465875,440.91330625,76.328809875L436.67128625,76.153378875C433.80996625,75.969585875,430.96529625,75.961248875,428.12890625,75.886038875Z" fill="#FF947B" fill-opacity="1"/></g><g transform="matrix(0.9710580706596375,0.23919831216335297,-0.2384890466928482,0.9710580706596375,33.53823501020088,-101.36553624297812)"><path d="M441.35846140625,88.58513425Q441.43825140625,88.52702425,441.50229140625,88.45191025Q441.56634140625,88.37679725,441.61110140625,88.28882025Q441.65587140625,88.20084425,441.67888140625,88.10485525Q441.70190140625,88.00886615,441.70190140625,87.91015625Q441.70190140625,87.82791595,441.68585140625,87.74725625Q441.66981140625,87.66659625,441.63834140625,87.59061525Q441.60687140625,87.51463525,441.56118140625,87.44625525Q441.51549140625,87.37787525,441.45733140625,87.31972225Q441.39918140625,87.26156925,441.33080140625,87.21587925Q441.26242140625,87.17018924999999,441.18644140625,87.13871725Q441.11046140625,87.10724525,441.02980140625,87.09120025Q440.94914140625,87.07515625,440.86690140625,87.07515625Q440.72606140625,87.07515625,440.59301140625,87.12135325Q440.45996140625,87.16755025,440.34943140625,87.25483225Q437.95405140625,89.07274625,436.10418140625,91.24037625Q432.20489140625,95.80942625,434.26918940625,98.65135624999999Q435.42531140625,100.24315625,437.54205140625,100.19525625Q439.24600140625,100.15665625,441.50413140625,99.00465625Q443.95437140625,97.69789625,446.09779140625,95.95275625Q446.17259140625,95.89417625,446.23239140625,95.82027625Q446.29209140625,95.74637625,446.33369140625,95.66093625Q446.37539140625,95.57549625,446.39669140625,95.48288625Q446.41809140625,95.39028625,446.41809140625,95.29524625Q446.41809140625,95.21300625,446.40199140625,95.13234625Q446.38599140625,95.05168625,446.35449140625,94.97570625Q446.32299140625,94.89972625,446.27739140625,94.83134625Q446.23169140625,94.76296625,446.17349140625,94.70480625Q446.11539140625,94.64665625,446.04699140625,94.60096625Q445.97859140625,94.55527625,445.90259140625,94.52380625Q445.82659140625,94.49233625,445.74599140625,94.47628625Q445.66529140625,94.46024625,445.58309140625,94.46024625Q445.43479140625,94.46024625,445.29549140625,94.51131625Q445.15629140625,94.56238625,445.04319140625,94.65828625Q443.02558140625,96.30095625,440.74537140625,97.51730625Q436.92476140625,99.46645625,435.62010140625,97.67008625Q434.32897470625,95.89259625,437.37423140625,92.32425625Q439.10692140625,90.29394625,441.35846140625,88.58513425Z" fill-rule="evenodd" fill="#FF947B" fill-opacity="1"/></g><g transform="matrix(0.9710580706596375,0.23919831216335297,-0.2384890466928482,0.9710580706596375,34.43327576268348,-103.67104698435651)"><path d="M452.440744609375,90.4560546875C451.570884609375,91.9514346875,450.547814609375,93.3514146875,449.388134609375,94.63314468749999C448.253624609375,95.9538046875,447.048554609375,97.2115746875,445.778194609375,98.4008846875C445.441394609375,98.7191346875,444.910775609375,98.7003946875,444.597081609375,98.3591246875C444.274605509375,98.0332746875,444.274605509375,97.5070346875,444.597081609375,97.18118468750001L444.705217609375,97.0892946875C446.109654609375,96.1437646875,447.464494609375,95.1260046875,448.764294609375,94.0400246875C450.110754609375,92.9772946875,451.342944609375,91.7761346875,452.440744609375,90.4560546875Z" fill="#FF947B" fill-opacity="1"/></g><g transform="matrix(0.9710580706596375,0.23919832706451416,-0.2384890466928482,0.9710580706596375,36.36986856473959,-101.82108786408207)"><path d="M439.210236015625,99.7946010625Q439.318286015625,99.6034040625,439.318286015625,99.3837890625Q439.318286015625,99.3015487625,439.302246015625,99.2208890625Q439.286196015625,99.1402290625,439.254726015625,99.0642480625Q439.223256015625,98.9882680625,439.177566015625,98.9198880625Q439.131876015625,98.8515080625,439.073726015625,98.7933550625Q439.015566015625,98.7352020625,438.947186015625,98.6895120625Q438.878806015625,98.64382206249999,438.802826015625,98.6123500625Q438.72684601562503,98.5808780625,438.646190015625,98.5648330625Q438.565530015625,98.5487890625,438.483289015625,98.5487890625Q438.368251015625,98.5487890625,438.257499015625,98.5798960625Q438.146747015625,98.6110030625,438.048532015625,98.6709000625Q437.950317015625,98.7307960625,437.871958015625,98.8150190625Q437.793598415625,98.8992430625,437.740932815625,99.0015170625Q435.950776015625,102.3244090625,437.787728115625,105.0918990625Q439.058486015625,106.9904690625,441.652446015625,106.3514190625Q441.664096015625,106.3485490625,441.675656015625,106.3453390625Q445.959006015625,105.1585190625,449.282516015625,102.1982190625Q449.421316015625,102.0792390625,449.497716015625,101.9131390625Q449.574116015625,101.7470490625,449.574116015625,101.5642190625Q449.574116015625,101.4819790625,449.558116015625,101.4013190625Q449.542016015625,101.3206590625,449.510516015625,101.2446790625Q449.479116015625,101.1686990625,449.43341601562497,101.1003190625Q449.387716015625,101.0319390625,449.329516015625,100.9737790625Q449.271416015625,100.9156290625,449.203016015625,100.8699390625Q449.134616015625,100.8242490625,449.058716015625,100.7927790625Q448.982716015625,100.7613090625,448.902016015625,100.7452590625Q448.821416015625,100.7292190625,448.739116015625,100.7292190625Q448.581216015625,100.7292190625,448.434216015625,100.7868690625Q448.287216015625,100.8445090625,448.171516015625,100.9518490625Q445.142936015625,103.6491990625,441.241766015625,104.7329690625Q439.792816015625,105.0857990625,439.178846015625,104.1685190625Q437.896012015625,102.2358390625,439.210236015625,99.7946010625Z" fill-rule="evenodd" fill="#FF947B" fill-opacity="1"/></g><g transform="matrix(0.9710580706596375,0.23919831216335297,-0.2384890615940094,0.9710580706596375,36.91459506320825,-104.22154591170329)"><path d="M452.023763671875,100.4345703125C451.325453671875,101.9550603125,450.430523671875,103.3764003125,449.362063671875,104.6617803125C449.064623671875,105.0260303125,448.526328671875,105.0714103125,448.172630671875,104.7620303125C447.804310871875,104.4627703125,447.758924671875,103.9153903125,448.072821671875,103.5590203125C448.137803671875,103.4864703125,448.213549671875,103.4244603125,448.297417671875,103.3752303125C449.665603671875,102.5678803125,450.919063671875,101.5787303125,452.023763671875,100.4345703125Z" fill="#FF947B" fill-opacity="1"/></g><g transform="matrix(0.9710580706596375,0.23919829726219177,-0.238489031791687,0.9710580706596375,38.03906905744225,-102.05219921912067)"><path d="M440.60558125,106.588655625Q440.72044125,106.392943625,440.72044125,106.166015625Q440.72044125,106.083775325,440.70439125,106.003115625Q440.68835125,105.922455625,440.65687125,105.846474625Q440.62540125,105.770494625,440.57971125,105.702114625Q440.53402125,105.633734625,440.47587125,105.575581625Q440.41771825,105.517428625,440.34933825,105.471738625Q440.28095825,105.42604862499999,440.20497725,105.394576625Q440.12899725,105.363104625,440.04833725,105.347059625Q439.96767725,105.331015625,439.88543725,105.331015625Q439.77217125,105.331015625,439.66299825,105.361188625Q439.55382555,105.391362625,439.45663565,105.449527625Q439.35944625,105.507693625,439.28126325,105.589648625Q439.20308025,105.671603625,439.14955525,105.771424625Q438.54266525,106.857217625,438.67592225,108.096615625Q438.80894025,109.333795625,439.62990525,110.263545625Q440.62917125,111.501165625,442.61424125,111.706105625Q444.73423125,111.924985625,447.46514125,110.840845625Q447.52447125,110.818595625,447.57975125,110.78763562500001Q447.63504125,110.756675625,447.68503125,110.717735625Q447.73501125,110.678785625,447.77855125,110.632745625Q447.82208125,110.586705625,447.85817125,110.534615625Q447.89426125,110.482535625,447.92207125,110.425595625Q447.94989125,110.368665625,447.96879125,110.308185625Q447.98770125,110.247705625,447.99726125,110.185065625Q448.00682125,110.122425625,448.00682125,110.059065625Q448.00682125,109.976825625,447.99077125,109.896165625Q447.97473125,109.815505625,447.94326125,109.739525625Q447.91179125,109.663545625,447.86610125,109.59516562499999Q447.82041125,109.526785625,447.76225125,109.468625625Q447.70410125,109.410475625,447.63572125,109.364785625Q447.56734125,109.319095625,447.49136125,109.287625625Q447.41538125,109.256155625,447.33472125,109.240105625Q447.25406125,109.224065625,447.17182125,109.224065625Q447.00349125,109.224065625,446.84831125,109.289285625Q444.49837125,110.222075625,442.78571125,110.045255625Q441.48345125,109.910805625,440.92108125,109.204765625Q440.90648125,109.186445625,440.89088125,109.168955625Q440.41295925,108.633555625,440.33603825,107.918125625Q440.25983825,107.209405625,440.60558125,106.588655625Z" fill-rule="evenodd" fill="#FF947B" fill-opacity="1"/></g><g transform="matrix(0.9710580706596375,0.23919831216335297,-0.2384890615940094,0.9710580706596375,38.827642918840866,-103.4699534684296)"><path d="M451.392496953125,108.7158203125C450.841666953125,109.4935173125,450.180316953125,110.1859103125,449.429516953125,110.7709403125C449.055206953125,111.0884003125,448.647636953125,111.3139603125,448.256726953125,111.6063603125L447.050636953125,112.4417703125C446.660388953125,112.7151803125,446.121742953125,112.6046903125,445.869529953125,112.1995003125C445.603252953125,111.8090903125,445.712708053125,111.2747503125,446.110726953125,111.0215503125C446.180582953125,110.9778803125,446.256175953125,110.9441503125,446.335322953125,110.9213103125L446.435132953125,110.9213103125L447.716056953125,110.5370203125C448.140266953125,110.4033503125,448.597736953125,110.3031103125,449.013626953125,110.1276803125C449.871856953125,109.7781203125,450.673576953125,109.3022803125,451.392496953125,108.7158203125Z" fill="#FF947B" fill-opacity="1"/></g><g><path d="M381.95849609375,112.2734375C385.90995609375,114.0730775,389.76811609375,116.0726275,393.51819609375,118.2644275C395.42269609375,119.3423075,397.25219609375,120.5455175,399.08189609375,121.7403575C400.91149609375,122.9352375,402.66619609375,124.2470375,404.39599609375,125.5839375C407.85559609375,128.2744375,411.16549609375,131.1321375,414.37559609375,134.1150375C417.58569609375,137.0979375,420.63779609375,140.1728375,423.63169609375,143.3563375C420.18039609375,140.6908375,416.85379609375,137.8750375,413.51899609375,135.0926375C410.18419609375,132.3101375,406.86599609375,129.5361375,403.42299609375,126.9124375C399.97999609375,124.2888375,396.47879609375,121.7653975,392.86949609375,119.3924075L381.95849609375,112.2734375Z" fill="#006BE0" fill-opacity="1"/></g><g><path d="M340.284127734375,129.126953125C334.564427734375,135.04220312500001,329.270227734375,141.358253125,324.441527734375,148.027353125C319.601827734375,154.666853125,315.158627734375,161.589153125,311.135347734375,168.757653125C310.906417734375,169.160653125,310.395176734375,169.30025312499998,309.994739734375,169.068953125C309.594277134375,168.837753125,309.456948734375,168.323653125,309.688307734375,167.922053125C313.967417734375,160.844653125,318.660507734375,154.028453125,323.742927734375,147.509353125C328.817427734375,140.996853125,334.345027734375,134.854043125,340.284127734375,129.126953125Z" fill="#006BE0" fill-opacity="1"/></g><g><path d="M116.00129765625,179.09375Q96.87370765625,212.80865,136.03539765625,230.62285Q125.22409765625,230.28025,109.60603765625,233.40525C109.28032765625,222.56675,107.51266765625,211.82075,104.35009765625,201.45335C106.68699765625,196.26454999999999,112.50844765625,185.41896,116.00129765625,179.09375Z" fill="#006BE0" fill-opacity="1"/></g><g><path d="M183.601376953125,293.2760640625Q183.601376953125,293.28426406250003,183.601376953125,293.2924640625Q183.601376953125,293.3746640625,183.585376953125,293.4553640625Q183.56937695312502,293.5359640625,183.538376953125,293.6119640625Q183.506376953125,293.6879640625,183.460376953125,293.7563640625Q183.41537695312502,293.8246640625,183.357376953125,293.8828640625Q183.298376953125,293.94096406250003,183.23037695312502,293.9866640625Q183.162376953125,294.0323640625,183.086376953125,294.0638640625Q183.010376953125,294.0953640625,182.929376953125,294.1113640625Q182.848376953125,294.1274640625,182.76637695312502,294.1274640625Q182.684376953125,294.1274640625,182.603376953125,294.1113640625Q182.523376953125,294.0953640625,182.447376953125,294.0638640625Q182.37137695312498,294.0323640625,182.30237695312502,293.9866640625Q182.23437695312498,293.94096406250003,182.176376953125,293.8828640625Q182.118376953125,293.8246640625,182.072376953125,293.7563640625Q182.026376953125,293.6879640625,181.995376953125,293.6119640625Q181.96337695312502,293.5359640625,181.947376953125,293.4553640625Q181.93137695312498,293.3746640625,181.93137695312498,293.2924640625Q181.93137695312498,293.28426406250003,181.93137695312498,293.2760640625Q181.93137695312498,274.2552640625,182.457376953125,255.7651640625Q182.96337695312502,237.9889840625,155.10787695312501,232.7130740625Q137.180876953125,229.5589840625,109.746576953125,234.2281940625Q102.10547695312499,235.5267340625,94.167176953125,237.3521440625Q87.170886953125,238.95515406250001,78.896416953125,241.2084640625Q78.781321953125,241.2421640625,78.661376953125,241.2421640625Q78.579136653125,241.2421640625,78.498476953125,241.2261640625Q78.417816953125,241.2100640625,78.341835953125,241.1786640625Q78.265855953125,241.1471640625,78.197475953125,241.10146406249999Q78.129095953125,241.0557640625,78.070942953125,240.9976640625Q78.012789953125,240.9394640625,77.967099953125,240.8710640625Q77.92140995312499,240.8026640625,77.889937953125,240.7267640625Q77.858465953125,240.6507640625,77.842420953125,240.5700940625Q77.826376953125,240.4894340625,77.826376953125,240.4071940625Q77.826376953125,240.3379140625,77.837792953125,240.2695940625Q77.849208953125,240.2012640625,77.871729953125,240.1357440625Q77.894249953125,240.0702340625,77.927257953125,240.0093340625Q77.960266953125,239.9484240625,78.002860953125,239.8937940625Q78.045454953125,239.8391540625,78.096469953125,239.7922940625Q78.147484953125,239.7454240625,78.205525953125,239.7076040625Q78.263566953125,239.6697840625,78.327045953125,239.6420440625Q78.390525953125,239.6143140625,78.457708953125,239.5974140625Q86.764926953125,237.3352240625,93.792976953125,235.7249340625Q101.778176953125,233.8887240625,109.466376953125,232.5821740625Q137.18567695312498,227.8644940625,155.418576953125,231.0725620625Q184.672376953125,236.6134040625,184.126376953125,255.8125640625Q183.601376953125,274.27906406249997,183.601376953125,293.2760640625Z" fill-rule="evenodd" fill="#006BE0" fill-opacity="1"/></g><g><path d="M116.703921875,179.543321Q116.835321875,179.337726,116.835321875,179.09375Q116.835321875,179.0115097,116.819221875,178.93085Q116.803221875,178.85019,116.771721875,178.774209Q116.740221875,178.698229,116.694621875,178.629849Q116.648921875,178.561469,116.590721875,178.503316Q116.532621875,178.445163,116.46422187499999,178.399473Q116.395821875,178.353783,116.319821875,178.322311Q116.243821875,178.290839,116.163221875,178.27479399999999Q116.082521875,178.25875,116.000321875,178.25875Q115.891021875,178.25875,115.785421875,178.286878Q115.679821875,178.315005,115.585021875,178.369365Q115.490121875,178.423725,115.412521875,178.500656Q115.33492187499999,178.577586,115.279721875,178.671904Q108.666241875,189.48205,103.598640875,201.10485Q103.522421875,201.27075,103.522421875,201.45335Q103.522421875,201.53565,103.538465875,201.61625Q103.554510875,201.69695000000002,103.585982875,201.77295Q103.61745487499999,201.84885,103.663144875,201.91725Q103.708834875,201.98565,103.766987875,202.04385Q103.825140875,202.10195,103.893520875,202.14765Q103.961900875,202.19335,104.037880875,202.22485Q104.113861875,202.25625,104.194521875,202.27235Q104.275181575,202.28835,104.357421875,202.28835Q104.481395875,202.28835,104.600022875,202.25235Q104.718649875,202.21635,104.821693875,202.14745Q104.924737875,202.07845,105.003309875,201.98255Q105.081881875,201.88665,105.129201875,201.77205Q110.150691875,190.25505,116.703921875,179.543321Z" fill-rule="evenodd" fill="#006BE0" fill-opacity="1"/></g><g transform="matrix(0.9383794069290161,0.3456067144870758,-0.34276920557022095,0.939419686794281,105.35331063391641,-64.39088072987215)"><line x1="232.85107421875" y1="264.6641817688942" x2="250.6178493499756" y2="264.6641817688942" fill-opacity="0" stroke-opacity="1" stroke="#FF947B" fill="none" stroke-width="1.6696833372116089" stroke-linecap="ROUND" stroke-linejoin="round"/></g><g transform="matrix(0.9597535133361816,0.2809489965438843,-0.2784096300601959,0.9604321122169495,86.14557101149694,-54.93574372821604)"><line x1="234.343017578125" y1="274.7091036438942" x2="247.19105529785156" y2="274.7091036438942" fill-opacity="0" stroke-opacity="1" stroke="#FF947B" fill="none" stroke-width="1.6696833372116089" stroke-linecap="ROUND" stroke-linejoin="round"/></g></g></svg>