<?xml version="1.0" standalone="no"?><!DOCTYPE svg PUBLIC "-//W3C//DTD SVG 1.1//EN" "http://www.w3.org/Graphics/SVG/1.1/DTD/svg11.dtd"><svg height="1024" node-id="1" sillyvg="true" template-height="1024" template-width="1024" version="1.1" viewBox="0 0 1024 1024" width="1024" xmlns="http://www.w3.org/2000/svg" xmlns:xlink="http://www.w3.org/1999/xlink"><defs node-id="44"><linearGradient gradientUnits="objectBoundingBox" id="linearGradient-1" node-id="5" spreadMethod="pad" x1="0.5" x2="0.5" y1="1" y2="-0.0000000000000002471453"><stop offset="0" stop-color="#ffffff" stop-opacity="0.1"></stop><stop offset="0.13" stop-color="#fbfdff" stop-opacity="0.19"></stop><stop offset="0.41" stop-color="#f1f7ff" stop-opacity="0.43"></stop><stop offset="0.81" stop-color="#e1eeff" stop-opacity="0.82"></stop><stop offset="1" stop-color="#d9e9ff"></stop></linearGradient><linearGradient gradientUnits="objectBoundingBox" id="linearGradient-3" node-id="13" spreadMethod="pad" x1="0" x2="1" y1="0.49953833" y2="0.49953833"><stop offset="0" stop-color="#eeeeee"></stop><stop offset="0.03" stop-color="#dddddd"></stop><stop offset="1" stop-color="#d8d8d8"></stop></linearGradient><linearGradient gradientUnits="objectBoundingBox" id="linearGradient-4" node-id="17" spreadMethod="pad" x1="-0.0000000000000013743573" x2="1" y1="0.49949545" y2="0.49949545"><stop offset="0" stop-color="#eeeeee"></stop><stop offset="0.03" stop-color="#b4d7fe"></stop><stop offset="1" stop-color="#b0d3fa"></stop></linearGradient><linearGradient gradientUnits="objectBoundingBox" id="linearGradient-5" node-id="21" spreadMethod="pad" x1="0.5" x2="0.5" y1="0" y2="1"><stop offset="0" stop-color="#67afff"></stop><stop offset="1" stop-color="#2563eb"></stop></linearGradient><linearGradient gradientUnits="objectBoundingBox" id="linearGradient-6" node-id="24" spreadMethod="pad" x1="0.5" x2="0.5" y1="0" y2="1"><stop offset="0" stop-color="#67afff"></stop><stop offset="1" stop-color="#2563eb"></stop></linearGradient><linearGradient gradientUnits="objectBoundingBox" id="linearGradient-7" node-id="27" spreadMethod="pad" x1="0.5" x2="0.5" y1="0" y2="1"><stop offset="0" stop-color="#a0cdff"></stop><stop offset="1" stop-color="#568bff"></stop></linearGradient><filter height="2.896" id="filter-2" node-id="11" width="1.213" x="-0.107" y="-0.948"><feGaussianBlur color-interpolation-filters="linearRGB" in="SourceGraphic" result="result1" stdDeviation="14 14"></feGaussianBlur></filter></defs><g node-id="95"><path d="M 0.00 0.00 L 1024.00 0.00 L 1024.00 1024.00 L 0.00 1024.00 Z" fill="#ffffff" fill-rule="evenodd" group-id="1" id="矩形" node-id="32" stroke="none" target-height="1024" target-width="1024" target-x="0" target-y="0"></path><g node-id="96"><path d="M 221.54 775.38 L 221.54 337.23 L 347.08 337.23 L 347.08 224.00 L 546.46 224.00 L 546.46 391.38 L 657.23 391.38 L 657.23 775.38 L 221.54 775.38 Z M 706.46 337.23 L 802.46 337.23 L 802.46 775.38 L 706.46 775.38 L 706.46 337.23 Z" fill="url(#linearGradient-1)" fill-rule="nonzero" group-id="1,2" id="形状结合备份-11" node-id="34" stroke="none" target-height="551.38" target-width="580.92004" target-x="221.54" target-y="224"></path><g node-id="97"><path d="M 708.56 776.28 L 708.23 777.54 L 707.18 778.90 L 705.11 780.44 L 701.52 782.17 L 696.78 783.84 L 690.29 785.61 L 681.67 787.46 L 668.13 789.73 L 650.88 791.94 L 632.46 793.77 L 611.02 795.41 L 588.67 796.67 L 563.98 797.64 L 538.63 798.23 L 511.63 798.43 L 484.63 798.23 L 459.28 797.64 L 434.60 796.67 L 412.24 795.41 L 390.81 793.77 L 372.39 791.94 L 355.14 789.73 L 341.60 787.46 L 332.97 785.61 L 326.49 783.84 L 321.75 782.17 L 318.16 780.44 L 316.08 778.90 L 315.04 777.54 L 314.71 776.28 L 315.04 775.02 L 316.08 773.65 L 318.16 772.12 L 321.75 770.39 L 326.49 768.72 L 332.97 766.95 L 341.60 765.10 L 355.14 762.83 L 372.39 760.61 L 390.81 758.78 L 412.24 757.15 L 434.60 755.89 L 459.28 754.92 L 484.63 754.33 L 511.63 754.13 L 538.63 754.33 L 563.98 754.92 L 588.67 755.89 L 611.02 757.15 L 632.46 758.78 L 650.88 760.61 L 668.13 762.83 L 681.67 765.10 L 690.29 766.95 L 696.78 768.72 L 701.52 770.39 L 705.11 772.12 L 707.18 773.65 L 708.23 775.02 L 708.56 776.28 Z" fill="#c2d5ff" fill-rule="evenodd" filter="url(#filter-2)" group-id="1,2,3" id="椭圆形备份-10" node-id="35" stroke="none" target-height="44.299988" target-width="393.85" target-x="314.71" target-y="754.13"></path></g><g node-id="98"><path d="M 561.23 701.54 L 529.15 684.01 L 527.16 682.54 L 523.45 679.48 L 519.38 676.92 L 551.47 694.42 L 555.54 697.00 L 559.26 700.06 L 561.23 701.54 L 561.23 701.54 Z" fill="url(#linearGradient-3)" fill-rule="nonzero" group-id="1,2,4" id="路径" node-id="37" stroke="none" target-height="24.619995" target-width="41.849976" target-x="519.38" target-y="676.92"></path><path d="M 561.23 701.54 L 529.15 684.01 L 527.16 682.54 L 523.45 679.48 L 519.38 676.92 L 551.47 694.42 L 555.54 697.00 L 559.26 700.06 L 561.23 701.54" fill="url(#linearGradient-3)" fill-rule="nonzero" group-id="1,2,4" id="路径" node-id="38" stroke="none" target-height="24.619995" target-width="41.849976" target-x="519.38" target-y="676.92"></path><path d="M 627.74 529.21 L 595.69 512.00 L 597.43 512.87 L 600.20 513.91 L 603.15 514.65 L 606.12 515.35 L 608.97 516.25 L 610.44 516.92 L 642.46 534.15 L 641.01 533.48 L 638.15 532.57 L 635.18 531.87 L 632.24 531.13 L 629.46 530.11 L 627.74 529.21 Z" fill="url(#linearGradient-4)" fill-rule="nonzero" group-id="1,2,4" id="路径" node-id="39" stroke="none" target-height="22.150024" target-width="46.77002" target-x="595.69" target-y="512"></path><path d="M 572.46 598.54 L 574.13 594.47 L 574.27 594.08 L 574.27 593.86 L 574.79 592.30 L 575.24 590.96 L 575.72 589.38 L 576.13 588.00 L 576.54 586.37 L 576.85 585.01 L 577.22 583.34 L 577.49 581.98 L 577.76 580.24 L 577.96 578.91 L 578.17 577.06 L 578.25 576.36 L 578.33 575.81 L 578.46 573.78 L 578.46 572.67 L 578.46 569.53 L 578.24 564.41 L 577.64 559.57 L 576.67 554.98 L 575.34 550.63 L 573.62 546.36 L 571.60 542.39 L 569.29 538.71 L 566.68 535.29 L 563.75 532.11 L 560.59 529.26 L 557.19 526.73 L 553.54 524.51 L 521.45 507.08 L 525.12 509.30 L 528.52 511.83 L 531.68 514.67 L 534.60 517.85 L 537.21 521.27 L 539.53 524.95 L 541.54 528.91 L 543.26 533.18 L 544.59 537.54 L 545.56 542.13 L 546.16 546.97 L 546.38 552.09 L 546.38 555.26 L 546.38 556.34 L 546.24 558.38 L 546.11 559.62 L 545.88 561.50 L 545.77 562.23 L 545.68 562.81 L 545.40 564.55 L 545.13 565.91 L 544.79 567.60 L 544.45 568.96 L 544.04 570.59 L 543.64 571.95 L 543.18 573.53 L 542.73 574.89 L 542.19 576.42 L 541.96 577.03 L 540.28 581.10 L 540.10 581.53 L 538.11 585.58 L 537.68 586.39 L 535.77 589.67 L 535.77 589.81 L 533.78 592.84 L 533.17 593.72 L 531.56 595.98 L 531.02 596.68 L 528.75 599.37 L 528.27 599.89 L 526.33 601.95 L 525.55 602.72 L 523.61 604.57 L 522.99 605.14 L 520.21 607.40 L 519.55 607.92 L 517.15 609.68 L 516.42 610.18 L 512.73 612.44 L 512.05 612.83 L 508.13 614.86 L 507.47 615.15 L 504.69 616.35 L 503.83 616.69 L 500.36 617.87 L 499.88 618.00 L 496.76 618.82 L 495.80 619.04 L 492.16 619.70 L 489.97 619.95 L 487.63 620.13 L 486.22 620.13 L 483.09 620.13 L 481.53 620.13 L 478.56 619.81 L 477.16 619.63 L 473.44 618.86 L 472.99 618.86 L 468.95 617.60 L 467.78 617.14 L 465.04 615.97 L 462.77 614.84 L 494.88 632.25 L 496.53 633.11 L 497.19 633.40 L 499.93 634.58 L 501.08 635.03 L 505.14 636.29 L 505.14 636.29 L 505.55 636.29 L 509.26 637.06 L 510.67 637.24 L 513.64 637.54 L 515.20 637.54 L 518.33 637.54 L 519.73 637.54 L 522.02 637.41 L 524.26 637.11 L 526.19 636.79 L 527.91 636.45 L 528.89 636.23 L 532.01 635.41 L 532.49 635.28 L 535.93 634.10 L 536.82 633.74 L 539.60 632.56 L 540.10 632.36 L 540.26 632.36 L 544.18 630.33 L 544.86 629.92 L 548.55 627.66 L 548.80 627.50 L 549.28 627.16 L 551.54 625.40 L 552.22 624.88 L 555.01 622.62 L 555.17 622.48 L 555.62 622.05 L 557.57 620.20 L 558.34 619.43 L 560.27 617.35 L 560.65 616.96 L 560.65 616.83 L 562.92 614.14 L 563.44 613.44 L 565.07 611.17 L 565.41 610.72 L 565.68 610.32 L 567.68 607.29 L 567.68 607.15 L 569.58 603.85 L 569.81 603.46 L 570.01 603.06 L 572.00 599.01 L 572.46 598.54 Z" fill="url(#linearGradient-5)" fill-rule="evenodd" group-id="1,2,4" id="路径" node-id="40" stroke="none" target-height="130.45999" target-width="115.69003" target-x="462.77" target-y="507.08"></path><path d="M 535.31 423.44 L 535.82 423.44 L 536.53 423.57 L 537.13 423.73 L 541.81 425.34 L 543.24 425.88 L 546.44 427.14 L 547.99 427.82 L 551.14 429.25 L 552.48 429.88 L 552.99 430.13 L 556.85 432.13 L 588.31 449.45 L 583.87 447.21 L 582.53 446.58 L 579.38 445.14 L 577.82 444.47 L 574.60 443.18 L 573.18 442.65 L 568.52 441.05 L 567.25 440.60 L 566.74 440.60 L 565.34 440.60 L 564.07 440.98 L 563.10 441.59 L 562.87 441.75 L 562.05 442.53 L 561.81 442.78 L 560.70 444.17 L 558.76 446.73 L 558.12 447.52 L 556.76 449.14 L 556.63 449.30 L 556.19 449.79 L 554.43 451.68 L 553.63 452.49 L 551.99 454.08 L 551.50 454.55 L 551.19 454.80 L 548.75 456.89 L 548.09 457.40 L 546.10 458.87 L 545.84 459.07 L 545.44 459.32 L 542.35 461.29 L 542.13 461.45 L 538.82 463.20 L 538.44 463.41 L 538.04 463.56 L 535.60 464.62 L 535.17 464.80 L 532.31 465.79 L 531.53 466.04 L 529.31 466.62 L 528.46 466.80 L 525.55 467.34 L 523.79 467.59 L 522.02 467.68 L 518.45 467.68 L 517.22 467.68 L 514.78 467.43 L 513.69 467.27 L 510.38 466.60 L 510.25 466.60 L 506.87 465.54 L 505.85 465.11 L 503.63 464.13 L 503.05 463.88 L 501.63 463.11 L 482.99 452.87 L 476.69 457.84 L 448.77 480.08 L 448.15 480.62 L 448.15 480.64 L 416.58 463.41 L 448.08 480.64 L 447.21 481.52 L 446.60 482.28 L 446.13 483.05 L 445.73 483.97 L 445.71 483.96 L 445.62 484.31 L 445.31 486.43 L 445.34 488.53 L 445.73 490.63 L 446.84 497.19 L 447.66 504.00 L 447.92 508.57 L 447.80 513.11 L 447.30 517.64 L 445.89 524.09 L 443.92 530.40 L 442.23 534.57 L 440.25 538.61 L 438.52 541.62 L 436.63 544.52 L 434.73 547.06 L 432.71 549.50 L 430.54 551.88 L 428.24 554.13 L 425.38 556.55 L 422.38 558.80 L 417.81 561.67 L 413.02 564.16 L 412.80 564.04 L 411.48 564.63 L 411.35 564.63 L 409.89 565.49 L 408.37 566.70 L 407.28 567.80 L 406.67 568.59 L 406.31 569.15 L 406.09 569.62 L 405.98 570.25 L 405.85 590.84 L 406.03 611.41 L 406.13 619.64 L 406.11 620.29 L 423.85 629.17 L 427.47 631.60 L 430.76 634.40 L 433.73 637.58 L 436.35 641.05 L 438.64 644.77 L 440.59 648.74 L 442.46 653.22 L 443.89 657.86 L 444.87 662.68 L 445.42 667.69 L 445.52 672.68 L 445.22 677.93 L 444.49 683.45 L 443.29 689.28 L 444.95 690.10 L 445.69 691.29 L 446.72 692.62 L 448.80 694.91 L 455.68 699.69 L 459.09 701.87 L 462.77 704.00 L 445.82 695.29 L 446.29 695.77 L 449.73 698.25 L 453.07 700.23 L 460.31 704.00 L 428.84 688.30 L 423.75 685.38 L 418.87 682.17 L 414.20 678.64 L 412.48 676.66 L 411.08 674.46 L 415.62 676.88 L 415.19 676.50 L 411.04 674.20 L 412.28 668.17 L 413.06 662.46 L 413.40 657.05 L 413.34 651.91 L 412.83 646.76 L 411.84 641.76 L 410.38 636.91 L 408.43 632.16 L 406.42 628.15 L 404.04 624.44 L 401.28 621.01 L 377.32 607.92 L 376.00 606.88 L 375.05 605.55 L 374.52 604.01 L 374.43 602.33 L 374.39 598.22 L 374.30 590.00 L 374.16 571.50 L 374.28 552.94 L 374.41 552.31 L 374.61 551.84 L 374.97 551.28 L 375.60 550.49 L 376.67 549.41 L 378.22 548.18 L 379.65 547.32 L 379.78 547.32 L 381.19 546.70 L 382.07 546.27 L 386.33 543.95 L 390.42 541.30 L 393.56 539.16 L 396.56 536.84 L 398.85 534.58 L 401.03 532.21 L 403.82 528.77 L 406.33 525.13 L 408.57 521.30 L 410.55 517.27 L 412.24 513.11 L 414.14 506.87 L 415.47 500.48 L 416.01 495.96 L 416.17 491.40 L 415.95 486.81 L 415.18 479.97 L 414.10 473.39 L 413.69 471.14 L 413.69 468.91 L 414.10 466.66 L 414.50 465.73 L 414.97 464.97 L 415.57 464.23 L 416.45 463.33 L 417.07 462.79 L 451.99 435.00 L 452.64 434.53 L 452.66 434.54 L 452.95 434.34 L 453.92 433.79 L 455.46 433.31 L 456.27 433.23 L 457.07 433.31 L 457.53 433.57 L 457.95 433.74 L 488.44 450.40 L 488.49 450.40 L 457.95 433.72 L 458.15 433.72 L 488.69 450.40 L 490.63 450.40 L 492.27 450.27 L 493.83 450.11 L 494.17 450.06 L 497.08 449.54 L 497.92 449.34 L 500.14 448.76 L 500.94 448.53 L 503.81 447.52 L 504.21 447.36 L 506.67 446.29 L 507.43 445.93 L 510.74 444.17 L 510.96 444.04 L 514.05 442.06 L 514.71 441.59 L 517.36 439.61 L 517.47 439.61 L 519.93 437.52 L 520.71 436.78 L 522.36 435.21 L 523.16 434.38 L 524.91 432.49 L 525.49 431.86 L 526.26 430.94 L 526.84 430.22 L 527.49 429.43 L 529.44 426.87 L 530.44 425.59 L 530.69 425.34 L 531.17 424.83 L 531.51 424.56 L 531.73 424.38 L 531.89 424.24 L 532.66 423.79 L 532.90 423.69 L 533.91 423.44 L 535.31 423.44 Z" fill="url(#linearGradient-6)" fill-rule="evenodd" group-id="1,2,4" id="形状结合" node-id="41" stroke="none" target-height="280.56" target-width="214.15" target-x="374.16" target-y="423.44"></path><path d="M 645.61 535.07 L 646.59 543.41 L 647.18 551.81 L 647.38 560.28 L 647.09 568.74 L 646.18 577.31 L 644.65 586.02 L 643.84 588.06 L 642.68 589.88 L 641.21 591.47 L 639.46 592.77 L 634.88 595.26 L 630.60 598.09 L 626.58 601.28 L 622.81 604.84 L 619.35 608.70 L 616.23 612.79 L 613.45 617.11 L 610.98 621.69 L 608.89 626.45 L 607.20 631.30 L 605.91 636.26 L 605.01 641.34 L 604.55 646.48 L 604.54 651.59 L 605.00 656.70 L 605.93 661.82 L 606.30 663.71 L 606.32 665.54 L 605.98 667.36 L 605.31 669.08 L 604.33 670.63 L 603.02 672.02 L 597.54 677.62 L 591.81 682.90 L 585.81 687.89 L 579.57 692.57 L 573.10 696.92 L 566.41 700.94 L 564.53 701.89 L 562.52 702.47 L 561.03 702.45 L 559.62 702.07 L 558.33 701.38 L 557.22 700.38 L 554.20 697.85 L 551.01 695.68 L 547.63 693.86 L 544.09 692.38 L 540.45 691.26 L 536.68 690.52 L 532.87 690.15 L 529.02 690.17 L 525.12 690.58 L 520.40 691.57 L 515.88 692.97 L 511.53 694.77 L 507.33 696.99 L 503.36 699.58 L 499.67 702.51 L 496.24 705.80 L 493.06 709.45 L 491.82 710.98 L 490.34 712.23 L 488.64 713.17 L 486.78 713.78 L 484.78 713.80 L 482.83 713.40 L 476.23 711.37 L 469.84 708.92 L 463.62 706.02 L 457.61 702.69 L 451.85 698.96 L 446.32 694.82 L 444.64 692.81 L 443.26 690.58 L 444.50 684.60 L 445.28 678.94 L 445.62 673.57 L 445.56 668.48 L 445.05 663.38 L 444.05 658.43 L 442.58 653.62 L 440.62 648.92 L 438.00 644.06 L 435.09 639.82 L 431.89 636.16 L 428.40 633.01 L 425.33 630.84 L 422.02 629.02 L 418.45 627.53 L 414.58 626.38 L 410.38 625.59 L 408.45 625.19 L 406.92 624.56 L 405.72 623.71 L 404.83 622.58 L 404.23 621.04 L 403.98 618.94 L 403.72 594.18 L 403.83 569.40 L 404.05 568.50 L 404.77 567.36 L 405.75 566.27 L 406.94 565.22 L 408.21 564.31 L 409.32 563.70 L 415.22 560.69 L 420.51 557.31 L 425.26 553.57 L 429.50 549.44 L 433.25 544.92 L 436.52 540.05 L 439.34 534.80 L 441.72 529.13 L 443.64 523.02 L 445.09 516.40 L 445.63 511.93 L 445.73 507.40 L 445.49 502.84 L 444.98 498.30 L 443.55 489.38 L 443.21 487.06 L 443.18 485.10 L 443.40 483.44 L 443.95 481.90 L 444.99 480.37 L 446.61 478.82 L 481.51 450.96 L 483.13 449.86 L 484.97 449.22 L 486.41 449.32 L 487.75 449.76 L 488.95 450.53 L 489.93 451.59 L 493.05 454.85 L 496.43 457.69 L 500.08 460.10 L 503.98 462.11 L 508.04 463.65 L 512.27 464.74 L 516.61 465.36 L 521.00 465.48 L 525.48 465.10 L 530.21 464.15 L 534.92 462.65 L 539.61 460.56 L 544.32 457.85 L 548.67 454.74 L 552.88 451.05 L 556.97 446.75 L 560.93 441.77 L 561.81 440.52 L 562.90 439.49 L 564.18 438.71 L 565.60 438.19 L 567.25 438.21 L 568.84 438.59 L 575.54 440.92 L 582.03 443.66 L 588.34 446.83 L 594.43 450.41 L 600.26 454.38 L 605.86 458.75 L 607.14 460.16 L 607.74 461.50 L 607.90 462.94 L 607.72 464.45 L 606.87 467.62 L 605.52 473.85 L 604.83 479.96 L 604.79 485.98 L 605.36 491.97 L 606.51 497.67 L 608.22 503.12 L 609.90 507.07 L 611.85 510.77 L 614.08 514.22 L 616.60 517.43 L 619.41 520.40 L 622.47 523.03 L 625.77 525.34 L 629.36 527.33 L 632.10 528.36 L 635.02 529.10 L 637.95 529.81 L 640.78 530.73 L 642.30 531.49 L 643.82 532.52 L 645.04 533.77 L 645.61 535.07 Z M 524.90 634.80 L 529.37 633.95 L 533.70 632.75 L 537.89 631.21 L 541.96 629.32 L 547.14 626.31 L 552.00 622.80 L 556.58 618.76 L 560.77 614.31 L 564.57 609.47 L 567.99 604.20 L 570.93 598.66 L 573.40 592.83 L 575.40 586.69 L 576.85 580.40 L 577.73 573.94 L 578.04 567.28 L 577.59 561.26 L 576.67 555.71 L 575.31 550.59 L 573.52 545.87 L 571.24 541.29 L 568.59 537.14 L 565.59 533.38 L 562.22 529.99 L 558.50 526.97 L 554.48 524.36 L 550.15 522.14 L 545.46 520.31 L 540.66 518.95 L 535.60 518.02 L 530.25 517.52 L 524.58 517.49 L 523.15 517.67 L 518.79 518.50 L 514.55 519.69 L 510.42 521.25 L 506.39 523.17 L 501.28 526.22 L 496.45 529.77 L 491.89 533.84 L 487.71 538.32 L 483.92 543.15 L 480.51 548.36 L 477.54 553.84 L 475.08 559.51 L 473.10 565.40 L 471.66 571.44 L 470.82 577.51 L 470.55 583.65 L 470.90 589.82 L 471.76 595.58 L 473.10 600.97 L 474.91 606.03 L 477.25 610.93 L 479.95 615.39 L 483.03 619.43 L 486.50 623.07 L 490.35 626.33 L 494.48 629.10 L 498.92 631.38 L 503.68 633.20 L 508.59 634.45 L 513.72 635.15 L 519.12 635.27 L 524.83 634.80" fill="url(#linearGradient-7)" fill-rule="evenodd" group-id="1,2,4" id="形状" node-id="42" stroke="none" target-height="275.61" target-width="243.66" target-x="403.72" target-y="438.19"></path></g></g></g></svg>