<svg xmlns="http://www.w3.org/2000/svg" xmlns:xlink="http://www.w3.org/1999/xlink" fill="none" version="1.1" width="134" height="134" viewBox="0 0 134 134"><defs><clipPath id="master_svg0_3_213"><rect x="0" y="0" width="134" height="134" rx="0"/></clipPath></defs><g clip-path="url(#master_svg0_3_213)"><g><path d="M25.48915361099243,30.1147L16.10995361099243,57.0877L34.972953610992434,57.0877L51.74605361099243,105.3538L32.75945361099243,105.3538L16.048253610992433,57.2652L0.09326081099243164,103.1488C-0.28180538900756835,104.2274,0.5190716109924316,105.3538,1.6610436109924316,105.3538L132.33785361099243,105.3538C133.47985361099242,105.3538,134.28085361099244,104.2274,133.90585361099244,103.1488L108.50985361099244,30.1147C108.27785361099244,29.447316,107.64885361099243,29,106.94285361099243,29L77.75025361099243,29C77.04365361099244,29,76.41445361099242,29.447316,76.18245361099243,30.1147L66.99965361099243,56.5226L57.816953610992435,30.1147C57.58485361099243,29.447316,56.95575361099243,29,56.24915361099243,29L27.05695361099243,29C26.350353610992432,29,25.72125361099243,29.447316,25.48915361099243,30.1147ZM83.28585361099243,103.9537C83.32715361099243,103.6949,83.30725361099243,103.4203,83.21285361099243,103.1488L67.19615361099243,57.0877L85.98595361099242,57.0877L102.75885361099243,105.3538L83.77235361099243,105.3538L83.28585361099243,103.9537Z" fill-rule="evenodd" fill="#262626" fill-opacity="1"/></g></g></svg>