<svg xmlns="http://www.w3.org/2000/svg" xmlns:xlink="http://www.w3.org/1999/xlink" fill="none" version="1.1" width="240" height="60" viewBox="0 0 240 60"><defs><clipPath id="master_svg0_1_542"><rect x="0" y="0" width="240" height="60" rx="0"/></clipPath></defs><g clip-path="url(#master_svg0_1_542)"><g><g><path d="M32.743487252869606,20.3226585703125L29.542087252869607,29.5292995703125L36.030597252869605,29.5292995703125L41.8003972528696,46.1325095703125L35.2691972528696,46.1325095703125L29.520727252869605,29.590709570312498L24.081883952869607,45.2318095703125C23.928671252869606,45.672409570312496,24.255824252869605,46.132609570312496,24.722313252869608,46.132609570312496L69.37359725286962,46.132609570312496C69.84009725286961,46.132609570312496,70.16719725286961,45.672409570312496,70.01399725286961,45.2318095703125L61.35239725286961,20.3226585703125C61.25759725286961,20.0500355703125,61.0005972528696,19.8673095703125,60.71199725286961,19.8673095703125L50.8222972528696,19.8673095703125C50.533597252869605,19.8673095703125,50.27669725286961,20.0500345703125,50.181897252869604,20.3226585703125L47.0478972528696,29.3351995703125L43.913997252869606,20.3226585703125C43.81919725286961,20.0500355703125,43.562297252869605,19.8673095703125,43.27359725286961,19.8673095703125L33.383907252869605,19.8673095703125C33.09527725286961,19.8673095703125,32.8382772528696,20.0500345703125,32.743487252869606,20.3226585703125ZM52.609197252869606,45.5335095703125C52.620697252869604,45.4358095703125,52.610897252869606,45.3333095703125,52.575597252869606,45.2318095703125L47.115397252869606,29.5292995703125L53.578797252869606,29.5292995703125L59.348697252869606,46.1325095703125L52.81739725286961,46.1325095703125L52.609197252869606,45.5335095703125Z" fill-rule="evenodd" fill="#262626" fill-opacity="1"/></g><g><path d="M87.4693384375,23.8447058359375Q87.5764184375,23.6305438359375,87.8708884375,23.6305438359375L91.5919984375,23.6305438359375Q91.7257984375,23.6305438359375,91.8194984375,23.7242408359375Q91.9131984375,23.8179358359375,91.9131984375,23.9517868359375L91.9131984375,42.0484818359375Q91.9131984375,42.1822818359375,91.8194984375,42.2759818359375Q91.7257984375,42.3696818359375,91.5919984375,42.3696818359375L87.7905784375,42.3696818359375Q87.65672843749999,42.3696818359375,87.5630284375,42.2759818359375Q87.4693384375,42.1822818359375,87.4693384375,42.0484818359375L87.4693384375,30.5640318359375Q87.4693384375,30.4569518359375,87.4157984375,30.4435618359375Q87.3622584375,30.4301818359375,87.3087184375,30.5104918359375L85.4347984375,33.7764818359375Q85.3277184375,33.9905818359375,85.2741784375,33.9905818359375Q85.2206384375,33.9905818359375,85.0867884375,33.7764818359375L83.2128784375,30.5104918359375Q83.1593384375,30.4301818359375,83.1057984375,30.4301818359375Q83.0522484375,30.4301818359375,83.0522484375,30.5372618359375L83.0522484375,42.0484818359375Q83.0522484375,42.1822818359375,82.9585584375,42.2759818359375Q82.8648584375,42.3696818359375,82.7310084375,42.3696818359375L78.9296404375,42.3696818359375Q78.7957894375,42.3696818359375,78.7020941375,42.2759818359375Q78.6083984375,42.1822818359375,78.6083984375,42.0484818359375L78.6083984375,23.9517868359375Q78.6083984375,23.8179358359375,78.7020941375,23.7242408359375Q78.7957894375,23.6305438359375,78.9296404375,23.6305438359375L82.6774684375,23.6305438359375Q82.9451684375,23.6305438359375,83.0790184375,23.8447058359375L85.2206384375,27.7263918359375Q85.3009484375,27.8334718359375,85.3812584375,27.7263918359375L87.4693384375,23.8447058359375ZM99.14119843750001,42.583881835937504Q96.5443984375,42.583881835937504,95.0051984375,41.0846818359375Q93.4658984375,39.585581835937504,93.4658984375,37.0423818359375L93.4658984375,28.9578218359375Q93.4658984375,26.4414118359375,95.0051984375,24.9289018359375Q96.5443984375,23.4163818359375,99.14119843750001,23.4163818359375Q101.7110984375,23.4163818359375,103.2770984375,24.9289018359375Q104.8431984375,26.4414118359375,104.8431984375,28.9578218359375L104.8431984375,37.0423818359375Q104.8431984375,39.585581835937504,103.2770984375,41.0846818359375Q101.7110984375,42.583881835937504,99.14119843750001,42.583881835937504ZM99.14119843750001,38.7824818359375Q99.7300984375,38.7824818359375,100.0646984375,38.3675818359375Q100.3992984375,37.9525818359375,100.3992984375,37.2297818359375L100.3992984375,28.7704218359375Q100.3992984375,28.0476318359375,100.0646984375,27.6326918359375Q99.7300984375,27.2177518359375,99.14119843750001,27.2177518359375Q98.5521984375,27.2177518359375,98.2309984375,27.6326918359375Q97.9096984375,28.0476318359375,97.9096984375,28.7704218359375L97.9096984375,37.2297818359375Q97.9096984375,37.9525818359375,98.2309984375,38.3675818359375Q98.5521984375,38.7824818359375,99.14119843750001,38.7824818359375ZM111.7230984375,42.583881835937504Q110.09019843749999,42.583881835937504,108.8586984375,41.954781835937496Q107.6272984375,41.3256818359375,106.9446984375,40.1878818359375Q106.2619984375,39.0501818359375,106.2619984375,37.6045818359375L106.2619984375,36.7746818359375Q106.2619984375,36.6408818359375,106.3556984375,36.5471818359375Q106.44939843750001,36.4534818359375,106.5832984375,36.4534818359375L110.3310984375,36.4534818359375Q110.4649984375,36.4534818359375,110.5585984375,36.5471818359375Q110.65229843750001,36.6408818359375,110.65229843750001,36.7746818359375L110.65229843750001,37.3904818359375Q110.65229843750001,38.0328818359375,110.9601984375,38.4076818359375Q111.2680984375,38.7824818359375,111.74989843750001,38.7824818359375Q112.2317984375,38.7824818359375,112.53959843749999,38.4210818359375Q112.84749843750001,38.059681835937496,112.84749843750001,37.4974818359375Q112.84749843750001,36.8817818359375,112.3655984375,36.3865818359375Q111.88379843749999,35.8912818359375,110.4381984375,34.8472818359375Q109.0996984375,33.8835818359375,108.2429984375,33.1205818359375Q107.38639843749999,32.3576318359375,106.7706984375,31.2199018359375Q106.15489843750001,30.082161835937498,106.15489843750001,28.5830318359375Q106.15489843750001,27.0571318359375,106.83759843749999,25.8792418359375Q107.5201984375,24.7013518359375,108.7649984375,24.0588678359375Q110.0098984375,23.4163818359375,111.6160984375,23.4163818359375Q113.24909843750001,23.4163818359375,114.49389843750001,24.0722528359375Q115.7386984375,24.7281218359375,116.4212984375,25.9194018359375Q117.1039984375,27.1106718359375,117.1039984375,28.6633418359375L117.1039984375,29.3058318359375Q117.1039984375,29.4396818359375,117.0102984375,29.5333718359375Q116.9165984375,29.6270718359375,116.7826984375,29.6270718359375L113.0616984375,29.6270718359375Q112.9277984375,29.6270718359375,112.8340984375,29.5333718359375Q112.7403984375,29.4396818359375,112.7403984375,29.3058318359375L112.7403984375,28.556261835937498Q112.7403984375,27.9673218359375,112.4191984375,27.5925318359375Q112.09789843749999,27.2177518359375,111.6160984375,27.2177518359375Q111.1341984375,27.2177518359375,110.8396984375,27.5925318359375Q110.54529843750001,27.9673218359375,110.54529843750001,28.5830318359375Q110.54529843750001,29.2522918359375,111.0003984375,29.7876918359375Q111.45539843750001,30.3230918359375,112.84749843750001,31.3403618359375Q114.5339984375,32.5985618359375,115.39069843749999,33.3749018359375Q116.2472984375,34.151281835937496,116.7291984375,35.1015818359375Q117.2109984375,36.0518818359375,117.2109984375,37.336881835937504Q117.2109984375,39.7461818359375,115.6984984375,41.1650818359375Q114.18599843749999,42.583881835937504,111.7230984375,42.583881835937504ZM123.8767984375,42.583881835937504Q122.2437984375,42.583881835937504,121.0123984375,41.954781835937496Q119.7809984375,41.3256818359375,119.0982984375,40.1878818359375Q118.4156984375,39.0501818359375,118.4156984375,37.6045818359375L118.4156984375,36.7746818359375Q118.4156984375,36.6408818359375,118.50939843750001,36.5471818359375Q118.6030984375,36.4534818359375,118.7368984375,36.4534818359375L122.48479843749999,36.4534818359375Q122.6185984375,36.4534818359375,122.71229843750001,36.5471818359375Q122.8059984375,36.6408818359375,122.8059984375,36.7746818359375L122.8059984375,37.3904818359375Q122.8059984375,38.0328818359375,123.1138984375,38.4076818359375Q123.4216984375,38.7824818359375,123.9035984375,38.7824818359375Q124.38549843749999,38.7824818359375,124.6932984375,38.4210818359375Q125.0011984375,38.059681835937496,125.0011984375,37.4974818359375Q125.0011984375,36.8817818359375,124.5192984375,36.3865818359375Q124.0373984375,35.8912818359375,122.59189843749999,34.8472818359375Q121.2532984375,33.8835818359375,120.39669843749999,33.1205818359375Q119.5400984375,32.3576318359375,118.9242984375,31.2199018359375Q118.3085984375,30.082161835937498,118.3085984375,28.5830318359375Q118.3085984375,27.0571318359375,118.9912984375,25.8792418359375Q119.6738984375,24.7013518359375,120.9186984375,24.0588678359375Q122.16349843750001,23.4163818359375,123.7697984375,23.4163818359375Q125.40269843749999,23.4163818359375,126.64749843749999,24.0722528359375Q127.89239843749999,24.7281218359375,128.5749984375,25.9194018359375Q129.2575984375,27.1106718359375,129.2575984375,28.6633418359375L129.2575984375,29.3058318359375Q129.2575984375,29.4396818359375,129.1638984375,29.5333718359375Q129.07019843749998,29.6270718359375,128.9363984375,29.6270718359375L125.2152984375,29.6270718359375Q125.0814984375,29.6270718359375,124.9877984375,29.5333718359375Q124.89409843749999,29.4396818359375,124.89409843749999,29.3058318359375L124.89409843749999,28.556261835937498Q124.89409843749999,27.9673218359375,124.5728984375,27.5925318359375Q124.25159843750001,27.2177518359375,123.7697984375,27.2177518359375Q123.28789843749999,27.2177518359375,122.99339843749999,27.5925318359375Q122.69889843749999,27.9673218359375,122.69889843749999,28.5830318359375Q122.69889843749999,29.2522918359375,123.15399843750001,29.7876918359375Q123.6090984375,30.3230918359375,125.0011984375,31.3403618359375Q126.6876984375,32.5985618359375,127.5442984375,33.3749018359375Q128.4009984375,34.151281835937496,128.8828984375,35.1015818359375Q129.3646984375,36.0518818359375,129.3646984375,37.336881835937504Q129.3646984375,39.7461818359375,127.8521984375,41.1650818359375Q126.3396984375,42.583881835937504,123.8767984375,42.583881835937504ZM136.48559843750002,42.3696818359375Q136.3516984375,42.3696818359375,136.2580984375,42.2759818359375Q136.16439843749998,42.1822818359375,136.16439843749998,42.0484818359375L136.16439843749998,23.9517868359375Q136.16439843749998,23.8179358359375,136.2580984375,23.7242408359375Q136.3516984375,23.6305438359375,136.48559843750002,23.6305438359375L141.5986984375,23.6305438359375Q144.1685984375,23.6305438359375,145.7212984375,25.0761318359375Q147.27399843749998,26.521721835937498,147.27399843749998,28.9042718359375L147.27399843749998,37.0959818359375Q147.27399843749998,39.4784818359375,145.7212984375,40.9240818359375Q144.1685984375,42.3696818359375,141.5986984375,42.3696818359375L136.48559843750002,42.3696818359375ZM140.6081984375,38.434481835937504Q140.6081984375,38.5682818359375,140.7420984375,38.5682818359375L141.4915984375,38.5415818359375Q142.0537984375,38.5147818359375,142.4285984375,38.0462818359375Q142.8033984375,37.5777818359375,142.8300984375,36.8014818359375L142.8300984375,29.1987518359375Q142.8300984375,28.3956418359375,142.4553984375,27.9137818359375Q142.0805984375,27.4319118359375,141.4647984375,27.4319118359375L140.7420984375,27.4319118359375Q140.6081984375,27.4319118359375,140.6081984375,27.5657618359375L140.6081984375,38.434481835937504ZM159.2669984375,27.1106718359375Q159.2669984375,27.2445218359375,159.1732984375,27.3382218359375Q159.07969843749999,27.4319118359375,158.9457984375,27.4319118359375L153.56499843749998,27.4319118359375Q153.4310984375,27.4319118359375,153.4310984375,27.5657618359375L153.4310984375,30.9388118359375Q153.4310984375,31.0726618359375,153.56499843749998,31.0726618359375L156.5096984375,31.0726618359375Q156.6435984375,31.0726618359375,156.7372984375,31.1663618359375Q156.8308984375,31.2600518359375,156.8308984375,31.3939018359375L156.8308984375,34.5795818359375Q156.8308984375,34.7133818359375,156.7372984375,34.8070818359375Q156.6435984375,34.9007818359375,156.5096984375,34.9007818359375L153.56499843749998,34.9007818359375Q153.4310984375,34.9007818359375,153.4310984375,35.0346818359375L153.4310984375,38.434481835937504Q153.4310984375,38.5682818359375,153.56499843749998,38.5682818359375L158.9457984375,38.5682818359375Q159.07969843749999,38.5682818359375,159.1732984375,38.661981835937496Q159.2669984375,38.7556818359375,159.2669984375,38.8895818359375L159.2669984375,42.0484818359375Q159.2669984375,42.1822818359375,159.1732984375,42.2759818359375Q159.07969843749999,42.3696818359375,158.9457984375,42.3696818359375L149.30849843750002,42.3696818359375Q149.1746984375,42.3696818359375,149.0809984375,42.2759818359375Q148.9872984375,42.1822818359375,148.9872984375,42.0484818359375L148.9872984375,23.9517868359375Q148.9872984375,23.8179358359375,149.0809984375,23.7242408359375Q149.1746984375,23.6305438359375,149.30849843750002,23.6305438359375L158.9457984375,23.6305438359375Q159.07969843749999,23.6305438359375,159.1732984375,23.7242408359375Q159.2669984375,23.8179358359375,159.2669984375,23.9517868359375L159.2669984375,27.1106718359375ZM166.0130984375,42.583881835937504Q164.38019843749998,42.583881835937504,163.1486984375,41.954781835937496Q161.9172984375,41.3256818359375,161.23469843750001,40.1878818359375Q160.5519984375,39.0501818359375,160.5519984375,37.6045818359375L160.5519984375,36.7746818359375Q160.5519984375,36.6408818359375,160.64569843750002,36.5471818359375Q160.7393984375,36.4534818359375,160.8732984375,36.4534818359375L164.6210984375,36.4534818359375Q164.7548984375,36.4534818359375,164.84859843750002,36.5471818359375Q164.9422984375,36.6408818359375,164.9422984375,36.7746818359375L164.9422984375,37.3904818359375Q164.9422984375,38.0328818359375,165.2501984375,38.4076818359375Q165.5579984375,38.7824818359375,166.0398984375,38.7824818359375Q166.5217984375,38.7824818359375,166.8295984375,38.4210818359375Q167.1374984375,38.059681835937496,167.1374984375,37.4974818359375Q167.1374984375,36.8817818359375,166.6555984375,36.3865818359375Q166.1737984375,35.8912818359375,164.7281984375,34.8472818359375Q163.3896984375,33.8835818359375,162.5329984375,33.1205818359375Q161.67639843749998,32.3576318359375,161.0605984375,31.2199018359375Q160.4448984375,30.082161835937498,160.4448984375,28.5830318359375Q160.4448984375,27.0571318359375,161.1275984375,25.8792418359375Q161.8101984375,24.7013518359375,163.0549984375,24.0588678359375Q164.2997984375,23.4163818359375,165.9059984375,23.4163818359375Q167.5389984375,23.4163818359375,168.7838984375,24.0722528359375Q170.0286984375,24.7281218359375,170.7112984375,25.9194018359375Q171.3939984375,27.1106718359375,171.3939984375,28.6633418359375L171.3939984375,29.3058318359375Q171.3939984375,29.4396818359375,171.3001984375,29.5333718359375Q171.20659843750002,29.6270718359375,171.07269843749998,29.6270718359375L167.3515984375,29.6270718359375Q167.2177984375,29.6270718359375,167.12409843749998,29.5333718359375Q167.0303984375,29.4396818359375,167.0303984375,29.3058318359375L167.0303984375,28.556261835937498Q167.0303984375,27.9673218359375,166.7091984375,27.5925318359375Q166.38789843749998,27.2177518359375,165.9059984375,27.2177518359375Q165.4241984375,27.2177518359375,165.1296984375,27.5925318359375Q164.8352984375,27.9673218359375,164.8352984375,28.5830318359375Q164.8352984375,29.2522918359375,165.29029843749998,29.7876918359375Q165.7453984375,30.3230918359375,167.1374984375,31.3403618359375Q168.8239984375,32.5985618359375,169.68069843749998,33.3749018359375Q170.5372984375,34.151281835937496,171.0191984375,35.1015818359375Q171.50099843750002,36.0518818359375,171.50099843750002,37.336881835937504Q171.50099843750002,39.7461818359375,169.9884984375,41.1650818359375Q168.47599843749998,42.583881835937504,166.0130984375,42.583881835937504ZM173.2677984375,42.3696818359375Q173.1339984375,42.3696818359375,173.04029843749998,42.2759818359375Q172.9465984375,42.1822818359375,172.9465984375,42.0484818359375L172.9465984375,23.9517868359375Q172.9465984375,23.8179358359375,173.04029843749998,23.7242408359375Q173.1339984375,23.6305438359375,173.2677984375,23.6305438359375L177.0691984375,23.6305438359375Q177.2030984375,23.6305438359375,177.2967984375,23.7242408359375Q177.3904984375,23.8179358359375,177.3904984375,23.9517868359375L177.3904984375,42.0484818359375Q177.3904984375,42.1822818359375,177.2967984375,42.2759818359375Q177.2030984375,42.3696818359375,177.0691984375,42.3696818359375L173.2677984375,42.3696818359375ZM184.6183984375,42.583881835937504Q182.07539843749998,42.583881835937504,180.5493984375,41.151681835937495Q179.02339843750002,39.7194818359375,179.02339843750002,37.3100818359375L179.02339843750002,28.6633418359375Q179.02339843750002,26.2540218359375,180.5493984375,24.8352018359375Q182.07539843749998,23.4163818359375,184.6183984375,23.4163818359375Q187.1613984375,23.4163818359375,188.70039843749998,24.8619718359375Q190.2403984375,26.3075618359375,190.2403984375,28.7168818359375L190.2403984375,29.7073818359375Q190.2403984375,29.8412318359375,190.1463984375,29.9349318359375Q190.05239843750002,30.0286218359375,189.9193984375,30.0286218359375L186.11739843750001,30.0286218359375Q185.9833984375,30.0286218359375,185.89039843749998,29.9349318359375Q185.7963984375,29.8412318359375,185.7963984375,29.7073818359375L185.7963984375,28.6633418359375Q185.7963984375,28.0208618359375,185.47539843750002,27.6193018359375Q185.15339843750002,27.2177518359375,184.6183984375,27.2177518359375Q184.1093984375,27.2177518359375,183.7883984375,27.6193018359375Q183.46739843749998,28.0208618359375,183.46739843749998,28.6633418359375L183.46739843749998,37.336881835937504Q183.46739843749998,37.9793818359375,183.7883984375,38.3808818359375Q184.1093984375,38.7824818359375,184.6183984375,38.7824818359375Q185.15339843750002,38.7824818359375,185.47539843750002,38.3808818359375Q185.7963984375,37.9793818359375,185.7963984375,37.336881835937504L185.7963984375,35.6235818359375Q185.7963984375,35.4897818359375,185.6623984375,35.4897818359375L184.9663984375,35.4897818359375Q184.8323984375,35.4897818359375,184.7383984375,35.3960818359375Q184.6453984375,35.302381835937496,184.6453984375,35.1684818359375L184.6453984375,32.3308618359375Q184.6453984375,32.1970118359375,184.7383984375,32.103311835937504Q184.8323984375,32.0096218359375,184.9663984375,32.0096218359375L189.9193984375,32.0096218359375Q190.05239843750002,32.0096218359375,190.1463984375,32.103311835937504Q190.2403984375,32.1970118359375,190.2403984375,32.3308618359375L190.2403984375,37.3100818359375Q190.2403984375,39.7194818359375,188.70039843749998,41.151681835937495Q187.1613984375,42.583881835937504,184.6183984375,42.583881835937504ZM199.6093984375,23.9517868359375Q199.6093984375,23.8179358359375,199.7033984375,23.7242408359375Q199.7973984375,23.6305438359375,199.93139843749998,23.6305438359375L203.6783984375,23.6305438359375Q203.8123984375,23.6305438359375,203.9063984375,23.7242408359375Q204.0003984375,23.8179358359375,204.0003984375,23.9517868359375L204.0003984375,42.0484818359375Q204.0003984375,42.1822818359375,203.9063984375,42.2759818359375Q203.8123984375,42.3696818359375,203.6783984375,42.3696818359375L199.4223984375,42.3696818359375Q199.1273984375,42.3696818359375,199.0473984375,42.1019818359375L196.3973984375,32.7859618359375Q196.3703984375,32.7056418359375,196.3033984375,32.6922618359375Q196.2363984375,32.6788718359375,196.2363984375,32.7859618359375L196.29039843750002,42.0484818359375Q196.29039843750002,42.1822818359375,196.1963984375,42.2759818359375Q196.1023984375,42.3696818359375,195.9693984375,42.3696818359375L192.2213984375,42.3696818359375Q192.08739843749998,42.3696818359375,191.9933984375,42.2759818359375Q191.9003984375,42.1822818359375,191.9003984375,42.0484818359375L191.9003984375,23.9517868359375Q191.9003984375,23.8179358359375,191.9933984375,23.7242408359375Q192.08739843749998,23.6305438359375,192.2213984375,23.6305438359375L196.4243984375,23.6305438359375Q196.7183984375,23.6305438359375,196.7983984375,23.8982468359375L199.47539843750002,33.2678218359375Q199.5023984375,33.3481318359375,199.5693984375,33.3481318359375Q199.63639843750002,33.3481318359375,199.63639843750002,33.2410518359375L199.6093984375,23.9517868359375Z" fill="#262626" fill-opacity="1"/></g></g></g></svg>