<svg xmlns="http://www.w3.org/2000/svg" xmlns:xlink="http://www.w3.org/1999/xlink" fill="none" version="1.1" width="240" height="60" viewBox="0 0 240 60"><defs><clipPath id="master_svg0_89_0149"><rect x="0" y="0" width="240" height="60" rx="0"/></clipPath><linearGradient x1="0.5" y1="0" x2="0.5" y2="1" id="master_svg1_89_556"><stop offset="0%" stop-color="#1878F5" stop-opacity="1"/><stop offset="100%" stop-color="#47F6FF" stop-opacity="1"/></linearGradient><linearGradient x1="0.5" y1="1" x2="0.5" y2="0" id="master_svg2_89_561"><stop offset="0%" stop-color="#46F7F1" stop-opacity="1"/><stop offset="100%" stop-color="#1878F5" stop-opacity="1"/></linearGradient></defs><g clip-path="url(#master_svg0_89_0149)"><g><g><path d="M56.275999999999996,33.57L56.275999999999996,35.046L61.082,35.046L61.082,35.91L54.26,35.91L54.26,37.548L69.70400000000001,37.548L69.70400000000001,35.91L62.918,35.91L62.918,35.046L67.85,35.046L67.85,33.57L62.918,33.57L62.918,32.364000000000004L61.082,32.364000000000004L61.082,33.57L56.275999999999996,33.57ZM55.646,21.780001L55.646,26.694L61.082,26.694L61.082,27.378L55.124,27.378L55.124,28.674L61.082,28.674L61.082,29.43L53.972,29.43L53.972,30.906L70.064,30.906L70.064,29.43L62.918,29.43L62.918,28.674L68.966,28.674L68.966,27.378L62.918,27.378L62.918,26.694L68.39,26.694L68.39,21.780001L55.646,21.780001ZM66.644,25.29L64.898,25.29C65.258,24.894,65.636,24.444,66.014,23.904L65.006,23.148L66.644,23.148L66.644,25.29ZM64.142,25.29L62.774,25.29L62.774,23.148L64.934,23.148C64.574,23.688,64.106,24.21,63.566,24.732L64.142,25.29ZM61.226,25.29L59.84,25.29L60.416,24.714C60.056,24.192,59.624,23.67,59.102000000000004,23.148L61.226,23.148L61.226,25.29ZM59.246,25.29L57.392,25.29L57.392,23.148L58.814,23.148L58.04,23.886C58.508,24.354,58.903999999999996,24.822,59.246,25.29ZM55.952,30.978C55.376,31.805999999999997,54.71,32.525999999999996,53.936,33.138L55.268,34.11C56.096000000000004,33.426,56.798,32.616,57.41,31.698L55.952,30.978ZM60.002,30.996000000000002L58.562,31.392C58.868,32.04,59.138,32.706,59.354,33.39L60.794,32.832C60.596000000000004,32.274,60.326,31.662,60.002,30.996000000000002ZM64.44800000000001,30.996000000000002L63.025999999999996,31.392C63.385999999999996,32.076,63.71,32.778,63.962,33.498L65.366,32.94C65.15,32.364000000000004,64.844,31.716,64.44800000000001,30.996000000000002ZM67.67,30.96L66.554,32.058C67.562,32.832,68.336,33.57,68.876,34.254L70.01,33.102000000000004C69.38,32.4,68.606,31.68,67.67,30.96ZM72.206,23.67L72.206,33.282L74.006,33.282L74.006,23.67L72.206,23.67ZM75.212,21.240001L75.212,29.951999999999998C75.176,33.03,74.20400000000001,35.262,72.26,36.666L73.646,37.908C75.842,36.234,76.958,33.588,77.012,29.951999999999998L77.012,21.240001L75.212,21.240001ZM77.876,21.780001L77.876,23.544L82.088,23.544L82.088,25.416L78.28999999999999,25.416L78.28999999999999,36.036L80.09,36.036L80.09,27.18L82.088,27.18L82.088,37.872L83.888,37.872L83.888,27.18L85.868,27.18L85.868,33.768C85.868,34.092,85.74199999999999,34.272,85.49000000000001,34.272L84.338,34.182L84.824,35.982L86.084,35.982C87.128,35.982,87.668,35.37,87.668,34.182L87.668,25.416L83.888,25.416L83.888,23.544L88.064,23.544L88.064,21.780001L77.876,21.780001ZM92.096,21.456L90.818,22.68C92.06,23.616,93.032,24.516,93.73400000000001,25.344L95.012,24.048000000000002C94.22,23.184,93.24799999999999,22.32,92.096,21.456ZM89.702,26.567999999999998L89.702,28.368000000000002L92.024,28.368000000000002L92.024,34.686C92.024,35.082,91.862,35.424,91.556,35.694L92.27600000000001,37.385999999999996C93.608,36.522,94.868,35.568,96.056,34.488L95.53399999999999,32.507999999999996C94.94,33.066,94.382,33.57,93.86,34.038L93.86,26.567999999999998L89.702,26.567999999999998ZM96.146,28.728L96.146,30.528L97.172,30.528C97.604,31.932000000000002,98.414,33.192,99.566,34.344C98.27000000000001,35.172,96.70400000000001,35.856,94.85,36.396L95.894,37.980000000000004C97.946,37.385999999999996,99.656,36.594,101.06,35.604C102.24799999999999,36.486000000000004,103.74199999999999,37.278,105.506,37.998000000000005L106.51400000000001,36.378C104.912,35.82,103.562,35.19,102.446,34.47C103.598,33.336,104.426,31.986,104.93,30.438000000000002L104.93,28.728L96.146,28.728ZM98.936,30.528L103.03999999999999,30.528C102.536,31.572,101.834,32.49,100.916,33.318C99.97999999999999,32.49,99.332,31.554000000000002,98.936,30.528ZM97.37,21.762001L97.37,24.21C97.37,25.38,96.596,26.28,95.084,26.91L96.344,28.35C98.25200000000001,27.342,99.22399999999999,25.884,99.22399999999999,24.012L99.22399999999999,23.526L101.99600000000001,23.526L101.99600000000001,25.92C101.99600000000001,27.18,102.662,27.81,104.012,27.81L106.064,27.81L106.064,26.1L104.51599999999999,26.1C104.066,26.1,103.85,25.884,103.85,25.488L103.85,21.762001L97.37,21.762001ZM113.372,26.406L113.372,28.278L118.016,28.278L118.016,37.926L119.96,37.926L119.96,28.278L124.37,28.278L124.37,26.406L119.96,26.406L119.96,21.186001L118.016,21.186001L118.016,26.406L113.372,26.406ZM110.20400000000001,21.330001L108.872,22.626C110.15,23.562,111.14,24.444,111.824,25.272L113.12,23.958C112.31,23.094,111.338,22.212,110.20400000000001,21.330001ZM107.702,26.532L107.702,28.332L110.168,28.332L110.168,34.722C110.168,35.1,110.006,35.424,109.682,35.694L110.402,37.385999999999996C111.73400000000001,36.522,112.976,35.55,114.146,34.47L113.66,32.544C113.066,33.102000000000004,112.50800000000001,33.606,111.98599999999999,34.056L111.98599999999999,26.532L107.702,26.532Z" fill="#262626" fill-opacity="1"/></g><g><g><g><path d="M29.7506,26.644833242187502L29.7506,28.0785632421875C29.7506,30.6744732421875,31.855,32.7787732421875,34.450900000000004,32.7787732421875L34.450900000000004,26.644833242187502C34.450900000000004,22.1962632421875,30.7021,18.3875732421875,26.22544,18.3875732421875C21.79401,18.3875748324575,18,22.1508632421875,18,26.644833242187502L18.00000052805,36.0826732421875C18.00000067329,38.6784732421875,20.10437,40.7828732421875,22.70025,40.7828732421875L22.70025,26.644833242187502C22.70025,22.3971232421875,29.7506,22.0961732421875,29.7506,26.644833242187502Z" fill-rule="evenodd" fill="url(#master_svg1_89_556)" fill-opacity="1"/></g><g><path d="M43.7917,20.8062952734375C41.0446,18.0485472734375,36.54023,17.6101052734375,33.31619,19.8378052734375C34.42561,20.9857052734375,35.25847,22.396115273437502,35.71502,23.9289052734375Q36.11705,23.5901352734375,36.60401,23.383365273437498Q37.25669,23.1062352734375,37.97545,23.1062352734375Q38.6942,23.1062352734375,39.34689,23.383365273437498Q39.9791,23.6518052734375,40.4681,24.142735273437502Q40.9572,24.6336752734375,41.2246,25.2683152734375Q41.5006,25.923525273437498,41.5006,26.645065273437503L41.5006,33.3100052734375C41.5006,35.2446052734375,39.9855,36.6436052734375,38.36635,36.6436052734375C36.72444,36.6436052734375,34.97147,35.9547052734375,34.45025,34.2733052734375C32.80516,34.2733052734375,30.220025,33.0937052734375,29.75,31.442305273437498L29.75,33.3100052734375C29.75,37.7585052734375,33.49879,41.6127052734375,37.97544,41.6127052734375C42.3745,41.6127052734375,46.1455,37.858605273437504,46.2003,33.4082052734375L46.200900000000004,33.4082052734375L46.200900000000004,26.645065273437503Q46.200900000000004,24.9666952734375,45.5535,23.4302452734375Q44.929,21.9479952734375,43.7917,20.8062952734375Z" fill-rule="evenodd" fill="url(#master_svg2_89_561)" fill-opacity="1"/></g></g></g></g></g></svg>