<svg xmlns="http://www.w3.org/2000/svg" xmlns:xlink="http://www.w3.org/1999/xlink" fill="none" version="1.1" width="1521.81201171875" height="941" viewBox="0 0 1521.81201171875 941" ><defs><clipPath id="master_svg0_26_293"><rect x="1521.81201171875" y="0" width="1521.81201171875" height="941" rx="0"/></clipPath></defs><g transform="matrix(-1,0,0,1,3043.6240234375,0)" clip-path="url(#master_svg0_26_293)"><g><path d="M1542.0815140625,189.87240234375Q1522.9994120625,96.62370234375,1522.9994140625,0.58740234375L1521.7994140625,0.58740234375Q1521.7994160625,96.74520234375,1540.9059140625,190.11240234375Q1559.5264140625,281.10540234375,1595.7042140625,366.63940234375Q1631.2204140625,450.61040234375,1682.4124140625,526.38440234375Q1733.1084140625,601.42340234375,1797.2474140625,665.56540234375Q1861.3794140625,729.70440234375,1936.4274140625,780.40040234375Q2012.1804140625,831.57940234375,2096.1724140625,867.10740234375Q2181.6724140625,903.27540234375,2272.6994140625,921.90640234375Q2366.0554140625,941.00940234375,2462.2244140625,941.01240234375L2462.2244140625,939.81240234375Q2366.1804140625,939.80640234375,2272.9404140625,920.73040234375Q2182.0404140625,902.13440234375,2096.6394140625,866.00240234375Q2012.7544140625,830.51740234375,1937.0994140625,779.40540234375Q1862.1494140625,728.76740234375,1798.0954140625,664.71640234375Q1734.0404140625,600.65740234375,1683.4064140625,525.71240234375Q1632.2804140625,450.03640234375,1596.8094140625,366.17240234375Q1560.6780140625,280.74740234375,1542.0815140625,189.87240234375Z" fill-rule="evenodd" fill="#A5A9AD" fill-opacity="0.15000000596046448"/></g><g><path d="M2579.154670410156,928.02409765625Q2521.5545704101564,939.81109765625,2462.2246704101562,939.81209765625L2462.2246704101562,941.01209765625Q2521.676470410156,941.01009765625,2579.395670410156,929.19909765625Q2635.6676704101565,917.68209765625,2688.531670410156,895.32009765625Q2740.456670410156,873.35409765625,2787.2926704101565,841.71309765625Q2833.6876704101564,810.37009765625,2873.3406704101562,770.71609765625Q2912.9906704101563,731.0650976562499,2944.337670410156,684.66809765625Q2975.978670410156,637.8340976562499,2997.9446704101565,585.90709765625Q3020.306670410156,533.04309765625,3031.8236704101564,476.77109765625Q3043.638670410156,419.05219765625,3043.6366704101565,359.59997558625L3042.4366704101562,359.59997558625Q3042.4356704101565,418.93019765625,3030.6486704101562,476.53009765625Q3019.154670410156,532.68609765625,2996.839670410156,585.44009765625Q2974.915670410156,637.2600976562501,2943.342670410156,683.9970976562499Q2912.0646704101564,730.2990976562501,2872.4926704101563,769.86809765625Q2832.9196704101564,809.4400976562499,2786.621670410156,840.7180976562499Q2739.884670410156,872.29509765625,2688.0646704101564,894.21509765625Q2635.3116704101562,916.53009765625,2579.154670410156,928.02409765625Z" fill-rule="evenodd" fill="#A5A9AD" fill-opacity="0.15000000596046448"/></g><g><path d="M3035.1554375,287.36640234375Q3042.4374374999998,322.95640234375,3042.4364375,359.60040234375L3043.6364375,359.60040234375Q3043.6364375,322.83540234375,3036.3304375,287.12640234375Q3029.2124375,252.32940234375,3015.3764375,219.62140234375Q3001.7934375,187.50940234375,2982.2204375,158.53640234375Q2962.8344375,129.83840234375,2938.3094375,105.31540234375Q2913.7834375,80.78950234375,2885.0884375,61.40350234375Q2856.1154375,41.83060234375,2824.0024375,28.24750234375Q2791.2954375,14.41370234375,2756.4980375,7.29334234375Q2720.7939375,-0.01260365625000004,2684.0234375,-0.012628656249999981L2684.0234375,1.18737234375Q2720.6723375,1.1873783437499998,2756.2574375,8.46898234375Q2790.9384375,15.56540234375,2823.5344375,29.35270234375Q2855.5414375,42.89010234375,2884.4164375,62.39780234375Q2913.0164375,81.71970234375,2937.4604375,106.16340234375Q2961.9044375,130.60640234375,2981.2264375,159.20740234375Q3000.7344375000002,188.08340234375,3014.2714375,220.08940234375Q3028.0604375,252.68740234375,3035.1554375,287.36640234375Z" fill-rule="evenodd" fill="#A5A9AD" fill-opacity="0.15000000596046448"/></g><g><path d="M2639.440670410156,5.68097234375Q2661.4036704101563,1.18740234375,2684.0236704101562,1.18740234375L2684.0236704101562,-0.012597656249999978Q2661.281670410156,-0.012597656249999978,2639.199670410156,4.5053223437500005Q2617.679670410156,8.90841234375,2597.451670410156,17.46340234375Q2577.5906704101562,25.86290234375,2559.6732704101564,37.96730234375Q2541.926070410156,49.95670234375,2526.7599704101563,65.12270234375Q2511.5940704101563,80.28880234375,2499.604570410156,98.03600234375Q2487.5000704101562,115.95340234375,2479.1006704101565,135.81440234375Q2470.545710410156,156.04240234375,2466.1426204101563,177.56240234375Q2461.6246944101563,199.64440234375,2461.6246854101564,222.38640234375L2462.8246854101562,222.38640234375Q2462.8246764101564,199.76640234375,2467.318260410156,177.80340234375Q2471.6974504101563,156.39940234375,2480.2058704101564,136.28140234375Q2488.5598704101562,116.52840234375,2500.598970410156,98.70780234375Q2512.5239704101564,81.05590234375,2527.6084704101563,65.97120234375Q2542.693170410156,50.88660234375,2560.345070410156,38.96160234375Q2578.165670410156,26.92260234375,2597.918670410156,18.56860234375Q2618.036670410156,10.06015234375,2639.440670410156,5.68097234375Z" fill-rule="evenodd" fill="#A5A9AD" fill-opacity="0.15000000596046448"/></g><g><path d="M2473.561370410156,275.5586421875Q2462.824670410156,250.1771421875,2462.824670410156,222.3857421875L2461.6246704101563,222.3857421875Q2461.624672410156,250.4204421875,2472.456170410156,276.0261421875Q2482.917970410156,300.7575421875,2501.992570410156,319.8322421875Q2511.391170410156,329.2307421875,2522.3888704101564,336.6607421875Q2533.4917704101563,344.1627421875,2545.798770410156,349.3687421875Q2571.4036704101563,360.19974218749996,2599.438670410156,360.19974218749996L2599.438670410156,358.99974218750003Q2571.647670410156,358.99974218750003,2546.2662704101563,348.2637421875Q2521.7500704101562,337.8927421875,2502.8411704101563,318.9837421875Q2483.931870410156,300.07474218749996,2473.561370410156,275.5586421875Z" fill-rule="evenodd" fill="#A5A9AD" fill-opacity="0.15000000596046448"/></g><g><path d="M2632.1270869140626,352.40001328125Q2616.5240869140625,359.00051328125,2599.4390869140625,359.00041328125L2599.4390869140625,360.20041328125Q2616.7673869140626,360.20041328125,2632.5945869140623,353.50521328125Q2647.8813869140627,347.03861328125,2659.6714869140624,335.24851328125Q2671.4615869140625,323.45841328125,2677.9281869140623,308.17161328125Q2684.6233869140624,292.34441328125,2684.6233869140624,275.01611328125L2683.4233869140626,275.01611328125Q2683.4231869140626,292.10111328125,2676.8229869140623,307.70411328125Q2670.4475869140624,322.77531328125,2658.8229869140623,334.40001328125Q2647.1983869140627,346.02461328125,2632.1270869140626,352.40001328125Z" fill-rule="evenodd" fill="#A5A9AD" fill-opacity="0.15000000596046448"/></g><g><path d="M2679.3344884765625,254.7648421875Q2683.4233884765626,264.4310421875,2683.4233884765626,275.0159421875L2684.6233884765625,275.0159421875Q2684.6233884765625,264.1877421875,2680.4396884765624,254.2973421875Q2676.3988884765627,244.7448421875,2669.0315884765623,237.3775421875Q2661.6643884765626,230.0102521875,2652.1117884765627,225.9694821875Q2642.2213884765624,221.7857401875,2631.3931961453327,221.7857381875L2631.3931960665823,222.9857381875Q2641.9779884765626,222.9857331875,2651.6442884765625,227.0746621875Q2660.9812884765624,231.0242921875,2668.1830884765627,238.2260421875Q2675.3847884765623,245.4278421875,2679.3344884765625,254.7648421875Z" fill-rule="evenodd" fill="#A5A9AD" fill-opacity="0.15000000596046448"/></g><g><path d="M2619.2669060546873,225.4538221875Q2625.1003060546873,222.9857421875,2631.4872060546877,222.9857421875L2631.4872060546877,221.7857421875Q2624.8569060546874,221.7857421875,2618.7993060546873,224.3486721875Q2612.9491060546875,226.8238421875,2608.4367060546874,231.3362421875Q2603.9243060546873,235.8486421875,2601.4491260546874,241.6988421875Q2598.8862020546876,247.7564421875,2598.8862020546876,254.3868421875L2600.0862020546874,254.3868421875Q2600.0862030546873,247.9998421875,2602.5542860546875,242.1664421875Q2604.9382960546877,236.53174218750002,2609.2852260546874,232.1847721875Q2613.6322060546877,227.8378321875,2619.2669060546873,225.4538221875Z" fill-rule="evenodd" fill="#A5A9AD" fill-opacity="0.15000000596046448"/></g><g><path d="M2601.6636760546876,262.15459203125Q2600.0862060546874,258.42511203125,2600.0862060546874,254.34033203125L2598.8862060546876,254.34033203125Q2598.8862060546876,258.66846203125,2600.5584760546876,262.62206203125Q2602.1734960546873,266.44033203125,2605.1179360546876,269.38473203125Q2608.0623860546875,272.32923203125,2611.8806060546876,273.94423203125Q2615.8342060546875,275.61653203125,2620.1623060546876,275.61653203125L2620.1623060546876,274.41653203125Q2616.0776060546873,274.41653203125,2612.3481060546874,272.83903203125Q2608.7454160546877,271.31513203125,2605.9664660546873,268.53623203125Q2603.1875260546876,265.75733203125,2601.6636760546876,262.15459203125Z" fill-rule="evenodd" fill="#A5A9AD" fill-opacity="0.15000000596046448"/></g><g><path d="M2624.3001414453124,273.58139453125Q2622.3255514453126,274.41654453125,2620.1622314453125,274.41654453125L2620.1622314453125,275.61654453125Q2622.5688914453126,275.61654453125,2624.7675914453125,274.68664453125Q2626.8908614453126,273.78854453125,2628.5280014453124,272.15143453125Q2630.1651314453125,270.51429453125,2631.0632314453123,268.39102453125Q2631.9931314453124,266.19230453125,2631.9931314453124,263.78564453125L2630.7931314453126,263.78564453125Q2630.7931314453126,265.94896453125,2629.9579814453127,267.92357453125Q2629.1511114453124,269.83126453125,2627.6794714453126,271.30290453125Q2626.2078514453124,272.77452453125,2624.3001414453124,273.58139453125Z" fill-rule="evenodd" fill="#A5A9AD" fill-opacity="0.15000000596046448"/></g><g><rect x="2620.1622314453125" y="263.78564453125" width="11.230912208557129" height="11.230912208557129" rx="0" fill-opacity="0" stroke-opacity="0.15000000596046448" stroke="#A5A9AD" fill="none" stroke-width="1.2000000476837158"/></g></g></svg>