<svg xmlns="http://www.w3.org/2000/svg" xmlns:xlink="http://www.w3.org/1999/xlink" fill="none" version="1.1" width="792" height="197" viewBox="0 0 792 197"><defs><clipPath id="master_svg0_1_238"><rect x="0" y="0" width="792" height="197" rx="0"/></clipPath></defs><g clip-path="url(#master_svg0_1_238)"><g style="opacity:0.15000000596046448;"><path d="M7,189.195L33.825,162.37Q32.0793,160.511,31.0563,158.352Q28.6584,157.216,26.6299,155.187Q22.0161,150.574,22.0161,144.049L22.0161,129.435L7.402597,129.435L7.402597,128.296L22.0161,128.296L22.0161,99.0693L7.402597,99.0693L7.402597,97.9306L22.0161,97.9306L22.0161,68.70349999999999L7.402597,68.70349999999999L7.402597,67.56479999999999L22.0161,67.56479999999999L22.0161,52.9513Q22.0161,46.4265,26.6299,41.8128Q28.6583,39.7843,31.0562,38.6477Q32.0793,36.4893,33.825,34.6302L7,7.805195L7.805195,7L34.6302,33.825Q36.4893,32.0793,38.6477,31.0562Q39.7843,28.6584,41.8128,26.6299Q46.4265,22.0161,52.9513,22.0161L67.56479999999999,22.0161L67.56479999999999,7.402597L68.70349999999999,7.402597L68.70349999999999,22.0161L97.9306,22.0161L97.9306,7.402597L99.0693,7.402597L99.0693,22.0161L128.296,22.0161L128.296,7.402597L129.435,7.402597L129.435,22.0161L144.049,22.0161Q150.574,22.0161,155.187,26.6299Q157.216,28.6583,158.352,31.0562Q160.511,32.0793,162.37,33.825L189.195,7L190,7.805195L163.175,34.6302Q164.921,36.4893,165.944,38.6477Q168.342,39.7843,170.37,41.8128Q174.984,46.4264,174.984,52.9513L174.984,67.56479999999999L189.597,67.56479999999999L189.597,68.70349999999999L174.984,68.70349999999999L174.984,97.9306L189.597,97.9306L189.597,99.0693L174.984,99.0693L174.984,128.296L819.5,128.296L819.5,129.435L174.984,129.435L174.984,144.049Q174.984,150.574,170.37,155.187Q168.342,157.216,165.944,158.352Q164.921,160.511,163.175,162.37L190,189.195L189.195,190L162.37,163.175Q160.511,164.921,158.352,165.944Q157.216,168.342,155.187,170.37Q150.574,174.984,144.049,174.984L129.435,174.984L129.435,189.597L128.296,189.597L128.296,174.984L99.0693,174.984L99.0693,189.597L97.9306,189.597L97.9306,174.984L68.70349999999999,174.984L68.70349999999999,189.597L67.56479999999999,189.597L67.56479999999999,174.984L52.9513,174.984Q46.4264,174.984,41.8128,170.37Q39.7843,168.342,38.6477,165.944Q36.4893,164.921,34.6302,163.175L7.805195,190L7,189.195ZM45.3598,29.6076Q42.6633,29.6076,40.2932,30.3956Q41.2308,28.8222,42.618,27.4351Q46.8982,23.1549,52.9513,23.1549L67.56479999999999,23.1549L67.56479999999999,28.5303Q66.387,29.051,65.2329,29.6076L45.3598,29.6076ZM68.70349999999999,28.0376L68.70349999999999,23.1549L85.2104,23.1549Q76.7545,24.6323,68.72890000000001,28.0269L68.70349999999999,28.0376ZM128.27100000000002,28.0269Q120.245,24.6323,111.79,23.1549L128.296,23.1549L128.296,28.0376L128.27100000000002,28.0269ZM129.435,28.5303L129.435,23.1549L144.049,23.1549Q150.102,23.1548,154.382,27.4351Q155.769,28.8222,156.707,30.3956Q154.337,29.6076,151.64,29.6076L131.767,29.6076Q130.613,29.051,129.435,28.5303ZM69.17240000000001,29.0756Q82.9106,23.2649,97.9306,23.1569L97.9306,29.6076L68.70349999999999,29.6076L68.70349999999999,29.2758Q68.9375,29.175,69.17240000000001,29.0756ZM128.296,29.6076L99.0693,29.6076L99.0693,23.1569Q114.089,23.2649,127.828,29.0756Q128.063,29.175,128.296,29.2758L128.296,29.6076ZM62.9678,30.7463Q57.5836,33.565799999999996,52.734,37.199L38.3474,37.199Q38.443799999999996,34.358000000000004,39.51,31.9185Q42.1921,30.7463,45.3598,30.7463L62.9678,30.7463ZM67.56479999999999,30.7463L67.56479999999999,37.199L54.6602,37.199Q59.783,33.524699999999996,65.4942,30.7463L67.56479999999999,30.7463ZM97.9306,30.7463L97.9306,37.199L68.70349999999999,37.199L68.70349999999999,30.7463L97.9306,30.7463ZM128.296,30.7463L128.296,37.199L99.0693,37.199L99.0693,30.7463L128.296,30.7463ZM131.506,30.7463Q137.217,33.5246,142.34,37.199L129.435,37.199L129.435,30.7463L131.506,30.7463ZM157.49,31.9185Q158.556,34.3579,158.653,37.199L144.266,37.199Q139.416,33.565799999999996,134.03199999999998,30.7463L151.64,30.7463Q154.808,30.7463,157.49,31.9185ZM37.986999999999995,32.7018Q37.395700000000005,34.4804,37.2481,36.4429L35.435900000000004,34.630700000000004Q36.6436,33.502300000000005,37.986999999999995,32.7018ZM159.013,32.7018Q160.356,33.5024,161.564,34.630700000000004L159.752,36.4429Q159.604,34.4805,159.013,32.7018ZM32.7018,37.986999999999995Q33.502300000000005,36.6436,34.630700000000004,35.435900000000004L36.4429,37.2481Q34.4804,37.395700000000005,32.7018,37.986999999999995ZM164.298,37.9871Q162.52,37.395700000000005,160.557,37.2481L162.369,35.435900000000004Q163.498,36.6436,164.298,37.9871ZM51.2525,38.3378Q47.9054,40.9766,44.8218,44.0166L39.1429,38.3378L51.2525,38.3378ZM67.56479999999999,38.3378L53.1151,38.3378Q49.1924,41.3076,45.627,44.8218L67.56479999999999,66.7596L67.56479999999999,38.3378ZM97.9306,38.3378L68.70349999999999,38.3378L68.70349999999999,67.56479999999999L75.4661,67.56479999999999Q85.1939,60.1389,97.9306,59.977L97.9306,38.3378ZM128.296,38.3378L99.0693,38.3378L99.0693,59.977Q111.806,60.1389,121.534,67.56479999999999L128.296,67.56479999999999L128.296,38.3378ZM143.885,38.3378L129.435,38.3378L129.435,66.7596L151.373,44.8218Q147.808,41.3076,143.885,38.3378ZM145.747,38.3378Q149.095,40.9766,152.178,44.0166L157.857,38.3378L145.747,38.3378ZM31.9185,39.5099Q34.358000000000004,38.443799999999996,37.199,38.3474L37.199,52.734Q33.565799999999996,57.5837,30.7463,62.9679L30.7463,45.3598Q30.7463,42.1921,31.9185,39.5099ZM166.254,62.9678Q163.434,57.5835,159.801,52.7339L159.801,38.3474Q162.642,38.443799999999996,165.082,39.51Q166.254,42.1921,166.254,45.3598L166.254,62.9678ZM38.3378,51.2525Q40.9766,47.9054,44.0166,44.8218L38.3378,39.1429L38.3378,51.2525ZM158.662,51.2524Q156.023,47.9053,152.983,44.8218L158.662,39.143L158.662,51.2524ZM28.5303,67.56479999999999L23.1549,67.56479999999999L23.1549,52.9513Q23.1549,46.8982,27.4351,42.618Q28.8222,41.2308,30.3956,40.2932Q29.6076,42.6633,29.6076,45.3598L29.6076,65.2329Q29.051,66.3871,28.5303,67.56479999999999ZM167.392,45.3598Q167.392,42.6633,166.604,40.2933Q168.178,41.2308,169.565,42.618Q173.845,46.8981,173.845,52.9513L173.845,67.56479999999999L168.47,67.56479999999999Q167.949,66.3869,167.392,65.2329L167.392,45.3598ZM38.3378,53.1151L38.3378,67.56479999999999L66.7596,67.56479999999999L44.8218,45.627Q41.3077,49.1923,38.3378,53.1151ZM158.662,67.56479999999999L158.662,53.1151Q155.692,49.1923,152.178,45.627L130.24,67.56479999999999L158.662,67.56479999999999ZM30.7463,65.4942Q33.524699999999996,59.783,37.199,54.6602L37.199,67.56479999999999L30.7463,67.56479999999999L30.7463,65.4942ZM166.254,67.56479999999999L159.801,67.56479999999999L159.801,54.6602Q163.475,59.7829,166.254,65.49430000000001L166.254,67.56479999999999ZM97.9306,67.56479999999999L97.9306,61.1158Q86.3908,61.267,77.3969,67.56479999999999L97.9306,67.56479999999999ZM99.0693,67.56479999999999L119.603,67.56479999999999Q110.609,61.267,99.0693,61.1158L99.0693,67.56479999999999ZM28.0269,68.72890000000001Q24.6323,76.7544,23.1549,85.2103L23.1549,68.70349999999999L28.0376,68.70349999999999L28.0269,68.72890000000001ZM29.6076,68.70349999999999L29.6076,97.9306L23.1569,97.9306Q23.2649,82.9105,29.0756,69.17240000000001Q29.1749,68.9376,29.2758,68.70349999999999L29.6076,68.70349999999999ZM30.7463,68.70349999999999L37.199,68.70349999999999L37.199,97.9306L30.7463,97.9306L30.7463,68.70349999999999ZM38.3378,68.70349999999999L38.3378,97.9306L59.977,97.9306Q60.1389,85.1939,67.56479999999999,75.4661L67.56479999999999,68.70349999999999L38.3378,68.70349999999999ZM71.6627,70.8575L69.50880000000001,68.70349999999999L74.043,68.70349999999999Q72.8283,69.72120000000001,71.6627,70.8575ZM72.468,71.6628Q74.1116,70.0617,75.8559,68.70349999999999L97.9306,68.70349999999999L97.9306,97.1254L72.468,71.6628ZM99.0693,97.1254L99.0693,68.70349999999999L121.144,68.70349999999999Q122.888,70.0617,124.532,71.6628L99.0693,97.1254ZM125.337,70.8575Q124.172,69.72120000000001,122.957,68.70349999999999L127.491,68.70349999999999L125.337,70.8575ZM158.662,97.9306L158.662,68.70349999999999L129.435,68.70349999999999L129.435,75.4661Q136.861,85.194,137.023,97.9306L158.662,97.9306ZM166.254,97.9306L159.801,97.9306L159.801,68.70349999999999L166.254,68.70349999999999L166.254,97.9306ZM167.924,69.17240000000001Q173.735,82.9104,173.843,97.9306L167.392,97.9306L167.392,68.70349999999999L167.724,68.70349999999999Q167.825,68.9384,167.924,69.17240000000001ZM168.962,68.70349999999999L173.845,68.70349999999999L173.845,85.2099Q172.368,76.7542,168.973,68.72890000000001L168.962,68.70349999999999ZM70.8575,71.6627Q69.72120000000001,72.8283,68.70349999999999,74.043L68.70349999999999,69.50880000000001L70.8575,71.6627ZM126.142,71.6627L128.296,69.50880000000001L128.296,74.043Q127.279,72.8283,126.142,71.6627ZM97.1254,97.9306L68.70349999999999,97.9306L68.70349999999999,75.8559Q70.0617,74.1116,71.6628,72.468L97.1254,97.9306ZM125.337,72.468Q126.938,74.1116,128.296,75.8559L128.296,97.9306L99.8746,97.9306L125.337,72.468ZM67.56479999999999,97.9306L67.56479999999999,77.3969Q61.267,86.3907,61.1158,97.9306L67.56479999999999,97.9306ZM129.435,97.9306L135.884,97.9306Q135.733,86.3908,129.435,77.3969L129.435,97.9306ZM29.0756,127.828Q23.2649,114.089,23.1569,99.0693L29.6076,99.0693L29.6076,128.296L29.2758,128.296Q29.175,128.063,29.0756,127.828ZM30.7463,99.0693L37.199,99.0693L37.199,128.296L30.7463,128.296L30.7463,99.0693ZM38.3378,99.0693L38.3378,128.296L67.56479999999999,128.296L67.56479999999999,121.534Q60.1388,111.806,59.977,99.0693L38.3378,99.0693ZM67.56479999999999,99.0693L61.1158,99.0693Q61.267,110.609,67.56479999999999,119.603L67.56479999999999,99.0693ZM71.6628,124.532Q70.0617,122.888,68.70349999999999,121.144L68.70349999999999,99.0693L97.1254,99.0693L71.6628,124.532ZM99.8746,99.0693L128.296,99.0693L128.296,121.144Q126.938,122.888,125.337,124.532L99.8746,99.0693ZM158.662,128.296L158.662,99.0693L137.023,99.0693Q136.861,111.806,129.435,121.534L129.435,128.296L158.662,128.296ZM129.435,99.0693L129.435,119.603Q135.733,110.609,135.884,99.0693L129.435,99.0693ZM166.254,128.296L159.801,128.296L159.801,99.0693L166.254,99.0693L166.254,128.296ZM167.392,128.296L167.392,99.0693L173.843,99.0693Q173.735,114.09,167.924,127.828Q167.825,128.062,167.724,128.296L167.392,128.296ZM97.9306,99.8746L97.9306,128.296L75.8558,128.296Q74.1116,126.938,72.468,125.337L97.9306,99.8746ZM124.532,125.337Q122.888,126.938,121.144,128.296L99.0693,128.296L99.0693,99.8746L124.532,125.337ZM28.0376,128.296L23.1549,128.296L23.1549,111.79Q24.6323,120.246,28.0269,128.27100000000002L28.0376,128.296ZM168.973,128.27100000000002Q172.368,120.246,173.845,111.79L173.845,128.296L168.962,128.296L168.973,128.27100000000002ZM126.142,125.337Q127.279,124.172,128.296,122.957L128.296,127.491L126.142,125.337ZM70.8575,125.337L68.70349999999999,127.491L68.70349999999999,122.957Q69.72120000000001,124.172,70.8575,125.337ZM71.6627,126.142Q72.8283,127.279,74.043,128.296L69.50880000000001,128.296L71.6627,126.142ZM125.337,126.142L127.491,128.296L122.957,128.296Q124.172,127.279,125.337,126.142ZM29.6076,151.64Q29.6076,154.337,30.3956,156.707Q28.8222,155.769,27.4351,154.382Q23.1548,150.102,23.1549,144.049L23.1549,129.435L28.5303,129.435Q29.051,130.613,29.6076,131.767L29.6076,151.64ZM30.7463,129.435L37.199,129.435L37.199,142.34Q33.5246,137.217,30.7463,131.506L30.7463,129.435ZM38.3378,129.435L38.3378,143.885Q41.3076,147.808,44.8218,151.373L66.7596,129.435L38.3378,129.435ZM68.70349999999999,158.662L97.9306,158.662L97.9306,137.023Q85.1939,136.861,75.4662,129.435L68.70349999999999,129.435L68.70349999999999,158.662ZM97.9306,129.435L77.3968,129.435Q86.3907,135.733,97.9306,135.884L97.9306,129.435ZM99.0693,129.435L99.0693,135.884Q110.609,135.733,119.603,129.435L99.0693,129.435ZM99.0693,158.662L128.296,158.662L128.296,129.435L121.534,129.435Q111.806,136.861,99.0693,137.023L99.0693,158.662ZM158.662,143.885L158.662,129.435L130.24,129.435L152.178,151.373Q155.692,147.808,158.662,143.885ZM166.254,131.506Q163.475,137.217,159.801,142.34L159.801,129.435L166.254,129.435L166.254,131.506ZM168.47,129.435L173.845,129.435L173.845,144.049Q173.845,150.102,169.565,154.382Q168.178,155.769,166.604,156.707Q167.392,154.337,167.392,151.64L167.392,131.767Q167.949,130.613,168.47,129.435ZM53.115,158.662L67.56479999999999,158.662L67.56479999999999,130.24L45.627,152.178Q49.1922,155.692,53.115,158.662ZM129.435,158.662L143.885,158.662Q147.808,155.692,151.373,152.178L129.435,130.24L129.435,158.662ZM30.7463,134.03199999999998Q33.565799999999996,139.416,37.199,144.266L37.199,158.653Q34.3579,158.556,31.9185,157.49Q30.7463,154.808,30.7463,151.64L30.7463,134.03199999999998ZM165.082,157.49Q162.642,158.556,159.801,158.653L159.801,144.266Q163.434,139.416,166.254,134.03199999999998L166.254,151.64Q166.254,154.808,165.082,157.49ZM38.3378,145.747L38.3378,157.857L44.0166,152.178Q40.9766,149.095,38.3378,145.747ZM158.662,145.748Q156.023,149.095,152.983,152.178L158.662,157.857L158.662,145.748ZM51.2523,158.662L39.143,158.662L44.8218,152.983Q47.9053,156.023,51.2523,158.662ZM145.747,158.662Q149.095,156.023,152.178,152.983L157.857,158.662L145.747,158.662ZM34.630700000000004,161.564L36.4429,159.752Q34.4805,159.604,32.7017,159.013Q33.5024,160.356,34.630700000000004,161.564ZM164.298,159.013Q163.498,160.356,162.369,161.564L160.557,159.752Q162.52,159.604,164.298,159.013ZM39.51,165.082Q38.443799999999996,162.642,38.3474,159.801L52.7338,159.801Q57.5834,163.434,62.9677,166.254L45.3598,166.254Q42.1921,166.254,39.51,165.082ZM65.4941,166.254Q59.7828,163.475,54.6601,159.801L67.56479999999999,159.801L67.56479999999999,166.254L65.4941,166.254ZM68.70349999999999,166.254L68.70349999999999,159.801L97.9306,159.801L97.9306,166.254L68.70349999999999,166.254ZM99.0693,166.254L99.0693,159.801L128.296,159.801L128.296,166.254L99.0693,166.254ZM129.435,166.254L129.435,159.801L142.34,159.801Q137.217,163.475,131.506,166.254L129.435,166.254ZM134.03199999999998,166.254Q139.416,163.434,144.266,159.801L158.653,159.801Q158.556,162.642,157.49,165.082Q154.808,166.254,151.64,166.254L134.03199999999998,166.254ZM37.9871,164.298Q36.6436,163.498,35.435900000000004,162.369L37.2481,160.557Q37.395700000000005,162.52,37.9871,164.298ZM159.013,164.298Q159.604,162.52,159.752,160.557L161.564,162.369Q160.356,163.498,159.013,164.298ZM67.56479999999999,168.47L67.56479999999999,173.845L52.9513,173.845Q46.8981,173.845,42.618,169.565Q41.2308,168.178,40.2932,166.604Q42.6633,167.392,45.3598,167.392L65.2328,167.392Q66.3869,167.949,67.56479999999999,168.47ZM151.64,167.392Q154.337,167.392,156.707,166.604Q155.769,168.178,154.382,169.565Q150.102,173.845,144.049,173.845L129.435,173.845L129.435,168.47Q130.613,167.949,131.767,167.392L151.64,167.392ZM68.70349999999999,167.392L97.9306,167.392L97.9306,173.843Q82.9105,173.735,69.17240000000001,167.924Q68.9374,167.825,68.70349999999999,167.724L68.70349999999999,167.392ZM127.828,167.924Q114.089,173.735,99.0693,173.843L99.0693,167.392L128.296,167.392L128.296,167.724Q128.063,167.825,127.828,167.924ZM128.296,168.962L128.296,173.845L111.79,173.845Q120.246,172.368,128.27100000000002,168.973L128.296,168.962ZM68.72890000000001,168.973Q76.7542,172.368,85.2099,173.845L68.70349999999999,173.845L68.70349999999999,168.962L68.72890000000001,168.973Z" fill-rule="evenodd" fill="#C2C2C2" fill-opacity="1" style="mix-blend-mode:passthrough"/></g><g><path d="M56.547799999999995,61.8174553125L47.147,88.8521953125L66.0532,88.8521953125L82.8647,137.22889531250001L63.8346,137.22889531250001L47.0851,89.0302953125L31.0936535,135.0187953125C30.717728,136.0998953125,31.52044,137.22889531250001,32.66503,137.22889531250001L163.642,137.22889531250001C164.787,137.22889531250001,165.589,136.0998953125,165.213,135.0187953125L139.75900000000001,61.8174553125C139.527,61.1485363125,138.89600000000002,60.7001953125,138.188,60.7001953125L108.9288,60.7001953125C108.2206,60.7001953125,107.59,61.1485363125,107.3574,61.8174553125L98.1535,88.2861953125L88.9496,61.8174553125C88.717,61.1485363125,88.0864,60.7001953125,87.37819999999999,60.7001953125L58.1192,60.7001953125C57.4109,60.7001953125,56.7804,61.1485363125,56.547799999999995,61.8174553125ZM114.4769,135.8252953125C114.5183,135.5658953125,114.4983,135.2908953125,114.4037,135.0187953125L98.3503,88.8521953125L117.1833,88.8521953125L133.995,137.22889531250001L114.9647,137.22889531250001L114.4769,135.8252953125Z" fill-rule="evenodd" fill="#262626" fill-opacity="1"/></g><g><path d="M212.62161938476564,75.0240009765625Q212.93361938476562,74.4000019765625,213.79161938476562,74.4000019765625L224.6336193847656,74.4000019765625Q225.02361938476562,74.4000019765625,225.29661938476562,74.6730039765625Q225.56961938476562,74.9460009765625,225.56961938476562,75.3360009765625L225.56961938476562,128.0640009765625Q225.56961938476562,128.4540009765625,225.29661938476562,128.7270009765625Q225.02361938476562,129.0000009765625,224.6336193847656,129.0000009765625L213.55761938476562,129.0000009765625Q213.16761938476563,129.0000009765625,212.89461938476563,128.7270009765625Q212.62161938476564,128.4540009765625,212.62161938476564,128.0640009765625L212.62161938476564,94.6020009765625Q212.62161938476564,94.2900009765625,212.46561938476563,94.2510009765625Q212.30961938476563,94.2120009765625,212.15361938476562,94.4460009765625L206.6936193847656,103.9620009765625Q206.38161938476563,104.5860009765625,206.22561938476562,104.5860009765625Q206.06961938476562,104.5860009765625,205.67961938476563,103.9620009765625L200.21961938476562,94.4460009765625Q200.06361938476562,94.2120009765625,199.9076193847656,94.2120009765625Q199.75161938476563,94.2120009765625,199.75161938476563,94.5240009765625L199.75161938476563,128.0640009765625Q199.75161938476563,128.4540009765625,199.47861938476564,128.7270009765625Q199.2056193847656,129.0000009765625,198.81561938476563,129.0000009765625L187.73961938476563,129.0000009765625Q187.34961938476562,129.0000009765625,187.07661938476562,128.7270009765625Q186.80361938476562,128.4540009765625,186.80361938476562,128.0640009765625L186.80361938476562,75.3360009765625Q186.80361938476562,74.9460009765625,187.07661938476562,74.6730039765625Q187.34961938476562,74.4000019765625,187.73961938476563,74.4000019765625L198.65961938476562,74.4000019765625Q199.43961938476562,74.4000019765625,199.82961938476564,75.0240009765625L206.06961938476562,86.33400097656249Q206.30361938476562,86.6460009765625,206.53761938476563,86.33400097656249L212.62161938476564,75.0240009765625ZM246.62961938476562,129.6240009765625Q239.06361938476562,129.6240009765625,234.57861938476563,125.25600097656249Q230.09361938476562,120.8880009765625,230.09361938476562,113.4780009765625L230.09361938476562,89.9220009765625Q230.09361938476562,82.5900009765625,234.57861938476563,78.1830009765625Q239.06361938476562,73.7760009765625,246.62961938476562,73.7760009765625Q254.11761938476562,73.7760009765625,258.68061938476563,78.1830009765625Q263.2436193847656,82.5900009765625,263.2436193847656,89.9220009765625L263.2436193847656,113.4780009765625Q263.2436193847656,120.8880009765625,258.68061938476563,125.25600097656249Q254.11761938476562,129.6240009765625,246.62961938476562,129.6240009765625ZM246.62961938476562,118.54800097656249Q248.34561938476563,118.54800097656249,249.32061938476562,117.3390009765625Q250.29561938476562,116.1300009765625,250.29561938476562,114.02400097656249L250.29561938476562,89.3760009765625Q250.29561938476562,87.2700009765625,249.32061938476562,86.0610009765625Q248.34561938476563,84.8520009765625,246.62961938476562,84.8520009765625Q244.91361938476564,84.8520009765625,243.97761938476563,86.0610009765625Q243.04161938476562,87.2700009765625,243.04161938476562,89.3760009765625L243.04161938476562,114.02400097656249Q243.04161938476562,116.1300009765625,243.97761938476563,117.3390009765625Q244.91361938476564,118.54800097656249,246.62961938476562,118.54800097656249ZM283.2896193847656,129.6240009765625Q278.53161938476563,129.6240009765625,274.9436193847656,127.7910009765625Q271.35561938476565,125.9580009765625,269.3666193847656,122.64300097656249Q267.37761938476564,119.32800097656249,267.37761938476564,115.1160009765625L267.37761938476564,112.6980009765625Q267.37761938476564,112.3080009765625,267.6506193847656,112.0350009765625Q267.92361938476563,111.76200097656249,268.3136193847656,111.76200097656249L279.23361938476563,111.76200097656249Q279.6236193847656,111.76200097656249,279.89661938476564,112.0350009765625Q280.1696193847656,112.3080009765625,280.1696193847656,112.6980009765625L280.1696193847656,114.49200097656251Q280.1696193847656,116.3640009765625,281.06661938476566,117.4560009765625Q281.9636193847656,118.54800097656249,283.3676193847656,118.54800097656249Q284.77161938476564,118.54800097656249,285.66861938476563,117.4950009765625Q286.5656193847656,116.4420009765625,286.5656193847656,114.80400097656249Q286.5656193847656,113.01000097656251,285.16161938476563,111.5670009765625Q283.75761938476563,110.1240009765625,279.54561938476564,107.0820009765625Q275.6456193847656,104.2740009765625,273.14961938476563,102.0510009765625Q270.65361938476565,99.82800097656249,268.8596193847656,96.5130009765625Q267.0656193847656,93.1980009765625,267.0656193847656,88.8300009765625Q267.0656193847656,84.3840009765625,269.0546193847656,80.9520009765625Q271.04361938476563,77.5200009765625,274.67061938476564,75.6480009765625Q278.29761938476565,73.7760009765625,282.9776193847656,73.7760009765625Q287.73561938476564,73.7760009765625,291.3626193847656,75.6870009765625Q294.98961938476566,77.5980009765625,296.97861938476564,81.0690009765625Q298.9676193847656,84.5400009765625,298.9676193847656,89.0640009765625L298.9676193847656,90.9360009765625Q298.9676193847656,91.3260009765625,298.69461938476564,91.59900097656251Q298.4216193847656,91.8720009765625,298.03161938476563,91.8720009765625L287.1896193847656,91.8720009765625Q286.7996193847656,91.8720009765625,286.52661938476564,91.59900097656251Q286.2536193847656,91.3260009765625,286.2536193847656,90.9360009765625L286.2536193847656,88.7520009765625Q286.2536193847656,87.0360009765625,285.31761938476564,85.9440009765625Q284.3816193847656,84.8520009765625,282.9776193847656,84.8520009765625Q281.5736193847656,84.8520009765625,280.71561938476566,85.9440009765625Q279.8576193847656,87.0360009765625,279.8576193847656,88.8300009765625Q279.8576193847656,90.7800009765625,281.1836193847656,92.3400009765625Q282.50961938476564,93.9000009765625,286.5656193847656,96.8640009765625Q291.4796193847656,100.5300009765625,293.97561938476565,102.79200097656249Q296.47161938476563,105.05400097656249,297.8756193847656,107.8230009765625Q299.2796193847656,110.5920009765625,299.2796193847656,114.3360009765625Q299.2796193847656,121.3560009765625,294.87261938476564,125.4900009765625Q290.46561938476566,129.6240009765625,283.2896193847656,129.6240009765625ZM318.70161938476565,129.6240009765625Q313.9436193847656,129.6240009765625,310.35561938476565,127.7910009765625Q306.7676193847656,125.9580009765625,304.77861938476565,122.64300097656249Q302.7896193847656,119.32800097656249,302.7896193847656,115.1160009765625L302.7896193847656,112.6980009765625Q302.7896193847656,112.3080009765625,303.06261938476564,112.0350009765625Q303.3356193847656,111.76200097656249,303.72561938476565,111.76200097656249L314.6456193847656,111.76200097656249Q315.0356193847656,111.76200097656249,315.3086193847656,112.0350009765625Q315.58161938476565,112.3080009765625,315.58161938476565,112.6980009765625L315.58161938476565,114.49200097656251Q315.58161938476565,116.3640009765625,316.47861938476564,117.4560009765625Q317.3756193847656,118.54800097656249,318.7796193847656,118.54800097656249Q320.1836193847656,118.54800097656249,321.0806193847656,117.4950009765625Q321.9776193847656,116.4420009765625,321.9776193847656,114.80400097656249Q321.9776193847656,113.01000097656251,320.5736193847656,111.5670009765625Q319.1696193847656,110.1240009765625,314.9576193847656,107.0820009765625Q311.05761938476564,104.2740009765625,308.5616193847656,102.0510009765625Q306.0656193847656,99.82800097656249,304.27161938476564,96.5130009765625Q302.4776193847656,93.1980009765625,302.4776193847656,88.8300009765625Q302.4776193847656,84.3840009765625,304.46661938476564,80.9520009765625Q306.4556193847656,77.5200009765625,310.0826193847656,75.6480009765625Q313.70961938476563,73.7760009765625,318.38961938476564,73.7760009765625Q323.1476193847656,73.7760009765625,326.77461938476563,75.6870009765625Q330.40161938476564,77.5980009765625,332.3906193847656,81.0690009765625Q334.37961938476565,84.5400009765625,334.37961938476565,89.0640009765625L334.37961938476565,90.9360009765625Q334.37961938476565,91.3260009765625,334.1066193847656,91.59900097656251Q333.8336193847656,91.8720009765625,333.4436193847656,91.8720009765625L322.6016193847656,91.8720009765625Q322.21161938476564,91.8720009765625,321.9386193847656,91.59900097656251Q321.6656193847656,91.3260009765625,321.6656193847656,90.9360009765625L321.6656193847656,88.7520009765625Q321.6656193847656,87.0360009765625,320.7296193847656,85.9440009765625Q319.79361938476563,84.8520009765625,318.38961938476564,84.8520009765625Q316.98561938476564,84.8520009765625,316.12761938476564,85.9440009765625Q315.26961938476563,87.0360009765625,315.26961938476563,88.8300009765625Q315.26961938476563,90.7800009765625,316.59561938476566,92.3400009765625Q317.9216193847656,93.9000009765625,321.9776193847656,96.8640009765625Q326.8916193847656,100.5300009765625,329.3876193847656,102.79200097656249Q331.88361938476567,105.05400097656249,333.28761938476566,107.8230009765625Q334.69161938476566,110.5920009765625,334.69161938476566,114.3360009765625Q334.69161938476566,121.3560009765625,330.2846193847656,125.4900009765625Q325.87761938476564,129.6240009765625,318.70161938476565,129.6240009765625ZM355.4396193847656,129.0000009765625Q355.0496193847656,129.0000009765625,354.77661938476564,128.7270009765625Q354.5036193847656,128.4540009765625,354.5036193847656,128.0640009765625L354.5036193847656,75.3360009765625Q354.5036193847656,74.9460009765625,354.77661938476564,74.6730039765625Q355.0496193847656,74.4000019765625,355.4396193847656,74.4000019765625L370.3376193847656,74.4000019765625Q377.8256193847656,74.4000019765625,382.3496193847656,78.6120009765625Q386.8736193847656,82.8240009765625,386.8736193847656,89.7660009765625L386.8736193847656,113.6340009765625Q386.8736193847656,120.5760009765625,382.3496193847656,124.7880009765625Q377.8256193847656,129.0000009765625,370.3376193847656,129.0000009765625L355.4396193847656,129.0000009765625ZM367.45161938476565,117.53400097656251Q367.45161938476565,117.9240009765625,367.84161938476564,117.9240009765625L370.0256193847656,117.8460009765625Q371.66361938476564,117.76800097656249,372.7556193847656,116.40300097656251Q373.8476193847656,115.0380009765625,373.92561938476564,112.7760009765625L373.92561938476564,90.6240009765625Q373.92561938476564,88.2840009765625,372.8336193847656,86.8800009765625Q371.7416193847656,85.4760009765625,369.94761938476563,85.4760009765625L367.84161938476564,85.4760009765625Q367.45161938476565,85.4760009765625,367.45161938476565,85.8660009765625L367.45161938476565,117.53400097656251ZM421.81761938476564,84.5400009765625Q421.81761938476564,84.9300009765625,421.5446193847656,85.20300097656249Q421.2716193847656,85.4760009765625,420.8816193847656,85.4760009765625L405.2036193847656,85.4760009765625Q404.8136193847656,85.4760009765625,404.8136193847656,85.8660009765625L404.8136193847656,95.6940009765625Q404.8136193847656,96.08400097656249,405.2036193847656,96.08400097656249L413.78361938476564,96.08400097656249Q414.17361938476563,96.08400097656249,414.44661938476565,96.3570009765625Q414.7196193847656,96.6300009765625,414.7196193847656,97.0200009765625L414.7196193847656,106.30200097656251Q414.7196193847656,106.6920009765625,414.44661938476565,106.9650009765625Q414.17361938476563,107.2380009765625,413.78361938476564,107.2380009765625L405.2036193847656,107.2380009765625Q404.8136193847656,107.2380009765625,404.8136193847656,107.6280009765625L404.8136193847656,117.53400097656251Q404.8136193847656,117.9240009765625,405.2036193847656,117.9240009765625L420.8816193847656,117.9240009765625Q421.2716193847656,117.9240009765625,421.5446193847656,118.19700097656249Q421.81761938476564,118.4700009765625,421.81761938476564,118.8600009765625L421.81761938476564,128.0640009765625Q421.81761938476564,128.4540009765625,421.5446193847656,128.7270009765625Q421.2716193847656,129.0000009765625,420.8816193847656,129.0000009765625L392.8016193847656,129.0000009765625Q392.41161938476563,129.0000009765625,392.13861938476566,128.7270009765625Q391.86561938476564,128.4540009765625,391.86561938476564,128.0640009765625L391.86561938476564,75.3360009765625Q391.86561938476564,74.9460009765625,392.13861938476566,74.6730039765625Q392.41161938476563,74.4000019765625,392.8016193847656,74.4000019765625L420.8816193847656,74.4000019765625Q421.2716193847656,74.4000019765625,421.5446193847656,74.6730039765625Q421.81761938476564,74.9460009765625,421.81761938476564,75.3360009765625L421.81761938476564,84.5400009765625ZM441.4736193847656,129.6240009765625Q436.71561938476566,129.6240009765625,433.12761938476564,127.7910009765625Q429.5396193847656,125.9580009765625,427.55061938476564,122.64300097656249Q425.56161938476566,119.32800097656249,425.56161938476566,115.1160009765625L425.56161938476566,112.6980009765625Q425.56161938476566,112.3080009765625,425.83461938476563,112.0350009765625Q426.1076193847656,111.76200097656249,426.4976193847656,111.76200097656249L437.41761938476566,111.76200097656249Q437.80761938476564,111.76200097656249,438.0806193847656,112.0350009765625Q438.35361938476564,112.3080009765625,438.35361938476564,112.6980009765625L438.35361938476564,114.49200097656251Q438.35361938476564,116.3640009765625,439.2506193847656,117.4560009765625Q440.1476193847656,118.54800097656249,441.5516193847656,118.54800097656249Q442.9556193847656,118.54800097656249,443.8526193847656,117.4950009765625Q444.74961938476565,116.4420009765625,444.74961938476565,114.80400097656249Q444.74961938476565,113.01000097656251,443.3456193847656,111.5670009765625Q441.94161938476566,110.1240009765625,437.7296193847656,107.0820009765625Q433.82961938476564,104.2740009765625,431.3336193847656,102.0510009765625Q428.8376193847656,99.82800097656249,427.04361938476563,96.5130009765625Q425.24961938476565,93.1980009765625,425.24961938476565,88.8300009765625Q425.24961938476565,84.3840009765625,427.2386193847656,80.9520009765625Q429.2276193847656,77.5200009765625,432.8546193847656,75.6480009765625Q436.4816193847656,73.7760009765625,441.16161938476563,73.7760009765625Q445.9196193847656,73.7760009765625,449.5466193847656,75.6870009765625Q453.17361938476563,77.5980009765625,455.1626193847656,81.0690009765625Q457.15161938476564,84.5400009765625,457.15161938476564,89.0640009765625L457.15161938476564,90.9360009765625Q457.15161938476564,91.3260009765625,456.8786193847656,91.59900097656251Q456.60561938476565,91.8720009765625,456.2156193847656,91.8720009765625L445.3736193847656,91.8720009765625Q444.98361938476563,91.8720009765625,444.7106193847656,91.59900097656251Q444.43761938476564,91.3260009765625,444.43761938476564,90.9360009765625L444.43761938476564,88.7520009765625Q444.43761938476564,87.0360009765625,443.5016193847656,85.9440009765625Q442.5656193847656,84.8520009765625,441.16161938476563,84.8520009765625Q439.75761938476563,84.8520009765625,438.89961938476563,85.9440009765625Q438.0416193847656,87.0360009765625,438.0416193847656,88.8300009765625Q438.0416193847656,90.7800009765625,439.3676193847656,92.3400009765625Q440.6936193847656,93.9000009765625,444.74961938476565,96.8640009765625Q449.66361938476564,100.5300009765625,452.1596193847656,102.79200097656249Q454.6556193847656,105.05400097656249,456.0596193847656,107.8230009765625Q457.46361938476565,110.5920009765625,457.46361938476565,114.3360009765625Q457.46361938476565,121.3560009765625,453.0566193847656,125.4900009765625Q448.64961938476563,129.6240009765625,441.4736193847656,129.6240009765625ZM462.6116193847656,129.0000009765625Q462.22161938476563,129.0000009765625,461.9486193847656,128.7270009765625Q461.67561938476564,128.4540009765625,461.67561938476564,128.0640009765625L461.67561938476564,75.3360009765625Q461.67561938476564,74.9460009765625,461.9486193847656,74.6730039765625Q462.22161938476563,74.4000019765625,462.6116193847656,74.4000019765625L473.68761938476564,74.4000019765625Q474.0776193847656,74.4000019765625,474.35061938476565,74.6730039765625Q474.6236193847656,74.9460009765625,474.6236193847656,75.3360009765625L474.6236193847656,128.0640009765625Q474.6236193847656,128.4540009765625,474.35061938476565,128.7270009765625Q474.0776193847656,129.0000009765625,473.68761938476564,129.0000009765625L462.6116193847656,129.0000009765625ZM495.6836193847656,129.6240009765625Q488.27361938476565,129.6240009765625,483.8276193847656,125.4510009765625Q479.3816193847656,121.27800097656251,479.3816193847656,114.2580009765625L479.3816193847656,89.0640009765625Q479.3816193847656,82.0440009765625,483.8276193847656,77.9100009765625Q488.27361938476565,73.7760009765625,495.6836193847656,73.7760009765625Q503.09361938476565,73.7760009765625,507.5786193847656,77.9880009765625Q512.0636193847656,82.2000009765625,512.0636193847656,89.2200009765625L512.0636193847656,92.1060009765625Q512.0636193847656,92.4960009765625,511.79061938476565,92.7690009765625Q511.5176193847656,93.04200097656249,511.12761938476564,93.04200097656249L500.0516193847656,93.04200097656249Q499.66161938476563,93.04200097656249,499.3886193847656,92.7690009765625Q499.11561938476564,92.4960009765625,499.11561938476564,92.1060009765625L499.11561938476564,89.0640009765625Q499.11561938476564,87.1920009765625,498.1796193847656,86.0220009765625Q497.2436193847656,84.8520009765625,495.6836193847656,84.8520009765625Q494.20161938476565,84.8520009765625,493.2656193847656,86.0220009765625Q492.32961938476564,87.1920009765625,492.32961938476564,89.0640009765625L492.32961938476564,114.3360009765625Q492.32961938476564,116.2080009765625,493.2656193847656,117.3780009765625Q494.20161938476565,118.54800097656249,495.6836193847656,118.54800097656249Q497.2436193847656,118.54800097656249,498.1796193847656,117.3780009765625Q499.11561938476564,116.2080009765625,499.11561938476564,114.3360009765625L499.11561938476564,109.3440009765625Q499.11561938476564,108.9540009765625,498.72561938476565,108.9540009765625L496.69761938476563,108.9540009765625Q496.30761938476564,108.9540009765625,496.0346193847656,108.6810009765625Q495.76161938476565,108.4080009765625,495.76161938476565,108.01800097656249L495.76161938476565,99.7500009765625Q495.76161938476565,99.3600009765625,496.0346193847656,99.0870009765625Q496.30761938476564,98.8140009765625,496.69761938476563,98.8140009765625L511.12761938476564,98.8140009765625Q511.5176193847656,98.8140009765625,511.79061938476565,99.0870009765625Q512.0636193847656,99.3600009765625,512.0636193847656,99.7500009765625L512.0636193847656,114.2580009765625Q512.0636193847656,121.27800097656251,507.5786193847656,125.4510009765625Q503.09361938476565,129.6240009765625,495.6836193847656,129.6240009765625ZM539.3636193847656,75.3360009765625Q539.3636193847656,74.9460009765625,539.6366193847657,74.6730039765625Q539.9096193847656,74.4000019765625,540.2996193847656,74.4000019765625L551.2196193847656,74.4000019765625Q551.6096193847657,74.4000019765625,551.8826193847656,74.6730039765625Q552.1556193847656,74.9460009765625,552.1556193847656,75.3360009765625L552.1556193847656,128.0640009765625Q552.1556193847656,128.4540009765625,551.8826193847656,128.7270009765625Q551.6096193847657,129.0000009765625,551.2196193847656,129.0000009765625L538.8176193847656,129.0000009765625Q537.9596193847656,129.0000009765625,537.7256193847657,128.22000097656252L530.0036193847657,101.0760009765625Q529.9256193847657,100.8420009765625,529.7306193847656,100.8030009765625Q529.5356193847656,100.7640009765625,529.5356193847656,101.0760009765625L529.6916193847655,128.0640009765625Q529.6916193847655,128.4540009765625,529.4186193847656,128.7270009765625Q529.1456193847656,129.0000009765625,528.7556193847656,129.0000009765625L517.8356193847656,129.0000009765625Q517.4456193847657,129.0000009765625,517.1726193847657,128.7270009765625Q516.8996193847656,128.4540009765625,516.8996193847656,128.0640009765625L516.8996193847656,75.3360009765625Q516.8996193847656,74.9460009765625,517.1726193847657,74.6730039765625Q517.4456193847657,74.4000019765625,517.8356193847656,74.4000019765625L530.0816193847656,74.4000019765625Q530.9396193847656,74.4000019765625,531.1736193847656,75.1800009765625L538.9736193847657,102.48000097656251Q539.0516193847657,102.7140009765625,539.2466193847656,102.7140009765625Q539.4416193847655,102.7140009765625,539.4416193847655,102.4020009765625L539.3636193847656,75.3360009765625Z" fill="#262626" fill-opacity="1"/></g><g><path d="M198.9851358642578,161.64200561523438L193.08113586425782,161.64200561523438L194.9891358642578,161.94800561523436Q194.9351358642578,162.25400561523438,194.8631358642578,162.45200561523438L196.5731358642578,162.45200561523438Q197.3471358642578,162.45200561523438,197.7701358642578,162.8750056152344Q198.1931358642578,163.2980056152344,198.1931358642578,163.96400561523438L198.1751358642578,164.19800561523436L197.83313586425783,167.13200561523436L197.56313586425782,169.41800561523436L194.68313586425782,169.41800561523436L194.2331358642578,173.23400561523437Q194.07113586425783,174.5840056152344,193.4231358642578,175.21400561523438Q192.7751358642578,175.84400561523438,191.8571358642578,175.84400561523438Q191.08313586425783,175.84400561523438,190.67813586425783,175.51100561523438Q190.27313586425782,175.17800561523438,190.18313586425782,174.5120056152344Q189.8051358642578,175.03400561523438,189.37313586425782,175.46600561523437L187.6991358642578,174.40400561523438L187.26713586425782,175.50200561523437L184.7111358642578,175.07000561523438Q185.3951358642578,174.18800561523437,185.8181358642578,172.91900561523437Q186.2411358642578,171.65000561523436,186.49313586425782,170.05700561523437Q186.7451358642578,168.46400561523438,187.03313586425782,165.90800561523437L187.77113586425781,159.37400561523438L199.21913586425782,159.37400561523438L198.9851358642578,161.64200561523438ZM192.50513586425782,162.45200561523438Q192.54113586425783,162.36200561523438,192.54113586425783,162.16400561523437Q192.54113586425783,161.93000561523436,192.43313586425782,161.64200561523438L189.8771358642578,161.64200561523438L189.39113586425782,165.99800561523438Q189.1211358642578,168.5360056152344,188.74313586425782,170.48900561523436Q188.3651358642578,172.44200561523436,187.82513586425782,174.02600561523437Q188.79713586425783,173.41400561523437,189.2291358642578,172.46900561523438Q189.6611358642578,171.5240056152344,189.8951358642578,169.85000561523438L191.58713586425782,170.39000561523437Q191.4611358642578,171.34400561523438,191.2631358642578,172.13600561523438Q191.06513586425783,172.92800561523438,190.6871358642578,173.66600561523438L191.71313586425782,172.94600561523438Q191.4611358642578,173.39600561523437,191.4611358642578,173.50400561523438Q191.4611358642578,173.63000561523438,191.69513586425782,173.63000561523438Q191.9471358642578,173.63000561523438,192.0371358642578,173.0000056152344L192.46913586425782,169.41800561523436L189.6071358642578,169.41800561523436L190.3991358642578,162.45200561523438L192.50513586425782,162.45200561523438ZM195.9971358642578,164.8100056152344Q195.9971358642578,164.63000561523438,195.8891358642578,164.53100561523436Q195.7811358642578,164.43200561523437,195.6191358642578,164.43200561523437L192.2351358642578,164.43200561523437L192.1631358642578,165.08000561523437L195.7811358642578,165.08000561523437L195.6011358642578,166.77200561523438L191.9831358642578,166.77200561523438L191.9111358642578,167.42000561523437L195.7271358642578,167.42000561523437L195.7631358642578,167.13200561523436L195.9971358642578,164.8460056152344L195.9971358642578,164.8100056152344ZM196.7531358642578,169.83200561523438Q196.6991358642578,170.0480056152344,196.6991358642578,170.37200561523437Q196.6991358642578,171.38000561523438,197.1221358642578,172.69400561523437Q197.54513586425782,174.00800561523437,198.1571358642578,174.63800561523436L196.01513586425781,175.50200561523437Q195.49313586425782,174.47600561523439,195.2141358642578,173.26100561523438Q194.9351358642578,172.04600561523438,194.9351358642578,171.07400561523437Q194.9351358642578,170.57000561523438,195.0251358642578,170.17400561523436L196.7531358642578,169.83200561523438ZM212.80913586425783,159.41000561523438L211.94513586425782,167.38400561523437Q211.83713586425782,168.28400561523438,211.61213586425782,168.82400561523437Q211.3871358642578,169.36400561523436,210.85613586425782,169.67000561523437Q210.32513586425782,169.97600561523439,209.3531358642578,169.97600561523439Q208.38113586425783,169.97600561523439,207.79613586425782,169.48100561523438Q207.2111358642578,168.98600561523438,207.2111358642578,168.15800561523437Q207.2111358642578,167.61800561523438,207.51713586425782,166.91600561523438L209.4971358642578,166.64600561523437Q209.2631358642578,166.82600561523438,209.1281358642578,167.15900561523438Q208.99313586425782,167.49200561523438,208.99313586425782,167.7620056152344Q208.99313586425782,168.01400561523437,209.1011358642578,168.05000561523437Q209.2991358642578,168.10400561523437,209.4611358642578,167.92400561523436Q209.62313586425782,167.74400561523439,209.67713586425782,167.31200561523437L210.5411358642578,159.41000561523438L212.80913586425783,159.41000561523438ZM199.99313586425782,168.75200561523437Q201.32513586425782,167.24000561523437,201.8111358642578,165.5660056152344L201.1091358642578,165.5660056152344L201.32513586425782,163.44200561523436L202.18913586425782,163.44200561523436L202.36913586425783,161.8220056152344L201.7211358642578,161.8220056152344L201.9551358642578,159.73400461523437L208.0031358642578,159.73400461523437L207.7871358642578,161.8220056152344L207.26513586425781,161.8220056152344L207.0851358642578,163.44200561523436L207.7691358642578,163.44200561523436L207.5531358642578,165.5660056152344L206.86913586425783,165.5660056152344L206.50913586425781,168.89600561523437L204.31313586425782,168.89600561523437L204.6731358642578,165.5660056152344L204.0431358642578,165.5660056152344Q203.77313586425782,166.77200561523438,203.35013586425782,167.71700561523437Q202.92713586425782,168.66200561523436,202.4411358642578,169.22000561523438L199.99313586425782,168.75200561523437ZM207.6971358642578,166.19600561523438L208.38113586425783,160.00400561523438L210.1451358642578,160.00400561523438L209.4611358642578,166.19600561523438L207.6971358642578,166.19600561523438ZM204.38513586425782,163.44200561523436L204.8891358642578,163.44200561523436L205.06913586425782,161.8220056152344L204.5651358642578,161.8220056152344L204.38513586425782,163.44200561523436ZM206.9771358642578,173.57600561523438L211.4231358642578,173.57600561523438L211.18913586425782,175.80800561523438L199.93913586425782,175.80800561523438L200.1731358642578,173.57600561523438L204.6731358642578,173.57600561523438L204.7811358642578,172.56800561523437L201.0551358642578,172.56800561523437L201.28913586425782,170.33600561523437L205.01513586425781,170.33600561523437L205.14113586425782,169.22000561523438L207.42713586425782,169.22000561523438L207.31913586425782,170.33600561523437L211.15313586425782,170.33600561523437L210.9191358642578,172.56800561523437L207.0851358642578,172.56800561523437L206.9771358642578,173.57600561523438ZM216.48113586425782,163.19000561523438Q216.49913586425782,163.10000561523438,216.49913586425782,162.92000561523437Q216.49913586425782,162.05600561523437,216.0131358642578,161.12000561523436Q215.52713586425782,160.18400561523438,214.6811358642578,159.75200561523437L217.5971358642578,159.21200561523438Q218.04713586425783,159.78800461523437,218.32613586425782,160.6970056152344Q218.60513586425782,161.60600561523438,218.60513586425782,162.39800561523438Q218.60513586425782,162.83000561523437,218.4971358642578,163.19000561523438L216.48113586425782,163.19000561523438ZM227.4071358642578,163.55000561523437Q227.3171358642578,164.82800561523436,226.7411358642578,165.5480056152344Q226.16513586425782,166.2680056152344,225.1211358642578,166.39400561523436Q225.60713586425783,166.75400561523438,225.60713586425783,167.51000561523438Q225.60713586425783,167.72600561523439,225.53513586425782,168.15800561523437Q225.0851358642578,170.49800561523438,223.3751358642578,172.44200561523436Q223.7531358642578,172.69400561523437,224.2211358642578,172.98200561523439Q224.50913586425781,173.14400561523436,225.1751358642578,173.28800561523437Q225.8411358642578,173.43200561523437,226.30913586425783,173.41400561523437L223.77113586425781,175.98800561523439Q222.38513586425782,175.30400561523436,221.3411358642578,174.26000561523438Q220.00913586425781,175.19600561523438,218.4611358642578,175.79000561523438L215.9231358642578,174.67400561523436Q216.8411358642578,174.33200561523438,217.90313586425782,173.74700561523437Q218.9651358642578,173.16200561523436,219.9551358642578,172.40600561523436Q219.0551358642578,170.89400561523436,218.55113586425782,168.69800561523436L220.3871358642578,168.5360056152344Q220.6571358642578,169.70600561523437,221.64713586425782,170.8580056152344Q222.6371358642578,169.76000561523438,222.9791358642578,168.73400561523437Q223.01513586425781,168.59000561523436,223.01513586425781,168.5540056152344Q223.01513586425781,168.28400561523438,222.6011358642578,168.28400561523438L218.1911358642578,168.28400561523438L218.4251358642578,166.08800561523438L219.9011358642578,166.08800561523438L217.75913586425781,165.33200561523438Q218.69513586425782,164.82800561523436,219.0911358642578,163.94600561523438Q219.48713586425782,163.06400561523438,219.66713586425783,161.48000561523438L219.8651358642578,159.71600561523437L223.7531358642578,159.71600561523437Q224.54513586425782,159.71600561523437,224.9771358642578,160.07600461523438Q225.40913586425782,160.43600561523436,225.40913586425782,161.0840056152344Q225.40913586425782,161.30000561523437,225.39113586425782,161.40800561523437L225.0851358642578,163.44200561523436Q225.0671358642578,163.51400561523437,225.0491358642578,163.60400561523437Q225.0311358642578,163.69400561523437,225.0311358642578,163.76600561523438Q225.0311358642578,163.91000561523438,225.2111358642578,163.91000561523438Q225.35513586425782,163.91000561523438,225.46313586425782,163.73900561523436Q225.57113586425783,163.56800561523437,225.57113586425783,163.3340056152344Q225.57113586425783,163.06400561523438,225.37313586425782,162.81200561523437L227.4071358642578,163.55000561523437ZM223.35713586425783,166.08800561523438Q222.4931358642578,165.60200561523436,222.4931358642578,164.61200561523438Q222.4931358642578,164.34200561523437,222.5291358642578,164.19800561523436L222.8711358642578,162.43400561523438L222.8711358642578,162.34400561523438Q222.8711358642578,162.20000561523437,222.7631358642578,162.10100561523439Q222.65513586425783,162.00200561523437,222.4931358642578,162.00200561523437L222.0431358642578,162.00200561523437L222.0251358642578,162.18200561523437Q221.88113586425783,163.69400561523437,221.5841358642578,164.59400561523438Q221.2871358642578,165.49400561523439,220.5131358642578,166.08800561523438L223.35713586425783,166.08800561523438ZM218.8391358642578,170.49800561523438Q218.89313586425783,170.7860056152344,218.89313586425783,171.07400561523437Q218.89313586425783,172.01000561523438,218.34413586425782,172.76600561523438Q217.79513586425782,173.52200561523438,217.0121358642578,173.94500561523438Q216.2291358642578,174.36800561523438,215.58113586425782,174.36800561523438Q215.02313586425782,174.36800561523438,214.5731358642578,174.08900561523438Q214.12313586425782,173.8100056152344,214.12313586425782,173.25200561523437Q214.12313586425782,173.12600561523436,214.14113586425782,173.0540056152344L215.05913586425783,166.52000561523437L215.05913586425783,166.44800561523436Q215.05913586425783,166.3040056152344,214.95113586425782,166.20500561523437Q214.84313586425782,166.10600561523438,214.6811358642578,166.10600561523438L214.21313586425782,166.10600561523438L214.4471358642578,164.0000056152344L215.86913586425783,164.0000056152344Q216.6971358642578,164.0000056152344,217.16513586425782,164.36900561523439Q217.6331358642578,164.73800561523439,217.6331358642578,165.45800561523438Q217.6331358642578,165.76400561523437,217.5971358642578,165.92600561523437L216.6251358642578,171.18200561523437Q216.7331358642578,171.21800561523438,216.7871358642578,171.21800561523438Q217.03913586425782,171.21800561523438,217.20113586425782,170.89400561523436Q217.3631358642578,170.57000561523438,217.3631358642578,170.15600561523436Q217.3631358642578,169.70600561523437,217.18313586425782,169.40000561523436L218.8391358642578,170.49800561523438ZM231.2051358642578,163.37000561523436Q231.2051358642578,162.83000561523437,230.9531358642578,162.14600561523437Q230.70113586425782,161.46200561523438,230.24213586425782,160.86800561523438Q229.78313586425782,160.2740056152344,229.20713586425782,159.98600561523438L232.3031358642578,159.44600561523438Q232.78913586425782,160.09400561523438,233.1221358642578,161.0480056152344Q233.4551358642578,162.00200561523437,233.4551358642578,162.79400561523437Q233.4551358642578,163.19000561523438,233.3831358642578,163.42400561523436L231.1871358642578,163.60400561523437L231.2051358642578,163.37000561523436ZM241.3391358642578,167.7620056152344L238.2431358642578,167.7620056152344L237.30713586425782,175.77200561523438L234.7511358642578,175.77200561523438L235.6871358642578,167.7620056152344L232.5911358642578,167.7620056152344L232.84313586425782,165.27800561523438L235.97513586425782,165.27800561523438L236.65913586425782,159.44600561523438L239.2151358642578,159.44600561523438L238.5311358642578,165.27800561523438L241.5911358642578,165.27800561523438L241.3391358642578,167.7620056152344ZM231.51113586425782,172.13600561523438Q231.8171358642578,172.2620056152344,232.03313586425782,171.83900561523438Q232.24913586425782,171.41600561523438,232.24913586425782,170.84000561523436Q232.24913586425782,170.30000561523437,232.06913586425782,169.99400561523439L234.44513586425782,171.09200561523437Q234.40913586425782,172.2800056152344,233.79713586425783,173.31500561523438Q233.1851358642578,174.35000561523438,232.2041358642578,174.95300561523436Q231.2231358642578,175.55600561523437,230.1611358642578,175.50200561523437Q229.6031358642578,175.46600561523437,229.18913586425782,175.06100561523436Q228.7751358642578,174.65600561523436,228.8471358642578,174.00800561523437L229.5851358642578,167.11400561523436L229.5851358642578,167.0420056152344Q229.5851358642578,166.89800561523438,229.4771358642578,166.79900561523436Q229.36913586425783,166.70000561523437,229.20713586425782,166.70000561523437L228.7391358642578,166.70000561523437L228.9731358642578,164.59400561523438L230.3951358642578,164.59400561523438Q232.14113586425782,164.59400561523438,232.14113586425782,166.17800561523438Q232.14113586425782,166.39400561523436,232.12313586425782,166.52000561523437L231.51113586425782,172.13600561523438ZM253.2191358642578,166.48400561523437L253.12913586425782,167.18600561523436Q253.3271358642578,169.83200561523438,253.9841358642578,171.64100561523438Q254.64113586425782,173.45000561523437,256.02713586425784,175.23200561523439L253.6151358642578,175.86200561523438Q252.9311358642578,174.78200561523437,252.5441358642578,173.78300561523437Q252.1571358642578,172.78400561523438,251.97713586425783,171.70400561523437Q251.02313586425782,174.09800561523437,249.25913586425781,175.86200561523438L247.6391358642578,175.37600561523436L247.5851358642578,175.89800561523438L245.3891358642578,175.89800561523438L245.65913586425782,173.55800561523438Q245.01113586425782,173.7920056152344,244.16513586425782,174.00800561523437L242.8871358642578,171.72200561523437Q244.02113586425781,171.63200561523436,245.9471358642578,171.03800561523437L246.1991358642578,168.71600561523437L244.79513586425782,168.77000561523437Q244.4711358642578,168.78800561523437,244.1921358642578,168.59000561523436Q243.9131358642578,168.39200561523438,243.8231358642578,168.08600561523437Q243.7691358642578,167.88800561523436,243.7691358642578,167.70800561523438Q243.7691358642578,167.33000561523437,244.03913586425782,166.75400561523438Q244.5431358642578,165.71000561523437,245.4251358642578,163.04600561523438L244.5971358642578,163.04600561523438L244.81313586425782,160.79600561523438L246.1091358642578,160.79600561523438L246.46913586425782,159.41000561523438L248.8991358642578,159.66200561523436L248.53913586425782,160.79600561523438L249.8171358642578,160.79600561523438L249.6011358642578,163.04600561523438L247.80113586425782,163.04600561523438Q247.6211358642578,163.64000561523437,247.4591358642578,164.0360056152344L248.8991358642578,164.0360056152344L248.7911358642578,164.93600561523436Q249.6731358642578,164.0180056152344,250.1591358642578,162.38900561523437Q250.6451358642578,160.76000561523438,250.6271358642578,159.30200581523437L252.9311358642578,159.64400561523436Q252.9311358642578,160.11200561523438,252.75113586425783,160.88600561523438L254.71313586425782,160.90400561523438Q255.5051358642578,160.90400561523438,255.87413586425782,161.32700561523438Q256.2431358642578,161.7500056152344,256.2431358642578,162.63200561523436Q256.2431358642578,164.8460056152344,255.0911358642578,166.77200561523438L253.2191358642578,166.48400561523437ZM251.97713586425783,163.17200561523438Q251.7431358642578,163.74800561523438,251.52713586425782,164.16200561523436L253.3991358642578,164.16200561523436L253.2911358642578,165.63800561523436L253.23713586425782,166.2680056152344Q253.9931358642578,165.27800561523438,253.9931358642578,163.55000561523437Q253.9931358642578,163.19000561523438,253.7231358642578,163.19000561523438L251.97713586425783,163.17200561523438ZM247.40513586425783,164.21600561523437Q246.8471358642578,165.83600561523437,246.5771358642578,166.39400561523436L247.17113586425782,166.39400561523436L247.40513586425783,164.21600561523437ZM247.76513586425781,174.26000561523438Q249.27713586425782,172.62200561523437,250.03313586425782,170.66900561523437Q250.78913586425782,168.71600561523437,251.13113586425783,165.5300056152344L251.20313586425783,164.7740056152344Q250.6631358642578,165.76400561523437,250.1591358642578,166.3220056152344L248.7191358642578,165.62000561523436L248.62913586425782,166.43000561523436L249.2231358642578,166.43000561523436L249.0251358642578,168.62600561523436L248.3951358642578,168.64400561523436L248.2331358642578,170.12000561523436Q248.61113586425782,169.92200561523438,248.95313586425783,169.67000561523437L249.25913586425781,171.34400561523438Q248.91713586425783,171.90200561523437,247.96313586425782,172.47800561523437L247.76513586425781,174.26000561523438ZM267.76313586425783,167.54600561523438L270.5351358642578,167.54600561523438L270.30113586425784,169.86800561523438L267.5111358642578,169.86800561523438L266.8991358642578,175.91600561523438L264.5771358642578,175.91600561523438L265.1891358642578,169.86800561523438L262.07513586425785,169.86800561523438L262.3271358642578,167.54600561523438L265.44113586425783,167.54600561523438L265.7471358642578,164.48600561523438L265.0091358642578,164.48600561523438Q264.5411358642578,165.45800561523438,263.8031358642578,166.35800561523436L262.2551358642578,165.89000561523437L261.2111358642578,175.88000561523438L258.83513586425784,175.88000561523438L259.7351358642578,167.74400561523439L257.3771358642578,167.0420056152344Q258.3131358642578,166.3220056152344,259.2851358642578,164.81900561523437Q260.2571358642578,163.3160056152344,260.90513586425783,161.74100561523437Q261.5531358642578,160.16600561523438,261.5891358642578,159.30200581523437L264.10913586425784,159.69800561523436Q263.55113586425784,161.42600561523437,262.48913586425783,163.69400561523437L262.3631358642578,164.82800561523436Q263.15513586425783,163.78400561523438,263.7311358642578,162.37100561523437Q264.3071358642578,160.95800561523438,264.3791358642578,159.87800461523437L265.8191358642578,160.16600561523438Q265.7111358642578,161.71400561523438,265.6391358642578,162.16400561523437L265.9811358642578,162.16400561523437L266.2691358642578,159.39200461523438L268.5911358642578,159.39200461523438L268.3031358642578,162.16400561523437L270.5531358642578,162.16400561523437L270.3191358642578,164.48600561523438L268.0691358642578,164.48600561523438L267.76313586425783,167.54600561523438ZM272.0651358642578,177.6080056152344Q272.6771358642578,176.40200561523437,273.18113586425784,175.07000561523438Q273.6851358642578,173.73800561523439,273.9011358642578,172.62200561523437L276.1691358642578,173.12600561523436Q275.7911358642578,174.31400561523438,275.0351358642578,175.86200561523438Q274.2791358642578,177.41000561523438,273.6851358642578,178.20200561523438L272.0651358642578,177.6080056152344ZM294.6011358642578,163.58600561523437L294.4211358642578,165.24200561523438L296.5091358642578,165.24200561523438Q297.3551358642578,165.24200561523438,297.8321358642578,165.62900561523438Q298.3091358642578,166.01600561523438,298.3091358642578,166.68200561523437Q298.3091358642578,167.0960056152344,298.0931358642578,167.61800561523438Q296.9951358642578,170.21000561523437,294.8891358642578,172.15400561523438Q296.6711358642578,173.12600561523436,299.1011358642578,173.61200561523438L296.4731358642578,175.88000561523438Q294.1691358642578,175.21400561523438,292.5491358642578,173.93600561523436Q290.47913586425784,175.21400561523438,287.97713586425783,175.82600561523438L285.83513586425784,173.93600561523436Q288.5351358642578,173.39600561523437,290.8211358642578,172.13600561523438Q289.84913586425785,170.8580056152344,288.6251358642578,168.5180056152344L290.7311358642578,167.8340056152344Q291.4511358642578,169.49000561523437,292.8551358642578,170.7500056152344Q294.3671358642578,169.54400561523437,295.2671358642578,168.03200561523437Q295.3571358642578,167.88800561523436,295.3571358642578,167.7980056152344Q295.3571358642578,167.58200561523438,294.97913586425784,167.58200561523438L288.2831358642578,167.58200561523438L288.5171358642578,165.24200561523438L292.0631358642578,165.24200561523438L292.2431358642578,163.58600561523437L287.8331358642578,163.58600561523437L288.0671358642578,161.28200561523437L292.4951358642578,161.28200561523437L292.7111358642578,159.33800461523438L295.0691358642578,159.33800461523438L294.8531358642578,161.28200561523437L299.6951358642578,161.28200561523437L299.4611358642578,163.58600561523437L294.6011358642578,163.58600561523437ZM306.2471358642578,166.43000561523436L306.4631358642578,164.28800561523437L305.6711358642578,164.28800561523437L305.45513586425784,166.3040056152344Q305.7611358642578,166.08800561523438,306.08513586425784,165.83600561523437L306.5351358642578,167.69000561523438Q306.4631358642578,167.7620056152344,306.4631358642578,167.7620056152344L310.3511358642578,167.7620056152344L310.4591358642578,166.71800561523438L312.7451358642578,166.71800561523438L312.6371358642578,167.7620056152344L313.68113586425784,167.7620056152344L313.4471358642578,170.0120056152344L312.3851358642578,170.0120056152344L312.0251358642578,173.39600561523437Q311.8991358642578,174.63800561523436,311.1611358642578,175.24100561523437Q310.4231358642578,175.84400561523438,309.18113586425784,175.84400561523438Q307.8851358642578,175.84400561523438,307.2191358642578,175.17800561523438Q306.5531358642578,174.5120056152344,306.5531358642578,173.57600561523438Q306.5531358642578,173.45000561523437,306.5891358642578,173.16200561523436L309.2711358642578,172.73000561523438Q308.8211358642578,173.1080056152344,308.8211358642578,173.37800561523437Q308.8211358642578,173.50400561523438,308.9201358642578,173.58500561523437Q309.0191358642578,173.66600561523438,309.18113586425784,173.66600561523438Q309.4691358642578,173.66600561523438,309.60413586425784,173.47700561523436Q309.73913586425783,173.28800561523437,309.7931358642578,172.78400561523438L310.09913586425785,170.0120056152344L308.3891358642578,170.0120056152344Q308.6771358642578,170.48000561523438,308.8571358642578,171.21800561523438Q309.03713586425783,171.95600561523437,308.9831358642578,172.46000561523437L307.2551358642578,172.74800561523438Q307.3271358642578,172.10000561523438,307.0121358642578,171.5420056152344Q306.6971358642578,170.98400561523437,306.22913586425784,170.8040056152344L307.9391358642578,170.0120056152344L305.7611358642578,170.0120056152344L305.94113586425783,168.24800561523438Q305.6711358642578,168.5000056152344,305.1851358642578,168.78800561523437L304.7351358642578,172.94600561523438Q304.5731358642578,174.42200561523438,303.9881358642578,175.13300561523437Q303.4031358642578,175.84400561523438,302.1611358642578,175.84400561523438Q301.1891358642578,175.84400561523438,300.66713586425783,175.29500561523437Q300.1451358642578,174.74600561523437,300.1451358642578,173.86400561523436Q300.1451358642578,172.74800561523438,300.9371358642578,171.61400561523436L302.4671358642578,171.57800561523436Q302.21513586425783,171.84800561523437,302.0261358642578,172.37000561523436Q301.8371358642578,172.89200561523438,301.8371358642578,173.27000561523437Q301.8371358642578,173.55800561523438,302.0171358642578,173.55800561523438Q302.1611358642578,173.55800561523438,302.2781358642578,173.41400561523437Q302.3951358642578,173.27000561523437,302.43113586425784,172.96400561523438L302.7731358642578,169.92200561523438Q302.1971358642578,170.10200561523436,301.80113586425784,170.17400561523436L301.0631358642578,167.52800561523438Q301.9991358642578,167.58200561523438,303.06113586425784,167.34800561523437L303.4031358642578,164.28800561523437L302.3051358642578,164.28800561523437L302.5571358642578,162.00200561523437L303.65513586425783,162.00200561523437L303.9431358642578,159.35600561523438L306.2111358642578,159.35600561523438L305.9231358642578,162.00200561523437L306.8051358642578,162.00200561523437L306.5891358642578,164.16200561523436L309.0731358642578,164.16200561523436L309.1991358642578,163.06400561523438L307.0571358642578,163.06400561523438L307.2911358642578,160.79600561523438L309.4331358642578,160.79600561523438L309.5951358642578,159.35600561523438L311.8091358642578,159.35600561523438L311.64713586425785,160.79600561523438L314.1491358642578,160.79600561523438L313.9151358642578,163.06400561523438L311.4131358642578,163.06400561523438L311.28713586425783,164.16200561523436L314.1851358642578,164.16200561523436L313.9511358642578,166.43000561523436L306.2471358642578,166.43000561523436ZM325.8671358642578,166.86200561523438Q326.5871358642578,166.86200561523438,327.0191358642578,167.23100561523438Q327.4511358642578,167.60000561523438,327.4511358642578,168.21200561523438Q327.4511358642578,168.5360056152344,327.2891358642578,168.95000561523437Q326.1551358642578,171.68600561523436,323.6981358642578,173.29700561523438Q321.2411358642578,174.90800561523437,317.9471358642578,175.86200561523438L315.71513586425783,174.20600561523437Q319.3691358642578,173.19800561523436,321.3311358642578,172.11800561523438Q320.5391358642578,171.5960056152344,319.7651358642578,171.38000561523438L321.4031358642578,169.92200561523438Q322.3391358642578,170.46200561523438,322.9511358642578,171.00200561523437Q323.81513586425785,170.28200561523437,324.4271358642578,169.36400561523436Q324.4631358642578,169.32800561523436,324.4631358642578,169.23800561523439Q324.4631358642578,169.14800561523438,324.3911358642578,169.08500561523437Q324.3191358642578,169.02200561523438,324.22913586425784,169.02200561523438L321.8171358642578,169.00400561523438Q320.2691358642578,170.69600561523438,318.0911358642578,171.93800561523437L316.3631358642578,170.39000561523437Q319.0091358642578,169.18400561523438,320.35913586425784,167.54600561523438Q318.8471358642578,168.17600561523437,317.2811358642578,168.48200561523439L315.9131358642578,166.43000561523436Q318.7571358642578,166.05200561523438,320.8631358642578,164.93600561523436Q320.1251358642578,164.28800561523437,319.2251358642578,163.87400561523438L321.3311358642578,162.86600561523437Q321.8171358642578,163.22600561523439,322.4471358642578,163.94600561523438Q323.2031358642578,163.35200561523436,323.7611358642578,162.65000561523436Q323.81513586425785,162.5600056152344,323.81513586425785,162.5060056152344Q323.81513586425785,162.34400561523438,323.6531358642578,162.34400561523438L321.0071358642578,162.32600561523438Q319.8191358642578,163.35200561523436,318.3611358642578,164.09000561523436L316.2011358642578,162.83000561523437Q317.7311358642578,162.12800561523437,318.9911358642578,161.14700561523438Q320.2511358642578,160.16600561523438,320.57513586425785,159.35600561523438L323.23913586425783,159.71600561523437L322.82513586425785,160.3280056152344L325.4351358642578,160.3280056152344Q326.2091358642578,160.3280056152344,326.6411358642578,160.6790056152344Q327.0731358642578,161.0300056152344,327.0731358642578,161.60600561523438Q327.0731358642578,162.03800561523437,326.76713586425785,162.5420056152344Q326.2451358642578,163.40600561523436,325.28213586425784,164.35100561523439Q324.3191358642578,165.29600561523438,323.0231358642578,166.14200561523438L323.81513586425785,166.21400561523438Q323.6351358642578,166.57400561523437,323.4371358642578,166.84400561523438L325.8671358642578,166.86200561523438ZM340.19513586425785,175.88000561523438Q338.64713586425785,173.90000561523436,337.8191358642578,172.31600561523436Q336.9911358642578,170.73200561523439,336.5951358642578,169.04000561523438Q335.96513586425783,170.7860056152344,334.8311358642578,172.44200561523436Q333.6971358642578,174.09800561523437,331.6271358642578,175.91600561523438L328.94513586425785,174.72800561523437Q331.3031358642578,172.87400561523438,332.6801358642578,171.08300561523438Q334.0571358642578,169.2920056152344,334.6961358642578,167.47400561523438Q335.33513586425784,165.65600561523436,335.5871358642578,163.44200561523436L336.03713586425783,159.28400511523438L338.4671358642578,159.28400511523438L337.9991358642578,163.78400561523438Q337.9811358642578,166.07000561523438,338.44013586425785,167.75300561523437Q338.8991358642578,169.43600561523436,339.9431358642578,171.06500561523438Q340.9871358642578,172.69400561523437,342.9671358642578,174.96200561523438L340.19513586425785,175.88000561523438ZM356.0531358642578,164.97200561523437Q356.3951358642578,165.47600561523439,356.6201358642578,166.7090056152344Q356.8451358642578,167.94200561523436,356.8451358642578,169.11200561523438Q356.8451358642578,169.99400561523439,356.7011358642578,170.48000561523438L355.1351358642578,170.7860056152344Q355.31513586425785,170.21000561523437,355.31513586425785,169.23800561523439Q355.31513586425785,167.97800561523437,355.0631358642578,166.97000561523438L354.3071358642578,172.82000561523438Q354.10913586425784,174.31400561523438,353.4341358642578,175.03400561523438Q352.7591358642578,175.75400561523438,351.51713586425785,175.75400561523438Q350.7971358642578,175.75400561523438,350.3021358642578,175.41200561523436Q349.8071358642578,175.07000561523438,349.5551358642578,174.49400561523439Q349.12313586425785,175.21400561523438,348.5831358642578,175.91600561523438L346.1891358642578,175.16000561523438L346.1171358642578,175.75400561523438L343.9031358642578,175.75400561523438L345.25313586425784,164.57600561523438L344.5331358642578,164.57600561523438L344.76713586425785,162.36200561523438L345.5231358642578,162.36200561523438L345.9011358642578,159.26600551523438L348.1151358642578,159.26600551523438L347.7371358642578,162.36200561523438L348.34913586425785,162.36200561523438L348.13313586425784,164.57600561523438L347.4671358642578,164.57600561523438L346.24313586425785,174.74600561523437Q347.7371358642578,173.48600561523438,348.7991358642578,171.1730056152344Q349.8611358642578,168.86000561523437,350.2571358642578,165.31400561523438L350.4011358642578,164.0720056152344L348.56513586425785,164.0720056152344L348.7991358642578,161.8040056152344L350.6351358642578,161.8040056152344L350.9231358642578,159.26600551523438L353.1011358642578,159.26600551523438L352.7951358642578,161.8040056152344L353.9111358642578,161.8040056152344Q354.5951358642578,161.8040056152344,355.0541358642578,162.24500561523436Q355.51313586425783,162.68600561523436,355.51313586425783,163.35200561523436Q355.51313586425783,163.51400561523437,355.4951358642578,163.58600561523437L355.2971358642578,165.17000561523437L356.0531358642578,164.97200561523437ZM353.06513586425785,164.41400561523437Q353.06513586425785,164.27000561523437,352.9571358642578,164.17100561523438Q352.84913586425785,164.0720056152344,352.6871358642578,164.0720056152344L352.5251358642578,164.0720056152344L352.3631358642578,165.40400561523438Q351.8951358642578,169.18400561523438,350.8331358642578,171.90200561523437L351.7511358642578,171.83000561523437Q351.51713586425785,172.08200561523438,351.4001358642578,172.48700561523438Q351.2831358642578,172.89200561523438,351.2831358642578,173.23400561523437Q351.2831358642578,173.41400561523437,351.3191358642578,173.52200561523438Q351.3551358642578,173.63000561523438,351.4091358642578,173.63000561523438Q351.60713586425777,173.63000561523438,351.79613586425785,173.30600561523437Q351.9851358642578,172.98200561523439,352.07513586425785,172.20800561523438L353.06513586425785,164.48600561523438L353.06513586425785,164.41400561523437ZM346.9271358642578,170.19200561523436Q347.5571358642578,169.11200561523438,347.8361358642578,168.11300561523439Q348.1151358642578,167.11400561523436,348.1151358642578,166.10600561523438Q348.1151358642578,165.5300056152344,348.0431358642578,165.08000561523437L349.46513586425783,165.24200561523438Q349.6271358642578,165.80000561523437,349.6271358642578,166.53800561523437Q349.6271358642578,167.40200561523437,349.40213586425784,168.40100561523437Q349.1771358642578,169.40000561523436,348.7451358642578,170.40800561523437L346.9271358642578,170.19200561523436ZM367.9331358642578,163.78400561523438L367.6991358642578,165.80000561523437L370.6691358642578,165.80000561523437L370.41713586425783,168.06800561523437L367.46513586425783,168.06800561523437L367.2311358642578,170.22800561523437L370.4531358642578,170.22800561523437L370.2011358642578,172.49600561523437L366.97913586425784,172.49600561523437L366.6191358642578,175.91600561523438L364.31513586425785,175.91600561523438L365.5211358642578,164.70200561523438Q364.9811358642578,165.60200561523436,364.3331358642578,166.48400561523437L362.7311358642578,165.90800561523437L361.6871358642578,175.88000561523438L359.31113586425784,175.88000561523438L360.2111358642578,167.74400561523439L357.8531358642578,167.0420056152344Q358.7891358642578,166.3220056152344,359.7611358642578,164.81900561523437Q360.7331358642578,163.3160056152344,361.38113586425777,161.74100561523437Q362.0291358642578,160.16600561523438,362.06513586425785,159.30200581523437L364.58513586425784,159.69800561523436Q364.02713586425784,161.42600561523437,362.96513586425783,163.69400561523437L362.8031358642578,165.20600561523437Q363.7931358642578,164.14400561523436,364.4141358642578,162.5600056152344Q365.0351358642578,160.97600561523439,365.3051358642578,159.28400511523438L367.8611358642578,159.53600461523436Q367.5551358642578,160.50800561523437,367.1591358642578,161.48000561523438L371.6591358642578,161.48000561523438L371.40713586425784,163.78400561523438L367.9331358642578,163.78400561523438ZM375.3671358642578,176.60000561523438Q374.6291358642578,175.2860056152344,373.9811358642578,174.26900561523436Q373.3331358642578,173.25200561523437,372.6851358642578,172.49600561523437L374.1611358642578,171.38000561523438Q374.9711358642578,172.17200561523438,375.8621358642578,173.21600561523437Q376.75313586425784,174.26000561523438,377.4371358642578,175.21400561523438L375.3671358642578,176.60000561523438ZM398.6591358642578,159.5180056152344Q399.5591358642578,159.5180056152344,400.01813586425783,159.96800561523438Q400.4771358642578,160.41800561523436,400.4771358642578,161.17400561523436Q400.4771358642578,161.37200561523437,400.4591358642578,161.48000561523438L400.24313586425785,163.37000561523436L398.7851358642578,175.70000561523437L386.67113586425785,175.70000561523437L388.56113586425784,159.5180056152344L398.6591358642578,159.5180056152344ZM397.8851358642578,163.37000561523436L398.0111358642578,162.30800561523438L398.0111358642578,162.25400561523438Q398.0111358642578,162.09200561523437,397.9031358642578,161.98400561523437Q397.7951358642578,161.87600561523436,397.63313586425784,161.87600561523436L390.6491358642578,161.87600561523436L389.5871358642578,171.09200561523437Q390.46913586425785,170.13800561523436,391.1171358642578,168.87800561523437Q391.7651358642578,167.61800561523438,392.1251358642578,166.23200561523439L390.46913586425785,166.23200561523439L390.7031358642578,163.92800561523438L394.60913586425784,163.92800561523438L394.8071358642578,162.27200561523438L396.93113586425784,162.27200561523438L396.7331358642578,163.92800561523438L397.5071358642578,163.92800561523438L397.2551358642578,166.23200561523439L396.4811358642578,166.23200561523439L395.9951358642578,170.46200561523438Q395.8511358642578,171.75800561523437,395.3651358642578,172.40600561523436Q394.8791358642578,173.0540056152344,393.7811358642578,173.0540056152344Q392.9711358642578,173.0540056152344,392.4761358642578,172.61300561523439Q391.9811358642578,172.17200561523438,391.9811358642578,171.45200561523438L391.9811358642578,171.21800561523438Q391.5311358642578,171.99200561523438,391.02713586425784,172.60400561523437L389.4431358642578,172.20800561523438L389.3171358642578,173.34200561523437L396.6971358642578,173.34200561523437L397.8851358642578,163.37000561523436ZM393.9251358642578,166.23200561523439Q393.3671358642578,168.66200561523436,392.4131358642578,170.44400561523437L393.6551358642578,169.85000561523438Q393.2951358642578,170.22800561523437,393.2951358642578,170.60600561523438Q393.2951358642578,170.7500056152344,393.34913586425785,170.84000561523436Q393.4031358642578,170.93000561523436,393.49313586425785,170.93000561523436Q393.6191358642578,170.93000561523436,393.7271358642578,170.74100561523437Q393.83513586425784,170.55200561523438,393.8711358642578,170.26400561523437L394.3391358642578,166.23200561523439L393.9251358642578,166.23200561523439ZM411.7451358642578,175.95200561523438Q410.5391358642578,174.17000561523437,410.0891358642578,171.84800561523437Q409.1171358642578,174.00800561523437,407.26313586425783,175.95200561523438L404.6531358642578,175.14200561523438Q406.48913586425783,173.66600561523438,407.41613586425785,172.01000561523438Q408.3431358642578,170.35400561523437,408.67613586425784,168.63500561523438Q409.0091358642578,166.91600561523438,409.2971358642578,163.92800561523438L409.3511358642578,163.3340056152344L409.7471358642578,159.26600551523438L412.1591358642578,159.26600551523438L411.76313586425783,163.46000561523437Q411.4751358642578,166.2680056152344,411.3131358642578,167.40200561523437Q411.5111358642578,169.85000561523438,412.1681358642578,171.5960056152344Q412.82513586425785,173.34200561523437,414.1751358642578,174.87200561523437L411.7451358642578,175.95200561523438ZM404.8331358642578,173.7560056152344Q404.59913586425785,173.7560056152344,404.2751358642578,173.68400561523438L404.1131358642578,175.75400561523438L401.7731358642578,175.75400561523438L403.4471358642578,159.62600561523436L407.0111358642578,159.62600561523436Q407.7131358642578,159.62600561523436,408.1271358642578,160.08500561523437Q408.54113586425785,160.54400561523437,408.54113586425785,161.22800561523437Q408.54113586425785,161.58800561523438,408.39713586425785,162.02000561523437L406.9751358642578,166.21400561523438Q407.2271358642578,166.89800561523438,407.3621358642578,167.84300561523438Q407.4971358642578,168.78800561523437,407.4971358642578,169.61600561523437Q407.4971358642578,170.06600561523436,407.47913586425784,170.24600561523437Q407.33513586425784,171.75800561523437,406.7141358642578,172.75700561523436Q406.0931358642578,173.7560056152344,404.8331358642578,173.7560056152344ZM405.2831358642578,161.87600561523436L404.45513586425784,169.72400561523438L405.2651358642578,169.61600561523437Q404.9771358642578,169.88600561523438,404.7971358642578,170.39000561523437Q404.6171358642578,170.89400561523436,404.6171358642578,171.27200561523438Q404.6171358642578,171.61400561523436,404.7791358642578,171.61400561523436Q404.9231358642578,171.61400561523436,405.1031358642578,171.43400561523438Q405.2831358642578,171.25400561523438,405.4181358642578,170.89400561523436Q405.5531358642578,170.53400561523438,405.5531358642578,169.99400561523439Q405.5531358642578,169.49000561523437,405.4271358642578,168.47300561523437Q405.30113586425784,167.45600561523437,405.1031358642578,166.21400561523438L406.3631358642578,162.09200561523437L406.3631358642578,162.05600561523437Q406.3631358642578,161.98400561523437,406.3001358642578,161.93000561523436Q406.2371358642578,161.87600561523436,406.1651358642578,161.87600561523436L405.2831358642578,161.87600561523436ZM428.91713586425783,162.32600561523438L426.7931358642578,162.32600561523438Q426.9191358642578,162.77600561523437,426.9371358642578,163.20800561523438L424.84913586425785,163.38800561523436Q424.8671358642578,163.24400561523439,424.8671358642578,162.97400561523438Q424.8671358642578,162.65000561523436,424.8131358642578,162.32600561523438L424.77713586425784,162.32600561523438Q424.5791358642578,162.5780056152344,424.21913586425785,162.84800561523437L422.0771358642578,162.32600561523438L421.2131358642578,162.32600561523438Q421.2851358642578,162.59600561523436,421.3391358642578,163.01000561523438L423.4271358642578,162.66800561523436Q423.6971358642578,163.11800561523438,423.7511358642578,163.65800561523437L426.39713586425785,163.65800561523437Q427.2791358642578,163.65800561523437,427.79213586425783,164.08100561523437Q428.3051358642578,164.50400561523438,428.3051358642578,165.24200561523438Q428.3051358642578,165.45800561523438,428.28713586425783,165.5660056152344L427.94513586425785,167.8340056152344L425.89313586425783,167.0240056152344Q426.10913586425784,167.40200561523437,426.0551358642578,167.99600561523437L425.8031358642578,170.49800561523438L420.34913586425785,170.49800561523438L420.27713586425784,171.07400561523437L424.99313586425785,171.07400561523437Q425.76713586425785,171.07400561523437,426.2171358642578,171.46100561523437Q426.66713586425783,171.84800561523437,426.66713586425783,172.56800561523437L426.6491358642578,172.78400561523438L426.3431358642578,175.82600561523438L417.4871358642578,175.82600561523438L418.4051358642578,167.47400561523438L416.2991358642578,167.47400561523438L416.6771358642578,163.65800561523437L421.35713586425777,163.65800561523437Q421.2131358642578,163.42400561523436,421.0331358642578,163.24400561523439L419.4491358642578,163.38800561523436Q419.4491358642578,163.20800561523438,419.4761358642578,162.8750056152344Q419.50313586425784,162.5420056152344,419.4851358642578,162.32600561523438L419.3771358642578,162.32600561523438Q418.87313586425785,163.10000561523438,418.09913586425785,163.56800561523437L415.5971358642578,163.04600561523438Q416.5151358642578,162.5420056152344,417.2891358642578,161.48900561523436Q418.0631358642578,160.43600561523436,418.0631358642578,159.62600561523436Q418.0631358642578,159.44600561523438,418.0451358642578,159.37400561523438L420.3311358642578,159.60800561523436Q420.2411358642578,160.05800561523438,420.1871358642578,160.2920056152344L422.8691358642578,160.2920056152344L422.7071358642578,161.8040056152344Q423.0671358642578,161.39000561523437,423.2741358642578,160.86800561523438Q423.4811358642578,160.34600561523436,423.4811358642578,159.82400561523437Q423.4811358642578,159.5180056152344,423.44513586425785,159.37400561523438L425.7311358642578,159.60800561523436L425.62313586425785,160.2920056152344L429.13313586425784,160.2920056152344L428.91713586425783,162.32600561523438ZM425.76713586425785,166.16000561523438Q425.76713586425785,165.81800561523437,425.3891358642578,165.81800561523437L418.8191358642578,165.81800561523437L418.7651358642578,166.35800561523436L424.48913586425783,166.35800561523436Q425.1011358642578,166.35800561523436,425.4611358642578,166.59200561523437Q425.76713586425785,166.39400561523436,425.76713586425785,166.16000561523438ZM423.8231358642578,168.32000561523438Q423.8231358642578,168.15800561523437,423.72413586425785,168.06800561523437Q423.6251358642578,167.97800561523437,423.4631358642578,167.97800561523437L420.6191358642578,167.97800561523437L420.5291358642578,168.87800561523437L423.7691358642578,168.87800561523437L423.8231358642578,168.39200561523438L423.8231358642578,168.32000561523438ZM420.0791358642578,172.87400561523438L419.9531358642578,173.99000561523437L424.2551358642578,173.99000561523437L424.3451358642578,173.28800561523437L424.3451358642578,173.23400561523437Q424.3451358642578,173.0720056152344,424.2371358642578,172.97300561523437Q424.1291358642578,172.87400561523438,423.9671358642578,172.87400561523438L420.0791358642578,172.87400561523438ZM441.9851358642578,159.37400561523438Q442.7771358642578,159.37400561523438,443.1821358642578,159.82400561523437Q443.5871358642578,160.2740056152344,443.5871358642578,160.92200561523438Q443.5871358642578,161.0840056152344,443.5691358642578,161.17400561523436L442.66913586425784,168.77000561523437L440.1851358642578,168.77000561523437L440.0771358642578,169.83200561523438L442.4351358642578,169.83200561523438L442.2011358642578,172.02800561523438L439.8431358642578,172.02800561523438L439.6631358642578,173.63000561523438L442.3991358642578,173.63000561523438L442.1651358642578,175.82600561523438L434.1371358642578,175.82600561523438L434.3711358642578,173.63000561523438L437.4131358642578,173.63000561523438L437.57513586425785,172.02800561523438L435.10913586425784,172.02800561523438L435.3431358642578,169.83200561523438L437.8091358642578,169.83200561523438L437.91713586425783,168.77000561523437L435.3071358642578,168.77000561523437L436.3871358642578,159.37400561523438L441.9851358642578,159.37400561523438ZM435.0731358642578,172.2980056152344Q434.3711358642578,173.37800561523437,433.21013586425784,174.05300561523438Q432.0491358642578,174.72800561523437,430.5731358642578,174.89000561523437L429.9431358642578,172.19000561523438Q430.6271358642578,172.19000561523438,431.3471358642578,172.10000561523438L431.8691358642578,167.47400561523438L431.23913586425783,167.47400561523438L431.4731358642578,165.18800561523437L432.1211358642578,165.18800561523437L432.4811358642578,162.00200561523437L431.5811358642578,162.00200561523437L431.81513586425785,159.69800561523436L435.6491358642578,159.71600561523437L435.4151358642578,162.02000561523437L434.7311358642578,162.02000561523437L434.3711358642578,165.20600561523437L435.0551358642578,165.20600561523437L434.8211358642578,167.49200561523438L434.1191358642578,167.49200561523438L433.6871358642578,171.41600561523438Q434.19113586425783,171.16400561523437,434.7311358642578,170.8220056152344L435.0731358642578,172.2980056152344ZM438.3671358642578,161.60600561523438L438.1691358642578,163.22600561523439L438.90713586425784,163.22600561523439L439.1051358642578,161.60600561523438L438.3671358642578,161.60600561523438ZM441.2471358642578,162.03800561523437L441.2471358642578,161.96600561523437Q441.2471358642578,161.8040056152344,441.1391358642578,161.70500561523437Q441.0311358642578,161.60600561523438,440.8691358642578,161.60600561523438L440.4731358642578,161.60600561523438L440.2751358642578,163.22600561523439L440.90513586425783,163.22600561523439L440.7071358642578,164.91800561523436L440.0951358642578,164.91800561523436L439.89713586425785,166.53800561523437L440.6891358642578,166.53800561523437L441.2471358642578,162.03800561523437ZM437.7731358642578,166.53800561523437L438.5291358642578,166.53800561523437L438.7271358642578,164.91800561523436L437.9711358642578,164.91800561523436L437.7731358642578,166.53800561523437ZM447.3671358642578,176.60000561523438Q446.6291358642578,175.2860056152344,445.9811358642578,174.26900561523436Q445.3331358642578,173.25200561523437,444.6851358642578,172.49600561523437L446.1611358642578,171.38000561523438Q446.9711358642578,172.17200561523438,447.8621358642578,173.21600561523437Q448.7531358642578,174.26000561523438,449.4371358642578,175.21400561523438L447.3671358642578,176.60000561523438ZM464.6291358642578,166.35800561523436Q464.35913586425784,166.88000561523438,464.0891358642578,167.31200561523437L468.6611358642578,167.31200561523437Q469.3631358642578,167.31200561523437,469.70513586425784,167.67200561523438Q470.0471358642578,168.03200561523437,470.0471358642578,168.62600561523436Q470.0471358642578,168.96800561523438,469.8851358642578,169.49000561523437Q469.3991358642578,170.94800561523436,467.2931358642578,173.0540056152344Q468.0671358642578,173.70200561523438,468.5711358642578,174.42200561523438L466.7891358642578,175.97000561523438Q466.2851358642578,175.43000561523436,465.3581358642578,174.76400561523437Q464.43113586425784,174.09800561523437,463.2431358642578,173.52200561523438Q462.0551358642578,172.94600561523438,460.8491358642578,172.67600561523437L462.8291358642578,170.28200561523437Q464.4491358642578,171.05600561523437,465.6011358642578,171.81200561523437Q466.68113586425784,170.67800561523438,467.1131358642578,169.85000561523438Q467.1311358642578,169.81400561523438,467.1311358642578,169.74200561523438Q467.1311358642578,169.65200561523437,467.06813586425784,169.59800561523437Q467.0051358642578,169.54400561523437,466.9151358642578,169.54400561523437L462.81113586425784,169.50800561523437Q462.10913586425784,169.49000561523437,461.7131358642578,169.14800561523438Q461.3171358642578,168.80600561523437,461.3171358642578,168.24800561523438Q461.3171358642578,167.72600561523439,461.6411358642578,167.22200561523437Q461.8211358642578,166.93400561523438,462.14513586425784,166.35800561523436L459.64313586425783,166.35800561523436L459.8771358642578,164.0360056152344L463.1351358642578,164.0360056152344Q463.2791358642578,163.58600561523437,463.47713586425783,162.88400561523437L460.59713586425784,162.88400561523437L460.8491358642578,160.56200561523437L463.9811358642578,160.56200561523437L464.1971358642578,159.24800491523436L466.9151358642578,159.62600561523436Q466.8611358642578,159.95000561523437,466.7171358642578,160.56200561523437L471.18113586425784,160.56200561523437L470.9471358642578,162.88400561523437L466.0871358642578,162.88400561523437Q465.87113586425784,163.56800561523437,465.69113586425783,164.0360056152344L471.5051358642578,164.0360056152344L471.2711358642578,166.35800561523436L464.6291358642578,166.35800561523436ZM482.14313586425783,173.45000561523437L485.34713586425784,173.45000561523437L485.0951358642578,175.82600561523438L473.14313586425783,175.82600561523438L473.39513586425784,173.45000561523437L476.7791358642578,173.45000561523437L478.2551358642578,159.37400561523438L480.5411358642578,159.37400561523438L479.0651358642578,173.45000561523437L479.8571358642578,173.45000561523437L481.3331358642578,159.37400561523438L483.6191358642578,159.37400561523438L482.14313586425783,173.45000561523437ZM475.5551358642578,170.60600561523438Q475.60913586425784,169.38200561523436,475.3571358642578,167.66300561523437Q475.1051358642578,165.94400561523437,474.6371358642578,164.4590056152344Q474.16913586425784,162.97400561523438,473.5751358642578,162.36200561523438L476.0951358642578,161.40800561523437Q476.6351358642578,162.29000561523438,476.8871358642578,164.06300561523437Q477.1391358642578,165.83600561523437,477.1391358642578,167.72600561523439Q477.1391358642578,169.47200561523437,476.97713586425783,170.21000561523437L475.5551358642578,170.60600561523438ZM482.6831358642578,169.11200561523438Q482.95313586425783,168.80600561523437,483.3941358642578,167.67200561523438Q483.83513586425784,166.53800561523437,484.1591358642578,165.11600561523437Q484.4831358642578,163.69400561523437,484.4831358642578,162.5060056152344Q484.4831358642578,162.09200561523437,484.42913586425783,161.71400561523438L486.8051358642578,162.72200561523437Q486.7331358642578,163.96400561523438,486.2381358642578,165.57500561523437Q485.7431358642578,167.18600561523436,484.9871358642578,168.59000561523436Q484.2311358642578,169.99400561523439,483.4031358642578,170.67800561523438L482.6831358642578,169.11200561523438ZM491.43113586425784,174.63800561523436Q489.70313586425783,174.63800561523436,488.79413586425784,173.72000561523438Q487.8851358642578,172.80200561523438,487.8851358642578,170.98400561523437Q487.8851358642578,170.48000561523438,487.9751358642578,169.76000561523438L489.2531358642578,160.58000561523437L491.7911358642578,160.58000561523437L490.58513586425784,169.20200561523438Q490.44113586425783,170.21000561523437,490.44113586425783,170.7860056152344Q490.44113586425783,171.63200561523436,490.7201358642578,172.01000561523438Q490.9991358642578,172.38800561523436,491.5931358642578,172.38800561523436Q492.2231358642578,172.38800561523436,492.6191358642578,172.08200561523438Q493.0151358642578,171.77600561523437,493.2671358642578,171.08300561523438Q493.5191358642578,170.39000561523437,493.68113586425784,169.20200561523438L494.90513586425783,160.58000561523437L497.4251358642578,160.58000561523437L496.1291358642578,169.76000561523438Q495.7691358642578,172.46000561523437,494.5991358642578,173.54900561523436Q493.42913586425783,174.63800561523436,491.43113586425784,174.63800561523436ZM500.8271358642578,160.61600561523437L503.34713586425784,160.61600561523437L501.3851358642578,174.5840056152344L498.8651358642578,174.5840056152344L500.8271358642578,160.61600561523437ZM506.9831358642578,163.19000561523438Q507.00113586425783,163.10000561523438,507.00113586425783,162.92000561523437Q507.00113586425783,162.05600561523437,506.5151358642578,161.12000561523436Q506.0291358642578,160.18400561523438,505.1831358642578,159.75200561523437L508.0991358642578,159.21200561523438Q508.54913586425783,159.78800461523437,508.82813586425783,160.6970056152344Q509.1071358642578,161.60600561523438,509.1071358642578,162.39800561523438Q509.1071358642578,162.83000561523437,508.9991358642578,163.19000561523438L506.9831358642578,163.19000561523438ZM517.9091358642578,163.55000561523437Q517.8191358642578,164.82800561523436,517.2431358642577,165.5480056152344Q516.6671358642578,166.2680056152344,515.6231358642578,166.39400561523436Q516.1091358642578,166.75400561523438,516.1091358642578,167.51000561523438Q516.1091358642578,167.72600561523439,516.0371358642578,168.15800561523437Q515.5871358642578,170.49800561523438,513.8771358642578,172.44200561523436Q514.2551358642578,172.69400561523437,514.7231358642578,172.98200561523439Q515.0111358642578,173.14400561523436,515.6771358642578,173.28800561523437Q516.3431358642579,173.43200561523437,516.8111358642578,173.41400561523437L514.2731358642578,175.98800561523439Q512.8871358642577,175.30400561523436,511.8431358642578,174.26000561523438Q510.5111358642578,175.19600561523438,508.9631358642578,175.79000561523438L506.4251358642578,174.67400561523436Q507.3431358642578,174.33200561523438,508.40513586425783,173.74700561523437Q509.4671358642578,173.16200561523436,510.4571358642578,172.40600561523436Q509.5571358642578,170.89400561523436,509.0531358642578,168.69800561523436L510.8891358642578,168.5360056152344Q511.1591358642578,169.70600561523437,512.1491358642578,170.8580056152344Q513.1391358642578,169.76000561523438,513.4811358642578,168.73400561523437Q513.5171358642579,168.59000561523436,513.5171358642579,168.5540056152344Q513.5171358642579,168.28400561523438,513.1031358642579,168.28400561523438L508.69313586425784,168.28400561523438L508.9271358642578,166.08800561523438L510.4031358642578,166.08800561523438L508.2611358642578,165.33200561523438Q509.1971358642578,164.82800561523436,509.5931358642578,163.94600561523438Q509.98913586425783,163.06400561523438,510.16913586425784,161.48000561523438L510.3671358642578,159.71600561523437L514.2551358642578,159.71600561523437Q515.0471358642578,159.71600561523437,515.4791358642578,160.07600461523438Q515.9111358642579,160.43600561523436,515.9111358642579,161.0840056152344Q515.9111358642579,161.30000561523437,515.8931358642578,161.40800561523437L515.5871358642578,163.44200561523436Q515.5691358642578,163.51400561523437,515.5511358642577,163.60400561523437Q515.5331358642578,163.69400561523437,515.5331358642578,163.76600561523438Q515.5331358642578,163.91000561523438,515.7131358642578,163.91000561523438Q515.8571358642578,163.91000561523438,515.9651358642578,163.73900561523436Q516.0731358642579,163.56800561523437,516.0731358642579,163.3340056152344Q516.0731358642579,163.06400561523438,515.8751358642578,162.81200561523437L517.9091358642578,163.55000561523437ZM513.8591358642578,166.08800561523438Q512.9951358642578,165.60200561523436,512.9951358642578,164.61200561523438Q512.9951358642578,164.34200561523437,513.0311358642577,164.19800561523436L513.3731358642578,162.43400561523438L513.3731358642578,162.34400561523438Q513.3731358642578,162.20000561523437,513.2651358642578,162.10100561523439Q513.1571358642578,162.00200561523437,512.9951358642578,162.00200561523437L512.5451358642579,162.00200561523437L512.5271358642578,162.18200561523437Q512.3831358642578,163.69400561523437,512.0861358642578,164.59400561523438Q511.7891358642578,165.49400561523439,511.0151358642578,166.08800561523438L513.8591358642578,166.08800561523438ZM509.3411358642578,170.49800561523438Q509.39513586425784,170.7860056152344,509.39513586425784,171.07400561523437Q509.39513586425784,172.01000561523438,508.8461358642578,172.76600561523438Q508.2971358642578,173.52200561523438,507.5141358642578,173.94500561523438Q506.7311358642578,174.36800561523438,506.0831358642578,174.36800561523438Q505.52513586425783,174.36800561523438,505.0751358642578,174.08900561523438Q504.6251358642578,173.8100056152344,504.6251358642578,173.25200561523437Q504.6251358642578,173.12600561523436,504.64313586425783,173.0540056152344L505.56113586425784,166.52000561523437L505.56113586425784,166.44800561523436Q505.56113586425784,166.3040056152344,505.45313586425783,166.20500561523437Q505.3451358642578,166.10600561523438,505.1831358642578,166.10600561523438L504.71513586425783,166.10600561523438L504.9491358642578,164.0000056152344L506.37113586425784,164.0000056152344Q507.1991358642578,164.0000056152344,507.66713586425783,164.36900561523439Q508.1351358642578,164.73800561523439,508.1351358642578,165.45800561523438Q508.1351358642578,165.76400561523437,508.0991358642578,165.92600561523437L507.1271358642578,171.18200561523437Q507.2351358642578,171.21800561523438,507.2891358642578,171.21800561523438Q507.5411358642578,171.21800561523438,507.70313586425783,170.89400561523436Q507.8651358642578,170.57000561523438,507.8651358642578,170.15600561523436Q507.8651358642578,169.70600561523437,507.6851358642578,169.40000561523436L509.3411358642578,170.49800561523438ZM521.7071358642578,163.37000561523436Q521.7071358642578,162.83000561523437,521.4551358642578,162.14600561523437Q521.2031358642578,161.46200561523438,520.7441358642578,160.86800561523438Q520.2851358642579,160.2740056152344,519.7091358642579,159.98600561523438L522.8051358642579,159.44600561523438Q523.2911358642577,160.09400561523438,523.6241358642578,161.0480056152344Q523.9571358642578,162.00200561523437,523.9571358642578,162.79400561523437Q523.9571358642578,163.19000561523438,523.8851358642578,163.42400561523436L521.6891358642579,163.60400561523437L521.7071358642578,163.37000561523436ZM531.8411358642578,167.7620056152344L528.7451358642578,167.7620056152344L527.8091358642578,175.77200561523438L525.2531358642577,175.77200561523438L526.1891358642579,167.7620056152344L523.0931358642579,167.7620056152344L523.3451358642578,165.27800561523438L526.4771358642579,165.27800561523438L527.1611358642579,159.44600561523438L529.7171358642578,159.44600561523438L529.0331358642578,165.27800561523438L532.0931358642579,165.27800561523438L531.8411358642578,167.7620056152344ZM522.0131358642578,172.13600561523438Q522.3191358642578,172.2620056152344,522.5351358642579,171.83900561523438Q522.7511358642578,171.41600561523438,522.7511358642578,170.84000561523436Q522.7511358642578,170.30000561523437,522.5711358642578,169.99400561523439L524.9471358642578,171.09200561523437Q524.9111358642579,172.2800056152344,524.2991358642578,173.31500561523438Q523.6871358642578,174.35000561523438,522.7061358642578,174.95300561523436Q521.7251358642578,175.55600561523437,520.6631358642578,175.50200561523437Q520.1051358642578,175.46600561523437,519.6911358642578,175.06100561523436Q519.2771358642578,174.65600561523436,519.3491358642577,174.00800561523437L520.0871358642578,167.11400561523436L520.0871358642578,167.0420056152344Q520.0871358642578,166.89800561523438,519.9791358642578,166.79900561523436Q519.8711358642579,166.70000561523437,519.7091358642579,166.70000561523437L519.2411358642578,166.70000561523437L519.4751358642578,164.59400561523438L520.8971358642577,164.59400561523438Q522.6431358642578,164.59400561523438,522.6431358642578,166.17800561523438Q522.6431358642578,166.39400561523436,522.6251358642578,166.52000561523437L522.0131358642578,172.13600561523438Z" fill="#B2B2B2" fill-opacity="1"/></g></g></svg>