<svg xmlns="http://www.w3.org/2000/svg" xmlns:xlink="http://www.w3.org/1999/xlink" fill="none" version="1.1" width="792" height="197" viewBox="0 0 792 197"><defs><clipPath id="master_svg0_3_333"><rect x="0" y="0" width="792" height="197" rx="0"/></clipPath></defs><g clip-path="url(#master_svg0_3_333)"><g style="opacity:0.15000000596046448;"><path d="M7,189.195L33.825,162.37Q32.0793,160.511,31.0563,158.352Q28.6584,157.216,26.6299,155.187Q22.0161,150.574,22.0161,144.049L22.0161,129.435L7.402597,129.435L7.402597,128.296L22.0161,128.296L22.0161,99.0693L7.402597,99.0693L7.402597,97.9306L22.0161,97.9306L22.0161,68.70349999999999L7.402597,68.70349999999999L7.402597,67.56479999999999L22.0161,67.56479999999999L22.0161,52.9513Q22.0161,46.4265,26.6299,41.8128Q28.6583,39.7843,31.0562,38.6477Q32.0793,36.4893,33.825,34.6302L7,7.805195L7.805195,7L34.6302,33.825Q36.4893,32.0793,38.6477,31.0562Q39.7843,28.6584,41.8128,26.6299Q46.4265,22.0161,52.9513,22.0161L67.56479999999999,22.0161L67.56479999999999,7.402597L68.70349999999999,7.402597L68.70349999999999,22.0161L97.9306,22.0161L97.9306,7.402597L99.0693,7.402597L99.0693,22.0161L128.296,22.0161L128.296,7.402597L129.435,7.402597L129.435,22.0161L144.049,22.0161Q150.574,22.0161,155.187,26.6299Q157.216,28.6583,158.352,31.0562Q160.511,32.0793,162.37,33.825L189.195,7L190,7.805195L163.175,34.6302Q164.921,36.4893,165.944,38.6477Q168.342,39.7843,170.37,41.8128Q174.984,46.4264,174.984,52.9513L174.984,67.56479999999999L189.597,67.56479999999999L189.597,68.70349999999999L174.984,68.70349999999999L174.984,97.9306L189.597,97.9306L189.597,99.0693L174.984,99.0693L174.984,128.296L819.5,128.296L819.5,129.435L174.984,129.435L174.984,144.049Q174.984,150.574,170.37,155.187Q168.342,157.216,165.944,158.352Q164.921,160.511,163.175,162.37L190,189.195L189.195,190L162.37,163.175Q160.511,164.921,158.352,165.944Q157.216,168.342,155.187,170.37Q150.574,174.984,144.049,174.984L129.435,174.984L129.435,189.597L128.296,189.597L128.296,174.984L99.0693,174.984L99.0693,189.597L97.9306,189.597L97.9306,174.984L68.70349999999999,174.984L68.70349999999999,189.597L67.56479999999999,189.597L67.56479999999999,174.984L52.9513,174.984Q46.4264,174.984,41.8128,170.37Q39.7843,168.342,38.6477,165.944Q36.4893,164.921,34.6302,163.175L7.805195,190L7,189.195ZM45.3598,29.6076Q42.6633,29.6076,40.2932,30.3956Q41.2308,28.8222,42.618,27.4351Q46.8982,23.1549,52.9513,23.1549L67.56479999999999,23.1549L67.56479999999999,28.5303Q66.387,29.051,65.2329,29.6076L45.3598,29.6076ZM68.70349999999999,28.0376L68.70349999999999,23.1549L85.2104,23.1549Q76.7545,24.6323,68.72890000000001,28.0269L68.70349999999999,28.0376ZM128.27100000000002,28.0269Q120.245,24.6323,111.79,23.1549L128.296,23.1549L128.296,28.0376L128.27100000000002,28.0269ZM129.435,28.5303L129.435,23.1549L144.049,23.1549Q150.102,23.1548,154.382,27.4351Q155.769,28.8222,156.707,30.3956Q154.337,29.6076,151.64,29.6076L131.767,29.6076Q130.613,29.051,129.435,28.5303ZM69.17240000000001,29.0756Q82.9106,23.2649,97.9306,23.1569L97.9306,29.6076L68.70349999999999,29.6076L68.70349999999999,29.2758Q68.9375,29.175,69.17240000000001,29.0756ZM128.296,29.6076L99.0693,29.6076L99.0693,23.1569Q114.089,23.2649,127.828,29.0756Q128.063,29.175,128.296,29.2758L128.296,29.6076ZM62.9678,30.7463Q57.5836,33.565799999999996,52.734,37.199L38.3474,37.199Q38.443799999999996,34.358000000000004,39.51,31.9185Q42.1921,30.7463,45.3598,30.7463L62.9678,30.7463ZM67.56479999999999,30.7463L67.56479999999999,37.199L54.6602,37.199Q59.783,33.524699999999996,65.4942,30.7463L67.56479999999999,30.7463ZM97.9306,30.7463L97.9306,37.199L68.70349999999999,37.199L68.70349999999999,30.7463L97.9306,30.7463ZM128.296,30.7463L128.296,37.199L99.0693,37.199L99.0693,30.7463L128.296,30.7463ZM131.506,30.7463Q137.217,33.5246,142.34,37.199L129.435,37.199L129.435,30.7463L131.506,30.7463ZM157.49,31.9185Q158.556,34.3579,158.653,37.199L144.266,37.199Q139.416,33.565799999999996,134.03199999999998,30.7463L151.64,30.7463Q154.808,30.7463,157.49,31.9185ZM37.986999999999995,32.7018Q37.395700000000005,34.4804,37.2481,36.4429L35.435900000000004,34.630700000000004Q36.6436,33.502300000000005,37.986999999999995,32.7018ZM159.013,32.7018Q160.356,33.5024,161.564,34.630700000000004L159.752,36.4429Q159.604,34.4805,159.013,32.7018ZM32.7018,37.986999999999995Q33.502300000000005,36.6436,34.630700000000004,35.435900000000004L36.4429,37.2481Q34.4804,37.395700000000005,32.7018,37.986999999999995ZM164.298,37.9871Q162.52,37.395700000000005,160.557,37.2481L162.369,35.435900000000004Q163.498,36.6436,164.298,37.9871ZM51.2525,38.3378Q47.9054,40.9766,44.8218,44.0166L39.1429,38.3378L51.2525,38.3378ZM67.56479999999999,38.3378L53.1151,38.3378Q49.1924,41.3076,45.627,44.8218L67.56479999999999,66.7596L67.56479999999999,38.3378ZM97.9306,38.3378L68.70349999999999,38.3378L68.70349999999999,67.56479999999999L75.4661,67.56479999999999Q85.1939,60.1389,97.9306,59.977L97.9306,38.3378ZM128.296,38.3378L99.0693,38.3378L99.0693,59.977Q111.806,60.1389,121.534,67.56479999999999L128.296,67.56479999999999L128.296,38.3378ZM143.885,38.3378L129.435,38.3378L129.435,66.7596L151.373,44.8218Q147.808,41.3076,143.885,38.3378ZM145.747,38.3378Q149.095,40.9766,152.178,44.0166L157.857,38.3378L145.747,38.3378ZM31.9185,39.5099Q34.358000000000004,38.443799999999996,37.199,38.3474L37.199,52.734Q33.565799999999996,57.5837,30.7463,62.9679L30.7463,45.3598Q30.7463,42.1921,31.9185,39.5099ZM166.254,62.9678Q163.434,57.5835,159.801,52.7339L159.801,38.3474Q162.642,38.443799999999996,165.082,39.51Q166.254,42.1921,166.254,45.3598L166.254,62.9678ZM38.3378,51.2525Q40.9766,47.9054,44.0166,44.8218L38.3378,39.1429L38.3378,51.2525ZM158.662,51.2524Q156.023,47.9053,152.983,44.8218L158.662,39.143L158.662,51.2524ZM28.5303,67.56479999999999L23.1549,67.56479999999999L23.1549,52.9513Q23.1549,46.8982,27.4351,42.618Q28.8222,41.2308,30.3956,40.2932Q29.6076,42.6633,29.6076,45.3598L29.6076,65.2329Q29.051,66.3871,28.5303,67.56479999999999ZM167.392,45.3598Q167.392,42.6633,166.604,40.2933Q168.178,41.2308,169.565,42.618Q173.845,46.8981,173.845,52.9513L173.845,67.56479999999999L168.47,67.56479999999999Q167.949,66.3869,167.392,65.2329L167.392,45.3598ZM38.3378,53.1151L38.3378,67.56479999999999L66.7596,67.56479999999999L44.8218,45.627Q41.3077,49.1923,38.3378,53.1151ZM158.662,67.56479999999999L158.662,53.1151Q155.692,49.1923,152.178,45.627L130.24,67.56479999999999L158.662,67.56479999999999ZM30.7463,65.4942Q33.524699999999996,59.783,37.199,54.6602L37.199,67.56479999999999L30.7463,67.56479999999999L30.7463,65.4942ZM166.254,67.56479999999999L159.801,67.56479999999999L159.801,54.6602Q163.475,59.7829,166.254,65.49430000000001L166.254,67.56479999999999ZM97.9306,67.56479999999999L97.9306,61.1158Q86.3908,61.267,77.3969,67.56479999999999L97.9306,67.56479999999999ZM99.0693,67.56479999999999L119.603,67.56479999999999Q110.609,61.267,99.0693,61.1158L99.0693,67.56479999999999ZM28.0269,68.72890000000001Q24.6323,76.7544,23.1549,85.2103L23.1549,68.70349999999999L28.0376,68.70349999999999L28.0269,68.72890000000001ZM29.6076,68.70349999999999L29.6076,97.9306L23.1569,97.9306Q23.2649,82.9105,29.0756,69.17240000000001Q29.1749,68.9376,29.2758,68.70349999999999L29.6076,68.70349999999999ZM30.7463,68.70349999999999L37.199,68.70349999999999L37.199,97.9306L30.7463,97.9306L30.7463,68.70349999999999ZM38.3378,68.70349999999999L38.3378,97.9306L59.977,97.9306Q60.1389,85.1939,67.56479999999999,75.4661L67.56479999999999,68.70349999999999L38.3378,68.70349999999999ZM71.6627,70.8575L69.50880000000001,68.70349999999999L74.043,68.70349999999999Q72.8283,69.72120000000001,71.6627,70.8575ZM72.468,71.6628Q74.1116,70.0617,75.8559,68.70349999999999L97.9306,68.70349999999999L97.9306,97.1254L72.468,71.6628ZM99.0693,97.1254L99.0693,68.70349999999999L121.144,68.70349999999999Q122.888,70.0617,124.532,71.6628L99.0693,97.1254ZM125.337,70.8575Q124.172,69.72120000000001,122.957,68.70349999999999L127.491,68.70349999999999L125.337,70.8575ZM158.662,97.9306L158.662,68.70349999999999L129.435,68.70349999999999L129.435,75.4661Q136.861,85.194,137.023,97.9306L158.662,97.9306ZM166.254,97.9306L159.801,97.9306L159.801,68.70349999999999L166.254,68.70349999999999L166.254,97.9306ZM167.924,69.17240000000001Q173.735,82.9104,173.843,97.9306L167.392,97.9306L167.392,68.70349999999999L167.724,68.70349999999999Q167.825,68.9384,167.924,69.17240000000001ZM168.962,68.70349999999999L173.845,68.70349999999999L173.845,85.2099Q172.368,76.7542,168.973,68.72890000000001L168.962,68.70349999999999ZM70.8575,71.6627Q69.72120000000001,72.8283,68.70349999999999,74.043L68.70349999999999,69.50880000000001L70.8575,71.6627ZM126.142,71.6627L128.296,69.50880000000001L128.296,74.043Q127.279,72.8283,126.142,71.6627ZM97.1254,97.9306L68.70349999999999,97.9306L68.70349999999999,75.8559Q70.0617,74.1116,71.6628,72.468L97.1254,97.9306ZM125.337,72.468Q126.938,74.1116,128.296,75.8559L128.296,97.9306L99.8746,97.9306L125.337,72.468ZM67.56479999999999,97.9306L67.56479999999999,77.3969Q61.267,86.3907,61.1158,97.9306L67.56479999999999,97.9306ZM129.435,97.9306L135.884,97.9306Q135.733,86.3908,129.435,77.3969L129.435,97.9306ZM29.0756,127.828Q23.2649,114.089,23.1569,99.0693L29.6076,99.0693L29.6076,128.296L29.2758,128.296Q29.175,128.063,29.0756,127.828ZM30.7463,99.0693L37.199,99.0693L37.199,128.296L30.7463,128.296L30.7463,99.0693ZM38.3378,99.0693L38.3378,128.296L67.56479999999999,128.296L67.56479999999999,121.534Q60.1388,111.806,59.977,99.0693L38.3378,99.0693ZM67.56479999999999,99.0693L61.1158,99.0693Q61.267,110.609,67.56479999999999,119.603L67.56479999999999,99.0693ZM71.6628,124.532Q70.0617,122.888,68.70349999999999,121.144L68.70349999999999,99.0693L97.1254,99.0693L71.6628,124.532ZM99.8746,99.0693L128.296,99.0693L128.296,121.144Q126.938,122.888,125.337,124.532L99.8746,99.0693ZM158.662,128.296L158.662,99.0693L137.023,99.0693Q136.861,111.806,129.435,121.534L129.435,128.296L158.662,128.296ZM129.435,99.0693L129.435,119.603Q135.733,110.609,135.884,99.0693L129.435,99.0693ZM166.254,128.296L159.801,128.296L159.801,99.0693L166.254,99.0693L166.254,128.296ZM167.392,128.296L167.392,99.0693L173.843,99.0693Q173.735,114.09,167.924,127.828Q167.825,128.062,167.724,128.296L167.392,128.296ZM97.9306,99.8746L97.9306,128.296L75.8558,128.296Q74.1116,126.938,72.468,125.337L97.9306,99.8746ZM124.532,125.337Q122.888,126.938,121.144,128.296L99.0693,128.296L99.0693,99.8746L124.532,125.337ZM28.0376,128.296L23.1549,128.296L23.1549,111.79Q24.6323,120.246,28.0269,128.27100000000002L28.0376,128.296ZM168.973,128.27100000000002Q172.368,120.246,173.845,111.79L173.845,128.296L168.962,128.296L168.973,128.27100000000002ZM126.142,125.337Q127.279,124.172,128.296,122.957L128.296,127.491L126.142,125.337ZM70.8575,125.337L68.70349999999999,127.491L68.70349999999999,122.957Q69.72120000000001,124.172,70.8575,125.337ZM71.6627,126.142Q72.8283,127.279,74.043,128.296L69.50880000000001,128.296L71.6627,126.142ZM125.337,126.142L127.491,128.296L122.957,128.296Q124.172,127.279,125.337,126.142ZM29.6076,151.64Q29.6076,154.337,30.3956,156.707Q28.8222,155.769,27.4351,154.382Q23.1548,150.102,23.1549,144.049L23.1549,129.435L28.5303,129.435Q29.051,130.613,29.6076,131.767L29.6076,151.64ZM30.7463,129.435L37.199,129.435L37.199,142.34Q33.5246,137.217,30.7463,131.506L30.7463,129.435ZM38.3378,129.435L38.3378,143.885Q41.3076,147.808,44.8218,151.373L66.7596,129.435L38.3378,129.435ZM68.70349999999999,158.662L97.9306,158.662L97.9306,137.023Q85.1939,136.861,75.4662,129.435L68.70349999999999,129.435L68.70349999999999,158.662ZM97.9306,129.435L77.3968,129.435Q86.3907,135.733,97.9306,135.884L97.9306,129.435ZM99.0693,129.435L99.0693,135.884Q110.609,135.733,119.603,129.435L99.0693,129.435ZM99.0693,158.662L128.296,158.662L128.296,129.435L121.534,129.435Q111.806,136.861,99.0693,137.023L99.0693,158.662ZM158.662,143.885L158.662,129.435L130.24,129.435L152.178,151.373Q155.692,147.808,158.662,143.885ZM166.254,131.506Q163.475,137.217,159.801,142.34L159.801,129.435L166.254,129.435L166.254,131.506ZM168.47,129.435L173.845,129.435L173.845,144.049Q173.845,150.102,169.565,154.382Q168.178,155.769,166.604,156.707Q167.392,154.337,167.392,151.64L167.392,131.767Q167.949,130.613,168.47,129.435ZM53.115,158.662L67.56479999999999,158.662L67.56479999999999,130.24L45.627,152.178Q49.1922,155.692,53.115,158.662ZM129.435,158.662L143.885,158.662Q147.808,155.692,151.373,152.178L129.435,130.24L129.435,158.662ZM30.7463,134.03199999999998Q33.565799999999996,139.416,37.199,144.266L37.199,158.653Q34.3579,158.556,31.9185,157.49Q30.7463,154.808,30.7463,151.64L30.7463,134.03199999999998ZM165.082,157.49Q162.642,158.556,159.801,158.653L159.801,144.266Q163.434,139.416,166.254,134.03199999999998L166.254,151.64Q166.254,154.808,165.082,157.49ZM38.3378,145.747L38.3378,157.857L44.0166,152.178Q40.9766,149.095,38.3378,145.747ZM158.662,145.748Q156.023,149.095,152.983,152.178L158.662,157.857L158.662,145.748ZM51.2523,158.662L39.143,158.662L44.8218,152.983Q47.9053,156.023,51.2523,158.662ZM145.747,158.662Q149.095,156.023,152.178,152.983L157.857,158.662L145.747,158.662ZM34.630700000000004,161.564L36.4429,159.752Q34.4805,159.604,32.7017,159.013Q33.5024,160.356,34.630700000000004,161.564ZM164.298,159.013Q163.498,160.356,162.369,161.564L160.557,159.752Q162.52,159.604,164.298,159.013ZM39.51,165.082Q38.443799999999996,162.642,38.3474,159.801L52.7338,159.801Q57.5834,163.434,62.9677,166.254L45.3598,166.254Q42.1921,166.254,39.51,165.082ZM65.4941,166.254Q59.7828,163.475,54.6601,159.801L67.56479999999999,159.801L67.56479999999999,166.254L65.4941,166.254ZM68.70349999999999,166.254L68.70349999999999,159.801L97.9306,159.801L97.9306,166.254L68.70349999999999,166.254ZM99.0693,166.254L99.0693,159.801L128.296,159.801L128.296,166.254L99.0693,166.254ZM129.435,166.254L129.435,159.801L142.34,159.801Q137.217,163.475,131.506,166.254L129.435,166.254ZM134.03199999999998,166.254Q139.416,163.434,144.266,159.801L158.653,159.801Q158.556,162.642,157.49,165.082Q154.808,166.254,151.64,166.254L134.03199999999998,166.254ZM37.9871,164.298Q36.6436,163.498,35.435900000000004,162.369L37.2481,160.557Q37.395700000000005,162.52,37.9871,164.298ZM159.013,164.298Q159.604,162.52,159.752,160.557L161.564,162.369Q160.356,163.498,159.013,164.298ZM67.56479999999999,168.47L67.56479999999999,173.845L52.9513,173.845Q46.8981,173.845,42.618,169.565Q41.2308,168.178,40.2932,166.604Q42.6633,167.392,45.3598,167.392L65.2328,167.392Q66.3869,167.949,67.56479999999999,168.47ZM151.64,167.392Q154.337,167.392,156.707,166.604Q155.769,168.178,154.382,169.565Q150.102,173.845,144.049,173.845L129.435,173.845L129.435,168.47Q130.613,167.949,131.767,167.392L151.64,167.392ZM68.70349999999999,167.392L97.9306,167.392L97.9306,173.843Q82.9105,173.735,69.17240000000001,167.924Q68.9374,167.825,68.70349999999999,167.724L68.70349999999999,167.392ZM127.828,167.924Q114.089,173.735,99.0693,173.843L99.0693,167.392L128.296,167.392L128.296,167.724Q128.063,167.825,127.828,167.924ZM128.296,168.962L128.296,173.845L111.79,173.845Q120.246,172.368,128.27100000000002,168.973L128.296,168.962ZM68.72890000000001,168.973Q76.7542,172.368,85.2099,173.845L68.70349999999999,173.845L68.70349999999999,168.962L68.72890000000001,168.973Z" fill-rule="evenodd" fill="#C2C2C2" fill-opacity="1" style="mix-blend-mode:passthrough"/></g><g><path d="M56.547799999999995,61.8174553125L47.147,88.8521953125L66.0532,88.8521953125L82.8647,137.22889531250001L63.8346,137.22889531250001L47.0851,89.0302953125L31.0936382,135.0187953125C30.717712,136.0998953125,31.520425,137.22889531250001,32.66502,137.22889531250001L163.642,137.22889531250001C164.787,137.22889531250001,165.589,136.0998953125,165.213,135.0187953125L139.75900000000001,61.8174553125C139.527,61.1485363125,138.89600000000002,60.7001953125,138.188,60.7001953125L108.9288,60.7001953125C108.2206,60.7001953125,107.59,61.1485363125,107.3574,61.8174553125L98.1535,88.2861953125L88.9496,61.8174553125C88.717,61.1485363125,88.0864,60.7001953125,87.37819999999999,60.7001953125L58.1191,60.7001953125C57.4109,60.7001953125,56.7804,61.1485363125,56.547799999999995,61.8174553125ZM114.4769,135.8252953125C114.5183,135.5658953125,114.4983,135.2908953125,114.4037,135.0187953125L98.3503,88.8521953125L117.1833,88.8521953125L133.995,137.22889531250001L114.9647,137.22889531250001L114.4769,135.8252953125Z" fill-rule="evenodd" fill="#262626" fill-opacity="1"/></g><g><path d="M212.62161938476564,75.0240009765625Q212.93361938476562,74.4000019765625,213.79161938476562,74.4000019765625L224.6336193847656,74.4000019765625Q225.02361938476562,74.4000019765625,225.29661938476562,74.6730039765625Q225.56961938476562,74.9460009765625,225.56961938476562,75.3360009765625L225.56961938476562,128.0640009765625Q225.56961938476562,128.4540009765625,225.29661938476562,128.7270009765625Q225.02361938476562,129.0000009765625,224.6336193847656,129.0000009765625L213.55761938476562,129.0000009765625Q213.16761938476563,129.0000009765625,212.89461938476563,128.7270009765625Q212.62161938476564,128.4540009765625,212.62161938476564,128.0640009765625L212.62161938476564,94.6020009765625Q212.62161938476564,94.2900009765625,212.46561938476563,94.2510009765625Q212.30961938476563,94.2120009765625,212.15361938476562,94.4460009765625L206.6936193847656,103.9620009765625Q206.38161938476563,104.5860009765625,206.22561938476562,104.5860009765625Q206.06961938476562,104.5860009765625,205.67961938476563,103.9620009765625L200.21961938476562,94.4460009765625Q200.06361938476562,94.2120009765625,199.9076193847656,94.2120009765625Q199.75161938476563,94.2120009765625,199.75161938476563,94.5240009765625L199.75161938476563,128.0640009765625Q199.75161938476563,128.4540009765625,199.47861938476564,128.7270009765625Q199.2056193847656,129.0000009765625,198.81561938476563,129.0000009765625L187.73961938476563,129.0000009765625Q187.34961938476562,129.0000009765625,187.07661938476562,128.7270009765625Q186.80361938476562,128.4540009765625,186.80361938476562,128.0640009765625L186.80361938476562,75.3360009765625Q186.80361938476562,74.9460009765625,187.07661938476562,74.6730039765625Q187.34961938476562,74.4000019765625,187.73961938476563,74.4000019765625L198.65961938476562,74.4000019765625Q199.43961938476562,74.4000019765625,199.82961938476564,75.0240009765625L206.06961938476562,86.33400097656249Q206.30361938476562,86.6460009765625,206.53761938476563,86.33400097656249L212.62161938476564,75.0240009765625ZM246.62961938476562,129.6240009765625Q239.06361938476562,129.6240009765625,234.57861938476563,125.25600097656249Q230.09361938476562,120.8880009765625,230.09361938476562,113.4780009765625L230.09361938476562,89.9220009765625Q230.09361938476562,82.5900009765625,234.57861938476563,78.1830009765625Q239.06361938476562,73.7760009765625,246.62961938476562,73.7760009765625Q254.11761938476562,73.7760009765625,258.68061938476563,78.1830009765625Q263.2436193847656,82.5900009765625,263.2436193847656,89.9220009765625L263.2436193847656,113.4780009765625Q263.2436193847656,120.8880009765625,258.68061938476563,125.25600097656249Q254.11761938476562,129.6240009765625,246.62961938476562,129.6240009765625ZM246.62961938476562,118.54800097656249Q248.34561938476563,118.54800097656249,249.32061938476562,117.3390009765625Q250.29561938476562,116.1300009765625,250.29561938476562,114.02400097656249L250.29561938476562,89.3760009765625Q250.29561938476562,87.2700009765625,249.32061938476562,86.0610009765625Q248.34561938476563,84.8520009765625,246.62961938476562,84.8520009765625Q244.91361938476564,84.8520009765625,243.97761938476563,86.0610009765625Q243.04161938476562,87.2700009765625,243.04161938476562,89.3760009765625L243.04161938476562,114.02400097656249Q243.04161938476562,116.1300009765625,243.97761938476563,117.3390009765625Q244.91361938476564,118.54800097656249,246.62961938476562,118.54800097656249ZM283.2896193847656,129.6240009765625Q278.53161938476563,129.6240009765625,274.9436193847656,127.7910009765625Q271.35561938476565,125.9580009765625,269.3666193847656,122.64300097656249Q267.37761938476564,119.32800097656249,267.37761938476564,115.1160009765625L267.37761938476564,112.6980009765625Q267.37761938476564,112.3080009765625,267.6506193847656,112.0350009765625Q267.92361938476563,111.76200097656249,268.3136193847656,111.76200097656249L279.23361938476563,111.76200097656249Q279.6236193847656,111.76200097656249,279.89661938476564,112.0350009765625Q280.1696193847656,112.3080009765625,280.1696193847656,112.6980009765625L280.1696193847656,114.49200097656251Q280.1696193847656,116.3640009765625,281.06661938476566,117.4560009765625Q281.9636193847656,118.54800097656249,283.3676193847656,118.54800097656249Q284.77161938476564,118.54800097656249,285.66861938476563,117.4950009765625Q286.5656193847656,116.4420009765625,286.5656193847656,114.80400097656249Q286.5656193847656,113.01000097656251,285.16161938476563,111.5670009765625Q283.75761938476563,110.1240009765625,279.54561938476564,107.0820009765625Q275.6456193847656,104.2740009765625,273.14961938476563,102.0510009765625Q270.65361938476565,99.82800097656249,268.8596193847656,96.5130009765625Q267.0656193847656,93.1980009765625,267.0656193847656,88.8300009765625Q267.0656193847656,84.3840009765625,269.0546193847656,80.9520009765625Q271.04361938476563,77.5200009765625,274.67061938476564,75.6480009765625Q278.29761938476565,73.7760009765625,282.9776193847656,73.7760009765625Q287.73561938476564,73.7760009765625,291.3626193847656,75.6870009765625Q294.98961938476566,77.5980009765625,296.97861938476564,81.0690009765625Q298.9676193847656,84.5400009765625,298.9676193847656,89.0640009765625L298.9676193847656,90.9360009765625Q298.9676193847656,91.3260009765625,298.69461938476564,91.59900097656251Q298.4216193847656,91.8720009765625,298.03161938476563,91.8720009765625L287.1896193847656,91.8720009765625Q286.7996193847656,91.8720009765625,286.52661938476564,91.59900097656251Q286.2536193847656,91.3260009765625,286.2536193847656,90.9360009765625L286.2536193847656,88.7520009765625Q286.2536193847656,87.0360009765625,285.31761938476564,85.9440009765625Q284.3816193847656,84.8520009765625,282.9776193847656,84.8520009765625Q281.5736193847656,84.8520009765625,280.71561938476566,85.9440009765625Q279.8576193847656,87.0360009765625,279.8576193847656,88.8300009765625Q279.8576193847656,90.7800009765625,281.1836193847656,92.3400009765625Q282.50961938476564,93.9000009765625,286.5656193847656,96.8640009765625Q291.4796193847656,100.5300009765625,293.97561938476565,102.79200097656249Q296.47161938476563,105.05400097656249,297.8756193847656,107.8230009765625Q299.2796193847656,110.5920009765625,299.2796193847656,114.3360009765625Q299.2796193847656,121.3560009765625,294.87261938476564,125.4900009765625Q290.46561938476566,129.6240009765625,283.2896193847656,129.6240009765625ZM318.70161938476565,129.6240009765625Q313.9436193847656,129.6240009765625,310.35561938476565,127.7910009765625Q306.7676193847656,125.9580009765625,304.77861938476565,122.64300097656249Q302.7896193847656,119.32800097656249,302.7896193847656,115.1160009765625L302.7896193847656,112.6980009765625Q302.7896193847656,112.3080009765625,303.06261938476564,112.0350009765625Q303.3356193847656,111.76200097656249,303.72561938476565,111.76200097656249L314.6456193847656,111.76200097656249Q315.0356193847656,111.76200097656249,315.3086193847656,112.0350009765625Q315.58161938476565,112.3080009765625,315.58161938476565,112.6980009765625L315.58161938476565,114.49200097656251Q315.58161938476565,116.3640009765625,316.47861938476564,117.4560009765625Q317.3756193847656,118.54800097656249,318.7796193847656,118.54800097656249Q320.1836193847656,118.54800097656249,321.0806193847656,117.4950009765625Q321.9776193847656,116.4420009765625,321.9776193847656,114.80400097656249Q321.9776193847656,113.01000097656251,320.5736193847656,111.5670009765625Q319.1696193847656,110.1240009765625,314.9576193847656,107.0820009765625Q311.05761938476564,104.2740009765625,308.5616193847656,102.0510009765625Q306.0656193847656,99.82800097656249,304.27161938476564,96.5130009765625Q302.4776193847656,93.1980009765625,302.4776193847656,88.8300009765625Q302.4776193847656,84.3840009765625,304.46661938476564,80.9520009765625Q306.4556193847656,77.5200009765625,310.0826193847656,75.6480009765625Q313.70961938476563,73.7760009765625,318.38961938476564,73.7760009765625Q323.1476193847656,73.7760009765625,326.77461938476563,75.6870009765625Q330.40161938476564,77.5980009765625,332.3906193847656,81.0690009765625Q334.37961938476565,84.5400009765625,334.37961938476565,89.0640009765625L334.37961938476565,90.9360009765625Q334.37961938476565,91.3260009765625,334.1066193847656,91.59900097656251Q333.8336193847656,91.8720009765625,333.4436193847656,91.8720009765625L322.6016193847656,91.8720009765625Q322.21161938476564,91.8720009765625,321.9386193847656,91.59900097656251Q321.6656193847656,91.3260009765625,321.6656193847656,90.9360009765625L321.6656193847656,88.7520009765625Q321.6656193847656,87.0360009765625,320.7296193847656,85.9440009765625Q319.79361938476563,84.8520009765625,318.38961938476564,84.8520009765625Q316.98561938476564,84.8520009765625,316.12761938476564,85.9440009765625Q315.26961938476563,87.0360009765625,315.26961938476563,88.8300009765625Q315.26961938476563,90.7800009765625,316.59561938476566,92.3400009765625Q317.9216193847656,93.9000009765625,321.9776193847656,96.8640009765625Q326.8916193847656,100.5300009765625,329.3876193847656,102.79200097656249Q331.88361938476567,105.05400097656249,333.28761938476566,107.8230009765625Q334.69161938476566,110.5920009765625,334.69161938476566,114.3360009765625Q334.69161938476566,121.3560009765625,330.2846193847656,125.4900009765625Q325.87761938476564,129.6240009765625,318.70161938476565,129.6240009765625ZM355.4396193847656,129.0000009765625Q355.0496193847656,129.0000009765625,354.77661938476564,128.7270009765625Q354.5036193847656,128.4540009765625,354.5036193847656,128.0640009765625L354.5036193847656,75.3360009765625Q354.5036193847656,74.9460009765625,354.77661938476564,74.6730039765625Q355.0496193847656,74.4000019765625,355.4396193847656,74.4000019765625L370.3376193847656,74.4000019765625Q377.8256193847656,74.4000019765625,382.3496193847656,78.6120009765625Q386.8736193847656,82.8240009765625,386.8736193847656,89.7660009765625L386.8736193847656,113.6340009765625Q386.8736193847656,120.5760009765625,382.3496193847656,124.7880009765625Q377.8256193847656,129.0000009765625,370.3376193847656,129.0000009765625L355.4396193847656,129.0000009765625ZM367.45161938476565,117.53400097656251Q367.45161938476565,117.9240009765625,367.84161938476564,117.9240009765625L370.0256193847656,117.8460009765625Q371.66361938476564,117.76800097656249,372.7556193847656,116.40300097656251Q373.8476193847656,115.0380009765625,373.92561938476564,112.7760009765625L373.92561938476564,90.6240009765625Q373.92561938476564,88.2840009765625,372.8336193847656,86.8800009765625Q371.7416193847656,85.4760009765625,369.94761938476563,85.4760009765625L367.84161938476564,85.4760009765625Q367.45161938476565,85.4760009765625,367.45161938476565,85.8660009765625L367.45161938476565,117.53400097656251ZM421.81761938476564,84.5400009765625Q421.81761938476564,84.9300009765625,421.5446193847656,85.20300097656249Q421.2716193847656,85.4760009765625,420.8816193847656,85.4760009765625L405.2036193847656,85.4760009765625Q404.8136193847656,85.4760009765625,404.8136193847656,85.8660009765625L404.8136193847656,95.6940009765625Q404.8136193847656,96.08400097656249,405.2036193847656,96.08400097656249L413.78361938476564,96.08400097656249Q414.17361938476563,96.08400097656249,414.44661938476565,96.3570009765625Q414.7196193847656,96.6300009765625,414.7196193847656,97.0200009765625L414.7196193847656,106.30200097656251Q414.7196193847656,106.6920009765625,414.44661938476565,106.9650009765625Q414.17361938476563,107.2380009765625,413.78361938476564,107.2380009765625L405.2036193847656,107.2380009765625Q404.8136193847656,107.2380009765625,404.8136193847656,107.6280009765625L404.8136193847656,117.53400097656251Q404.8136193847656,117.9240009765625,405.2036193847656,117.9240009765625L420.8816193847656,117.9240009765625Q421.2716193847656,117.9240009765625,421.5446193847656,118.19700097656249Q421.81761938476564,118.4700009765625,421.81761938476564,118.8600009765625L421.81761938476564,128.0640009765625Q421.81761938476564,128.4540009765625,421.5446193847656,128.7270009765625Q421.2716193847656,129.0000009765625,420.8816193847656,129.0000009765625L392.8016193847656,129.0000009765625Q392.41161938476563,129.0000009765625,392.13861938476566,128.7270009765625Q391.86561938476564,128.4540009765625,391.86561938476564,128.0640009765625L391.86561938476564,75.3360009765625Q391.86561938476564,74.9460009765625,392.13861938476566,74.6730039765625Q392.41161938476563,74.4000019765625,392.8016193847656,74.4000019765625L420.8816193847656,74.4000019765625Q421.2716193847656,74.4000019765625,421.5446193847656,74.6730039765625Q421.81761938476564,74.9460009765625,421.81761938476564,75.3360009765625L421.81761938476564,84.5400009765625ZM441.4736193847656,129.6240009765625Q436.71561938476566,129.6240009765625,433.12761938476564,127.7910009765625Q429.5396193847656,125.9580009765625,427.55061938476564,122.64300097656249Q425.56161938476566,119.32800097656249,425.56161938476566,115.1160009765625L425.56161938476566,112.6980009765625Q425.56161938476566,112.3080009765625,425.83461938476563,112.0350009765625Q426.1076193847656,111.76200097656249,426.4976193847656,111.76200097656249L437.41761938476566,111.76200097656249Q437.80761938476564,111.76200097656249,438.0806193847656,112.0350009765625Q438.35361938476564,112.3080009765625,438.35361938476564,112.6980009765625L438.35361938476564,114.49200097656251Q438.35361938476564,116.3640009765625,439.2506193847656,117.4560009765625Q440.1476193847656,118.54800097656249,441.5516193847656,118.54800097656249Q442.9556193847656,118.54800097656249,443.8526193847656,117.4950009765625Q444.74961938476565,116.4420009765625,444.74961938476565,114.80400097656249Q444.74961938476565,113.01000097656251,443.3456193847656,111.5670009765625Q441.94161938476566,110.1240009765625,437.7296193847656,107.0820009765625Q433.82961938476564,104.2740009765625,431.3336193847656,102.0510009765625Q428.8376193847656,99.82800097656249,427.04361938476563,96.5130009765625Q425.24961938476565,93.1980009765625,425.24961938476565,88.8300009765625Q425.24961938476565,84.3840009765625,427.2386193847656,80.9520009765625Q429.2276193847656,77.5200009765625,432.8546193847656,75.6480009765625Q436.4816193847656,73.7760009765625,441.16161938476563,73.7760009765625Q445.9196193847656,73.7760009765625,449.5466193847656,75.6870009765625Q453.17361938476563,77.5980009765625,455.1626193847656,81.0690009765625Q457.15161938476564,84.5400009765625,457.15161938476564,89.0640009765625L457.15161938476564,90.9360009765625Q457.15161938476564,91.3260009765625,456.8786193847656,91.59900097656251Q456.60561938476565,91.8720009765625,456.2156193847656,91.8720009765625L445.3736193847656,91.8720009765625Q444.98361938476563,91.8720009765625,444.7106193847656,91.59900097656251Q444.43761938476564,91.3260009765625,444.43761938476564,90.9360009765625L444.43761938476564,88.7520009765625Q444.43761938476564,87.0360009765625,443.5016193847656,85.9440009765625Q442.5656193847656,84.8520009765625,441.16161938476563,84.8520009765625Q439.75761938476563,84.8520009765625,438.89961938476563,85.9440009765625Q438.0416193847656,87.0360009765625,438.0416193847656,88.8300009765625Q438.0416193847656,90.7800009765625,439.3676193847656,92.3400009765625Q440.6936193847656,93.9000009765625,444.74961938476565,96.8640009765625Q449.66361938476564,100.5300009765625,452.1596193847656,102.79200097656249Q454.6556193847656,105.05400097656249,456.0596193847656,107.8230009765625Q457.46361938476565,110.5920009765625,457.46361938476565,114.3360009765625Q457.46361938476565,121.3560009765625,453.0566193847656,125.4900009765625Q448.64961938476563,129.6240009765625,441.4736193847656,129.6240009765625ZM462.6116193847656,129.0000009765625Q462.22161938476563,129.0000009765625,461.9486193847656,128.7270009765625Q461.67561938476564,128.4540009765625,461.67561938476564,128.0640009765625L461.67561938476564,75.3360009765625Q461.67561938476564,74.9460009765625,461.9486193847656,74.6730039765625Q462.22161938476563,74.4000019765625,462.6116193847656,74.4000019765625L473.68761938476564,74.4000019765625Q474.0776193847656,74.4000019765625,474.35061938476565,74.6730039765625Q474.6236193847656,74.9460009765625,474.6236193847656,75.3360009765625L474.6236193847656,128.0640009765625Q474.6236193847656,128.4540009765625,474.35061938476565,128.7270009765625Q474.0776193847656,129.0000009765625,473.68761938476564,129.0000009765625L462.6116193847656,129.0000009765625ZM495.6836193847656,129.6240009765625Q488.27361938476565,129.6240009765625,483.8276193847656,125.4510009765625Q479.3816193847656,121.27800097656251,479.3816193847656,114.2580009765625L479.3816193847656,89.0640009765625Q479.3816193847656,82.0440009765625,483.8276193847656,77.9100009765625Q488.27361938476565,73.7760009765625,495.6836193847656,73.7760009765625Q503.09361938476565,73.7760009765625,507.5786193847656,77.9880009765625Q512.0636193847656,82.2000009765625,512.0636193847656,89.2200009765625L512.0636193847656,92.1060009765625Q512.0636193847656,92.4960009765625,511.79061938476565,92.7690009765625Q511.5176193847656,93.04200097656249,511.12761938476564,93.04200097656249L500.0516193847656,93.04200097656249Q499.66161938476563,93.04200097656249,499.3886193847656,92.7690009765625Q499.11561938476564,92.4960009765625,499.11561938476564,92.1060009765625L499.11561938476564,89.0640009765625Q499.11561938476564,87.1920009765625,498.1796193847656,86.0220009765625Q497.2436193847656,84.8520009765625,495.6836193847656,84.8520009765625Q494.20161938476565,84.8520009765625,493.2656193847656,86.0220009765625Q492.32961938476564,87.1920009765625,492.32961938476564,89.0640009765625L492.32961938476564,114.3360009765625Q492.32961938476564,116.2080009765625,493.2656193847656,117.3780009765625Q494.20161938476565,118.54800097656249,495.6836193847656,118.54800097656249Q497.2436193847656,118.54800097656249,498.1796193847656,117.3780009765625Q499.11561938476564,116.2080009765625,499.11561938476564,114.3360009765625L499.11561938476564,109.3440009765625Q499.11561938476564,108.9540009765625,498.72561938476565,108.9540009765625L496.69761938476563,108.9540009765625Q496.30761938476564,108.9540009765625,496.0346193847656,108.6810009765625Q495.76161938476565,108.4080009765625,495.76161938476565,108.01800097656249L495.76161938476565,99.7500009765625Q495.76161938476565,99.3600009765625,496.0346193847656,99.0870009765625Q496.30761938476564,98.8140009765625,496.69761938476563,98.8140009765625L511.12761938476564,98.8140009765625Q511.5176193847656,98.8140009765625,511.79061938476565,99.0870009765625Q512.0636193847656,99.3600009765625,512.0636193847656,99.7500009765625L512.0636193847656,114.2580009765625Q512.0636193847656,121.27800097656251,507.5786193847656,125.4510009765625Q503.09361938476565,129.6240009765625,495.6836193847656,129.6240009765625ZM539.3636193847656,75.3360009765625Q539.3636193847656,74.9460009765625,539.6366193847657,74.6730039765625Q539.9096193847656,74.4000019765625,540.2996193847656,74.4000019765625L551.2196193847656,74.4000019765625Q551.6096193847657,74.4000019765625,551.8826193847656,74.6730039765625Q552.1556193847656,74.9460009765625,552.1556193847656,75.3360009765625L552.1556193847656,128.0640009765625Q552.1556193847656,128.4540009765625,551.8826193847656,128.7270009765625Q551.6096193847657,129.0000009765625,551.2196193847656,129.0000009765625L538.8176193847656,129.0000009765625Q537.9596193847656,129.0000009765625,537.7256193847657,128.22000097656252L530.0036193847657,101.0760009765625Q529.9256193847657,100.8420009765625,529.7306193847656,100.8030009765625Q529.5356193847656,100.7640009765625,529.5356193847656,101.0760009765625L529.6916193847655,128.0640009765625Q529.6916193847655,128.4540009765625,529.4186193847656,128.7270009765625Q529.1456193847656,129.0000009765625,528.7556193847656,129.0000009765625L517.8356193847656,129.0000009765625Q517.4456193847657,129.0000009765625,517.1726193847657,128.7270009765625Q516.8996193847656,128.4540009765625,516.8996193847656,128.0640009765625L516.8996193847656,75.3360009765625Q516.8996193847656,74.9460009765625,517.1726193847657,74.6730039765625Q517.4456193847657,74.4000019765625,517.8356193847656,74.4000019765625L530.0816193847656,74.4000019765625Q530.9396193847656,74.4000019765625,531.1736193847656,75.1800009765625L538.9736193847657,102.48000097656251Q539.0516193847657,102.7140009765625,539.2466193847656,102.7140009765625Q539.4416193847655,102.7140009765625,539.4416193847655,102.4020009765625L539.3636193847656,75.3360009765625Z" fill="#262626" fill-opacity="1"/></g><g><path d="M191.02913659667968,166.35800561523436Q190.7591365966797,166.88000561523438,190.48913659667969,167.31200561523437L195.0611365966797,167.31200561523437Q195.7631365966797,167.31200561523437,196.1051365966797,167.67200561523438Q196.44713659667968,168.03200561523437,196.44713659667968,168.62600561523436Q196.44713659667968,168.96800561523438,196.28513659667968,169.49000561523437Q195.7991365966797,170.94800561523436,193.6931365966797,173.0540056152344Q194.4671365966797,173.70200561523438,194.97113659667968,174.42200561523438L193.18913659667967,175.97000561523438Q192.68513659667968,175.43000561523436,191.7581365966797,174.76400561523437Q190.8311365966797,174.09800561523437,189.64313659667968,173.52200561523438Q188.4551365966797,172.94600561523438,187.24913659667968,172.67600561523437L189.2291365966797,170.28200561523437Q190.8491365966797,171.05600561523437,192.0011365966797,171.81200561523437Q193.0811365966797,170.67800561523438,193.5131365966797,169.85000561523438Q193.5311365966797,169.81400561523438,193.5311365966797,169.74200561523438Q193.5311365966797,169.65200561523437,193.4681365966797,169.59800561523437Q193.40513659667968,169.54400561523437,193.31513659667968,169.54400561523437L189.2111365966797,169.50800561523437Q188.5091365966797,169.49000561523437,188.11313659667968,169.14800561523438Q187.7171365966797,168.80600561523437,187.7171365966797,168.24800561523438Q187.7171365966797,167.72600561523439,188.04113659667968,167.22200561523437Q188.22113659667968,166.93400561523438,188.5451365966797,166.35800561523436L186.0431365966797,166.35800561523436L186.2771365966797,164.0360056152344L189.53513659667968,164.0360056152344Q189.67913659667968,163.58600561523437,189.8771365966797,162.88400561523437L186.9971365966797,162.88400561523437L187.24913659667968,160.56200561523437L190.38113659667968,160.56200561523437L190.5971365966797,159.24800491523436L193.31513659667968,159.62600561523436Q193.26113659667968,159.95000561523437,193.1171365966797,160.56200561523437L197.5811365966797,160.56200561523437L197.3471365966797,162.88400561523437L192.48713659667968,162.88400561523437Q192.2711365966797,163.56800561523437,192.0911365966797,164.0360056152344L197.90513659667968,164.0360056152344L197.67113659667967,166.35800561523436L191.02913659667968,166.35800561523436ZM208.5431365966797,173.45000561523437L211.7471365966797,173.45000561523437L211.49513659667969,175.82600561523438L199.5431365966797,175.82600561523438L199.7951365966797,173.45000561523437L203.17913659667968,173.45000561523437L204.65513659667968,159.37400561523438L206.94113659667968,159.37400561523438L205.46513659667968,173.45000561523437L206.2571365966797,173.45000561523437L207.73313659667969,159.37400561523438L210.0191365966797,159.37400561523438L208.5431365966797,173.45000561523437ZM201.9551365966797,170.60600561523438Q202.0091365966797,169.38200561523436,201.7571365966797,167.66300561523437Q201.50513659667968,165.94400561523437,201.0371365966797,164.4590056152344Q200.5691365966797,162.97400561523438,199.97513659667968,162.36200561523438L202.49513659667969,161.40800561523437Q203.03513659667968,162.29000561523438,203.2871365966797,164.06300561523437Q203.5391365966797,165.83600561523437,203.5391365966797,167.72600561523439Q203.5391365966797,169.47200561523437,203.3771365966797,170.21000561523437L201.9551365966797,170.60600561523438ZM209.08313659667968,169.11200561523438Q209.3531365966797,168.80600561523437,209.7941365966797,167.67200561523438Q210.2351365966797,166.53800561523437,210.55913659667968,165.11600561523437Q210.8831365966797,163.69400561523437,210.8831365966797,162.5060056152344Q210.8831365966797,162.09200561523437,210.8291365966797,161.71400561523438L213.2051365966797,162.72200561523437Q213.1331365966797,163.96400561523438,212.6381365966797,165.57500561523437Q212.14313659667968,167.18600561523436,211.38713659667968,168.59000561523436Q210.63113659667968,169.99400561523439,209.80313659667968,170.67800561523438L209.08313659667968,169.11200561523438ZM217.8311365966797,174.63800561523436Q216.1031365966797,174.63800561523436,215.1941365966797,173.72000561523438Q214.28513659667968,172.80200561523438,214.28513659667968,170.98400561523437Q214.28513659667968,170.48000561523438,214.37513659667968,169.76000561523438L215.6531365966797,160.58000561523437L218.19113659667968,160.58000561523437L216.9851365966797,169.20200561523438Q216.8411365966797,170.21000561523437,216.8411365966797,170.7860056152344Q216.8411365966797,171.63200561523436,217.12013659667969,172.01000561523438Q217.39913659667968,172.38800561523436,217.99313659667968,172.38800561523436Q218.62313659667967,172.38800561523436,219.0191365966797,172.08200561523438Q219.4151365966797,171.77600561523437,219.66713659667968,171.08300561523438Q219.9191365966797,170.39000561523437,220.0811365966797,169.20200561523438L221.3051365966797,160.58000561523437L223.82513659667967,160.58000561523437L222.52913659667968,169.76000561523438Q222.1691365966797,172.46000561523437,220.9991365966797,173.54900561523436Q219.8291365966797,174.63800561523436,217.8311365966797,174.63800561523436ZM227.22713659667968,160.61600561523437L229.7471365966797,160.61600561523437L227.78513659667968,174.5840056152344L225.2651365966797,174.5840056152344L227.22713659667968,160.61600561523437ZM233.3831365966797,163.19000561523438Q233.4011365966797,163.10000561523438,233.4011365966797,162.92000561523437Q233.4011365966797,162.05600561523437,232.9151365966797,161.12000561523436Q232.42913659667968,160.18400561523438,231.58313659667968,159.75200561523437L234.4991365966797,159.21200561523438Q234.9491365966797,159.78800461523437,235.2281365966797,160.6970056152344Q235.5071365966797,161.60600561523438,235.5071365966797,162.39800561523438Q235.5071365966797,162.83000561523437,235.39913659667968,163.19000561523438L233.3831365966797,163.19000561523438ZM244.30913659667968,163.55000561523437Q244.21913659667968,164.82800561523436,243.64313659667968,165.5480056152344Q243.0671365966797,166.2680056152344,242.02313659667968,166.39400561523436Q242.5091365966797,166.75400561523438,242.5091365966797,167.51000561523438Q242.5091365966797,167.72600561523439,242.4371365966797,168.15800561523437Q241.9871365966797,170.49800561523438,240.2771365966797,172.44200561523436Q240.65513659667968,172.69400561523437,241.12313659667967,172.98200561523439Q241.41113659667968,173.14400561523436,242.07713659667968,173.28800561523437Q242.74313659667968,173.43200561523437,243.2111365966797,173.41400561523437L240.67313659667968,175.98800561523439Q239.2871365966797,175.30400561523436,238.24313659667968,174.26000561523438Q236.91113659667968,175.19600561523438,235.36313659667968,175.79000561523438L232.82513659667967,174.67400561523436Q233.74313659667968,174.33200561523438,234.8051365966797,173.74700561523437Q235.8671365966797,173.16200561523436,236.85713659667968,172.40600561523436Q235.95713659667967,170.89400561523436,235.45313659667968,168.69800561523436L237.2891365966797,168.5360056152344Q237.55913659667968,169.70600561523437,238.5491365966797,170.8580056152344Q239.5391365966797,169.76000561523438,239.88113659667968,168.73400561523437Q239.91713659667968,168.59000561523436,239.91713659667968,168.5540056152344Q239.91713659667968,168.28400561523438,239.5031365966797,168.28400561523438L235.0931365966797,168.28400561523438L235.32713659667968,166.08800561523438L236.80313659667968,166.08800561523438L234.66113659667968,165.33200561523438Q235.5971365966797,164.82800561523436,235.99313659667968,163.94600561523438Q236.3891365966797,163.06400561523438,236.5691365966797,161.48000561523438L236.76713659667968,159.71600561523437L240.65513659667968,159.71600561523437Q241.44713659667968,159.71600561523437,241.8791365966797,160.07600461523438Q242.3111365966797,160.43600561523436,242.3111365966797,161.0840056152344Q242.3111365966797,161.30000561523437,242.2931365966797,161.40800561523437L241.9871365966797,163.44200561523436Q241.96913659667968,163.51400561523437,241.9511365966797,163.60400561523437Q241.93313659667967,163.69400561523437,241.93313659667967,163.76600561523438Q241.93313659667967,163.91000561523438,242.11313659667968,163.91000561523438Q242.2571365966797,163.91000561523438,242.3651365966797,163.73900561523436Q242.4731365966797,163.56800561523437,242.4731365966797,163.3340056152344Q242.4731365966797,163.06400561523438,242.2751365966797,162.81200561523437L244.30913659667968,163.55000561523437ZM240.2591365966797,166.08800561523438Q239.3951365966797,165.60200561523436,239.3951365966797,164.61200561523438Q239.3951365966797,164.34200561523437,239.4311365966797,164.19800561523436L239.77313659667968,162.43400561523438L239.77313659667968,162.34400561523438Q239.77313659667968,162.20000561523437,239.6651365966797,162.10100561523439Q239.5571365966797,162.00200561523437,239.3951365966797,162.00200561523437L238.94513659667967,162.00200561523437L238.9271365966797,162.18200561523437Q238.7831365966797,163.69400561523437,238.48613659667967,164.59400561523438Q238.1891365966797,165.49400561523439,237.4151365966797,166.08800561523438L240.2591365966797,166.08800561523438ZM235.7411365966797,170.49800561523438Q235.7951365966797,170.7860056152344,235.7951365966797,171.07400561523437Q235.7951365966797,172.01000561523438,235.2461365966797,172.76600561523438Q234.69713659667968,173.52200561523438,233.9141365966797,173.94500561523438Q233.13113659667968,174.36800561523438,232.48313659667969,174.36800561523438Q231.9251365966797,174.36800561523438,231.4751365966797,174.08900561523438Q231.0251365966797,173.8100056152344,231.0251365966797,173.25200561523437Q231.0251365966797,173.12600561523436,231.0431365966797,173.0540056152344L231.9611365966797,166.52000561523437L231.9611365966797,166.44800561523436Q231.9611365966797,166.3040056152344,231.8531365966797,166.20500561523437Q231.74513659667969,166.10600561523438,231.58313659667968,166.10600561523438L231.1151365966797,166.10600561523438L231.34913659667967,164.0000056152344L232.7711365966797,164.0000056152344Q233.59913659667967,164.0000056152344,234.0671365966797,164.36900561523439Q234.53513659667968,164.73800561523439,234.53513659667968,165.45800561523438Q234.53513659667968,165.76400561523437,234.4991365966797,165.92600561523437L233.5271365966797,171.18200561523437Q233.63513659667967,171.21800561523438,233.6891365966797,171.21800561523438Q233.94113659667968,171.21800561523438,234.1031365966797,170.89400561523436Q234.2651365966797,170.57000561523438,234.2651365966797,170.15600561523436Q234.2651365966797,169.70600561523437,234.0851365966797,169.40000561523436L235.7411365966797,170.49800561523438ZM248.10713659667968,163.37000561523436Q248.10713659667968,162.83000561523437,247.8551365966797,162.14600561523437Q247.6031365966797,161.46200561523438,247.1441365966797,160.86800561523438Q246.68513659667968,160.2740056152344,246.1091365966797,159.98600561523438L249.2051365966797,159.44600561523438Q249.69113659667968,160.09400561523438,250.02413659667968,161.0480056152344Q250.35713659667968,162.00200561523437,250.35713659667968,162.79400561523437Q250.35713659667968,163.19000561523438,250.2851365966797,163.42400561523436L248.08913659667968,163.60400561523437L248.10713659667968,163.37000561523436ZM258.24113659667967,167.7620056152344L255.1451365966797,167.7620056152344L254.20913659667968,175.77200561523438L251.6531365966797,175.77200561523438L252.58913659667968,167.7620056152344L249.49313659667968,167.7620056152344L249.74513659667969,165.27800561523438L252.8771365966797,165.27800561523438L253.5611365966797,159.44600561523438L256.1171365966797,159.44600561523438L255.43313659667967,165.27800561523438L258.4931365966797,165.27800561523438L258.24113659667967,167.7620056152344ZM248.4131365966797,172.13600561523438Q248.71913659667968,172.2620056152344,248.93513659667968,171.83900561523438Q249.1511365966797,171.41600561523438,249.1511365966797,170.84000561523436Q249.1511365966797,170.30000561523437,248.97113659667968,169.99400561523439L251.3471365966797,171.09200561523437Q251.3111365966797,172.2800056152344,250.6991365966797,173.31500561523438Q250.08713659667967,174.35000561523438,249.10613659667968,174.95300561523436Q248.12513659667968,175.55600561523437,247.0631365966797,175.50200561523437Q246.50513659667968,175.46600561523437,246.0911365966797,175.06100561523436Q245.6771365966797,174.65600561523436,245.7491365966797,174.00800561523437L246.4871365966797,167.11400561523436L246.4871365966797,167.0420056152344Q246.4871365966797,166.89800561523438,246.3791365966797,166.79900561523436Q246.2711365966797,166.70000561523437,246.1091365966797,166.70000561523437L245.6411365966797,166.70000561523437L245.87513659667968,164.59400561523438L247.29713659667968,164.59400561523438Q249.0431365966797,164.59400561523438,249.0431365966797,166.17800561523438Q249.0431365966797,166.39400561523436,249.0251365966797,166.52000561523437L248.4131365966797,172.13600561523438ZM270.12113659667966,166.48400561523437L270.0311365966797,167.18600561523436Q270.2291365966797,169.83200561523438,270.8861365966797,171.64100561523438Q271.5431365966797,173.45000561523437,272.92913659667965,175.23200561523439L270.5171365966797,175.86200561523438Q269.8331365966797,174.78200561523437,269.4461365966797,173.78300561523437Q269.0591365966797,172.78400561523438,268.8791365966797,171.70400561523437Q267.9251365966797,174.09800561523437,266.1611365966797,175.86200561523438L264.5411365966797,175.37600561523436L264.4871365966797,175.89800561523438L262.2911365966797,175.89800561523438L262.5611365966797,173.55800561523438Q261.9131365966797,173.7920056152344,261.0671365966797,174.00800561523437L259.78913659667967,171.72200561523437Q260.9231365966797,171.63200561523436,262.84913659667967,171.03800561523437L263.1011365966797,168.71600561523437L261.6971365966797,168.77000561523437Q261.3731365966797,168.78800561523437,261.0941365966797,168.59000561523436Q260.8151365966797,168.39200561523438,260.7251365966797,168.08600561523437Q260.6711365966797,167.88800561523436,260.6711365966797,167.70800561523438Q260.6711365966797,167.33000561523437,260.9411365966797,166.75400561523438Q261.4451365966797,165.71000561523437,262.3271365966797,163.04600561523438L261.4991365966797,163.04600561523438L261.7151365966797,160.79600561523438L263.0111365966797,160.79600561523438L263.37113659667966,159.41000561523438L265.80113659667967,159.66200561523436L265.4411365966797,160.79600561523438L266.7191365966797,160.79600561523438L266.50313659667967,163.04600561523438L264.70313659667966,163.04600561523438Q264.5231365966797,163.64000561523437,264.36113659667967,164.0360056152344L265.80113659667967,164.0360056152344L265.69313659667966,164.93600561523436Q266.57513659667967,164.0180056152344,267.0611365966797,162.38900561523437Q267.5471365966797,160.76000561523438,267.5291365966797,159.30200581523437L269.8331365966797,159.64400561523436Q269.8331365966797,160.11200561523438,269.6531365966797,160.88600561523438L271.6151365966797,160.90400561523438Q272.4071365966797,160.90400561523438,272.7761365966797,161.32700561523438Q273.14513659667966,161.7500056152344,273.14513659667966,162.63200561523436Q273.14513659667966,164.8460056152344,271.9931365966797,166.77200561523438L270.12113659667966,166.48400561523437ZM268.8791365966797,163.17200561523438Q268.64513659667966,163.74800561523438,268.42913659667965,164.16200561523436L270.30113659667967,164.16200561523436L270.19313659667966,165.63800561523436L270.1391365966797,166.2680056152344Q270.89513659667966,165.27800561523438,270.89513659667966,163.55000561523437Q270.89513659667966,163.19000561523438,270.6251365966797,163.19000561523438L268.8791365966797,163.17200561523438ZM264.3071365966797,164.21600561523437Q263.7491365966797,165.83600561523437,263.4791365966797,166.39400561523436L264.07313659667966,166.39400561523436L264.3071365966797,164.21600561523437ZM264.6671365966797,174.26000561523438Q266.17913659667965,172.62200561523437,266.9351365966797,170.66900561523437Q267.6911365966797,168.71600561523437,268.0331365966797,165.5300056152344L268.1051365966797,164.7740056152344Q267.5651365966797,165.76400561523437,267.0611365966797,166.3220056152344L265.62113659667966,165.62000561523436L265.5311365966797,166.43000561523436L266.1251365966797,166.43000561523436L265.9271365966797,168.62600561523436L265.2971365966797,168.64400561523436L265.1351365966797,170.12000561523436Q265.5131365966797,169.92200561523438,265.8551365966797,169.67000561523437L266.1611365966797,171.34400561523438Q265.8191365966797,171.90200561523437,264.8651365966797,172.47800561523437L264.6671365966797,174.26000561523438ZM284.6651365966797,167.54600561523438L287.4371365966797,167.54600561523438L287.20313659667966,169.86800561523438L284.4131365966797,169.86800561523438L283.80113659667967,175.91600561523438L281.4791365966797,175.91600561523438L282.0911365966797,169.86800561523438L278.97713659667966,169.86800561523438L279.2291365966797,167.54600561523438L282.3431365966797,167.54600561523438L282.6491365966797,164.48600561523438L281.9111365966797,164.48600561523438Q281.44313659667966,165.45800561523438,280.7051365966797,166.35800561523436L279.1571365966797,165.89000561523437L278.1131365966797,175.88000561523438L275.7371365966797,175.88000561523438L276.6371365966797,167.74400561523439L274.2791365966797,167.0420056152344Q275.2151365966797,166.3220056152344,276.1871365966797,164.81900561523437Q277.1591365966797,163.3160056152344,277.8071365966797,161.74100561523437Q278.4551365966797,160.16600561523438,278.49113659667967,159.30200581523437L281.0111365966797,159.69800561523436Q280.45313659667966,161.42600561523437,279.3911365966797,163.69400561523437L279.26513659667967,164.82800561523436Q280.0571365966797,163.78400561523438,280.6331365966797,162.37100561523437Q281.2091365966797,160.95800561523438,281.2811365966797,159.87800461523437L282.7211365966797,160.16600561523438Q282.6131365966797,161.71400561523438,282.5411365966797,162.16400561523437L282.8831365966797,162.16400561523437L283.1711365966797,159.39200461523438L285.4931365966797,159.39200461523438L285.2051365966797,162.16400561523437L287.4551365966797,162.16400561523437L287.2211365966797,164.48600561523438L284.9711365966797,164.48600561523438L284.6651365966797,167.54600561523438ZM291.4691365966797,176.60000561523438Q290.7311365966797,175.2860056152344,290.0831365966797,174.26900561523436Q289.4351365966797,173.25200561523437,288.7871365966797,172.49600561523437L290.2631365966797,171.38000561523438Q291.07313659667966,172.17200561523438,291.9641365966797,173.21600561523437Q292.8551365966797,174.26000561523438,293.53913659667967,175.21400561523438L291.4691365966797,176.60000561523438ZM311.50313659667967,163.58600561523437L311.32313659667966,165.24200561523438L313.4111365966797,165.24200561523438Q314.2571365966797,165.24200561523438,314.7341365966797,165.62900561523438Q315.2111365966797,166.01600561523438,315.2111365966797,166.68200561523437Q315.2111365966797,167.0960056152344,314.9951365966797,167.61800561523438Q313.8971365966797,170.21000561523437,311.7911365966797,172.15400561523438Q313.57313659667966,173.12600561523436,316.0031365966797,173.61200561523438L313.3751365966797,175.88000561523438Q311.0711365966797,175.21400561523438,309.4511365966797,173.93600561523436Q307.38113659667965,175.21400561523438,304.8791365966797,175.82600561523438L302.7371365966797,173.93600561523436Q305.4371365966797,173.39600561523437,307.7231365966797,172.13600561523438Q306.75113659667966,170.8580056152344,305.52713659667967,168.5180056152344L307.6331365966797,167.8340056152344Q308.3531365966797,169.49000561523437,309.7571365966797,170.7500056152344Q311.2691365966797,169.54400561523437,312.16913659667966,168.03200561523437Q312.2591365966797,167.88800561523436,312.2591365966797,167.7980056152344Q312.2591365966797,167.58200561523438,311.88113659667965,167.58200561523438L305.1851365966797,167.58200561523438L305.41913659667966,165.24200561523438L308.9651365966797,165.24200561523438L309.14513659667966,163.58600561523437L304.7351365966797,163.58600561523437L304.9691365966797,161.28200561523437L309.3971365966797,161.28200561523437L309.6131365966797,159.33800461523438L311.9711365966797,159.33800461523438L311.7551365966797,161.28200561523437L316.59713659667966,161.28200561523437L316.3631365966797,163.58600561523437L311.50313659667967,163.58600561523437ZM323.1491365966797,166.43000561523436L323.3651365966797,164.28800561523437L322.57313659667966,164.28800561523437L322.35713659667965,166.3040056152344Q322.6631365966797,166.08800561523438,322.98713659667965,165.83600561523437L323.4371365966797,167.69000561523438Q323.3651365966797,167.7620056152344,323.3651365966797,167.7620056152344L327.2531365966797,167.7620056152344L327.36113659667967,166.71800561523438L329.64713659667973,166.71800561523438L329.53913659667967,167.7620056152344L330.58313659667965,167.7620056152344L330.3491365966797,170.0120056152344L329.2871365966797,170.0120056152344L328.9271365966797,173.39600561523437Q328.8011365966797,174.63800561523436,328.06313659667967,175.24100561523437Q327.3251365966797,175.84400561523438,326.08313659667965,175.84400561523438Q324.7871365966797,175.84400561523438,324.12113659667966,175.17800561523438Q323.4551365966797,174.5120056152344,323.4551365966797,173.57600561523438Q323.4551365966797,173.45000561523437,323.49113659667967,173.16200561523436L326.1731365966797,172.73000561523438Q325.7231365966797,173.1080056152344,325.7231365966797,173.37800561523437Q325.7231365966797,173.50400561523438,325.8221365966797,173.58500561523437Q325.9211365966797,173.66600561523438,326.08313659667965,173.66600561523438Q326.37113659667966,173.66600561523438,326.50613659667965,173.47700561523436Q326.6411365966797,173.28800561523437,326.6951365966797,172.78400561523438L327.00113659667966,170.0120056152344L325.2911365966797,170.0120056152344Q325.5791365966797,170.48000561523438,325.7591365966797,171.21800561523438Q325.93913659667965,171.95600561523437,325.8851365966797,172.46000561523437L324.1571365966797,172.74800561523438Q324.2291365966797,172.10000561523438,323.91413659667967,171.5420056152344Q323.5991365966797,170.98400561523437,323.13113659667965,170.8040056152344L324.8411365966797,170.0120056152344L322.6631365966797,170.0120056152344L322.8431365966797,168.24800561523438Q322.57313659667966,168.5000056152344,322.08713659667967,168.78800561523437L321.6371365966797,172.94600561523438Q321.4751365966797,174.42200561523438,320.89013659667967,175.13300561523437Q320.3051365966797,175.84400561523438,319.06313659667967,175.84400561523438Q318.0911365966797,175.84400561523438,317.5691365966797,175.29500561523437Q317.0471365966797,174.74600561523437,317.0471365966797,173.86400561523436Q317.0471365966797,172.74800561523438,317.8391365966797,171.61400561523436L319.3691365966797,171.57800561523436Q319.1171365966797,171.84800561523437,318.9281365966797,172.37000561523436Q318.7391365966797,172.89200561523438,318.7391365966797,173.27000561523437Q318.7391365966797,173.55800561523438,318.91913659667966,173.55800561523438Q319.06313659667967,173.55800561523438,319.1801365966797,173.41400561523437Q319.2971365966797,173.27000561523437,319.33313659667965,172.96400561523438L319.6751365966797,169.92200561523438Q319.0991365966797,170.10200561523436,318.70313659667966,170.17400561523436L317.9651365966797,167.52800561523438Q318.9011365966797,167.58200561523438,319.96313659667965,167.34800561523437L320.3051365966797,164.28800561523437L319.2071365966797,164.28800561523437L319.4591365966797,162.00200561523437L320.5571365966797,162.00200561523437L320.8451365966797,159.35600561523438L323.1131365966797,159.35600561523438L322.8251365966797,162.00200561523437L323.7071365966797,162.00200561523437L323.49113659667967,164.16200561523436L325.9751365966797,164.16200561523436L326.1011365966797,163.06400561523438L323.9591365966797,163.06400561523438L324.19313659667966,160.79600561523438L326.3351365966797,160.79600561523438L326.4971365966797,159.35600561523438L328.7111365966797,159.35600561523438L328.54913659667966,160.79600561523438L331.0511365966797,160.79600561523438L330.8171365966797,163.06400561523438L328.3151365966797,163.06400561523438L328.18913659667965,164.16200561523436L331.08713659667967,164.16200561523436L330.8531365966797,166.43000561523436L323.1491365966797,166.43000561523436ZM342.7691365966797,166.86200561523438Q343.4891365966797,166.86200561523438,343.9211365966797,167.23100561523438Q344.3531365966797,167.60000561523438,344.3531365966797,168.21200561523438Q344.3531365966797,168.5360056152344,344.1911365966797,168.95000561523437Q343.0571365966797,171.68600561523436,340.6001365966797,173.29700561523438Q338.1431365966797,174.90800561523437,334.8491365966797,175.86200561523438L332.6171365966797,174.20600561523437Q336.2711365966797,173.19800561523436,338.2331365966797,172.11800561523438Q337.4411365966797,171.5960056152344,336.6671365966797,171.38000561523438L338.3051365966797,169.92200561523438Q339.24113659667967,170.46200561523438,339.8531365966797,171.00200561523437Q340.71713659667967,170.28200561523437,341.3291365966797,169.36400561523436Q341.3651365966797,169.32800561523436,341.3651365966797,169.23800561523439Q341.3651365966797,169.14800561523438,341.2931365966797,169.08500561523437Q341.2211365966797,169.02200561523438,341.13113659667965,169.02200561523438L338.7191365966797,169.00400561523438Q337.1711365966797,170.69600561523438,334.9931365966797,171.93800561523437L333.26513659667967,170.39000561523437Q335.9111365966797,169.18400561523438,337.26113659667965,167.54600561523438Q335.7491365966797,168.17600561523437,334.1831365966797,168.48200561523439L332.8151365966797,166.43000561523436Q335.6591365966797,166.05200561523438,337.76513659667967,164.93600561523436Q337.0271365966797,164.28800561523437,336.1271365966797,163.87400561523438L338.2331365966797,162.86600561523437Q338.7191365966797,163.22600561523439,339.3491365966797,163.94600561523438Q340.1051365966797,163.35200561523436,340.6631365966797,162.65000561523436Q340.71713659667967,162.5600056152344,340.71713659667967,162.5060056152344Q340.71713659667967,162.34400561523438,340.5551365966797,162.34400561523438L337.9091365966797,162.32600561523438Q336.7211365966797,163.35200561523436,335.2631365966797,164.09000561523436L333.1031365966797,162.83000561523437Q334.6331365966797,162.12800561523437,335.8931365966797,161.14700561523438Q337.1531365966797,160.16600561523438,337.47713659667966,159.35600561523438L340.1411365966797,159.71600561523437L339.72713659667966,160.3280056152344L342.33713659667967,160.3280056152344Q343.11113659667967,160.3280056152344,343.5431365966797,160.6790056152344Q343.9751365966797,161.0300056152344,343.9751365966797,161.60600561523438Q343.9751365966797,162.03800561523437,343.66913659667966,162.5420056152344Q343.14713659667973,163.40600561523436,342.18413659667965,164.35100561523439Q341.2211365966797,165.29600561523438,339.9251365966797,166.14200561523438L340.71713659667967,166.21400561523438Q340.5371365966797,166.57400561523437,340.3391365966797,166.84400561523438L342.7691365966797,166.86200561523438ZM357.09713659667966,175.88000561523438Q355.54913659667966,173.90000561523436,354.7211365966797,172.31600561523436Q353.8931365966797,170.73200561523439,353.4971365966797,169.04000561523438Q352.8671365966797,170.7860056152344,351.7331365966797,172.44200561523436Q350.5991365966797,174.09800561523437,348.5291365966797,175.91600561523438L345.84713659667966,174.72800561523437Q348.2051365966797,172.87400561523438,349.5821365966797,171.08300561523438Q350.9591365966797,169.2920056152344,351.5981365966797,167.47400561523438Q352.23713659667965,165.65600561523436,352.4891365966797,163.44200561523436L352.93913659667965,159.28400511523438L355.3691365966797,159.28400511523438L354.9011365966797,163.78400561523438Q354.8831365966797,166.07000561523438,355.34213659667967,167.75300561523437Q355.8011365966797,169.43600561523436,356.8451365966797,171.06500561523438Q357.8891365966797,172.69400561523437,359.8691365966797,174.96200561523438L357.09713659667966,175.88000561523438ZM372.9551365966797,164.97200561523437Q373.2971365966797,165.47600561523439,373.52213659667973,166.7090056152344Q373.7471365966797,167.94200561523436,373.7471365966797,169.11200561523438Q373.7471365966797,169.99400561523439,373.6031365966797,170.48000561523438L372.0371365966797,170.7860056152344Q372.21713659667967,170.21000561523437,372.21713659667967,169.23800561523439Q372.21713659667967,167.97800561523437,371.9651365966797,166.97000561523438L371.2091365966797,172.82000561523438Q371.01113659667965,174.31400561523438,370.3361365966797,175.03400561523438Q369.6611365966797,175.75400561523438,368.41913659667966,175.75400561523438Q367.6991365966797,175.75400561523438,367.2041365966797,175.41200561523436Q366.7091365966797,175.07000561523438,366.4571365966797,174.49400561523439Q366.02513659667966,175.21400561523438,365.4851365966797,175.91600561523438L363.0911365966797,175.16000561523438L363.0191365966797,175.75400561523438L360.8051365966797,175.75400561523438L362.15513659667965,164.57600561523438L361.4351365966797,164.57600561523438L361.66913659667966,162.36200561523438L362.4251365966797,162.36200561523438L362.8031365966797,159.26600551523438L365.0171365966797,159.26600551523438L364.6391365966797,162.36200561523438L365.25113659667966,162.36200561523438L365.03513659667965,164.57600561523438L364.3691365966797,164.57600561523438L363.14513659667966,174.74600561523437Q364.6391365966797,173.48600561523438,365.7011365966797,171.1730056152344Q366.7631365966797,168.86000561523437,367.1591365966797,165.31400561523438L367.3031365966797,164.0720056152344L365.46713659667967,164.0720056152344L365.7011365966797,161.8040056152344L367.5371365966797,161.8040056152344L367.8251365966797,159.26600551523438L370.0031365966797,159.26600551523438L369.6971365966797,161.8040056152344L370.81313659667967,161.8040056152344Q371.4971365966797,161.8040056152344,371.9561365966797,162.24500561523436Q372.4151365966797,162.68600561523436,372.4151365966797,163.35200561523436Q372.4151365966797,163.51400561523437,372.39713659667973,163.58600561523437L372.1991365966797,165.17000561523437L372.9551365966797,164.97200561523437ZM369.96713659667967,164.41400561523437Q369.96713659667967,164.27000561523437,369.8591365966797,164.17100561523438Q369.75113659667966,164.0720056152344,369.5891365966797,164.0720056152344L369.4271365966797,164.0720056152344L369.26513659667967,165.40400561523438Q368.7971365966797,169.18400561523438,367.7351365966797,171.90200561523437L368.6531365966797,171.83000561523437Q368.41913659667966,172.08200561523438,368.3021365966797,172.48700561523438Q368.1851365966797,172.89200561523438,368.1851365966797,173.23400561523437Q368.1851365966797,173.41400561523437,368.2211365966797,173.52200561523438Q368.2571365966797,173.63000561523438,368.3111365966797,173.63000561523438Q368.5091365966797,173.63000561523438,368.69813659667966,173.30600561523437Q368.8871365966797,172.98200561523439,368.97713659667966,172.20800561523438L369.96713659667967,164.48600561523438L369.96713659667967,164.41400561523437ZM363.8291365966797,170.19200561523436Q364.4591365966797,169.11200561523438,364.7381365966797,168.11300561523439Q365.0171365966797,167.11400561523436,365.0171365966797,166.10600561523438Q365.0171365966797,165.5300056152344,364.9451365966797,165.08000561523437L366.3671365966797,165.24200561523438Q366.5291365966797,165.80000561523437,366.5291365966797,166.53800561523437Q366.5291365966797,167.40200561523437,366.30413659667965,168.40100561523437Q366.0791365966797,169.40000561523436,365.64713659667973,170.40800561523437L363.8291365966797,170.19200561523436ZM384.8351365966797,163.78400561523438L384.6011365966797,165.80000561523437L387.5711365966797,165.80000561523437L387.3191365966797,168.06800561523437L384.3671365966797,168.06800561523437L384.1331365966797,170.22800561523437L387.3551365966797,170.22800561523437L387.1031365966797,172.49600561523437L383.88113659667965,172.49600561523437L383.5211365966797,175.91600561523438L381.21713659667967,175.91600561523438L382.4231365966797,164.70200561523438Q381.8831365966797,165.60200561523436,381.2351365966797,166.48400561523437L379.6331365966797,165.90800561523437L378.5891365966797,175.88000561523438L376.21313659667965,175.88000561523438L377.1131365966797,167.74400561523439L374.7551365966797,167.0420056152344Q375.6911365966797,166.3220056152344,376.6631365966797,164.81900561523437Q377.6351365966797,163.3160056152344,378.2831365966797,161.74100561523437Q378.9311365966797,160.16600561523438,378.96713659667967,159.30200581523437L381.48713659667965,159.69800561523436Q380.92913659667965,161.42600561523437,379.8671365966797,163.69400561523437L379.7051365966797,165.20600561523437Q380.6951365966797,164.14400561523436,381.3161365966797,162.5600056152344Q381.9371365966797,160.97600561523439,382.2071365966797,159.28400511523438L384.7631365966797,159.53600461523436Q384.4571365966797,160.50800561523437,384.0611365966797,161.48000561523438L388.5611365966797,161.48000561523438L388.30913659667965,163.78400561523438L384.8351365966797,163.78400561523438ZM392.2691365966797,176.60000561523438Q391.5311365966797,175.2860056152344,390.8831365966797,174.26900561523436Q390.2351365966797,173.25200561523437,389.58713659667967,172.49600561523437L391.06313659667967,171.38000561523438Q391.87313659667973,172.17200561523438,392.7641365966797,173.21600561523437Q393.65513659667965,174.26000561523438,394.3391365966797,175.21400561523438L392.2691365966797,176.60000561523438ZM415.5611365966797,159.5180056152344Q416.4611365966797,159.5180056152344,416.9201365966797,159.96800561523438Q417.3791365966797,160.41800561523436,417.3791365966797,161.17400561523436Q417.3791365966797,161.37200561523437,417.36113659667967,161.48000561523438L417.14513659667966,163.37000561523436L415.6871365966797,175.70000561523437L403.57313659667966,175.70000561523437L405.46313659667965,159.5180056152344L415.5611365966797,159.5180056152344ZM414.7871365966797,163.37000561523436L414.9131365966797,162.30800561523438L414.9131365966797,162.25400561523438Q414.9131365966797,162.09200561523437,414.8051365966797,161.98400561523437Q414.6971365966797,161.87600561523436,414.53513659667965,161.87600561523436L407.5511365966797,161.87600561523436L406.4891365966797,171.09200561523437Q407.37113659667966,170.13800561523436,408.0191365966797,168.87800561523437Q408.6671365966797,167.61800561523438,409.0271365966797,166.23200561523439L407.37113659667966,166.23200561523439L407.6051365966797,163.92800561523438L411.51113659667965,163.92800561523438L411.7091365966797,162.27200561523438L413.83313659667965,162.27200561523438L413.6351365966797,163.92800561523438L414.4091365966797,163.92800561523438L414.1571365966797,166.23200561523439L413.3831365966797,166.23200561523439L412.89713659667973,170.46200561523438Q412.7531365966797,171.75800561523437,412.2671365966797,172.40600561523436Q411.7811365966797,173.0540056152344,410.6831365966797,173.0540056152344Q409.87313659667973,173.0540056152344,409.3781365966797,172.61300561523439Q408.8831365966797,172.17200561523438,408.8831365966797,171.45200561523438L408.8831365966797,171.21800561523438Q408.4331365966797,171.99200561523438,407.92913659667965,172.60400561523437L406.3451365966797,172.20800561523438L406.2191365966797,173.34200561523437L413.5991365966797,173.34200561523437L414.7871365966797,163.37000561523436ZM410.8271365966797,166.23200561523439Q410.2691365966797,168.66200561523436,409.3151365966797,170.44400561523437L410.5571365966797,169.85000561523438Q410.1971365966797,170.22800561523437,410.1971365966797,170.60600561523438Q410.1971365966797,170.7500056152344,410.25113659667966,170.84000561523436Q410.3051365966797,170.93000561523436,410.39513659667966,170.93000561523436Q410.5211365966797,170.93000561523436,410.6291365966797,170.74100561523437Q410.73713659667965,170.55200561523438,410.7731365966797,170.26400561523437L411.24113659667967,166.23200561523439L410.8271365966797,166.23200561523439ZM428.64713659667973,175.95200561523438Q427.4411365966797,174.17000561523437,426.99113659667967,171.84800561523437Q426.0191365966797,174.00800561523437,424.1651365966797,175.95200561523438L421.5551365966797,175.14200561523438Q423.3911365966797,173.66600561523438,424.31813659667966,172.01000561523438Q425.2451365966797,170.35400561523437,425.57813659667966,168.63500561523438Q425.9111365966797,166.91600561523438,426.1991365966797,163.92800561523438L426.2531365966797,163.3340056152344L426.6491365966797,159.26600551523438L429.0611365966797,159.26600551523438L428.6651365966797,163.46000561523437Q428.3771365966797,166.2680056152344,428.2151365966797,167.40200561523437Q428.4131365966797,169.85000561523438,429.0701365966797,171.5960056152344Q429.72713659667966,173.34200561523437,431.0771365966797,174.87200561523437L428.64713659667973,175.95200561523438ZM421.7351365966797,173.7560056152344Q421.50113659667966,173.7560056152344,421.1771365966797,173.68400561523438L421.01513659667967,175.75400561523438L418.6751365966797,175.75400561523438L420.3491365966797,159.62600561523436L423.9131365966797,159.62600561523436Q424.6151365966797,159.62600561523436,425.0291365966797,160.08500561523437Q425.44313659667966,160.54400561523437,425.44313659667966,161.22800561523437Q425.44313659667966,161.58800561523438,425.29913659667966,162.02000561523437L423.8771365966797,166.21400561523438Q424.1291365966797,166.89800561523438,424.2641365966797,167.84300561523438Q424.3991365966797,168.78800561523437,424.3991365966797,169.61600561523437Q424.3991365966797,170.06600561523436,424.38113659667965,170.24600561523437Q424.23713659667965,171.75800561523437,423.61613659667967,172.75700561523436Q422.9951365966797,173.7560056152344,421.7351365966797,173.7560056152344ZM422.1851365966797,161.87600561523436L421.35713659667965,169.72400561523438L422.1671365966797,169.61600561523437Q421.8791365966797,169.88600561523438,421.6991365966797,170.39000561523437Q421.5191365966797,170.89400561523436,421.5191365966797,171.27200561523438Q421.5191365966797,171.61400561523436,421.6811365966797,171.61400561523436Q421.8251365966797,171.61400561523436,422.0051365966797,171.43400561523438Q422.1851365966797,171.25400561523438,422.3201365966797,170.89400561523436Q422.4551365966797,170.53400561523438,422.4551365966797,169.99400561523439Q422.4551365966797,169.49000561523437,422.3291365966797,168.47300561523437Q422.20313659667966,167.45600561523437,422.0051365966797,166.21400561523438L423.26513659667967,162.09200561523437L423.26513659667967,162.05600561523437Q423.26513659667967,161.98400561523437,423.2021365966797,161.93000561523436Q423.1391365966797,161.87600561523436,423.0671365966797,161.87600561523436L422.1851365966797,161.87600561523436ZM445.8191365966797,162.32600561523438L443.6951365966797,162.32600561523438Q443.8211365966797,162.77600561523437,443.8391365966797,163.20800561523438L441.75113659667966,163.38800561523436Q441.7691365966797,163.24400561523439,441.7691365966797,162.97400561523438Q441.7691365966797,162.65000561523436,441.7151365966797,162.32600561523438L441.67913659667965,162.32600561523438Q441.4811365966797,162.5780056152344,441.12113659667966,162.84800561523437L438.9791365966797,162.32600561523438L438.1151365966797,162.32600561523438Q438.1871365966797,162.59600561523436,438.24113659667967,163.01000561523438L440.3291365966797,162.66800561523436Q440.5991365966797,163.11800561523438,440.6531365966797,163.65800561523437L443.29913659667966,163.65800561523437Q444.18113659667966,163.65800561523437,444.6941365966797,164.08100561523437Q445.2071365966797,164.50400561523438,445.2071365966797,165.24200561523438Q445.2071365966797,165.45800561523438,445.1891365966797,165.5660056152344L444.84713659667966,167.8340056152344L442.7951365966797,167.0240056152344Q443.0111365966797,167.40200561523437,442.9571365966797,167.99600561523437L442.70513659667967,170.49800561523438L437.25113659667966,170.49800561523438L437.17913659667965,171.07400561523437L441.89513659667966,171.07400561523437Q442.66913659667966,171.07400561523437,443.1191365966797,171.46100561523437Q443.5691365966797,171.84800561523437,443.5691365966797,172.56800561523437L443.55113659667967,172.78400561523438L443.2451365966797,175.82600561523438L434.3891365966797,175.82600561523438L435.3071365966797,167.47400561523438L433.2011365966797,167.47400561523438L433.5791365966797,163.65800561523437L438.2591365966797,163.65800561523437Q438.1151365966797,163.42400561523436,437.9351365966797,163.24400561523439L436.3511365966797,163.38800561523436Q436.3511365966797,163.20800561523438,436.3781365966797,162.8750056152344Q436.40513659667965,162.5420056152344,436.3871365966797,162.32600561523438L436.2791365966797,162.32600561523438Q435.77513659667966,163.10000561523438,435.00113659667966,163.56800561523437L432.4991365966797,163.04600561523438Q433.4171365966797,162.5420056152344,434.1911365966797,161.48900561523436Q434.9651365966797,160.43600561523436,434.9651365966797,159.62600561523436Q434.9651365966797,159.44600561523438,434.9471365966797,159.37400561523438L437.2331365966797,159.60800561523436Q437.1431365966797,160.05800561523438,437.0891365966797,160.2920056152344L439.7711365966797,160.2920056152344L439.6091365966797,161.8040056152344Q439.9691365966797,161.39000561523437,440.1761365966797,160.86800561523438Q440.3831365966797,160.34600561523436,440.3831365966797,159.82400561523437Q440.3831365966797,159.5180056152344,440.34713659667966,159.37400561523438L442.63313659667966,159.60800561523436L442.5251365966797,160.2920056152344L446.0351365966797,160.2920056152344L445.8191365966797,162.32600561523438ZM442.66913659667966,166.16000561523438Q442.66913659667966,165.81800561523437,442.2911365966797,165.81800561523437L435.7211365966797,165.81800561523437L435.6671365966797,166.35800561523436L441.3911365966797,166.35800561523436Q442.0031365966797,166.35800561523436,442.3631365966797,166.59200561523437Q442.66913659667966,166.39400561523436,442.66913659667966,166.16000561523438ZM440.7251365966797,168.32000561523438Q440.7251365966797,168.15800561523437,440.62613659667966,168.06800561523437Q440.5271365966797,167.97800561523437,440.3651365966797,167.97800561523437L437.5211365966797,167.97800561523437L437.4311365966797,168.87800561523437L440.6711365966797,168.87800561523437L440.7251365966797,168.39200561523438L440.7251365966797,168.32000561523438ZM436.9811365966797,172.87400561523438L436.8551365966797,173.99000561523437L441.1571365966797,173.99000561523437L441.2471365966797,173.28800561523437L441.2471365966797,173.23400561523437Q441.2471365966797,173.0720056152344,441.1391365966797,172.97300561523437Q441.0311365966797,172.87400561523438,440.8691365966797,172.87400561523438L436.9811365966797,172.87400561523438ZM458.8871365966797,159.37400561523438Q459.6791365966797,159.37400561523438,460.0841365966797,159.82400561523437Q460.4891365966797,160.2740056152344,460.4891365966797,160.92200561523438Q460.4891365966797,161.0840056152344,460.4711365966797,161.17400561523436L459.5711365966797,168.77000561523437L457.08713659667967,168.77000561523437L456.97913659667967,169.83200561523438L459.33713659667967,169.83200561523438L459.1031365966797,172.02800561523438L456.7451365966797,172.02800561523438L456.5651365966797,173.63000561523438L459.30113659667967,173.63000561523438L459.0671365966797,175.82600561523438L451.03913659667967,175.82600561523438L451.2731365966797,173.63000561523438L454.3151365966797,173.63000561523438L454.4771365966797,172.02800561523438L452.0111365966797,172.02800561523438L452.2451365966797,169.83200561523438L454.7111365966797,169.83200561523438L454.8191365966797,168.77000561523437L452.2091365966797,168.77000561523437L453.28913659667967,159.37400561523438L458.8871365966797,159.37400561523438ZM451.9751365966797,172.2980056152344Q451.2731365966797,173.37800561523437,450.1121365966797,174.05300561523438Q448.9511365966797,174.72800561523437,447.4751365966797,174.89000561523437L446.8451365966797,172.19000561523438Q447.5291365966797,172.19000561523438,448.2491365966797,172.10000561523438L448.7711365966797,167.47400561523438L448.1411365966797,167.47400561523438L448.3751365966797,165.18800561523437L449.0231365966797,165.18800561523437L449.38313659667966,162.00200561523437L448.4831365966797,162.00200561523437L448.71713659667967,159.69800561523436L452.55113659667967,159.71600561523437L452.3171365966797,162.02000561523437L451.63313659667966,162.02000561523437L451.2731365966797,165.20600561523437L451.9571365966797,165.20600561523437L451.7231365966797,167.49200561523438L451.0211365966797,167.49200561523438L450.5891365966797,171.41600561523438Q451.0931365966797,171.16400561523437,451.63313659667966,170.8220056152344L451.9751365966797,172.2980056152344ZM455.2691365966797,161.60600561523438L455.0711365966797,163.22600561523439L455.8091365966797,163.22600561523439L456.0071365966797,161.60600561523438L455.2691365966797,161.60600561523438ZM458.1491365966797,162.03800561523437L458.1491365966797,161.96600561523437Q458.1491365966797,161.8040056152344,458.0411365966797,161.70500561523437Q457.9331365966797,161.60600561523438,457.7711365966797,161.60600561523438L457.3751365966797,161.60600561523438L457.1771365966797,163.22600561523439L457.8071365966797,163.22600561523439L457.60913659667966,164.91800561523436L456.9971365966797,164.91800561523436L456.79913659667966,166.53800561523437L457.5911365966797,166.53800561523437L458.1491365966797,162.03800561523437ZM454.6751365966797,166.53800561523437L455.43113659667966,166.53800561523437L455.6291365966797,164.91800561523436L454.8731365966797,164.91800561523436L454.6751365966797,166.53800561523437Z" fill="#B2B2B2" fill-opacity="1"/></g></g></svg>