<svg xmlns="http://www.w3.org/2000/svg" xmlns:xlink="http://www.w3.org/1999/xlink" fill="none" version="1.1" width="8.799999952316284" height="6.299999952316284" viewBox="0 0 8.799999952316284 6.299999952316284"><g><path d="M3.6096199761581422,6.109619976158142L8.609619976158143,1.109618976158142Q8.701039976158143,1.0181949761581421,8.750519976158142,0.898743976158142Q8.799999976158142,0.7792929761581421,8.799999976158142,0.6499999761581421Q8.799999976158142,0.5207069761581421,8.750519976158142,0.4012559761581421Q8.701039976158143,0.2818049761581421,8.609619976158143,0.1903809761581421Q8.518199976158142,0.09895697615814214,8.398739976158142,0.04947797615814209Q8.279289976158143,-2.384185793236071e-8,8.149999976158142,-2.384185793236071e-8Q8.020709976158141,-2.384185793236071e-8,7.901259976158142,0.04947797615814209Q7.781799976158142,0.09895697615814214,7.690379976158142,0.1903809761581421L3.149999976158142,4.730759976158142L1.1098559761581421,2.690619976158142L1.109618976158142,2.690379976158142Q1.0181949761581421,2.598959976158142,0.898743976158142,2.549479976158142Q0.7792929761581421,2.499999976158142,0.6499999761581421,2.499999976158142Q0.5207069761581421,2.499999976158142,0.4012559761581421,2.549479976158142Q0.2818049761581421,2.598959976158142,0.1903809761581421,2.690379976158142Q0.09895697615814214,2.7817999761581422,0.04947797615814209,2.901259976158142Q-2.384185793236071e-8,3.020709976158142,-2.384185793236071e-8,3.149999976158142Q-2.384185793236071e-8,3.279289976158142,0.04947797615814209,3.3987399761581423Q0.09895697615814214,3.518199976158142,0.1903809761581421,3.6096199761581422L0.19068897615814207,3.609929976158142L2.690379976158142,6.109619976158142Q2.735649976158142,6.154889976158142,2.788879976158142,6.190449976158142Q2.842109976158142,6.226019976158142,2.901259976158142,6.2505199761581425Q2.960399976158142,6.275019976158142,3.0231899761581422,6.287509976158142Q3.085979976158142,6.2999999761581424,3.149999976158142,6.2999999761581424Q3.2140199761581423,6.2999999761581424,3.276809976158142,6.287509976158142Q3.339599976158142,6.275019976158142,3.3987399761581423,6.2505199761581425Q3.457889976158142,6.226019976158142,3.511119976158142,6.190449976158142Q3.5643499761581423,6.154889976158142,3.6096199761581422,6.109619976158142Z" fill-rule="evenodd" fill="#FFFFFF" fill-opacity="1"/></g></svg>