<svg xmlns="http://www.w3.org/2000/svg" xmlns:xlink="http://www.w3.org/1999/xlink" fill="none" version="1.1" width="540" height="86" viewBox="0 0 540 86"><g><path d="M25.056,45.432Q23.976,47.52,22.896,49.248L41.184,49.248Q43.992,49.248,45.36,50.688Q46.728,52.128,46.728,54.504Q46.728,55.872,46.08,57.96Q44.136,63.792,35.712,72.216Q38.808,74.808,40.824,77.688L33.696,83.88Q31.68,81.72,27.972,79.056Q24.264,76.392,19.512,74.088Q14.76,71.784,9.936,70.704L17.856,61.128Q24.336,64.224,28.944,67.248Q33.264,62.712,34.992,59.4Q35.064,59.256,35.064,58.968Q35.064,58.608,34.812,58.392Q34.56,58.176,34.2,58.176L17.784,58.032Q14.976,57.96,13.392,56.592Q11.808,55.224,11.808,52.992Q11.808,50.904,13.104,48.888Q13.824,47.736,15.12,45.432L5.112,45.432L6.048,36.144L19.08,36.144Q19.656,34.344,20.448,31.536L8.928,31.536L9.936,22.248L22.464,22.248L23.328,16.992L34.2,18.504Q33.984,19.8,33.408,22.248L51.264,22.248L50.328,31.536L30.888,31.536Q30.024,34.272,29.304,36.144L52.56,36.144L51.624,45.432L25.056,45.432ZM95.112,73.8L107.928,73.8L106.92,83.304L59.112,83.304L60.12,73.8L73.656,73.8L79.56,17.496L88.704,17.496L82.8,73.8L85.968,73.8L91.872,17.496L101.016,17.496L95.112,73.8ZM68.76,62.424Q68.976,57.528,67.968,50.652Q66.96,43.776,65.088,37.836Q63.216,31.896,60.84,29.448L70.92,25.632Q73.08,29.16,74.088,36.252Q75.096,43.344,75.096,50.904Q75.096,57.888,74.448,60.84L68.76,62.424ZM97.272,56.448Q98.352,55.224,100.116,50.688Q101.88,46.152,103.176,40.464Q104.472,34.776,104.472,30.024Q104.472,28.368,104.256,26.856L113.76,30.888Q113.472,35.856,111.492,42.3Q109.512,48.744,106.488,54.36Q103.464,59.976,100.152,62.712L97.272,56.448ZM172.296,22.968L171.288,32.184L125.568,32.184L126.576,22.968L143.784,22.968Q143.208,21.24,140.832,19.512L152.496,17.352Q154.224,20.376,154.224,22.968L172.296,22.968ZM164.304,34.416Q164.376,35.64,163.728,37.26Q163.08,38.88,161.928,40.32L170.784,40.32L169.776,49.68L134.64,49.68L134.064,54.72Q132.84,64.728,130.932,71.136Q129.024,77.544,125.712,83.448L115.632,80.856Q119.592,75.384,121.5,69.696Q123.408,64.008,124.632,54.36L126.36,40.32L133.848,40.32Q133.92,38.808,133.02,37.224Q132.12,35.64,130.752,34.704L141.696,32.472Q142.56,33.768,143.244,36.144Q143.928,38.52,144.072,40.32L151.344,40.32Q151.992,39.312,152.532,37.908Q153.072,36.504,153.072,35.28Q153.072,33.912,152.208,33.048L164.304,34.416ZM190.008,18.36L216.072,18.36Q219.672,18.36,221.472,20.16Q223.272,21.96,223.272,24.984Q223.272,25.704,223.2,26.064L221.184,44.784L187.2,44.784L190.008,18.36ZM212.76,35.568L213.48,29.232L213.48,28.944Q213.48,28.368,213.048,27.972Q212.616,27.576,211.968,27.576L198.432,27.576L197.568,35.568L212.76,35.568ZM179.856,48.096L195.192,48.096Q198.648,48.096,200.376,49.788Q202.104,51.48,202.104,54.288Q202.104,55.08,202.032,55.44L198.936,82.44L176.04,82.44L179.856,48.096ZM204.768,48.096L220.104,48.096Q223.56,48.096,225.288,49.788Q227.016,51.48,227.016,54.288Q227.016,55.08,226.944,55.44L223.848,82.44L200.952,82.44L204.768,48.096ZM190.8,73.44L192.528,58.68L192.528,58.392Q192.528,57.816,192.096,57.42Q191.664,57.024,191.016,57.024L187.92,57.024L186.048,73.44L190.8,73.44ZM215.712,73.44L217.44,58.68L217.44,58.392Q217.44,57.816,217.008,57.42Q216.576,57.024,215.928,57.024L212.832,57.024L210.96,73.44L215.712,73.44ZM302.184,18.216Q305.28,18.216,307.476,19.8Q309.672,21.384,309.672,24.192L309.6,24.984L304.416,72.864Q303.84,77.976,300.708,80.28Q297.576,82.584,292.896,82.584Q287.928,82.584,284.976,80.46Q282.024,78.336,282.024,74.952Q282.024,73.584,282.6,72L293.112,70.488Q291.744,71.352,291.744,72.576Q291.744,73.08,292.032,73.44Q292.32,73.8,292.752,73.872Q293.976,73.944,294.372,73.332Q294.768,72.72,294.984,70.848L299.664,29.592Q299.736,28.872,299.268,28.368Q298.8,27.864,298.152,27.864L290.232,27.864L289.368,36.648L297.792,36.648L296.856,44.928L288.576,44.928L287.712,53.568L295.776,53.568L294.84,61.848L286.848,61.848L285.984,70.704L278.28,70.632L279.144,61.848L268.92,61.848Q266.112,77.328,262.368,82.152L251.856,80.424Q255.384,74.736,257.652,66.204Q259.92,57.672,261.144,48.672Q262.368,39.672,263.736,26.424L264.6,18.216L302.184,18.216ZM282.528,27.864L273.024,27.864Q272.808,30.744,272.232,36.648L281.664,36.648L282.528,27.864ZM280.872,44.928L271.368,44.928Q270.72,50.472,270.216,53.568L280.008,53.568L280.872,44.928ZM362.16,54.288L315.576,54.288L316.44,47.088L335.16,47.088L335.304,45.504L318.744,45.504L319.32,39.312L335.952,39.312L336.096,37.728L320.256,37.728L322.056,17.568L356.112,17.568Q359.64,17.568,361.116,19.404Q362.592,21.24,362.376,24.12L361.224,37.728L344.736,37.728L344.592,39.312L361.872,39.312L361.224,45.504L343.944,45.504L343.8,47.088L363.024,47.088L362.16,54.288ZM336.744,30.96L337.464,24.336L330.048,24.336L329.904,26.496L335.232,25.344Q336.312,27.432,336.312,29.736Q336.312,30.528,336.24,30.96L336.744,30.96ZM353.664,24.336L346.176,24.336L345.456,30.96L346.824,30.96Q347.472,28.656,347.472,26.928Q347.472,25.848,347.328,25.416L352.944,25.992Q352.728,28.224,351.432,30.96L353.16,30.96L353.664,24.336ZM329.616,30.96L331.776,30.96Q331.56,28.512,329.904,26.856L329.616,30.96ZM354.528,64.296Q353.952,59.76,351.072,56.52L359.712,54.504Q360,54.936,361.152,56.52Q362.304,58.104,363.096,59.58Q363.888,61.056,364.176,62.424L354.528,64.296ZM326.376,55.728Q326.16,57.528,325.224,60.048Q324.288,62.568,323.064,64.44L312.624,62.064Q314.712,60.696,316.332,58.644Q317.952,56.592,318.456,54.72L326.376,55.728ZM340.632,63.576Q340.848,62.496,340.848,61.416Q340.848,59.832,340.452,58.32Q340.056,56.808,339.48,55.8L348.264,54.792Q349.272,56.304,350.064,58.32Q350.856,60.336,351.144,62.136L340.632,63.576ZM326.592,64.224Q328.392,60.12,328.752,55.872L336.96,55.008Q338.256,57.888,338.112,62.928L326.592,64.224ZM342.432,75.312L362.952,75.312L362.088,83.232L312.768,83.232L313.632,75.312L332.856,75.312L333.072,73.152L317.16,73.152L318.096,65.952L333.864,65.952L334.08,63.792L343.656,63.792L343.44,65.952L359.856,65.952L358.992,73.152L342.648,73.152L342.432,75.312ZM389.232,53.136Q388.368,60.84,387.252,66.096Q386.136,71.352,383.976,75.672Q381.816,79.992,378.216,83.664L367.776,80.352Q372.096,76.68,374.652,72.72Q377.208,68.76,378.504,64.08Q379.8,59.4,380.52,52.776L384.408,17.208L393.048,17.208L389.232,53.136ZM417.024,33.912Q419.472,33.912,421.128,35.028Q422.784,36.144,423.468,37.8Q424.152,39.456,423.936,41.112L421.056,66.96Q420.48,71.928,418.284,74.34Q416.088,76.752,412.92,76.752Q410.328,76.752,408.528,75.168L407.736,83.16L398.664,83.16L402.624,42.696L400.32,42.696L396.72,75.672L388.08,75.672L392.616,33.912L403.488,33.912L404.064,28.008L393.12,28.008L393.984,19.224L424.296,19.224L423.432,28.008L413.136,28.008L412.56,33.912L417.024,33.912ZM377.712,63.216L370.584,63.216L374.976,22.464L382.104,22.464L377.712,63.216ZM414.648,44.208Q414.648,43.488,414.216,43.092Q413.784,42.696,413.136,42.696L411.696,42.696L409.608,64.08L411.336,62.64Q410.76,64.944,410.76,66.384Q410.76,67.68,411.264,67.68Q411.624,67.68,411.948,67.212Q412.272,66.744,412.344,66.168L414.648,44.352L414.648,44.208ZM436.464,32.76Q436.536,32.4,436.536,31.68Q436.536,28.224,434.592,24.48Q432.648,20.736,429.264,19.008L440.928,16.848Q442.728,19.152,443.844,22.788Q444.96,26.424,444.96,29.592Q444.96,31.32,444.528,32.76L436.464,32.76ZM480.168,34.2Q479.808,39.312,477.504,42.192Q475.2,45.072,471.024,45.576Q472.968,47.016,472.968,50.04Q472.968,50.904,472.68,52.632Q470.88,61.992,464.04,69.768Q465.552,70.776,467.424,71.928Q468.576,72.576,471.24,73.152Q473.904,73.728,475.776,73.656L465.624,83.952Q460.08,81.216,455.904,77.04Q450.576,80.784,444.384,83.16L434.232,78.696Q437.904,77.328,442.152,74.988Q446.4,72.648,450.36,69.624Q446.76,63.576,444.744,54.792L452.088,54.144Q453.168,58.824,457.128,63.432Q461.088,59.04,462.456,54.936Q462.6,54.36,462.6,54.216Q462.6,53.136,460.944,53.136L443.304,53.136L444.24,44.352L450.144,44.352L441.576,41.328Q445.32,39.312,446.904,35.784Q448.488,32.256,449.208,25.92L450,18.864L465.552,18.864Q468.72,18.864,470.448,20.304Q472.176,21.744,472.176,24.336Q472.176,25.2,472.104,25.632L470.88,33.768Q470.808,34.056,470.736,34.416Q470.664,34.776,470.664,35.064Q470.664,35.64,471.384,35.64Q471.96,35.64,472.392,34.956Q472.824,34.272,472.824,33.336Q472.824,32.256,472.032,31.248L480.168,34.2ZM463.968,44.352Q460.512,42.408,460.512,38.448Q460.512,37.368,460.656,36.792L462.024,29.736L462.024,29.376Q462.024,28.8,461.592,28.404Q461.16,28.008,460.512,28.008L458.712,28.008L458.64,28.728Q458.064,34.776,456.876,38.376Q455.688,41.976,452.592,44.352L463.968,44.352ZM445.896,61.992Q446.112,63.144,446.112,64.296Q446.112,68.04,443.916,71.064Q441.72,74.088,438.588,75.78Q435.456,77.472,432.864,77.472Q430.632,77.472,428.832,76.356Q427.032,75.24,427.032,73.008Q427.032,72.504,427.104,72.216L430.776,46.08L430.776,45.792Q430.776,45.216,430.344,44.82Q429.912,44.424,429.264,44.424L427.392,44.424L428.328,36L434.016,36Q437.328,36,439.2,37.476Q441.072,38.952,441.072,41.832Q441.072,43.056,440.928,43.704L437.04,64.728Q437.472,64.872,437.688,64.872Q438.696,64.872,439.344,63.576Q439.992,62.28,439.992,60.624Q439.992,58.824,439.272,57.6L445.896,61.992ZM495.36,33.48Q495.36,31.32,494.352,28.584Q493.344,25.848,491.508,23.472Q489.672,21.096,487.368,19.944L499.752,17.784Q501.696,20.376,503.028,24.192Q504.36,28.008,504.36,31.176Q504.36,32.76,504.072,33.696L495.288,34.416L495.36,33.48ZM535.896,51.048L523.512,51.048L519.768,83.088L509.544,83.088L513.288,51.048L500.904,51.048L501.912,41.112L514.44,41.112L517.176,17.784L527.4,17.784L524.664,41.112L536.904,41.112L535.896,51.048ZM496.584,68.544Q497.808,69.048,498.672,67.356Q499.536,65.664,499.536,63.36Q499.536,61.2,498.816,59.976L508.32,64.368Q508.176,69.12,505.728,73.26Q503.28,77.4,499.356,79.812Q495.432,82.224,491.184,82.008Q488.952,81.864,487.296,80.244Q485.64,78.624,485.928,76.032L488.88,48.456L488.88,48.168Q488.88,47.592,488.448,47.196Q488.016,46.8,487.368,46.8L485.496,46.8L486.432,38.376L492.12,38.376Q499.104,38.376,499.104,44.712Q499.104,45.576,499.032,46.08L496.584,68.544Z" fill="#1F1F1F" fill-opacity="1"/></g></svg>