<svg xmlns="http://www.w3.org/2000/svg" xmlns:xlink="http://www.w3.org/1999/xlink" fill="none" version="1.1" width="1920" height="940" viewBox="0 0 1920 940"><defs><clipPath id="master_svg0_50_3530"><rect x="0" y="0" width="1920" height="940" rx="0"/></clipPath><linearGradient x1="0.5" y1="0.20877113938331604" x2="0.5" y2="0.901705265045166" id="master_svg1_3_2239"><stop offset="0%" stop-color="#E8F0FA" stop-opacity="1"/><stop offset="100%" stop-color="#E8F0FA" stop-opacity="0"/></linearGradient><linearGradient x1="0.5" y1="0.028270656242966652" x2="0.5" y2="0.9520491361618042" id="master_svg2_3_1900"><stop offset="0%" stop-color="#E8F0FA" stop-opacity="1"/><stop offset="100%" stop-color="#E8F0FA" stop-opacity="0"/></linearGradient></defs><g clip-path="url(#master_svg0_50_3530)"><g style="opacity:0.8999999761581421;"><path d="M108.14191943359376,128.78795703125002L72.89191943359376,200.97995703125Q68.37991943359376,210.00395703125,63.30391943359375,213.81095703125Q58.227919433593755,217.61795703125,51.17791943359374,217.61795703125Q42.15391943359376,217.61795703125,35.94991943359375,211.27295703125Q29.745919433593755,204.92795703125,19.87591943359375,188.28995703125L-12.836080566406253,128.78795703125002L-12.836080566406253,208.59395703125Q-12.836080566406253,220.71995703125,-18.335080566406248,226.35995703125Q-23.83408056640625,231.99995703125,-34.83208056640625,231.99995703125Q-47.24008056640625,231.99995703125,-52.88008056640625,226.50095703125Q-58.52008056640625,221.00195703125,-58.52008056640625,204.92795703125L-58.52008056640625,81.97595703125Q-58.52008056640625,60.26195703125,-48.65008056640625,49.26395703125Q-38.780080566406255,38.26594703125,-15.37408056640625,38.26594703125Q-6.632080566406252,38.26594703125,-0.14608056640624767,41.22694703125Q6.339919433593749,44.18795703125,9.582919433593744,47.994957031249996Q12.825919433593754,51.80195703125,15.927919433593743,57.44195703125L53.715919433593754,140.06795703125L93.66291943359374,58.851957031249995Q104.07491943359375,38.54794703125,131.08091943359375,38.54794703125Q143.73991943359374,38.54794703125,152.74191943359375,42.91894703125Q161.74791943359375,47.28995703125,166.95191943359376,57.01895703125Q172.15591943359374,66.74795703125,172.15591943359374,81.41195703125L172.15591943359374,204.08195703125Q172.15591943359374,231.99995703125,137.03391943359375,231.99995703125Q124.28691943359374,231.99995703125,116.21391943359376,225.09095703125Q108.14191943359376,218.18195703125,108.14191943359376,202.67195703125L108.14191943359376,128.78795703125002ZM303.84991943359375,192.51995703125Q313.4379194335938,192.51995703125,320.34691943359377,184.05995703125Q327.25591943359376,175.59995703125,330.2169194335938,163.19195703125Q333.17791943359373,150.78395703125,333.17791943359373,136.68395703125Q333.17791943359373,122.30195703125,330.07591943359375,109.47095703125Q326.9739194335938,96.63995703124999,320.06491943359373,87.61595703124999Q313.15591943359374,78.59195703124999,303.84991943359375,78.59195703124999Q294.82591943359375,78.59195703124999,288.0579194335937,87.61595703124999Q281.28991943359375,96.63995703124999,277.90591943359374,109.61195703125Q274.5219194335937,122.58395703125,274.5219194335937,136.68395703125Q274.5219194335937,150.78395703125,277.7649194335938,163.19195703125Q281.00791943359377,175.59995703125,287.91691943359376,184.05995703125Q294.82591943359375,192.51995703125,303.84991943359375,192.51995703125ZM353.76391943359374,222.55295703125Q331.4859194335937,233.69195703125,303.70891943359373,233.69195703125Q275.93191943359375,233.69195703125,253.79491943359375,222.55295703125Q231.65791943359375,211.41395703125,218.40391943359373,189.13595703125Q205.14991943359377,166.85795703125,205.14991943359377,136.68395703125Q205.14991943359377,90.99995703125,232.64491943359377,64.06895703125Q260.1399194335938,37.13795503125,303.84991943359375,37.13795503125Q347.55991943359373,37.13795503125,375.19591943359376,64.06895703125Q402.8319194335937,90.99995703125,402.8319194335937,136.68395703125Q402.8319194335937,166.85795703125,389.43691943359374,189.13595703125Q376.04191943359376,211.41395703125,353.76391943359374,222.55295703125ZM506.8899194335937,36.85595703125Q540.4479194335937,36.85595703125,564.1359194335937,50.67395703125Q587.8239194335938,64.49195703125,587.8239194335938,80.00195703125Q587.8239194335938,84.23195703125,585.9909194335937,87.19295703125Q584.1579194335937,90.15395703125,581.4789194335938,91.42295703125001Q578.7999194335938,92.69195703125,575.6979194335937,92.69195703125Q570.6219194335938,92.69195703125,560.4699194335938,87.47495703125Q550.3179194335937,82.25795703125,537.9099194335937,77.04095703125Q525.5019194335938,71.82395703125,515.0679194335937,71.82395703125Q498.4299194335938,71.82395703125,498.4299194335938,85.35995703124999Q498.4299194335938,89.58995703125001,501.10891943359377,93.39695703125Q503.78791943359374,97.20395703125,509.70991943359377,101.29295703125Q515.6319194335938,105.38195703125,521.2719194335938,108.48395703125Q526.9119194335938,111.58595703125,536.7819194335938,116.80295703125Q546.6519194335938,122.01995703125,553.4199194335938,125.96795703125Q575.1339194335937,138.37595703124998,583.8759194335937,149.65595703125Q592.6179194335938,160.93595703124998,592.6179194335938,175.59995703125Q592.6179194335938,233.97395703125,513.9399194335938,233.97395703125Q498.4299194335938,233.97395703125,483.90691943359377,230.87195703125Q469.38391943359375,227.76995703125,458.5269194335938,222.69395703125Q447.66991943359375,217.61795703125,439.35091943359373,211.41395703125Q431.03191943359377,205.20995703125,426.80191943359375,198.72395703125Q422.57191943359373,192.23795703125,422.57191943359373,186.59795703125Q422.57191943359373,180.39395703125,426.66091943359373,176.02295703125Q430.74991943359373,171.65195703125,438.64591943359375,171.65195703125Q444.5679194335938,171.65195703125,467.1279194335938,179.12495703125Q489.6879194335937,186.59795703125,503.5059194335937,186.59795703125Q516.1959194335938,186.59795703125,516.1959194335938,177.85595703125Q516.1959194335938,175.31795703125,515.2089194335938,173.20295703125Q514.2219194335937,171.08795703125,511.8249194335938,168.97295703125Q509.42791943359373,166.85795703125,506.4669194335937,165.02495703125Q503.5059194335937,163.19195703125,498.2889194335937,160.37195703125002Q493.07191943359373,157.55195703125,487.85491943359375,154.73195703125Q482.63791943359377,151.91195703124998,474.17791943359373,147.39995703124998Q465.7179194335938,142.88795703124998,457.82191943359373,138.37595703124998Q447.38791943359377,132.45395703125,439.91491943359375,123.71195703125Q432.44191943359374,114.96995703125,429.0579194335937,106.36895703125Q425.67391943359377,97.76795703125,425.67391943359377,90.43595703125Q425.67391943359377,66.74795703125,446.82391943359374,51.80195703125Q467.9739194335938,36.85595703125,506.8899194335937,36.85595703125ZM702.5979194335938,36.85595703125Q736.1559194335938,36.85595703125,759.8439194335938,50.67395703125Q783.5319194335938,64.49195703125,783.5319194335938,80.00195703125Q783.5319194335938,84.23195703125,781.6989194335938,87.19295703125Q779.8659194335937,90.15395703125,777.1869194335937,91.42295703125001Q774.5079194335938,92.69195703125,771.4059194335938,92.69195703125Q766.3299194335938,92.69195703125,756.1779194335937,87.47495703125Q746.0259194335938,82.25795703125,733.6179194335938,77.04095703125Q721.2099194335938,71.82395703125,710.7759194335938,71.82395703125Q694.1379194335938,71.82395703125,694.1379194335938,85.35995703124999Q694.1379194335938,89.58995703125001,696.8169194335937,93.39695703125Q699.4959194335937,97.20395703125,705.4179194335937,101.29295703125Q711.3399194335938,105.38195703125,716.9799194335938,108.48395703125Q722.6199194335937,111.58595703125,732.4899194335937,116.80295703125Q742.3599194335937,122.01995703125,749.1279194335938,125.96795703125Q770.8419194335937,138.37595703124998,779.5839194335938,149.65595703125Q788.3259194335938,160.93595703124998,788.3259194335938,175.59995703125Q788.3259194335938,233.97395703125,709.6479194335938,233.97395703125Q694.1379194335938,233.97395703125,679.6149194335937,230.87195703125Q665.0919194335937,227.76995703125,654.2349194335937,222.69395703125Q643.3779194335938,217.61795703125,635.0589194335937,211.41395703125Q626.7399194335937,205.20995703125,622.5099194335937,198.72395703125Q618.2799194335937,192.23795703125,618.2799194335937,186.59795703125Q618.2799194335937,180.39395703125,622.3689194335938,176.02295703125Q626.4579194335937,171.65195703125,634.3539194335938,171.65195703125Q640.2759194335938,171.65195703125,662.8359194335937,179.12495703125Q685.3959194335938,186.59795703125,699.2139194335938,186.59795703125Q711.9039194335937,186.59795703125,711.9039194335937,177.85595703125Q711.9039194335937,175.31795703125,710.9169194335938,173.20295703125Q709.9299194335938,171.08795703125,707.5329194335937,168.97295703125Q705.1359194335937,166.85795703125,702.1749194335938,165.02495703125Q699.2139194335938,163.19195703125,693.9969194335938,160.37195703125002Q688.7799194335937,157.55195703125,683.5629194335937,154.73195703125Q678.3459194335937,151.91195703124998,669.8859194335937,147.39995703124998Q661.4259194335938,142.88795703124998,653.5299194335937,138.37595703124998Q643.0959194335937,132.45395703125,635.6229194335938,123.71195703125Q628.1499194335937,114.96995703125,624.7659194335937,106.36895703125Q621.3819194335938,97.76795703125,621.3819194335938,90.43595703125Q621.3819194335938,66.74795703125,642.5319194335938,51.80195703125Q663.6819194335937,36.85595703125,702.5979194335938,36.85595703125ZM962.3199194335938,193.64795703125Q969.6499194335938,193.64795703125,975.1499194335938,192.09695703125Q980.6499194335938,190.54595703125,985.5799194335937,186.45695703125Q990.5199194335937,182.36795703125,993.6199194335939,175.59995703125Q996.7199194335938,168.83195703125,998.5599194335937,158.25695703125Q1000.3899194335938,147.68195703125,1000.3899194335938,133.29995703125002Q1000.3899194335938,117.22595703125,997.5699194335937,106.08695703125Q994.7499194335937,94.94795703125,989.3899194335938,89.16695703125Q984.0299194335937,83.38595703125,977.6899194335938,80.98895703125001Q971.3399194335936,78.59195703124999,962.3199194335938,78.59195703124999L962.3199194335938,193.64795703125ZM970.7799194335937,39.11195703125Q1014.7699194335937,39.11195703125,1041.4199194335938,64.49195703125Q1068.0699194335937,89.87195703124999,1068.0699194335937,134.42795703125Q1068.0699194335937,148.80995703125,1065.3899194335938,162.34595703125Q1062.7099194335938,175.88195703125,1056.5099194335937,188.71295703125Q1050.2999194335937,201.54395703125,1040.9999194335937,210.99095703125Q1031.6899194335938,220.43795703125,1017.3099194335937,226.21895703125Q1002.9299194335938,231.99995703125,984.8799194335938,231.99995703125L929.3259194335938,231.99995703125Q912.1239194335938,231.99995703125,904.6509194335938,223.25795703125Q897.1779194335937,214.51595703125,897.1779194335937,191.67395703125L897.1779194335937,72.66995703125Q897.1779194335937,39.11195703125,929.3259194335938,39.11195703125L970.7799194335937,39.11195703125ZM1213.8599194335939,117.50795703125Q1228.8099194335937,117.50795703125,1234.8699194335939,122.30195703125Q1240.9399194335938,127.09595703125,1240.9399194335938,138.65795703125002Q1240.9399194335938,148.24595703125,1233.7499194335937,152.33495703124998Q1226.5499194335937,156.42395703124998,1211.3299194335937,156.42395703124998L1165.6399194335938,156.42395703124998L1165.6399194335938,186.59795703125L1226.8399194335936,186.59795703125Q1242.6299194335938,186.59795703125,1249.5399194335937,191.25095703125Q1256.4499194335938,195.90395703125,1256.4499194335938,207.74795703125Q1256.4499194335938,221.28395703125,1248.4099194335938,226.64195703125Q1240.3699194335939,231.99995703125,1224.0199194335937,231.99995703125L1132.6499194335938,231.99995703125Q1116.0099194335937,231.99995703125,1108.2599194335937,223.11695703125Q1100.4999194335937,214.23395703125,1100.4999194335937,191.67395703125L1100.4999194335937,72.66995703125Q1100.4999194335937,38.82995703125,1132.6499194335938,38.82995703125L1224.0199194335937,38.82995703125Q1240.3699194335939,38.82995703125,1248.4099194335938,43.90594703125Q1256.4499194335938,48.98195703125,1256.4499194335938,62.235957031249995Q1256.4499194335938,74.64395703125,1249.5399194335937,79.57895703125Q1242.6299194335938,84.51395703125,1226.8399194335936,84.51395703125L1165.3599194335939,84.51395703125L1165.3599194335939,117.50795703125L1213.8599194335939,117.50795703125ZM1361.3499194335936,36.85595703125Q1394.9099194335938,36.85595703125,1418.5999194335936,50.67395703125Q1442.2799194335937,64.49195703125,1442.2799194335937,80.00195703125Q1442.2799194335937,84.23195703125,1440.4499194335938,87.19295703125Q1438.6199194335939,90.15395703125,1435.9399194335938,91.42295703125001Q1433.2599194335937,92.69195703125,1430.1599194335938,92.69195703125Q1425.0799194335937,92.69195703125,1414.9299194335938,87.47495703125Q1404.7799194335937,82.25795703125,1392.3699194335939,77.04095703125Q1379.9599194335938,71.82395703125,1369.5299194335937,71.82395703125Q1352.8899194335938,71.82395703125,1352.8899194335938,85.35995703124999Q1352.8899194335938,89.58995703125001,1355.5699194335937,93.39695703125Q1358.2499194335937,97.20395703125,1364.1699194335938,101.29295703125Q1370.0899194335936,105.38195703125,1375.7299194335938,108.48395703125Q1381.3699194335939,111.58595703125,1391.2399194335937,116.80295703125Q1401.1099194335939,122.01995703125,1407.8799194335938,125.96795703125Q1429.5899194335936,138.37595703124998,1438.3399194335936,149.65595703125Q1447.0799194335937,160.93595703124998,1447.0799194335937,175.59995703125Q1447.0799194335937,233.97395703125,1368.3999194335938,233.97395703125Q1352.8899194335938,233.97395703125,1338.3699194335939,230.87195703125Q1323.8399194335936,227.76995703125,1312.9899194335937,222.69395703125Q1302.1299194335938,217.61795703125,1293.8099194335937,211.41395703125Q1285.4899194335937,205.20995703125,1281.2599194335937,198.72395703125Q1277.0299194335937,192.23795703125,1277.0299194335937,186.59795703125Q1277.0299194335937,180.39395703125,1281.1199194335939,176.02295703125Q1285.2099194335938,171.65195703125,1293.1099194335939,171.65195703125Q1299.0299194335937,171.65195703125,1321.5899194335936,179.12495703125Q1344.1499194335938,186.59795703125,1357.9699194335938,186.59795703125Q1370.6599194335938,186.59795703125,1370.6599194335938,177.85595703125Q1370.6599194335938,175.31795703125,1369.6699194335938,173.20295703125Q1368.6799194335938,171.08795703125,1366.2899194335937,168.97295703125Q1363.8899194335938,166.85795703125,1360.9299194335938,165.02495703125Q1357.9699194335938,163.19195703125,1352.7499194335937,160.37195703125002Q1347.5299194335937,157.55195703125,1342.3199194335937,154.73195703125Q1337.0999194335936,151.91195703124998,1328.6399194335938,147.39995703124998Q1320.1799194335938,142.88795703124998,1312.2799194335937,138.37595703124998Q1301.8499194335936,132.45395703125,1294.3799194335938,123.71195703125Q1286.8999194335938,114.96995703125,1283.5199194335937,106.36895703125Q1280.1299194335938,97.76795703125,1280.1299194335938,90.43595703125Q1280.1299194335938,66.74795703125,1301.2799194335937,51.80195703125Q1322.4299194335938,36.85595703125,1361.3499194335936,36.85595703125ZM1545.2099194335938,189.69995703125Q1545.2099194335938,211.69595703125,1537.0399194335937,221.84795703125Q1528.8599194335939,231.99995703125,1512.2199194335938,231.99995703125Q1495.8599194335939,231.99995703125,1488.1099194335939,223.25795703125Q1480.3499194335936,214.51595703125,1480.3499194335936,191.95595703125L1480.3499194335936,72.66995703125Q1480.3499194335936,38.82995703125,1512.2199194335938,38.82995703125Q1528.5799194335937,38.82995703125,1536.8999194335938,45.03394703125Q1545.2099194335938,51.23795703125,1545.2099194335938,70.13195703125001L1545.2099194335938,189.69995703125ZM1685.0899194335936,86.20595703125Q1685.0899194335936,77.46395703125,1673.5199194335937,77.46395703125Q1661.6799194335938,77.46395703125,1653.2199194335938,90.71795703125Q1644.7599194335937,103.97195703125,1644.7599194335937,134.99195703125Q1644.7599194335937,163.75595703125,1654.4899194335937,176.86895703125Q1664.2199194335938,189.98195703125,1677.4699194335938,189.98195703125Q1681.6999194335938,189.98195703125,1685.2299194335938,188.28995703125Q1688.7499194335937,186.59795703125,1691.0099194335937,183.21395703125Q1693.2599194335937,179.82995703125,1693.2599194335937,175.03595703125Q1686.4999194335937,175.03595703125,1681.5599194335937,172.49795703125Q1676.6299194335938,169.95995703125,1674.3699194335939,166.15295703125Q1672.1099194335939,162.34595703125,1672.1099194335939,157.83395703125Q1672.1099194335939,147.68195703125,1677.4699194335938,142.60595703125Q1682.8299194335937,137.52995703125,1695.7999194335937,137.52995703125L1729.9199194335938,137.52995703125Q1746.2799194335937,137.52995703125,1755.2999194335937,144.57995703125Q1764.3299194335937,151.62995703125,1764.3299194335937,169.39595703125Q1764.3299194335937,195.33995703125,1739.5099194335937,214.65695703125Q1714.6999194335938,233.97395703125,1680.5699194335937,233.97395703125Q1649.2699194335937,233.97395703125,1624.8799194335938,222.69395703125Q1600.4899194335937,211.41395703125,1586.2499194335937,188.99495703125Q1571.9999194335937,166.57595703125,1571.9999194335937,135.83795703125Q1571.9999194335937,90.15395703125,1599.6399194335938,63.64595703125Q1627.2799194335937,37.13795503125,1672.9599194335938,37.13795503125Q1691.0099194335937,37.13795503125,1705.3899194335938,39.81695703125Q1719.7699194335937,42.49595703125,1729.2199194335938,47.00795703125Q1738.6699194335938,51.51995703125,1745.0099194335937,57.86495703125Q1751.3599194335939,64.20995703125,1754.0399194335937,71.25995703125Q1756.7099194335938,78.30995703125001,1756.7099194335938,85.92395703125Q1756.7099194335938,91.28195703125,1755.0199194335937,96.21695703124999Q1753.3299194335937,101.15195703125,1748.9599194335938,106.08695703125Q1744.5899194335936,111.02195703125,1735.5599194335937,114.12395703125Q1726.5399194335937,117.22595703125,1713.8499194335936,117.22595703125Q1695.2399194335937,117.22595703125,1690.1599194335938,111.72695703125Q1685.0899194335936,106.22795703125,1685.0899194335936,86.20595703125ZM1977.2399194335937,205.20995703125Q1977.2399194335937,217.61795703125,1969.9099194335938,224.80895703125Q1962.5699194335937,231.99995703125,1948.4699194335938,231.99995703125Q1944.8099194335937,231.99995703125,1941.1399194335938,231.15395703125Q1937.4799194335938,230.30795703125,1933.3899194335938,228.05195703125Q1929.2999194335937,225.79595703125,1926.1999194335938,223.82195703125Q1923.0899194335936,221.84795703125,1918.4399194335938,217.75895703125Q1913.7899194335937,213.66995703125,1911.1099194335939,211.27295703125Q1908.4299194335938,208.87595703125,1902.7899194335937,203.51795703125Q1897.1499194335938,198.15995703125,1894.6099194335939,195.62195703125L1843.0099194335937,146.83595703125002L1843.0099194335937,208.02995703125Q1843.0099194335937,221.84795703125,1837.7899194335937,226.92395703125Q1832.5699194335937,231.99995703125,1821.2899194335937,231.99995703125Q1808.8799194335938,231.99995703125,1802.9599194335938,226.35995703125Q1797.0399194335937,220.71995703125,1797.0399194335937,207.46595703125L1797.0399194335937,71.25995703125Q1797.0399194335937,55.18595703125,1805.2199194335938,47.00795703125Q1813.3999194335938,38.82995703125,1828.6199194335939,38.82995703125Q1839.0599194335937,38.82995703125,1845.3999194335938,42.07295703125Q1851.7499194335937,45.31594703125,1860.4899194335937,53.77595703125L1931.8399194335936,124.83995703125L1931.8399194335936,63.363957031249996Q1931.8399194335936,51.23795703125,1937.8999194335938,45.17495703125Q1943.9599194335938,39.11195703125,1954.3999194335938,39.11195703125Q1966.5199194335937,39.11195703125,1971.8799194335938,44.75195703125Q1977.2399194335937,50.39195703125,1977.2399194335937,63.08195703125L1977.2399194335937,205.20995703125Z" fill="url(#master_svg1_3_2239)" fill-opacity="1"/></g><g><ellipse cx="356" cy="841" rx="86" ry="86" fill="url(#master_svg2_3_1900)" fill-opacity="1"/></g></g></svg>