<svg xmlns="http://www.w3.org/2000/svg" xmlns:xlink="http://www.w3.org/1999/xlink" fill="none" version="1.1" width="598" height="86" viewBox="0 0 598 86"><g><path d="M26.552,33.264Q26.696,32.112,26.696,31.32Q26.696,27.504,25.112,24.084Q23.528,20.664,20.072,19.512L28.856,16.632Q31.016,18.288,32.06,21.312Q33.104,24.336,33.104,27.648Q33.104,30.6,32.456,32.544L26.552,33.264ZM44.984,31.968Q44.12,33.984,43.544,34.92L46.712,34.92Q49.448,34.92,50.96,37.116Q52.472,39.312,52.472,42.48L52.4,43.56L50.96,60.192Q50.384,67.464,47.396,70.416Q44.408,73.368,39.656,73.368Q36.416,73.368,34.436,71.784Q32.456,70.2,32.456,67.752Q32.456,66.672,32.888,65.52L40.304,64.512Q39.656,65.016,39.656,65.592Q39.656,65.88,39.98,66.132Q40.304,66.384,40.664,66.384Q41.456,66.384,42.14,65.232Q42.824,64.08,43.04,61.416L44.696,44.496L44.696,44.352Q44.696,43.632,44.264,43.236Q43.832,42.84,43.184,42.84L41.24,42.84L40.808,46.44L43.688,46.44L43.112,51.48L40.232,51.48L39.8,55.08L42.752,55.08L42.176,60.12L39.152,60.12L38.72,63.864L30.872,64.584L33.68,44.784L31.88,43.632Q32.024,44.784,32.024,45.648Q32.024,47.016,31.88,47.808L28.496,69.768Q29.72,72.648,31.988,74.052Q34.256,75.456,37.208,75.456Q39.728,75.456,42.608,74.412Q45.488,73.368,47.468,71.784Q49.448,70.2,49.448,68.76L53.696,79.344Q50.024,81.936,46.424,83.088Q42.824,84.24,38,84.24Q30.656,84.24,25.112,78.624Q22.304,82.584,16.904,82.584L15.68,82.512L12.44,74.736Q15.824,74.448,17.876,73.08Q19.928,71.712,21.008,68.328L23.888,48.744L23.888,48.456Q23.888,47.88,23.456,47.484Q23.024,47.088,22.376,47.088L19.784,47.088L19.496,48.168Q20.504,50.04,21.044,52.812Q21.584,55.584,21.584,58.392Q21.584,59.976,21.512,60.696Q20.936,66.6,19.064,69.948Q17.192,73.296,13.088,73.296Q12.44,73.296,11.432,73.152L10.208,84.168L2.28801,84.168L8.98401,21.096L18.2,21.096Q21.08,21.096,22.592,22.932Q24.104,24.768,24.104,27.72Q24.104,29.016,23.744,30.672L21.656,39.384L25.544,39.384Q31.808,37.296,35.48,31.968L33.752,31.968L34.544,23.688L39.224,23.688Q40.088,20.592,40.376,18.648L48.512,19.656L47.576,23.688L55.784,23.688L54.992,31.968L44.984,31.968ZM17.048,30.888Q17.048,30.528,16.832,30.312Q16.616,30.096,16.256,30.096L14.888,30.096L11.648,58.608L14.384,58.176Q13.304,59.184,12.62,61.092Q11.936,63,11.936,64.512Q11.936,66.168,12.728,66.168Q13.52,66.168,14.24,64.764Q14.96,63.36,15.176,60.696Q15.248,59.616,15.104,58.248Q14.96,56.88,14.6,55.08Q13.664,49.608,13.448,48.168L17.048,30.96L17.048,30.888ZM111.584,36.144L108.56,36.144L104.672,71.784Q104.024,77.616,101.252,80.496Q98.48,83.376,92.72,83.376Q88.112,83.376,85.592,80.964Q83.072,78.552,83.072,74.448Q83.072,70.632,85.16,66.456L94.232,64.584Q93.152,65.376,92.432,67.644Q91.712,69.912,91.712,71.928Q91.712,74.016,92.576,74.232Q93.512,74.376,94.052,73.584Q94.592,72.792,94.88,70.128L98.696,36.144L86.888,36.144L87.896,26.712L99.776,26.712L100.784,17.424L110.576,17.424L109.568,26.712L112.592,26.712L111.584,36.144ZM87.032,63.504Q87.968,61.128,87.968,57.528Q87.968,54.432,87.176,51.156Q86.384,47.88,84.944,45.288L81.416,80.496L60.608,80.496L67.376,18.648L80.48,18.648Q83.504,18.648,85.232,20.232Q86.96,21.816,86.96,24.624L86.888,25.488L85.16,42.84L92,40.536Q94.88,45.36,94.88,52.488Q94.88,57.168,93.512,61.848L87.032,63.504ZM77.888,28.296Q77.888,27.936,77.672,27.72Q77.456,27.504,77.096,27.504L75.08,27.504L73.28,44.352L75.296,44.352L74.432,52.272L72.416,52.272L70.256,71.64L73.208,71.64L77.888,28.368L77.888,28.296ZM141.968,50.184Q144.992,50.184,146.648,51.948Q148.304,53.712,148.304,56.448Q148.304,57.096,148.232,57.456L145.424,82.656L120.728,82.656L123.032,61.56L123.464,57.528L121.016,58.68L115.328,53.28Q121.448,50.76,127.424,46.656L120.296,46.656L121.232,37.44L130.088,37.44L130.736,31.104L125.696,31.104L126.56,22.824L131.528,22.824L132.104,17.496L140.816,17.496L140.24,22.824L144.416,22.824L143.768,28.584Q145.712,24.768,146.792,20.736L154.28,23.544Q151.688,31.32,147.8,37.44L151.76,37.44L150.896,46.656L140.024,46.656Q137.648,48.744,135.776,50.184L141.968,50.184ZM166.88,18.72Q169.832,18.72,171.488,20.628Q173.144,22.536,173.144,25.488Q173.144,26.856,172.712,28.296L167.456,47.232Q168.68,50.472,169.472,54.648Q170.264,58.824,170.264,61.92Q170.264,62.928,170.192,63.36Q169.832,67.536,169.04,70.164Q168.248,72.792,166.196,74.412Q164.144,76.032,160.328,76.032Q158.96,76.032,158.096,75.744L157.52,83.304L148.16,83.304L154.856,18.792L166.88,18.72ZM164.36,28.584Q164.36,28.224,164.144,28.008Q163.928,27.792,163.568,27.792L161.48,27.792L158.096,61.416L161.696,60.912Q160.616,61.92,159.932,63.828Q159.248,65.736,159.248,67.248Q159.248,68.904,160.04,68.904Q160.976,68.904,161.768,67.248Q162.56,65.592,162.56,62.424Q162.56,60.408,162.056,56.34Q161.552,52.272,160.76,47.304L164.36,28.656L164.36,28.584ZM139.448,31.104L138.944,36Q140.816,33.552,142.328,31.104L139.448,31.104ZM139.16,60.336Q139.16,59.688,138.728,59.328Q138.296,58.968,137.648,58.968L132.248,58.968L131.96,61.56L131.744,63.072L137.504,63.072L136.64,69.768L130.952,69.768L130.448,73.872L137.504,73.872L139.16,60.552L139.16,60.336ZM224.912,28.368L221.24,28.368L216.92,68.544Q216.128,75.744,212.528,78.912Q208.928,82.08,202.736,82.08Q199.496,82.08,197.228,80.676Q194.96,79.272,193.808,77.076Q192.656,74.88,192.656,72.432Q192.656,70.92,193.088,69.624L203.816,66.24Q202.376,68.112,202.376,69.984Q202.376,71.136,202.952,71.892Q203.528,72.648,204.464,72.648Q205.616,72.648,206.3,71.604Q206.984,70.56,207.272,67.968L211.592,28.368L177.68,28.368L178.688,18.72L225.92,18.72L224.912,28.368ZM202.88,65.16L177.896,65.16L181.208,32.688L198.56,32.688Q202.088,32.688,203.888,34.488Q205.688,36.288,205.688,39.24Q205.688,40.032,205.616,40.464L202.88,65.16ZM196.112,43.416Q196.112,42.84,195.68,42.444Q195.248,42.048,194.6,42.048L189.488,42.048L187.976,55.728L194.816,55.728L196.112,43.704L196.112,43.416ZM276.968,17.856Q280.496,17.856,282.404,19.512Q284.312,21.168,284.312,23.904L284.24,24.768L283.16,34.56L271.496,30.96Q271.712,30.816,272.468,30.348Q273.224,29.88,273.476,29.484Q273.728,29.088,273.728,28.584Q273.728,27.072,272.216,27.072L248.528,27.072L248.24,28.944L257.6,28.944L256.232,34.416L277.904,34.416L277.04,42.912L254.216,42.912L253.136,47.088L272.288,47.088Q275.672,47.088,277.616,49.068Q279.56,51.048,279.56,54Q279.56,54.648,279.488,55.008L277.472,71.424Q276.824,76.68,273.836,79.812Q270.848,82.944,265.52,82.944Q261.416,82.944,258.752,81.468Q256.088,79.992,254.828,77.616Q253.568,75.24,253.568,72.648Q253.568,71.712,253.64,71.208L264.656,69.336Q263.936,69.84,263.468,70.74Q263,71.64,263,72.288Q263,73.152,263.684,73.584Q264.368,74.016,265.448,74.016Q266.6,74.016,267.248,73.008Q267.896,72,268.04,70.416L269.624,57.744L269.624,57.456Q269.624,56.808,269.192,56.412Q268.76,56.016,268.112,56.016L241.4,56.016L247.088,33.12L238.016,33.12L239.816,17.856L276.968,17.856ZM267.032,68.688L234.56,68.688L235.496,59.616L267.968,59.616L267.032,68.688ZM339.68,18.864Q337.88,24.624,333.056,34.488L327.944,83.592L317.864,83.592L321.464,51.048L312.032,48.24Q315.776,45.36,319.844,39.348Q323.912,33.336,326.684,27.036Q329.456,20.736,329.6,17.28L339.68,18.864ZM364.16,50.904L354.152,50.904L350.768,82.944L340.616,82.944L344,50.904L332.768,50.904L333.776,40.968L345.08,40.968L347.528,17.64L357.68,17.64L355.232,40.968L365.168,40.968L364.16,50.904ZM402.824,19.008Q402.248,23.4,399.404,29.844Q396.56,36.288,392.6,42.48Q388.64,48.672,385.112,52.2L373.52,49.752Q381.296,42.912,386.84,34.38Q392.384,25.848,392.96,17.568L402.824,19.008ZM411.104,54.792Q414.416,58.752,416.612,64.512Q418.808,70.272,418.808,74.808Q418.808,76.32,418.448,77.904Q414.488,80.352,403.328,81.864Q392.168,83.376,382.88,83.376L380.288,83.304Q377.696,83.232,376.328,81.648Q374.96,80.064,374.96,77.904Q374.96,75.384,376.616,73.584Q387.128,62.28,395.624,49.788Q404.12,37.296,405.632,27.072L415.712,29.664Q412.184,47.232,387.92,73.728Q393.248,73.656,399.008,72.936Q404.768,72.216,409.88,70.704Q408.728,66.888,406.748,63.648Q404.768,60.408,402.104,58.536L411.104,54.792ZM451.568,50.184Q454.592,50.184,456.248,51.948Q457.904,53.712,457.904,56.448Q457.904,57.096,457.832,57.456L455.024,82.656L430.328,82.656L432.632,61.56L433.064,57.528L430.616,58.68L424.928,53.28Q431.048,50.76,437.024,46.656L429.896,46.656L430.832,37.44L439.688,37.44L440.336,31.104L435.296,31.104L436.16,22.824L441.128,22.824L441.704,17.496L450.416,17.496L449.84,22.824L454.016,22.824L453.368,28.584Q455.312,24.768,456.392,20.736L463.88,23.544Q461.288,31.32,457.4,37.44L461.36,37.44L460.496,46.656L449.624,46.656Q447.248,48.744,445.376,50.184L451.568,50.184ZM476.48,18.72Q479.432,18.72,481.088,20.628Q482.744,22.536,482.744,25.488Q482.744,26.856,482.312,28.296L477.056,47.232Q478.28,50.472,479.072,54.648Q479.864,58.824,479.864,61.92Q479.864,62.928,479.792,63.36Q479.432,67.536,478.64,70.164Q477.848,72.792,475.796,74.412Q473.744,76.032,469.928,76.032Q468.56,76.032,467.696,75.744L467.12,83.304L457.76,83.304L464.456,18.792L476.48,18.72ZM473.96,28.584Q473.96,28.224,473.744,28.008Q473.528,27.792,473.168,27.792L471.08,27.792L467.696,61.416L471.296,60.912Q470.216,61.92,469.532,63.828Q468.848,65.736,468.848,67.248Q468.848,68.904,469.64,68.904Q470.576,68.904,471.368,67.248Q472.16,65.592,472.16,62.424Q472.16,60.408,471.656,56.34Q471.152,52.272,470.36,47.304L473.96,28.656L473.96,28.584ZM449.048,31.104L448.544,36Q450.416,33.552,451.928,31.104L449.048,31.104ZM448.76,60.336Q448.76,59.688,448.328,59.328Q447.896,58.968,447.248,58.968L441.848,58.968L441.56,61.56L441.344,63.072L447.104,63.072L446.24,69.768L440.552,69.768L440.048,73.872L447.104,73.872L448.76,60.552L448.76,60.336ZM491.6,39.312Q490.52,38.952,489.656,38.052Q488.792,37.152,488.504,35.928Q488.288,34.92,488.288,34.128Q488.288,31.968,489.224,30.096L490.664,27.936Q492.896,24.624,494.264,22.176Q495.632,19.728,496.208,17.136L504.272,19.296Q503.552,22.464,501.716,25.488Q499.88,28.512,497.864,30.528Q499.16,30.672,500.168,30.672Q504.128,30.672,506.936,29.304Q505.28,25.992,503.192,23.904L510.32,20.52Q512.552,23.04,513.884,26.388Q515.216,29.736,515.576,33.192Q515.072,35.352,513.488,36.432Q511.904,37.512,509.672,38.232Q507.152,39.024,503.84,39.492Q500.528,39.96,497.504,39.96Q493.76,39.96,491.6,39.312ZM536.96,34.488Q537.68,37.008,537.68,38.808Q537.68,43.416,534.476,46.368Q531.272,49.32,525.584,49.32Q520.832,49.32,517.988,46.584Q515.144,43.848,515.144,38.88Q515.144,37.728,515.216,37.152L517.232,17.64L526.232,17.64L525.368,25.632Q529.472,23.328,532.352,19.08L538.4,24.696Q534.224,29.664,529.112,32.256L536.96,34.488ZM526.664,40.392Q530.12,40.392,530.12,36.792Q530.12,34.704,529.04,32.328Q527.528,33.12,524.36,34.272L524.216,35.568Q524.144,36.072,524.144,37.008Q524.144,40.392,526.664,40.392ZM507.224,41.832Q510.392,41.832,512.084,43.452Q513.776,45.072,513.776,47.88Q513.776,48.528,513.704,48.888L511.328,70.704Q510.752,75.672,509.6,78.444Q508.448,81.216,506.36,82.44Q504.272,83.664,500.744,83.664Q498.224,83.664,496.496,81.828Q494.768,79.992,494.768,77.184Q494.768,74.736,496.208,72.144L501.464,71.136Q500.816,71.928,500.492,72.72Q500.168,73.512,500.168,74.016Q500.168,74.736,500.672,74.736Q501.464,74.736,501.896,73.728Q502.328,72.72,502.616,69.696L504.416,52.632L504.416,52.344Q504.416,51.624,504.02,51.192Q503.624,50.76,503.048,50.76L496.856,50.76L496.568,53.496L503.336,53.496L502.616,60.12L495.848,60.12L495.56,62.856L502.328,62.856L501.536,69.48L494.84,69.48L493.328,83.448L484.472,83.448L489.08,41.832L507.224,41.832ZM522.272,69.696Q522.128,70.848,522.128,71.424Q522.128,74.52,524.504,74.52Q527.96,74.52,527.96,70.92Q527.96,68.832,526.952,66.384L534.944,68.616Q535.52,70.776,535.52,72.648Q535.52,77.4,532.28,80.424Q529.04,83.448,523.208,83.448Q518.528,83.448,515.792,80.784Q513.056,78.12,513.056,73.296Q513.056,72.72,513.2,71.28L515.432,51.048L524.432,51.048L523.568,58.464Q527.528,56.16,530.408,52.128L536.312,57.744Q532.928,61.632,529.616,63.9Q526.304,66.168,522.488,67.608L522.272,69.696ZM596.072,17.64L595.136,26.64L547.904,26.64L548.84,17.64L596.072,17.64ZM578.72,70.416L554.672,70.416L559.352,28.944L576.632,28.944Q579.728,28.944,581.42,30.744Q583.112,32.544,582.824,35.136L578.72,70.416ZM584.336,37.008L593.768,37.008L588.8,79.416Q588.584,81.144,587.396,82.188Q586.208,83.232,584.552,83.232L542,83.232L543.08,74.304L547.4,37.008L556.832,37.008L552.584,74.304L578.576,74.304Q579.152,74.304,579.548,73.944Q579.944,73.584,580.016,73.008L584.336,37.008ZM566.192,37.008L565.184,45.504L567.056,45.504L567.992,37.008L566.192,37.008ZM574.904,37.008L573.032,37.008L572.096,45.504L573.104,45.504L572.312,52.848L571.232,52.848L570.152,62.208L571.952,62.208L574.904,37.008ZM563.24,62.208L565.112,62.208L566.192,52.848L564.32,52.848L563.24,62.208Z" fill="#1F1F1F" fill-opacity="1"/></g></svg>