<svg xmlns="http://www.w3.org/2000/svg" xmlns:xlink="http://www.w3.org/1999/xlink" fill="none" version="1.1" width="345" height="196" viewBox="0 0 345 196"><defs><filter id="master_svg0_50_4354" filterUnits="objectBoundingBox" color-interpolation-filters="sRGB" x="-64" y="-60" width="345" height="196"><feFlood flood-opacity="0" result="BackgroundImageFix"/><feColorMatrix in="SourceAlpha" type="matrix" values="0 0 0 0 0 0 0 0 0 0 0 0 0 0 0 0 0 0 127 0"/><feOffset dy="4" dx="0"/><feGaussianBlur stdDeviation="16"/><feColorMatrix type="matrix" values="0 0 0 0 0.007843137718737125 0 0 0 0 0.18431372940540314 0 0 0 0 0.529411792755127 0 0 0 0.11999999731779099 0"/><feBlend mode="normal" in2="BackgroundImageFix" result="effect1_dropShadow"/><feBlend mode="normal" in="SourceGraphic" in2="effect1_dropShadow" result="shape"/></filter><clipPath id="master_svg1_50_4354"><rect x="64" y="60" width="217" height="68" rx="10"/></clipPath><clipPath id="master_svg2_50_4355"><rect x="64" y="68" width="217" height="52" rx="0"/></clipPath><clipPath id="master_svg3_50_5376/3_5310"><rect x="90.5" y="86" width="16" height="16" rx="0"/></clipPath><clipPath id="master_svg4_50_5376/3_5314"><rect x="127.5" y="86" width="16" height="16" rx="0"/></clipPath><linearGradient x1="0.5" y1="0" x2="0.5" y2="1" id="master_svg5_3_4314"><stop offset="24.1851806640625%" stop-color="#FFFFFF" stop-opacity="1"/><stop offset="100%" stop-color="#8C8C8C" stop-opacity="1"/></linearGradient><clipPath id="master_svg6_50_5376/3_5318"><rect x="164.5" y="86" width="16" height="16" rx="0"/></clipPath><radialGradient cx="0" cy="0" r="1" gradientUnits="userSpaceOnUse" id="master_svg7_3_4145" gradientTransform="translate(172.5 94) rotate(86.32965834050123) scale(8.17289143883239 8.17289143883239)"><stop offset="0%" stop-color="#FFFFFF" stop-opacity="1"/><stop offset="100%" stop-color="#9C9C9C" stop-opacity="1"/></radialGradient><clipPath id="master_svg8_50_5376/3_5316"><rect x="201.5" y="86" width="16" height="16" rx="0"/></clipPath><radialGradient cx="0" cy="0" r="1" gradientUnits="userSpaceOnUse" id="master_svg9_3_4633" gradientTransform="translate(209.5 94) rotate(90) scale(7 7)"><stop offset="0%" stop-color="#FFFFFF" stop-opacity="1"/><stop offset="100%" stop-color="#929292" stop-opacity="1"/></radialGradient><clipPath id="master_svga_50_5376/3_5320"><rect x="238.5" y="86" width="16" height="16" rx="0"/></clipPath><radialGradient cx="0" cy="0" r="1" gradientUnits="userSpaceOnUse" id="master_svgb_3_4491" gradientTransform="translate(246.5 94) rotate(90) scale(6.5 6.5)"><stop offset="0%" stop-color="#8C8C8C" stop-opacity="1"/><stop offset="100%" stop-color="#FFFFFF" stop-opacity="1"/></radialGradient></defs><g style="opacity:0.949999988079071;" filter="url(#master_svg0_50_4354)"><g clip-path="url(#master_svg1_50_4354)"><rect x="64" y="60" width="217" height="68" rx="10" fill="#FFFFFF" fill-opacity="1"/><g clip-path="url(#master_svg2_50_4355)"><g><rect x="78" y="78" width="189" height="32" rx="6" fill="#F5F5F5" fill-opacity="1"/><g><g clip-path="url(#master_svg3_50_5376/3_5310)"><g><rect x="92.5" y="88" width="12" height="12" rx="1" fill="#D9D9D9" fill-opacity="1"/><rect x="92.5" y="88" width="12" height="12" rx="1" fill-opacity="0" stroke-opacity="1" stroke="#434343" fill="none" stroke-width="1"/></g></g></g><g><rect x="117" y="80" width="37" height="28" rx="4" fill="#FFFFFF" fill-opacity="1"/><rect x="117.5" y="80.5" width="36" height="27" rx="3.5" fill-opacity="0" stroke-opacity="1" stroke="#EBEBEB" fill="none" stroke-width="1"/><g clip-path="url(#master_svg4_50_5376/3_5314)"><g><rect x="129.5" y="88" width="12" height="12" rx="1" fill="url(#master_svg5_3_4314)" fill-opacity="1"/><rect x="129.5" y="88" width="12" height="12" rx="1" fill-opacity="0" stroke-opacity="1" stroke="#434343" fill="none" stroke-width="1"/></g></g></g><g><g clip-path="url(#master_svg6_50_5376/3_5318)"><g><rect x="165.5" y="87" width="14" height="14" rx="7" fill="url(#master_svg7_3_4145)" fill-opacity="1"/><rect x="165.5" y="87" width="14" height="14" rx="7" fill-opacity="0" stroke-opacity="1" stroke="#434343" fill="none" stroke-width="1"/></g></g></g><g><g clip-path="url(#master_svg8_50_5376/3_5316)"><g><rect x="202.5" y="87" width="14" height="14" rx="7" fill="url(#master_svg9_3_4633)" fill-opacity="1"/><rect x="202.5" y="87" width="14" height="14" rx="7" fill-opacity="0" stroke-opacity="1" stroke="#434343" fill="none" stroke-width="1"/></g></g></g><g><g clip-path="url(#master_svga_50_5376/3_5320)"><g><rect x="240" y="87.5" width="13" height="13" rx="1" fill="url(#master_svgb_3_4491)" fill-opacity="1"/><rect x="240" y="87.5" width="13" height="13" rx="1" fill-opacity="0" stroke-opacity="1" stroke="#434343" fill="none" stroke-width="1"/></g></g></g></g></g></g></g></svg>